<?xml version="1.0" standalone="no"?>
<!DOCTYPE svg PUBLIC "-//W3C//DTD SVG 1.1//EN" "http://www.w3.org/Graphics/SVG/1.1/DTD/svg11.dtd" >
<svg xmlns="http://www.w3.org/2000/svg" xmlns:xlink="http://www.w3.org/1999/xlink" version="1.1">
<metadata>
Created by FontForge 20170731 at Sun Jan 22 10:58:56 2006
 By Aleksey,,,
HTF Didot   1992 The Hoefler Type Foundry, Inc. This typeface and the digital software that describes it are the exclusive property of HTF. Jacquard is a trademark of HTF.
</metadata>
<defs>
<font id="Didot-HTF-L96-Light" horiz-adv-x="497" >
  <font-face 
    font-family="Didot"
    font-weight="500"
    font-stretch="normal"
    units-per-em="1000"
    panose-1="2 0 6 3 9 0 0 2 0 4"
    ascent="800"
    descent="-200"
    x-height="426"
    cap-height="709"
    bbox="-116 -368 1072 941.5"
    underline-thickness="20"
    underline-position="-163"
    unicode-range="U+0020-FB02"
  />
<missing-glyph horiz-adv-x="500" 
 />
    <glyph glyph-name=".notdef" horiz-adv-x="500" 
 />
    <glyph glyph-name=".null" horiz-adv-x="0" 
 />
    <glyph glyph-name="nonmarkingreturn" horiz-adv-x="175" 
 />
    <glyph glyph-name="space" unicode=" " horiz-adv-x="175" 
 />
    <glyph glyph-name="space" unicode="&#xa0;" horiz-adv-x="175" 
 />
    <glyph glyph-name="exclam" unicode="!" horiz-adv-x="201" 
d="M153 651q0 41 -14 58t-38 17q-25 0 -39 -17t-14 -58q0 -33 8 -88t17.5 -121.5t17.5 -138.5t8 -138q0 -2 2 -2t2 2q0 66 8 138t17 138.5t17 121.5t8 88zM145 34q0 20 -13 33.5t-31 13.5q-19 0 -32 -13.5t-13 -33.5t13 -33.5t32 -13.5q18 0 31 13.5t13 33.5z" />
    <glyph glyph-name="quotedbl" unicode="&#x22;" horiz-adv-x="331" 
d="M283 672q0 8 -2 17.5t-6.5 17.5t-13 13.5t-20.5 5.5t-20 -5.5t-13 -13.5t-7 -17.5t-2 -17.5q0 -19 5 -41t11.5 -45.5t13.5 -48.5t11 -50v-11h2q1 0 1 5v6q4 25 11 50t13.5 48.5t11 45.5t4.5 41zM133 672q0 8 -2 17.5t-6.5 17.5t-13 13.5t-20.5 5.5t-20 -5.5t-13 -13.5
t-7 -17.5t-2 -17.5q0 -19 5 -41t11.5 -45.5t13.5 -48.5t11 -50v-11h2q1 0 1 5v6q4 25 11 50t13.5 48.5t11 45.5t4.5 41z" />
    <glyph glyph-name="numbersign" unicode="#" horiz-adv-x="482" 
d="M467 296q2 0 2 2t-2 2h-119l48 167q1 2 -1 2.5t-3 -1.5l-48 -168h-139l48 167q1 2 -1 2.5t-3 -1.5l-48 -168h-120q-2 0 -2 -2t2 -2h119l-48 -167h-120q-2 0 -2 -2t2 -2h119l-49 -167q0 -2 2 -2.5t3 1.5l48 168h139l-48 -167q-1 -2 1 -2.5t3 1.5l49 168h120q2 0 2 2t-2 2
h-119l47 167h120zM343 296l-48 -167h-138l47 167h139z" />
    <glyph glyph-name="dollar" unicode="$" horiz-adv-x="554" 
d="M506 202q0 45 -12.5 77t-36.5 56.5t-60 43t-84 35.5v305q44 -7 60.5 -26.5t16.5 -50.5q0 -13 -6.5 -19.5t-14 -12.5t-14 -15t-6.5 -26q0 -23 17 -40t40 -17q21 0 41 18t20 50q0 21 -8 44t-26 43t-47.5 35t-72.5 21v87q0 2 -3 2q-2 0 -2 -2v-86q-11 1 -21.5 1.5t-22.5 0.5
q-17 0 -35 -3v87q0 2 -3 2q-2 0 -2 -2v-89q-32 -8 -61 -26.5t-50.5 -45.5t-34 -60t-12.5 -68q0 -43 11.5 -75t32.5 -55.5t50 -40t64 -29.5v-333q-56 5 -75.5 26t-19.5 49q0 13 5.5 19t12.5 11.5t12.5 14t5.5 25.5q0 23 -17 40t-40 17q-22 0 -41.5 -18t-19.5 -50
q0 -22 12 -44.5t35 -41.5t55.5 -33t74.5 -18v-86q0 -2 2 -2q3 0 3 2v85q8 -1 16 -1h16q27 0 47 4v-88q0 -2 2 -2q3 0 3 2v89q48 9 84 32.5t60 54t36.5 64.5t12.5 63zM308 415q-45 16 -79 34v269q16 4 36 4h23t20 -2v-305zM224 451q-110 58 -110 139q0 21 8.5 41.5t23.5 37
t35 29.5t43 19v-266zM450 127q0 -42 -36 -81.5t-101 -53.5v295q36 -16 62 -32t42.5 -34.5t24.5 -41.5t8 -52zM308 -9q-20 -4 -48 -4h-16q-7 0 -15 1v331q22 -8 42 -15t37 -15v-298z" />
    <glyph glyph-name="percent" unicode="%" horiz-adv-x="723" 
d="M387 587q0 60 -34 93t-86 33q-50 0 -92.5 -21.5t-73.5 -54.5t-48.5 -73.5t-17.5 -79.5q0 -60 34 -93t86 -33q50 0 92.5 21.5t73.5 54.5t48.5 73.5t17.5 79.5zM590 725q1 2 -1 3.5t-3 -0.5l-453 -749q-1 -2 1 -3.5t3 0.5zM688 220q0 60 -34 93t-86 33q-50 0 -92.5 -21.5
t-74 -54.5t-49 -73.5t-17.5 -79.5q0 -60 34 -93t87 -33q50 0 92.5 21.5t73.5 54.5t48.5 73.5t17.5 79.5zM327 641q0 -23 -5.5 -60t-17.5 -76.5t-31 -74t-46 -50.5q-17 -11 -34.5 -14.5t-37.5 -3.5q-34 0 -47 16t-13 52q0 22 5.5 59.5t17.5 77t31 73.5t46 51q17 11 34.5 14.5
t37.5 3.5q34 0 47 -16t13 -52zM628 274q0 -23 -5.5 -60t-17.5 -76.5t-31 -74t-46 -50.5q-17 -11 -34.5 -14.5t-37.5 -3.5q-34 0 -47 16t-13 52q0 22 5.5 59.5t17.5 77t31 73.5t45 51q17 11 35 14.5t38 3.5q34 0 47 -16t13 -52z" />
    <glyph glyph-name="ampersand" unicode="&#x26;" horiz-adv-x="666" 
d="M680 377q2 0 2 2t-2 2h-230q-2 0 -2 -2t2 -2h36q39 0 57 -16.5t16 -58.5q-3 -54 -21.5 -106.5t-43.5 -91.5q-28 43 -58.5 93t-58.5 102.5t-52 104.5t-38 98q54 31 86.5 68.5t32.5 73.5q0 35 -17.5 58.5t-64.5 23.5q-30 0 -55.5 -13t-44 -37.5t-29.5 -59.5t-11 -78t17 -97
q-79 -52 -122 -113t-43 -139q0 -45 17 -83t47 -65.5t71 -42.5t89 -15q91 0 168 49q51 -48 108 -48q44 0 86 21t59 60q1 2 -0.5 3t-2.5 0q-5 -14 -17.5 -28.5t-31.5 -22.5q-8 -3 -16 -3q-11 0 -25 5.5t-28.5 14.5t-28 21t-22.5 25q-3 5 -4 6.5t-2 2.5t-2 3t-4 7
q26 41 43.5 93t22.5 110q4 42 22 58.5t56 16.5h39zM402 644q0 -18 -9.5 -37t-25.5 -37t-37 -34t-44 -29q-9 31 -12.5 59.5t-3.5 54.5q0 50 21.5 73.5t45.5 23.5q35 0 50 -20.5t15 -53.5zM426 35q-23 -11 -42 -17t-47 -6q-51 0 -91 19.5t-67.5 54.5t-42 83t-14.5 106
q0 50 24 93.5t56 68.5q13 -39 32 -81t41 -84t46 -82.5t46 -76.5q28 -47 59 -78z" />
    <glyph glyph-name="quotesingle" unicode="'" horiz-adv-x="181" 
d="M133 672q0 8 -2 17.5t-6.5 17.5t-13 13.5t-20.5 5.5t-20.5 -5.5t-13 -13.5t-6.5 -17.5t-2 -17.5q0 -19 5 -41t11.5 -46t13.5 -48.5t11 -49.5v-11h2q1 0 1 5v6q4 25 11 49.5t13.5 48.5t11 46t4.5 41z" />
    <glyph glyph-name="parenleft" unicode="(" horiz-adv-x="261" 
d="M328 -241q-48 30 -81.5 66t-55.5 90t-32 133.5t-10 198.5q0 118 10 198t32 134.5t55.5 90.5t81.5 66q1 1 -0.5 2t-3.5 0q-58 -39 -104.5 -91t-79.5 -114.5t-50.5 -134.5t-17.5 -151t17.5 -151t50.5 -134t79.5 -114t104.5 -92q2 -1 3.5 0.5t0.5 2.5z" />
    <glyph glyph-name="parenright" unicode=")" horiz-adv-x="261" 
d="M194 247q0 79 -17.5 151t-50.5 134.5t-79.5 114.5t-104.5 91q-2 1 -3.5 0t-0.5 -2q48 -30 81.5 -66t55.5 -90.5t32 -134.5t10 -198q0 -119 -10 -198.5t-32 -133.5t-55.5 -90t-81.5 -66q-1 -1 0.5 -2.5t3.5 -0.5q58 40 104.5 92t79.5 114t50.5 134t17.5 151z" />
    <glyph glyph-name="asterisk" unicode="*" horiz-adv-x="319" 
d="M269 554q0 11 -10 17q-8 4 -16 5.5t-19 3t-25.5 6.5t-34.5 17q20 12 34.5 17t25.5 6.5t19 2.5t16 6q10 6 10 17q0 8 -6 16t-15 8q-10 0 -15.5 -5.5t-13 -14.5t-19.5 -21t-33 -25l-5 -3v6q0 21 3 35t7 23.5t7 17t3 16.5t-6.5 15t-15.5 6t-15.5 -6t-6.5 -15t3 -16.5t7 -17
t7 -23.5t3 -35v-6l-5 3q-21 13 -33 25t-19.5 21t-13 14.5t-15.5 5.5q-9 0 -15 -8t-6 -16q0 -11 10 -17q8 -5 16 -6t19 -2.5t25.5 -6.5t34.5 -17q-20 -12 -34.5 -17t-25.5 -6.5t-19 -3t-16 -5.5q-10 -6 -10 -17q0 -8 6 -16t15 -8q10 0 15.5 5.5t13 14.5t19.5 21t33 25l5 3v-6
q0 -21 -3 -35t-7 -23.5t-7 -17t-3 -16.5t6.5 -15t15.5 -6t15.5 6t6.5 15t-3 16.5t-7 17t-7 23.5t-3 35v6l5 -3q21 -13 33 -25t19.5 -21t13 -14.5t15.5 -5.5q9 0 15 8t6 16z" />
    <glyph glyph-name="plus" unicode="+" horiz-adv-x="420" 
d="M370 211q2 0 2 2t-2 2h-158v158q0 2 -2 2t-2 -2v-158h-158q-2 0 -2 -2t2 -2h158v-158q0 -2 2 -2t2 2v158h158z" />
    <glyph glyph-name="comma" unicode="," horiz-adv-x="159" 
d="M127 22q0 27 -12 43t-35 16q-19 0 -32 -13.5t-13 -33.5q0 -14 6 -23.5t14 -15.5q15 -11 22 -23.5t7 -25.5q0 -14 -8.5 -28t-23.5 -26q-10 -9 -26 -15q-2 0 -1 -2t2 -1q20 6 38 23.5t32 39.5t22 45t8 40z" />
    <glyph glyph-name="hyphen" unicode="-" horiz-adv-x="322" 
d="M293 260q2 4 0 4h-251q-2 -17 -4 -26.5t-10 -20.5q-2 -4 0 -4h251q2 17 4 26.5t10 20.5z" />
    <glyph glyph-name="period" unicode="." horiz-adv-x="159" 
d="M124 34q0 20 -13 33.5t-32 13.5q-18 0 -31 -13.5t-13 -33.5t13 -33.5t31 -13.5q19 0 32 13.5t13 33.5z" />
    <glyph glyph-name="slash" unicode="/" horiz-adv-x="358" 
d="M387 754q1 2 -1 3t-3 -1l-321 -777q0 -2 2 -3t3 1z" />
    <glyph glyph-name="zero" unicode="0" horiz-adv-x="514" 
d="M469 212q0 46 -16.5 86t-45.5 70t-67.5 47.5t-82.5 17.5t-82.5 -17.5t-67.5 -47.5t-45.5 -70t-16.5 -86t16.5 -86.5t45.5 -70.5t67.5 -47.5t82.5 -17.5t82.5 17.5t67.5 47.5t45.5 70.5t16.5 86.5zM385 212q0 -45 -2.5 -77t-8.5 -54.5t-15.5 -37.5t-22.5 -26
q-16 -14 -35.5 -18.5t-43.5 -4.5t-44 4.5t-35 18.5q-13 11 -22.5 26t-15.5 37.5t-8.5 54.5t-2.5 77q0 78 11.5 125t37.5 69q15 14 35 18.5t44 4.5t43.5 -4.5t35.5 -18.5q26 -22 37.5 -69t11.5 -125z" />
    <glyph glyph-name="one" unicode="1" horiz-adv-x="308" 
d="M264 0q2 0 2 2t-2 2h-64q-7 0 -7 4v411q0 3 7 3h64q2 0 2 2t-2 2h-220q-2 0 -2 -2t2 -2h64q7 0 7 -3v-411q0 -4 -7 -4h-64q-2 0 -2 -2t2 -2h220z" />
    <glyph glyph-name="two" unicode="2" horiz-adv-x="448" 
d="M413 3v148q0 2 -2 2t-2 -2q0 -45 -20.5 -69t-68.5 -24h-181q-8 0 -2 3q61 36 105 66t73 58t43 54.5t14 55.5q0 37 -15 64t-40.5 43.5t-59.5 24.5t-72 8q-29 0 -51 -7t-36.5 -18t-22 -24.5t-7.5 -26.5q0 -16 9 -29.5t30 -13.5q22 0 32 10.5t10 23.5q0 12 -4 18.5t-4 17.5
q0 24 12.5 34.5t31.5 10.5q23 0 43 -6t34.5 -21t22.5 -39t8 -60q0 -51 -14.5 -92.5t-47 -76.5t-85.5 -66t-129 -62q-4 -2 -2.5 -5t3.5 -3h392q3 0 3 3z" />
    <glyph glyph-name="three" unicode="3" horiz-adv-x="396" 
d="M376 -71q0 37 -12 72t-35.5 62t-58 43t-79.5 16q-9 0 -18.5 -0.5t-20.5 -2.5q30 12 62.5 29.5t59 39.5t43.5 49t17 58q0 37 -15 64t-40.5 43.5t-60 24.5t-72.5 8q-29 0 -51 -7t-36.5 -18t-22 -24.5t-7.5 -26.5q0 -16 9 -29.5t30 -13.5q23 0 32.5 10.5t9.5 23.5
q0 12 -3.5 18.5t-3.5 17.5q0 24 12 34.5t31 10.5q47 0 75.5 -27t28.5 -99q0 -42 -9.5 -73.5t-29 -56.5t-49 -46.5t-70.5 -44.5q-2 -1 -1 -3t3 0q27 17 43.5 25.5t32.5 8.5q27 0 49 -7.5t38.5 -29t25.5 -60t9 -99.5t-12 -100.5t-32 -62t-46.5 -31t-55.5 -8.5
q-28 0 -45.5 10.5t-17.5 43.5q0 11 4 18t4 18q0 13 -10 23.5t-32 10.5t-30.5 -13.5t-8.5 -29.5q0 -34 33.5 -59.5t102.5 -25.5q38 0 79 14t74.5 41t55 67.5t21.5 93.5z" />
    <glyph glyph-name="four" unicode="4" horiz-adv-x="452" 
d="M459 0q2 0 2 2t-2 2h-111v210q0 2 -2 2q-1 0 -2 -2q-3 -11 -9.5 -23.5t-15.5 -24.5t-21.5 -20.5t-28.5 -10.5v-131h-245l382 525q0 1 -1.5 2t-2.5 -1q-11 -14 -27.5 -25t-34 -18.5t-35 -9.5t-30.5 3l-190 -359q-16 -34 -33.5 -64.5t-32.5 -51.5q-2 -2 -1.5 -3.5t2.5 -1.5
h249v-278h79v278h111z" />
    <glyph glyph-name="five" unicode="5" horiz-adv-x="405" 
d="M376 -52q0 42 -9.5 81t-30.5 68t-53 46.5t-77 17.5q-48 0 -76.5 -19.5t-42.5 -54.5v325q7 -14 22.5 -26t35 -21t42 -14t42.5 -5q22 0 42 5.5t35 15t24 22t9 26.5q0 17 -7.5 26t-29.5 9q-15 0 -27 -8.5t-26 -18.5t-32.5 -18.5t-46.5 -8.5q-29 0 -51 6.5t-34 18.5
q-1 1 -2.5 0.5t-1.5 -2.5t1 -3t1 -6v-334q0 -6 -2 -16t-2 -15q0 -8 6 -8q5 0 5 7q0 9 -2 16t1 20q10 37 37.5 55.5t58.5 18.5q27 0 47 -9t33.5 -33t20 -66t6.5 -108t-9.5 -109t-27 -67.5t-41.5 -34.5t-53 -10t-46 10.5t-17 43.5q0 11 3.5 18t3.5 18q0 13 -9.5 23.5
t-32.5 10.5q-21 0 -30 -13.5t-9 -29.5q0 -34 34 -59.5t103 -25.5q38 0 76.5 15t69 44.5t50 73.5t19.5 102z" />
    <glyph glyph-name="six" unicode="6" horiz-adv-x="513" 
d="M468 196q0 41 -16 78t-43.5 65t-64.5 44.5t-79 16.5t-71 -22.5t-53 -53.5q2 71 13 140t31 123.5t48.5 88t65.5 33.5q19 0 29 -10.5t10 -34.5q0 -12 -3.5 -18.5t-3.5 -17.5q0 -13 9.5 -23.5t32.5 -10.5q21 0 30 13.5t9 29.5q0 12 -6.5 25.5t-20.5 25t-35 18.5t-51 7
q-55 0 -99 -36t-75 -95t-48 -134.5t-17 -153.5t15.5 -135t42.5 -94.5t64.5 -55.5t82.5 -18q42 0 79 16.5t64.5 44.5t43.5 65t16 79zM384 196q0 -41 -2.5 -70.5t-8 -50.5t-14 -35.5t-20.5 -24.5q-15 -11 -35.5 -15.5t-38.5 -4.5q-19 0 -39 4.5t-35 15.5q-12 10 -21.5 23.5
t-15.5 34t-9.5 49t-3.5 69.5v109q0 9 9 25t25.5 32t39.5 28t50 12q18 0 38.5 -4.5t35.5 -16.5q24 -20 34.5 -64.5t10.5 -115.5z" />
    <glyph glyph-name="seven" unicode="7" horiz-adv-x="415" 
d="M400 422q4 4 0 4h-9h-338q-2 0 -2 -3v-148q0 -2 1 -2q2 0 2 2q0 45 20.5 64.5t68.5 19.5h226l-307 -637h79l197 545q18 51 33 89t29 66z" />
    <glyph glyph-name="eight" unicode="8" horiz-adv-x="519" 
d="M469 177q0 66 -44 118t-118 103q27 11 51 28t41.5 38.5t27.5 46.5t10 52q0 38 -15.5 66t-41 47t-57 28t-64.5 9q-40 0 -70.5 -14.5t-51 -37t-31 -50.5t-10.5 -56q0 -30 9 -56t23.5 -48t33.5 -41t40 -35q-66 -27 -106.5 -80.5t-40.5 -118.5q0 -47 17.5 -81.5t46 -57.5
t65.5 -34.5t75 -11.5q45 0 83 14.5t66.5 39.5t44.5 59t16 73zM378 559q0 -39 -7 -64.5t-18 -43t-24 -29.5t-25 -22q-28 19 -56 40.5t-50 47t-35.5 55.5t-13.5 65q0 42 28.5 71.5t81.5 29.5q24 0 45.5 -7.5t38 -24.5t26 -46t9.5 -72zM410 133q0 -42 -16 -69t-39 -42.5
t-49 -21.5t-47 -6q-28 0 -53 8.5t-43.5 30t-29.5 58t-11 91.5q0 45 7.5 76t19.5 52t26.5 35.5t28.5 27.5q33 -26 69.5 -51.5t67 -53.5t50 -60.5t19.5 -74.5z" />
    <glyph glyph-name="nine" unicode="9" horiz-adv-x="504" 
d="M464 129q0 81 -16 139t-44.5 95t-67 54.5t-83.5 17.5q-44 0 -81.5 -17t-64.5 -46t-42 -68t-15 -82q0 -44 15 -82.5t42 -67.5t64.5 -46t81.5 -17q32 0 65 13t56 42q-3 -68 -13 -131t-29 -111t-48.5 -76.5t-70.5 -28.5q-48 0 -48 49q0 12 4 18.5t4 18.5q0 13 -9.5 23
t-32.5 10q-21 0 -30 -13t-9 -29q0 -13 7 -27t22 -26t37.5 -20t54.5 -8q60 0 106.5 35.5t79 94t49 133.5t16.5 153zM384 224q0 -15 -0.5 -37.5t-2 -44t-3 -38.5t-2.5 -20q-3 -12 -14 -24.5t-27.5 -23t-37.5 -17.5t-44 -7q-20 0 -39.5 5t-36.5 17q-26 21 -34.5 67t-8.5 121
q0 43 2 73.5t6.5 52.5t13 36.5t21.5 24.5q17 13 36.5 17.5t39.5 4.5t41.5 -4.5t37.5 -17.5q13 -10 23 -24t16.5 -35.5t9.5 -52t3 -73.5z" />
    <glyph glyph-name="colon" unicode=":" horiz-adv-x="159" 
d="M124 324q0 20 -13 33.5t-32 13.5q-18 0 -31 -13.5t-13 -33.5t13 -33.5t31 -13.5q19 0 32 13.5t13 33.5zM124 34q0 20 -13 33.5t-32 13.5q-18 0 -31 -13.5t-13 -33.5t13 -33.5t31 -13.5q19 0 32 13.5t13 33.5z" />
    <glyph glyph-name="semicolon" unicode=";" horiz-adv-x="159" 
d="M124 324q0 20 -13 33.5t-32 13.5q-18 0 -31 -13.5t-13 -33.5t13 -33.5t31 -13.5q19 0 32 13.5t13 33.5zM127 22q0 27 -12 43t-35 16q-19 0 -32 -13.5t-13 -33.5q0 -14 6 -23.5t14 -15.5q15 -11 22 -23.5t7 -25.5q0 -14 -8.5 -28t-23.5 -26q-10 -9 -26 -15q-2 0 -1 -2
t2 -1q20 6 38 23.5t32 39.5t22 45t8 40z" />
    <glyph glyph-name="less" unicode="&#x3c;" horiz-adv-x="335" 
d="M293 76l-238 137l238 138q2 1 1 2.5t-3 0.5l-241 -139q-2 -2 0 -4l241 -139q2 -1 3 1t-1 3z" />
    <glyph glyph-name="equal" unicode="=" horiz-adv-x="379" 
d="M329 271q2 0 2 1q0 2 -2 2h-278q-2 0 -2 -2q0 -1 2 -1h278zM329 152q2 0 2 2t-2 2h-278q-2 0 -2 -2t2 -2h278z" />
    <glyph glyph-name="greater" unicode="&#x3e;" horiz-adv-x="335" 
d="M285 211q2 2 0 4l-241 139q-2 1 -3 -0.5t1 -2.5l238 -138l-238 -137q-2 -1 -1 -3t3 -1z" />
    <glyph glyph-name="question" unicode="?" horiz-adv-x="409" 
d="M373 518q0 46 -16 84.5t-45 66t-68.5 42.5t-85.5 15q-35 0 -60 -9t-41.5 -24t-24.5 -34t-8 -38q0 -25 13 -36.5t34 -11.5t33 11.5t12 28.5q0 10 -2 15.5t-4 10.5t-4 11.5t-2 18.5q0 15 1.5 25t7 16t16.5 9t29 3q20 0 39.5 -4.5t35.5 -18.5q26 -22 39.5 -63t13.5 -118
q0 -53 -1.5 -85t-5 -51t-9 -27.5t-12.5 -14.5q-11 -8 -29 -13t-33 -5q-18 0 -41 7.5t-33 27.5q-1 1 -2.5 0.5t-1.5 -2.5q0 -1 0.5 -1.5t0.5 -2.5v-186q0 -2 2 -2t2 2v182q13 -17 34.5 -23t38.5 -6q36 0 68 14t56 40t38.5 63t14.5 83zM166 34q0 20 -13 33.5t-32 13.5
t-32 -13.5t-13 -33.5t13 -33.5t32 -13.5t32 13.5t13 33.5z" />
    <glyph glyph-name="at" unicode="@" horiz-adv-x="825" 
d="M759 404q0 77 -26.5 137t-72 101t-107 62.5t-131.5 21.5q-77 0 -144.5 -29t-118 -79.5t-80 -118t-29.5 -144.5t29.5 -144.5t80 -118t118 -80t144.5 -29.5q67 0 127 22.5t108 61.5q2 2 0.5 3t-3.5 0q-48 -39 -107 -61t-125 -22q-76 0 -143 29t-117 79t-79 117t-29 143
t29 143t79 116.5t117 78.5t143 29q69 0 130 -21t106 -61.5t71 -100t26 -135.5q0 -51 -17.5 -91.5t-47 -68.5t-66.5 -43t-76 -15q-43 0 -42 42t31 137l50 160h-59l-12 -36q-3 10 -11 18.5t-18.5 14t-23 8.5t-23.5 3q-46 0 -87 -21t-71.5 -54.5t-48.5 -74t-18 -79.5
q0 -24 5.5 -46.5t18 -40.5t33 -29t49.5 -11q15 0 33.5 6t37 18t35.5 31t28 46q-5 -20 -5.5 -38t7 -32t25.5 -22.5t49 -8.5q36 0 76 13.5t74 41t56 70.5t22 102zM512 475l-62 -196q-4 -14 -15.5 -30.5t-28.5 -31t-37.5 -24t-42.5 -9.5q-27 0 -44 16t-17 43q0 25 7 61.5
t20 73.5t30.5 69t38.5 50q20 17 38 25t41 8q15 0 29 -5t24.5 -12.5t16 -17.5t2.5 -20z" />
    <glyph glyph-name="A" unicode="A" horiz-adv-x="672" 
d="M701 0q2 0 2 2t-2 2h-85q-5 0 -8 3l-277 716q-1 2 -3 2q-1 0 -2 -2l-248 -677q-11 -29 -14.5 -35.5t-10.5 -6.5h-76q-2 0 -2 -2t2 -2h189q2 0 2 2t-2 2h-92q-5 0 -3.5 7.5t11.5 34.5l74 200h246l87 -239q0 -3 -5 -3h-96q-2 0 -2 -2t2 -2h313zM400 250h-243l122 331z" />
    <glyph glyph-name="B" unicode="B" horiz-adv-x="660" 
d="M616 188q0 45 -20.5 80t-55.5 59.5t-82 37.5t-101 13q37 0 73.5 12.5t66 35t48 53t18.5 66.5q0 42 -19.5 72.5t-52 51t-75 30.5t-89.5 10h-288q-2 0 -2 -2t2 -2h89q7 0 7 -4v-693q0 -4 -7 -4h-89q-2 0 -2 -2t2 -2h338q60 0 105 16t74.5 42t44.5 60t15 70zM457 541
q0 -46 -7 -77t-20.5 -49.5t-35 -26.5t-49.5 -8h-101v321q0 4 7 4h60q78 0 112 -37.5t34 -126.5zM509 182q0 -50 -11.5 -84t-32.5 -55t-50.5 -30t-65.5 -9h-98q-7 0 -7 4v368h91q39 0 71 -8t55 -29t35.5 -59t12.5 -98z" />
    <glyph glyph-name="C" unicode="C" horiz-adv-x="659" 
d="M610 -15v228q0 2 -2 2t-2 -2q0 -49 -16.5 -90.5t-46 -72t-69.5 -47.5t-87 -17q-35 0 -72 8.5t-63 30.5q-43 37 -65 116.5t-22 212.5t22 212.5t65 116.5q26 23 60.5 31t69.5 8q38 0 74.5 -17t65.5 -44.5t47 -63t18 -72.5q0 -2 2 -2t2 2v198q0 2 -2 2t-2 -2
q-2 -8 -15.5 -16t-35.5 -8q-18 0 -37 4t-39 9.5t-39.5 9.5t-38.5 4q-72 0 -133 -30t-105.5 -81t-69 -118.5t-24.5 -142.5t25.5 -142t70.5 -118t107 -81t134 -30q21 0 44.5 5t46 11t43.5 11t39 5q22 0 33 -10.5t13 -19.5q1 -1 2 -1q2 0 2 1z" />
    <glyph glyph-name="D" unicode="D" horiz-adv-x="748" 
d="M698 354q0 73 -26 138t-71 113t-105.5 76t-129.5 28h-327q-2 0 -2 -2t2 -2h89q7 0 7 -4v-693q0 -4 -7 -4h-89q-2 0 -2 -2t2 -2h327q69 0 129.5 28t105.5 76t71 112.5t26 137.5zM583 354q0 -72 -5.5 -123.5t-16.5 -87.5t-27.5 -60t-37.5 -42q-26 -21 -60.5 -29t-69.5 -8
h-115q-7 0 -7 4v693q0 4 7 4h115q35 0 69.5 -8t60.5 -29q43 -35 65 -111t22 -203z" />
    <glyph glyph-name="E" unicode="E" horiz-adv-x="638" 
d="M614 3v198q0 2 -2 2t-2 -2q0 -39 -11.5 -74.5t-38.5 -62.5t-70 -43.5t-106 -16.5h-133q-6 0 -6 4v354h54q62 0 94.5 -31.5t32.5 -82.5q0 -2 2 -2t2 2v232q0 2 -2 2t-2 -2q0 -52 -32.5 -83t-94.5 -31h-54v335q0 4 6 4h130q48 0 81 -14.5t54 -39t30.5 -56.5t9.5 -67
q0 -2 2 -2t2 2v178q0 3 -3 3h-518q-2 0 -2 -2t2 -2h90q6 0 6 -4v-693q0 -4 -6 -4h-90q-2 0 -2 -2t2 -2h572q3 0 3 3z" />
    <glyph glyph-name="F" unicode="F" horiz-adv-x="612" 
d="M560 528v178q0 3 -3 3h-518q-2 0 -2 -2t2 -2h90q6 0 6 -4v-693q0 -4 -6 -4h-90q-2 0 -2 -2t2 -2h302q2 0 2 2t-2 2h-90q-7 0 -7 4v354h45q62 0 94.5 -31.5t32.5 -82.5q0 -2 2 -2t2 2v232q0 2 -2 2t-2 -2q0 -52 -32.5 -83t-94.5 -31h-45v335q0 4 7 4h129q48 0 81.5 -14.5
t54.5 -39t30.5 -56.5t9.5 -67q0 -2 2 -2t2 2z" />
    <glyph glyph-name="G" unicode="G" horiz-adv-x="683" 
d="M716 268q2 0 2 2t-2 2h-301q-2 0 -2 -2t2 -2h89q7 0 7 -3v-179q0 -43 -36.5 -71.5t-106.5 -28.5q-35 0 -70.5 8.5t-61.5 30.5q-21 18 -35 45.5t-21.5 66.5t-10.5 92.5t-3 124.5q0 133 22 212.5t65 116.5q26 23 60.5 31t69.5 8q39 0 73.5 -17t60 -44.5t40.5 -63t15 -72.5
q0 -2 2 -2t2 2v198q0 2 -2 2q-1 0 -2 -2q-2 -8 -15.5 -16t-35.5 -8q-17 0 -34.5 4t-34.5 9.5t-34.5 9.5t-34.5 4q-73 0 -134 -30t-105.5 -81t-69 -118.5t-24.5 -142.5q0 -72 22 -139t63 -118.5t100 -82.5t133 -31q43 0 72.5 9t51 19.5t37.5 19.5t34 9q11 0 20 -5t15.5 -12
t10.5 -14.5t5 -11.5q0 -2 3 -2.5t3 1.5v269q0 3 7 3h89z" />
    <glyph glyph-name="H" unicode="H" horiz-adv-x="796" 
d="M757 0q2 0 2 2t-2 2h-90q-6 0 -6 4v693q0 4 6 4h90q2 0 2 2t-2 2h-292q-2 0 -2 -2t2 -2h80q6 0 6 -4v-330h-307v330q0 4 7 4h80q2 0 2 2t-2 2h-292q-2 0 -2 -2t2 -2h89q7 0 7 -4v-693q0 -4 -7 -4h-89q-2 0 -2 -2t2 -2h292q2 0 2 2t-2 2h-80q-7 0 -7 4v359h307v-359
q0 -4 -6 -4h-80q-2 0 -2 -2t2 -2h292z" />
    <glyph glyph-name="I" unicode="I" horiz-adv-x="379" 
d="M341 0q2 0 2 2t-2 2h-90q-7 0 -7 4v693q0 4 7 4h90q2 0 2 2t-2 2h-302q-2 0 -2 -2t2 -2h90q6 0 6 -4v-693q0 -4 -6 -4h-90q-2 0 -2 -2t2 -2h302z" />
    <glyph glyph-name="J" unicode="J" horiz-adv-x="473" 
d="M460 705q2 0 2 2t-2 2h-302q-2 0 -2 -2t2 -2h90q6 0 6 -4v-633q0 -42 -26 -62t-59 -20q-12 0 -23.5 5t-20.5 12.5t-14 17.5t-5 20q0 14 6.5 21t14 13.5t14 15.5t6.5 28q0 26 -19 45t-45 19q-24 0 -46.5 -20t-22.5 -55q0 -22 11 -44t31.5 -40t49 -29.5t63.5 -11.5
q95 0 145 48t50 136v534q0 4 6 4h90z" />
    <glyph glyph-name="K" unicode="K" horiz-adv-x="662" 
d="M754 0q2 0 2 2t-2 2h-92q-6 0 -9 3l-341 420l207 236q13 14 20.5 22.5t12 13t7 5.5t5.5 1h85q2 0 2 2t-2 2h-202q-2 0 -2 -2t2 -2h93q5 0 2 -6.5t-29 -35.5l-269 -306v344q0 4 7 4h89q2 0 2 2t-2 2h-301q-2 0 -2 -2t2 -2h89q7 0 7 -4v-693q0 -4 -7 -4h-89q-2 0 -2 -2
t2 -2h301q2 0 2 2t-2 2h-89q-7 0 -7 4v343l272 -344q3 -3 -3 -3h-104q-2 0 -2 -2t2 -2h345z" />
    <glyph glyph-name="L" unicode="L" horiz-adv-x="606" 
d="M587 3v207q0 2 -2 2t-2 -2q0 -38 -10 -75t-33 -66t-62 -47t-97 -18h-130q-6 0 -6 4v693q0 4 6 4h90q2 0 2 2t-2 2h-302q-2 0 -2 -2t2 -2h90q6 0 6 -4v-693q0 -4 -6 -4h-90q-2 0 -2 -2t2 -2h545q3 0 3 3z" />
    <glyph glyph-name="M" unicode="M" horiz-adv-x="888" 
d="M849 0q2 0 2 2t-2 2h-89q-7 0 -7 4v693q0 4 7 4h89q2 0 2 2t-2 2h-200q-8 0 -14 -19l-182 -537l-202 538q-6 18 -16 18h-201q-2 0 -2 -2t2 -2h89q7 0 7 -4v-693q0 -4 -7 -4h-89q-2 0 -2 -2t2 -2h197q2 0 2 2t-2 2h-90q-6 0 -6 4v691l263 -712q1 -2 3 -2t3 2l240 712v-691
q0 -4 -7 -4h-90q-2 0 -2 -2t2 -2h302z" />
    <glyph glyph-name="N" unicode="N" horiz-adv-x="744" 
d="M715 705q2 0 2 2t-2 2h-197q-2 0 -2 -2t2 -2h90q6 0 6 -4v-525l-345 515q-7 11 -12 14.5t-10 3.5h-213q-2 0 -2 -2t2 -2h90q6 0 6 -4v-693q0 -4 -6 -4h-90q-2 0 -2 -2t2 -2h197q2 0 2 2t-2 2h-90q-6 0 -6 4v691l478 -712q2 -3 4 -2.5t2 2.5v714q0 4 6 4h90z" />
    <glyph glyph-name="O" unicode="O" horiz-adv-x="765" 
d="M715 354q0 77 -26 145t-71.5 118.5t-106 79.5t-129.5 29q-72 0 -133 -30t-105.5 -81t-69 -118.5t-24.5 -142.5q0 -77 26 -144.5t71 -118t105.5 -79.5t129.5 -29t129.5 29t106 79.5t71.5 118t26 144.5zM599 354q0 -76 -5.5 -130t-16.5 -92t-27 -63.5t-37 -43.5
q-26 -22 -58.5 -30.5t-72.5 -8.5q-39 0 -71.5 8.5t-58.5 30.5q-21 18 -37 43.5t-27 63.5t-16.5 92t-5.5 130q0 133 22 212.5t64 116.5q26 23 58.5 31t71.5 8q40 0 72.5 -8t58.5 -31q42 -37 64 -116.5t22 -212.5z" />
    <glyph glyph-name="P" unicode="P" horiz-adv-x="655" 
d="M624 485q0 46 -18.5 86.5t-54.5 71t-88.5 48.5t-121.5 18h-302q-2 0 -2 -2t2 -2h90q6 0 6 -4v-693q0 -4 -6 -4h-90q-2 0 -2 -2t2 -2h302q2 0 2 2t-2 2h-90q-6 0 -6 4v281q21 -5 48.5 -8.5t60.5 -3.5q60 0 109.5 15.5t85.5 43t55.5 66t19.5 83.5zM516 485q0 -54 -12 -92.5
t-33.5 -63.5t-51 -36.5t-65.5 -11.5q-32 0 -59 3t-50 13v404q0 4 6 4h90q36 0 68 -14t55.5 -41.5t37.5 -69t14 -95.5z" />
    <glyph glyph-name="Q" unicode="Q" horiz-adv-x="765" 
d="M715 354q0 77 -26 145t-71.5 118.5t-106 79.5t-129.5 29q-72 0 -133 -30t-105.5 -81t-69 -118.5t-24.5 -142.5q0 -77 26 -144.5t71 -118t105.5 -79.5t129.5 -29q33 0 65 6q-35 -12 -70 -23t-67 -25q-34 -5 -34 -13q0 -5 6 -5t15 7.5t22 7.5q37 0 56 -14t33 -35
t30.5 -45.5t49.5 -45.5t89.5 -35t150.5 -14q2 0 2 2q0 1 -2 1q-53 0 -81.5 14t-46.5 35t-33.5 46t-42.5 46t-74 35t-128 14q25 10 52.5 18.5t55 18.5t55 21t51.5 25q39 22 72 56t56.5 77t37 92.5t13.5 103.5zM599 354q0 -76 -5.5 -130t-16.5 -92t-27.5 -63.5t-37.5 -43.5
q-26 -22 -58 -30.5t-72 -8.5t-72 8.5t-58 30.5q-21 18 -37.5 43.5t-27.5 63.5t-16.5 92t-5.5 130q0 133 22 212.5t65 116.5q26 23 58 31t72 8t72 -8t58 -31q43 -37 65 -116.5t22 -212.5z" />
    <glyph glyph-name="R" unicode="R" horiz-adv-x="695" 
d="M753 18q2 1 1 2.5t-3 0.5q-11 -11 -27.5 -20t-36.5 -9q-29 0 -45.5 27.5t-16.5 65.5v90q0 44 -15.5 79.5t-47 61t-80 39.5t-114.5 14q48 0 89 13t71 35.5t47.5 52.5t17.5 65q0 37 -17 68.5t-48.5 55t-76.5 37t-102 13.5h-311q-2 0 -2 -2t2 -2h90q7 0 7 -4v-693
q0 -4 -7 -4h-90q-2 0 -2 -2t2 -2h330q2 0 2 2t-2 2h-117q-7 0 -7 4v359h103q35 0 65 -7t52 -22.5t34.5 -39t12.5 -56.5v-65q0 -54 11 -91t31 -60t46.5 -33t58.5 -10q33 0 56 9.5t39 25.5zM483 531q0 -48 -7 -79t-23.5 -49t-42.5 -25t-63 -7h-103v330q0 4 7 4h72
q36 0 65.5 -9.5t50.5 -30.5t32.5 -54t11.5 -80z" />
    <glyph glyph-name="S" unicode="S" horiz-adv-x="560" 
d="M528 201q0 46 -15 78.5t-43 57.5t-68 43.5t-89 35.5q-191 67 -191 174q0 25 11 49t30.5 42.5t46 29.5t56.5 11q31 0 62 -12t56 -34t40.5 -51.5t15.5 -65.5q0 -2 2 -2t2 2v164q0 2 -2 2q-1 0 -2 -2q-2 -8 -10.5 -16t-30.5 -8q-16 0 -31.5 4t-31.5 9.5t-33.5 9.5t-37.5 4
q-39 0 -73.5 -17t-60.5 -45t-41.5 -65.5t-15.5 -77.5q0 -44 13.5 -76.5t36.5 -56t54.5 -40.5t67.5 -30q59 -21 101.5 -39.5t70.5 -40.5t41 -48.5t13 -62.5q0 -24 -13 -49.5t-37.5 -45.5t-60 -33t-79.5 -13q-50 0 -91 23t-70.5 56t-45.5 71t-16 68q0 2 -2 2q-1 0 -1 -2v-219
q0 -2 1 -2q2 0 2 2q3 14 18.5 26.5t37.5 12.5q18 0 36.5 -6.5t38.5 -14t43 -14t50 -6.5q60 0 106 22t77 54.5t46.5 70.5t15.5 71z" />
    <glyph glyph-name="T" unicode="T" horiz-adv-x="626" 
d="M606 498v208q0 3 -2 3h-581q-3 0 -3 -3v-208q0 -2 2 -2t2 2q0 43 10.5 81t34.5 66t62 44t94 16h25q6 0 6 -4v-693q0 -4 -6 -4h-90q-2 0 -2 -2t2 -2h302q2 0 2 2t-2 2h-90q-6 0 -6 4v693q0 4 6 4h25q55 0 94 -16t64 -44t36 -66t11 -81q0 -2 2 -2t2 2z" />
    <glyph glyph-name="U" unicode="U" horiz-adv-x="729" 
d="M720 705q2 0 2 2t-2 2h-197q-2 0 -2 -2t2 -2h90q6 0 6 -4v-491q0 -48 -12.5 -87.5t-39 -68t-67 -44t-96.5 -15.5q-179 0 -179 212v494q0 4 6 4h90q2 0 2 2t-2 2h-302q-2 0 -2 -2t2 -2h90q6 0 6 -4v-494q0 -56 19.5 -98t54.5 -70t83 -42t106 -14q64 0 110.5 16t76.5 45.5
t44.5 71.5t14.5 94v491q0 4 6 4h90z" />
    <glyph glyph-name="V" unicode="V" horiz-adv-x="705" 
d="M733 705q2 0 2 2t-2 2h-202q-2 0 -2 -2t2 -2h96q5 0 4.5 -6.5t-11.5 -35.5l-190 -537l-247 575q-1 4 5 4h107q2 0 2 2t-2 2h-331q-2 0 -2 -2t2 -2h91q7 0 8 -4l316 -716q1 -2 2.5 -2.5t2.5 2.5l241 678q10 28 14.5 35t9.5 7h84z" />
    <glyph glyph-name="W" unicode="W" horiz-adv-x="1018" 
d="M1069 705q2 0 2 2t-2 2h-202q-2 0 -2 -2t2 -2h96q5 0 4.5 -6t-9.5 -31l-184 -534l-206 567q-2 4 5 4h108q2 0 2 2t-2 2h-312q-2 0 -2 -2t2 -2h76q1 0 4.5 -1t3.5 -3l70 -188l-129 -375l-222 563q-2 4 5 4h93q2 0 2 2t-2 2h-316q-2 0 -2 -2t2 -2h91q6 0 8 -4l286 -716
q1 -2 2.5 -2.5t2.5 2.5l182 522l194 -522q1 -2 3 -2t3 2l235 678q10 29 15 35.5t10 6.5h83z" />
    <glyph glyph-name="X" unicode="X" horiz-adv-x="688" 
d="M723 0q2 0 2 2t-2 2h-93q-5 0 -8 3l-238 413l149 243q17 29 24.5 35.5t9.5 6.5h87q2 0 2 2t-2 2h-202q-2 0 -2 -2t2 -2h90q8 0 5.5 -6.5t-20.5 -35.5l-146 -238l-157 276q-2 4 3 4h104q2 0 2 2t-2 2h-330q-2 0 -2 -2t2 -2h92q7 0 9 -4l218 -378l-171 -277
q-17 -29 -24.5 -35.5t-9.5 -6.5h-87q-2 0 -2 -2t2 -2h201q2 0 2 2t-2 2h-89q-8 0 -5.5 6.5t20.5 35.5l168 272l177 -311q3 -3 -4 -3h-103q-2 0 -2 -2t2 -2h330z" />
    <glyph glyph-name="Y" unicode="Y" horiz-adv-x="642" 
d="M667 705q2 0 2 2t-2 2h-202q-2 0 -2 -2t2 -2h101q5 0 3.5 -6.5t-15.5 -35.5l-156 -330l-191 368q-2 4 3 4h109q2 0 2 2t-2 2h-335q-2 0 -2 -2t2 -2h92q7 0 9 -4l205 -392v-301q0 -4 -7 -4h-90q-2 0 -2 -2t2 -2h302q2 0 2 2t-2 2h-89q-7 0 -7 4v318l160 337q13 28 19 35
t11 7h78z" />
    <glyph glyph-name="Z" unicode="Z" horiz-adv-x="644" 
d="M594 3v212q0 2 -2 2q-1 0 -1 -2q0 -43 -13 -81.5t-39 -67t-64.5 -45.5t-89.5 -17h-205q-4 0 -4 3l414 694q6 8 -1 8h-495q-3 0 -3 -3v-208q0 -2 2 -2t2 2q0 43 12.5 81t37 66t62 44t88.5 16h171q6 0 4 -4l-414 -694q-4 -7 1 -7h535q2 0 2 3z" />
    <glyph glyph-name="bracketleft" unicode="[" horiz-adv-x="247" 
d="M262 -244q2 0 2 2t-2 2h-94q-6 0 -6 3v967q0 4 6 4h94q2 0 2 1q0 2 -2 2h-174q-3 0 -3 -3v-974q0 -4 3 -4h174z" />
    <glyph glyph-name="backslash" unicode="\" horiz-adv-x="358" 
d="M296 -21l-321 777q-1 2 -3 1t-1 -3l320 -777q1 -2 3 -1t2 3z" />
    <glyph glyph-name="bracketright" unicode="]" horiz-adv-x="247" 
d="M162 -240v974q0 3 -3 3h-174q-2 0 -2 -2q0 -1 2 -1h94q6 0 6 -4v-967q0 -3 -6 -3h-94q-2 0 -2 -2t2 -2h174q3 0 3 4z" />
    <glyph glyph-name="asciicircum" unicode="^" horiz-adv-x="326" 
d="M294 534q-43 49 -72 85.5t-49 66.5q-2 1 -3 0q-20 -30 -48 -66.5t-70 -85.5q-2 -2 -1 -3t3 0l113 84l124 -84q2 -1 3 0t0 3z" />
    <glyph glyph-name="underscore" unicode="_" horiz-adv-x="570" 
d="M535 0q2 0 2 2t-2 2h-500q-2 0 -2 -2t2 -2h500z" />
    <glyph glyph-name="grave" unicode="`" horiz-adv-x="354" 
d="M299 523q-35 8 -57.5 23.5t-38 33t-25 36t-18 34t-17.5 25t-23 9.5t-22 -8.5t-8 -20.5q0 -13 8 -30t30.5 -35t63 -36t106.5 -34q2 -1 2.5 1t-1.5 2z" />
    <glyph glyph-name="a" unicode="a" horiz-adv-x="437" 
d="M428 30q1 2 -1 2.5t-2 -1.5q-3 -7 -12.5 -16t-23.5 -9q-11 0 -18.5 8t-7.5 25v215q0 94 -40 137.5t-117 43.5q-29 0 -51 -7t-36.5 -18.5t-22 -25t-7.5 -25.5q0 -16 9 -29.5t30 -13.5q23 0 32.5 10.5t9.5 23.5q0 11 -3.5 17.5t-3.5 18.5q0 24 12 34.5t31 10.5
q13 0 27 -4.5t25.5 -16.5t18.5 -31.5t7 -49.5v-76q0 -8 -10.5 -13t-27.5 -8t-38 -5l-42 -4q-15 -2 -36.5 -7t-41.5 -18.5t-34.5 -38t-14.5 -63.5q0 -30 11.5 -50t30 -32t42 -17t48.5 -5q40 0 74 16t44 48q5 -28 23 -46t50 -18q28 0 45 12t21 26zM284 69q0 -14 -8 -26.5
t-21 -22.5t-30.5 -15.5t-35.5 -5.5q-12 0 -24.5 3t-23.5 13t-18 29.5t-7 51.5q0 34 6 57t16 37t22.5 20.5t24.5 9.5q11 2 24.5 3t27.5 3t26.5 5t20.5 9v-171z" />
    <glyph glyph-name="b" unicode="b" horiz-adv-x="500" 
d="M460 211q0 41 -16.5 81.5t-45 72t-66.5 51t-81 19.5q-29 0 -52 -10.5t-40 -29.5v337q0 3 -3 3h-137q-2 0 -2 -2t2 -2h55q6 0 6 -4v-719q0 -4 -6 -4h-55q-2 0 -2 -2t2 -2h137q3 0 3 3v28q35 -40 92 -40q43 0 81 19t66.5 49.5t45 70t16.5 81.5zM379 211q0 -152 -50 -194
q-16 -13 -37 -18t-41 -5q-29 0 -55 13.5t-37 42.5v338q17 21 41 32t51 11q20 0 41 -4.5t37 -18.5q50 -42 50 -197z" />
    <glyph glyph-name="c" unicode="c" horiz-adv-x="430" 
d="M412 85q1 2 -0.5 2.5t-2.5 -0.5q-26 -42 -66.5 -67.5t-94.5 -25.5q-20 0 -41 5t-36 18q-13 11 -22.5 26t-16 38t-9.5 55t-3 77t3 77t9.5 54.5t16 37.5t22.5 26q15 14 36 18.5t41 4.5q37 0 49.5 -10t12.5 -36q0 -11 -1.5 -16.5t-4 -9.5t-4 -8.5t-1.5 -13.5
q0 -14 10.5 -24.5t28.5 -10.5t29 10t11 32q0 17 -7.5 33.5t-23 29t-40.5 20.5t-59 8q-43 0 -81 -17.5t-66 -47.5t-44.5 -70.5t-16.5 -86.5t16.5 -86.5t44.5 -70.5t66 -47.5t81 -17.5q53 0 94.5 25.5t69.5 68.5z" />
    <glyph glyph-name="d" unicode="d" horiz-adv-x="490" 
d="M482 0q2 0 2 2t-2 2h-55q-6 0 -6 4v724q0 3 -3 3h-137q-2 0 -2 -2t2 -2h55q6 0 6 -4v-332q-17 19 -40 29.5t-52 10.5q-44 0 -82 -19.5t-66 -51t-44.5 -72t-16.5 -81.5q0 -42 16.5 -81.5t44.5 -70t66 -49.5t82 -19q42 0 64 18t28 38v-44q0 -3 3 -3h137zM342 71
q0 -30 -23.5 -53.5t-68.5 -23.5q-20 0 -41 5t-37 18q-25 21 -38 68.5t-13 125.5q0 154 51 197q16 14 37 18.5t41 4.5q27 0 51 -11t41 -32v-317z" />
    <glyph glyph-name="e" unicode="e" horiz-adv-x="450" 
d="M416 240q0 28 -10 62t-31 63.5t-54 49.5t-80 20q-43 0 -80 -17.5t-64 -48t-42 -71t-15 -86.5t15 -86t42 -70t64 -47.5t80 -17.5q53 0 94.5 25.5t69.5 68.5q1 2 -0.5 2.5t-2.5 -0.5q-26 -42 -66.5 -67.5t-94.5 -25.5q-20 0 -39 5t-35 18q-12 11 -20.5 26t-14 37.5
t-7.5 54.5t-2 77v13t1 12h289q3 0 3 3zM336 241h-212q2 66 11 106.5t32 60.5q16 14 35 18.5t39 4.5q17 0 32 -4.5t28 -18.5q19 -20 26 -60.5t9 -106.5z" />
    <glyph glyph-name="f" unicode="f" horiz-adv-x="287" 
d="M348 670q0 16 -7.5 29.5t-19.5 23.5t-27.5 15.5t-32.5 5.5q-37 0 -67 -15t-51 -49.5t-32 -91t-11 -138.5v-20q0 -4 -7 -4h-68q-2 0 -2 -2t2 -2h68q7 0 7 -3v-411q0 -4 -7 -4h-54q-2 0 -2 -2t2 -2h201q2 0 2 2t-2 2h-55q-6 0 -6 4v411q0 3 6 3h83q2 0 2 2t-2 2h-83
q-6 0 -6 4v190q0 34 5.5 57t14.5 36.5t19.5 19t21.5 5.5q16 0 25.5 -9.5t9.5 -23.5q0 -10 -2 -15.5t-4 -9.5t-4 -9t-2 -13q0 -14 10 -24t32 -10q19 0 31 14t12 32z" />
    <glyph glyph-name="g" unicode="g" horiz-adv-x="485" 
d="M506 390q0 23 -15.5 34t-33.5 11q-29 0 -49.5 -17t-33.5 -43q-23 28 -55.5 44t-72.5 16q-34 0 -63.5 -12.5t-52 -34.5t-35.5 -51.5t-13 -62.5q0 -28 9.5 -53.5t26.5 -45.5q-35 -23 -53.5 -50.5t-18.5 -72.5q0 -74 82 -96q-22 -6 -40.5 -19.5t-32 -32.5t-21.5 -40t-8 -42
q0 -28 16.5 -53t46 -44t71.5 -30t93 -11q40 0 82.5 12t77.5 36t57.5 59.5t22.5 82.5q0 83 -50 116t-149 33h-115q-51 0 -71.5 19.5t-20.5 62.5q0 27 9.5 42t23.5 25q23 -27 55.5 -42.5t70.5 -15.5q34 0 64 12.5t52.5 34.5t35.5 51t13 62q0 28 -9 52.5t-24 44.5
q15 34 30.5 42t26.5 8q8 0 13 -4t5 -12t-4 -11t-4 -14q0 -8 8 -16t22 -8q13 0 22 11t9 23zM336 275q0 -32 -2 -55t-6 -39.5t-10.5 -27t-15.5 -18.5q-11 -10 -25 -13.5t-31 -3.5t-30.5 3.5t-24.5 13.5q-9 8 -15.5 18.5t-10.5 27t-6 39.5t-2 55q0 57 8 91t26 50q11 9 24.5 12
t30.5 3t31 -3t25 -12q18 -16 26 -50t8 -91zM449 -169q0 -36 -17 -62.5t-45 -44.5t-63 -27t-71 -9q-38 0 -68.5 8t-51.5 25.5t-32.5 45t-11.5 67.5q0 46 14 77t33 43q16 -3 34 -3h172q29 0 49.5 -9.5t33 -25.5t18.5 -38t6 -47z" />
    <glyph glyph-name="h" unicode="h" horiz-adv-x="507" 
d="M498 0q2 0 2 2t-2 2h-55q-7 0 -7 4v260q0 81 -43.5 124t-120.5 43q-34 0 -66.5 -17.5t-46.5 -60.5v375q0 3 -3 3h-137q-2 0 -2 -2t2 -2h55q6 0 6 -4v-719q0 -4 -6 -4h-55q-2 0 -2 -2t2 -2h201q2 0 2 2t-2 2h-55q-6 0 -6 4v339q11 35 37.5 59.5t75.5 24.5q13 0 27.5 -6
t27.5 -18.5t21.5 -31.5t8.5 -46v-321q0 -4 -6 -4h-55q-2 0 -2 -2t2 -2h202z" />
    <glyph glyph-name="i" unicode="i" horiz-adv-x="249" 
d="M182 684q0 22 -15.5 37t-37.5 15t-37 -15t-15 -37t15 -37.5t37 -15.5t37.5 15.5t15.5 37.5zM231 0q2 0 2 2t-2 2h-55q-7 0 -7 4v415q0 3 -2 3h-138q-2 0 -2 -2t2 -2h55q6 0 6 -4v-410q0 -4 -6 -4h-55q-2 0 -2 -2t2 -2h202z" />
    <glyph glyph-name="j" unicode="j" horiz-adv-x="265" 
d="M182 684q0 22 -15.5 37t-37.5 15t-37 -15t-15 -37t15 -37.5t37 -15.5t37.5 15.5t15.5 37.5zM169 -23v446q0 3 -2 3h-138q-2 0 -2 -2t2 -2h54q7 0 7 -3v-612q0 -69 -14.5 -93.5t-35.5 -24.5q-16 0 -25.5 5.5t-9.5 20.5q0 10 2 15t4 9.5l4 9t2 12.5q0 14 -10.5 24t-31.5 10
q-19 0 -31 -13.5t-12 -32.5q0 -32 26 -49t61 -17q37 0 65 15t47 49.5t28.5 90.5t9.5 139z" />
    <glyph glyph-name="k" unicode="k" horiz-adv-x="462" 
d="M507 0q2 0 2 2t-2 2h-62q-8 0 -9 4l-224 270l112 103q31 28 41 34.5t15 6.5h54q2 0 2 2t-2 2h-149q-2 0 -2 -2t2 -2h71q2 0 2.5 -1t-3 -5.5t-12 -12.5t-24.5 -23l-160 -145v497q0 3 -2 3h-138q-2 0 -2 -2t2 -2h55q6 0 6 -4v-719q0 -4 -6 -4h-55q-2 0 -2 -2t2 -2h202
q2 0 2 2t-2 2h-55q-7 0 -7 4v221l180 -221q3 -4 -3 -4h-55q-2 0 -2 -2t2 -2h226z" />
    <glyph glyph-name="l" unicode="l" horiz-adv-x="228" 
d="M220 0q2 0 2 2t-2 2h-55q-7 0 -7 4v724q0 3 -2 3h-138q-2 0 -2 -2t2 -2h55q7 0 7 -4v-719q0 -4 -7 -4h-55q-2 0 -2 -2t2 -2h202z" />
    <glyph glyph-name="m" unicode="m" horiz-adv-x="784" 
d="M775 0q2 0 2 2t-2 2h-55q-6 0 -6 4v281q0 40 -11.5 68t-33 45t-52 25t-68.5 8q-17 0 -35.5 -5.5t-35 -16t-29 -26.5t-16.5 -38q-14 41 -53 63.5t-108 22.5q-34 0 -66.5 -17.5t-46.5 -60.5v66q0 3 -3 3h-137q-2 0 -2 -2t2 -2h54q7 0 7 -3v-411q0 -4 -7 -4h-54q-2 0 -2 -2
t2 -2h201q2 0 2 2t-2 2h-55q-6 0 -6 4v339q11 35 37.5 59.5t75.5 24.5q13 0 27.5 -6t27.5 -18.5t21.5 -31.5t8.5 -46v-321q0 -4 -6 -4h-55q-2 0 -2 -2t2 -2h202q2 0 2 2t-2 2h-55q-7 0 -7 4v332q0 14 7.5 30t22 29.5t35.5 22.5t48 9q13 0 28 -6t28 -18.5t21.5 -31.5t8.5 -46
v-321q0 -4 -7 -4h-54q-2 0 -2 -2t2 -2h201z" />
    <glyph glyph-name="n" unicode="n" horiz-adv-x="507" 
d="M498 0q2 0 2 2t-2 2h-55q-7 0 -7 4v260q0 81 -43.5 124t-120.5 43q-34 0 -66.5 -17.5t-46.5 -60.5v66q0 3 -3 3h-137q-2 0 -2 -2t2 -2h55q6 0 6 -3v-411q0 -4 -6 -4h-55q-2 0 -2 -2t2 -2h201q2 0 2 2t-2 2h-55q-6 0 -6 4v339q11 35 37.5 59.5t75.5 24.5q13 0 27.5 -6
t27.5 -18.5t21.5 -31.5t8.5 -46v-321q0 -4 -6 -4h-55q-2 0 -2 -2t2 -2h202z" />
    <glyph glyph-name="o" unicode="o" 
d="M457 213q0 46 -16.5 86.5t-44.5 70.5t-66.5 47.5t-81.5 17.5t-81 -17.5t-66 -47.5t-44.5 -70.5t-16.5 -86.5t16.5 -86.5t44.5 -70.5t66 -47.5t81 -17.5t81.5 17.5t66.5 47.5t44.5 70.5t16.5 86.5zM377 213q0 -45 -3.5 -77t-10 -55t-16 -38t-21.5 -26q-16 -13 -35 -18
t-43 -5q-23 0 -42.5 5t-34.5 18q-13 11 -22.5 26t-16 38t-9.5 55t-3 77q0 79 12.5 126t38.5 69q15 14 34.5 18.5t42.5 4.5q24 0 43 -4.5t35 -18.5q25 -22 38 -69t13 -126z" />
    <glyph glyph-name="p" unicode="p" horiz-adv-x="500" 
d="M460 210q0 42 -16.5 82t-44.5 72t-66 51.5t-81 19.5q-30 0 -53 -10.5t-40 -29.5v28q0 3 -2 3h-138q-2 0 -2 -2t2 -2h55q6 0 6 -4v-720q0 -3 -6 -3h-55q-2 0 -2 -2t2 -2h202q2 0 2 2t-2 2h-55q-7 0 -7 3v333q17 -19 40 -29.5t53 -10.5q43 0 81 18.5t66 49.5t44.5 70
t16.5 81zM380 210q0 -77 -12.5 -124t-38.5 -69q-15 -13 -36 -17.5t-41 -4.5q-29 0 -55.5 13.5t-37.5 41.5v338q17 22 41 32.5t52 10.5q20 0 41 -4.5t36 -17.5q51 -44 51 -199z" />
    <glyph glyph-name="q" unicode="q" horiz-adv-x="490" 
d="M481 -309q2 0 2 2t-2 2h-55q-6 0 -6 3v720q0 4 6 4h55q2 0 2 2t-2 2h-138q-2 0 -2 -3v-28q-17 19 -40 29.5t-53 10.5q-43 0 -81 -19.5t-66 -51.5t-44.5 -72t-16.5 -82t16.5 -81t44.5 -70t66 -49.5t81 -18.5q42 0 64.5 18t28.5 38v-349q0 -3 -7 -3h-55q-2 0 -2 -2t2 -2
h202zM341 71q0 -30 -24 -53t-69 -23q-20 0 -41 4.5t-36 17.5q-26 22 -38.5 69t-12.5 124q0 155 51 199q15 13 36 17.5t41 4.5q28 0 52 -10.5t41 -32.5v-317z" />
    <glyph glyph-name="r" unicode="r" horiz-adv-x="345" 
d="M321 376q0 59 -69 59q-32 0 -55.5 -17.5t-37.5 -60.5v66q0 3 -2 3h-138q-2 0 -2 -2t2 -2h55q6 0 6 -4v-411q0 -3 -6 -3h-55q-2 0 -2 -2t2 -2h202q2 0 2 2t-2 2h-55q-7 0 -7 3v339q8 26 17 41.5t18 23t16.5 9.5t13.5 2q25 0 25 -21q0 -11 -5.5 -16.5t-5.5 -19.5
q0 -13 10.5 -22t30.5 -9q17 0 29.5 12.5t12.5 29.5z" />
    <glyph glyph-name="s" unicode="s" horiz-adv-x="370" 
d="M337 131q0 48 -34.5 79.5t-91.5 49.5q-55 17 -83.5 40t-28.5 62q0 34 21 51.5t58 17.5q18 0 36.5 -6.5t33.5 -19.5t24 -33t9 -46q0 -2 2 -2t2 2v113q0 1 -2 1.5t-2 -1.5q0 -14 -21 -14q-16 0 -26.5 1.5t-18.5 3.5t-16.5 3.5t-20.5 1.5q-23 0 -44 -9t-37 -25.5t-25.5 -40
t-9.5 -53.5q0 -25 8.5 -43.5t24 -32.5t36.5 -24t47 -19q53 -18 83.5 -40.5t30.5 -64.5q0 -45 -26.5 -66.5t-68.5 -21.5q-32 0 -59 12t-46.5 32.5t-30 46.5t-9.5 53q0 2 -2 2t-2 -2l-5 -140q0 -2 1 -2q2 0 3 2q2 5 11.5 12t23.5 7t26 -4t25 -9.5t28 -9.5t36 -4
q71 0 105.5 39.5t34.5 100.5z" />
    <glyph glyph-name="t" unicode="t" horiz-adv-x="284" 
d="M268 79q0 2 -1.5 2.5t-2.5 -0.5q-9 -37 -27.5 -56t-38.5 -19q-29 0 -29 29v383q0 4 7 4h82q2 0 2 2t-2 2h-82q-7 0 -7 3v162q0 2 -2 2q-1 0 -2 -2q-7 -21 -26 -31t-49 -15v-116q0 -3 -6 -3h-69q-2 0 -2 -2t2 -2h69q6 0 6 -4v-329q0 -98 82 -98q42 0 64 25t32 63z" />
    <glyph glyph-name="u" unicode="u" 
d="M488 0q2 0 2 2t-2 2h-55q-7 0 -7 3v416q0 3 -2 3h-138q-2 0 -2 -2t2 -2h55q6 0 6 -4v-339q-11 -35 -37.5 -59.5t-75.5 -24.5q-13 0 -28 6t-27.5 18.5t-21 31.5t-8.5 46v326q0 3 -3 3h-137q-2 0 -2 -2t2 -2h55q6 0 6 -4v-267q0 -81 44 -120.5t120 -39.5q35 0 67 17.5
t46 60.5v-66q0 -3 3 -3h138z" />
    <glyph glyph-name="v" unicode="v" horiz-adv-x="415" 
d="M443 422q2 0 2 2t-2 2h-128q-2 0 -2 -2t2 -2h54q5 0 4.5 -6.5t-11.5 -35.5l-109 -298l-147 336q-1 4 5 4h52q2 0 2 2t-2 2h-195q-2 0 -2 -2t2 -2h47q7 0 8 -4l195 -426q1 -2 2 -2q2 0 3 2l143 388q10 28 14.5 35t9.5 7h53z" />
    <glyph glyph-name="w" unicode="w" horiz-adv-x="667" 
d="M698 422q2 0 2 2t-2 2h-128q-2 0 -2 -2t2 -2h54q5 0 5 -7q0 -6 -11 -35l-101 -286l-145 324q-1 4 5 4h55q2 0 2 2t-2 2h-188q-2 0 -2 -2t2 -2h41q5 0 8 -4l39 -87l-84 -238l-145 325q-1 4 5 4h49q2 0 2 2t-2 2h-189q-2 0 -2 -2t2 -2h48q7 0 8 -4l187 -426q1 -2 3 -2t3 2
l117 333l146 -333q1 -2 3 -2t3 2l136 388q10 28 14.5 35t9.5 7h52z" />
    <glyph glyph-name="x" unicode="x" horiz-adv-x="451" 
d="M471 0q2 0 2 2t-2 2h-49q-7 0 -8 3l-162 246l94 127q20 28 27 35t12 7h55q2 0 2 2t-2 2h-149q-2 0 -2 -2t2 -2h71q2 0 3 -1t-0.5 -5.5t-7 -12.5t-16.5 -23l-92 -124l-106 162q-1 4 4 4h52q2 0 2 2t-2 2h-203q-2 0 -2 -2t2 -2h49q6 0 9 -4l150 -229l-106 -144
q-11 -14 -17.5 -22.5t-11 -12.5t-7 -5t-5.5 -1h-54q-2 0 -2 -2t2 -2h149q2 0 2 2t-2 2h-71q-2 0 -3 1t1 5t7.5 12t16.5 23l104 141l117 -179q3 -3 -4 -3h-52q-2 0 -2 -2t2 -2h203z" />
    <glyph glyph-name="y" unicode="y" horiz-adv-x="415" 
d="M443 422q2 0 2 2t-2 2h-128q-2 0 -2 -2t2 -2h54q5 0 4.5 -6.5t-11.5 -35.5l-110 -297l-146 335q-1 4 5 4h52q2 0 2 2t-2 2h-195q-2 0 -2 -2t2 -2h47q7 0 8 -4l196 -429l-85 -228q-14 -39 -27 -52.5t-23 -13.5q-12 0 -21 2.5t-9 10.5q0 7 3 12.5t6.5 10.5t6.5 11t3 14
q0 14 -10 24.5t-30 10.5q-19 0 -32.5 -15.5t-13.5 -38.5q0 -27 20.5 -41t50.5 -14t47 18t34 63l227 617q10 28 14.5 35t9.5 7h53z" />
    <glyph glyph-name="z" unicode="z" horiz-adv-x="421" 
d="M379 3v134q0 2 -2 2t-2 -2q0 -61 -34 -97t-112 -36h-117q-7 0 -5 3l264 411q5 8 -1 8h-313q-3 0 -3 -3v-121q0 -2 2 -2t2 2q0 58 30.5 89t102.5 31h93q7 0 4 -4l-263 -411q-4 -7 1 -7h350q3 0 3 3z" />
    <glyph glyph-name="braceleft" unicode="{" horiz-adv-x="265" 
d="M267 -244q2 0 2 2t-2 2h-7q-53 0 -83 37.5t-30 125.5q0 27 7 58.5t15 63.5t15 64t7 60q0 23 -15.5 46.5t-44.5 31.5q29 8 44.5 31t15.5 46q0 28 -7 60t-15 64.5t-15 63.5t-7 58q0 88 30 126t83 38h7q2 0 2 1q0 2 -2 2h-7q-45 0 -78 -15.5t-55 -43.5t-32.5 -66t-10.5 -84
q0 -39 10 -74.5t22 -67.5t22 -59.5t10 -48.5q0 -22 -17 -28q-4 -1 -10 -1q-8 0 -13.5 1t-11.5 1q-8 0 -8 -4q0 -5 8 -5q6 0 11.5 1t13.5 1q6 0 10 -1q17 -4 17 -28q0 -21 -10 -48t-22 -59t-22 -68t-10 -75q0 -46 10.5 -84.5t32.5 -66t55 -43t78 -15.5h7z" />
    <glyph glyph-name="bar" unicode="|" horiz-adv-x="154" 
d="M79 -23v779q0 2 -2 2t-2 -2v-779q0 -2 2 -2t2 2z" />
    <glyph glyph-name="braceright" unicode="}" horiz-adv-x="265" 
d="M181 -35q0 39 -10 75t-22 68t-22 59t-10 48q0 24 17 28q4 1 10 1q8 0 13.5 -1t11.5 -1q8 0 8 5q0 4 -8 4q-6 0 -11.5 -1t-13.5 -1q-6 0 -10 1q-17 6 -17 28q0 21 10 48.5t22 59.5t22 67.5t10 74.5q0 46 -10.5 84t-32.5 66t-55 43.5t-78 15.5h-7q-2 0 -2 -2q0 -1 2 -1h7
q53 0 83 -38t30 -126q0 -27 -7 -58t-15 -63.5t-15 -64.5t-7 -60q0 -23 15.5 -46t44.5 -31q-29 -8 -44.5 -31.5t-15.5 -46.5q0 -28 7 -60t15 -64t15 -63.5t7 -58.5q0 -88 -30 -125.5t-83 -37.5h-7q-2 0 -2 -2t2 -2h7q45 0 78 15.5t55 43t32.5 66t10.5 84.5z" />
    <glyph glyph-name="asciitilde" unicode="~" horiz-adv-x="406" 
d="M370 414q0 2 -2 2t-2 -2q0 -32 -16 -53t-46 -21q-17 0 -35 9.5t-37.5 21t-42 21t-47.5 9.5q-46 0 -76 -29.5t-30 -77.5q0 -2 2 -2t2 2q0 32 16 53t46 21q16 0 34 -9.5t38 -21.5t42 -21.5t47 -9.5q46 0 76.5 30t30.5 78z" />
    <glyph glyph-name="exclamdown" unicode="&#xa1;" horiz-adv-x="201" 
d="M144 324q0 20 -13 33.5t-32 13.5q-18 0 -31 -13.5t-13 -33.5t13 -33.5t31 -13.5q19 0 32 13.5t13 33.5zM152 -293q0 33 -8 88t-17.5 121.5t-17.5 138.5t-8 138q0 2 -2 2t-2 -2q0 -66 -8 -138t-17 -138.5t-17 -121.5t-8 -88q0 -41 14 -58t38 -17q25 0 39 17t14 58z" />
    <glyph glyph-name="cent" unicode="&#xa2;" horiz-adv-x="430" 
d="M412 85q1 2 -0.5 2.5t-2.5 -0.5q-27 -42 -67.5 -67.5t-100.5 -25.5v436q41 1 55 -9.5t14 -36.5q0 -11 -1.5 -16.5t-4 -9.5t-4 -9t-1.5 -14q0 -14 10.5 -24t28.5 -10t29 10t11 32q0 17 -8.5 34t-25.5 30t-42.5 20.5t-60.5 6.5v69q0 2 -3 2q-2 0 -2 -2v-70
q-41 -2 -76.5 -20.5t-62 -48t-42 -69t-15.5 -83.5t15.5 -83.5t42 -69t62 -48t76.5 -20.5v-71q0 -2 2 -2q3 0 3 2v70q61 0 101.5 25.5t69.5 69.5zM236 -6q-17 2 -34.5 7t-30.5 16t-22.5 26t-16 37.5t-9.5 54.5t-3 77t3 77t9.5 54.5t16 37.5t22.5 26t30.5 16t34.5 6v-435z" />
    <glyph glyph-name="sterling" unicode="&#xa3;" horiz-adv-x="573" 
d="M556 126q0 2 -1.5 3t-2.5 -1q-2 -15 -7 -29t-13.5 -25.5t-21 -18.5t-29.5 -7q-40 0 -72 5.5t-59 14t-50.5 17t-46.5 14.5q22 33 32 72t10 72q0 31 -2 57.5t-6 50.5h103q2 0 2 1q0 2 -2 2h-103q-8 56 -17.5 97.5t-9.5 83.5q0 94 27 139.5t75 45.5q33 0 47 -11t14 -34
q0 -9 -3 -15.5t-6.5 -12.5t-6.5 -12t-3 -15q0 -16 9.5 -26.5t32.5 -10.5q21 0 35.5 15t14.5 35q0 15 -10 31.5t-27.5 30t-40.5 22.5t-48 9q-46 0 -82.5 -21t-61.5 -55.5t-38 -78t-13 -89.5q0 -31 8.5 -63.5t20.5 -64.5h-99q-2 0 -2 -2q0 -1 2 -1h100q20 -52 39.5 -100
t19.5 -86q0 -14 -4.5 -33.5t-12.5 -30.5q-22 7 -49 11.5t-56 4.5q-31 0 -53.5 -8t-37 -20t-21.5 -27t-7 -28q0 -15 6 -25t15 -15.5t19 -8t18 -2.5q27 0 63 18t64 43q16 -9 38 -20t46 -20t50 -15t52 -6q31 0 59.5 13t50.5 33.5t36 46t16 50.5zM202 47q-13 -12 -29 -23.5
t-32.5 -19.5t-31.5 -13t-25 -5q-8 0 -18 2.5t-19 8t-15 14.5t-6 21q0 24 17.5 39.5t48.5 15.5q24 0 52.5 -12t57.5 -28z" />
    <glyph glyph-name="yen" unicode="&#xa5;" horiz-adv-x="609" 
d="M628 705q2 0 2 2t-2 2h-201q-2 0 -2 -2t2 -2h101q5 0 3.5 -6.5t-15.5 -35.5l-153 -322l-188 360q-2 4 4 4h108q2 0 2 2t-2 2h-304q-2 0 -2 -2t2 -2h92q7 0 9 -4l167 -319h-163q-2 0 -2 -2t2 -2h165l29 -55v-73h-194q-2 0 -2 -2t2 -2h194v-238q0 -4 -7 -4h-89q-2 0 -2 -2
t2 -2h271q2 0 2 2t-2 2h-90q-6 0 -6 4v238h194q2 0 2 2t-2 2h-194v76l24 52h170q2 0 2 2t-2 2h-168l134 281q13 28 19 35t10 7h78z" />
    <glyph glyph-name="section" unicode="&#xa7;" horiz-adv-x="511" 
d="M461 199q0 55 -25 91.5t-62.5 63.5t-81 48t-81 44.5t-62.5 54t-25 75.5q0 73 41.5 118.5t116.5 45.5q42 0 66 -16.5t24 -47.5q0 -17 -5.5 -25t-5.5 -19q0 -17 12 -27t30 -10q17 0 28.5 10.5t11.5 32.5q0 20 -13.5 39t-36 34t-51.5 24t-60 9q-48 0 -86 -17.5t-65 -48
t-41.5 -71t-14.5 -86.5q0 -42 17 -73.5t44 -57.5q-40 -41 -63 -76.5t-23 -85.5q0 -55 25 -92t62 -64t81 -47.5t81 -44t62 -54t25 -75.5q0 -37 -11 -67.5t-32 -52t-50 -33t-65 -11.5q-19 0 -39 6t-36 16.5t-26 25t-10 30.5q0 17 5.5 25t5.5 19q0 17 -12 26.5t-30 9.5
q-16 0 -27.5 -10t-11.5 -32q0 -20 16.5 -41t43 -38.5t58.5 -29t63 -11.5q48 0 86.5 17.5t65.5 48t41.5 71t14.5 86.5q0 42 -17 73.5t-45 57.5q21 21 37 39.5t27 37.5t17 39.5t6 45.5zM430 146q0 -13 -5.5 -27t-14 -28t-19 -27.5t-20.5 -23.5q-39 34 -89 59.5t-94.5 51
t-75.5 55.5t-31 74q0 13 5.5 27t14 28.5t19 27.5t20.5 24q25 -23 56.5 -41.5t64 -35.5t63 -34t54 -36t38 -42t14.5 -52z" />
    <glyph glyph-name="dieresis" unicode="&#xa8;" horiz-adv-x="439" 
d="M347 591q0 18 -11.5 30.5t-28.5 12.5t-29 -12.5t-12 -30.5q0 -17 12 -29.5t29 -12.5t28.5 12.5t11.5 29.5zM174 591q0 18 -11.5 30.5t-28.5 12.5t-28.5 -12.5t-11.5 -30.5q0 -17 11.5 -29.5t28.5 -12.5t28.5 12.5t11.5 29.5z" />
    <glyph glyph-name="copyright" unicode="&#xa9;" horiz-adv-x="844" 
d="M794 355q0 77 -29.5 144.5t-80 118t-118 79.5t-144.5 29t-144.5 -29t-118 -79.5t-80 -118t-29.5 -144.5t29.5 -145t80 -118.5t118 -79.5t144.5 -29t144.5 29t118 79.5t80 118.5t29.5 145zM790 355q0 -77 -29 -144t-79 -116.5t-117 -78.5t-143 -29t-143 29t-117 78.5
t-79 116.5t-29 144q0 76 29 143t79 116.5t117 78.5t143 29t143 -29t117 -78.5t79 -116.5t29 -143zM568 139v136q0 2 -2 2t-2 -2q0 -29 -10 -53.5t-27.5 -42.5t-41.5 -28t-52 -10q-21 0 -43.5 5t-38.5 18q-26 23 -39 70t-13 126t13 126.5t39 69.5q16 14 37 18.5t42 4.5
q22 0 44 -10t39.5 -26t28 -37.5t10.5 -43.5q0 -1 2 -1t2 1v119q0 1 -1.5 1.5t-2.5 -1.5q-1 -5 -9 -9.5t-21 -4.5q-21 0 -45 8t-47 8q-44 0 -80.5 -18t-63 -49t-41.5 -71t-15 -85t15.5 -85t42.5 -71t64 -49t81 -18q26 0 54 9.5t49 9.5q14 0 20.5 -6t7.5 -11q0 -1 2 -1t2 1z
" />
    <glyph glyph-name="ordfeminine" unicode="&#xaa;" horiz-adv-x="338" 
d="M321 427q1 2 -1 2.5t-2 -1.5q-2 -5 -9 -11.5t-17 -6.5q-19 0 -19 25v158q0 70 -30 101.5t-87 31.5q-44 0 -65.5 -19t-21.5 -37q0 -12 6.5 -22t22.5 -10q17 0 24 7.5t7 17.5q0 8 -2.5 13t-2.5 14q0 17 9 24.5t23 7.5q10 0 20.5 -3t18.5 -11.5t13.5 -22.5t5.5 -36v-57
q0 -6 -8 -9.5t-20.5 -5.5t-28.5 -4t-31 -3q-11 -1 -27 -5t-31 -14t-25.5 -28t-10.5 -47q0 -22 8.5 -36.5t22 -23.5t31.5 -13t36 -4q29 0 54.5 12t32.5 36q4 -21 17.5 -34.5t37.5 -13.5q20 0 33 9t16 19zM214 458q0 -21 -21.5 -37t-49.5 -16q-9 0 -18.5 2.5t-17.5 10
t-13 21.5t-5 37q0 25 4.5 42t12 27t16.5 15t18 7q17 3 39 5t35 10v-124z" />
    <glyph glyph-name="guillemotleft" unicode="&#xab;" horiz-adv-x="375" 
d="M338 50q0 24 -8.5 48t-21 46t-26.5 39.5t-25 28.5q11 10 25 28t26.5 40t21 46.5t8.5 48.5q0 3 -4 3q-3 0 -3 -3q0 -30 -18.5 -56.5t-42.5 -48t-48 -36.5t-34 -20q-4 -2 0 -4q10 -5 34 -19.5t48 -36t42.5 -48t18.5 -56.5q0 -3 3 -3q4 0 4 3zM190 50q0 24 -8.5 48t-21 46
t-26.5 39.5t-25 28.5q11 10 25 28t26.5 40t21 46.5t8.5 48.5q0 3 -4 3q-3 0 -3 -3q0 -30 -18.5 -56.5t-42.5 -48t-48 -36.5t-34 -20q-4 -2 0 -4q10 -5 34 -19.5t48 -36t42.5 -48t18.5 -56.5q0 -3 3 -3q4 0 4 3z" />
    <glyph glyph-name="registered" unicode="&#xae;" horiz-adv-x="844" 
d="M794 355q0 77 -29.5 144.5t-80 118t-118 79.5t-144.5 29t-144.5 -29t-118 -79.5t-80 -118t-29.5 -144.5t29.5 -145t80 -118.5t118 -79.5t144.5 -29t144.5 29t118 79.5t80 118.5t29.5 145zM790 355q0 -77 -29 -144t-79 -116.5t-117 -78.5t-143 -29t-143 29t-117 78.5
t-79 116.5t-29 144q0 76 29 143t79 116.5t117 78.5t143 29t143 -29t117 -78.5t79 -116.5t29 -143zM662 158q1 1 0 2.5t-2 1.5q-7 -7 -16.5 -12.5t-22.5 -5.5q-17 0 -26 15.5t-9 38.5v55q0 53 -37 84.5t-118 31.5q29 0 53.5 7.5t42.5 21t28.5 32t10.5 39.5q0 45 -38.5 74.5
t-107.5 29.5h-187q-1 0 -1 -2t1 -2h54q4 0 4 -2v-413q0 -3 -4 -3h-54q-1 0 -1 -2q0 -1 1 -1h198q2 0 2 1q0 2 -2 2h-70q-4 0 -4 3v213h62q42 0 70 -17.5t28 -56.5v-39q0 -32 6.5 -54.5t18.5 -36.5t28 -20t35 -6q20 0 34 6t23 15zM500 466q0 -57 -18 -76t-63 -19h-62v196
q0 2 4 2h43q44 0 70 -23t26 -80z" />
    <glyph glyph-name="macron" unicode="&#xaf;" horiz-adv-x="400" 
d="M339 597q2 0 2 5q0 6 -2 6h-278q-2 0 -2 -6q0 -5 2 -5h278z" />
    <glyph glyph-name="macron" unicode="&#x2c9;" horiz-adv-x="400" 
d="M339 597q2 0 2 5q0 6 -2 6h-278q-2 0 -2 -6q0 -5 2 -5h278z" />
    <glyph glyph-name="degree" unicode="&#xb0;" horiz-adv-x="283" 
d="M218 636q0 32 -22 54.5t-54 22.5t-54.5 -22.5t-22.5 -54.5t22.5 -54.5t54.5 -22.5t54 22.5t22 54.5zM213 636q0 -30 -21 -51.5t-50 -21.5q-30 0 -51 21.5t-21 51.5t21 51.5t51 21.5q29 0 50 -21.5t21 -51.5z" />
    <glyph glyph-name="acute" unicode="&#xb4;" horiz-adv-x="354" 
d="M261 655q0 12 -8 20.5t-22 8.5t-23 -9.5t-17.5 -25t-18 -34t-25 -36t-38.5 -33t-57 -23.5q-2 0 -1.5 -2t2.5 -1q66 16 106.5 34t63 36t30.5 35t8 30z" />
    <glyph glyph-name="paragraph" unicode="&#xb6;" horiz-adv-x="646" 
d="M607 0q2 0 2 2t-2 2h-90q-6 0 -6 4v693q0 4 6 4h90q2 0 2 2t-2 2h-225q-69 0 -129.5 -28t-105.5 -76t-71 -113t-26 -138t26 -137.5t71 -112.5t105.5 -76t129.5 -28h225zM506 8q0 -4 -7 -4h-108q-6 0 -6 4v693q0 4 6 4h108q7 0 7 -4v-693z" />
    <glyph glyph-name="periodcentered" unicode="&#xb7;" horiz-adv-x="159" 
d="M124 354q0 20 -13 33.5t-32 13.5q-18 0 -31 -13.5t-13 -33.5t13 -33.5t31 -13.5q19 0 32 13.5t13 33.5z" />
    <glyph glyph-name="cedilla" unicode="&#xb8;" horiz-adv-x="289" 
d="M203 -155q0 27 -12 40.5t-26 22t-26 17.5t-12 27q0 11 4.5 23.5t8.5 17.5q0 2 -1.5 1.5t-2.5 -1.5q-8 -10 -15 -30t-7 -40q0 -26 12.5 -38.5t28 -20t28 -14.5t12.5 -20q0 -24 -18 -38.5t-44 -14.5q-24 0 -24 20q0 8 5.5 11t5.5 14t-6.5 16t-16.5 5q-11 0 -17.5 -7.5
t-6.5 -17.5q0 -13 15.5 -29t44.5 -16q33 0 51.5 19t18.5 53z" />
    <glyph glyph-name="ordmasculine" unicode="&#xba;" horiz-adv-x="388" 
d="M349 562q0 34 -12 64t-33 52t-49.5 35t-60.5 13t-60.5 -13t-49.5 -35t-33 -52t-12 -64t12 -64t33 -52.5t49.5 -35.5t60.5 -13t60.5 13t49.5 35.5t33 52.5t12 64zM289 562q0 -33 -2.5 -57t-7 -40.5t-12 -28t-16.5 -19.5q-21 -17 -57 -17t-57 17q-9 8 -16.5 19.5t-12 28
t-7 40.5t-2.5 57q0 58 9.5 92.5t28.5 50.5q11 11 25.5 14t31.5 3t31.5 -3t25.5 -14q19 -16 28.5 -50.5t9.5 -92.5z" />
    <glyph glyph-name="guillemotright" unicode="&#xbb;" horiz-adv-x="375" 
d="M335 210q4 2 0 4q-11 5 -34.5 20t-47.5 36.5t-42.5 48t-18.5 56.5q0 3 -4 3q-3 0 -3 -3q0 -24 8.5 -48.5t21 -46.5t26.5 -40t25 -28q-11 -11 -25 -28.5t-26.5 -39.5t-21 -46t-8.5 -48q0 -3 3 -3q4 0 4 3q0 30 18.5 56.5t42.5 48t47.5 36t34.5 19.5zM187 210q4 2 0 4
q-11 5 -34.5 20t-47.5 36.5t-42.5 48t-18.5 56.5q0 3 -4 3q-3 0 -3 -3q0 -24 8.5 -48.5t21 -46.5t26.5 -40t25 -28q-11 -11 -25 -28.5t-26.5 -39.5t-21 -46t-8.5 -48q0 -3 3 -3q4 0 4 3q0 30 18.5 56.5t42.5 48t47.5 36t34.5 19.5z" />
    <glyph glyph-name="questiondown" unicode="&#xbf;" horiz-adv-x="409" 
d="M333 324q0 20 -13 33.5t-32 13.5t-32 -13.5t-13 -33.5t13 -33.5t32 -13.5t32 13.5t13 33.5zM385 -263q0 25 -13 36.5t-34 11.5t-33 -11.5t-12 -28.5q0 -10 2 -15.5t4 -10.5t4 -11.5t2 -18.5q0 -15 -1.5 -25t-7 -16t-16.5 -9t-29 -3q-20 0 -39.5 4.5t-35.5 18.5
q-26 22 -39.5 63t-13.5 118q0 53 1.5 85t5 51t8.5 27.5t13 14.5q11 8 29 13t33 5q18 0 41 -7.5t33 -27.5q1 -1 2.5 -0.5t1.5 2.5q0 1 -0.5 1.5t-0.5 2.5v186q0 2 -2 2t-2 -2v-182q-13 17 -34.5 23t-38.5 6q-36 0 -68 -14t-56 -40t-38.5 -63t-14.5 -83t16 -84.5t45 -66
t68 -42.5t86 -15q34 0 59.5 9t42 24t24.5 33.5t8 38.5z" />
    <glyph glyph-name="Agrave" unicode="&#xc0;" horiz-adv-x="672" 
d="M701 0q2 0 2 2t-2 2h-85q-5 0 -8 3l-277 716q-1 2 -3 2q-1 0 -2 -2l-248 -677q-11 -29 -14.5 -35.5t-10.5 -6.5h-76q-2 0 -2 -2t2 -2h189q2 0 2 2t-2 2h-92q-5 0 -3.5 7.5t11.5 34.5l74 200h246l87 -239q0 -3 -5 -3h-96q-2 0 -2 -2t2 -2h313zM400 250h-243l122 331z
M350 778q-35 8 -57.5 23.5t-38 33t-25 36t-18 34t-17.5 25t-23 9.5t-22 -8.5t-8 -20.5q0 -13 8 -30t30.5 -35t63 -36t106.5 -34q2 -1 2.5 1t-1.5 2z" />
    <glyph glyph-name="Aacute" unicode="&#xc1;" horiz-adv-x="672" 
d="M701 0q2 0 2 2t-2 2h-85q-5 0 -8 3l-277 716q-1 2 -3 2q-1 0 -2 -2l-248 -677q-11 -29 -14.5 -35.5t-10.5 -6.5h-76q-2 0 -2 -2t2 -2h189q2 0 2 2t-2 2h-92q-5 0 -3.5 7.5t11.5 34.5l74 200h246l87 -239q0 -3 -5 -3h-96q-2 0 -2 -2t2 -2h313zM400 250h-243l122 331z
M525 910q0 12 -8 20.5t-22 8.5t-23 -9.5t-17.5 -25t-18 -34t-25 -36t-38.5 -33t-57 -23.5q-2 0 -1.5 -2t2.5 -1q66 16 106.5 34t63 36t30.5 35t8 30z" />
    <glyph glyph-name="Acircumflex" unicode="&#xc2;" horiz-adv-x="672" 
d="M701 0q2 0 2 2t-2 2h-85q-5 0 -8 3l-277 716q-1 2 -3 2q-1 0 -2 -2l-248 -677q-11 -29 -14.5 -35.5t-10.5 -6.5h-76q-2 0 -2 -2t2 -2h189q2 0 2 2t-2 2h-92q-5 0 -3.5 7.5t11.5 34.5l74 200h246l87 -239q0 -3 -5 -3h-96q-2 0 -2 -2t2 -2h313zM400 250h-243l122 331z
M454 789q-43 49 -72 85.5t-49 66.5q-2 1 -3 0q-20 -30 -48 -66.5t-70 -85.5q-2 -2 -1 -3t3 0l113 84l124 -84q2 -1 3 0t0 3z" />
    <glyph glyph-name="Atilde" unicode="&#xc3;" horiz-adv-x="672" 
d="M701 0q2 0 2 2t-2 2h-85q-5 0 -8 3l-277 716q-1 2 -3 2q-1 0 -2 -2l-248 -677q-11 -29 -14.5 -35.5t-10.5 -6.5h-76q-2 0 -2 -2t2 -2h189q2 0 2 2t-2 2h-92q-5 0 -3.5 7.5t11.5 34.5l74 200h246l87 -239q0 -3 -5 -3h-96q-2 0 -2 -2t2 -2h313zM400 250h-243l122 331z
M499 927q0 2 -2 2t-2 -2q0 -32 -16 -53t-46 -21q-17 0 -35 9.5t-37.5 21t-42 21t-47.5 9.5q-46 0 -76 -29.5t-30 -77.5q0 -2 2 -2t2 2q0 32 16 53t46 21q16 0 34 -9.5t38 -21.5t42 -21.5t47 -9.5q46 0 76.5 30t30.5 78z" />
    <glyph glyph-name="Adieresis" unicode="&#xc4;" horiz-adv-x="672" 
d="M701 0q2 0 2 2t-2 2h-85q-5 0 -8 3l-277 716q-1 2 -3 2q-1 0 -2 -2l-248 -677q-11 -29 -14.5 -35.5t-10.5 -6.5h-76q-2 0 -2 -2t2 -2h189q2 0 2 2t-2 2h-92q-5 0 -3.5 7.5t11.5 34.5l74 200h246l87 -239q0 -3 -5 -3h-96q-2 0 -2 -2t2 -2h313zM400 250h-243l122 331z
M459 846q0 18 -11.5 30.5t-28.5 12.5t-29 -12.5t-12 -30.5q0 -17 12 -29.5t29 -12.5t28.5 12.5t11.5 29.5zM286 846q0 18 -11.5 30.5t-28.5 12.5t-28.5 -12.5t-11.5 -30.5q0 -17 11.5 -29.5t28.5 -12.5t28.5 12.5t11.5 29.5z" />
    <glyph glyph-name="Aring" unicode="&#xc5;" horiz-adv-x="672" 
d="M701 0q2 0 2 2t-2 2h-85q-5 0 -8 3l-275 711q30 2 51 24t21 53q0 32 -22 54.5t-54 22.5t-54.5 -22.5t-22.5 -54.5q0 -30 21 -52.5t51 -24.5l-246 -672q-11 -29 -14.5 -35.5t-10.5 -6.5h-76q-2 0 -2 -2t2 -2h189q2 0 2 2t-2 2h-92q-5 0 -3.5 7.5t11.5 34.5l74 200h246
l87 -239q0 -3 -5 -3h-96q-2 0 -2 -2t2 -2h313zM400 795q0 -30 -21 -51.5t-50 -21.5q-30 0 -51 21.5t-21 51.5t21 51.5t51 21.5q29 0 50 -21.5t21 -51.5zM400 250h-243l122 331z" />
    <glyph glyph-name="AE" unicode="&#xc6;" horiz-adv-x="936" 
d="M912 3v198q0 2 -2 2t-2 -2q0 -39 -11.5 -74.5t-38.5 -62.5t-70 -43.5t-106 -16.5h-132q-7 0 -7 4v354h54q62 0 95 -31.5t33 -82.5q0 -2 1 -2q2 0 2 2v232q0 2 -2 2q-1 0 -1 -2q0 -52 -33 -83t-95 -31h-54v335q0 4 7 4h129q48 0 81 -14.5t54 -39t30.5 -56.5t9.5 -67
q0 -2 2 -2t2 2v178q0 3 -3 3h-518q-2 0 -2 -2t2 -2h92l-373 -659q-8 -15 -13 -23t-8.5 -12.5t-6 -5.5t-5.5 -1h-76q-2 0 -2 -2t2 -2h189q2 0 2 2t-2 2h-92q-5 0 -2 7.5t19 34.5l141 249h232v-287q0 -4 -7 -4h-90q-2 0 -2 -2t2 -2h572q3 0 3 3zM434 299h-230l230 404v-404z
" />
    <glyph glyph-name="Ccedilla" unicode="&#xc7;" horiz-adv-x="659" 
d="M610 -15v228q0 2 -2 2t-2 -2q0 -49 -16.5 -90.5t-46 -72t-69.5 -47.5t-87 -17q-35 0 -72 8.5t-63 30.5q-43 37 -65 116.5t-22 212.5t22 212.5t65 116.5q26 23 60.5 31t69.5 8q38 0 74.5 -17t65.5 -44.5t47 -63t18 -72.5q0 -2 2 -2t2 2v198q0 2 -2 2t-2 -2
q-2 -8 -15.5 -16t-35.5 -8q-18 0 -37 4t-39 9.5t-39.5 9.5t-38.5 4q-72 0 -133 -30t-105.5 -81t-69 -118.5t-24.5 -142.5q0 -71 23 -135t63.5 -114t97 -82t122.5 -39q-6 -11 -11 -28t-5 -33q0 -26 12.5 -38.5t28 -20t28 -14.5t12.5 -20q0 -24 -18 -38.5t-44 -14.5
q-24 0 -24 20q0 8 5.5 11t5.5 14t-6.5 16t-16.5 5q-11 0 -17.5 -7.5t-6.5 -17.5q0 -13 15.5 -29t44.5 -16q33 0 51.5 19t18.5 53q0 27 -12 40.5t-26 22t-26 17.5t-12 27q0 8 2.5 16.5t5.5 15.5q27 -3 53.5 1t52 11t49.5 13t44 6q22 0 33 -10.5t13 -19.5q1 -1 2 -1q2 0 2 1z
" />
    <glyph glyph-name="Egrave" unicode="&#xc8;" horiz-adv-x="638" 
d="M614 3v198q0 2 -2 2t-2 -2q0 -39 -11.5 -74.5t-38.5 -62.5t-70 -43.5t-106 -16.5h-133q-6 0 -6 4v354h54q62 0 94.5 -31.5t32.5 -82.5q0 -2 2 -2t2 2v232q0 2 -2 2t-2 -2q0 -52 -32.5 -83t-94.5 -31h-54v335q0 4 6 4h130q48 0 81 -14.5t54 -39t30.5 -56.5t9.5 -67
q0 -2 2 -2t2 2v178q0 3 -3 3h-518q-2 0 -2 -2t2 -2h90q6 0 6 -4v-693q0 -4 -6 -4h-90q-2 0 -2 -2t2 -2h572q3 0 3 3zM428 778q-35 8 -57.5 23.5t-38 33t-25 36t-18 34t-17.5 25t-23 9.5t-22 -8.5t-8 -20.5q0 -13 8 -30t30.5 -35t63 -36t106.5 -34q2 -1 2.5 1t-1.5 2z" />
    <glyph glyph-name="Eacute" unicode="&#xc9;" horiz-adv-x="638" 
d="M614 3v198q0 2 -2 2t-2 -2q0 -39 -11.5 -74.5t-38.5 -62.5t-70 -43.5t-106 -16.5h-133q-6 0 -6 4v354h54q62 0 94.5 -31.5t32.5 -82.5q0 -2 2 -2t2 2v232q0 2 -2 2t-2 -2q0 -52 -32.5 -83t-94.5 -31h-54v335q0 4 6 4h130q48 0 81 -14.5t54 -39t30.5 -56.5t9.5 -67
q0 -2 2 -2t2 2v178q0 3 -3 3h-518q-2 0 -2 -2t2 -2h90q6 0 6 -4v-693q0 -4 -6 -4h-90q-2 0 -2 -2t2 -2h572q3 0 3 3zM509 910q0 12 -8 20.5t-22 8.5t-23 -9.5t-17.5 -25t-18 -34t-25 -36t-38.5 -33t-57 -23.5q-2 0 -1.5 -2t2.5 -1q66 16 106.5 34t63 36t30.5 35t8 30z" />
    <glyph glyph-name="Ecircumflex" unicode="&#xca;" horiz-adv-x="638" 
d="M614 3v198q0 2 -2 2t-2 -2q0 -39 -11.5 -74.5t-38.5 -62.5t-70 -43.5t-106 -16.5h-133q-6 0 -6 4v354h54q62 0 94.5 -31.5t32.5 -82.5q0 -2 2 -2t2 2v232q0 2 -2 2t-2 -2q0 -52 -32.5 -83t-94.5 -31h-54v335q0 4 6 4h130q48 0 81 -14.5t54 -39t30.5 -56.5t9.5 -67
q0 -2 2 -2t2 2v178q0 3 -3 3h-518q-2 0 -2 -2t2 -2h90q6 0 6 -4v-693q0 -4 -6 -4h-90q-2 0 -2 -2t2 -2h572q3 0 3 3zM464 789q-43 49 -72 85.5t-49 66.5q-2 1 -3 0q-20 -30 -48 -66.5t-70 -85.5q-2 -2 -1 -3t3 0l113 84l124 -84q2 -1 3 0t0 3z" />
    <glyph glyph-name="Edieresis" unicode="&#xcb;" horiz-adv-x="638" 
d="M614 3v198q0 2 -2 2t-2 -2q0 -39 -11.5 -74.5t-38.5 -62.5t-70 -43.5t-106 -16.5h-133q-6 0 -6 4v354h54q62 0 94.5 -31.5t32.5 -82.5q0 -2 2 -2t2 2v232q0 2 -2 2t-2 -2q0 -52 -32.5 -83t-94.5 -31h-54v335q0 4 6 4h130q48 0 81 -14.5t54 -39t30.5 -56.5t9.5 -67
q0 -2 2 -2t2 2v178q0 3 -3 3h-518q-2 0 -2 -2t2 -2h90q6 0 6 -4v-693q0 -4 -6 -4h-90q-2 0 -2 -2t2 -2h572q3 0 3 3zM474 846q0 18 -11.5 30.5t-28.5 12.5t-29 -12.5t-12 -30.5q0 -17 12 -29.5t29 -12.5t28.5 12.5t11.5 29.5zM301 846q0 18 -11.5 30.5t-28.5 12.5
t-28.5 -12.5t-11.5 -30.5q0 -17 11.5 -29.5t28.5 -12.5t28.5 12.5t11.5 29.5z" />
    <glyph glyph-name="Igrave" unicode="&#xcc;" horiz-adv-x="379" 
d="M341 0q2 0 2 2t-2 2h-90q-7 0 -7 4v693q0 4 7 4h90q2 0 2 2t-2 2h-302q-2 0 -2 -2t2 -2h90q6 0 6 -4v-693q0 -4 -6 -4h-90q-2 0 -2 -2t2 -2h302zM293 778q-35 8 -57.5 23.5t-38 33t-25 36t-18 34t-17.5 25t-23 9.5t-22 -8.5t-8 -20.5q0 -13 8 -30t30.5 -35t63 -36
t106.5 -34q2 -1 2.5 1t-1.5 2z" />
    <glyph glyph-name="Iacute" unicode="&#xcd;" horiz-adv-x="379" 
d="M341 0q2 0 2 2t-2 2h-90q-7 0 -7 4v693q0 4 7 4h90q2 0 2 2t-2 2h-302q-2 0 -2 -2t2 -2h90q6 0 6 -4v-693q0 -4 -6 -4h-90q-2 0 -2 -2t2 -2h302zM341 910q0 12 -8 20.5t-22 8.5t-23 -9.5t-17.5 -25t-18 -34t-25 -36t-38.5 -33t-57 -23.5q-2 0 -1.5 -2t2.5 -1
q66 16 106.5 34t63 36t30.5 35t8 30z" />
    <glyph glyph-name="Icircumflex" unicode="&#xce;" horiz-adv-x="379" 
d="M341 0q2 0 2 2t-2 2h-90q-7 0 -7 4v693q0 4 7 4h90q2 0 2 2t-2 2h-302q-2 0 -2 -2t2 -2h90q6 0 6 -4v-693q0 -4 -6 -4h-90q-2 0 -2 -2t2 -2h302zM309 789q-43 49 -72 85.5t-49 66.5q-2 1 -3 0q-20 -30 -48 -66.5t-70 -85.5q-2 -2 -1 -3t3 0l113 84l124 -84q2 -1 3 0t0 3z
" />
    <glyph glyph-name="Idieresis" unicode="&#xcf;" horiz-adv-x="379" 
d="M341 0q2 0 2 2t-2 2h-90q-7 0 -7 4v693q0 4 7 4h90q2 0 2 2t-2 2h-302q-2 0 -2 -2t2 -2h90q6 0 6 -4v-693q0 -4 -6 -4h-90q-2 0 -2 -2t2 -2h302zM318 846q0 18 -11.5 30.5t-28.5 12.5t-29 -12.5t-12 -30.5q0 -17 12 -29.5t29 -12.5t28.5 12.5t11.5 29.5zM145 846
q0 18 -11.5 30.5t-28.5 12.5t-28.5 -12.5t-11.5 -30.5q0 -17 11.5 -29.5t28.5 -12.5t28.5 12.5t11.5 29.5z" />
    <glyph glyph-name="Ntilde" unicode="&#xd1;" horiz-adv-x="744" 
d="M715 705q2 0 2 2t-2 2h-197q-2 0 -2 -2t2 -2h90q6 0 6 -4v-525l-345 515q-7 11 -12 14.5t-10 3.5h-213q-2 0 -2 -2t2 -2h90q6 0 6 -4v-693q0 -4 -6 -4h-90q-2 0 -2 -2t2 -2h197q2 0 2 2t-2 2h-90q-6 0 -6 4v691l478 -712q2 -3 4 -2.5t2 2.5v714q0 4 6 4h90zM556 927
q0 2 -2 2t-2 -2q0 -32 -16 -53t-46 -21q-17 0 -35 9.5t-37.5 21t-42 21t-47.5 9.5q-46 0 -76 -29.5t-30 -77.5q0 -2 2 -2t2 2q0 32 16 53t46 21q16 0 34 -9.5t38 -21.5t42 -21.5t47 -9.5q46 0 76.5 30t30.5 78z" />
    <glyph glyph-name="Ograve" unicode="&#xd2;" horiz-adv-x="765" 
d="M715 354q0 77 -26 145t-71.5 118.5t-106 79.5t-129.5 29q-72 0 -133 -30t-105.5 -81t-69 -118.5t-24.5 -142.5q0 -77 26 -144.5t71 -118t105.5 -79.5t129.5 -29t129.5 29t106 79.5t71.5 118t26 144.5zM599 354q0 -76 -5.5 -130t-16.5 -92t-27 -63.5t-37 -43.5
q-26 -22 -58.5 -30.5t-72.5 -8.5q-39 0 -71.5 8.5t-58.5 30.5q-21 18 -37 43.5t-27 63.5t-16.5 92t-5.5 130q0 133 22 212.5t64 116.5q26 23 58.5 31t71.5 8q40 0 72.5 -8t58.5 -31q42 -37 64 -116.5t22 -212.5zM420 778q-35 8 -57.5 23.5t-38 33t-25 36t-18 34t-17.5 25
t-23 9.5t-22 -8.5t-8 -20.5q0 -13 8 -30t30.5 -35t63 -36t106.5 -34q2 -1 2.5 1t-1.5 2z" />
    <glyph glyph-name="Oacute" unicode="&#xd3;" horiz-adv-x="765" 
d="M715 354q0 77 -26 145t-71.5 118.5t-106 79.5t-129.5 29q-72 0 -133 -30t-105.5 -81t-69 -118.5t-24.5 -142.5q0 -77 26 -144.5t71 -118t105.5 -79.5t129.5 -29t129.5 29t106 79.5t71.5 118t26 144.5zM599 354q0 -76 -5.5 -130t-16.5 -92t-27 -63.5t-37 -43.5
q-26 -22 -58.5 -30.5t-72.5 -8.5q-39 0 -71.5 8.5t-58.5 30.5q-21 18 -37 43.5t-27 63.5t-16.5 92t-5.5 130q0 133 22 212.5t64 116.5q26 23 58.5 31t71.5 8q40 0 72.5 -8t58.5 -31q42 -37 64 -116.5t22 -212.5zM529 910q0 12 -8 20.5t-22 8.5t-23 -9.5t-17.5 -25t-18 -34
t-25 -36t-38.5 -33t-57 -23.5q-2 0 -1.5 -2t2.5 -1q66 16 106.5 34t63 36t30.5 35t8 30z" />
    <glyph glyph-name="Ocircumflex" unicode="&#xd4;" horiz-adv-x="765" 
d="M715 354q0 77 -26 145t-71.5 118.5t-106 79.5t-129.5 29q-72 0 -133 -30t-105.5 -81t-69 -118.5t-24.5 -142.5q0 -77 26 -144.5t71 -118t105.5 -79.5t129.5 -29t129.5 29t106 79.5t71.5 118t26 144.5zM599 354q0 -76 -5.5 -130t-16.5 -92t-27 -63.5t-37 -43.5
q-26 -22 -58.5 -30.5t-72.5 -8.5q-39 0 -71.5 8.5t-58.5 30.5q-21 18 -37 43.5t-27 63.5t-16.5 92t-5.5 130q0 133 22 212.5t64 116.5q26 23 58.5 31t71.5 8q40 0 72.5 -8t58.5 -31q42 -37 64 -116.5t22 -212.5zM510 789q-43 49 -72 85.5t-49 66.5q-2 1 -3 0
q-20 -30 -48 -66.5t-70 -85.5q-2 -2 -1 -3t3 0l113 84l124 -84q2 -1 3 0t0 3z" />
    <glyph glyph-name="Otilde" unicode="&#xd5;" horiz-adv-x="805" 
d="M715 354q0 77 -26 145t-71.5 118.5t-106 79.5t-129.5 29q-72 0 -133 -30t-105.5 -81t-69 -118.5t-24.5 -142.5q0 -77 26 -144.5t71 -118t105.5 -79.5t129.5 -29t129.5 29t106 79.5t71.5 118t26 144.5zM599 354q0 -76 -5.5 -130t-16.5 -92t-27 -63.5t-37 -43.5
q-26 -22 -58.5 -30.5t-72.5 -8.5q-39 0 -71.5 8.5t-58.5 30.5q-21 18 -37 43.5t-27 63.5t-16.5 92t-5.5 130q0 133 22 212.5t64 116.5q26 23 58.5 31t71.5 8q40 0 72.5 -8t58.5 -31q42 -37 64 -116.5t22 -212.5zM553 927q0 2 -2 2t-2 -2q0 -32 -16 -53t-46 -21
q-17 0 -35 9.5t-37.5 21t-42 21t-47.5 9.5q-46 0 -76 -29.5t-30 -77.5q0 -2 2 -2t2 2q0 32 16 53t46 21q16 0 34 -9.5t38 -21.5t42 -21.5t47 -9.5q46 0 76.5 30t30.5 78z" />
    <glyph glyph-name="Odieresis" unicode="&#xd6;" horiz-adv-x="765" 
d="M715 354q0 77 -26 145t-71.5 118.5t-106 79.5t-129.5 29q-72 0 -133 -30t-105.5 -81t-69 -118.5t-24.5 -142.5q0 -77 26 -144.5t71 -118t105.5 -79.5t129.5 -29t129.5 29t106 79.5t71.5 118t26 144.5zM599 354q0 -76 -5.5 -130t-16.5 -92t-27 -63.5t-37 -43.5
q-26 -22 -58.5 -30.5t-72.5 -8.5q-39 0 -71.5 8.5t-58.5 30.5q-21 18 -37 43.5t-27 63.5t-16.5 92t-5.5 130q0 133 22 212.5t64 116.5q26 23 58.5 31t71.5 8q40 0 72.5 -8t58.5 -31q42 -37 64 -116.5t22 -212.5zM507 846q0 18 -11.5 30.5t-28.5 12.5t-29 -12.5t-12 -30.5
q0 -17 12 -29.5t29 -12.5t28.5 12.5t11.5 29.5zM334 846q0 18 -11.5 30.5t-28.5 12.5t-28.5 -12.5t-11.5 -30.5q0 -17 11.5 -29.5t28.5 -12.5t28.5 12.5t11.5 29.5z" />
    <glyph glyph-name="Oslash" unicode="&#xd8;" horiz-adv-x="765" 
d="M715 354q0 96 -39 175.5t-105 130.5l40 66q1 1 -1 2.5t-3 -0.5l-39 -65q-40 30 -87 46.5t-99 16.5q-72 0 -133 -30t-105.5 -81t-69 -118.5t-24.5 -142.5q0 -96 39.5 -176t105.5 -131l-41 -68q-1 -2 1 -3.5t3 0.5t7 12t16 27t18 30q39 -29 85.5 -45.5t97.5 -16.5
q69 0 129.5 29t106 79.5t71.5 118t26 144.5zM551 635l-339 -561q-11 20 -19.5 45.5t-14.5 59.5t-9 77t-3 98q0 133 22 212.5t64 116.5q26 23 58.5 31t71.5 8q40 0 72.5 -8t58.5 -31q22 -19 38 -48zM599 354q0 -76 -5.5 -130t-16.5 -92t-27 -63.5t-37 -43.5
q-26 -22 -58.5 -30.5t-72.5 -8.5q-39 0 -71.5 8.5t-58.5 30.5q-22 19 -38 44l19 31.5t48.5 80.5t66 109.5t72 119t66 109.5t48.5 80t19 31q23 -44 34.5 -111.5t11.5 -164.5z" />
    <glyph glyph-name="Ugrave" unicode="&#xd9;" horiz-adv-x="729" 
d="M720 705q2 0 2 2t-2 2h-197q-2 0 -2 -2t2 -2h90q6 0 6 -4v-491q0 -48 -12.5 -87.5t-39 -68t-67 -44t-96.5 -15.5q-179 0 -179 212v494q0 4 6 4h90q2 0 2 2t-2 2h-302q-2 0 -2 -2t2 -2h90q6 0 6 -4v-494q0 -56 19.5 -98t54.5 -70t83 -42t106 -14q64 0 110.5 16t76.5 45.5
t44.5 71.5t14.5 94v491q0 4 6 4h90zM476 778q-35 8 -57.5 23.5t-38 33t-25 36t-18 34t-17.5 25t-23 9.5t-22 -8.5t-8 -20.5q0 -13 8 -30t30.5 -35t63 -36t106.5 -34q2 -1 2.5 1t-1.5 2z" />
    <glyph glyph-name="Uacute" unicode="&#xda;" horiz-adv-x="729" 
d="M720 705q2 0 2 2t-2 2h-197q-2 0 -2 -2t2 -2h90q6 0 6 -4v-491q0 -48 -12.5 -87.5t-39 -68t-67 -44t-96.5 -15.5q-179 0 -179 212v494q0 4 6 4h90q2 0 2 2t-2 2h-302q-2 0 -2 -2t2 -2h90q6 0 6 -4v-494q0 -56 19.5 -98t54.5 -70t83 -42t106 -14q64 0 110.5 16t76.5 45.5
t44.5 71.5t14.5 94v491q0 4 6 4h90zM539 910q0 12 -8 20.5t-22 8.5t-23 -9.5t-17.5 -25t-18 -34t-25 -36t-38.5 -33t-57 -23.5q-2 0 -1.5 -2t2.5 -1q66 16 106.5 34t63 36t30.5 35t8 30z" />
    <glyph glyph-name="Ucircumflex" unicode="&#xdb;" horiz-adv-x="729" 
d="M720 705q2 0 2 2t-2 2h-197q-2 0 -2 -2t2 -2h90q6 0 6 -4v-491q0 -48 -12.5 -87.5t-39 -68t-67 -44t-96.5 -15.5q-179 0 -179 212v494q0 4 6 4h90q2 0 2 2t-2 2h-302q-2 0 -2 -2t2 -2h90q6 0 6 -4v-494q0 -56 19.5 -98t54.5 -70t83 -42t106 -14q64 0 110.5 16t76.5 45.5
t44.5 71.5t14.5 94v491q0 4 6 4h90zM518 789q-43 49 -72 85.5t-49 66.5q-2 1 -3 0q-20 -30 -48 -66.5t-70 -85.5q-2 -2 -1 -3t3 0l113 84l124 -84q2 -1 3 0t0 3z" />
    <glyph glyph-name="Udieresis" unicode="&#xdc;" horiz-adv-x="729" 
d="M720 705q2 0 2 2t-2 2h-197q-2 0 -2 -2t2 -2h90q6 0 6 -4v-491q0 -48 -12.5 -87.5t-39 -68t-67 -44t-96.5 -15.5q-179 0 -179 212v494q0 4 6 4h90q2 0 2 2t-2 2h-302q-2 0 -2 -2t2 -2h90q6 0 6 -4v-494q0 -56 19.5 -98t54.5 -70t83 -42t106 -14q64 0 110.5 16t76.5 45.5
t44.5 71.5t14.5 94v491q0 4 6 4h90zM527 846q0 18 -11.5 30.5t-28.5 12.5t-29 -12.5t-12 -30.5q0 -17 12 -29.5t29 -12.5t28.5 12.5t11.5 29.5zM354 846q0 18 -11.5 30.5t-28.5 12.5t-28.5 -12.5t-11.5 -30.5q0 -17 11.5 -29.5t28.5 -12.5t28.5 12.5t11.5 29.5z" />
    <glyph glyph-name="germandbls" unicode="&#xdf;" horiz-adv-x="555" 
d="M501 193q0 37 -11 76t-33 71.5t-55.5 53t-78.5 20.5h-16t-18 -2q31 12 58 30.5t47 41.5t32 51t12 59q0 36 -12.5 64t-35 47t-53 28.5t-66.5 9.5q-37 0 -68.5 -16t-54 -51t-35.5 -91t-13 -136v-442q0 -4 -6 -4h-55q-2 0 -2 -2q0 -1 2 -1h201q2 0 2 1q0 2 -2 2h-55
q-6 0 -6 4v612q0 34 7.5 57.5t20.5 37t29.5 19.5t34.5 6q53 0 75 -33t22 -109q0 -41 -5 -70t-17.5 -51.5t-32.5 -40.5t-50 -36q-2 -1 -1 -3t3 0q19 11 37 11q31 0 54 -12t38 -38.5t22.5 -69t7.5 -104.5q0 -61 -5.5 -98t-15.5 -57t-23 -26.5t-28 -6.5q-22 0 -36 13.5
t-14 38.5q0 14 4 20t4 16q0 14 -9.5 21.5t-23.5 7.5t-23 -10t-9 -27q0 -16 7.5 -31t21.5 -27t34 -19t44 -7t50.5 11.5t48 36t36 63t14.5 91.5z" />
    <glyph glyph-name="agrave" unicode="&#xe0;" horiz-adv-x="437" 
d="M428 30q1 2 -1 2.5t-2 -1.5q-3 -7 -12.5 -16t-23.5 -9q-11 0 -18.5 8t-7.5 25v215q0 94 -40 137.5t-117 43.5q-29 0 -51 -7t-36.5 -18.5t-22 -25t-7.5 -25.5q0 -16 9 -29.5t30 -13.5q23 0 32.5 10.5t9.5 23.5q0 11 -3.5 17.5t-3.5 18.5q0 24 12 34.5t31 10.5
q13 0 27 -4.5t25.5 -16.5t18.5 -31.5t7 -49.5v-76q0 -8 -10.5 -13t-27.5 -8t-38 -5l-42 -4q-15 -2 -36.5 -7t-41.5 -18.5t-34.5 -38t-14.5 -63.5q0 -30 11.5 -50t30 -32t42 -17t48.5 -5q40 0 74 16t44 48q5 -28 23 -46t50 -18q28 0 45 12t21 26zM284 69q0 -14 -8 -26.5
t-21 -22.5t-30.5 -15.5t-35.5 -5.5q-12 0 -24.5 3t-23.5 13t-18 29.5t-7 51.5q0 34 6 57t16 37t22.5 20.5t24.5 9.5q11 2 24.5 3t27.5 3t26.5 5t20.5 9v-171zM326 523q-35 8 -57.5 23.5t-38 33t-25 36t-18 34t-17.5 25t-23 9.5t-22 -8.5t-8 -20.5q0 -13 8 -30t30.5 -35
t63 -36t106.5 -34q2 -1 2.5 1t-1.5 2z" />
    <glyph glyph-name="aacute" unicode="&#xe1;" horiz-adv-x="437" 
d="M428 30q1 2 -1 2.5t-2 -1.5q-3 -7 -12.5 -16t-23.5 -9q-11 0 -18.5 8t-7.5 25v215q0 94 -40 137.5t-117 43.5q-29 0 -51 -7t-36.5 -18.5t-22 -25t-7.5 -25.5q0 -16 9 -29.5t30 -13.5q23 0 32.5 10.5t9.5 23.5q0 11 -3.5 17.5t-3.5 18.5q0 24 12 34.5t31 10.5
q13 0 27 -4.5t25.5 -16.5t18.5 -31.5t7 -49.5v-76q0 -8 -10.5 -13t-27.5 -8t-38 -5l-42 -4q-15 -2 -36.5 -7t-41.5 -18.5t-34.5 -38t-14.5 -63.5q0 -30 11.5 -50t30 -32t42 -17t48.5 -5q40 0 74 16t44 48q5 -28 23 -46t50 -18q28 0 45 12t21 26zM284 69q0 -14 -8 -26.5
t-21 -22.5t-30.5 -15.5t-35.5 -5.5q-12 0 -24.5 3t-23.5 13t-18 29.5t-7 51.5q0 34 6 57t16 37t22.5 20.5t24.5 9.5q11 2 24.5 3t27.5 3t26.5 5t20.5 9v-171zM357 655q0 12 -8 20.5t-22 8.5t-23 -9.5t-17.5 -25t-18 -34t-25 -36t-38.5 -33t-57 -23.5q-2 0 -1.5 -2t2.5 -1
q66 16 106.5 34t63 36t30.5 35t8 30z" />
    <glyph glyph-name="acircumflex" unicode="&#xe2;" horiz-adv-x="437" 
d="M428 30q1 2 -1 2.5t-2 -1.5q-3 -7 -12.5 -16t-23.5 -9q-11 0 -18.5 8t-7.5 25v215q0 94 -40 137.5t-117 43.5q-29 0 -51 -7t-36.5 -18.5t-22 -25t-7.5 -25.5q0 -16 9 -29.5t30 -13.5q23 0 32.5 10.5t9.5 23.5q0 11 -3.5 17.5t-3.5 18.5q0 24 12 34.5t31 10.5
q13 0 27 -4.5t25.5 -16.5t18.5 -31.5t7 -49.5v-76q0 -8 -10.5 -13t-27.5 -8t-38 -5l-42 -4q-15 -2 -36.5 -7t-41.5 -18.5t-34.5 -38t-14.5 -63.5q0 -30 11.5 -50t30 -32t42 -17t48.5 -5q40 0 74 16t44 48q5 -28 23 -46t50 -18q28 0 45 12t21 26zM284 69q0 -14 -8 -26.5
t-21 -22.5t-30.5 -15.5t-35.5 -5.5q-12 0 -24.5 3t-23.5 13t-18 29.5t-7 51.5q0 34 6 57t16 37t22.5 20.5t24.5 9.5q11 2 24.5 3t27.5 3t26.5 5t20.5 9v-171zM346 534q-43 49 -72 85.5t-49 66.5q-2 1 -3 0q-20 -30 -48 -66.5t-70 -85.5q-2 -2 -1 -3t3 0l113 84l124 -84
q2 -1 3 0t0 3z" />
    <glyph glyph-name="atilde" unicode="&#xe3;" horiz-adv-x="437" 
d="M428 30q1 2 -1 2.5t-2 -1.5q-3 -7 -12.5 -16t-23.5 -9q-11 0 -18.5 8t-7.5 25v215q0 94 -40 137.5t-117 43.5q-29 0 -51 -7t-36.5 -18.5t-22 -25t-7.5 -25.5q0 -16 9 -29.5t30 -13.5q23 0 32.5 10.5t9.5 23.5q0 11 -3.5 17.5t-3.5 18.5q0 24 12 34.5t31 10.5
q13 0 27 -4.5t25.5 -16.5t18.5 -31.5t7 -49.5v-76q0 -8 -10.5 -13t-27.5 -8t-38 -5l-42 -4q-15 -2 -36.5 -7t-41.5 -18.5t-34.5 -38t-14.5 -63.5q0 -30 11.5 -50t30 -32t42 -17t48.5 -5q40 0 74 16t44 48q5 -28 23 -46t50 -18q28 0 45 12t21 26zM284 69q0 -14 -8 -26.5
t-21 -22.5t-30.5 -15.5t-35.5 -5.5q-12 0 -24.5 3t-23.5 13t-18 29.5t-7 51.5q0 34 6 57t16 37t22.5 20.5t24.5 9.5q11 2 24.5 3t27.5 3t26.5 5t20.5 9v-171zM403 672q0 2 -2 2t-2 -2q0 -32 -16 -53t-46 -21q-17 0 -35 9.5t-37.5 21t-42 21t-47.5 9.5q-46 0 -76 -29.5
t-30 -77.5q0 -2 2 -2t2 2q0 32 16 53t46 21q16 0 34 -9.5t38 -21.5t42 -21.5t47 -9.5q46 0 76.5 30t30.5 78z" />
    <glyph glyph-name="adieresis" unicode="&#xe4;" horiz-adv-x="437" 
d="M428 30q1 2 -1 2.5t-2 -1.5q-3 -7 -12.5 -16t-23.5 -9q-11 0 -18.5 8t-7.5 25v215q0 94 -40 137.5t-117 43.5q-29 0 -51 -7t-36.5 -18.5t-22 -25t-7.5 -25.5q0 -16 9 -29.5t30 -13.5q23 0 32.5 10.5t9.5 23.5q0 11 -3.5 17.5t-3.5 18.5q0 24 12 34.5t31 10.5
q13 0 27 -4.5t25.5 -16.5t18.5 -31.5t7 -49.5v-76q0 -8 -10.5 -13t-27.5 -8t-38 -5l-42 -4q-15 -2 -36.5 -7t-41.5 -18.5t-34.5 -38t-14.5 -63.5q0 -30 11.5 -50t30 -32t42 -17t48.5 -5q40 0 74 16t44 48q5 -28 23 -46t50 -18q28 0 45 12t21 26zM284 69q0 -14 -8 -26.5
t-21 -22.5t-30.5 -15.5t-35.5 -5.5q-12 0 -24.5 3t-23.5 13t-18 29.5t-7 51.5q0 34 6 57t16 37t22.5 20.5t24.5 9.5q11 2 24.5 3t27.5 3t26.5 5t20.5 9v-171zM359 591q0 18 -11.5 30.5t-28.5 12.5t-29 -12.5t-12 -30.5q0 -17 12 -29.5t29 -12.5t28.5 12.5t11.5 29.5z
M186 591q0 18 -11.5 30.5t-28.5 12.5t-28.5 -12.5t-11.5 -30.5q0 -17 11.5 -29.5t28.5 -12.5t28.5 12.5t11.5 29.5z" />
    <glyph glyph-name="aring" unicode="&#xe5;" horiz-adv-x="437" 
d="M428 30q1 2 -1 2.5t-2 -1.5q-3 -7 -12.5 -16t-23.5 -9q-11 0 -18.5 8t-7.5 25v215q0 94 -40 137.5t-117 43.5q-29 0 -51 -7t-36.5 -18.5t-22 -25t-7.5 -25.5q0 -16 9 -29.5t30 -13.5q23 0 32.5 10.5t9.5 23.5q0 11 -3.5 17.5t-3.5 18.5q0 24 12 34.5t31 10.5
q13 0 27 -4.5t25.5 -16.5t18.5 -31.5t7 -49.5v-76q0 -8 -10.5 -13t-27.5 -8t-38 -5l-42 -4q-15 -2 -36.5 -7t-41.5 -18.5t-34.5 -38t-14.5 -63.5q0 -30 11.5 -50t30 -32t42 -17t48.5 -5q40 0 74 16t44 48q5 -28 23 -46t50 -18q28 0 45 12t21 26zM284 69q0 -14 -8 -26.5
t-21 -22.5t-30.5 -15.5t-35.5 -5.5q-12 0 -24.5 3t-23.5 13t-18 29.5t-7 51.5q0 34 6 57t16 37t22.5 20.5t24.5 9.5q11 2 24.5 3t27.5 3t26.5 5t20.5 9v-171zM299 608q0 32 -22 54.5t-54 22.5t-54.5 -22.5t-22.5 -54.5t22.5 -54.5t54.5 -22.5t54 22.5t22 54.5zM294 608
q0 -30 -21 -51.5t-50 -21.5q-30 0 -51 21.5t-21 51.5t21 51.5t51 21.5q29 0 50 -21.5t21 -51.5z" />
    <glyph glyph-name="ae" unicode="&#xe6;" horiz-adv-x="687" 
d="M653 242q0 28 -10 62t-31 63t-54 49t-80 20q-42 0 -80 -17t-60 -52q-14 37 -50 53t-83 16q-29 0 -51 -7t-36.5 -18.5t-22 -25t-7.5 -25.5q0 -16 9 -29.5t30 -13.5q23 0 32.5 10.5t9.5 23.5q0 11 -3.5 17.5t-3.5 18.5q0 24 12 34.5t31 10.5q14 0 28 -4.5t25.5 -16.5
t18.5 -31.5t7 -49.5v-76q0 -8 -11 -13t-28 -8t-38 -5l-42 -4q-15 -2 -36.5 -7t-41.5 -18.5t-34 -38t-14 -63.5q0 -30 11 -50t29.5 -32t42 -17.5t48.5 -5.5q24 0 45.5 8t38 21.5t26.5 31t10 36.5q29 -51 80 -74t108 -23q53 0 94.5 26t69.5 69q2 2 0 2.5t-3 -0.5
q-26 -42 -66.5 -67.5t-94.5 -25.5q-20 0 -39 5t-35 18q-12 11 -20.5 26t-13.5 37.5t-7 54.5t-2 77v25h290q2 0 2 3zM573 243h-212q2 66 11 106t32 60q16 13 35 18t39 5q17 0 32.5 -5t27.5 -18q19 -20 26 -60t9 -106zM284 83q0 -15 -9 -30t-23 -27t-31 -19t-33 -7
q-12 0 -24.5 3t-23 13t-17.5 29.5t-7 51.5q0 34 6 57t15.5 37t22 20.5t24.5 9.5q11 2 24.5 3t27.5 3t26.5 5t21.5 9v-158z" />
    <glyph glyph-name="ccedilla" unicode="&#xe7;" horiz-adv-x="430" 
d="M412 85q1 2 -0.5 2.5t-2.5 -0.5q-26 -42 -66.5 -67.5t-94.5 -25.5q-20 0 -41 5t-36 18q-13 11 -22.5 26t-16 38t-9.5 55t-3 77t3 77t9.5 54.5t16 37.5t22.5 26q15 14 36 18.5t41 4.5q37 0 49.5 -10t12.5 -36q0 -11 -1.5 -16.5t-4 -9.5t-4 -8.5t-1.5 -13.5
q0 -14 10.5 -24.5t28.5 -10.5t29 10t11 32q0 17 -7.5 33.5t-23 29t-40.5 20.5t-59 8q-43 0 -81 -17.5t-66 -47.5t-44.5 -70.5t-16.5 -86.5q0 -45 15.5 -84.5t42.5 -69.5t63 -48t77 -20q-7 -10 -14 -29t-7 -39q0 -26 12.5 -38.5t28 -20t28 -14.5t12.5 -20q0 -24 -18 -38.5
t-44 -14.5q-24 0 -24 20q0 8 5.5 11t5.5 14t-6.5 16t-16.5 5q-11 0 -17.5 -7.5t-6.5 -17.5q0 -13 15.5 -29t44.5 -16q33 0 51.5 19t18.5 53q0 27 -12 40.5t-26 22t-26 17.5t-12 27q0 10 4 22t8 17q58 -1 99.5 24t70.5 70z" />
    <glyph glyph-name="egrave" unicode="&#xe8;" horiz-adv-x="450" 
d="M416 240q0 28 -10 62t-31 63.5t-54 49.5t-80 20q-43 0 -80 -17.5t-64 -48t-42 -71t-15 -86.5t15 -86t42 -70t64 -47.5t80 -17.5q53 0 94.5 25.5t69.5 68.5q1 2 -0.5 2.5t-2.5 -0.5q-26 -42 -66.5 -67.5t-94.5 -25.5q-20 0 -39 5t-35 18q-12 11 -20.5 26t-14 37.5
t-7.5 54.5t-2 77v13t1 12h289q3 0 3 3zM336 241h-212q2 66 11 106.5t32 60.5q16 14 35 18.5t39 4.5q17 0 32 -4.5t28 -18.5q19 -20 26 -60.5t9 -106.5zM326 523q-35 8 -57.5 23.5t-38 33t-25 36t-18 34t-17.5 25t-23 9.5t-22 -8.5t-8 -20.5q0 -13 8 -30t30.5 -35t63 -36
t106.5 -34q2 -1 2.5 1t-1.5 2z" />
    <glyph glyph-name="eacute" unicode="&#xe9;" horiz-adv-x="450" 
d="M416 240q0 28 -10 62t-31 63.5t-54 49.5t-80 20q-43 0 -80 -17.5t-64 -48t-42 -71t-15 -86.5t15 -86t42 -70t64 -47.5t80 -17.5q53 0 94.5 25.5t69.5 68.5q1 2 -0.5 2.5t-2.5 -0.5q-26 -42 -66.5 -67.5t-94.5 -25.5q-20 0 -39 5t-35 18q-12 11 -20.5 26t-14 37.5
t-7.5 54.5t-2 77v13t1 12h289q3 0 3 3zM336 241h-212q2 66 11 106.5t32 60.5q16 14 35 18.5t39 4.5q17 0 32 -4.5t28 -18.5q19 -20 26 -60.5t9 -106.5zM387 655q0 12 -8 20.5t-22 8.5t-23 -9.5t-17.5 -25t-18 -34t-25 -36t-38.5 -33t-57 -23.5q-2 0 -1.5 -2t2.5 -1
q66 16 106.5 34t63 36t30.5 35t8 30z" />
    <glyph glyph-name="ecircumflex" unicode="&#xea;" horiz-adv-x="450" 
d="M416 240q0 28 -10 62t-31 63.5t-54 49.5t-80 20q-43 0 -80 -17.5t-64 -48t-42 -71t-15 -86.5t15 -86t42 -70t64 -47.5t80 -17.5q53 0 94.5 25.5t69.5 68.5q1 2 -0.5 2.5t-2.5 -0.5q-26 -42 -66.5 -67.5t-94.5 -25.5q-20 0 -39 5t-35 18q-12 11 -20.5 26t-14 37.5
t-7.5 54.5t-2 77v13t1 12h289q3 0 3 3zM336 241h-212q2 66 11 106.5t32 60.5q16 14 35 18.5t39 4.5q17 0 32 -4.5t28 -18.5q19 -20 26 -60.5t9 -106.5zM372 534q-43 49 -72 85.5t-49 66.5q-2 1 -3 0q-20 -30 -48 -66.5t-70 -85.5q-2 -2 -1 -3t3 0l113 84l124 -84q2 -1 3 0
t0 3z" />
    <glyph glyph-name="edieresis" unicode="&#xeb;" horiz-adv-x="450" 
d="M416 240q0 28 -10 62t-31 63.5t-54 49.5t-80 20q-43 0 -80 -17.5t-64 -48t-42 -71t-15 -86.5t15 -86t42 -70t64 -47.5t80 -17.5q53 0 94.5 25.5t69.5 68.5q1 2 -0.5 2.5t-2.5 -0.5q-26 -42 -66.5 -67.5t-94.5 -25.5q-20 0 -39 5t-35 18q-12 11 -20.5 26t-14 37.5
t-7.5 54.5t-2 77v13t1 12h289q3 0 3 3zM336 241h-212q2 66 11 106.5t32 60.5q16 14 35 18.5t39 4.5q17 0 32 -4.5t28 -18.5q19 -20 26 -60.5t9 -106.5zM371 591q0 18 -11.5 30.5t-28.5 12.5t-29 -12.5t-12 -30.5q0 -17 12 -29.5t29 -12.5t28.5 12.5t11.5 29.5zM198 591
q0 18 -11.5 30.5t-28.5 12.5t-28.5 -12.5t-11.5 -30.5q0 -17 11.5 -29.5t28.5 -12.5t28.5 12.5t11.5 29.5z" />
    <glyph glyph-name="igrave" unicode="&#xec;" horiz-adv-x="249" 
d="M231 0q2 0 2 2t-2 2h-55q-7 0 -7 4v415q0 3 -2 3h-138q-2 0 -2 -2t2 -2h55q6 0 6 -4v-410q0 -4 -6 -4h-55q-2 0 -2 -2t2 -2h202zM210 523q-35 8 -57.5 23.5t-38 33t-25 36t-18 34t-17.5 25t-23 9.5t-22 -8.5t-8 -20.5q0 -13 8 -30t30.5 -35t63 -36t106.5 -34q2 -1 2.5 1
t-1.5 2z" />
    <glyph glyph-name="iacute" unicode="&#xed;" horiz-adv-x="249" 
d="M231 0q2 0 2 2t-2 2h-55q-7 0 -7 4v415q0 3 -2 3h-138q-2 0 -2 -2t2 -2h55q6 0 6 -4v-410q0 -4 -6 -4h-55q-2 0 -2 -2t2 -2h202zM288 655q0 12 -8 20.5t-22 8.5t-23 -9.5t-17.5 -25t-18 -34t-25 -36t-38.5 -33t-57 -23.5q-2 0 -1.5 -2t2.5 -1q66 16 106.5 34t63 36
t30.5 35t8 30z" />
    <glyph glyph-name="icircumflex" unicode="&#xee;" horiz-adv-x="249" 
d="M231 0q2 0 2 2t-2 2h-55q-7 0 -7 4v415q0 3 -2 3h-138q-2 0 -2 -2t2 -2h55q6 0 6 -4v-410q0 -4 -6 -4h-55q-2 0 -2 -2t2 -2h202zM247 534q-43 49 -72 85.5t-49 66.5q-2 1 -3 0q-20 -30 -48 -66.5t-70 -85.5q-2 -2 -1 -3t3 0l113 84l124 -84q2 -1 3 0t0 3z" />
    <glyph glyph-name="idieresis" unicode="&#xef;" horiz-adv-x="249" 
d="M231 0q2 0 2 2t-2 2h-55q-7 0 -7 4v415q0 3 -2 3h-138q-2 0 -2 -2t2 -2h55q6 0 6 -4v-410q0 -4 -6 -4h-55q-2 0 -2 -2t2 -2h202zM263 591q0 18 -11.5 30.5t-28.5 12.5t-29 -12.5t-12 -30.5q0 -17 12 -29.5t29 -12.5t28.5 12.5t11.5 29.5zM90 591q0 18 -11.5 30.5
t-28.5 12.5t-28.5 -12.5t-11.5 -30.5q0 -17 11.5 -29.5t28.5 -12.5t28.5 12.5t11.5 29.5z" />
    <glyph glyph-name="ntilde" unicode="&#xf1;" horiz-adv-x="507" 
d="M498 0q2 0 2 2t-2 2h-55q-7 0 -7 4v260q0 81 -43.5 124t-120.5 43q-34 0 -66.5 -17.5t-46.5 -60.5v66q0 3 -3 3h-137q-2 0 -2 -2t2 -2h55q6 0 6 -3v-411q0 -4 -6 -4h-55q-2 0 -2 -2t2 -2h201q2 0 2 2t-2 2h-55q-6 0 -6 4v339q11 35 37.5 59.5t75.5 24.5q13 0 27.5 -6
t27.5 -18.5t21.5 -31.5t8.5 -46v-321q0 -4 -6 -4h-55q-2 0 -2 -2t2 -2h202zM433 672q0 2 -2 2t-2 -2q0 -32 -16 -53t-46 -21q-17 0 -35 9.5t-37.5 21t-42 21t-47.5 9.5q-46 0 -76 -29.5t-30 -77.5q0 -2 2 -2t2 2q0 32 16 53t46 21q16 0 34 -9.5t38 -21.5t42 -21.5t47 -9.5
q46 0 76.5 30t30.5 78z" />
    <glyph glyph-name="ograve" unicode="&#xf2;" 
d="M457 213q0 46 -16.5 86.5t-44.5 70.5t-66.5 47.5t-81.5 17.5t-81 -17.5t-66 -47.5t-44.5 -70.5t-16.5 -86.5t16.5 -86.5t44.5 -70.5t66 -47.5t81 -17.5t81.5 17.5t66.5 47.5t44.5 70.5t16.5 86.5zM377 213q0 -45 -3.5 -77t-10 -55t-16 -38t-21.5 -26q-16 -13 -35 -18
t-43 -5q-23 0 -42.5 5t-34.5 18q-13 11 -22.5 26t-16 38t-9.5 55t-3 77q0 79 12.5 126t38.5 69q15 14 34.5 18.5t42.5 4.5q24 0 43 -4.5t35 -18.5q25 -22 38 -69t13 -126zM317 523q-35 8 -57.5 23.5t-38 33t-25 36t-18 34t-17.5 25t-23 9.5t-22 -8.5t-8 -20.5q0 -13 8 -30
t30.5 -35t63 -36t106.5 -34q2 -1 2.5 1t-1.5 2z" />
    <glyph glyph-name="oacute" unicode="&#xf3;" 
d="M457 213q0 46 -16.5 86.5t-44.5 70.5t-66.5 47.5t-81.5 17.5t-81 -17.5t-66 -47.5t-44.5 -70.5t-16.5 -86.5t16.5 -86.5t44.5 -70.5t66 -47.5t81 -17.5t81.5 17.5t66.5 47.5t44.5 70.5t16.5 86.5zM377 213q0 -45 -3.5 -77t-10 -55t-16 -38t-21.5 -26q-16 -13 -35 -18
t-43 -5q-23 0 -42.5 5t-34.5 18q-13 11 -22.5 26t-16 38t-9.5 55t-3 77q0 79 12.5 126t38.5 69q15 14 34.5 18.5t42.5 4.5q24 0 43 -4.5t35 -18.5q25 -22 38 -69t13 -126zM375 655q0 12 -8 20.5t-22 8.5t-23 -9.5t-17.5 -25t-18 -34t-25 -36t-38.5 -33t-57 -23.5
q-2 0 -1.5 -2t2.5 -1q66 16 106.5 34t63 36t30.5 35t8 30z" />
    <glyph glyph-name="ocircumflex" unicode="&#xf4;" 
d="M457 213q0 46 -16.5 86.5t-44.5 70.5t-66.5 47.5t-81.5 17.5t-81 -17.5t-66 -47.5t-44.5 -70.5t-16.5 -86.5t16.5 -86.5t44.5 -70.5t66 -47.5t81 -17.5t81.5 17.5t66.5 47.5t44.5 70.5t16.5 86.5zM377 213q0 -45 -3.5 -77t-10 -55t-16 -38t-21.5 -26q-16 -13 -35 -18
t-43 -5q-23 0 -42.5 5t-34.5 18q-13 11 -22.5 26t-16 38t-9.5 55t-3 77q0 79 12.5 126t38.5 69q15 14 34.5 18.5t42.5 4.5q24 0 43 -4.5t35 -18.5q25 -22 38 -69t13 -126zM366 534q-43 49 -72 85.5t-49 66.5q-2 1 -3 0q-20 -30 -48 -66.5t-70 -85.5q-2 -2 -1 -3t3 0l113 84
l124 -84q2 -1 3 0t0 3z" />
    <glyph glyph-name="otilde" unicode="&#xf5;" 
d="M457 213q0 46 -16.5 86.5t-44.5 70.5t-66.5 47.5t-81.5 17.5t-81 -17.5t-66 -47.5t-44.5 -70.5t-16.5 -86.5t16.5 -86.5t44.5 -70.5t66 -47.5t81 -17.5t81.5 17.5t66.5 47.5t44.5 70.5t16.5 86.5zM377 213q0 -45 -3.5 -77t-10 -55t-16 -38t-21.5 -26q-16 -13 -35 -18
t-43 -5q-23 0 -42.5 5t-34.5 18q-13 11 -22.5 26t-16 38t-9.5 55t-3 77q0 79 12.5 126t38.5 69q15 14 34.5 18.5t42.5 4.5q24 0 43 -4.5t35 -18.5q25 -22 38 -69t13 -126zM421 672q0 2 -2 2t-2 -2q0 -32 -16 -53t-46 -21q-17 0 -35 9.5t-37.5 21t-42 21t-47.5 9.5
q-46 0 -76 -29.5t-30 -77.5q0 -2 2 -2t2 2q0 32 16 53t46 21q16 0 34 -9.5t38 -21.5t42 -21.5t47 -9.5q46 0 76.5 30t30.5 78z" />
    <glyph glyph-name="odieresis" unicode="&#xf6;" 
d="M457 213q0 46 -16.5 86.5t-44.5 70.5t-66.5 47.5t-81.5 17.5t-81 -17.5t-66 -47.5t-44.5 -70.5t-16.5 -86.5t16.5 -86.5t44.5 -70.5t66 -47.5t81 -17.5t81.5 17.5t66.5 47.5t44.5 70.5t16.5 86.5zM377 213q0 -45 -3.5 -77t-10 -55t-16 -38t-21.5 -26q-16 -13 -35 -18
t-43 -5q-23 0 -42.5 5t-34.5 18q-13 11 -22.5 26t-16 38t-9.5 55t-3 77q0 79 12.5 126t38.5 69q15 14 34.5 18.5t42.5 4.5q24 0 43 -4.5t35 -18.5q25 -22 38 -69t13 -126zM377 591q0 18 -11.5 30.5t-28.5 12.5t-29 -12.5t-12 -30.5q0 -17 12 -29.5t29 -12.5t28.5 12.5
t11.5 29.5zM204 591q0 18 -11.5 30.5t-28.5 12.5t-28.5 -12.5t-11.5 -30.5q0 -17 11.5 -29.5t28.5 -12.5t28.5 12.5t11.5 29.5z" />
    <glyph glyph-name="oslash" unicode="&#xf8;" 
d="M457 213q0 55 -22.5 101t-60.5 77l39 57q1 1 -1 2.5t-3 -0.5l-39 -56q-26 20 -56.5 30.5t-65.5 10.5q-43 0 -81 -17.5t-66 -47.5t-44.5 -70.5t-16.5 -86.5q0 -54 22.5 -100.5t60.5 -77.5l-39 -56q-1 -2 1 -3.5t3 0.5l39 57q53 -42 121 -42q43 0 81.5 17.5t66.5 47.5
t44.5 70.5t16.5 86.5zM353 369l-213 -309q-10 24 -15 60t-5 93q0 79 12.5 126t38.5 69q15 14 34.5 18.5t42.5 4.5q24 0 43 -4.5t35 -18.5t27 -39zM377 213q0 -45 -3.5 -77t-10 -55t-16 -38t-21.5 -26q-16 -13 -35 -18t-43 -5q-23 0 -42.5 5t-34.5 18q-18 15 -29 38l213 309
q22 -50 22 -151z" />
    <glyph glyph-name="ugrave" unicode="&#xf9;" 
d="M488 0q2 0 2 2t-2 2h-55q-7 0 -7 3v416q0 3 -2 3h-138q-2 0 -2 -2t2 -2h55q6 0 6 -4v-339q-11 -35 -37.5 -59.5t-75.5 -24.5q-13 0 -28 6t-27.5 18.5t-21 31.5t-8.5 46v326q0 3 -3 3h-137q-2 0 -2 -2t2 -2h55q6 0 6 -4v-267q0 -81 44 -120.5t120 -39.5q35 0 67 17.5
t46 60.5v-66q0 -3 3 -3h138zM341 523q-35 8 -57.5 23.5t-38 33t-25 36t-18 34t-17.5 25t-23 9.5t-22 -8.5t-8 -20.5q0 -13 8 -30t30.5 -35t63 -36t106.5 -34q2 -1 2.5 1t-1.5 2z" />
    <glyph glyph-name="uacute" unicode="&#xfa;" 
d="M488 0q2 0 2 2t-2 2h-55q-7 0 -7 3v416q0 3 -2 3h-138q-2 0 -2 -2t2 -2h55q6 0 6 -4v-339q-11 -35 -37.5 -59.5t-75.5 -24.5q-13 0 -28 6t-27.5 18.5t-21 31.5t-8.5 46v326q0 3 -3 3h-137q-2 0 -2 -2t2 -2h55q6 0 6 -4v-267q0 -81 44 -120.5t120 -39.5q35 0 67 17.5
t46 60.5v-66q0 -3 3 -3h138zM369 655q0 12 -8 20.5t-22 8.5t-23 -9.5t-17.5 -25t-18 -34t-25 -36t-38.5 -33t-57 -23.5q-2 0 -1.5 -2t2.5 -1q66 16 106.5 34t63 36t30.5 35t8 30z" />
    <glyph glyph-name="ucircumflex" unicode="&#xfb;" 
d="M488 0q2 0 2 2t-2 2h-55q-7 0 -7 3v416q0 3 -2 3h-138q-2 0 -2 -2t2 -2h55q6 0 6 -4v-339q-11 -35 -37.5 -59.5t-75.5 -24.5q-13 0 -28 6t-27.5 18.5t-21 31.5t-8.5 46v326q0 3 -3 3h-137q-2 0 -2 -2t2 -2h55q6 0 6 -4v-267q0 -81 44 -120.5t120 -39.5q35 0 67 17.5
t46 60.5v-66q0 -3 3 -3h138zM366 534q-43 49 -72 85.5t-49 66.5q-2 1 -3 0q-20 -30 -48 -66.5t-70 -85.5q-2 -2 -1 -3t3 0l113 84l124 -84q2 -1 3 0t0 3z" />
    <glyph glyph-name="udieresis" unicode="&#xfc;" 
d="M488 0q2 0 2 2t-2 2h-55q-7 0 -7 3v416q0 3 -2 3h-138q-2 0 -2 -2t2 -2h55q6 0 6 -4v-339q-11 -35 -37.5 -59.5t-75.5 -24.5q-13 0 -28 6t-27.5 18.5t-21 31.5t-8.5 46v326q0 3 -3 3h-137q-2 0 -2 -2t2 -2h55q6 0 6 -4v-267q0 -81 44 -120.5t120 -39.5q35 0 67 17.5
t46 60.5v-66q0 -3 3 -3h138zM365 591q0 18 -11.5 30.5t-28.5 12.5t-29 -12.5t-12 -30.5q0 -17 12 -29.5t29 -12.5t28.5 12.5t11.5 29.5zM192 591q0 18 -11.5 30.5t-28.5 12.5t-28.5 -12.5t-11.5 -30.5q0 -17 11.5 -29.5t28.5 -12.5t28.5 12.5t11.5 29.5z" />
    <glyph glyph-name="ydieresis" unicode="&#xff;" horiz-adv-x="415" 
d="M443 422q2 0 2 2t-2 2h-128q-2 0 -2 -2t2 -2h54q5 0 4.5 -6.5t-11.5 -35.5l-110 -297l-146 335q-1 4 5 4h52q2 0 2 2t-2 2h-195q-2 0 -2 -2t2 -2h47q7 0 8 -4l196 -429l-85 -228q-14 -39 -27 -52.5t-23 -13.5q-12 0 -21 2.5t-9 10.5q0 7 3 12.5t6.5 10.5t6.5 11t3 14
q0 14 -10 24.5t-30 10.5q-19 0 -32.5 -15.5t-13.5 -38.5q0 -27 20.5 -41t50.5 -14t47 18t34 63l227 617q10 28 14.5 35t9.5 7h53zM361 591q0 18 -11.5 30.5t-28.5 12.5t-29 -12.5t-12 -30.5q0 -17 12 -29.5t29 -12.5t28.5 12.5t11.5 29.5zM188 591q0 18 -11.5 30.5
t-28.5 12.5t-28.5 -12.5t-11.5 -30.5q0 -17 11.5 -29.5t28.5 -12.5t28.5 12.5t11.5 29.5z" />
    <glyph glyph-name="dotlessi" unicode="&#x131;" horiz-adv-x="249" 
d="M231 0q2 0 2 2t-2 2h-55q-7 0 -7 4v415q0 3 -2 3h-138q-2 0 -2 -2t2 -2h55q6 0 6 -4v-410q0 -4 -6 -4h-55q-2 0 -2 -2t2 -2h202z" />
    <glyph glyph-name="OE" unicode="&#x152;" horiz-adv-x="974" 
d="M950 3v198q0 2 -2 2t-2 -2q0 -39 -11.5 -74.5t-38.5 -62.5t-70 -43.5t-106 -16.5h-133q-6 0 -6 4v354h54q62 0 94.5 -31.5t32.5 -82.5q0 -2 2 -2t2 2v232q0 2 -2 2t-2 -2q0 -52 -32.5 -83t-94.5 -31h-54v335q0 4 6 4h130q48 0 81 -14.5t54 -39t30.5 -56.5t9.5 -67
q0 -2 2 -2t2 2v178q0 3 -3 3h-511q-69 0 -129.5 -28t-105.5 -76t-71 -113t-26 -138t26 -137.5t71 -112.5t105.5 -76t129.5 -28h565q3 0 3 3zM471 8q0 -4 -6 -4h-83q-35 0 -69.5 8t-60.5 29q-21 18 -37.5 42t-27.5 60t-16.5 87.5t-5.5 123.5q0 127 22 203t65 111
q26 21 60.5 29t69.5 8h83q6 0 6 -4v-693z" />
    <glyph glyph-name="oe" unicode="&#x153;" horiz-adv-x="777" 
d="M743 241q0 28 -10 62t-31 63t-54.5 49t-79.5 20q-49 0 -90 -22.5t-67 -66.5q-26 43 -69.5 66t-92.5 23q-43 0 -81 -17.5t-66.5 -47.5t-45 -70.5t-16.5 -86.5t16.5 -86.5t45 -70.5t66.5 -47.5t81 -17.5q49 0 93 23.5t69 65.5q24 -42 66 -65.5t91 -23.5q53 0 94 26t70 69
q1 2 -0.5 2.5t-2.5 -0.5q-26 -42 -66.5 -67.5t-94.5 -25.5q-20 0 -39.5 5t-34.5 18q-13 11 -21.5 26t-13.5 37.5t-7 54.5t-2 77v25h290q3 0 3 3zM663 242h-212q2 66 11 106t32 60q15 13 34.5 18t39.5 5q17 0 32 -5t28 -18q19 -20 26 -60t9 -106zM377 213q0 -45 -3 -77
t-9.5 -54.5t-16 -37.5t-22.5 -26q-15 -13 -34.5 -18t-42.5 -5q-24 0 -43 5t-35 18q-12 11 -21.5 26t-16 37.5t-10 54.5t-3.5 77q0 78 13 125.5t38 69.5q16 13 35 18t43 5q23 0 42.5 -5t34.5 -18q26 -22 38.5 -69.5t12.5 -125.5z" />
    <glyph glyph-name="Ydieresis" unicode="&#x178;" horiz-adv-x="642" 
d="M667 705q2 0 2 2t-2 2h-202q-2 0 -2 -2t2 -2h101q5 0 3.5 -6.5t-15.5 -35.5l-156 -330l-191 368q-2 4 3 4h109q2 0 2 2t-2 2h-335q-2 0 -2 -2t2 -2h92q7 0 9 -4l205 -392v-301q0 -4 -7 -4h-90q-2 0 -2 -2t2 -2h302q2 0 2 2t-2 2h-89q-7 0 -7 4v318l160 337q13 28 19 35
t11 7h78zM508 846q0 18 -11.5 30.5t-28.5 12.5t-29 -12.5t-12 -30.5q0 -17 12 -29.5t29 -12.5t28.5 12.5t11.5 29.5zM335 846q0 18 -11.5 30.5t-28.5 12.5t-28.5 -12.5t-11.5 -30.5q0 -17 11.5 -29.5t28.5 -12.5t28.5 12.5t11.5 29.5z" />
    <glyph glyph-name="florin" unicode="&#x192;" horiz-adv-x="394" 
d="M498 670q0 16 -7 29.5t-19 23.5t-28 15.5t-33 5.5q-42 0 -83.5 -27t-76 -77.5t-58 -122.5t-29.5 -163l-1 -20q0 -3 -7 -3h-90q-2 0 -2 -2t2 -2h90q6 0 6 -4q-9 -133 -18.5 -249t-27.5 -201.5t-48 -134.5t-78 -49q-16 0 -25.5 9.5t-9.5 24.5q0 9 2.5 14t5 9.5t5 9.5
t2.5 13q0 14 -9 24t-30 10q-20 0 -33.5 -14t-13.5 -32q0 -34 26 -54t66 -20q51 0 90.5 29t69 78t50.5 112.5t34.5 132.5t21.5 138.5t12 129.5l1 20q0 4 7 4h90q2 0 2 2t-2 2h-90q-6 0 -6 3q8 132 25.5 211.5t37.5 122t39.5 56.5t33.5 14q16 0 25.5 -9.5t9.5 -23.5
q0 -10 -2.5 -15.5t-5 -9.5t-5 -9t-2.5 -13q0 -15 9 -24.5t30 -9.5q20 0 33.5 13.5t13.5 32.5z" />
    <glyph glyph-name="circumflex" unicode="&#x2c6;" horiz-adv-x="326" 
d="M294 534q-43 49 -72 85.5t-49 66.5q-2 1 -3 0q-20 -30 -48 -66.5t-70 -85.5q-2 -2 -1 -3t3 0l113 84l124 -84q2 -1 3 0t0 3z" />
    <glyph glyph-name="caron" unicode="&#x2c7;" horiz-adv-x="326" 
d="M282 664q2 2 1 3t-3 0l-113 -84l-124 84q-2 1 -3 0t0 -3q43 -49 72 -85.5t49 -66.5q1 -2 3 0q20 30 48 66.5t70 85.5z" />
    <glyph glyph-name="breve" unicode="&#x2d8;" horiz-adv-x="380" 
d="M330 698q0 2 -2 2t-2 -2q0 -20 -6.5 -39.5t-22 -34.5t-42 -24t-65.5 -9t-65.5 9t-42 24t-22 34.5t-6.5 39.5q0 2 -2 2t-2 -2q0 -24 6.5 -51t23 -50.5t43 -38.5t67.5 -15q40 0 67 15t43.5 38.5t23 50.5t6.5 51z" />
    <glyph glyph-name="dotaccent" unicode="&#x2d9;" horiz-adv-x="245" 
d="M163 591q0 18 -11.5 30.5t-28.5 12.5t-28.5 -12.5t-11.5 -30.5q0 -17 11.5 -29.5t28.5 -12.5t28.5 12.5t11.5 29.5z" />
    <glyph glyph-name="ring" unicode="&#x2da;" horiz-adv-x="283" 
d="M218 608q0 32 -22 54.5t-54 22.5t-54.5 -22.5t-22.5 -54.5t22.5 -54.5t54.5 -22.5t54 22.5t22 54.5zM213 608q0 -30 -21 -51.5t-50 -21.5q-30 0 -51 21.5t-21 51.5t21 51.5t51 21.5q29 0 50 -21.5t21 -51.5z" />
    <glyph glyph-name="ogonek" unicode="&#x2db;" horiz-adv-x="273" 
d="M222 -171q2 2 1 3.5t-2 -0.5q-11 -13 -23.5 -21t-25.5 -8q-21 0 -41 14.5t-20 53.5q0 43 22 75t57 52q2 1 0.5 2t-3.5 0q-57 -29 -89.5 -66.5t-32.5 -71.5q0 -33 19.5 -55.5t57.5 -22.5q29 0 47.5 13t32.5 32z" />
    <glyph glyph-name="tilde" unicode="&#x2dc;" horiz-adv-x="406" 
d="M370 672q0 2 -2 2t-2 -2q0 -32 -16 -53t-46 -21q-17 0 -35 9.5t-37.5 21t-42 21t-47.5 9.5q-46 0 -76 -29.5t-30 -77.5q0 -2 2 -2t2 2q0 32 16 53t46 21q16 0 34 -9.5t38 -21.5t42 -21.5t47 -9.5q46 0 76.5 30t30.5 78z" />
    <glyph glyph-name="hungarumlaut" unicode="&#x2dd;" horiz-adv-x="548" 
d="M447 655q0 12 -8 20.5t-22 8.5t-23 -9.5t-17.5 -25t-18 -34t-25 -36t-38.5 -33t-57 -23.5q-2 0 -1.5 -2t2.5 -1q66 16 106.5 34t63 36t30.5 35t8 30zM269 655q0 12 -8 20.5t-22 8.5t-23 -9.5t-17.5 -25t-18 -34t-25 -36t-38.5 -33t-57 -23.5q-2 0 -1.5 -2t2.5 -1
q66 16 106.5 34t63 36t30.5 35t8 30z" />
    <glyph glyph-name="Omega" unicode="&#x3a9;" horiz-adv-x="538" 
d="M599 670q0 16 -7 29.5t-19 23.5t-28 15.5t-33 5.5q-37 0 -67 -15t-51 -50t-32 -91.5t-11 -138.5v-19q0 -4 -6 -4h-160q-6 0 -6 4v183q0 34 5.5 57t14 36.5t19.5 19t22 5.5q16 0 25.5 -9.5t9.5 -24.5q0 -10 -2 -15t-4 -9.5l-4 -9t-2 -12.5q0 -14 10 -24t32 -10q19 0 31 14
t12 32q0 16 -7.5 29.5t-19.5 23.5t-28 15.5t-33 5.5q-37 0 -66.5 -15t-50.5 -50t-32 -91.5t-11 -138.5v-12q0 -4 -7 -4h-69q-2 0 -2 -2t2 -2h69q7 0 7 -4v-410q0 -4 -7 -4h-55q-2 0 -2 -2t2 -2h202q2 0 2 2t-2 2h-55q-6 0 -6 4v410q0 4 6 4h160q6 0 6 -4v-410q0 -4 -6 -4
h-55q-2 0 -2 -2t2 -2h201q2 0 2 2t-2 2h-55q-6 0 -6 4v410q0 4 6 4h83q2 0 2 2t-2 2h-83q-6 0 -6 4v190q0 34 5.5 57t14.5 36.5t19.5 19t21.5 5.5q16 0 25.5 -9.5t9.5 -24.5q0 -10 -2 -15t-4 -9.5l-4 -9t-2 -12.5q0 -14 10.5 -24t31.5 -10q19 0 31 14t12 32z" />
    <glyph glyph-name="endash" unicode="&#x2013;" horiz-adv-x="570" 
d="M535 234q2 0 2 2t-2 2h-500q-2 0 -2 -2t2 -2h500z" />
    <glyph glyph-name="emdash" unicode="&#x2014;" horiz-adv-x="1070" 
d="M1035 234q2 0 2 2t-2 2h-1000q-2 0 -2 -2t2 -2h1000z" />
    <glyph glyph-name="quoteleft" unicode="&#x2018;" horiz-adv-x="159" 
d="M134 718q2 0 1 2t-2 1q-20 -6 -38 -23.5t-32 -39.5t-22 -45t-8 -40q0 -27 12 -43t35 -16q19 0 32 13.5t13 33.5q0 14 -6 23.5t-14 15.5q-15 11 -22 23.5t-7 25.5q0 14 8.5 28t23.5 26q10 9 26 15z" />
    <glyph glyph-name="quoteright" unicode="&#x2019;" horiz-adv-x="159" 
d="M127 667q0 27 -12 43t-35 16q-19 0 -32 -13.5t-13 -33.5q0 -14 6 -23.5t14 -15.5q15 -11 22 -23.5t7 -25.5q0 -28 -32 -54q-10 -9 -26 -15q-2 0 -1 -2t2 -1q20 6 38 23.5t32 39.5t22 45t8 40z" />
    <glyph glyph-name="quotesinglbase" unicode="&#x201a;" horiz-adv-x="159" 
d="M127 22q0 27 -12 43t-35 16q-19 0 -32 -13.5t-13 -33.5q0 -14 6 -23.5t14 -15.5q15 -11 22 -23.5t7 -25.5q0 -14 -8.5 -28t-23.5 -26q-10 -9 -26 -15q-2 0 -1 -2t2 -1q20 6 38 23.5t32 39.5t22 45t8 40z" />
    <glyph glyph-name="quotedblleft" unicode="&#x201c;" horiz-adv-x="287" 
d="M261 718q2 0 1 2t-2 1q-20 -6 -38 -23.5t-32 -39.5t-22 -45t-8 -40q0 -27 12 -43t35 -16q19 0 32 13.5t13 33.5q0 14 -6 23.5t-14 15.5q-15 11 -22 23.5t-7 25.5q0 14 8.5 28t23.5 26q10 9 26 15zM134 718q2 0 1 2t-2 1q-20 -6 -38 -23.5t-32 -39.5t-22 -45t-8 -40
q0 -27 12 -43t35 -16q19 0 32 13.5t13 33.5q0 14 -6 23.5t-14 15.5q-15 11 -22 23.5t-7 25.5q0 14 8.5 28t23.5 26q10 9 26 15z" />
    <glyph glyph-name="quotedblright" unicode="&#x201d;" horiz-adv-x="287" 
d="M254 667q0 27 -12 43t-35 16q-19 0 -32 -13.5t-13 -33.5q0 -14 6 -23.5t14 -15.5q15 -11 22 -23.5t7 -25.5q0 -28 -32 -54q-10 -9 -26 -15q-2 0 -1 -2t2 -1q20 6 38 23.5t32 39.5t22 45t8 40zM127 667q0 27 -12 43t-35 16q-19 0 -32 -13.5t-13 -33.5q0 -14 6 -23.5
t14 -15.5q15 -11 22 -23.5t7 -25.5q0 -28 -32 -54q-10 -9 -26 -15q-2 0 -1 -2t2 -1q20 6 38 23.5t32 39.5t22 45t8 40z" />
    <glyph glyph-name="quotedblbase" unicode="&#x201e;" horiz-adv-x="287" 
d="M254 22q0 27 -12 43t-35 16q-19 0 -32 -13.5t-13 -33.5q0 -14 6 -23.5t14 -15.5q15 -11 22 -23.5t7 -25.5q0 -28 -32 -54q-10 -9 -26 -15q-2 0 -1 -2t2 -1q20 6 38 23.5t32 39.5t22 45t8 40zM127 22q0 27 -12 43t-35 16q-19 0 -32 -13.5t-13 -33.5q0 -14 6 -23.5
t14 -15.5q15 -11 22 -23.5t7 -25.5q0 -14 -8.5 -28t-23.5 -26q-10 -9 -26 -15q-2 0 -1 -2t2 -1q20 6 38 23.5t32 39.5t22 45t8 40z" />
    <glyph glyph-name="dagger" unicode="&#x2020;" horiz-adv-x="601" 
d="M575 376q0 14 -11.5 29t-31 27.5t-46 20.5t-55.5 8q-47 0 -72 -13.5t-36 -39.5q0 25 5 50t5 54t-9.5 57t-9.5 44q0 8 4.5 16.5t10.5 18t10.5 22t4.5 27.5q0 22 -12 34.5t-32 12.5q-21 0 -32.5 -12.5t-11.5 -34.5q0 -15 4.5 -27.5t10 -22t10 -18t4.5 -16.5q0 -16 -9.5 -44
t-9.5 -57t5 -54t5 -50q-11 26 -36 39.5t-72 13.5q-29 0 -55.5 -8t-46 -20.5t-31 -27.5t-11.5 -29q0 -17 10.5 -30t26.5 -13q25 0 32 9.5t7 23.5q0 13 -4 20t-4 21q0 13 8.5 22.5t20.5 15.5t25 9t22 3q28 0 49.5 -5t36.5 -18t22.5 -35.5t7.5 -56.5q0 -20 -3.5 -32.5t-8 -19.5
t-10 -10t-9.5 -5q-2 0 -1.5 -2t2.5 -1q16 7 25 -30.5t13.5 -114.5t5 -189.5t0.5 -254.5q0 -2 1 -2q2 0 2 2q0 142 0.5 254.5t5 189.5t13 114.5t25.5 30.5q2 -1 3 1t-1 2q-5 2 -10.5 5t-10 10t-8 19.5t-3.5 32.5q0 34 7.5 56.5t22.5 35.5t36.5 18t49.5 5q9 0 22 -3t25 -9
t20.5 -15.5t8.5 -22.5q0 -14 -4 -21t-4 -20q0 -14 7.5 -23.5t31.5 -9.5q16 0 26.5 13t10.5 30z" />
    <glyph glyph-name="daggerdbl" unicode="&#x2021;" horiz-adv-x="585" 
d="M554 -6q0 19 -10 30t-27 11q-40 0 -40 -31q0 -13 4.5 -19.5t4.5 -20.5q0 -13 -6.5 -22.5t-16 -15.5t-20.5 -9t-20 -3q-53 0 -84 29.5t-31 98.5q0 20 3.5 31.5t8 17.5t10 8t9.5 4q2 0 1.5 2t-2.5 1q-8 -3 -13 -3q-11 0 -17 9t-9 24.5t-4 35.5t-1 41q0 22 1 42t4 35.5
t9 24.5t17 9q5 0 13 -3q2 -1 2.5 0.5t-1.5 2.5q-4 2 -9.5 4t-10 7.5t-8 17t-3.5 31.5q0 69 31 99t84 30q9 0 20 -3t20.5 -9t16 -16t6.5 -23t-4.5 -20t-4.5 -20q0 -30 40 -30q17 0 27 11t10 29q0 14 -9.5 29t-26.5 27.5t-41 20.5t-54 8q-43 0 -70.5 -18.5t-37.5 -48.5
q0 12 1.5 22.5t3.5 20.5t3.5 21t1.5 26q0 14 -3 24.5t-6 18.5t-6 15t-3 15t4.5 17t10 19.5t10 22.5t4.5 25q0 47 -44 47t-44 -47q0 -13 4.5 -25t10 -22.5t10 -19.5t4.5 -17t-3 -15t-6 -15t-6 -18.5t-3 -24.5q0 -15 1.5 -26t3.5 -21t3.5 -20.5t1.5 -22.5q-10 30 -37.5 48.5
t-70.5 18.5q-29 0 -53 -8t-41 -20.5t-26.5 -27.5t-9.5 -29q0 -18 9.5 -29t26.5 -11q40 0 40 30q0 13 -4 20t-4 20t6 23t15.5 16t20.5 9t20 3q53 0 84 -30t31 -99q0 -20 -3 -31.5t-8 -17t-10.5 -7.5t-9.5 -4q-2 -1 -1 -2.5t3 -0.5q6 3 13 3q10 0 16 -9t9 -24.5t4 -35.5t1 -42
q0 -21 -1 -41t-4 -35.5t-9 -24.5t-16 -9q-7 0 -13 3q-2 1 -3 -1t1 -2q4 -2 9.5 -4t10.5 -8t8 -17.5t3 -31.5q0 -69 -31 -98.5t-84 -29.5q-9 0 -20 3t-20.5 9t-15.5 15.5t-6 22.5q0 14 4 20.5t4 19.5q0 31 -40 31q-17 0 -26.5 -11t-9.5 -30q0 -14 9.5 -29t26.5 -27t41 -20
t53 -8q43 0 70.5 18.5t37.5 48.5q0 -12 -1.5 -22.5t-3.5 -20.5t-3.5 -21.5t-1.5 -25.5t3 -24.5t6 -18.5t6 -15t3 -15t-4.5 -17t-10 -19.5t-10 -22.5t-4.5 -25q0 -47 44 -47t44 47q0 13 -4.5 25t-10 22.5t-10 19.5t-4.5 17t3 15t6 15t6 18.5t3 24.5t-1.5 25.5t-3.5 21.5
t-3.5 20.5t-1.5 22.5q10 -30 37.5 -48.5t70.5 -18.5q30 0 54 8t41 20t26.5 27t9.5 29z" />
    <glyph glyph-name="bullet" unicode="&#x2022;" horiz-adv-x="309" 
d="M259 354q0 22 -8 41t-22.5 33t-33.5 22.5t-40 8.5q-22 0 -41 -8.5t-33.5 -22.5t-22.5 -33t-8 -41q0 -21 8 -40t22.5 -33.5t33.5 -22.5t41 -8q21 0 40 8t33.5 22.5t22.5 33.5t8 40z" />
    <glyph glyph-name="ellipsis" unicode="&#x2026;" horiz-adv-x="577" 
d="M527 34q0 20 -13 33.5t-32 13.5q-18 0 -31 -13.5t-13 -33.5t13 -33.5t31 -13.5q19 0 32 13.5t13 33.5zM333 34q0 20 -13 33.5t-32 13.5q-18 0 -31 -13.5t-13 -33.5t13 -33.5t31 -13.5q19 0 32 13.5t13 33.5zM139 34q0 20 -13 33.5t-32 13.5q-18 0 -31 -13.5t-13 -33.5
t13 -33.5t31 -13.5q19 0 32 13.5t13 33.5z" />
    <glyph glyph-name="perthousand" unicode="&#x2030;" horiz-adv-x="1107" 
d="M1072 220q0 60 -34 93t-86 33q-50 0 -92.5 -21.5t-74 -54.5t-49 -73.5t-17.5 -79.5q0 -60 34 -93t87 -33q50 0 92.5 21.5t73.5 54.5t48.5 73.5t17.5 79.5zM387 587q0 60 -34 93t-86 33q-50 0 -92.5 -21.5t-73.5 -54.5t-48.5 -73.5t-17.5 -79.5q0 -60 34 -93t86 -33
q50 0 92.5 21.5t73.5 54.5t48.5 73.5t17.5 79.5zM590 725q1 2 -1 3.5t-3 -0.5l-453 -749q-1 -2 1 -3.5t3 0.5zM688 220q0 60 -34 93t-86 33q-50 0 -92.5 -21.5t-74 -54.5t-49 -73.5t-17.5 -79.5q0 -60 34 -93t87 -33q50 0 92.5 21.5t73.5 54.5t48.5 73.5t17.5 79.5z
M1012 274q0 -23 -5.5 -60t-17.5 -76.5t-31 -74t-46 -50.5q-17 -11 -34.5 -14.5t-37.5 -3.5q-34 0 -47 16t-13 52q0 22 5.5 59.5t17.5 77t31 73.5t45 51q17 11 35 14.5t38 3.5q34 0 47 -16t13 -52zM327 641q0 -23 -5.5 -60t-17.5 -76.5t-31 -74t-46 -50.5
q-17 -11 -34.5 -14.5t-37.5 -3.5q-34 0 -47 16t-13 52q0 22 5.5 59.5t17.5 77t31 73.5t46 51q17 11 34.5 14.5t37.5 3.5q34 0 47 -16t13 -52zM628 274q0 -23 -5.5 -60t-17.5 -76.5t-31 -74t-46 -50.5q-17 -11 -34.5 -14.5t-37.5 -3.5q-34 0 -47 16t-13 52q0 22 5.5 59.5
t17.5 77t31 73.5t45 51q17 11 35 14.5t38 3.5q34 0 47 -16t13 -52z" />
    <glyph glyph-name="guilsinglleft" unicode="&#x2039;" horiz-adv-x="227" 
d="M190 50q0 24 -8.5 48t-21 46t-26.5 39.5t-25 28.5q11 10 25 28t26.5 40t21 46.5t8.5 48.5q0 3 -4 3q-3 0 -3 -3q0 -30 -18.5 -56.5t-42.5 -48t-48 -36.5t-34 -20q-4 -2 0 -4q10 -5 34 -19.5t48 -36t42.5 -48t18.5 -56.5q0 -3 3 -3q4 0 4 3z" />
    <glyph glyph-name="guilsinglright" unicode="&#x203a;" horiz-adv-x="227" 
d="M187 210q4 2 0 4q-11 5 -34.5 20t-47.5 36.5t-42.5 48t-18.5 56.5q0 3 -4 3q-3 0 -3 -3q0 -24 8.5 -48.5t21 -46.5t26.5 -40t25 -28q-11 -11 -25 -28.5t-26.5 -39.5t-21 -46t-8.5 -48q0 -3 3 -3q4 0 4 3q0 30 18.5 56.5t42.5 48t47.5 36t34.5 19.5z" />
    <glyph glyph-name="trademark" unicode="&#x2122;" horiz-adv-x="378" 
d="M366 565q1 0 1 1q0 2 -1 2h-20h-1v1v136h1h20q1 0 1 2t-1 2h-44l-1 -0.5t-2 -2.5l-42 -111l-42 111q-2 3 -4 3h-46v-4h20h2v-136l-0.5 -0.5t-1.5 -0.5h-20v-3h48v3h-21h-1v1v130l56 -137v-1q1 0 1 1l53 135v-128l-0.5 -0.5t-1.5 -0.5h-20v-3h67zM158 666v43h-1h-132h-1
v-43q0 -1 2 -1t2 1q0 17 9 28t34 11h6h1v-136v-1h-1h-20q-1 0 -1 -2q0 -1 1 -1h67v3h-20q-1 0 -1.5 0.5l-0.5 0.5v136h2h6q25 0 34.5 -11t9.5 -28q0 -1 2 -1t2 1z" />
    <glyph glyph-name="minus" unicode="&#x2212;" horiz-adv-x="420" 
d="M370 211q2 0 2 2t-2 2h-320q-2 0 -2 -2t2 -2h320z" />
    <glyph glyph-name="fraction" unicode="&#x2215;" horiz-adv-x="543" 
d="M500 726q1 1 -1 2.5t-3 -0.5l-453 -749q-1 -2 1 -3.5t3 0.5z" />
    <glyph glyph-name="radical" unicode="&#x221a;" horiz-adv-x="723" 
d="M714 0q2 0 2 2t-2 2h-55q-6 0 -6 4v733q0 3 -3 3q-5 0 -14 -3t-18.5 -6t-18.5 -6t-12 -3q-8 0 -23 9t-46 9q-37 0 -71.5 -15t-60.5 -53q-17 32 -44.5 46.5t-60.5 14.5q-47 0 -81 -15.5t-56 -49.5t-33 -89t-11 -134v-19q0 -4 -7 -4h-69q-2 0 -2 -2t2 -2h69q7 0 7 -4v-410
q0 -4 -7 -4h-55q-2 0 -2 -2t2 -2h202q2 0 2 2t-2 2h-55q-7 0 -7 4v410q0 4 7 4h145q7 0 7 -4v-410q0 -4 -7 -4h-54q-2 0 -2 -2t2 -2h201q2 0 2 2t-2 2h-55q-6 0 -6 4v410q0 4 6 4h152v-414q0 -4 -6 -4h-55q-2 0 -2 -2t2 -2h201zM574 426h-152q-6 0 -6 4v190q0 33 8.5 55.5
t22.5 36.5t32.5 20t38.5 6t38 -6.5t18 -14.5v-291zM383 670q-21 -34 -33.5 -87.5t-12.5 -133.5v-19q0 -4 -7 -4h-145q-7 0 -7 4v183q0 65 28 91.5t75 26.5q32 0 58.5 -15.5t43.5 -45.5z" />
    <glyph glyph-name="approxequal" unicode="&#x2248;" horiz-adv-x="733" 
d="M714 0q2 0 2 2t-2 2h-55q-6 0 -6 4v415q0 3 -3 3h-228q-6 0 -6 4v190q0 65 27 91.5t65 26.5q44 0 62 -18.5t18 -45.5q0 -10 -2.5 -17t-6 -13.5t-6 -12.5t-2.5 -15q0 -14 10.5 -24.5t33.5 -10.5q20 0 32.5 14.5t12.5 33.5q0 21 -9.5 41.5t-27 37t-41.5 26.5t-54 10
q-51 0 -86.5 -15t-58.5 -48q-17 29 -44 42.5t-58 13.5q-47 0 -81 -15.5t-56 -49.5t-33 -89t-11 -134v-19q0 -4 -7 -4h-69q-2 0 -2 -2t2 -2h69q7 0 7 -4v-410q0 -4 -7 -4h-55q-2 0 -2 -2t2 -2h202q2 0 2 2t-2 2h-55q-7 0 -7 4v410q0 4 7 4h145q7 0 7 -4v-410q0 -4 -7 -4h-54
q-2 0 -2 -2t2 -2h201q2 0 2 2t-2 2h-55q-6 0 -6 4v410q0 4 6 4h146q6 0 6 -4v-410q0 -4 -6 -4h-55q-2 0 -2 -2t2 -2h201zM379 676q-42 -67 -42 -227v-19q0 -4 -7 -4h-145q-7 0 -7 4v183q0 65 28 91.5t75 26.5q33 0 57.5 -14.5t40.5 -40.5z" />
    <glyph glyph-name="apple" unicode="&#xf8ff;" horiz-adv-x="967" 
d="M867 0v750h-767v-750h767zM820 520q0 -1 -1 -1v0q-4 0 -6 0.5t-7 0.5t-7 -0.5t-7 -0.5q-1 0 -1 1v1v1q7 1 7 5q0 3 -1 4l-3 15h-25l4 -15q0 -4 1 -5.5t8 -3.5v-2v-1q-4 0 -5.5 0.5t-6.5 0.5t-7.5 -0.5t-7.5 -0.5q-1 0 -1 1v1v1q8 1 8 5q0 3 -1 4l-7 33l-3 6t-8 3v2v1
q4 0 6.5 -0.5t6.5 -0.5q5 0 7 0.5t7 0.5q1 0 1 -2v-1q-7 -1 -7 -5v-4l4 -14h25l-3 14l-3 6t-6 3q-1 0 -1 2v1q4 0 6 -0.5t7 -0.5q4 0 7 0.5t7 0.5q2 0 2 -2q0 -1 -1 -1q-8 -1 -8 -5q0 -3 1 -4l8 -33q1 -4 2 -5.5t7 -3.5q2 0 2 -2zM559 686h-2q-3 9 -11 9q-3 0 -3 -3v-22
q0 -5 5 -6q1 0 1 -1t-1 -1h-8h-9q-1 0 -1 1t1 1q5 1 5 6v22q0 3 -3 3q-5 0 -6 -2t-3 -7h-1h-1q1 4 1.5 6.5t0.5 5.5q2 -1 4 -1h12h11t4 1q2 -3 2 -6q0 -2 2 -6zM694 540q0 -12 -7.5 -17t-14.5 -5q-14 0 -25 11t-11 27q0 12 7.5 17t14.5 5q14 0 25 -11.5t11 -26.5zM503 662
h-9h-9v1v1q5 1 5 6v9h-17v-9q0 -5 5 -6v-1v-1h-9h-8q-1 0 -1 1t1 1q5 1 5 6v19q0 6 -5 6q-1 0 -1 1t1 1h8h9v-1v-1q-5 0 -5 -6v-8h17v8q0 6 -5 6v1v1h9h9v-1v-1q-5 0 -5.5 -1.5t-0.5 -4.5v-19q0 -3 0.5 -4t5.5 -2v-1v-1zM825 378h-36v28h-11v-65h14v-33h-81v33h14v65h-11
v-28h-36v62h147v-62zM587 536q0 -8 -6.5 -13t-17.5 -5q-16 0 -16 13q0 10 9 10q7 0 7 -5t-4 -5q-2 0 -3 1t-2 1q-3 0 -3 -3q0 -9 12 -9t12 14q0 10 -6 15q-5 -5 -11 -5q-8 0 -8 6t8 6h8q2 2 2 6q0 12 -10 12q-7 0 -7 -6q0 -2 1.5 -2.5t1.5 -3.5t-4 -3q-5 0 -5 6q0 5 3.5 8.5
t9.5 3.5q9 0 14.5 -5t5.5 -10t-4 -9q13 -7 13 -18zM826 619h-685v4h685v-4zM439 663q0 -1 -1 -1v0h-16h-12q-1 3 -2 5.5t-2 5.5v0q0 1 1 1q4 -9 12 -9h3q4 0 4 3v12h-4q-6 0 -6 -6v-1h-1h-1v1v6v6q0 1 1 1t1 -1q0 -5 6 -5h4v10q0 4 -4 4h-3q-6 0 -9 -8v-1q-1 0 -1.5 0.5
l-0.5 0.5q2 4 2 10h12h16v0q1 0 1 -1t-1 -1v0q-5 0 -5 -6v-19q0 -5 5 -6v0q1 0 1 -1zM497 520v-1q-5 0 -7 0.5t-7 0.5q-4 0 -7 -0.5t-7 -0.5q-1 0 -1.5 1l-0.5 1v1h1q8 1 8 5q0 3 -1 4l-3 16h-5q-9 0 -8 -11h-1h-2q-1 4 -1 6q0 3 -1 6q-1 4 -1.5 5.5t-1.5 5.5v1h1q2 0 2 -1
q2 -6 4.5 -7.5t7.5 -1.5h4l-3 16q-1 6 -6 6h-4q-13 0 -14 -13q0 -1 -1 -1q-2 0 -2 1q0 3 0.5 5.5t0.5 4.5q0 5 -1 7q5 0 10 -0.5t10 -0.5t13.5 0.5t11.5 0.5l0.5 -0.5t0.5 -1.5t-1 -1q-7 -1 -7 -5q0 -3 1 -4l7 -33q2 -4 3 -5.5t7 -3.5q1 0 1 -2zM823 173q0 -1 -0.5 -1.5
l-0.5 -0.5q-4 0 -6 0.5t-7 0.5t-7.5 -0.5t-7.5 -0.5q-1 0 -1 1v1v2q8 1 8 5q0 1 -0.5 1.5t-0.5 2.5l-3 15h-5q-9 0 -8 -11h-1h-1q-2 4 -2 7t-1 5q-1 4 -1.5 5.5t-1.5 6.5h2h1q2 -7 4.5 -8t7.5 -1h5l-4 15q-1 6 -6 6h-4q-11 0 -14 -13v-1h-1t-1.5 0.5t0.5 0.5v11v6h19h25
q2 0 2 -2l-1 -1q-8 -1 -8 -5v-4l9 -32q1 -5 2 -6.5t7 -2.5q1 0 1.5 -1zM826 476h-685v4h685v-4zM644 406h-14l-37 -45v-20h15v-33h-81v33h14v19l-37 46h-12v34h62v-34h-10l15 -23l15 23h-11v34h81v-34zM399 521q0 -3 -4 -3q-7 0 -12 7q-8 0 -11 -6t-16 -6t-13 11q0 6 5 6
t5 -4q0 -2 -1 -2.5t-1 -2.5q0 -4 5 -4q7 0 8.5 6.5t12.5 6.5q-5 6 -7 14t-3 14.5t-2.5 11.5t-6.5 5t-5 -6t-4 -6q-5 0 -5 5q0 3 4 6.5t9 3.5q10 0 14.5 -6t6.5 -13.5t3.5 -16t4.5 -12.5q7 -1 10 -4t3 -5zM725 192q0 -12 -7.5 -17t-14.5 -5q-13 0 -24 11.5t-11 26.5
q0 12 7 17t14 5q14 0 25 -11.5t11 -26.5zM292 536q0 -8 -6 -13t-17 -5q-17 0 -17 13q0 10 9 10q8 0 8 -5t-5 -5q-2 0 -3 1t-2 1q-2 0 -2 -3q0 -9 12 -9q5 0 8.5 3t3.5 11q0 9 -6 15q-5 -5 -12 -5t-7 6t7 6h9q0 1 0.5 2t0.5 4q0 12 -10 12q-6 0 -6 -6q0 -2 1.5 -2.5t1.5 -3.5
t-5 -3t-5 6q0 5 4 8.5t9 3.5q9 0 14.5 -5t5.5 -10t-4 -9q13 -7 13 -18zM620 225q-9 -1 -9 -5q0 -1 0.5 -1.5t0.5 -2.5l5 -22q2 -6 2 -8q0 -5 -4.5 -10.5t-16.5 -5.5q-14 0 -19 9t-7 17l-5 20q-1 5 -2.5 6.5t-8.5 2.5q-1 0 -1 1v1v1h11h12v-1v-2q-8 -1 -8 -5q0 -1 0.5 -1.5
t0.5 -2.5l4 -19q2 -9 7 -15.5t13 -6.5q13 0 13 10q0 2 -2 10l-5 21q-1 5 -2 6.5t-8 2.5q-1 0 -1 1v1v1h14h15q1 0 1 -2v-1zM455 308h-81v33h15v19h-30q-22 0 -34.5 11.5t-12.5 28.5t12.5 28.5t34.5 11.5h96v-34h-14v-65h14v-33zM826 272h-685v4h685v-4zM694 47h-8h-6
q-1 0 -1 1v0q0 1 1 1q5 0 5 5l-1 19l-25 -27h-1h-2v28q0 2 -0.5 3.5t-5.5 1.5v2v1q2 0 3.5 -0.5t3.5 -0.5t4 0.5t4 0.5v-1v-2q-5 0 -5.5 -1.5t-0.5 -3.5v-17l24 25q2 0 2.5 -0.5t2.5 -0.5t2.5 0.5t2.5 0.5v-1v-2q-6 0 -6 -5l1 -20q0 -5 6 -5v-1v-1zM203 520q0 -1 -1 -1
q-4 0 -6.5 0.5t-6.5 0.5q-5 0 -8 -0.5t-7 -0.5q-1 0 -1 1v1v1q8 1 8 5v4l-4 14q-4 0 -5 -3l-12 -23q-6 0 -10.5 -0.5t-7.5 -0.5q-2 0 -2 1q0 2 1 2q9 1 14 9l8 16q-7 2 -13 6.5t-6 10.5q0 13 20 13q5 0 7.5 -0.5t6.5 -0.5t6 0.5t7 0.5v-2v-1q-8 -1 -8 -5q0 -3 1 -4l7 -33
q2 -4 3 -5.5t8 -3.5l0.5 -0.5t0.5 -1.5zM522 173q0 -2 -1 -2q-2 0 -4 0.5t-5 0.5q-4 0 -7 -0.5t-5 -0.5l-1 2q0 2 1 2q8 1 6 9l-5 30l-31 -44h-2q-1 0 -1 1l-8 45q-2 8 -10 9v2v1q3 0 5 -0.5t5 -0.5q4 0 6.5 0.5t4.5 0.5t2 -2v-1h-1q-9 -1 -7 -9l4 -28l30 40h9h5q2 0 2 -2
v-1h-1q-9 -1 -9 -6q0 -2 1 -3l7 -32q0 -8 9 -9zM632 46q-3 1 -8 1h-9q-8 0 -12 -1q-1 7 -4 11q0 1 1 1h1q3 -9 12 -9h2q4 0 4 4v11h-4q-2 0 -3.5 -0.5t-2.5 -5.5h-1v6v7v1q1 0 1 -1v0q1 -5 6 -5h4v9q0 4 -4 4h-2q-8 0 -10 -7q0 -1 -1 -1v1q0 3 0.5 5t1.5 5q3 0 5.5 -0.5
t6.5 -0.5q3 0 8 0.5t8 0.5v-1v-2q-5 0 -5.5 -1.5t-0.5 -3.5v-20q0 -2 0.5 -3.5t5.5 -1.5v-1v-2zM582 81q0 -2 -1 -2q-2 0 -6 -6l-12 -27h-1l-9 15l-7 -15h-1h-1l-12 27q-2 3 -2.5 4.5t-3.5 1.5v2v1q2 0 2.5 -0.5t2.5 -0.5t3 0.5t3 0.5q1 0 1 -1v0q0 -2 -1 -2q-2 0 -2 -3v-3
l8 -18l7 13l-3 5q-3 6 -7 6q-1 0 -1 2v1q2 0 3.5 -0.5t3.5 -0.5t2.5 0.5t2.5 0.5q3 0 4 -0.5t3 -0.5q3 0 3.5 0.5t3.5 0.5l1 -1q0 -1 -0.5 -1.5l-0.5 -0.5q-5 0 -6 -6l-5 -9l6 -9l9 19v2q0 3 -2 3v2v1q3 0 4.5 -0.5t3.5 -0.5t3 0.5t4 0.5v-1zM826 128h-685v4h685v-4z
M277 308h-141v61h41v-28h33v21h-24v24h24v20h-33v-28h-41v62h141v-34h-14v-65h14v-33zM413 171q-3 1 -8 1h-9h-15q-13 0 -24 9t-11 25q0 11 8 17t17 6q3 0 6.5 -0.5t8.5 -0.5h15v-2v-1q-7 -1 -7 -5v-4l8 -32q1 -5 2 -6.5t8 -2.5q1 0 1 -1v-1v-2zM479 81v-2q-5 0 -7 -5
l-8 -12v-8q0 -5 5 -5q1 0 1 -1v0q0 -2 -1 -2q-2 0 -4 0.5t-4 0.5q-4 0 -5.5 -0.5t-3.5 -0.5v2v1q5 0 5 5v8l-8 12q-4 5 -8 5v2v1q2 0 3 -0.5t3 -0.5t4 0.5t4 0.5v-1v-2q-4 0 -4 -3v-1l1 -1l6 -9l6 9q1 1 1 3t-2 2q-1 0 -1 2v0q0 1 1 1q2 0 3.5 -0.5t4.5 -0.5t4.5 0.5
t3.5 0.5v-1zM306 173q0 -1 -0.5 -1.5l-0.5 -0.5q-4 0 -6 0.5t-7 0.5t-7.5 -0.5t-7.5 -0.5l-1 2q0 2 1 2q7 1 7 5v4l-3 13q-4 0 -6 -3l-12 -22q-6 0 -10 -0.5t-8 -1.5h-1v2q0 1 1 1q9 3 12 10l9 16q-7 1 -12.5 6t-5.5 11q0 12 19 12h14h12q2 0 2 -2v-1h-1q-7 -1 -7 -5v-4
l8 -32q1 -5 2 -6.5t8 -2.5zM424 64q0 -8 -5.5 -13t-14.5 -5t-14 5t-5 13t5 13t14 5t14.5 -5t5.5 -13zM364 48q0 -2 -1 -2q-2 0 -3.5 0.5t-5.5 0.5q-3 0 -4.5 -0.5t-3.5 -0.5q-1 0 -1 2v0q0 1 1 1q5 0 5 5v9q-3 0 -4 -1t-3 -4l-6 -11h-6h-6v1v1q5 0 7 4l8 11q-8 3 -8 9
q0 9 12 9q3 0 4.5 -0.5t4.5 -0.5t5 0.5t4 0.5q1 0 1 -1v0q0 -2 -1 -2q-5 0 -5 -5v-20q0 -5 5 -5q1 0 1 -1v0zM202 215h-2l-4.5 4.5t-7.5 2.5q-9 0 -9 -13q0 -8 3 -17l2 -8q1 -5 2 -6.5t8 -2.5l1 -2q0 -1 -0.5 -1.5l-0.5 -0.5q-4 0 -6 0.5t-6 0.5q-5 0 -7.5 -0.5t-7.5 -0.5
q-1 0 -1 1v1v2q7 1 7 5v4l-1 6q-4 14 -9 23.5t-15 9.5q-8 0 -8 -6h-3v1q0 5 2 8.5t7 3.5q8 0 14.5 -6.5t9.5 -16.5v5q0 18 14 18q8 0 11.5 -4t6.5 -9q2 0 0 -2zM308 46q-2 0 -4 0.5t-5 0.5t-4.5 -0.5t-4.5 -0.5v2v1q5 0 5.5 1.5t0.5 3.5v9q-2 0 -4 -2l-7 -8q-1 -1 -1 -2
q0 -2 3 -2v-1v-2q-3 0 -5.5 0.5t-4.5 0.5q-3 0 -4.5 -0.5t-3.5 -0.5q-1 0 -1 2l1 1q3 0 7 4l13 13l-9 9l-3 3t-5 1v2v1q2 0 3 -0.5t3 -0.5t3.5 0.5t3.5 0.5v-1v-2q-3 0 -3 -1t2 -3l8 -8q1 -3 4 -3v10q0 2 -0.5 3.5t-5.5 1.5v2v1q3 0 4.5 -0.5t4.5 -0.5t5 0.5t4 0.5v-1v-2
q-6 0 -6 -5v-20q0 -5 6 -5v-1v-2zM683 535q0 16 -7.5 28t-16.5 12q-12 0 -12 -15t7.5 -27t16.5 -12q12 0 12 14zM565 553q-2 1 -7 1q-4 0 -4 -3q0 -2 4 -2t7 4zM713 188q0 15 -6.5 27t-17.5 12q-10 0 -10 -14q0 -16 6.5 -28t17.5 -12q10 0 10 15zM270 553q-2 1 -7 1
q-3 0 -3 -3q0 -2 3 -2q4 0 7 4zM389 384v22h-11q-13 0 -13 -11t13 -11h11zM176 548l-3 18q-2 6 -9 6q-8 0 -8 -9q0 -5 3 -10t12 -5h5zM554 77q0 2 -3 2q-2 0 -2 -3l0.5 -1.5t1.5 -3.5q3 4 3 6zM392 182l-9 36q-2 5 -3 5.5t-3 0.5l-6 1q-14 0 -14 -18q0 -12 7.5 -21.5
t18.5 -9.5h5q2 0 3 0.5t1 5.5zM280 201l-5 17q0 7 -7 7q-8 0 -8 -10q0 -5 3 -9.5t12 -4.5h5zM416 64q0 7 -2.5 12t-9.5 5q-6 0 -9 -5t-3 -12q0 -16 12 -16t12 16zM351 65v10q0 4 -4 4q-7 0 -7 -6q0 -8 8 -8h3z" />
    <glyph glyph-name="fi" unicode="&#xfb01;" horiz-adv-x="496" 
d="M477 0q2 0 2 2t-2 2h-55q-6 0 -6 4v415q0 3 -3 3h-228q-6 0 -6 4v190q0 65 27 91.5t64 26.5q45 0 63 -18.5t18 -45.5q0 -10 -2.5 -17t-6 -13t-6 -12.5t-2.5 -14.5q0 -15 10.5 -25.5t33.5 -10.5q20 0 32 14.5t12 33.5q0 21 -9.5 41.5t-27 37t-41.5 26.5t-53 10
q-51 0 -87 -15t-59.5 -50t-34 -91.5t-10.5 -138.5v-19q0 -4 -7 -4h-69q-2 0 -2 -2t2 -2h69q7 0 7 -4v-410q0 -4 -7 -4h-55q-2 0 -2 -2t2 -2h202q2 0 2 2t-2 2h-55q-6 0 -6 4v410q0 4 6 4h146q6 0 6 -4v-410q0 -4 -6 -4h-55q-2 0 -2 -2t2 -2h201z" />
    <glyph glyph-name="fl" unicode="&#xfb02;" horiz-adv-x="486" 
d="M477 0q2 0 2 2t-2 2h-55q-6 0 -6 4v733q0 3 -3 3q-5 0 -14 -3t-19 -6t-18.5 -6t-12.5 -3q-7 0 -22 9t-46 9q-35 0 -67.5 -12.5t-57.5 -45.5t-40.5 -90t-15.5 -147v-19q0 -4 -7 -4h-69q-2 0 -2 -2t2 -2h69q7 0 7 -4v-410q0 -4 -7 -4h-55q-2 0 -2 -2t2 -2h202q2 0 2 2t-2 2
h-55q-6 0 -6 4v410q0 4 6 4h152v-414q0 -4 -6 -4h-55q-2 0 -2 -2t2 -2h201zM337 426h-152q-6 0 -6 4v190q0 33 8.5 55.5t22.5 36.5t32.5 20t38.5 6t38 -6.5t18 -14.5v-291z" />
    </font>
</defs>
</svg>
