<?xml version="1.0" standalone="no"?>
<!DOCTYPE svg PUBLIC "-//W3C//DTD SVG 1.1//EN" "http://www.w3.org/Graphics/SVG/1.1/DTD/svg11.dtd" >
<svg xmlns="http://www.w3.org/2000/svg" xmlns:xlink="http://www.w3.org/1999/xlink" version="1.1">
<metadata>
Created by FontForge 20170731 at Sun Jan 22 10:58:46 2006
 By Aleksey,,,
HTF Didot   1992 The Hoefler Type Foundry, Inc. This typeface and the digital software that describes it are the exclusive property of HTF. Jacquard is a trademark of HTF.
</metadata>
<defs>
<font id="Didot-HTF-B16-Bold" horiz-adv-x="649" >
  <font-face 
    font-family="Didot"
    font-weight="700"
    font-stretch="normal"
    units-per-em="1000"
    panose-1="2 0 8 3 2 0 0 2 0 4"
    ascent="800"
    descent="-200"
    x-height="426"
    cap-height="709"
    bbox="-109 -319 1049 973"
    underline-thickness="20"
    underline-position="-163"
    unicode-range="U+0020-FB02"
  />
<missing-glyph horiz-adv-x="500" 
 />
    <glyph glyph-name=".notdef" horiz-adv-x="500" 
 />
    <glyph glyph-name=".null" horiz-adv-x="0" 
 />
    <glyph glyph-name="nonmarkingreturn" horiz-adv-x="170" 
 />
    <glyph glyph-name="space" unicode=" " horiz-adv-x="170" 
 />
    <glyph glyph-name="space" unicode="&#xa0;" horiz-adv-x="170" 
 />
    <glyph glyph-name="exclam" unicode="!" horiz-adv-x="234" 
d="M185 643q0 24 -6 40t-15.5 25.5t-21.5 13.5t-25 4t-25 -4t-21.5 -13.5t-15.5 -25.5t-6 -40q0 -33 9.5 -85t21 -115t21 -131.5t9.5 -134.5q0 -2 7 -2t7 2q0 66 9.5 134.5t21 131.5t21 115t9.5 85zM179 52q0 26 -18 45.5t-44 19.5t-44.5 -19.5t-18.5 -45.5t18.5 -45.5
t44.5 -19.5t44 19.5t18 45.5z" />
    <glyph glyph-name="quotedbl" unicode="&#x22;" horiz-adv-x="319" 
d="M272 673q0 8 -2 17t-6.5 17t-12 13.5t-19.5 5.5t-19.5 -5.5t-12 -13.5t-6.5 -17t-2 -17q0 -38 12 -87t20 -98l1 -11q1 -2 7 -2t7 2v11q8 50 20.5 98.5t12.5 86.5zM128 673q0 8 -2 17t-6.5 17t-12 13.5t-19.5 5.5t-19.5 -5.5t-12 -13.5t-6.5 -17t-2 -17q0 -38 12.5 -86.5
t20.5 -98.5l1 -11q1 -2 6 -2q6 0 7 2l1 11q4 25 9.5 49.5t10.5 48.5t8.5 46t3.5 41z" />
    <glyph glyph-name="numbersign" unicode="#" horiz-adv-x="464" 
d="M449 297q2 0 2 8t-2 8h-111l42 154q1 2 -6 3t-8 -1l-44 -156h-121l42 154q1 2 -6 3t-8 -1l-44 -156h-106q-2 0 -2 -8t2 -8h102l-41 -155h-109q-2 0 -2 -8t2 -8h104l-47 -167q0 -2 7.5 -3t8.5 1l46 169h122l-46 -167q-1 -2 6.5 -3t7.5 1l48 169h115q2 0 2 8t-2 8h-111
l42 155h115zM319 297l-42 -155h-122l42 155h122z" />
    <glyph glyph-name="dollar" unicode="$" horiz-adv-x="561" 
d="M513 226q0 40 -12 70.5t-34.5 54.5t-55.5 42.5t-75 34.5v278q42 -10 58 -31.5t16 -34.5q0 -15 -6 -21.5t-12.5 -13t-12.5 -15.5t-6 -28q0 -26 18 -46t44 -20q12 0 23.5 5.5t21.5 15.5t16 24t6 32q0 27 -15.5 51.5t-39.5 44t-53.5 33t-57.5 19.5v90q0 2 -8 2t-8 -2v-87
q-8 2 -16.5 2.5t-16.5 0.5q-11 0 -21.5 -0.5t-21.5 -3.5v88q0 2 -8 2t-8 -2v-91q-35 -7 -64.5 -26.5t-51.5 -49t-34.5 -66t-12.5 -78.5q0 -47 14 -80t37.5 -56.5t52.5 -39t59 -26.5v-295q-32 4 -50 12.5t-28 19t-12.5 21t-2.5 18.5q0 15 6 22t13.5 13.5t14 16t6.5 28.5
q0 28 -18.5 47t-44.5 19q-12 0 -23.5 -5t-21.5 -15t-16 -24.5t-6 -32.5q0 -27 15 -53t40.5 -47.5t58.5 -36.5t69 -19v-87q0 -2 8 -2t8 2v85q9 -1 16 -1.5t15 -0.5q13 0 23.5 1t21.5 3v-87q0 -2 8 -2t8 2v92q42 8 74.5 31t55.5 55t35 70.5t12 77.5zM320 435q-20 6 -39.5 14
t-36.5 16v242q19 4 44 4q18 0 32 -3v-273zM228 472q-51 26 -71 56.5t-20 68.5q0 84 91 108v-233zM441 116q0 -35 -26 -66.5t-79 -42.5v250q52 -23 78.5 -56.5t26.5 -84.5zM320 3q-11 -2 -22 -3t-24 -1q-8 0 -15.5 0.5t-14.5 0.5v292q23 -8 41 -15t35 -15v-259z" />
    <glyph glyph-name="percent" unicode="%" horiz-adv-x="707" 
d="M373 587q0 60 -32.5 93t-82.5 33q-48 0 -89 -21.5t-71 -54.5t-47 -73.5t-17 -79.5q0 -60 33 -93t83 -33q48 0 89 21.5t70.5 54.5t46.5 73.5t17 79.5zM579 726q1 1 -6.5 5.5t-8.5 2.5l-434 -749q-1 -2 5.5 -6.5t7.5 -2.5zM672 220q0 60 -32.5 93t-82.5 33
q-48 0 -88.5 -21.5t-70.5 -54.5t-47 -73.5t-17 -79.5q0 -60 32.5 -93t82.5 -33q48 0 89 21.5t70.5 54.5t46.5 73.5t17 79.5zM302 629q0 -23 -7.5 -56.5t-20.5 -68t-30.5 -65.5t-36.5 -47q-14 -11 -26.5 -14.5t-26.5 -3.5q-25 0 -34.5 16t-9.5 52q0 22 7.5 56t20.5 68.5
t30 65t37 47.5q13 11 26.5 14.5t27.5 3.5q25 0 34 -16t9 -52zM602 262q0 -23 -7.5 -56.5t-20.5 -68t-30.5 -65.5t-37.5 -47q-12 -11 -25.5 -14.5t-27.5 -3.5q-25 0 -34.5 16t-9.5 52q0 22 7.5 56t20.5 68.5t30 65t37 47.5q14 11 26.5 14.5t27.5 3.5q24 0 34 -16t10 -52z" />
    <glyph glyph-name="ampersand" unicode="&#x26;" horiz-adv-x="718" 
d="M718 377q2 0 2 8t-2 8h-252q-2 0 -2 -8t2 -8h39q41 0 60.5 -16.5t14.5 -58.5q-5 -48 -15.5 -90.5t-31.5 -79.5q-29 43 -57 87t-53.5 89t-46.5 91t-36 92q54 29 77 68.5t23 75.5q0 43 -23.5 67t-80.5 24q-31 0 -57.5 -13t-46 -37.5t-30.5 -59.5t-11 -78q0 -22 5 -46.5
t13 -50.5q-83 -52 -125 -113t-42 -139q0 -45 17 -83t47 -65.5t72 -42.5t92 -15q94 0 174 49q55 -48 113 -48q22 0 45 5.5t43.5 15.5t37 25t24.5 35q1 2 -4.5 6.5t-6.5 2.5q-13 -35 -44 -45q-8 -3 -16 -3q-22 0 -36.5 14t-33.5 40q-4 6 -6.5 10.5t-4.5 8t-5 7.5t-7 10
q39 74 53 186q5 42 23.5 58.5t56.5 16.5h42zM425 635q0 -37 -22 -69.5t-68 -58.5q-10 31 -15.5 59.5t-5.5 54.5q0 45 12.5 65t40.5 20q26 0 42 -18.5t16 -52.5zM432 44q-17 -8 -29.5 -9.5t-29.5 -1.5q-57 0 -99.5 22t-70 57t-41 78t-13.5 85q0 50 15.5 89t48.5 65
q13 -40 32.5 -80.5t42 -81t46.5 -79.5t47 -75q15 -24 25.5 -39t25.5 -30z" />
    <glyph glyph-name="quotesingle" unicode="'" horiz-adv-x="176" 
d="M128 673q0 8 -2 17t-6.5 17t-12 13.5t-19.5 5.5t-19.5 -5.5t-12 -13.5t-6.5 -17t-2 -17q0 -38 12.5 -86.5t20.5 -98.5l1 -11q1 -2 6 -2q6 0 7 2l1 11q4 25 9.5 49.5t10.5 48.5t8.5 46t3.5 41z" />
    <glyph glyph-name="parenleft" unicode="(" horiz-adv-x="283" 
d="M305 -234q-34 22 -59.5 54t-42 86t-25 136t-8.5 205t8.5 204.5t25 135.5t42 86t59.5 55q2 1 -3.5 6t-7.5 4q-112 -79 -172.5 -205.5t-60.5 -285.5t60.5 -285.5t172.5 -205.5q2 -1 7.5 3.5t3.5 6.5z" />
    <glyph glyph-name="parenright" unicode=")" horiz-adv-x="283" 
d="M220 247q0 159 -60.5 285.5t-172.5 205.5q-2 1 -7.5 -4t-3.5 -6q34 -23 59.5 -55t42.5 -86t25 -135.5t8 -204.5t-8 -205t-25 -136t-42.5 -86t-59.5 -54q-2 -2 3.5 -6.5t7.5 -3.5q112 79 172.5 205.5t60.5 285.5z" />
    <glyph glyph-name="asterisk" unicode="*" horiz-adv-x="378" 
d="M328 504q0 11 -6 19t-14 13q-12 6 -22 6h-20t-26 4t-37 18q22 14 37 17.5t26 3.5h20q10 0 22 6q8 5 14 13t6 19q0 17 -11 30.5t-26 13.5q-14 0 -20.5 -8t-14 -20.5t-19 -27.5t-35.5 -29l-6 -4v7q0 27 5 41.5t10.5 23.5t10.5 17t5 22t-10.5 25.5t-27.5 11.5t-27.5 -11.5
t-10.5 -25.5t4.5 -22t10.5 -17t10.5 -23.5t4.5 -41.5v-7l-6 4q-24 14 -35.5 29t-19 27.5t-14.5 20.5t-20 8q-15 0 -26 -13.5t-11 -30.5q0 -11 6 -19t14 -13q12 -6 21 -6h21t26 -3.5t37 -17.5q-22 -14 -37 -18t-26 -4h-21q-9 0 -21 -6q-8 -5 -14 -13t-6 -19q0 -16 11 -30
t26 -14q13 0 20 8t14.5 21t19 28t35.5 29l6 4v-8q0 -27 -4.5 -41t-10.5 -23.5t-10.5 -17.5t-4.5 -22t10.5 -25t27.5 -11t27.5 11t10.5 25t-5 22t-10.5 17.5t-10.5 23.5t-5 41v8l6 -4q24 -14 35.5 -29t19 -28t14 -21t20.5 -8q15 0 26 14t11 30z" />
    <glyph glyph-name="plus" unicode="+" horiz-adv-x="405" 
d="M354 202q2 0 2 10q0 11 -2 11h-141v152q0 2 -11 2q-10 0 -10 -2v-152h-145q-2 0 -2 -11q0 -10 2 -10h145v-147q0 -2 10 -2q11 0 11 2v147h141z" />
    <glyph glyph-name="comma" unicode="," horiz-adv-x="211" 
d="M164 33q0 36 -15 56.5t-45 20.5q-23 0 -40.5 -18t-17.5 -44q0 -16 7.5 -28.5t15.5 -19.5q35 -27 35 -62q0 -34 -37 -65q-5 -5 -13 -10t-18 -8q-1 1 0 -6t3 -6q27 9 49.5 31.5t39.5 50t26.5 57t9.5 51.5z" />
    <glyph glyph-name="hyphen" unicode="-" horiz-adv-x="311" 
d="M284 269q4 4 0 4h-238q-2 -17 -7 -35.5t-11 -29.5q-1 -2 -2 -3t2 -1h238q2 17 6.5 35.5t11.5 29.5z" />
    <glyph glyph-name="period" unicode="." horiz-adv-x="211" 
d="M164 50q0 25 -17.5 42.5t-43.5 17.5q-25 0 -41.5 -17.5t-16.5 -42.5q0 -27 16.5 -45t41.5 -18q26 0 43.5 18t17.5 45z" />
    <glyph glyph-name="slash" unicode="/" horiz-adv-x="345" 
d="M378 754q1 2 -6.5 5t-8.5 1l-306 -777q-1 -1 1 -2l5 -2.5t5.5 -2t2.5 0.5z" />
    <glyph glyph-name="zero" unicode="0" horiz-adv-x="564" 
d="M516 214q0 46 -18.5 86.5t-50 70.5t-74 47.5t-90.5 17.5q-49 0 -91.5 -17.5t-74.5 -47.5t-50.5 -70.5t-18.5 -86.5t18.5 -86.5t50.5 -70.5t74.5 -47.5t91.5 -17.5q48 0 90.5 17.5t74 47.5t50 70.5t18.5 86.5zM401 214q0 -42 -2.5 -72.5t-8 -52t-14 -35.5t-20.5 -24
q-16 -13 -34 -17.5t-39 -4.5q-23 0 -41.5 4.5t-32.5 17.5q-12 10 -20.5 24t-14 35.5t-8 52t-2.5 72.5q0 75 10.5 119.5t34.5 64.5q14 13 32.5 17.5t41.5 4.5q21 0 39 -4.5t34 -17.5q24 -20 34.5 -64.5t10.5 -119.5z" />
    <glyph glyph-name="one" unicode="1" horiz-adv-x="352" 
d="M305 0q2 0 2 8t-2 8h-68q-6 0 -6 4v386q0 4 6 4h68q2 0 2 8t-2 8h-258q-2 0 -2 -8t2 -8h66q7 0 7 -4v-386q0 -4 -7 -4h-66q-2 0 -2 -8t2 -8h258z" />
    <glyph glyph-name="two" unicode="2" horiz-adv-x="467" 
d="M431 3v148q0 2 -8 2q-7 0 -7 -2q0 -45 -21.5 -60.5t-69.5 -15.5h-138q-4 0 -6.5 1t0.5 3q55 32 94 59.5t64.5 53t37.5 50.5t12 53q0 36 -14.5 62t-38.5 43.5t-56 26t-67 8.5q-39 0 -68.5 -10.5t-50 -26.5t-30.5 -35.5t-10 -37.5q0 -19 11 -34.5t37 -15.5t37.5 12t11.5 26
t-4.5 21t-4.5 21q0 64 59 64q42 0 59.5 -25t17.5 -90q0 -51 -10.5 -90t-38.5 -72t-78.5 -62.5t-129.5 -60.5q-5 -2 -3 -10.5t4 -8.5h406q3 0 3 3z" />
    <glyph glyph-name="three" unicode="3" horiz-adv-x="435" 
d="M415 -72q0 37 -12.5 72t-37 62t-60.5 43.5t-82 16.5h-20q15 3 43 18.5t55.5 39.5t48 54t20.5 61q0 37 -15.5 63.5t-42 43.5t-61.5 25t-75 8q-30 0 -55.5 -10t-44 -25t-29 -32t-10.5 -31q0 -19 10.5 -34.5t36.5 -15.5t37.5 12.5t11.5 26.5t-4.5 21t-4.5 21q0 26 16.5 38.5
t35.5 12.5q24 0 39.5 -4.5t24.5 -17t12 -34.5t3 -58q0 -42 -5 -73.5t-20 -56.5t-41 -46.5t-68 -44.5q-2 -2 1 -8t5 -4q28 17 43 24t32 7q27 0 45.5 -6t29.5 -25t16 -55.5t5 -97.5t-7.5 -98.5t-23 -57.5t-38.5 -27t-53 -7q-14 0 -27.5 2.5t-24 9t-16.5 18.5t-6 31q0 14 4 21
t4 21t-11.5 26t-37.5 12t-36.5 -15.5t-10.5 -33.5q0 -19 12 -38.5t33.5 -35t51.5 -25t65 -9.5q40 0 82 14t77 41t57.5 67t22.5 93z" />
    <glyph glyph-name="four" unicode="4" horiz-adv-x="471" 
d="M478 0q2 0 2 8t-2 8h-107v201q0 2 -7 2t-8 -2q-3 -11 -12.5 -26t-22 -30t-28.5 -26t-33 -12v-107h-216l384 512q0 2 -5.5 6.5t-6.5 3.5q-9 -11 -29 -24.5t-43.5 -25t-47 -17.5t-39.5 0l-168 -350q-17 -34 -34.5 -65t-33.5 -51q-3 -5 1 -5h238v-278h111v278h107z" />
    <glyph glyph-name="five" unicode="5" horiz-adv-x="422" 
d="M390 -52q0 42 -10 80.5t-31 68t-54.5 47t-79.5 17.5q-51 0 -77 -16t-35 -39v278q19 -26 57.5 -37.5t79.5 -11.5q53 0 85.5 20.5t32.5 53.5q0 19 -11 30t-35 11q-15 0 -27 -8.5t-26 -18.5t-33.5 -18.5t-49.5 -8.5q-29 0 -51.5 6.5t-35.5 17.5q-3 3 -3 -1q0 -2 0.5 -3.5
t0.5 -6.5v-333q0 -6 -1.5 -15.5t-1.5 -15.5q0 -7 1.5 -8.5t5.5 -1.5q9 0 9 9t-1.5 13.5t1.5 15.5q10 41 35.5 55t57.5 14q27 0 43.5 -11.5t25.5 -36t11.5 -63.5t2.5 -93q0 -66 -5.5 -107t-18 -63.5t-33 -30.5t-51.5 -8q-15 0 -28.5 2.5t-24 9t-16.5 18.5t-6 31q0 14 4.5 21
t4.5 21t-12 26t-39 12q-25 0 -36 -15.5t-11 -33.5q0 -19 12 -38.5t34 -35t52 -25t66 -9.5q39 0 79 15t71.5 44.5t51.5 73.5t20 102z" />
    <glyph glyph-name="six" unicode="6" horiz-adv-x="538" 
d="M490 196q0 41 -16.5 78t-45.5 65t-67.5 44.5t-81.5 16.5q-27 0 -53.5 -11.5t-46.5 -36.5q1 70 8.5 133t23 110t41 74.5t63.5 27.5q20 0 33.5 -12.5t13.5 -39.5q0 -14 -4.5 -21t-4.5 -21q0 -15 12 -26.5t39 -11.5q25 0 35.5 15.5t10.5 33.5q0 14 -9.5 31t-27.5 32t-43 25
t-55 10q-57 0 -103.5 -36t-79 -95t-50.5 -134t-18 -153t16.5 -135t45.5 -94.5t68 -55.5t85 -18q43 0 81.5 16.5t67.5 44.5t45.5 65t16.5 79zM374 196q0 -38 -2 -66t-6.5 -48t-11 -33.5t-16.5 -22.5q-12 -11 -25.5 -15t-33.5 -4q-19 0 -33 4t-26 15q-9 9 -16.5 21.5
t-12.5 31.5t-8 46.5t-3 65.5v125q0 9 7.5 20.5t20.5 22t31 18t40 7.5q20 0 33.5 -4t25.5 -15q20 -18 28 -60.5t8 -108.5z" />
    <glyph glyph-name="seven" unicode="7" horiz-adv-x="432" 
d="M417 422q4 4 -1 4h-8h-351q-3 0 -3 -3v-166q0 -2 7 -2q8 0 8 2q0 45 22 64.5t70 19.5h203l-297 -619h110l175 545q11 31 27 70.5t38 84.5z" />
    <glyph glyph-name="eight" unicode="8" horiz-adv-x="541" 
d="M493 199q0 38 -14 69t-36 56.5t-50.5 47t-56.5 39.5q65 26 95 62t30 90q0 33 -14.5 60.5t-40 47.5t-59 31t-72.5 11q-47 0 -80.5 -17.5t-55 -44t-31.5 -57.5t-10 -59q0 -30 9 -55t24 -46t34.5 -38.5t40.5 -33.5q-67 -28 -104.5 -74t-37.5 -112q0 -47 18 -81.5t48 -57.5
t68 -34.5t77 -11.5q52 0 92.5 16.5t68.5 45t42.5 66.5t14.5 80zM380 548q0 -29 -3.5 -49.5t-10.5 -35.5t-18 -25.5t-26 -18.5q-28 19 -53.5 36t-45 36.5t-31.5 45t-12 60.5q0 21 4.5 39t15.5 32t29.5 22t45.5 8q25 0 44.5 -7.5t33 -25t20.5 -46t7 -71.5zM413 134
q0 -38 -11.5 -62.5t-30.5 -39t-44 -20t-52 -5.5q-58 0 -90 40.5t-32 135.5q0 36 3.5 61.5t11 44.5t19.5 34t30 31q35 -26 70 -48t63 -46.5t45.5 -54t17.5 -71.5z" />
    <glyph glyph-name="nine" unicode="9" horiz-adv-x="531" 
d="M488 129q0 81 -17.5 139t-48 95t-71.5 54.5t-88 17.5q-45 0 -83.5 -17t-66.5 -46t-44 -68t-16 -82q0 -44 16 -83t44 -68t66.5 -46t83.5 -17q33 0 61.5 14t39.5 41q-2 -68 -8.5 -128.5t-22 -106.5t-42 -72.5t-68.5 -26.5q-25 0 -41.5 15t-16.5 41q0 14 4.5 21t4.5 20
q0 15 -11.5 27.5t-37.5 12.5t-36 -15.5t-10 -34.5q0 -14 10.5 -32t29 -34t45 -26.5t59.5 -10.5q61 0 110.5 35.5t83.5 94t52.5 133.5t18.5 153zM372 224q0 -14 -0.5 -34.5t-1.5 -40.5t-2.5 -36t-2.5 -21q-3 -11 -10 -23t-19 -22t-30 -16.5t-43 -6.5q-20 0 -33.5 4.5
t-25.5 16.5q-21 20 -28 63t-7 114q0 40 1.5 69t5.5 50t10.5 34.5t17.5 23.5q12 11 25.5 15.5t33.5 4.5q22 0 37.5 -4.5t29.5 -15.5q10 -10 18 -23.5t13.5 -33.5t8 -49t2.5 -69z" />
    <glyph glyph-name="colon" unicode=":" horiz-adv-x="211" 
d="M164 364q0 25 -17.5 42t-43.5 17q-25 0 -41.5 -17t-16.5 -42q0 -27 16.5 -45.5t41.5 -18.5q26 0 43.5 18.5t17.5 45.5zM164 50q0 25 -17.5 42.5t-43.5 17.5q-25 0 -41.5 -17.5t-16.5 -42.5q0 -27 16.5 -45t41.5 -18q26 0 43.5 18t17.5 45z" />
    <glyph glyph-name="semicolon" unicode=";" horiz-adv-x="211" 
d="M164 364q0 25 -17.5 42t-43.5 17q-25 0 -41.5 -17t-16.5 -42q0 -27 16.5 -45.5t41.5 -18.5q26 0 43.5 18.5t17.5 45.5zM164 33q0 36 -15 56.5t-45 20.5q-23 0 -40.5 -18t-17.5 -44q0 -16 7.5 -28.5t15.5 -19.5q35 -27 35 -62q0 -34 -37 -65q-5 -5 -13 -10t-18 -8
q-1 1 0 -6t3 -6q27 9 49.5 31.5t39.5 50t26.5 57t9.5 51.5z" />
    <glyph glyph-name="less" unicode="&#x3c;" horiz-adv-x="323" 
d="M288 88l-211 125l211 126q2 1 -2 8.5t-6 6.5l-231 -139q-2 -2 0 -3l231 -139q1 -1 2.5 1t3 5t2.5 6t0 3z" />
    <glyph glyph-name="equal" unicode="=" horiz-adv-x="365" 
d="M317 264q1 0 1 8t-1 8h-267q-2 0 -2 -8t2 -8h267zM317 145q1 0 1 8t-1 8h-267q-2 0 -2 -8t2 -8h267z" />
    <glyph glyph-name="greater" unicode="&#x3e;" horiz-adv-x="323" 
d="M274 212q1 1 0 3l-231 139q-2 1 -6 -6.5t-2 -8.5l212 -126l-212 -125q-1 0 0 -3t2.5 -6t3 -5t2.5 -1z" />
    <glyph glyph-name="question" unicode="?" horiz-adv-x="435" 
d="M414 518q0 46 -16.5 84.5t-46.5 66t-71 42.5t-89 15q-35 0 -69 -14.5t-60 -37t-42 -50t-16 -52.5q0 -33 17.5 -48.5t45.5 -15.5q29 0 45.5 15.5t16.5 36.5q0 13 -2.5 20t-6 13.5t-6 15t-2.5 24.5q0 77 79 77q20 0 37 -4.5t28 -16.5q10 -10 16.5 -23.5t10.5 -33t5.5 -47.5
t1.5 -67q0 -54 -0.5 -86.5t-2 -51t-4.5 -26.5t-9 -14q-13 -18 -43 -18q-19 0 -42.5 7.5t-33.5 27.5q-5 2 -5 -2q0 -1 0.5 -1.5t0.5 -2.5v-174q0 -2 7 -2q8 0 8 2v148q14 -11 32.5 -15t32.5 -4q37 0 70 16t58 44.5t40 67t15 84.5zM221 52q0 26 -18.5 45.5t-44.5 19.5
q-25 0 -43.5 -19.5t-18.5 -45.5t18.5 -45.5t43.5 -19.5q26 0 44.5 19.5t18.5 45.5z" />
    <glyph glyph-name="at" unicode="@" horiz-adv-x="793" 
d="M732 403q0 77 -26 137t-70.5 101.5t-104 63t-125.5 21.5q-74 0 -139 -29t-114 -79.5t-77 -118.5t-28 -145t28 -144.5t77 -118t114 -79.5t139 -29q64 0 121 22t104 61q2 2 -3 8t-7 5q-45 -38 -99 -58.5t-116 -20.5q-71 0 -133 27.5t-108 75.5t-73 112.5t-27 138.5
q0 75 27 140t73 112.5t108 75t133 27.5q63 0 119 -20.5t98 -59.5t67 -95.5t25 -129.5q0 -47 -16 -85t-42 -65t-60 -42t-71 -15q-21 0 -30.5 8.5t-10 28t7.5 51.5t22 80l49 159h-83l-12 -36q-1 23 -13 33.5t-33 10.5q-44 0 -83.5 -21t-69 -54.5t-46.5 -74t-17 -79.5
q0 -24 5.5 -46.5t17.5 -40.5t31.5 -29t47.5 -11t55.5 21.5t46.5 80.5q-5 -19 -1.5 -37.5t16 -32.5t33.5 -23t50 -9q35 0 74 13.5t72 41t55 70.5t22 102zM463 466l-43 -141q-4 -12 -12.5 -34t-21.5 -43.5t-30 -37t-37 -15.5q-19 0 -26.5 13.5t-7.5 46.5q0 25 6.5 61t18.5 72
t29 67t39 48q11 10 20 12t19 2q47 0 46 -51z" />
    <glyph glyph-name="A" unicode="A" 
d="M684 0q2 0 2 8t-2 8h-86q-7 0 -7 3l-261 704q-1 2 -8 2t-8 -2l-235 -665q-10 -29 -13.5 -35.5t-10.5 -6.5h-76q-2 0 -2 -8t2 -8h192q2 0 2 8t-2 8h-85q-4 0 -2.5 7.5t10.5 34.5l63 176h211l73 -215q0 -3 -5 -3h-87q-2 0 -2 -8t2 -8h335zM363 250h-201l103 293z" />
    <glyph glyph-name="B" unicode="B" horiz-adv-x="644" 
d="M600 188q0 45 -17 80t-46.5 59.5t-69.5 37.5t-86 13q33 0 64 12.5t55 35t38.5 53t14.5 66.5q0 42 -17.5 72.5t-48.5 51t-73 30.5t-90 10h-286q-2 0 -2 -8t2 -8h86q6 0 6 -4v-669q0 -4 -6 -4h-86q-2 0 -2 -8t2 -8h333q57 0 100 16t71.5 42.5t43 60t14.5 69.5zM427 541
q0 -46 -3.5 -76t-13.5 -47.5t-26.5 -24.5t-42.5 -7h-70v303q0 4 6 4h31q36 0 59 -7t36.5 -24.5t18.5 -47t5 -73.5zM462 182q0 -49 -5.5 -81t-18.5 -51t-36 -26.5t-57 -7.5h-68q-6 0 -6 4v351h60q37 0 62 -7t40.5 -27.5t22 -57.5t6.5 -97z" />
    <glyph glyph-name="C" unicode="C" horiz-adv-x="658" 
d="M606 -15v274q0 2 -8 2q-7 0 -7 -2q0 -49 -17.5 -96t-47.5 -83.5t-69.5 -59t-84.5 -22.5q-33 0 -60 8t-47 30q-34 35 -48 112t-14 206t14 206.5t48 112.5q20 21 44.5 29t57.5 8q36 0 73 -21.5t66 -55t47.5 -73.5t18.5 -77q0 -2 7 -2q8 0 8 2v240q0 2 -8 2q-7 0 -7 -2
q-2 -8 -14.5 -16t-33.5 -8q-17 0 -37 4t-40.5 9.5t-41 9.5t-38.5 4q-69 0 -127.5 -30t-101 -81t-66 -118.5t-23.5 -142.5q0 -74 24.5 -141.5t67.5 -118.5t102.5 -81t128.5 -30q21 0 44.5 5t47 11t45 11t38.5 5q20 0 31 -10.5t13 -19.5q1 -1 8 -1t7 1z" />
    <glyph glyph-name="D" unicode="D" horiz-adv-x="719" 
d="M670 354q0 73 -25 138t-68.5 113t-101 76t-123.5 28h-314q-2 0 -2 -8t2 -8h86q6 0 6 -4v-669q0 -4 -6 -4h-86q-2 0 -2 -8t2 -8h314q66 0 123.5 28t101 76t68.5 112.5t25 137.5zM516 354q0 -70 -3 -119.5t-10.5 -85t-19 -58.5t-28.5 -40q-21 -20 -45.5 -27.5t-57.5 -7.5
h-75q-6 0 -6 3v670q0 4 6 4h75q33 0 57.5 -8t45.5 -28q34 -34 47.5 -107t13.5 -196z" />
    <glyph glyph-name="E" unicode="E" horiz-adv-x="639" 
d="M615 3v235q0 2 -8 2q-7 0 -7 -2q0 -39 -13 -78.5t-40.5 -71.5t-71 -52t-103.5 -20h-95q-7 0 -7 4v336h21q29 0 52 -11.5t39 -31t24.5 -44t8.5 -49.5q0 -2 7 -2q8 0 8 2v288q0 2 -8 2q-7 0 -7 -2q0 -26 -8.5 -50.5t-24.5 -43.5t-39 -30.5t-52 -11.5h-21v317q0 4 7 4h92
q46 0 80 -18.5t56 -47.5t32.5 -65t10.5 -71q0 -1 8 -1t8 1v215q0 3 -4 3h-523q-2 0 -2 -8t2 -8h87q6 0 6 -4v-669q0 -4 -6 -4h-87q-2 0 -2 -8t2 -8h575q3 0 3 3z" />
    <glyph glyph-name="F" unicode="F" horiz-adv-x="615" 
d="M565 491v215q0 3 -3 3h-524q-2 0 -2 -8t2 -8h87q5 0 5 -4v-669q0 -4 -5 -4h-87q-2 0 -2 -8t2 -8h326q2 0 2 8t-2 8h-87q-6 0 -6 4v336h17q29 0 54.5 -11.5t44.5 -31t30 -44t11 -49.5q0 -2 7 -2q8 0 8 2v288q0 2 -8 2q-7 0 -7 -2q0 -26 -11 -50.5t-30 -43.5t-44.5 -30.5
t-54.5 -11.5h-17v317q0 4 6 4h77q46 0 82 -18.5t61 -47.5t38.5 -65t13.5 -71q0 -1 8 -1t8 1z" />
    <glyph glyph-name="G" unicode="G" horiz-adv-x="674" 
d="M704 268q2 0 2 8t-2 8h-324q-2 0 -2 -8t2 -8h87q4 0 4 -3v-178q0 -42 -25 -65.5t-92 -23.5q-33 0 -58 8t-45 30q-17 18 -26.5 44t-14 64t-6 89.5t-1.5 120.5q0 129 13.5 206.5t47.5 112.5q20 21 45.5 29t57.5 8q38 0 71 -22t57 -56t38 -75t14 -78q0 -2 8 -2t8 2v244
q0 2 -8 2q-7 0 -8 -2q-2 -8 -15 -16t-34 -8q-11 0 -26.5 4t-32.5 9.5t-35.5 9.5t-36.5 4q-69 0 -127.5 -30t-101 -81t-66 -118.5t-23.5 -142.5q0 -72 21 -139t60.5 -118.5t96 -82.5t127.5 -31q42 0 72.5 7.5t54 16.5t41.5 16.5t35 7.5q21 0 29.5 -10t9.5 -24q0 -2 8 -2.5
t8 1.5v269q0 3 6 3h86z" />
    <glyph glyph-name="H" unicode="H" horiz-adv-x="765" 
d="M726 0q2 0 2 8t-2 8h-85q-6 0 -6 4v669q0 4 6 4h85q2 0 2 8t-2 8h-315q-2 0 -2 -8t2 -8h77q5 0 5 -4v-312h-222v312q0 4 6 4h77q2 0 2 8t-2 8h-316q-2 0 -2 -8t2 -8h86q6 0 6 -4v-669q0 -4 -6 -4h-86q-2 0 -2 -8t2 -8h316q2 0 2 8t-2 8h-77q-6 0 -6 4v341h222v-341
q0 -4 -5 -4h-77q-2 0 -2 -8t2 -8h315z" />
    <glyph glyph-name="I" unicode="I" horiz-adv-x="401" 
d="M364 0q2 0 2 8t-2 8h-87q-6 0 -6 4v669q0 4 6 4h87q2 0 2 8t-2 8h-326q-2 0 -2 -8t2 -8h87q5 0 5 -4v-669q0 -4 -5 -4h-87q-2 0 -2 -8t2 -8h326z" />
    <glyph glyph-name="J" unicode="J" horiz-adv-x="508" 
d="M495 693q2 0 2 8t-2 8h-325q-2 0 -2 -8t2 -8h87q4 0 4 -4v-609q0 -42 -12.5 -62t-49.5 -20q-13 0 -25.5 5t-23 14t-17 20.5t-6.5 24.5q0 18 7.5 26.5t17 16.5t17 19.5t7.5 35.5q0 16 -6 31.5t-16.5 26.5t-25 18t-30.5 7q-14 0 -29 -7t-27 -19.5t-19.5 -30.5t-7.5 -40
q0 -30 16 -59.5t42 -52.5t59 -37t67 -14q45 0 82 12.5t64 36t41.5 57.5t14.5 78v522q0 4 8 4h86z" />
    <glyph glyph-name="K" unicode="K" horiz-adv-x="680" 
d="M767 0q4 0 4 8t-4 8h-95q-2 0 -5 1t-4 2l-299 427l174 205q12 14 19.5 22.5t12 13t7 5.5t5.5 1h77q1 0 1 8t-1 8h-193q-2 0 -2 -8t2 -8h80q2 0 2.5 -1t-1.5 -5.5t-8.5 -12.5t-19.5 -23l-247 -294v332q0 4 5 4h87q2 0 2 8t-2 8h-326q-2 0 -2 -8t2 -8h87q5 0 5 -4v-669
q0 -4 -5 -4h-87q-2 0 -2 -8t2 -8h326q2 0 2 8t-2 8h-87q-5 0 -5 4v331l226 -332q3 -3 -5 -3h-90q-2 0 -2 -8t2 -8h364z" />
    <glyph glyph-name="L" unicode="L" horiz-adv-x="609" 
d="M590 3v244q0 1 -8 1q-7 0 -7 -1q0 -38 -13.5 -79t-40.5 -75t-68.5 -55.5t-97.5 -21.5h-78q-5 0 -5 4v669q0 4 5 4h87q2 0 2 8t-2 8h-326q-2 0 -2 -8t2 -8h87q5 0 5 -4v-669q0 -4 -5 -4h-87q-2 0 -2 -8t2 -8h549q3 0 3 3z" />
    <glyph glyph-name="M" unicode="M" horiz-adv-x="873" 
d="M847 0q1 0 1 8t-1 8h-87q-5 0 -5 4v669q0 4 5 4h87q1 0 1 8t-1 8h-227q-9 0 -14 -18l-153 -484l-175 484q-6 18 -15 18h-230q-2 0 -2 -8t2 -8h87q5 0 5 -4v-669q0 -4 -5 -4h-87q-2 0 -2 -8t2 -8h202q2 0 2 8t-2 8h-87q-6 0 -6 4v647l245 -680q1 -2 8 -2t8 2l211 669v-636
q0 -4 -6 -4h-86q-2 0 -2 -8t2 -8h325z" />
    <glyph glyph-name="N" unicode="N" horiz-adv-x="713" 
d="M698 693q1 0 1 8t-1 8h-200q-3 0 -3 -8t3 -8h85q6 0 6 -4v-458l-291 460q-6 11 -11 14.5t-10 3.5h-244q-2 0 -2 -8t2 -8h86q6 0 6 -4v-669q0 -4 -6 -4h-86q-2 0 -2 -8t2 -8h201q2 0 2 8t-2 8h-87q-5 0 -5 4v660l446 -693q2 -3 9.5 -2.5t7.5 2.5v702q0 4 6 4h87z" />
    <glyph glyph-name="O" unicode="O" horiz-adv-x="736" 
d="M686 354q0 77 -25 145t-68 118.5t-101.5 79.5t-124.5 29q-69 0 -127.5 -30t-101 -81t-66 -118.5t-23.5 -142.5q0 -77 25 -144.5t68.5 -118t101 -79.5t123.5 -29t124.5 29t101.5 79.5t68 118t25 144.5zM532 354q0 -74 -3.5 -126t-11 -89t-19 -61t-28.5 -42
q-20 -22 -45.5 -30t-57.5 -8q-31 0 -56.5 8t-45.5 30q-17 18 -28.5 42t-19 61t-11 89t-3.5 126q0 129 14 206.5t48 112.5q20 21 45.5 29t56.5 8q32 0 57.5 -8t45.5 -29q34 -35 48 -112.5t14 -206.5z" />
    <glyph glyph-name="P" unicode="P" horiz-adv-x="630" 
d="M599 494q0 46 -17.5 85t-52 68t-85 45.5t-116.5 16.5h-290q-2 0 -2 -8t2 -8h87q5 0 5 -4v-669q0 -4 -5 -4h-87q-2 0 -2 -8t2 -8h326q2 0 2 8t-2 8h-87q-5 0 -5 4v287q20 -5 37 -8.5t48 -3.5q116 0 179 54t63 145zM460 494q0 -54 -3 -89.5t-14 -56t-31.5 -29t-54.5 -8.5
q-31 0 -47.5 3t-37.5 13v362q0 4 5 4h51q69 0 100.5 -45t31.5 -154z" />
    <glyph glyph-name="Q" unicode="Q" horiz-adv-x="736" 
d="M686 354q0 77 -25 145t-68 118.5t-101.5 79.5t-124.5 29q-69 0 -127.5 -30t-101 -81t-66 -118.5t-23.5 -142.5q0 -77 25 -144.5t68.5 -118t101 -79.5t123.5 -29h10t9 1q-17 -6 -36.5 -13.5t-40 -14.5t-39.5 -14.5t-34 -13.5q-12 -2 -18.5 -8.5t-6.5 -13.5q0 -12 16 -12
q5 0 13.5 7.5t20.5 7.5q31 0 46.5 -13t27.5 -33t27.5 -42.5t48.5 -42.5t90.5 -33t151.5 -13q2 0 2 8q0 7 -2 7q-35 0 -56.5 7.5t-36.5 20t-25.5 28.5t-22.5 33t-29.5 33t-45.5 28.5t-69.5 20t-103.5 7.5q24 10 57.5 21.5t69 24t68 26.5t55.5 28q37 22 69 59t54.5 81t35.5 93
t13 96zM532 354q0 -74 -3.5 -126t-11 -89t-19 -61t-28.5 -42q-20 -22 -45.5 -30t-57.5 -8q-31 0 -56.5 8t-45.5 30q-17 18 -29 42t-19.5 61t-10.5 89t-3 126q0 129 13.5 206.5t48.5 112.5q20 21 45.5 29t56.5 8q32 0 57.5 -8t45.5 -29q34 -35 48 -112.5t14 -206.5z" />
    <glyph glyph-name="R" unicode="R" horiz-adv-x="677" 
d="M732 18q2 1 -3.5 6.5t-6.5 4.5q-10 -11 -22 -16.5t-32 -5.5q-27 0 -43 20t-16 58v90q0 37 -12 72t-38.5 62t-67.5 43.5t-99 16.5q40 0 74.5 13t59.5 35.5t39 52.5t14 65q0 37 -16 68.5t-46.5 55t-74 37t-97.5 13.5h-307q-2 0 -2 -8t2 -8h87q5 0 5 -4v-669q0 -4 -5 -4h-87
q-2 0 -2 -8t2 -8h317q1 0 1 8t-1 8h-78q-6 0 -6 4v341h54q66 0 103 -26.5t37 -92.5v-65q0 -54 16 -91t41.5 -60t57 -33t61.5 -10q32 0 53.5 9.5t37.5 25.5zM438 531q0 -48 -4.5 -78t-16.5 -47t-34 -23t-58 -6h-54v312q0 4 6 4h43q34 0 57 -7.5t36.5 -26.5t19 -50t5.5 -78z
" />
    <glyph glyph-name="S" unicode="S" horiz-adv-x="547" 
d="M522 225q0 46 -14.5 78.5t-41.5 57t-65 43t-85 36.5q-46 17 -79 33t-54.5 33.5t-31.5 38t-10 47.5q0 52 33 85t92 33q34 0 64 -14.5t52.5 -39.5t35.5 -57t13 -68q0 -2 7 -2q8 0 8 2v192q0 2 -8 2q-7 0 -7 -2q-2 -8 -10.5 -16t-29.5 -8q-20 0 -34 4t-27.5 9.5t-28.5 9.5
t-36 4q-37 0 -71 -17t-60.5 -47t-42 -71.5t-15.5 -90.5q0 -45 12.5 -77.5t35 -56t52 -40t64.5 -29.5q57 -21 96.5 -36.5t64.5 -33.5t36.5 -41.5t11.5 -60.5q0 -24 -9.5 -47t-29 -41t-50.5 -28.5t-73 -10.5q-48 0 -87.5 25.5t-68.5 61.5t-45 76.5t-16 70.5q0 2 -8 2
q-7 0 -7 -2v-246q0 -2 7 -2t8 2q2 14 17 26t37 12q15 0 33 -6.5t38.5 -14t44 -14t48.5 -6.5q57 0 101 22t73.5 57t44.5 78t15 85z" />
    <glyph glyph-name="T" unicode="T" horiz-adv-x="655" 
d="M635 461v245q0 3 -2 3h-609q-3 0 -3 -3v-245q0 -2 7 -2t7 2q0 43 12 85t37 74.5t63.5 52.5t91.5 20h11q6 0 6 -4v-669q0 -4 -6 -4h-87q-1 0 -1 -8t1 -8h324q2 0 2 8t-2 8h-85q-6 0 -6 4v669q0 4 6 4h9q54 0 93.5 -20t65.5 -52.5t38.5 -74.5t12.5 -85q0 -2 7 -2t7 2z" />
    <glyph glyph-name="U" unicode="U" horiz-adv-x="701" 
d="M691 693q2 0 2 8t-2 8h-204q-2 0 -2 -8t2 -8h90q6 0 6 -4v-479q0 -45 -11.5 -82t-35 -64t-60.5 -41.5t-88 -14.5q-41 0 -67 13t-42 37.5t-22 59.5t-6 80v491q0 4 7 4h86q2 0 2 8t-2 8h-324q-2 0 -2 -8t2 -8h86q5 0 5 -4v-491q0 -56 18.5 -96.5t52 -67t80 -39t101.5 -12.5
q61 0 106 16t73.5 45.5t42.5 71.5t14 94v479q0 4 5 4h87z" />
    <glyph glyph-name="V" unicode="V" horiz-adv-x="674" 
d="M714 693q2 0 2 8t-2 8h-205v-16h88q5 0 4.5 -6.5t-10.5 -35.5l-162 -479l-213 517q-1 4 5 4h98q2 0 2 8t-2 8h-352q-2 0 -2 -8t2 -8h92q7 0 8 -4l297 -704q1 -2 8 -2t8 2l226 666q10 28 14 35t10 7h84z" />
    <glyph glyph-name="W" unicode="W" horiz-adv-x="1003" 
d="M1047 693q2 0 2 8t-2 8h-203q-2 0 -2 -8t2 -8h87q5 0 4.5 -6t-9.5 -31l-154 -469l-175 502q-2 4 3 4h100q2 0 2 8t-2 8h-349q-2 0 -2 -8t2 -8h93l3 -1t4 -3l56 -160l-111 -341l-190 501q-1 4 5 4h85q2 0 2 8t-2 8h-339q-2 0 -2 -8t2 -8h91q8 0 8 -4l270 -704
q2 -2 8.5 -2.5t8.5 2.5l173 522l186 -522q1 -2 8 -2q8 0 9 2l222 666q8 29 13 35.5t10 6.5h83z" />
    <glyph glyph-name="X" unicode="X" horiz-adv-x="697" 
d="M729 0q2 0 2 8t-2 8h-94q-6 0 -9 3l-225 405l132 227q18 29 25 35.5t9 6.5h90q2 0 2 8t-2 8h-204q-2 0 -2 -8t2 -8h77q9 0 7 -6.5t-19 -35.5l-126 -211l-135 249q-2 4 4 4h93q2 0 2 8t-2 8h-352q-2 0 -2 -8t2 -8h96q7 0 7 -4l206 -369l-153 -262q-17 -29 -24.5 -35.5
t-8.5 -6.5h-91q-2 0 -2 -8t2 -8h205q2 0 2 8t-2 8h-79q-7 0 -5 6.5t20 35.5l144 245l155 -284q3 -3 -3 -3h-94q-2 0 -2 -8t2 -8h352z" />
    <glyph glyph-name="Y" unicode="Y" horiz-adv-x="651" 
d="M680 693q2 0 2 8t-2 8h-203q-2 0 -2 -8t2 -8h91q5 0 3 -6.5t-14 -35.5l-143 -311l-175 349q0 4 4 4h97q2 0 2 8t-2 8h-354q-2 0 -2 -8t2 -8h94q6 0 8 -4l191 -380v-289q0 -4 -6 -4h-87q-2 0 -2 -8t2 -8h324q2 0 2 8t-2 8h-86q-7 0 -7 4v293l139 304q13 27 21 42
t12.5 22.5t7.5 9.5t5 2h78z" />
    <glyph glyph-name="Z" unicode="Z" horiz-adv-x="619" 
d="M566 3v249q0 2 -8 2t-8 -2q0 -43 -14.5 -85.5t-42 -76t-66.5 -54t-88 -20.5h-128q-7 0 -4 3l356 682q2 8 -1 8h-471q-3 0 -3 -3v-245q0 -2 8 -2t8 2q0 43 14 85t41 74.5t65.5 52.5t87.5 20h95q5 0 3 -4l-355 -681q-3 -8 2 -8h506q3 0 3 3z" />
    <glyph glyph-name="bracketleft" unicode="[" horiz-adv-x="280" 
d="M314 -244q1 0 1 8t-1 8h-116q-7 0 -7 3v943q0 4 7 4h116q1 0 1 7q0 8 -1 8h-228q-3 0 -3 -3v-974q0 -4 3 -4h228z" />
    <glyph glyph-name="backslash" unicode="\" horiz-adv-x="345" 
d="M289 -17l-306 777q-1 2 -8.5 -1t-6.5 -5l307 -777q1 -2 8.5 1t5.5 5z" />
    <glyph glyph-name="bracketright" unicode="]" horiz-adv-x="275" 
d="M191 -240v974q0 3 -2 3h-229q-2 0 -2 -8q0 -7 2 -7h117q6 0 6 -4v-943q0 -3 -6 -3h-117q-2 0 -2 -8t2 -8h229q2 0 2 4z" />
    <glyph glyph-name="asciicircum" unicode="^" horiz-adv-x="315" 
d="M312 524q-45 49 -81.5 90t-61.5 79q-3 2 -4 0q-26 -38 -62.5 -78.5t-81.5 -90.5q-1 -2 2.5 -6.5t5.5 -2.5l133 91l141 -91q2 -2 6 2.5t3 6.5z" />
    <glyph glyph-name="underscore" unicode="_" horiz-adv-x="548" 
d="M513 0q2 0 2 8t-2 8h-479q-2 0 -2 -8t2 -8h479z" />
    <glyph glyph-name="grave" unicode="`" horiz-adv-x="341" 
d="M309 528q-38 8 -64.5 25.5t-45.5 38.5t-32.5 43.5t-24.5 41t-22 30t-26 11.5q-17 0 -28 -10.5t-11 -26.5q0 -19 10.5 -40.5t38 -44t77 -44.5t127.5 -40q2 0 2.5 7.5t-1.5 8.5z" />
    <glyph glyph-name="a" unicode="a" horiz-adv-x="463" 
d="M460 31q1 2 -4.5 6.5t-6.5 2.5q-2 -8 -10.5 -15t-21.5 -7q-24 0 -24 34v203q0 94 -47 137.5t-126 43.5q-31 0 -57 -8t-44.5 -21t-29 -28t-10.5 -30q0 -19 11.5 -34t36.5 -15q26 0 37.5 11.5t11.5 27.5q0 13 -4 20t-4 21t4.5 22t12 12t16.5 5t19 1q14 0 25.5 -3t19.5 -12
t12.5 -27t4.5 -48v-76q0 -16 -30.5 -21t-73.5 -9q-15 -2 -39.5 -7t-47 -18.5t-39 -38t-16.5 -63.5q0 -30 13.5 -50t34.5 -32t47.5 -17.5t52.5 -5.5q39 0 65 17t36 49q3 -14 12 -26t22 -21t29 -14t32 -5q30 0 52.5 12.5t27.5 26.5zM282 110q0 -41 -22 -69.5t-58 -28.5
q-33 0 -44.5 20t-11.5 65q0 34 3 55t9.5 33t16.5 16.5t23 7.5q23 4 44.5 6.5t39.5 13.5v-119z" />
    <glyph glyph-name="b" unicode="b" horiz-adv-x="552" 
d="M510 210q0 42 -17 82t-46.5 72t-68.5 51.5t-84 19.5q-31 0 -54.5 -10.5t-41.5 -30.5v338q0 3 -3 3h-172q-2 0 -2 -8t2 -8h59q6 0 6 -4v-695q0 -4 -6 -4h-59q-2 0 -2 -8t2 -8h172q3 0 3 3v35q18 -20 47 -33.5t60 -13.5q45 0 82.5 18.5t65 49.5t42.5 70.5t15 80.5zM393 210
q0 -73 -7.5 -117.5t-28.5 -64.5q-13 -12 -22.5 -16.5t-29.5 -4.5q-30 0 -61.5 15.5t-45.5 48.5v295q11 26 39 39.5t57 13.5q20 0 35 -4.5t28 -16.5q21 -20 28.5 -67.5t7.5 -120.5z" />
    <glyph glyph-name="c" unicode="c" horiz-adv-x="460" 
d="M438 86q2 2 -2 6t-5 3q-26 -39 -72 -63.5t-101 -24.5q-20 0 -34.5 4.5t-27.5 17.5q-10 10 -17 24t-11.5 35.5t-6.5 52t-2 72.5t2 72.5t6.5 52t11.5 35.5t17 24q13 13 27.5 17.5t34.5 4.5q38 0 60.5 -11.5t22.5 -40.5q0 -12 -2 -18.5t-4.5 -11t-4.5 -10t-2 -15.5
q0 -16 12 -27t34 -11q20 0 33.5 11t13.5 35q0 19 -12 39.5t-34 37t-51.5 27.5t-65.5 11q-45 0 -84 -17.5t-68.5 -47.5t-46.5 -70.5t-17 -86.5t17 -86.5t46.5 -70.5t68.5 -47.5t84 -17.5q54 0 102.5 26t77.5 69z" />
    <glyph glyph-name="d" unicode="d" horiz-adv-x="545" 
d="M530 0q2 0 2 8t-2 8h-57q-7 0 -7 4v712q0 3 -4 3h-170q-2 0 -2 -8t2 -8h56q6 0 6 -4v-321q-36 41 -95 41q-45 0 -84 -19.5t-68.5 -51.5t-46.5 -72t-17 -82q0 -41 15 -80.5t42.5 -70.5t65 -49.5t82.5 -18.5q24 0 42.5 6t32 15t21.5 18.5t10 16.5v-44q0 -3 3 -3h173z
M354 91q0 -14 -5.5 -29t-18 -27t-33 -20t-49.5 -8q-20 0 -29 4.5t-22 16.5q-20 20 -29 64.5t-9 117.5t9 120.5t29 67.5q13 12 27.5 16.5t34.5 4.5q29 0 57 -13.5t38 -39.5v-275z" />
    <glyph glyph-name="e" unicode="e" horiz-adv-x="488" 
d="M453 239q0 27 -11.5 61t-35.5 64t-60 50.5t-84 20.5q-45 0 -85 -17.5t-70 -47.5t-47.5 -70.5t-17.5 -86.5t17.5 -86.5t47.5 -70.5t70 -47.5t85 -17.5q54 0 102.5 26t77.5 69q1 2 -4 6t-6 3q-26 -39 -70.5 -63.5t-99.5 -24.5q-20 0 -35.5 4.5t-28.5 17.5q-11 10 -18 24
t-12 35.5t-7 52t-2 72.5v23h291q3 0 3 3zM350 252h-191q1 62 10.5 94.5t28.5 50.5q13 13 28.5 17.5t35.5 4.5q17 0 30.5 -4.5t24.5 -17.5q16 -18 24 -50.5t9 -94.5z" />
    <glyph glyph-name="f" unicode="f" horiz-adv-x="336" 
d="M383 658q0 18 -8 34t-21 27.5t-29.5 18t-33.5 6.5q-39 0 -72 -15t-58 -50t-39 -91.5t-14 -138.5v-19q0 -4 -6 -4h-70q-3 0 -3 -8t3 -8h70q6 0 6 -4v-386q0 -4 -6 -4h-56q-2 0 -2 -8t2 -8h237q2 0 2 8t-2 8h-57q-6 0 -6 4v386q0 4 6 4h86q2 0 2 8t-2 8h-86q-6 0 -6 4v178
q0 68 13.5 93t34.5 25q17 0 23 -5.5t6 -22.5q0 -12 -2.5 -18t-5 -11t-5 -10.5t-2.5 -15.5q0 -16 12 -26.5t38 -10.5q23 0 37 15.5t14 36.5z" />
    <glyph glyph-name="g" unicode="g" horiz-adv-x="500" 
d="M519 385q0 20 -12.5 35t-38.5 15q-30 0 -51.5 -17t-35.5 -43q-23 28 -56.5 44t-75.5 16q-35 0 -66.5 -12.5t-54.5 -34.5t-36.5 -51.5t-13.5 -62.5q0 -28 10.5 -53.5t27.5 -45.5q-36 -23 -58 -50.5t-22 -72.5q0 -38 24.5 -66.5t66.5 -38.5q-23 -6 -42.5 -18.5t-33.5 -29
t-22 -36.5t-8 -41q0 -28 17 -53t48 -43.5t74 -29.5t96 -11q41 0 85.5 12t81 36t60 59t23.5 82q0 84 -52.5 125.5t-145.5 41.5h-128q-23 0 -39 2t-26.5 8t-15 17.5t-4.5 31.5q0 25 8.5 39.5t21.5 23.5q18 -18 50.5 -33.5t73.5 -15.5q36 0 67 12.5t54 34.5t36 51t13 62
q0 28 -6.5 49.5t-23.5 41.5q8 17 16 26t15 13t13.5 4.5t12.5 0.5q8 0 13 -4t5 -12t-4 -11.5t-4 -13.5q0 -9 8 -16.5t24 -7.5q13 0 22 11t9 30zM320 275q0 -60 -6 -88t-20 -42q-9 -9 -20 -12t-25 -3q-13 0 -24 3t-19 12q-14 14 -21 42t-7 88q0 53 7 84.5t21 45.5q8 9 19 11.5
t24 2.5q14 0 25 -2.5t20 -11.5q14 -14 20 -45.5t6 -84.5zM440 -169q0 -34 -15 -58.5t-40.5 -40.5t-58.5 -23.5t-70 -7.5q-40 0 -69.5 6t-49.5 21t-30 40.5t-10 65.5q0 46 11 69t38 40q2 0 12.5 -0.5t12.5 -0.5h139q33 0 57 -9.5t40.5 -25t24.5 -35.5t8 -41z" />
    <glyph glyph-name="h" unicode="h" horiz-adv-x="562" 
d="M549 0q2 0 2 8t-2 8h-56q-7 0 -7 4v248q0 80 -45.5 123.5t-125.5 43.5q-18 0 -35.5 -4.5t-33.5 -13.5t-28 -24t-19 -36v375q0 3 -3 3h-173q-2 0 -2 -8t2 -8h58q7 0 7 -4v-695q0 -4 -7 -4h-58q-2 0 -2 -8t2 -8h238q2 0 2 8t-2 8h-56q-6 0 -6 4v304q15 48 42 71.5t74 23.5
q28 0 44 -24.5t16 -77.5v-297q0 -4 -7 -4h-56q-2 0 -2 -8t2 -8h237z" />
    <glyph glyph-name="i" unicode="i" horiz-adv-x="298" 
d="M223 664q0 29 -20 50t-48 21q-29 0 -49.5 -21t-20.5 -50t20.5 -49t49.5 -20q28 0 48 20t20 49zM274 0q2 0 2 8t-2 8h-58q-7 0 -7 4v403q0 3 -3 3h-172q-2 0 -2 -8t2 -8h58q7 0 7 -4v-386q0 -4 -7 -4h-58q-2 0 -2 -8t2 -8h240z" />
    <glyph glyph-name="j" unicode="j" horiz-adv-x="287" 
d="M223 664q0 29 -19.5 50t-47.5 21q-30 0 -50 -21t-20 -50t20 -49t50 -20q28 0 47.5 20t19.5 49zM210 -24v447q0 3 -3 3h-172q-2 0 -2 -8t2 -8h57q7 0 7 -4v-588q0 -69 -15.5 -93.5t-37.5 -24.5q-17 0 -22.5 7t-5.5 24q0 11 2.5 17t5 10.5t5 10t2.5 14.5q0 17 -12.5 28.5
t-38.5 11.5q-22 0 -36.5 -16.5t-14.5 -36.5q0 -18 8 -34t21 -28t30 -19t34 -7q39 0 73 15t59 49.5t39.5 91t14.5 138.5z" />
    <glyph glyph-name="k" unicode="k" horiz-adv-x="529" 
d="M568 0q2 0 2 8t-2 8h-72q-6 0 -10 4l-209 267l93 81q16 14 26 22.5t16 13t9.5 5.5t6.5 1h57l0.5 8t-0.5 8h-156q-2 0 -2 -8t2 -8h60q3 0 3 -1t-3.5 -5.5t-13 -12.5t-25.5 -23l-150 -133v497q0 3 -5 3h-171q-2 0 -2 -8t2 -8h58q7 0 7 -4v-695q0 -4 -7 -4h-58q-2 0 -2 -8
t2 -8h239v16h-57q-6 0 -6 4v209l162 -209q3 -4 -4 -4h-47q-2 0 -2 -8t2 -8h257z" />
    <glyph glyph-name="l" unicode="l" horiz-adv-x="277" 
d="M261 0q2 0 2 8t-2 8h-57q-5 0 -5 4v712q0 3 -4 3h-171q-2 0 -2 -8t2 -8h57q7 0 7 -4v-695q0 -4 -7 -4h-57q-2 0 -2 -8t2 -8h237z" />
    <glyph glyph-name="m" unicode="m" horiz-adv-x="854" 
d="M842 0q2 0 2 8t-2 8h-57q-7 0 -7 4v269q0 79 -45.5 112.5t-124.5 33.5q-18 0 -36.5 -4.5t-35 -14.5t-30 -25.5t-21.5 -37.5q-15 38 -55 60t-110 22q-18 0 -36 -4.5t-33.5 -13.5t-28 -24t-19.5 -36v66q0 3 -3 3h-172q-2 0 -2 -8t2 -8h57q7 0 7 -4v-386q0 -4 -7 -4h-57
q-2 0 -2 -8t2 -8h238q2 0 2 8t-2 8h-57q-6 0 -6 4v304q15 48 42 71.5t75 23.5q27 0 43 -24.5t16 -77.5v-297q0 -4 -6 -4h-57q-2 0 -2 -8t2 -8h238q2 0 2 8t-2 8h-57q-7 0 -7 4v288q0 18 7 38t21.5 36t37 26.5t52.5 10.5q26 0 43 -24.5t17 -77.5v-297q0 -4 -7 -4h-58
q-1 0 -1 -8t1 -8h239z" />
    <glyph glyph-name="n" unicode="n" horiz-adv-x="566" 
d="M554 0q2 0 2 8t-2 8h-56q-7 0 -7 4v248q0 80 -45.5 123.5t-125.5 43.5q-18 0 -36 -4.5t-33.5 -13.5t-28 -24t-19.5 -36v66q0 3 -3 3h-172q-2 0 -2 -8t2 -8h57q7 0 7 -4v-386q0 -4 -7 -4h-57q-2 0 -2 -8t2 -8h238q2 0 2 8t-2 8h-57q-6 0 -6 4v304q15 48 42 71.5t75 23.5
q27 0 43.5 -24.5t16.5 -77.5v-297q0 -4 -6 -4h-57q-2 0 -2 -8t2 -8h237z" />
    <glyph glyph-name="o" unicode="o" horiz-adv-x="517" 
d="M475 213q0 46 -17 86.5t-46.5 70.5t-69 47.5t-84.5 17.5q-44 0 -83.5 -17.5t-69 -47.5t-46.5 -70.5t-17 -86.5t17 -86.5t46.5 -70.5t69 -47.5t83.5 -17.5q45 0 84.5 17.5t69 47.5t46.5 70.5t17 86.5zM359 213q0 -42 -2 -72.5t-6.5 -52t-12 -35.5t-17.5 -24
q-12 -13 -27.5 -17.5t-35.5 -4.5q-19 0 -34.5 4.5t-28.5 17.5q-10 10 -16.5 24t-11 35.5t-6.5 52t-2 72.5q0 75 8 119.5t28 64.5q13 13 28.5 17.5t34.5 4.5q20 0 35.5 -4.5t27.5 -17.5q20 -20 29 -64.5t9 -119.5z" />
    <glyph glyph-name="p" unicode="p" horiz-adv-x="552" 
d="M510 211q0 42 -17 82t-46.5 71.5t-68.5 51t-84 19.5q-30 0 -56 -13t-41 -30v32v1q0 1 -3 1h-171q-2 0 -2 -8q0 -7 2 -7h58q7 0 7 -4v-696q0 -4 -7 -4h-58q-2 0 -2 -7q0 -8 2 -8h238q2 0 2 8q0 7 -2 7h-56q-8 0 -8 4v327q19 -19 48 -32.5t60 -13.5q45 0 82.5 18.5t65 49.5
t42.5 70t15 81zM392 211q0 -73 -7.5 -118t-28.5 -65q-13 -12 -22 -16.5t-29 -4.5q-15 0 -31 4t-31 12t-27 20t-19 28v296q11 25 39.5 38.5t57.5 13.5q20 0 34.5 -4.5t27.5 -16.5q21 -20 28.5 -67t7.5 -120z" />
    <glyph glyph-name="q" unicode="q" horiz-adv-x="533" 
d="M530 -307q2 0 2 7t-2 7h-58q-7 0 -7 4v696q0 5 7 5h58q2 0 2 7t-2 7h-173q-2 0 -2.5 -0.5l-0.5 -0.5v-33q-16 20 -42 31.5t-53 11.5q-45 0 -84.5 -19.5t-69 -51t-46.5 -71.5t-17 -82t15.5 -81t42.5 -70t65 -49.5t83 -18.5q42 0 66.5 16.5t39.5 44.5v-342q0 -4 -6 -4h-57
q-2 0 -2 -7t2 -7h239zM354 97q0 -15 -6.5 -30.5t-19.5 -29t-31 -22t-41 -8.5q-21 0 -33.5 4.5t-25.5 16.5q-21 20 -29.5 65t-8.5 118t8.5 120t29.5 67q13 12 27.5 16.5t34.5 4.5q28 0 56 -13.5t39 -37.5v-271z" />
    <glyph glyph-name="r" unicode="r" horiz-adv-x="414" 
d="M395 348q0 34 -26.5 60.5t-71.5 26.5q-31 0 -56 -15t-42 -63v66q0 2 -1.5 2.5l-1.5 0.5h-172q-2 0 -2 -8t2 -8h57q7 0 7 -4v-386q0 -4 -7 -4h-57q-2 0 -2 -8t2 -8h236q3 0 3 8t-3 8h-55q-5 0 -5.5 1t-0.5 3v291q8 33 17 53t18 30t17.5 13t16.5 3q13 0 22 -9t9 -25
q0 -8 -2.5 -13l-5 -10t-5 -11t-2.5 -16q0 -17 14.5 -29t40.5 -12q23 0 39.5 15.5t16.5 47.5z" />
    <glyph glyph-name="s" unicode="s" horiz-adv-x="390" 
d="M364 139q0 25 -11 46t-29 37t-41.5 27t-48.5 17q-29 8 -51.5 15.5t-37.5 16.5t-22.5 21.5t-7.5 30.5q0 39 20 54t54 15q19 0 38 -8t34 -22.5t24.5 -34t9.5 -42.5q0 -2 8 -2t8 2v125q0 2 -7 2t-9 -2q0 -3 -5 -9.5t-16 -6.5q-12 0 -20 2t-16.5 5t-19.5 5t-29 2
q-24 0 -47 -9t-41.5 -26.5t-29.5 -43t-11 -59.5q0 -48 32 -77.5t88 -41.5q31 -8 54 -16t38 -18t22 -22.5t7 -30.5q0 -45 -24.5 -64.5t-68.5 -19.5q-32 0 -57.5 12t-44 32t-28.5 46.5t-9 55.5q0 2 -8 2q-7 0 -7 -2l-5 -154q-1 -2 6 -2q8 0 9 2q2 5 12.5 12t24.5 7q13 0 23 -4
t21 -9.5t25.5 -9.5t37.5 -4q37 0 66 11.5t49 32t30.5 47.5t10.5 57z" />
    <glyph glyph-name="t" unicode="t" horiz-adv-x="323" 
d="M309 79q1 2 -5 5t-5 2q-10 -31 -26 -49.5t-36 -18.5q-14 0 -23 7.5t-9 21.5v359q0 4 8 4h86q2 0 2 8t-2 8h-86q-8 0 -8 4v168q0 1 -6.5 1.5t-8.5 -1.5q-3 -11 -12 -24t-21.5 -24t-28.5 -19.5t-32 -9.5v-91q0 -4 -7 -4h-72q-2 0 -2 -8t2 -8h72q7 0 7 -4v-317
q0 -49 22.5 -73.5t76.5 -24.5q47 0 75 24t39 64z" />
    <glyph glyph-name="u" unicode="u" horiz-adv-x="556" 
d="M541 0q2 0 2 8t-2 8h-56q-7 0 -7 4v403q0 3 -3 3h-172q-2 0 -2 -8t2 -8h57q7 0 7 -4v-304q-16 -48 -43.5 -71.5t-75.5 -23.5q-26 0 -42 24t-16 78v314q0 3 -3 3h-173q-1 0 -1 -8t1 -8h58q7 0 7 -4v-255q0 -80 45.5 -120t123.5 -40q36 0 70.5 18t48.5 60v-66q0 -3 3 -3
h171z" />
    <glyph glyph-name="v" unicode="v" horiz-adv-x="456" 
d="M484 410q2 0 2 8t-2 8h-149q-2 0 -2 -8t2 -8h56q5 0 4.5 -6.5t-11.5 -35.5l-96 -250l-122 289q-2 3 7 3h58q3 0 3 8t-3 8h-250q-2 0 -2 -8t2 -8h54q6 0 8 -3l197 -415q1 -2 8 -2q8 0 9 2l143 376q11 29 15 35.5t10 6.5h59z" />
    <glyph glyph-name="w" unicode="w" horiz-adv-x="720" 
d="M754 410q2 0 2 8t-2 8h-149q-2 0 -2 -8t2 -8h57q5 0 5 -7q0 -6 -11 -35l-88 -237l-121 276q-2 3 5 3h58q2 0 2 8t-2 8h-238q-2 0 -2 -8t2 -8h47q6 0 9 -3l29 -62l-79 -216l-121 278q-2 3 6 3h56q2 0 2 8t-2 8h-245q-2 0 -2 -8t2 -8h56q5 0 8 -3l189 -415q1 -2 8 -2t8 2
l122 333l152 -333q1 -2 8 -2q8 0 8 2l138 376q11 29 15.5 35.5t9.5 6.5h58z" />
    <glyph glyph-name="x" unicode="x" horiz-adv-x="509" 
d="M526 0q2 0 2 8t-2 8h-58q-6 0 -9 3l-164 240l85 109q11 15 18 23t11.5 12.5t7 5.5t5.5 1h55q2 0 2 8t-2 8h-149q-2 0 -2 -8t2 -8h59q2 0 3 -1t-1 -5.5t-7.5 -12.5t-16.5 -23l-76 -99l-94 138q-3 3 5 3h61q2 0 2 8t-2 8h-260q-2 0 -2 -8t2 -8h59q6 0 9 -3l143 -210
l-110 -139q-22 -29 -29 -35.5t-13 -6.5h-52q-2 0 -2 -8t2 -8h149q2 0 2 8t-2 8h-61q-6 0 -3.5 6.5t25.5 35.5l101 128l114 -167q3 -3 -4 -3h-56q-2 0 -2 -8t2 -8h253z" />
    <glyph glyph-name="y" unicode="y" horiz-adv-x="444" 
d="M477 411q2 0 2 7q0 8 -2 8h-149q-2 0 -2 -8q0 -7 2 -7h57q5 0 4.5 -6.5t-11.5 -35.5l-96 -251l-121 289q-2 4 5 4h59q2 0 2 7q0 8 -2 8h-251q-2 0 -2 -8q0 -7 2 -7h54q6 0 8 -4l198 -417l-87 -228q-16 -39 -31.5 -48.5t-26.5 -9.5t-13.5 6t-2.5 14q0 9 3.5 15t7.5 12
t7.5 12.5t3.5 15.5q0 17 -12 29t-35 12t-38.5 -18t-15.5 -44q0 -31 21 -53t53 -22q31 0 54 18t40 63l231 605q11 29 15.5 35.5t9.5 6.5h59z" />
    <glyph glyph-name="z" unicode="z" horiz-adv-x="437" 
d="M400 3v152q0 2 -8 2q-7 0 -7 -2q0 -30 -7 -55.5t-23.5 -44t-44.5 -29t-69 -10.5h-82q-8 0 -3 3l237 400q3 7 -1 7h-325q-2 0 -2 -3v-138q0 -2 7 -2t7 2q0 28 6.5 51.5t21.5 39.5t40 25t62 9h58q6 0 5 -3l-239 -400q-4 -7 3 -7h361q3 0 3 3z" />
    <glyph glyph-name="braceleft" unicode="{" horiz-adv-x="274" 
d="M274 -244q2 0 2 8t-2 8h-24q-25 0 -42.5 7t-28 24.5t-15 46.5t-4.5 73q0 27 3.5 58.5t8 63.5t8.5 64t4 60q0 11 -2 23t-7 23t-14 19.5t-22 12.5q27 8 36 31t9 46q0 28 -4 60t-8.5 64.5t-8 63.5t-3.5 58q0 44 4.5 73t15 46.5t28 25t42.5 7.5h24q2 0 2 7q0 8 -2 8h-24
q-43 0 -77.5 -15.5t-58.5 -43.5t-36.5 -66t-12.5 -84q0 -39 12 -73.5t27 -65t27 -56.5t12 -47q0 -24 -16 -30q-3 -1 -10 -1q-8 0 -12.5 1t-11.5 1q-3 0 -5 -4t-2 -6t2 -6.5t5 -4.5q7 0 11.5 1.5t12.5 1.5q4 0 10 -2q8 -2 12 -10.5t4 -19.5q0 -21 -12 -47t-27 -56t-27 -65
t-12 -74q0 -46 12.5 -84.5t36.5 -66t58.5 -43t77.5 -15.5h24z" />
    <glyph glyph-name="bar" unicode="|" horiz-adv-x="150" 
d="M84 -23v778q0 2 -8 2t-8 -2v-778q0 -2 8 -2t8 2z" />
    <glyph glyph-name="braceright" unicode="}" horiz-adv-x="274" 
d="M210 -35q0 39 -12.5 74t-27.5 65t-27.5 56t-12.5 47q0 11 4 19.5t12 10.5t11 2q8 0 12.5 -1.5t11.5 -1.5q2 0 4.5 4.5t2.5 6.5t-2.5 6t-4.5 4q-7 0 -11.5 -1t-12.5 -1q-7 0 -11 1q-16 6 -16 30q0 21 12.5 47t27.5 56.5t27.5 65t12.5 73.5q0 46 -13 84t-37 66t-58.5 43.5
t-77.5 15.5h-25q-2 0 -2 -8q0 -7 2 -7h25q25 0 42 -7.5t27.5 -25t15.5 -46.5t5 -73q0 -27 -4 -58t-8.5 -63.5t-8.5 -64.5t-4 -60q0 -23 9 -46t37 -31q-14 -4 -23 -12.5t-14 -19.5t-7 -23t-2 -23q0 -28 4 -60t8.5 -64t8.5 -63.5t4 -58.5q0 -44 -5 -73t-15.5 -46.5
t-27.5 -24.5t-42 -7h-25q-2 0 -2 -8t2 -8h25q43 0 77.5 15.5t58.5 43t37 66t13 84.5z" />
    <glyph glyph-name="asciitilde" unicode="~" horiz-adv-x="392" 
d="M369 414q0 2 -8 2q-7 0 -7 -2q0 -25 -13 -40t-34 -15q-18 0 -36.5 8t-38.5 17t-43 17t-49 8q-24 0 -45.5 -9t-38 -24.5t-26 -36.5t-9.5 -45q0 -2 8 -2t8 2q0 25 12.5 40.5t33.5 15.5q17 0 35.5 -8t39.5 -17.5t44 -17.5t49 -8q24 0 45 9t37.5 24.5t26 36.5t9.5 45z" />
    <glyph glyph-name="exclamdown" unicode="&#xa1;" horiz-adv-x="221" 
d="M179 366q0 26 -18 45t-44 19t-44.5 -19t-18.5 -45q0 -27 18.5 -46.5t44.5 -19.5t44 19.5t18 46.5zM186 -226q0 33 -9.5 85t-21.5 115t-21.5 131.5t-9.5 134.5q0 2 -7 2t-7 -2q0 -66 -9.5 -134.5t-21.5 -131.5t-21.5 -115t-9.5 -85q0 -24 6 -40t16 -25.5t22.5 -13.5
t24.5 -4q13 0 25 4t22 13.5t16 25.5t6 40z" />
    <glyph glyph-name="cent" unicode="&#xa2;" horiz-adv-x="464" 
d="M439 86q1 2 -3 6t-5 3q-23 -37 -65 -60.5t-91 -27.5v412q31 -2 49 -14t18 -38q0 -12 -2 -18.5t-4.5 -11t-4.5 -10t-2 -15.5q0 -16 12 -27t33 -11q20 0 33.5 11t13.5 36q0 18 -10.5 37t-30 35t-46.5 27t-59 14v70q0 2 -8 2t-8 -2v-68q-45 -1 -84 -18.5t-68.5 -47.5
t-46.5 -70.5t-17 -86.5t17 -86t46.5 -70.5t68.5 -48t84 -18.5v-68q0 -2 8 -2t8 2v70q48 4 92.5 29t71.5 65zM259 6q-20 1 -35 5t-28 18q-10 10 -17 24t-11 35.5t-6 52t-2 72.5t2 72.5t6 52t11 35.5t17 24q13 14 28 18t35 5v-414z" />
    <glyph glyph-name="sterling" unicode="&#xa3;" horiz-adv-x="595" 
d="M576 126q0 2 -7 3t-7 -1q-4 -23 -21 -42.5t-43 -19.5q-48 0 -80 4t-57 10.5t-47.5 14t-51.5 13.5q21 33 37 68.5t16 66.5t-2 54.5t-5 47.5h96q2 0 2 7q0 8 -2 8h-96q-4 28 -9 51t-9.5 43.5t-7.5 40t-3 40.5q0 94 21 133.5t66 39.5q31 0 43.5 -13t12.5 -31q0 -12 -4 -20
t-9 -15t-9 -14.5t-4 -17.5q0 -20 13 -33t43 -13q26 0 44.5 19t18.5 42q0 18 -10.5 38.5t-28.5 37t-42 27.5t-50 11q-48 0 -88.5 -21t-70.5 -55.5t-46.5 -78t-16.5 -89.5q0 -31 9 -60t21 -62h-74q-2 0 -2 -8q0 -7 2 -7h76q10 -26 20.5 -50.5t19.5 -47t15 -43t6 -39.5
q0 -14 -2 -27t-6 -27q-20 2 -44.5 4t-55.5 2q-26 0 -48.5 -7.5t-39 -19.5t-26 -27t-9.5 -29q0 -15 6.5 -24.5t15.5 -15.5t19.5 -8.5t18.5 -2.5q55 0 113 52q24 -9 46.5 -18.5t45.5 -17t48.5 -12t55.5 -4.5q40 0 72.5 13t56.5 33.5t38 46t16 50.5zM177 38q-23 -20 -46 -30
t-40 -10q-8 0 -17 2t-16.5 6.5t-13 12t-5.5 18.5q0 29 44 29q17 0 41.5 -8.5t52.5 -19.5z" />
    <glyph glyph-name="yen" unicode="&#xa5;" horiz-adv-x="622" 
d="M664 693q3 0 3 8t-3 8h-224q-2 0 -2 -8t2 -8h105q5 0 3 -6.5t-16 -35.5l-148 -298l-183 336q-2 4 3 4h107q2 0 2 8t-2 8h-364q-2 0 -2 -8t2 -8h103q6 0 8 -4l167 -307h-159q-2 0 -2 -8q0 -7 2 -7h167l34 -62v-55h-201q-2 0 -2 -8t2 -8h201v-214q0 -4 -7 -4h-93
q-2 0 -2 -8t2 -8h319q2 0 2 8t-2 8h-93q-6 0 -6 4v214h201q2 0 2 8t-2 8h-201v76l20 41h181q2 0 2 7q0 8 -2 8h-174l133 269q14 29 21 35.5t12 6.5h84z" />
    <glyph glyph-name="section" unicode="&#xa7;" horiz-adv-x="544" 
d="M495 227q0 55 -25.5 91t-64 62.5t-83 46.5t-83 42.5t-64 52.5t-25.5 75q0 33 11.5 57.5t31.5 41t47.5 24.5t59.5 8q27 0 43 -5t25 -14t12 -22t3 -29q0 -19 -6.5 -28t-6.5 -22q0 -20 14 -31t36 -11q20 0 33 11.5t13 37.5q0 22 -11 45t-32 41.5t-52 30.5t-71 12
q-50 0 -89.5 -17.5t-67 -48t-42.5 -71t-15 -86.5q0 -42 17 -73.5t45 -57.5q-54 -43 -76.5 -87.5t-22.5 -102.5q0 -55 25.5 -91t64 -62.5t83 -46.5t83 -42.5t64 -52.5t25.5 -75q0 -65 -42 -98t-107 -33q-58 0 -81.5 24.5t-23.5 59.5q0 19 7 28t7 22q0 20 -14.5 31t-36.5 11
q-19 0 -33 -11.5t-14 -37.5q0 -23 13 -48t38 -46t59.5 -35t78.5 -14q49 0 89 17.5t68 48t43 71t15 86.5q0 42 -18 73.5t-47 57.5q30 25 49.5 47.5t31 44.5t15.5 45.5t4 52.5zM453 146q0 -26 -19.5 -52.5t-45.5 -48.5q-27 23 -59.5 41t-65.5 34.5t-64 32.5t-55 34.5t-38.5 41
t-14.5 51.5q0 26 19.5 53t48.5 49q26 -23 58.5 -41t65 -34.5t63.5 -33t54.5 -35t38 -41t14.5 -51.5z" />
    <glyph glyph-name="dieresis" unicode="&#xa8;" horiz-adv-x="446" 
d="M380 593q0 23 -15.5 38t-36.5 15q-22 0 -37.5 -15t-15.5 -38q0 -22 15.5 -37t37.5 -15q21 0 36.5 15t15.5 37zM171 593q0 23 -15.5 38t-35.5 15q-23 0 -37.5 -15t-14.5 -38q0 -22 14.5 -37t37.5 -15q20 0 35.5 15t15.5 37z" />
    <glyph glyph-name="copyright" unicode="&#xa9;" horiz-adv-x="831" 
d="M777 354q0 77 -28.5 145t-78 118.5t-115 79.5t-140.5 29t-140.5 -29t-115 -79.5t-78 -118.5t-28.5 -145t28.5 -144.5t78 -118t115 -79.5t140.5 -29t140.5 29t115 79.5t78 118t28.5 144.5zM761 354q0 -74 -27.5 -138.5t-74.5 -112.5t-110 -75.5t-134 -27.5t-134 27.5
t-110 75.5t-74 112.5t-27 138.5t27 138.5t74 112.5t110 76t134 28t134 -28t110 -76t74.5 -112.5t27.5 -138.5zM564 138v165q-2 1 -9 1q-6 0 -6 -1q0 -30 -10.5 -57t-28.5 -48t-41.5 -33.5t-50.5 -12.5q-20 0 -36.5 4.5t-28.5 17.5q-22 20 -29.5 65.5t-7.5 120.5t7.5 120
t29.5 65q12 13 27 17.5t35 4.5q22 0 44 -12.5t39.5 -32t28.5 -43t11 -45.5q0 -1 6 -1q7 0 8 1v147q-1 1 -8 1q-6 0 -6 -1q-2 -5 -10 -10t-19 -5q-21 0 -47 8.5t-47 8.5q-42 0 -77 -18t-60.5 -49t-40 -71t-14.5 -85t14.5 -85.5t41 -71t62 -48.5t77.5 -18q12 0 26 3t28 6.5
t27 6.5t23 3q13 0 19.5 -6.5t7.5 -11.5q0 -1 6 -1q7 0 9 1z" />
    <glyph glyph-name="ordfeminine" unicode="&#xaa;" horiz-adv-x="361" 
d="M352 426q1 2 -5.5 6t-7.5 2q-2 -7 -8.5 -12.5t-16.5 -5.5q-7 0 -12 6t-5 20v160q0 70 -35 97t-93 27q-22 0 -42 -6.5t-35 -17t-23.5 -23t-8.5 -24.5q0 -16 9.5 -28.5t30.5 -12.5q19 0 27 10t8 23q0 10 -3.5 16.5t-3.5 17.5q0 17 11 23.5t30 6.5q20 0 29.5 -12.5
t9.5 -51.5v-55q0 -11 -20 -16.5t-51 -7.5q-11 -1 -29 -5t-35 -14.5t-29.5 -29t-12.5 -47.5q0 -21 9.5 -36t25 -24.5t34.5 -14t38 -4.5q32 0 50 11t31 34q8 -23 26.5 -34t40.5 -11q28 0 45 11.5t21 21.5zM208 459q0 -16 -14.5 -31.5t-37.5 -15.5q-17 0 -26 11t-9 49
q0 24 2 39.5t6.5 24.5t10.5 12.5t14 4.5q16 2 30 4.5t24 10.5v-109z" />
    <glyph glyph-name="guillemotleft" unicode="&#xab;" horiz-adv-x="388" 
d="M348 51q0 23 -5.5 47.5t-14 46.5t-19.5 39.5t-21 28.5q10 10 21 28t19.5 40t14 46t5.5 48q0 4 -9 4t-9 -4q0 -29 -17.5 -56t-41 -48t-46 -36t-32.5 -20q-2 -2 0 -4q10 -5 32.5 -20t46 -36t41 -48t17.5 -56q0 -4 9 -4t9 4zM188 51q0 23 -5.5 47.5t-14 46.5t-19 39.5
t-21.5 28.5q11 10 21.5 28t19 40t14 46t5.5 48q0 4 -9 4t-9 -4q0 -29 -17.5 -56t-41 -48t-46 -36t-32.5 -20q-4 -2 0 -4q10 -5 32.5 -20t46 -36t41 -48t17.5 -56q0 -4 9 -4t9 4z" />
    <glyph glyph-name="registered" unicode="&#xae;" horiz-adv-x="831" 
d="M777 354q0 77 -28.5 145t-78 118.5t-115 79.5t-140.5 29t-140.5 -29t-115 -79.5t-78 -118.5t-28.5 -145t28.5 -144.5t78 -118t115 -79.5t140.5 -29t140.5 29t115 79.5t78 118t28.5 144.5zM761 354q0 -74 -27.5 -138.5t-74.5 -112.5t-110 -75.5t-134 -27.5t-134 27.5
t-110 75.5t-74 112.5t-27 138.5t27 138.5t74 112.5t110 76t134 28t134 -28t110 -76t74.5 -112.5t27.5 -138.5zM649 158q1 0 -2.5 6.5t-4.5 5.5q-5 -6 -13.5 -11.5t-19.5 -5.5q-15 0 -24 11t-9 34v54q0 22 -7 42.5t-23 35.5t-42 24t-64 9q27 0 49 8.5t37.5 23t23.5 33.5t8 40
q0 45 -37.5 74.5t-102.5 29.5h-184q-1 0 -1 -8t1 -8h51q4 0 4 -2v-389q0 -2 -4 -2h-51q-1 0 -1 -8t1 -8h189q1 0 1 8t-1 8h-46q-4 0 -4 2v189h33q40 0 62 -17t22 -57v-27q0 -32 9.5 -54t24.5 -36t34 -20t37 -6q20 0 32.5 5.5t21.5 15.5zM474 466q0 -29 -2.5 -47.5t-10 -29.5
t-21 -15t-34.5 -4h-33v184q0 2 4 2h25q21 0 35 -3.5t22 -13.5t11.5 -27.5t3.5 -45.5z" />
    <glyph glyph-name="macron" unicode="&#xaf;" horiz-adv-x="386" 
d="M365 597q1 0 1.5 3.5t0.5 7.5q0 5 -0.5 8.5t-1.5 3.5h-347q-1 0 -1.5 -3.5t-0.5 -8.5q0 -4 0.5 -7.5t1.5 -3.5h347z" />
    <glyph glyph-name="macron" unicode="&#x2c9;" horiz-adv-x="386" 
d="M365 597q1 0 1.5 3.5t0.5 7.5q0 5 -0.5 8.5t-1.5 3.5h-347q-1 0 -1.5 -3.5t-0.5 -8.5q0 -4 0.5 -7.5t1.5 -3.5h347z" />
    <glyph glyph-name="degree" unicode="&#xb0;" horiz-adv-x="273" 
d="M217 636q0 32 -23 54.5t-57 22.5q-16 0 -30.5 -6t-25 -16.5t-17 -24.5t-6.5 -30t6.5 -30t17 -24.5t25 -16.5t30.5 -6q34 0 57 22.5t23 54.5zM200 636q0 -25 -18.5 -43t-44.5 -18t-44 18t-18 43t18 43t44 18t44.5 -18t18.5 -43z" />
    <glyph glyph-name="acute" unicode="&#xb4;" horiz-adv-x="341" 
d="M281 681q0 16 -10.5 26.5t-27.5 10.5q-15 0 -26 -11.5t-22.5 -30t-24.5 -41t-31.5 -43.5t-45.5 -38t-65 -26q-2 -1 -1.5 -8.5t2.5 -7.5q78 18 127.5 40t77 44.5t37.5 44t10 40.5z" />
    <glyph glyph-name="paragraph" unicode="&#xb6;" horiz-adv-x="621" 
d="M583 0q2 0 2 8t-2 8h-76q-5 0 -5 4v669q0 4 5 4h76q2 0 2 8t-2 8h-216q-66 0 -123.5 -28t-101 -76t-68.5 -113t-25 -138t25 -137.5t68.5 -112.5t101 -76t123.5 -28h216zM486 20q0 -4 -7 -4h-66q-5 0 -5 4v669q0 4 5 4h66q7 0 7 -4v-669z" />
    <glyph glyph-name="periodcentered" unicode="&#xb7;" horiz-adv-x="176" 
d="M164 354q0 25 -17.5 42.5t-43.5 17.5q-25 0 -41.5 -17.5t-16.5 -42.5q0 -27 16.5 -45t41.5 -18q26 0 43.5 18t17.5 45z" />
    <glyph glyph-name="cedilla" unicode="&#xb8;" horiz-adv-x="279" 
d="M202 -144q0 29 -11 41.5t-23.5 20t-23.5 17t-11 33.5q0 4 3 11.5t7 12.5q0 2 -5.5 4t-6.5 0q-8 -10 -16 -30t-8 -39q0 -26 11.5 -38.5t25.5 -20.5t25.5 -15t11.5 -20q0 -20 -14 -30.5t-39 -10.5q-17 0 -26.5 5t-9.5 15q0 8 5.5 11t5.5 15q0 11 -7 15.5t-16 4.5
q-12 0 -19 -7.5t-7 -17.5q0 -9 4 -19t13 -18.5t23 -13.5t34 -5q38 0 56 22.5t18 56.5z" />
    <glyph glyph-name="ordmasculine" unicode="&#xba;" horiz-adv-x="395" 
d="M356 560q0 34 -12.5 64.5t-34.5 53t-50.5 35.5t-61.5 13q-32 0 -61 -13t-50.5 -35.5t-34 -53t-12.5 -64.5q0 -35 12.5 -65t34 -53t50.5 -36t61 -13q33 0 61.5 13t50.5 36t34.5 53t12.5 65zM258 560q0 -63 -4.5 -91.5t-17.5 -43.5q-7 -10 -16.5 -13t-22.5 -3q-11 0 -21 3
t-18 13q-12 15 -16.5 43.5t-4.5 91.5q0 54 4.5 87t16.5 47q8 10 18 13.5t21 3.5q13 0 22.5 -3.5t16.5 -13.5q14 -14 18 -47t4 -87z" />
    <glyph glyph-name="guillemotright" unicode="&#xbb;" horiz-adv-x="388" 
d="M355 211q4 2 0 4q-10 5 -32.5 20t-46 36t-41 48t-17.5 56q0 4 -9 4q-8 0 -8 -4q0 -24 5.5 -48t13.5 -46t18.5 -40t21.5 -28q-11 -11 -21.5 -28.5t-18.5 -39.5t-13.5 -46.5t-5.5 -47.5q0 -4 8 -4q9 0 9 4q0 29 17.5 56t41 48t46 36t32.5 20zM195 211q4 2 0 4
q-10 5 -32.5 20t-46 36t-41 48t-17.5 56q0 4 -9 4q-8 0 -8 -4q0 -24 5.5 -48t13.5 -46t18.5 -40t21.5 -28q-11 -11 -21.5 -28.5t-18.5 -39.5t-13.5 -46.5t-5.5 -47.5q0 -4 8 -4q9 0 9 4q0 29 17.5 56t41 48t46 36t32.5 20z" />
    <glyph glyph-name="questiondown" unicode="&#xbf;" horiz-adv-x="409" 
d="M339 366q0 26 -18 45t-44 19t-44 -19t-18 -45q0 -27 18 -46.5t44 -19.5t44 19.5t18 46.5zM432 -155q0 32 -17.5 48t-45.5 16q-29 0 -45.5 -16t-16.5 -36q0 -14 2.5 -21t5.5 -13.5t5.5 -15t2.5 -23.5q0 -39 -20 -58t-58 -19q-20 0 -37 4.5t-28 16.5q-10 10 -17 23.5
t-11 33t-5.5 47.5t-1.5 67q0 54 0.5 86.5t2 50.5t4.5 26.5t9 14.5q15 18 44 18q19 0 42 -7.5t34 -27.5q5 -3 5 2q0 1 -0.5 1.5t-0.5 2.5v174q0 2 -8 2q-7 0 -7 -2v-148q-14 11 -32.5 15t-32.5 4q-37 0 -70 -16t-58.5 -44.5t-40.5 -67t-15 -84.5t17 -84.5t47 -66t71 -42.5
t89 -15q35 0 68.5 14.5t60 37t42.5 50t16 52.5z" />
    <glyph glyph-name="Agrave" unicode="&#xc0;" 
d="M684 0q2 0 2 8t-2 8h-86q-7 0 -7 3l-261 704q-1 2 -8 2t-8 -2l-235 -665q-10 -29 -13.5 -35.5t-10.5 -6.5h-76q-2 0 -2 -8t2 -8h192q2 0 2 8t-2 8h-85q-4 0 -2.5 7.5t10.5 34.5l63 176h211l73 -215q0 -3 -5 -3h-87q-2 0 -2 -8t2 -8h335zM363 250h-201l103 293zM370 783
q-38 8 -64.5 25.5t-45.5 38.5t-32.5 43.5t-24.5 41t-22 30t-26 11.5q-17 0 -28 -10.5t-11 -26.5q0 -19 10.5 -40.5t38 -44t77 -44.5t127.5 -40q2 0 2.5 7.5t-1.5 8.5z" />
    <glyph glyph-name="Aacute" unicode="&#xc1;" 
d="M684 0q2 0 2 8t-2 8h-86q-7 0 -7 3l-261 704q-1 2 -8 2t-8 -2l-235 -665q-10 -29 -13.5 -35.5t-10.5 -6.5h-76q-2 0 -2 -8t2 -8h192q2 0 2 8t-2 8h-85q-4 0 -2.5 7.5t10.5 34.5l63 176h211l73 -215q0 -3 -5 -3h-87q-2 0 -2 -8t2 -8h335zM363 250h-201l103 293zM545 936
q0 16 -10.5 26.5t-27.5 10.5q-15 0 -26 -11.5t-22.5 -30t-24.5 -41t-31.5 -43.5t-45.5 -38t-65 -26q-2 -1 -1.5 -8.5t2.5 -7.5q78 18 127.5 40t77 44.5t37.5 44t10 40.5z" />
    <glyph glyph-name="Acircumflex" unicode="&#xc2;" 
d="M684 0q2 0 2 8t-2 8h-86q-7 0 -7 3l-261 704q-1 2 -8 2t-8 -2l-235 -665q-10 -29 -13.5 -35.5t-10.5 -6.5h-76q-2 0 -2 -8t2 -8h192q2 0 2 8t-2 8h-85q-4 0 -2.5 7.5t10.5 34.5l63 176h211l73 -215q0 -3 -5 -3h-87q-2 0 -2 -8t2 -8h335zM363 250h-201l103 293zM477 779
q-45 49 -81.5 90t-61.5 79q-3 2 -4 0q-26 -38 -62.5 -78.5t-81.5 -90.5q-1 -2 2.5 -6.5t5.5 -2.5l133 91l141 -91q2 -2 6 2.5t3 6.5z" />
    <glyph glyph-name="Atilde" unicode="&#xc3;" 
d="M684 0q2 0 2 8t-2 8h-86q-7 0 -7 3l-261 704q-1 2 -8 2t-8 -2l-235 -665q-10 -29 -13.5 -35.5t-10.5 -6.5h-76q-2 0 -2 -8t2 -8h192q2 0 2 8t-2 8h-85q-4 0 -2.5 7.5t10.5 34.5l63 176h211l73 -215q0 -3 -5 -3h-87q-2 0 -2 -8t2 -8h335zM363 250h-201l103 293zM513 919
q0 2 -8 2q-7 0 -7 -2q0 -25 -13 -40t-34 -15q-18 0 -36.5 8t-38.5 17t-43 17t-49 8q-24 0 -45.5 -9t-38 -24.5t-26 -36.5t-9.5 -45q0 -2 8 -2t8 2q0 25 12.5 40.5t33.5 15.5q17 0 35.5 -8t39.5 -17.5t44 -17.5t49 -8q24 0 45 9t37.5 24.5t26 36.5t9.5 45z" />
    <glyph glyph-name="Adieresis" unicode="&#xc4;" 
d="M684 0q2 0 2 8t-2 8h-86q-7 0 -7 3l-261 704q-1 2 -8 2t-8 -2l-235 -665q-10 -29 -13.5 -35.5t-10.5 -6.5h-76q-2 0 -2 -8t2 -8h192q2 0 2 8t-2 8h-85q-4 0 -2.5 7.5t10.5 34.5l63 176h211l73 -215q0 -3 -5 -3h-87q-2 0 -2 -8t2 -8h335zM363 250h-201l103 293zM487 848
q0 23 -15.5 38t-36.5 15q-22 0 -37.5 -15t-15.5 -38q0 -22 15.5 -37t37.5 -15q21 0 36.5 15t15.5 37zM278 848q0 23 -15.5 38t-35.5 15q-23 0 -37.5 -15t-14.5 -38q0 -22 14.5 -37t37.5 -15q20 0 35.5 15t15.5 37z" />
    <glyph glyph-name="Aring" unicode="&#xc5;" 
d="M684 0q2 0 2 8t-2 8h-86q-7 0 -7 3l-259 700q29 4 48.5 25.5t19.5 50.5q0 32 -22.5 54.5t-56.5 22.5q-16 0 -30.5 -6t-25.5 -16.5t-17.5 -24.5t-6.5 -30q0 -29 21 -51t50 -25l-233 -661q-10 -29 -13.5 -35.5t-10.5 -6.5h-76q-2 0 -2 -8t2 -8h192q2 0 2 8t-2 8h-85
q-4 0 -2.5 7.5t10.5 34.5l63 176h211l73 -215q3 -3 -5 -3h-87q-2 0 -2 -8t2 -8h335zM384 795q0 -25 -18.5 -43t-44.5 -18t-44.5 18t-18.5 43t18.5 43t44.5 18t44.5 -18t18.5 -43zM363 250h-201l103 293z" />
    <glyph glyph-name="AE" unicode="&#xc6;" horiz-adv-x="926" 
d="M901 3v235q0 2 -8 2q-7 0 -7 -2q0 -39 -13 -78.5t-40.5 -71.5t-70.5 -52t-103 -20h-97q-5 0 -5 4v336h20q30 0 53 -11.5t39 -31t24.5 -44t8.5 -49.5q0 -2 7 -2t7 2v288q0 2 -7 2t-7 -2q0 -26 -8.5 -50.5t-24.5 -43.5t-39 -30.5t-53 -11.5h-20v317q0 4 5 4h94
q46 0 79.5 -18.5t55.5 -47.5t33 -65t11 -71q0 -1 7 -1q8 0 8 1v215q0 3 -3 3h-526q-2 0 -2 -8t2 -8h86l-349 -635q-16 -29 -21 -35.5t-11 -6.5h-68q-3 0 0 -16h184q3 16 0 16h-82q-5 0 -2 7.5t19 34.5l123 226h217v-264q0 -4 -6 -4h-87q-2 0 -2 -8t2 -8h574q3 0 3 3z
M417 299h-209l209 382v-382z" />
    <glyph glyph-name="Ccedilla" unicode="&#xc7;" horiz-adv-x="658" 
d="M606 -15v274q0 2 -8 2q-7 0 -7 -2q0 -49 -17.5 -96t-47.5 -83.5t-69.5 -59t-84.5 -22.5q-33 0 -60 8t-47 30q-34 35 -48 112t-14 206t14 206.5t48 112.5q20 21 44.5 29t57.5 8q36 0 73 -21.5t66 -55t47.5 -73.5t18.5 -77q0 -2 7 -2q8 0 8 2v240q0 2 -8 2q-7 0 -7 -2
q-2 -8 -14.5 -16t-33.5 -8q-17 0 -37 4t-40.5 9.5t-41 9.5t-38.5 4q-69 0 -127.5 -30t-101 -81t-66 -118.5t-23.5 -142.5q0 -72 23 -137t63.5 -116t96 -82.5t121.5 -35.5q-6 -11 -11.5 -27.5t-5.5 -30.5q0 -26 11.5 -39t25.5 -21t25.5 -14.5t11.5 -20.5q0 -19 -14 -30
t-40 -11q-17 0 -26.5 5t-9.5 15q0 8 5.5 11t5.5 15q0 11 -7 15.5t-16 4.5q-12 0 -18.5 -7.5t-6.5 -17.5q0 -19 16.5 -38t56.5 -19q38 0 57 23.5t19 57.5q0 29 -11 41t-24.5 20t-24.5 17.5t-11 33.5q0 2 2 7l4 10q22 -1 46.5 4t48 11t45.5 11.5t40 5.5q20 0 31 -10.5
t13 -19.5q1 -1 8 -1t7 1z" />
    <glyph glyph-name="Egrave" unicode="&#xc8;" horiz-adv-x="639" 
d="M615 3v235q0 2 -8 2q-7 0 -7 -2q0 -39 -13 -78.5t-40.5 -71.5t-71 -52t-103.5 -20h-95q-7 0 -7 4v336h21q29 0 52 -11.5t39 -31t24.5 -44t8.5 -49.5q0 -2 7 -2q8 0 8 2v288q0 2 -8 2q-7 0 -7 -2q0 -26 -8.5 -50.5t-24.5 -43.5t-39 -30.5t-52 -11.5h-21v317q0 4 7 4h92
q46 0 80 -18.5t56 -47.5t32.5 -65t10.5 -71q0 -1 8 -1t8 1v215q0 3 -4 3h-523q-2 0 -2 -8t2 -8h87q6 0 6 -4v-669q0 -4 -6 -4h-87q-2 0 -2 -8t2 -8h575q3 0 3 3zM438 783q-38 8 -64.5 25.5t-45.5 38.5t-32.5 43.5t-24.5 41t-22 30t-26 11.5q-17 0 -28 -10.5t-11 -26.5
q0 -19 10.5 -40.5t38 -44t77 -44.5t127.5 -40q2 0 2.5 7.5t-1.5 8.5z" />
    <glyph glyph-name="Eacute" unicode="&#xc9;" horiz-adv-x="639" 
d="M615 3v235q0 2 -8 2q-7 0 -7 -2q0 -39 -13 -78.5t-40.5 -71.5t-71 -52t-103.5 -20h-95q-7 0 -7 4v336h21q29 0 52 -11.5t39 -31t24.5 -44t8.5 -49.5q0 -2 7 -2q8 0 8 2v288q0 2 -8 2q-7 0 -7 -2q0 -26 -8.5 -50.5t-24.5 -43.5t-39 -30.5t-52 -11.5h-21v317q0 4 7 4h92
q46 0 80 -18.5t56 -47.5t32.5 -65t10.5 -71q0 -1 8 -1t8 1v215q0 3 -4 3h-523q-2 0 -2 -8t2 -8h87q6 0 6 -4v-669q0 -4 -6 -4h-87q-2 0 -2 -8t2 -8h575q3 0 3 3zM499 936q0 16 -10.5 26.5t-27.5 10.5q-15 0 -26 -11.5t-22.5 -30t-24.5 -41t-31.5 -43.5t-45.5 -38t-65 -26
q-2 -1 -1.5 -8.5t2.5 -7.5q78 18 127.5 40t77 44.5t37.5 44t10 40.5z" />
    <glyph glyph-name="Ecircumflex" unicode="&#xca;" horiz-adv-x="639" 
d="M615 3v235q0 2 -8 2q-7 0 -7 -2q0 -39 -13 -78.5t-40.5 -71.5t-71 -52t-103.5 -20h-95q-7 0 -7 4v336h21q29 0 52 -11.5t39 -31t24.5 -44t8.5 -49.5q0 -2 7 -2q8 0 8 2v288q0 2 -8 2q-7 0 -7 -2q0 -26 -8.5 -50.5t-24.5 -43.5t-39 -30.5t-52 -11.5h-21v317q0 4 7 4h92
q46 0 80 -18.5t56 -47.5t32.5 -65t10.5 -71q0 -1 8 -1t8 1v215q0 3 -4 3h-523q-2 0 -2 -8t2 -8h87q6 0 6 -4v-669q0 -4 -6 -4h-87q-2 0 -2 -8t2 -8h575q3 0 3 3zM474 779q-45 49 -81.5 90t-61.5 79q-3 2 -4 0q-26 -38 -62.5 -78.5t-81.5 -90.5q-1 -2 2.5 -6.5t5.5 -2.5
l133 91l141 -91q2 -2 6 2.5t3 6.5z" />
    <glyph glyph-name="Edieresis" unicode="&#xcb;" horiz-adv-x="639" 
d="M615 3v235q0 2 -8 2q-7 0 -7 -2q0 -39 -13 -78.5t-40.5 -71.5t-71 -52t-103.5 -20h-95q-7 0 -7 4v336h21q29 0 52 -11.5t39 -31t24.5 -44t8.5 -49.5q0 -2 7 -2q8 0 8 2v288q0 2 -8 2q-7 0 -7 -2q0 -26 -8.5 -50.5t-24.5 -43.5t-39 -30.5t-52 -11.5h-21v317q0 4 7 4h92
q46 0 80 -18.5t56 -47.5t32.5 -65t10.5 -71q0 -1 8 -1t8 1v215q0 3 -4 3h-523q-2 0 -2 -8t2 -8h87q6 0 6 -4v-669q0 -4 -6 -4h-87q-2 0 -2 -8t2 -8h575q3 0 3 3zM483 848q0 23 -15.5 38t-36.5 15q-22 0 -37.5 -15t-15.5 -38q0 -22 15.5 -37t37.5 -15q21 0 36.5 15t15.5 37z
M274 848q0 23 -15.5 38t-35.5 15q-23 0 -37.5 -15t-14.5 -38q0 -22 14.5 -37t37.5 -15q20 0 35.5 15t15.5 37z" />
    <glyph glyph-name="Igrave" unicode="&#xcc;" horiz-adv-x="377" 
d="M364 0q2 0 2 8t-2 8h-87q-6 0 -6 4v669q0 4 6 4h87q2 0 2 8t-2 8h-326q-2 0 -2 -8t2 -8h87q5 0 5 -4v-669q0 -4 -5 -4h-87q-2 0 -2 -8t2 -8h326zM322 783q-38 8 -64.5 25.5t-45.5 38.5t-32.5 43.5t-24.5 41t-22 30t-26 11.5q-17 0 -28 -10.5t-11 -26.5q0 -19 10.5 -40.5
t38 -44t77 -44.5t127.5 -40q2 0 2.5 7.5t-1.5 8.5z" />
    <glyph glyph-name="Iacute" unicode="&#xcd;" horiz-adv-x="377" 
d="M364 0q2 0 2 8t-2 8h-87q-6 0 -6 4v669q0 4 6 4h87q2 0 2 8t-2 8h-326q-2 0 -2 -8t2 -8h87q5 0 5 -4v-669q0 -4 -5 -4h-87q-2 0 -2 -8t2 -8h326zM344 936q0 16 -10.5 26.5t-27.5 10.5q-15 0 -26 -11.5t-22.5 -30t-24.5 -41t-31.5 -43.5t-45.5 -38.5t-65 -25.5
q-2 -1 -1.5 -8.5t2.5 -7.5q78 18 127.5 40t77 44.5t37.5 44t10 40.5z" />
    <glyph glyph-name="Icircumflex" unicode="&#xce;" horiz-adv-x="377" 
d="M364 0q2 0 2 8t-2 8h-87q-6 0 -6 4v669q0 4 6 4h87q2 0 2 8t-2 8h-326q-2 0 -2 -8t2 -8h87q5 0 5 -4v-669q0 -4 -5 -4h-87q-2 0 -2 -8t2 -8h326zM351 779q-45 49 -81.5 90t-61.5 79q-3 2 -4 0q-26 -38 -62.5 -78.5t-81.5 -90.5q-1 -2 2.5 -6.5t5.5 -2.5l133 91l141 -91
q2 -2 6 2.5t3 6.5z" />
    <glyph glyph-name="Idieresis" unicode="&#xcf;" horiz-adv-x="377" 
d="M364 0q2 0 2 8t-2 8h-87q-6 0 -6 4v669q0 4 6 4h87q2 0 2 8t-2 8h-326q-2 0 -2 -8t2 -8h87q5 0 5 -4v-669q0 -4 -5 -4h-87q-2 0 -2 -8t2 -8h326zM358 848q0 23 -15.5 38t-36.5 15q-22 0 -37.5 -15t-15.5 -38q0 -22 15.5 -37t37.5 -15q21 0 36.5 15t15.5 37zM149 848
q0 23 -15.5 38t-35.5 15q-23 0 -37.5 -15t-14.5 -38q0 -22 14.5 -37t37.5 -15q20 0 35.5 15t15.5 37z" />
    <glyph glyph-name="Ntilde" unicode="&#xd1;" horiz-adv-x="713" 
d="M698 693q1 0 1 8t-1 8h-200q-3 0 -3 -8t3 -8h85q6 0 6 -4v-458l-291 460q-6 11 -11 14.5t-10 3.5h-244q-2 0 -2 -8t2 -8h86q6 0 6 -4v-669q0 -4 -6 -4h-86q-2 0 -2 -8t2 -8h201q2 0 2 8t-2 8h-87q-5 0 -5 4v660l446 -693q2 -3 9.5 -2.5t7.5 2.5v702q0 4 6 4h87zM562 919
q0 2 -8 2q-7 0 -7 -2q0 -25 -13 -40t-34 -15q-18 0 -36.5 8t-38.5 17t-43 17t-49 8q-24 0 -45.5 -9t-38 -24.5t-26 -36.5t-9.5 -45q0 -2 8 -2t8 2q0 25 12.5 40.5t33.5 15.5q17 0 35.5 -8t39.5 -17.5t44 -17.5t49 -8q24 0 45 9t37.5 24.5t26 36.5t9.5 45z" />
    <glyph glyph-name="Ograve" unicode="&#xd2;" horiz-adv-x="736" 
d="M686 354q0 77 -25 145t-68 118.5t-101.5 79.5t-124.5 29q-69 0 -127.5 -30t-101 -81t-66 -118.5t-23.5 -142.5q0 -77 25 -144.5t68.5 -118t101 -79.5t123.5 -29t124.5 29t101.5 79.5t68 118t25 144.5zM532 354q0 -74 -3.5 -126t-11 -89t-19 -61t-28.5 -42
q-20 -22 -45.5 -30t-57.5 -8q-31 0 -56.5 8t-45.5 30q-17 18 -28.5 42t-19 61t-11 89t-3.5 126q0 129 14 206.5t48 112.5q20 21 45.5 29t56.5 8q32 0 57.5 -8t45.5 -29q34 -35 48 -112.5t14 -206.5zM430 783q-38 8 -64.5 25.5t-45.5 38.5t-32.5 43.5t-24.5 41t-22 30
t-26 11.5q-17 0 -28 -10.5t-11 -26.5q0 -19 10.5 -40.5t38 -44t77 -44.5t127.5 -40q2 0 2.5 7.5t-1.5 8.5z" />
    <glyph glyph-name="Oacute" unicode="&#xd3;" horiz-adv-x="736" 
d="M686 354q0 77 -25 145t-68 118.5t-101.5 79.5t-124.5 29q-69 0 -127.5 -30t-101 -81t-66 -118.5t-23.5 -142.5q0 -77 25 -144.5t68.5 -118t101 -79.5t123.5 -29t124.5 29t101.5 79.5t68 118t25 144.5zM532 354q0 -74 -3.5 -126t-11 -89t-19 -61t-28.5 -42
q-20 -22 -45.5 -30t-57.5 -8q-31 0 -56.5 8t-45.5 30q-17 18 -28.5 42t-19 61t-11 89t-3.5 126q0 129 14 206.5t48 112.5q20 21 45.5 29t56.5 8q32 0 57.5 -8t45.5 -29q34 -35 48 -112.5t14 -206.5zM549 936q0 16 -10.5 26.5t-27.5 10.5q-15 0 -26 -11.5t-22.5 -30
t-24.5 -41t-31.5 -43.5t-45.5 -38t-65 -26q-2 -1 -1.5 -8.5t2.5 -7.5q78 18 127.5 40t77 44.5t37.5 44t10 40.5z" />
    <glyph glyph-name="Ocircumflex" unicode="&#xd4;" horiz-adv-x="736" 
d="M686 354q0 77 -25 145t-68 118.5t-101.5 79.5t-124.5 29q-69 0 -127.5 -30t-101 -81t-66 -118.5t-23.5 -142.5q0 -77 25 -144.5t68.5 -118t101 -79.5t123.5 -29t124.5 29t101.5 79.5t68 118t25 144.5zM532 354q0 -74 -3.5 -126t-11 -89t-19 -61t-28.5 -42
q-20 -22 -45.5 -30t-57.5 -8q-31 0 -56.5 8t-45.5 30q-17 18 -28.5 42t-19 61t-11 89t-3.5 126q0 129 14 206.5t48 112.5q20 21 45.5 29t56.5 8q32 0 57.5 -8t45.5 -29q34 -35 48 -112.5t14 -206.5zM519 779q-45 49 -81.5 90t-61.5 79q-3 2 -4 0q-26 -38 -62.5 -78.5
t-81.5 -90.5q-1 -2 2.5 -6.5t5.5 -2.5l133 91l141 -91q2 -2 6 2.5t3 6.5z" />
    <glyph glyph-name="Otilde" unicode="&#xd5;" horiz-adv-x="752" 
d="M686 354q0 77 -25 145t-68 118.5t-101.5 79.5t-124.5 29q-69 0 -127.5 -30t-101 -81t-66 -118.5t-23.5 -142.5q0 -77 25 -144.5t68.5 -118t101 -79.5t123.5 -29t124.5 29t101.5 79.5t68 118t25 144.5zM532 354q0 -74 -3.5 -126t-11 -89t-19 -61t-28.5 -42
q-20 -22 -45.5 -30t-57.5 -8q-31 0 -56.5 8t-45.5 30q-17 18 -28.5 42t-19 61t-11 89t-3.5 126q0 129 14 206.5t48 112.5q20 21 45.5 29t56.5 8q32 0 57.5 -8t45.5 -29q34 -35 48 -112.5t14 -206.5zM544 919q0 2 -8 2q-7 0 -7 -2q0 -25 -13 -40t-34 -15q-18 0 -36.5 8
t-38.5 17t-43 17t-49 8q-24 0 -45.5 -9t-38 -24.5t-26 -36.5t-9.5 -45q0 -2 8 -2t8 2q0 25 12.5 40.5t33.5 15.5q17 0 35.5 -8t39.5 -17.5t44 -17.5t49 -8q24 0 45 9t37.5 24.5t26 36.5t9.5 45z" />
    <glyph glyph-name="Odieresis" unicode="&#xd6;" horiz-adv-x="736" 
d="M686 354q0 77 -25 145t-68 118.5t-101.5 79.5t-124.5 29q-69 0 -127.5 -30t-101 -81t-66 -118.5t-23.5 -142.5q0 -77 25 -144.5t68.5 -118t101 -79.5t123.5 -29t124.5 29t101.5 79.5t68 118t25 144.5zM532 354q0 -74 -3.5 -126t-11 -89t-19 -61t-28.5 -42
q-20 -22 -45.5 -30t-57.5 -8q-31 0 -56.5 8t-45.5 30q-17 18 -28.5 42t-19 61t-11 89t-3.5 126q0 129 14 206.5t48 112.5q20 21 45.5 29t56.5 8q32 0 57.5 -8t45.5 -29q34 -35 48 -112.5t14 -206.5zM523 848q0 23 -15.5 38t-36.5 15q-22 0 -37.5 -15t-15.5 -38
q0 -22 15.5 -37t37.5 -15q21 0 36.5 15t15.5 37zM314 848q0 23 -15.5 38t-35.5 15q-23 0 -37.5 -15t-14.5 -38q0 -22 14.5 -37t37.5 -15q20 0 35.5 15t15.5 37z" />
    <glyph glyph-name="Oslash" unicode="&#xd8;" horiz-adv-x="736" 
d="M686 354q0 94 -36 172.5t-97 129.5q20 34 29.5 51l9.5 17q1 2 -5.5 6.5t-7.5 2.5l-6.5 -11.5t-14.5 -25t-14 -23.5t-4 -6q-38 29 -81.5 44t-91.5 15q-69 0 -127.5 -30t-101 -81t-66 -118.5t-23.5 -142.5q0 -94 36.5 -173t98.5 -130l-40 -68q-1 -1 6.5 -5.5t8.5 -2.5
l6.5 11.5t14 25t13 23t4.5 5.5q36 -27 79 -42t91 -15q66 0 124.5 29t101.5 79.5t68 118t25 144.5zM507 609l-286 -492q-9 38 -13.5 95t-4.5 142q0 129 14 206.5t48 112.5q20 21 45.5 29t56.5 8q32 0 57.5 -8t45.5 -29q12 -12 20.5 -28t16.5 -36zM532 354q0 -74 -3.5 -126
t-11 -89t-19 -61t-28.5 -42q-20 -22 -45.5 -30t-57.5 -8q-31 0 -56.5 8t-45.5 30q-11 12 -20 26.5t-16 33.5l21 36.5t52.5 91.5t68 118.5t68 118.5t52.5 91l21 36q11 -42 15.5 -100t4.5 -134z" />
    <glyph glyph-name="Ugrave" unicode="&#xd9;" horiz-adv-x="701" 
d="M691 693q2 0 2 8t-2 8h-204q-2 0 -2 -8t2 -8h90q6 0 6 -4v-479q0 -45 -11.5 -82t-35 -64t-60.5 -41.5t-88 -14.5q-41 0 -67 13t-42 37.5t-22 59.5t-6 80v491q0 4 7 4h86q2 0 2 8t-2 8h-324q-2 0 -2 -8t2 -8h86q5 0 5 -4v-491q0 -56 18.5 -96.5t52 -67t80 -39t101.5 -12.5
q61 0 106 16t73.5 45.5t42.5 71.5t14 94v479q0 4 5 4h87zM489 783q-38 8 -64.5 25.5t-45.5 38.5t-32.5 43.5t-24.5 41t-22 30t-26 11.5q-17 0 -28 -10.5t-11 -26.5q0 -19 10.5 -40.5t38 -44t77 -44.5t127.5 -40q2 0 2.5 7.5t-1.5 8.5z" />
    <glyph glyph-name="Uacute" unicode="&#xda;" horiz-adv-x="701" 
d="M691 693q2 0 2 8t-2 8h-204q-2 0 -2 -8t2 -8h90q6 0 6 -4v-479q0 -45 -11.5 -82t-35 -64t-60.5 -41.5t-88 -14.5q-41 0 -67 13t-42 37.5t-22 59.5t-6 80v491q0 4 7 4h86q2 0 2 8t-2 8h-324q-2 0 -2 -8t2 -8h86q5 0 5 -4v-491q0 -56 18.5 -96.5t52 -67t80 -39t101.5 -12.5
q61 0 106 16t73.5 45.5t42.5 71.5t14 94v479q0 4 5 4h87zM556 936q0 16 -10.5 26.5t-27.5 10.5q-15 0 -26 -11.5t-22.5 -30t-24.5 -41t-31.5 -43.5t-45.5 -38t-65 -26q-2 -1 -1.5 -8.5t2.5 -7.5q78 18 127.5 40t77 44.5t37.5 44t10 40.5z" />
    <glyph glyph-name="Ucircumflex" unicode="&#xdb;" horiz-adv-x="701" 
d="M691 693q2 0 2 8t-2 8h-204q-2 0 -2 -8t2 -8h90q6 0 6 -4v-479q0 -45 -11.5 -82t-35 -64t-60.5 -41.5t-88 -14.5q-41 0 -67 13t-42 37.5t-22 59.5t-6 80v491q0 4 7 4h86q2 0 2 8t-2 8h-324q-2 0 -2 -8t2 -8h86q5 0 5 -4v-491q0 -56 18.5 -96.5t52 -67t80 -39t101.5 -12.5
q61 0 106 16t73.5 45.5t42.5 71.5t14 94v479q0 4 5 4h87zM541 779q-45 49 -81.5 90t-61.5 79q-3 2 -4 0q-26 -38 -62.5 -78.5t-81.5 -90.5q-1 -2 2.5 -6.5t5.5 -2.5l133 91l141 -91q2 -2 6 2.5t3 6.5z" />
    <glyph glyph-name="Udieresis" unicode="&#xdc;" horiz-adv-x="701" 
d="M691 693q2 0 2 8t-2 8h-204q-2 0 -2 -8t2 -8h90q6 0 6 -4v-479q0 -45 -11.5 -82t-35 -64t-60.5 -41.5t-88 -14.5q-41 0 -67 13t-42 37.5t-22 59.5t-6 80v491q0 4 7 4h86q2 0 2 8t-2 8h-324q-2 0 -2 -8t2 -8h86q5 0 5 -4v-491q0 -56 18.5 -96.5t52 -67t80 -39t101.5 -12.5
q61 0 106 16t73.5 45.5t42.5 71.5t14 94v479q0 4 5 4h87zM555 848q0 23 -15.5 38t-36.5 15q-22 0 -37.5 -15t-15.5 -38q0 -22 15.5 -37t37.5 -15q21 0 36.5 15t15.5 37zM346 848q0 23 -15.5 38t-35.5 15q-23 0 -37.5 -15t-14.5 -38q0 -22 14.5 -37t37.5 -15q20 0 35.5 15
t15.5 37z" />
    <glyph glyph-name="germandbls" unicode="&#xdf;" horiz-adv-x="605" 
d="M549 193q0 43 -11 83.5t-32 72t-51.5 50t-69.5 18.5q-9 0 -16 0.5t-19 -1.5q68 25 100 64.5t32 102.5q0 36 -13.5 66t-38.5 51t-60.5 32.5t-78.5 11.5q-39 0 -74.5 -16t-63 -51.5t-44 -91.5t-16.5 -136v-429q0 -2 -0.5 -3t-5.5 -1h-56q-2 0 -2 -8t2 -8h237q2 0 2 8t-2 8
h-56q-7 0 -7 4v583q0 63 24 94t62 31q53 0 71.5 -34t18.5 -109q0 -42 -4 -70.5t-13.5 -48t-26.5 -34t-42 -28.5q-1 -1 3 -8t6 -6q10 7 19.5 9.5t18.5 2.5q26 0 44.5 -11.5t30.5 -37t17.5 -67.5t5.5 -103t-3 -96t-9.5 -53t-17 -22.5t-26.5 -4.5q-23 0 -37.5 14t-14.5 41
q0 14 5 21t5 17q0 15 -10 23t-26 8q-14 0 -23.5 -10.5t-9.5 -28.5q0 -16 8 -33.5t22.5 -32.5t35 -25t45.5 -10t54 11.5t53.5 36.5t41 63t16.5 91z" />
    <glyph glyph-name="agrave" unicode="&#xe0;" horiz-adv-x="463" 
d="M460 31q1 2 -4.5 6.5t-6.5 2.5q-2 -8 -10.5 -15t-21.5 -7q-24 0 -24 34v203q0 94 -47 137.5t-126 43.5q-31 0 -57 -8t-44.5 -21t-29 -28t-10.5 -30q0 -19 11.5 -34t36.5 -15q26 0 37.5 11.5t11.5 27.5q0 13 -4 20t-4 21t4.5 22t12 12t16.5 5t19 1q14 0 25.5 -3t19.5 -12
t12.5 -27t4.5 -48v-76q0 -16 -30.5 -21t-73.5 -9q-15 -2 -39.5 -7t-47 -18.5t-39 -38t-16.5 -63.5q0 -30 13.5 -50t34.5 -32t47.5 -17.5t52.5 -5.5q39 0 65 17t36 49q3 -14 12 -26t22 -21t29 -14t32 -5q30 0 52.5 12.5t27.5 26.5zM282 110q0 -41 -22 -69.5t-58 -28.5
q-33 0 -44.5 20t-11.5 65q0 34 3 55t9.5 33t16.5 16.5t23 7.5q23 4 44.5 6.5t39.5 13.5v-119zM339 528q-38 8 -64.5 25.5t-45.5 38.5t-32.5 43.5t-24.5 41t-22 30t-26 11.5q-17 0 -28 -10.5t-11 -26.5q0 -19 10.5 -40.5t38 -44t77 -44.5t127.5 -40q2 0 2.5 7.5t-1.5 8.5z
" />
    <glyph glyph-name="aacute" unicode="&#xe1;" horiz-adv-x="463" 
d="M460 31q1 2 -4.5 6.5t-6.5 2.5q-2 -8 -10.5 -15t-21.5 -7q-24 0 -24 34v203q0 94 -47 137.5t-126 43.5q-31 0 -57 -8t-44.5 -21t-29 -28t-10.5 -30q0 -19 11.5 -34t36.5 -15q26 0 37.5 11.5t11.5 27.5q0 13 -4 20t-4 21t4.5 22t12 12t16.5 5t19 1q14 0 25.5 -3t19.5 -12
t12.5 -27t4.5 -48v-76q0 -16 -30.5 -21t-73.5 -9q-15 -2 -39.5 -7t-47 -18.5t-39 -38t-16.5 -63.5q0 -30 13.5 -50t34.5 -32t47.5 -17.5t52.5 -5.5q39 0 65 17t36 49q3 -14 12 -26t22 -21t29 -14t32 -5q30 0 52.5 12.5t27.5 26.5zM282 110q0 -41 -22 -69.5t-58 -28.5
q-33 0 -44.5 20t-11.5 65q0 34 3 55t9.5 33t16.5 16.5t23 7.5q23 4 44.5 6.5t39.5 13.5v-119zM400 681q0 16 -10.5 26.5t-27.5 10.5q-15 0 -26 -11.5t-22.5 -30t-24.5 -41t-31.5 -43.5t-45.5 -38t-65 -26q-2 -1 -1.5 -8.5t2.5 -7.5q78 18 127.5 40t77 44.5t37.5 44t10 40.5z
" />
    <glyph glyph-name="acircumflex" unicode="&#xe2;" horiz-adv-x="463" 
d="M460 31q1 2 -4.5 6.5t-6.5 2.5q-2 -8 -10.5 -15t-21.5 -7q-24 0 -24 34v203q0 94 -47 137.5t-126 43.5q-31 0 -57 -8t-44.5 -21t-29 -28t-10.5 -30q0 -19 11.5 -34t36.5 -15q26 0 37.5 11.5t11.5 27.5q0 13 -4 20t-4 21t4.5 22t12 12t16.5 5t19 1q14 0 25.5 -3t19.5 -12
t12.5 -27t4.5 -48v-76q0 -16 -30.5 -21t-73.5 -9q-15 -2 -39.5 -7t-47 -18.5t-39 -38t-16.5 -63.5q0 -30 13.5 -50t34.5 -32t47.5 -17.5t52.5 -5.5q39 0 65 17t36 49q3 -14 12 -26t22 -21t29 -14t32 -5q30 0 52.5 12.5t27.5 26.5zM282 110q0 -41 -22 -69.5t-58 -28.5
q-33 0 -44.5 20t-11.5 65q0 34 3 55t9.5 33t16.5 16.5t23 7.5q23 4 44.5 6.5t39.5 13.5v-119zM385 524q-45 49 -81.5 90t-61.5 79q-3 2 -4 0q-26 -38 -62.5 -78.5t-81.5 -90.5q-1 -2 2.5 -6.5t5.5 -2.5l133 91l141 -91q2 -2 6 2.5t3 6.5z" />
    <glyph glyph-name="atilde" unicode="&#xe3;" horiz-adv-x="463" 
d="M460 31q1 2 -4.5 6.5t-6.5 2.5q-2 -8 -10.5 -15t-21.5 -7q-24 0 -24 34v203q0 94 -47 137.5t-126 43.5q-31 0 -57 -8t-44.5 -21t-29 -28t-10.5 -30q0 -19 11.5 -34t36.5 -15q26 0 37.5 11.5t11.5 27.5q0 13 -4 20t-4 21t4.5 22t12 12t16.5 5t19 1q14 0 25.5 -3t19.5 -12
t12.5 -27t4.5 -48v-76q0 -16 -30.5 -21t-73.5 -9q-15 -2 -39.5 -7t-47 -18.5t-39 -38t-16.5 -63.5q0 -30 13.5 -50t34.5 -32t47.5 -17.5t52.5 -5.5q39 0 65 17t36 49q3 -14 12 -26t22 -21t29 -14t32 -5q30 0 52.5 12.5t27.5 26.5zM282 110q0 -41 -22 -69.5t-58 -28.5
q-33 0 -44.5 20t-11.5 65q0 34 3 55t9.5 33t16.5 16.5t23 7.5q23 4 44.5 6.5t39.5 13.5v-119zM416 664q0 2 -8 2q-7 0 -7 -2q0 -25 -13 -40t-34 -15q-18 0 -36.5 8t-38.5 17t-43 17t-49 8q-24 0 -45.5 -9t-38 -24.5t-26 -36.5t-9.5 -45q0 -2 8 -2t8 2q0 25 12.5 40.5
t33.5 15.5q17 0 35.5 -8t39.5 -17.5t44 -17.5t49 -8q24 0 45 9t37.5 24.5t26 36.5t9.5 45z" />
    <glyph glyph-name="adieresis" unicode="&#xe4;" horiz-adv-x="463" 
d="M460 31q1 2 -4.5 6.5t-6.5 2.5q-2 -8 -10.5 -15t-21.5 -7q-24 0 -24 34v203q0 94 -47 137.5t-126 43.5q-31 0 -57 -8t-44.5 -21t-29 -28t-10.5 -30q0 -19 11.5 -34t36.5 -15q26 0 37.5 11.5t11.5 27.5q0 13 -4 20t-4 21t4.5 22t12 12t16.5 5t19 1q14 0 25.5 -3t19.5 -12
t12.5 -27t4.5 -48v-76q0 -16 -30.5 -21t-73.5 -9q-15 -2 -39.5 -7t-47 -18.5t-39 -38t-16.5 -63.5q0 -30 13.5 -50t34.5 -32t47.5 -17.5t52.5 -5.5q39 0 65 17t36 49q3 -14 12 -26t22 -21t29 -14t32 -5q30 0 52.5 12.5t27.5 26.5zM282 110q0 -41 -22 -69.5t-58 -28.5
q-33 0 -44.5 20t-11.5 65q0 34 3 55t9.5 33t16.5 16.5t23 7.5q23 4 44.5 6.5t39.5 13.5v-119zM392 593q0 23 -15.5 38t-36.5 15q-22 0 -37.5 -15t-15.5 -38q0 -22 15.5 -37t37.5 -15q21 0 36.5 15t15.5 37zM183 593q0 23 -15.5 38t-35.5 15q-23 0 -37.5 -15t-14.5 -38
q0 -22 14.5 -37t37.5 -15q20 0 35.5 15t15.5 37z" />
    <glyph glyph-name="aring" unicode="&#xe5;" horiz-adv-x="463" 
d="M460 31q1 2 -4.5 6.5t-6.5 2.5q-2 -8 -10.5 -15t-21.5 -7q-24 0 -24 34v203q0 94 -47 137.5t-126 43.5q-31 0 -57 -8t-44.5 -21t-29 -28t-10.5 -30q0 -19 11.5 -34t36.5 -15q26 0 37.5 11.5t11.5 27.5q0 13 -4 20t-4 21t4.5 22t12 12t16.5 5t19 1q14 0 25.5 -3t19.5 -12
t12.5 -27t4.5 -48v-76q0 -16 -30.5 -21t-73.5 -9q-15 -2 -39.5 -7t-47 -18.5t-39 -38t-16.5 -63.5q0 -30 13.5 -50t34.5 -32t47.5 -17.5t52.5 -5.5q39 0 65 17t36 49q3 -14 12 -26t22 -21t29 -14t32 -5q30 0 52.5 12.5t27.5 26.5zM282 110q0 -41 -22 -69.5t-58 -28.5
q-33 0 -44.5 20t-11.5 65q0 34 3 55t9.5 33t16.5 16.5t23 7.5q23 4 44.5 6.5t39.5 13.5v-119zM318 608q0 32 -23 54.5t-57 22.5q-16 0 -30.5 -6t-25 -16.5t-17 -24.5t-6.5 -30t6.5 -30t17 -24.5t25 -16.5t30.5 -6q34 0 57 22.5t23 54.5zM301 608q0 -25 -18.5 -43t-44.5 -18
t-44 18t-18 43t18 43t44 18t44.5 -18t18.5 -43z" />
    <glyph glyph-name="ae" unicode="&#xe6;" horiz-adv-x="734" 
d="M698 239q0 27 -11.5 61t-35 64t-59.5 50.5t-85 20.5q-42 0 -78.5 -15.5t-65.5 -41.5q-23 29 -58.5 43t-80.5 14q-31 0 -57 -8.5t-44.5 -21t-29 -28t-10.5 -29.5q0 -19 11 -34t36 -15q26 0 37.5 11.5t11.5 25.5t-4 21.5t-4 21.5q0 27 16.5 33.5t36.5 6.5q14 0 25.5 -3
t19.5 -12t12.5 -27t4.5 -48v-76q0 -8 -8.5 -13t-23 -8t-33.5 -5t-41 -4q-15 -2 -39 -7t-46.5 -18.5t-38.5 -38t-16 -63.5q0 -30 13 -50t34 -32t47 -17.5t52 -5.5q22 0 42.5 8.5t36 22.5t25.5 33.5t11 41.5q11 -23 31 -42.5t47 -33.5t59.5 -22t68.5 -8q55 0 103 26t77 69
q1 2 -4 6t-6 3q-27 -39 -70.5 -63.5t-99.5 -24.5q-20 0 -35 4.5t-29 17.5q-10 10 -17.5 24t-12 35.5t-7 52t-2.5 72.5v23h291q3 0 3 3zM595 252h-191q1 62 11 94.5t28 50.5q14 13 29 17.5t35 4.5q17 0 30.5 -4.5t24.5 -17.5q16 -18 24.5 -50.5t8.5 -94.5zM286 112
q0 -42 -23 -71.5t-58 -29.5q-33 0 -44.5 20t-11.5 65q0 34 3 55t9.5 33t16 16.5t22.5 7.5q23 4 46 6.5t40 13.5v-116z" />
    <glyph glyph-name="ccedilla" unicode="&#xe7;" horiz-adv-x="460" 
d="M439 86q1 2 -3 6t-5 3q-26 -39 -71.5 -63.5t-101.5 -24.5q-20 0 -34.5 4.5t-27.5 17.5q-10 10 -17 24t-11 35.5t-6 52t-2 72.5t2 72.5t6 52t11 35.5t17 24q13 13 27.5 17.5t34.5 4.5q39 0 61.5 -11.5t22.5 -40.5q0 -12 -2 -18.5t-4.5 -11t-4.5 -10t-2 -15.5q0 -16 12 -27
t33 -11q20 0 33.5 11t13.5 35q0 19 -12 39.5t-34 37t-51.5 27.5t-65.5 11q-44 0 -83.5 -17.5t-68.5 -47.5t-46 -70.5t-17 -86.5q0 -44 15.5 -83t43 -69t64 -48.5t78.5 -20.5q-6 -12 -12 -29.5t-6 -34.5q0 -26 11.5 -39t25 -20.5t25 -14.5t11.5 -20q0 -19 -14 -30t-39 -11
q-36 0 -36 20q0 8 5 11t5 15q0 11 -6.5 15.5t-15.5 4.5q-12 0 -19 -7.5t-7 -17.5q0 -9 4 -19.5t13 -18.5t23 -13.5t34 -5.5q38 0 56.5 23.5t18.5 56.5q0 29 -11 41.5t-24 20t-24 17t-11 33.5q0 3 2 10t5 12q56 0 103.5 26.5t77.5 68.5z" />
    <glyph glyph-name="egrave" unicode="&#xe8;" horiz-adv-x="488" 
d="M453 239q0 27 -11.5 61t-35.5 64t-60 50.5t-84 20.5q-45 0 -85 -17.5t-70 -47.5t-47.5 -70.5t-17.5 -86.5t17.5 -86.5t47.5 -70.5t70 -47.5t85 -17.5q54 0 102.5 26t77.5 69q1 2 -4 6t-6 3q-26 -39 -70.5 -63.5t-99.5 -24.5q-20 0 -35.5 4.5t-28.5 17.5q-11 10 -18 24
t-12 35.5t-7 52t-2 72.5v23h291q3 0 3 3zM350 252h-191q1 62 10.5 94.5t28.5 50.5q13 13 28.5 17.5t35.5 4.5q17 0 30.5 -4.5t24.5 -17.5q16 -18 24 -50.5t9 -94.5zM360 528q-38 8 -64.5 25.5t-45.5 38.5t-32.5 43.5t-24.5 41t-22 30t-26 11.5q-17 0 -28 -10.5t-11 -26.5
q0 -19 10.5 -40.5t38 -44t77 -44.5t127.5 -40q2 0 2.5 7.5t-1.5 8.5z" />
    <glyph glyph-name="eacute" unicode="&#xe9;" horiz-adv-x="488" 
d="M453 239q0 27 -11.5 61t-35.5 64t-60 50.5t-84 20.5q-45 0 -85 -17.5t-70 -47.5t-47.5 -70.5t-17.5 -86.5t17.5 -86.5t47.5 -70.5t70 -47.5t85 -17.5q54 0 102.5 26t77.5 69q1 2 -4 6t-6 3q-26 -39 -70.5 -63.5t-99.5 -24.5q-20 0 -35.5 4.5t-28.5 17.5q-11 10 -18 24
t-12 35.5t-7 52t-2 72.5v23h291q3 0 3 3zM350 252h-191q1 62 10.5 94.5t28.5 50.5q13 13 28.5 17.5t35.5 4.5q17 0 30.5 -4.5t24.5 -17.5q16 -18 24 -50.5t9 -94.5zM420 681q0 16 -10.5 26.5t-27.5 10.5q-15 0 -26 -11.5t-22.5 -30t-24.5 -41t-31.5 -43.5t-45.5 -38t-65 -26
q-2 -1 -1.5 -8.5t2.5 -7.5q78 18 127.5 40t77 44.5t37.5 44t10 40.5z" />
    <glyph glyph-name="ecircumflex" unicode="&#xea;" horiz-adv-x="488" 
d="M453 239q0 27 -11.5 61t-35.5 64t-60 50.5t-84 20.5q-45 0 -85 -17.5t-70 -47.5t-47.5 -70.5t-17.5 -86.5t17.5 -86.5t47.5 -70.5t70 -47.5t85 -17.5q54 0 102.5 26t77.5 69q1 2 -4 6t-6 3q-26 -39 -70.5 -63.5t-99.5 -24.5q-20 0 -35.5 4.5t-28.5 17.5q-11 10 -18 24
t-12 35.5t-7 52t-2 72.5v23h291q3 0 3 3zM350 252h-191q1 62 10.5 94.5t28.5 50.5q13 13 28.5 17.5t35.5 4.5q17 0 30.5 -4.5t24.5 -17.5q16 -18 24 -50.5t9 -94.5zM403 524q-45 49 -81.5 90t-61.5 79q-3 2 -4 0q-26 -38 -62.5 -78.5t-81.5 -90.5q-1 -2 2.5 -6.5t5.5 -2.5
l133 91l141 -91q2 -2 6 2.5t3 6.5z" />
    <glyph glyph-name="edieresis" unicode="&#xeb;" horiz-adv-x="488" 
d="M453 239q0 27 -11.5 61t-35.5 64t-60 50.5t-84 20.5q-45 0 -85 -17.5t-70 -47.5t-47.5 -70.5t-17.5 -86.5t17.5 -86.5t47.5 -70.5t70 -47.5t85 -17.5q54 0 102.5 26t77.5 69q1 2 -4 6t-6 3q-26 -39 -70.5 -63.5t-99.5 -24.5q-20 0 -35.5 4.5t-28.5 17.5q-11 10 -18 24
t-12 35.5t-7 52t-2 72.5v23h291q3 0 3 3zM350 252h-191q1 62 10.5 94.5t28.5 50.5q13 13 28.5 17.5t35.5 4.5q17 0 30.5 -4.5t24.5 -17.5q16 -18 24 -50.5t9 -94.5zM411 593q0 23 -15.5 38t-36.5 15q-22 0 -37.5 -15t-15.5 -38q0 -22 15.5 -37t37.5 -15q21 0 36.5 15
t15.5 37zM202 593q0 23 -15.5 38t-35.5 15q-23 0 -37.5 -15t-14.5 -38q0 -22 14.5 -37t37.5 -15q20 0 35.5 15t15.5 37z" />
    <glyph glyph-name="igrave" unicode="&#xec;" horiz-adv-x="298" 
d="M274 0q2 0 2 8t-2 8h-58q-7 0 -7 4v403q0 3 -3 3h-172q-2 0 -2 -8t2 -8h58q7 0 7 -4v-386q0 -4 -7 -4h-58q-2 0 -2 -8t2 -8h240zM225 528q-38 8 -64.5 25.5t-45.5 38.5t-32.5 43.5t-24.5 41t-22 30t-26 11.5q-17 0 -28 -10.5t-11 -26.5q0 -19 10.5 -40.5t38 -44t77 -44.5
t127.5 -40q2 0 2.5 7.5t-1.5 8.5z" />
    <glyph glyph-name="iacute" unicode="&#xed;" horiz-adv-x="298" 
d="M274 0q2 0 2 8t-2 8h-58q-7 0 -7 4v403q0 3 -3 3h-172q-2 0 -2 -8t2 -8h58q7 0 7 -4v-386q0 -4 -7 -4h-58q-2 0 -2 -8t2 -8h240zM308 681q0 16 -10.5 26.5t-27.5 10.5q-15 0 -26 -11.5t-22.5 -30t-24.5 -41t-31.5 -43.5t-45.5 -38t-65 -26q-2 -1 -1.5 -8.5t2.5 -7.5
q78 18 127.5 40t77 44.5t37.5 44t10 40.5z" />
    <glyph glyph-name="icircumflex" unicode="&#xee;" horiz-adv-x="298" 
d="M274 0q2 0 2 8t-2 8h-58q-7 0 -7 4v403q0 3 -3 3h-172q-2 0 -2 -8t2 -8h58q7 0 7 -4v-386q0 -4 -7 -4h-58q-2 0 -2 -8t2 -8h240zM287 524q-45 49 -81.5 90t-61.5 79q-3 2 -4 0q-26 -38 -62.5 -78.5t-81.5 -90.5q-1 -2 2.5 -6.5t5.5 -2.5l133 91l141 -91q2 -2 6 2.5t3 6.5
z" />
    <glyph glyph-name="idieresis" unicode="&#xef;" horiz-adv-x="298" 
d="M274 0q2 0 2 8t-2 8h-58q-7 0 -7 4v403q0 3 -3 3h-172q-2 0 -2 -8t2 -8h58q7 0 7 -4v-386q0 -4 -7 -4h-58q-2 0 -2 -8t2 -8h240zM300 593q0 23 -15.5 38t-36.5 15q-22 0 -37.5 -15t-15.5 -38q0 -22 15.5 -37t37.5 -15q21 0 36.5 15t15.5 37zM91 593q0 23 -15.5 38
t-35.5 15q-23 0 -37.5 -15t-14.5 -38q0 -22 14.5 -37t37.5 -15q20 0 35.5 15t15.5 37z" />
    <glyph glyph-name="ntilde" unicode="&#xf1;" horiz-adv-x="566" 
d="M554 0q2 0 2 8t-2 8h-56q-7 0 -7 4v248q0 80 -45.5 123.5t-125.5 43.5q-18 0 -36 -4.5t-33.5 -13.5t-28 -24t-19.5 -36v66q0 3 -3 3h-172q-2 0 -2 -8t2 -8h57q7 0 7 -4v-386q0 -4 -7 -4h-57q-2 0 -2 -8t2 -8h238q2 0 2 8t-2 8h-57q-6 0 -6 4v304q15 48 42 71.5t75 23.5
q27 0 43.5 -24.5t16.5 -77.5v-297q0 -4 -6 -4h-57q-2 0 -2 -8t2 -8h237zM460 664q0 2 -8 2q-7 0 -7 -2q0 -25 -13 -40t-34 -15q-18 0 -36.5 8t-38.5 17t-43 17t-49 8q-24 0 -45.5 -9t-38 -24.5t-26 -36.5t-9.5 -45q0 -2 8 -2t8 2q0 25 12.5 40.5t33.5 15.5q17 0 35.5 -8
t39.5 -17.5t44 -17.5t49 -8q24 0 45 9t37.5 24.5t26 36.5t9.5 45z" />
    <glyph glyph-name="ograve" unicode="&#xf2;" horiz-adv-x="517" 
d="M475 213q0 46 -17 86.5t-46.5 70.5t-69 47.5t-84.5 17.5q-44 0 -83.5 -17.5t-69 -47.5t-46.5 -70.5t-17 -86.5t17 -86.5t46.5 -70.5t69 -47.5t83.5 -17.5q45 0 84.5 17.5t69 47.5t46.5 70.5t17 86.5zM359 213q0 -42 -2 -72.5t-6.5 -52t-12 -35.5t-17.5 -24
q-12 -13 -27.5 -17.5t-35.5 -4.5q-19 0 -34.5 4.5t-28.5 17.5q-10 10 -16.5 24t-11 35.5t-6.5 52t-2 72.5q0 75 8 119.5t28 64.5q13 13 28.5 17.5t34.5 4.5q20 0 35.5 -4.5t27.5 -17.5q20 -20 29 -64.5t9 -119.5zM347 528q-38 8 -64.5 25.5t-45.5 38.5t-32.5 43.5t-24.5 41
t-22 30t-26 11.5q-17 0 -28 -10.5t-11 -26.5q0 -19 10.5 -40.5t38 -44t77 -44.5t127.5 -40q2 0 2.5 7.5t-1.5 8.5z" />
    <glyph glyph-name="oacute" unicode="&#xf3;" horiz-adv-x="517" 
d="M475 213q0 46 -17 86.5t-46.5 70.5t-69 47.5t-84.5 17.5q-44 0 -83.5 -17.5t-69 -47.5t-46.5 -70.5t-17 -86.5t17 -86.5t46.5 -70.5t69 -47.5t83.5 -17.5q45 0 84.5 17.5t69 47.5t46.5 70.5t17 86.5zM359 213q0 -42 -2 -72.5t-6.5 -52t-12 -35.5t-17.5 -24
q-12 -13 -27.5 -17.5t-35.5 -4.5q-19 0 -34.5 4.5t-28.5 17.5q-10 10 -16.5 24t-11 35.5t-6.5 52t-2 72.5q0 75 8 119.5t28 64.5q13 13 28.5 17.5t34.5 4.5q20 0 35.5 -4.5t27.5 -17.5q20 -20 29 -64.5t9 -119.5zM413 681q0 16 -10.5 26.5t-27.5 10.5q-15 0 -26 -11.5
t-22.5 -30t-24.5 -41t-31.5 -43.5t-45.5 -38t-65 -26q-2 -1 -1.5 -8.5t2.5 -7.5q78 18 127.5 40t77 44.5t37.5 44t10 40.5z" />
    <glyph glyph-name="ocircumflex" unicode="&#xf4;" horiz-adv-x="517" 
d="M475 213q0 46 -17 86.5t-46.5 70.5t-69 47.5t-84.5 17.5q-44 0 -83.5 -17.5t-69 -47.5t-46.5 -70.5t-17 -86.5t17 -86.5t46.5 -70.5t69 -47.5t83.5 -17.5q45 0 84.5 17.5t69 47.5t46.5 70.5t17 86.5zM359 213q0 -42 -2 -72.5t-6.5 -52t-12 -35.5t-17.5 -24
q-12 -13 -27.5 -17.5t-35.5 -4.5q-19 0 -34.5 4.5t-28.5 17.5q-10 10 -16.5 24t-11 35.5t-6.5 52t-2 72.5q0 75 8 119.5t28 64.5q13 13 28.5 17.5t34.5 4.5q20 0 35.5 -4.5t27.5 -17.5q20 -20 29 -64.5t9 -119.5zM405 524q-45 49 -81.5 90t-61.5 79q-3 2 -4 0
q-26 -38 -62.5 -78.5t-81.5 -90.5q-1 -2 2.5 -6.5t5.5 -2.5l133 91l141 -91q2 -2 6 2.5t3 6.5z" />
    <glyph glyph-name="otilde" unicode="&#xf5;" horiz-adv-x="517" 
d="M475 213q0 46 -17 86.5t-46.5 70.5t-69 47.5t-84.5 17.5q-44 0 -83.5 -17.5t-69 -47.5t-46.5 -70.5t-17 -86.5t17 -86.5t46.5 -70.5t69 -47.5t83.5 -17.5q45 0 84.5 17.5t69 47.5t46.5 70.5t17 86.5zM359 213q0 -42 -2 -72.5t-6.5 -52t-12 -35.5t-17.5 -24
q-12 -13 -27.5 -17.5t-35.5 -4.5q-19 0 -34.5 4.5t-28.5 17.5q-10 10 -16.5 24t-11 35.5t-6.5 52t-2 72.5q0 75 8 119.5t28 64.5q13 13 28.5 17.5t34.5 4.5q20 0 35.5 -4.5t27.5 -17.5q20 -20 29 -64.5t9 -119.5zM436 664q0 2 -8 2q-7 0 -7 -2q0 -25 -13 -40t-34 -15
q-18 0 -36.5 8t-38.5 17t-43 17t-49 8q-24 0 -45.5 -9t-38 -24.5t-26 -36.5t-9.5 -45q0 -2 8 -2t8 2q0 25 12.5 40.5t33.5 15.5q17 0 35.5 -8t39.5 -17.5t44 -17.5t49 -8q24 0 45 9t37.5 24.5t26 36.5t9.5 45z" />
    <glyph glyph-name="odieresis" unicode="&#xf6;" horiz-adv-x="517" 
d="M475 213q0 46 -17 86.5t-46.5 70.5t-69 47.5t-84.5 17.5q-44 0 -83.5 -17.5t-69 -47.5t-46.5 -70.5t-17 -86.5t17 -86.5t46.5 -70.5t69 -47.5t83.5 -17.5q45 0 84.5 17.5t69 47.5t46.5 70.5t17 86.5zM359 213q0 -42 -2 -72.5t-6.5 -52t-12 -35.5t-17.5 -24
q-12 -13 -27.5 -17.5t-35.5 -4.5q-19 0 -34.5 4.5t-28.5 17.5q-10 10 -16.5 24t-11 35.5t-6.5 52t-2 72.5q0 75 8 119.5t28 64.5q13 13 28.5 17.5t34.5 4.5q20 0 35.5 -4.5t27.5 -17.5q20 -20 29 -64.5t9 -119.5zM415 593q0 23 -15.5 38t-36.5 15q-22 0 -37.5 -15t-15.5 -38
q0 -22 15.5 -37t37.5 -15q21 0 36.5 15t15.5 37zM206 593q0 23 -15.5 38t-35.5 15q-23 0 -37.5 -15t-14.5 -38q0 -22 14.5 -37t37.5 -15q20 0 35.5 15t15.5 37z" />
    <glyph glyph-name="oslash" unicode="&#xf8;" horiz-adv-x="519" 
d="M476 213q0 55 -24 102t-65 77q1 2 10 15.5t16.5 24t8.5 12.5t-6 7t-8 3t-8 -12.5t-16 -24.5t-11 -16q-49 34 -115 34q-44 0 -83.5 -17.5t-68.5 -47.5t-46 -70.5t-17 -86.5q0 -55 23.5 -101.5t64.5 -77.5l-35 -53q-1 0 6 -4.5t8 -2.5t8 12.5t16 23.5t10 15
q26 -16 54.5 -25t59.5 -9q45 0 84.5 17.5t69.5 47.5t47 70.5t17 86.5zM345 358l-179 -270q-7 41 -7 125q0 75 8.5 119.5t28.5 64.5q13 13 28.5 17.5t33.5 4.5q20 0 36 -4.5t28 -17.5q8 -8 13 -17.5t10 -21.5zM359 213q0 -42 -2 -72.5t-6.5 -52t-11.5 -35.5t-17 -24
q-12 -13 -28 -17.5t-36 -4.5q-18 0 -33.5 4.5t-28.5 17.5q-15 17 -25 38l13.5 20t33.5 50t43.5 65t43 65t33 50l13.5 20q5 -23 6.5 -54.5t1.5 -69.5z" />
    <glyph glyph-name="ugrave" unicode="&#xf9;" horiz-adv-x="556" 
d="M541 0q2 0 2 8t-2 8h-56q-7 0 -7 4v403q0 3 -3 3h-172q-2 0 -2 -8t2 -8h57q7 0 7 -4v-304q-16 -48 -43.5 -71.5t-75.5 -23.5q-26 0 -42 24t-16 78v314q0 3 -3 3h-173q-1 0 -1 -8t1 -8h58q7 0 7 -4v-255q0 -80 45.5 -120t123.5 -40q36 0 70.5 18t48.5 60v-66q0 -3 3 -3
h171zM351 528q-38 8 -64.5 25.5t-45.5 38.5t-32.5 43.5t-24.5 41t-22 30t-26 11.5q-17 0 -28 -10.5t-11 -26.5q0 -19 10.5 -40.5t38 -44t77 -44.5t127.5 -40q2 0 2.5 7.5t-1.5 8.5z" />
    <glyph glyph-name="uacute" unicode="&#xfa;" horiz-adv-x="556" 
d="M541 0q2 0 2 8t-2 8h-56q-7 0 -7 4v403q0 3 -3 3h-172q-2 0 -2 -8t2 -8h57q7 0 7 -4v-304q-16 -48 -43.5 -71.5t-75.5 -23.5q-26 0 -42 24t-16 78v314q0 3 -3 3h-173q-1 0 -1 -8t1 -8h58q7 0 7 -4v-255q0 -80 45.5 -120t123.5 -40q36 0 70.5 18t48.5 60v-66q0 -3 3 -3
h171zM415 681q0 16 -10.5 26.5t-27.5 10.5q-15 0 -26 -11.5t-22.5 -30t-24.5 -41t-31.5 -43.5t-45.5 -38t-65 -26q-2 -1 -1.5 -8.5t2.5 -7.5q78 18 127.5 40t77 44.5t37.5 44t10 40.5z" />
    <glyph glyph-name="ucircumflex" unicode="&#xfb;" horiz-adv-x="556" 
d="M541 0q2 0 2 8t-2 8h-56q-7 0 -7 4v403q0 3 -3 3h-172q-2 0 -2 -8t2 -8h57q7 0 7 -4v-304q-16 -48 -43.5 -71.5t-75.5 -23.5q-26 0 -42 24t-16 78v314q0 3 -3 3h-173q-1 0 -1 -8t1 -8h58q7 0 7 -4v-255q0 -80 45.5 -120t123.5 -40q36 0 70.5 18t48.5 60v-66q0 -3 3 -3
h171zM423 524q-45 49 -81.5 90t-61.5 79q-3 2 -4 0q-26 -38 -62.5 -78.5t-81.5 -90.5q-1 -2 2.5 -6.5t5.5 -2.5l133 91l141 -91q2 -2 6 2.5t3 6.5z" />
    <glyph glyph-name="udieresis" unicode="&#xfc;" horiz-adv-x="556" 
d="M541 0q2 0 2 8t-2 8h-56q-7 0 -7 4v403q0 3 -3 3h-172q-2 0 -2 -8t2 -8h57q7 0 7 -4v-304q-16 -48 -43.5 -71.5t-75.5 -23.5q-26 0 -42 24t-16 78v314q0 3 -3 3h-173q-1 0 -1 -8t1 -8h58q7 0 7 -4v-255q0 -80 45.5 -120t123.5 -40q36 0 70.5 18t48.5 60v-66q0 -3 3 -3
h171zM429 593q0 23 -15.5 38t-36.5 15q-22 0 -37.5 -15t-15.5 -38q0 -22 15.5 -37t37.5 -15q21 0 36.5 15t15.5 37zM220 593q0 23 -15.5 38t-35.5 15q-23 0 -37.5 -15t-14.5 -38q0 -22 14.5 -37t37.5 -15q20 0 35.5 15t15.5 37z" />
    <glyph glyph-name="ydieresis" unicode="&#xff;" horiz-adv-x="438" 
d="M477 411q2 0 2 7q0 8 -2 8h-149q-2 0 -2 -8q0 -7 2 -7h57q5 0 4.5 -6.5t-11.5 -35.5l-96 -251l-121 289q-2 4 5 4h59q2 0 2 7q0 8 -2 8h-251q-2 0 -2 -8q0 -7 2 -7h54q6 0 8 -4l198 -417l-87 -228q-16 -39 -31.5 -48.5t-26.5 -9.5t-13.5 6t-2.5 14q0 9 3.5 15t7.5 12
t7.5 12.5t3.5 15.5q0 17 -12 29t-35 12t-38.5 -18t-15.5 -44q0 -31 21 -53t53 -22q31 0 54 18t40 63l231 605q11 29 15.5 35.5t9.5 6.5h59zM414 593q0 23 -15.5 38t-36.5 15q-22 0 -37.5 -15t-15.5 -38q0 -22 15.5 -37t37.5 -15q21 0 36.5 15t15.5 37zM205 593
q0 23 -15.5 38t-35.5 15q-23 0 -37.5 -15t-14.5 -38q0 -22 14.5 -37t37.5 -15q20 0 35.5 15t15.5 37z" />
    <glyph glyph-name="dotlessi" unicode="&#x131;" horiz-adv-x="298" 
d="M274 0q2 0 2 8t-2 8h-58q-7 0 -7 4v403q0 3 -3 3h-172q-2 0 -2 -8t2 -8h58q7 0 7 -4v-386q0 -4 -7 -4h-58q-2 0 -2 -8t2 -8h240z" />
    <glyph glyph-name="OE" unicode="&#x152;" horiz-adv-x="980" 
d="M955 3v235q0 2 -8 2q-7 0 -7 -2q0 -39 -13 -78.5t-41 -71.5t-71.5 -52t-103.5 -20h-94q-6 0 -6 4v336h21q30 0 53 -11.5t38.5 -31t24 -44t8.5 -49.5q0 -2 7 -2q8 0 8 2v288q0 2 -8 2q-7 0 -7 -2q0 -26 -8.5 -50.5t-24 -43.5t-38.5 -30.5t-53 -11.5h-21v317q0 4 6 4h91
q46 0 80.5 -18.5t56.5 -47.5t33 -65t11 -71q0 -1 7 -1t7 1v215q0 3 -3 3h-533q-71 0 -129.5 -29t-100.5 -78t-65 -113.5t-23 -134.5q0 -73 25 -137.5t68 -112.5t101 -76t124 -28h585q3 0 3 3zM469 19q0 -4 -5 -4h-97q-33 0 -57.5 8t-45.5 28q-17 17 -28.5 40t-19 58.5
t-10.5 85t-3 119.5q0 123 13.5 196.5t47.5 107.5q21 20 45.5 27.5t57.5 7.5h97q5 0 5 -3v-671z" />
    <glyph glyph-name="oe" unicode="&#x153;" horiz-adv-x="799" 
d="M764 239q0 27 -12 61t-35.5 64t-59.5 50.5t-84 20.5q-51 0 -90 -22t-68 -55q-28 34 -66.5 55.5t-87.5 21.5q-45 0 -85 -17.5t-69.5 -47.5t-47 -70.5t-17.5 -86.5t17.5 -86.5t47 -70.5t69.5 -47.5t85 -17.5q53 0 89.5 22t64.5 57q29 -34 65.5 -56.5t92.5 -22.5
q54 0 102 26t77 69q1 2 -4 6t-6 3q-27 -39 -71 -63.5t-98 -24.5q-21 0 -36.5 4.5t-28.5 17.5q-10 10 -17.5 24t-12 35.5t-7 52t-2.5 72.5v23h292q3 0 3 3zM661 252h-192q1 62 11 94.5t28 50.5q13 13 28.5 17.5t36.5 4.5q17 0 30 -4.5t24 -17.5q16 -18 24 -50.5t10 -94.5z
M360 213q0 -42 -2 -72.5t-6.5 -52t-11.5 -35.5t-17 -24q-13 -13 -29 -17.5t-33 -4.5q-20 0 -35.5 4.5t-27.5 17.5q-11 10 -18 24t-11.5 35.5t-6.5 52t-2 72.5q0 75 8.5 119.5t29.5 64.5q12 13 27.5 17.5t35.5 4.5q17 0 33 -4.5t29 -17.5q20 -20 28.5 -64.5t8.5 -119.5z" />
    <glyph glyph-name="Ydieresis" unicode="&#x178;" horiz-adv-x="640" 
d="M680 693q2 0 2 8t-2 8h-203q-2 0 -2 -8t2 -8h91q5 0 3 -6.5t-14 -35.5l-143 -311l-175 349q0 4 4 4h97q2 0 2 8t-2 8h-354q-2 0 -2 -8t2 -8h94q6 0 8 -4l191 -380v-289q0 -4 -6 -4h-87q-2 0 -2 -8t2 -8h324q2 0 2 8t-2 8h-86q-7 0 -7 4v293l139 304q13 27 21 42
t12.5 22.5t7.5 9.5t5 2h78zM557 848q0 23 -15.5 38t-36.5 15q-22 0 -37.5 -15t-15.5 -38q0 -22 15.5 -37t37.5 -15q21 0 36.5 15t15.5 37zM348 848q0 23 -15.5 38t-35.5 15q-23 0 -37.5 -15t-14.5 -38q0 -22 14.5 -37t37.5 -15q20 0 35.5 15t15.5 37z" />
    <glyph glyph-name="florin" unicode="&#x192;" horiz-adv-x="424" 
d="M527 658q0 19 -7.5 34.5t-20 27t-28.5 18t-34 6.5q-44 0 -89 -27t-83.5 -77.5t-65 -122.5t-32.5 -163l-1 -20q-2 -3 -7 -3h-94q-2 0 -2 -8t2 -8h94q6 0 6 -4q-9 -133 -17 -245t-24 -193t-45 -126.5t-79 -45.5q-16 0 -20.5 6t-4.5 23q0 10 3 16t6.5 11t6.5 10.5t3 14.5
q0 17 -11.5 28t-37.5 11q-22 0 -38 -16t-16 -36q0 -39 26.5 -62.5t68.5 -23.5q53 0 95 28.5t74.5 76t56 109.5t39.5 129.5t25 136t13 128.5l1 20q0 4 7 4h93q2 0 2 8t-2 8h-93q-6 0 -6 3q9 132 24.5 209.5t33.5 118.5t36 53t32 12q17 0 22 -6t5 -23q0 -11 -3 -17t-6.5 -11
t-6.5 -10.5t-3 -14.5q0 -18 11 -28.5t37 -10.5q23 0 38.5 15t15.5 37z" />
    <glyph glyph-name="circumflex" unicode="&#x2c6;" horiz-adv-x="315" 
d="M312 524q-45 49 -81.5 90t-61.5 79q-3 2 -4 0q-26 -38 -62.5 -78.5t-81.5 -90.5q-1 -2 2.5 -6.5t5.5 -2.5l133 91l141 -91q2 -2 6 2.5t3 6.5z" />
    <glyph glyph-name="caron" unicode="&#x2c7;" horiz-adv-x="315" 
d="M302 680q1 2 -3 6.5t-4 2.5l-133 -91l-143 91q-2 2 -5 -2.5t-1 -6.5q44 -49 80 -90t62 -79q2 -4 4 0q26 38 62 78.5t81 90.5z" />
    <glyph glyph-name="breve" unicode="&#x2d8;" horiz-adv-x="366" 
d="M329 690q0 2 -8 2q-7 0 -7 -2q0 -11 -5 -26t-19.5 -29t-40 -24t-66.5 -10t-66.5 10t-39.5 24t-19 29t-5 26q0 2 -8 2q-7 0 -7 -2q0 -24 7 -51t23.5 -50.5t44.5 -38.5t70 -15t70.5 15t45 38.5t23.5 50.5t7 51z" />
    <glyph glyph-name="dotaccent" unicode="&#x2d9;" horiz-adv-x="237" 
d="M171 593q0 23 -16 38t-36 15q-22 0 -37 -15t-15 -38q0 -22 15 -37t37 -15q20 0 36 15t16 37z" />
    <glyph glyph-name="ring" unicode="&#x2da;" horiz-adv-x="273" 
d="M217 608q0 32 -23 54.5t-57 22.5q-16 0 -30.5 -6t-25 -16.5t-17 -24.5t-6.5 -30t6.5 -30t17 -24.5t25 -16.5t30.5 -6q34 0 57 22.5t23 54.5zM200 608q0 -25 -18.5 -43t-44.5 -18t-44 18t-18 43t18 43t44 18t44.5 -18t18.5 -43z" />
    <glyph glyph-name="ogonek" unicode="&#x2db;" horiz-adv-x="263" 
d="M224 -154q1 2 -3 8t-5 4q-9 -13 -21.5 -21.5t-29.5 -8.5q-20 0 -37 13.5t-17 49.5q0 35 24 63t54 42q2 1 -2 7.5t-6 5.5q-69 -33 -102.5 -66t-33.5 -72q0 -33 20 -55t60 -22q34 0 59.5 16.5t39.5 35.5z" />
    <glyph glyph-name="tilde" unicode="&#x2dc;" horiz-adv-x="392" 
d="M369 664q0 2 -8 2q-7 0 -7 -2q0 -25 -13 -40t-34 -15q-18 0 -36.5 8t-38.5 17t-43 17t-49 8q-24 0 -45.5 -9t-38 -24.5t-26 -36.5t-9.5 -45q0 -2 8 -2t8 2q0 25 12.5 40.5t33.5 15.5q17 0 35.5 -8t39.5 -17.5t44 -17.5t49 -8q24 0 45 9t37.5 24.5t26 36.5t9.5 45z" />
    <glyph glyph-name="hungarumlaut" unicode="&#x2dd;" horiz-adv-x="528" 
d="M463 673q0 15 -9.5 25t-26.5 10q-15 0 -25.5 -11t-21 -28t-23 -38t-31 -41t-44 -37t-63.5 -25q-2 -1 -1.5 -8.5t2.5 -7.5q75 18 122.5 38.5t74.5 42t36.5 42.5t9.5 38zM277 673q0 15 -10 25t-27 10q-15 0 -25.5 -11t-21 -28t-23 -38t-31 -41t-44.5 -37t-63 -25
q-1 -1 -0.5 -8.5t1.5 -7.5q76 18 123.5 38.5t74.5 42t36.5 42.5t9.5 38z" />
    <glyph glyph-name="Omega" unicode="&#x3a9;" horiz-adv-x="620" 
d="M668 658q0 18 -8 34t-20.5 27.5t-29.5 18t-35 6.5q-38 0 -71 -15t-57 -50t-38 -91.5t-14 -138.5v-19q0 -4 -9 -4h-163q-7 0 -7 4v171q0 68 13 93t36 25q16 0 22 -5.5t6 -22.5q0 -12 -2.5 -18t-5 -11t-5 -10.5t-2.5 -15.5q0 -16 12.5 -26.5t38.5 -10.5q22 0 36.5 15.5
t14.5 36.5q0 18 -8 34t-21 27.5t-30 18t-35 6.5q-39 0 -72 -15t-57 -50t-38 -91.5t-14 -138.5v-12q0 -4 -6 -4h-72q-2 0 -2 -8t2 -8h72q6 0 6 -4v-386q0 -4 -6 -4h-57q-2 0 -2 -8t2 -8h237q2 0 2 8t-2 8h-56q-7 0 -7 4v386q0 4 7 4h163q9 0 9 -4v-386q0 -4 -9 -4h-55
q-2 0 -2 -8t2 -8h238q2 0 2 8t-2 8h-58q-7 0 -7 4v386q0 4 7 4h86q2 0 2 8t-2 8h-86q-7 0 -7 4v178q0 68 14 93t36 25q17 0 23 -5.5t6 -22.5q0 -12 -2.5 -18t-5 -11t-5 -10.5t-2.5 -15.5q0 -16 12.5 -26.5t36.5 -10.5q23 0 37 15.5t14 36.5z" />
    <glyph glyph-name="endash" unicode="&#x2013;" horiz-adv-x="548" 
d="M513 228q2 0 2 8t-2 8h-479q-2 0 -2 -8t2 -8h479z" />
    <glyph glyph-name="emdash" unicode="&#x2014;" horiz-adv-x="1027" 
d="M992 228q2 0 2 8t-2 8h-958q-2 0 -2 -8t2 -8h958z" />
    <glyph glyph-name="quoteleft" unicode="&#x2018;" horiz-adv-x="215" 
d="M174 720q1 -1 0.5 6t-2.5 6q-27 -9 -49.5 -31.5t-39.5 -50t-26.5 -57t-9.5 -51.5q0 -36 15 -56.5t45 -20.5q23 0 40 18t17 44q0 16 -7 28.5t-15 19.5q-35 27 -35 62t37 65q5 5 12.5 10t17.5 8z" />
    <glyph glyph-name="quoteright" unicode="&#x2019;" horiz-adv-x="211" 
d="M164 650q0 35 -15 55.5t-44 20.5q-24 0 -41 -18t-17 -43q0 -17 7 -29.5t16 -19.5q17 -13 25.5 -28.5t8.5 -32.5q0 -36 -36 -66q-6 -5 -13.5 -10t-17.5 -7q-1 0 -0.5 -7t2.5 -6q27 9 50 31.5t39.5 50.5t26 57t9.5 52z" />
    <glyph glyph-name="quotesinglbase" unicode="&#x201a;" horiz-adv-x="211" 
d="M164 33q0 36 -15 56.5t-45 20.5q-23 0 -40.5 -18t-17.5 -44q0 -16 7.5 -28.5t15.5 -19.5q35 -27 35 -62q0 -34 -37 -65q-5 -5 -13 -10t-18 -8q-1 1 0 -6t3 -6q27 9 49.5 31.5t39.5 50t26.5 57t9.5 51.5z" />
    <glyph glyph-name="quotedblleft" unicode="&#x201c;" horiz-adv-x="390" 
d="M353 720q1 -1 0 6t-3 6q-27 -9 -49.5 -31.5t-39.5 -50t-26.5 -57t-9.5 -51.5q0 -36 15 -56.5t45 -20.5q23 0 40.5 18t17.5 44q0 16 -7.5 28.5t-15.5 19.5q-35 27 -35 62q0 34 37 65q5 5 13 10t18 8zM174 720q1 -1 0.5 6t-2.5 6q-27 -9 -49.5 -31.5t-39.5 -50t-26.5 -57
t-9.5 -51.5q0 -36 15 -56.5t45 -20.5q23 0 40 18t17 44q0 16 -7 28.5t-15 19.5q-35 27 -35 62t37 65q5 5 12.5 10t17.5 8z" />
    <glyph glyph-name="quotedblright" unicode="&#x201d;" horiz-adv-x="390" 
d="M343 650q0 35 -15 55.5t-45 20.5q-24 0 -41 -18t-17 -43q0 -17 7.5 -29.5t15.5 -19.5q17 -13 25.5 -28.5t8.5 -32.5q0 -36 -36 -66q-6 -5 -13.5 -10t-17.5 -7q-1 0 -0.5 -7t2.5 -6q27 9 50 31.5t40 50.5t26.5 57t9.5 52zM164 650q0 35 -15 55.5t-44 20.5q-24 0 -41 -18
t-17 -43q0 -17 7 -29.5t16 -19.5q17 -13 25.5 -28.5t8.5 -32.5q0 -36 -36 -66q-6 -5 -13.5 -10t-17.5 -7q-1 0 -0.5 -7t2.5 -6q27 9 50 31.5t39.5 50.5t26 57t9.5 52z" />
    <glyph glyph-name="quotedblbase" unicode="&#x201e;" horiz-adv-x="390" 
d="M342 33q0 36 -15 56.5t-45 20.5q-23 0 -40 -18t-17 -44q0 -16 7 -28.5t15 -19.5q35 -27 35 -62t-37 -65q-5 -5 -12.5 -10t-17.5 -8q-1 1 -0.5 -6t2.5 -6q27 9 49.5 31.5t39.5 50t26.5 57t9.5 51.5zM164 33q0 36 -15 56.5t-45 20.5q-23 0 -40.5 -18t-17.5 -44
q0 -16 7.5 -28.5t15.5 -19.5q35 -27 35 -62q0 -34 -37 -65q-5 -5 -13 -10t-18 -8q-1 1 0 -6t3 -6q27 9 49.5 31.5t39.5 50t26.5 57t9.5 51.5z" />
    <glyph glyph-name="dagger" unicode="&#x2020;" horiz-adv-x="585" 
d="M559 376q0 14 -9.5 31t-27 31.5t-41 24.5t-51.5 10q-43 0 -68 -12.5t-36 -35.5q0 12 1.5 22t3 19.5t3 20t1.5 25.5q0 29 -8.5 57t-8.5 44q0 8 5.5 14t12 13t12 16.5t5.5 24.5q0 26 -19 44.5t-42 18.5t-41 -18.5t-18 -44.5q0 -15 5.5 -24.5t11.5 -16.5t11.5 -13t5.5 -14
q0 -16 -9 -44t-9 -57q0 -15 1.5 -25.5t3.5 -20t3.5 -19.5t1.5 -22q-11 23 -36.5 35.5t-67.5 12.5q-29 0 -52.5 -10t-40.5 -24.5t-26.5 -31.5t-9.5 -31q0 -17 10 -35t33 -18q26 0 37 14.5t11 28.5q0 13 -4.5 20t-4.5 21q0 26 15 38t32 12q27 0 47.5 -5t34.5 -17.5t21.5 -35
t7.5 -57.5q0 -20 -6.5 -34t-15 -22.5t-16.5 -13t-12 -6.5q-2 0 -1.5 -8t2.5 -7q16 7 29 -27.5t22 -107.5t14 -182t5 -251q0 -2 5 -2t5 2q0 142 5 251t14 182t22 107.5t29 27.5q2 -1 3 7t0 8q-5 2 -13.5 6.5t-17 13t-14.5 22.5t-6 34q0 35 7 57.5t21 35t35 17.5t48 5
q17 0 31.5 -12t14.5 -38q0 -14 -3.5 -21t-3.5 -20q0 -14 11 -28.5t36 -14.5q23 0 33 18t10 35z" />
    <glyph glyph-name="daggerdbl" unicode="&#x2021;" horiz-adv-x="588" 
d="M559 -6q0 18 -10.5 34t-33.5 16q-26 0 -36.5 -13t-10.5 -27q0 -13 4 -19.5t4 -20.5q0 -26 -16.5 -32t-35.5 -6q-50 0 -75 23.5t-25 92.5q0 20 4 30.5t10 15.5t12 6.5t10 3.5q2 -1 1 7t-3 7q-6 -3 -11 -3q-21 0 -33.5 30.5t-12.5 73.5q0 44 12.5 74.5t33.5 30.5q5 0 11 -3
q2 -1 3 6t-1 9q-4 2 -10 3t-12 5.5t-10 15t-4 30.5q0 69 25 93t75 24q19 0 35.5 -6t16.5 -33q0 -13 -4 -20t-4 -20q0 -14 10.5 -26.5t36.5 -12.5q23 0 33.5 16t10.5 33q0 14 -10.5 29t-28.5 27.5t-42.5 20.5t-53.5 8q-34 0 -61 -12t-32 -38q0 12 1 19.5t2.5 14.5t3 15.5
t1.5 23.5q0 14 -2.5 24.5t-6 18.5t-6 15t-2.5 15t5.5 14t12 12.5t12 16.5t5.5 25q0 26 -20.5 44.5t-43.5 18.5t-42.5 -18.5t-19.5 -44.5q0 -15 5.5 -25t11.5 -16.5t11.5 -12.5t5.5 -14t-2.5 -15t-6 -15t-6 -18.5t-2.5 -24.5q0 -15 1.5 -23.5t3.5 -15.5t3.5 -14.5t1.5 -19.5
q-7 26 -33.5 38t-60.5 12q-29 0 -53.5 -8t-42.5 -20.5t-28 -27.5t-10 -29q0 -17 9.5 -33t32.5 -16q26 0 37 12.5t11 26.5q0 13 -4 20t-4 20q0 27 16.5 33t35.5 6q50 0 75 -24t25 -93q0 -20 -4 -30.5t-10 -15t-12 -5.5t-10 -3q-2 -2 -1.5 -9t2.5 -6q7 3 12 3q20 0 32.5 -30.5
t12.5 -74.5q0 -43 -12.5 -73.5t-32.5 -30.5q-5 0 -12 3q-2 1 -2.5 -7t1.5 -7q4 -2 10 -3.5t12 -6.5t10 -15.5t4 -30.5q0 -69 -25 -92.5t-75 -23.5q-19 0 -35.5 6t-16.5 32q0 14 4 20.5t4 19.5q0 14 -11 27t-37 13q-23 0 -32.5 -16t-9.5 -34q0 -14 10 -29t28 -27t42.5 -20
t53.5 -8q34 0 60.5 12t33.5 38q0 -12 -1.5 -20t-3.5 -15t-3.5 -15.5t-1.5 -22.5t2.5 -24.5t6 -18.5t6 -15t2.5 -15t-5.5 -14t-11.5 -13t-11.5 -16.5t-5.5 -24.5q0 -26 19.5 -44.5t42.5 -18.5t43.5 18.5t20.5 44.5q0 15 -5.5 24.5t-12 16.5t-12 13t-5.5 14t2.5 15t6 15
t6 18.5t2.5 24.5t-1.5 22.5t-3 15.5t-2.5 15t-1 20q5 -26 32 -38t61 -12q29 0 53.5 8t42.5 20t28.5 27t10.5 29z" />
    <glyph glyph-name="bullet" unicode="&#x2022;" horiz-adv-x="344" 
d="M296 354q0 27 -10 50.5t-27 41t-39.5 27.5t-47.5 10q-26 0 -48 -10t-39 -27.5t-26.5 -41t-9.5 -50.5t9.5 -50.5t26.5 -41t39 -27.5t48 -10q25 0 47.5 10t39.5 27.5t27 41t10 50.5z" />
    <glyph glyph-name="ellipsis" unicode="&#x2026;" horiz-adv-x="621" 
d="M578 50q0 25 -17 42.5t-44 17.5q-25 0 -41.5 -17.5t-16.5 -42.5q0 -27 16.5 -45t41.5 -18q27 0 44 18t17 45zM371 50q0 25 -17.5 42.5t-43.5 17.5q-25 0 -42 -17.5t-17 -42.5q0 -27 17 -45t42 -18q26 0 43.5 18t17.5 45zM163 50q0 25 -17 42.5t-44 17.5q-24 0 -41 -17.5
t-17 -42.5q0 -27 17 -45t41 -18q27 0 44 18t17 45z" />
    <glyph glyph-name="perthousand" unicode="&#x2030;" horiz-adv-x="1075" 
d="M1040 220q0 60 -32.5 93t-83.5 33q-48 0 -88.5 -21.5t-70 -54.5t-46.5 -73.5t-17 -79.5q0 -60 32.5 -93t82.5 -33q48 0 89 21.5t70.5 54.5t46.5 73.5t17 79.5zM373 587q0 60 -32.5 93t-82.5 33q-48 0 -89 -21.5t-71 -54.5t-47 -73.5t-17 -79.5q0 -60 33 -93t83 -33
q48 0 89 21.5t70.5 54.5t46.5 73.5t17 79.5zM579 726q1 1 -6.5 5.5t-8.5 2.5l-434 -749q-1 -2 5.5 -6.5t7.5 -2.5zM672 220q0 60 -32.5 93t-82.5 33q-48 0 -88.5 -21.5t-70.5 -54.5t-47 -73.5t-17 -79.5q0 -60 32.5 -93t82.5 -33q48 0 89 21.5t70.5 54.5t46.5 73.5t17 79.5z
M970 262q0 -23 -7.5 -56.5t-20.5 -68t-30.5 -65.5t-37.5 -47q-12 -11 -25.5 -14.5t-27.5 -3.5q-26 0 -35.5 16t-9.5 52q0 22 7.5 56t21 68.5t30.5 65t37 47.5q13 11 26 14.5t28 3.5q24 0 34 -16t10 -52zM302 629q0 -23 -7.5 -56.5t-20.5 -68t-30.5 -65.5t-36.5 -47
q-14 -11 -26.5 -14.5t-26.5 -3.5q-25 0 -34.5 16t-9.5 52q0 22 7.5 56t20.5 68.5t30 65t37 47.5q13 11 26.5 14.5t27.5 3.5q25 0 34 -16t9 -52zM602 262q0 -23 -7.5 -56.5t-20.5 -68t-30.5 -65.5t-37.5 -47q-12 -11 -25.5 -14.5t-27.5 -3.5q-25 0 -34.5 16t-9.5 52
q0 22 7.5 56t20.5 68.5t30 65t37 47.5q14 11 26.5 14.5t27.5 3.5q24 0 34 -16t10 -52z" />
    <glyph glyph-name="guilsinglleft" unicode="&#x2039;" horiz-adv-x="220" 
d="M188 51q0 23 -5.5 47.5t-14 46.5t-19 39.5t-21.5 28.5q11 10 21.5 28t19 40t14 46t5.5 48q0 4 -9 4t-9 -4q0 -29 -17.5 -56t-41 -48t-46 -36t-32.5 -20q-4 -2 0 -4q10 -5 32.5 -20t46 -36t41 -48t17.5 -56q0 -4 9 -4t9 4z" />
    <glyph glyph-name="guilsinglright" unicode="&#x203a;" horiz-adv-x="220" 
d="M186 211q4 2 0 4q-10 5 -32.5 20t-46 36t-41 48t-17.5 56q0 4 -9 4q-8 0 -8 -4q0 -24 5.5 -48t13.5 -46t18.5 -40t21.5 -28q-11 -11 -21.5 -28.5t-18.5 -39.5t-13.5 -46.5t-5.5 -47.5q0 -4 8 -4q9 0 9 4q0 29 17.5 56t41 48t46 36t32.5 20z" />
    <glyph glyph-name="trademark" unicode="&#x2122;" horiz-adv-x="497" 
d="M485 528v15h-24q-2 0 -2 1v148q0 1 2 1h24v16h-81q-2 0 -4 -5l-42 -118l-40 118q-2 5 -3 5h-76q-1 0 -1 -8t1 -8h24q2 0 2 -1v-148q0 -1 -2 -1h-24q-1 0 -1 -8q0 -7 1 -7h66q2 0 2 7q0 8 -2 8h-23q-2 0 -2 1v145l61 -165q0 -1 5 -1t6 1l64 171v-151q0 -1 -3 -1h-23
q-1 0 -1 -8q0 -7 1 -7h95zM209 643v65v0q0 1 1 1h-184q-1 0 -1 -1v0v-65q0 -1 7 -1t7 1q0 22 10.5 36t41.5 14h2q2 0 2 -1v-148q0 -1 -2 -1h-24q-1 0 -1 -8q0 -7 1 -7h95q1 0 1 7q0 8 -1 8h-24q-1 0 -1 1v148q0 1 1 1h1q30 0 41.5 -14t11.5 -36q0 -1 7 -1q8 0 8 1z" />
    <glyph glyph-name="fraction" unicode="&#x2215;" horiz-adv-x="523" 
d="M484 721q1 1 -6 5.5t-8 2.5l-434 -749q-1 -2 5.5 -6.5t7.5 -2.5z" />
    <glyph glyph-name="radical" unicode="&#x221a;" horiz-adv-x="839" 
d="M829 0q2 0 2 8t-2 8h-57q-7 0 -7 4v721q0 3 -3 3q-5 0 -19 -3t-29.5 -6t-29 -6t-16.5 -3q-7 0 -23 9t-48 9q-16 0 -36.5 -3.5t-42 -12t-41.5 -22.5t-35 -35q-6 15 -19 27t-28.5 21t-33 13.5t-33.5 4.5q-41 0 -80.5 -15.5t-71.5 -49.5t-51.5 -89t-19.5 -134v-19
q0 -4 -7 -4h-71q-2 0 -2 -8t2 -8h71q7 0 7 -4v-386q0 -4 -7 -4h-56q-2 0 -2 -8t2 -8h237q2 0 2 8t-2 8h-56q-7 0 -7 4v386q0 4 7 4h151q6 0 6 -4v-386q0 -4 -6 -4h-57q-2 0 -2 -8t2 -8h237q2 0 2 8t-2 8h-57q-7 0 -7 4v386q0 4 7 4h157v-390q0 -4 -6 -4h-56q-2 0 -2 -8t2 -8
h237zM654 426h-157q-7 0 -7 4v178q0 33 8.5 55.5t23.5 36.5t34.5 20t40.5 6q22 0 39.5 -6.5t17.5 -14.5v-279zM430 653q-23 -34 -36.5 -82t-13.5 -122v-19q0 -4 -6 -4h-151q-7 0 -7 4v171q0 33 10 55.5t25 36.5t34 20t37 6q35 0 66 -18.5t42 -47.5z" />
    <glyph glyph-name="approxequal" unicode="&#x2248;" horiz-adv-x="850" 
d="M830 0q2 0 2 8t-2 8h-58q-7 0 -7 4v403q0 3 -3 3h-265q-7 0 -7 4v178q0 33 10 55.5t26 36.5t35.5 20t39.5 6q46 0 61 -14.5t15 -49.5q0 -13 -2.5 -19.5t-5.5 -11.5t-5.5 -11t-2.5 -18q0 -18 14 -31.5t45 -13.5q26 0 43 18.5t17 44.5q0 20 -9 42t-28 40t-49 30t-72 12
q-58 0 -102.5 -16t-77.5 -57q-6 15 -18.5 27t-28.5 21t-33 13.5t-33 4.5q-41 0 -81 -15.5t-72 -49.5t-51.5 -89t-19.5 -134v-19q0 -4 -7 -4h-71q-2 0 -2 -8t2 -8h71q7 0 7 -4v-386q0 -4 -7 -4h-56q-2 0 -2 -8t2 -8h237q2 0 2 8t-2 8h-56q-7 0 -7 4v386q0 4 7 4h150q8 0 8 -4
v-386q0 -4 -8 -4h-56q-2 0 -2 -8t2 -8h237q2 0 2 8t-2 8h-57q-7 0 -7 4v386q0 4 7 4h151q6 0 6 -4v-386q0 -4 -6 -4h-55q-2 0 -2 -8t2 -8h237zM429 653q-22 -34 -35 -82t-13 -122v-19q0 -4 -8 -4h-150q-7 0 -7 4v171q0 33 10 55.5t25.5 36.5t34.5 20t37 6q35 0 65 -18.5
t41 -47.5z" />
    <glyph glyph-name="apple" unicode="&#xf8ff;" horiz-adv-x="967" 
d="M867 0v750h-767v-750h767zM820 520q0 -1 -1 -1v0q-4 0 -6 0.5t-7 0.5t-7 -0.5t-7 -0.5q-1 0 -1 1v1v1q7 1 7 5q0 3 -1 4l-3 15h-25l4 -15q0 -4 1 -5.5t8 -3.5v-2v-1q-4 0 -5.5 0.5t-6.5 0.5t-7.5 -0.5t-7.5 -0.5q-1 0 -1 1v1v1q8 1 8 5q0 3 -1 4l-7 33l-3 6t-8 3v2v1
q4 0 6.5 -0.5t6.5 -0.5q5 0 7 0.5t7 0.5q1 0 1 -2v-1q-7 -1 -7 -5v-4l4 -14h25l-3 14l-3 6t-6 3q-1 0 -1 2v1q4 0 6 -0.5t7 -0.5q4 0 7 0.5t7 0.5q2 0 2 -2q0 -1 -1 -1q-8 -1 -8 -5q0 -3 1 -4l8 -33q1 -4 2 -5.5t7 -3.5q2 0 2 -2zM559 686h-2q-3 9 -11 9q-3 0 -3 -3v-22
q0 -5 5 -6q1 0 1 -1t-1 -1h-8h-9q-1 0 -1 1t1 1q5 1 5 6v22q0 3 -3 3q-5 0 -6 -2t-3 -7h-1h-1q1 4 1.5 6.5t0.5 5.5q2 -1 4 -1h12h11t4 1q2 -3 2 -6q0 -2 2 -6zM694 540q0 -12 -7.5 -17t-14.5 -5q-14 0 -25 11t-11 27q0 12 7.5 17t14.5 5q14 0 25 -11.5t11 -26.5zM503 662
h-9h-9v1v1q5 1 5 6v9h-17v-9q0 -5 5 -6v-1v-1h-9h-8q-1 0 -1 1t1 1q5 1 5 6v19q0 6 -5 6q-1 0 -1 1t1 1h8h9v-1v-1q-5 0 -5 -6v-8h17v8q0 6 -5 6v1v1h9h9v-1v-1q-5 0 -5.5 -1.5t-0.5 -4.5v-19q0 -3 0.5 -4t5.5 -2v-1v-1zM825 378h-36v28h-11v-65h14v-33h-81v33h14v65h-11
v-28h-36v62h147v-62zM587 536q0 -8 -6.5 -13t-17.5 -5q-16 0 -16 13q0 10 9 10q7 0 7 -5t-4 -5q-2 0 -3 1t-2 1q-3 0 -3 -3q0 -9 12 -9t12 14q0 10 -6 15q-5 -5 -11 -5q-8 0 -8 6t8 6h8q2 2 2 6q0 12 -10 12q-7 0 -7 -6q0 -2 1.5 -2.5t1.5 -3.5t-4 -3q-5 0 -5 6q0 5 3.5 8.5
t9.5 3.5q9 0 14.5 -5t5.5 -10t-4 -9q13 -7 13 -18zM826 619h-685v4h685v-4zM439 663q0 -1 -1 -1v0h-16h-12q-1 3 -2 5.5t-2 5.5v0q0 1 1 1q4 -9 12 -9h3q4 0 4 3v12h-4q-6 0 -6 -6v-1h-1h-1v1v6v6q0 1 1 1t1 -1q0 -5 6 -5h4v10q0 4 -4 4h-3q-6 0 -9 -8v-1q-1 0 -1.5 0.5
l-0.5 0.5q2 4 2 10h12h16v0q1 0 1 -1t-1 -1v0q-5 0 -5 -6v-19q0 -5 5 -6v0q1 0 1 -1zM497 520v-1q-5 0 -7 0.5t-7 0.5q-4 0 -7 -0.5t-7 -0.5q-1 0 -1.5 1l-0.5 1v1h1q8 1 8 5q0 3 -1 4l-3 16h-5q-9 0 -8 -11h-1h-2q-1 4 -1 6q0 3 -1 6q-1 4 -1.5 5.5t-1.5 5.5v1h1q2 0 2 -1
q2 -6 4.5 -7.5t7.5 -1.5h4l-3 16q-1 6 -6 6h-4q-13 0 -14 -13q0 -1 -1 -1q-2 0 -2 1q0 3 0.5 5.5t0.5 4.5q0 5 -1 7q5 0 10 -0.5t10 -0.5t13.5 0.5t11.5 0.5l0.5 -0.5t0.5 -1.5t-1 -1q-7 -1 -7 -5q0 -3 1 -4l7 -33q2 -4 3 -5.5t7 -3.5q1 0 1 -2zM823 173q0 -1 -0.5 -1.5
l-0.5 -0.5q-4 0 -6 0.5t-7 0.5t-7.5 -0.5t-7.5 -0.5q-1 0 -1 1v1v2q8 1 8 5q0 1 -0.5 1.5t-0.5 2.5l-3 15h-5q-9 0 -8 -11h-1h-1q-2 4 -2 7t-1 5q-1 4 -1.5 5.5t-1.5 6.5h2h1q2 -7 4.5 -8t7.5 -1h5l-4 15q-1 6 -6 6h-4q-11 0 -14 -13v-1h-1t-1.5 0.5t0.5 0.5v11v6h19h25
q2 0 2 -2l-1 -1q-8 -1 -8 -5v-4l9 -32q1 -5 2 -6.5t7 -2.5q1 0 1.5 -1zM826 476h-685v4h685v-4zM644 406h-14l-37 -45v-20h15v-33h-81v33h14v19l-37 46h-12v34h62v-34h-10l15 -23l15 23h-11v34h81v-34zM399 521q0 -3 -4 -3q-7 0 -12 7q-8 0 -11 -6t-16 -6t-13 11q0 6 5 6
t5 -4q0 -2 -1 -2.5t-1 -2.5q0 -4 5 -4q7 0 8.5 6.5t12.5 6.5q-5 6 -7 14t-3 14.5t-2.5 11.5t-6.5 5t-5 -6t-4 -6q-5 0 -5 5q0 3 4 6.5t9 3.5q10 0 14.5 -6t6.5 -13.5t3.5 -16t4.5 -12.5q7 -1 10 -4t3 -5zM725 192q0 -12 -7.5 -17t-14.5 -5q-13 0 -24 11.5t-11 26.5
q0 12 7 17t14 5q14 0 25 -11.5t11 -26.5zM292 536q0 -8 -6 -13t-17 -5q-17 0 -17 13q0 10 9 10q8 0 8 -5t-5 -5q-2 0 -3 1t-2 1q-2 0 -2 -3q0 -9 12 -9q5 0 8.5 3t3.5 11q0 9 -6 15q-5 -5 -12 -5t-7 6t7 6h9q0 1 0.5 2t0.5 4q0 12 -10 12q-6 0 -6 -6q0 -2 1.5 -2.5t1.5 -3.5
t-5 -3t-5 6q0 5 4 8.5t9 3.5q9 0 14.5 -5t5.5 -10t-4 -9q13 -7 13 -18zM620 225q-9 -1 -9 -5q0 -1 0.5 -1.5t0.5 -2.5l5 -22q2 -6 2 -8q0 -5 -4.5 -10.5t-16.5 -5.5q-14 0 -19 9t-7 17l-5 20q-1 5 -2.5 6.5t-8.5 2.5q-1 0 -1 1v1v1h11h12v-1v-2q-8 -1 -8 -5q0 -1 0.5 -1.5
t0.5 -2.5l4 -19q2 -9 7 -15.5t13 -6.5q13 0 13 10q0 2 -2 10l-5 21q-1 5 -2 6.5t-8 2.5q-1 0 -1 1v1v1h14h15q1 0 1 -2v-1zM455 308h-81v33h15v19h-30q-22 0 -34.5 11.5t-12.5 28.5t12.5 28.5t34.5 11.5h96v-34h-14v-65h14v-33zM826 272h-685v4h685v-4zM694 47h-8h-6
q-1 0 -1 1v0q0 1 1 1q5 0 5 5l-1 19l-25 -27h-1h-2v28q0 2 -0.5 3.5t-5.5 1.5v2v1q2 0 3.5 -0.5t3.5 -0.5t4 0.5t4 0.5v-1v-2q-5 0 -5.5 -1.5t-0.5 -3.5v-17l24 25q2 0 2.5 -0.5t2.5 -0.5t2.5 0.5t2.5 0.5v-1v-2q-6 0 -6 -5l1 -20q0 -5 6 -5v-1v-1zM203 520q0 -1 -1 -1
q-4 0 -6.5 0.5t-6.5 0.5q-5 0 -8 -0.5t-7 -0.5q-1 0 -1 1v1v1q8 1 8 5v4l-4 14q-4 0 -5 -3l-12 -23q-6 0 -10.5 -0.5t-7.5 -0.5q-2 0 -2 1q0 2 1 2q9 1 14 9l8 16q-7 2 -13 6.5t-6 10.5q0 13 20 13q5 0 7.5 -0.5t6.5 -0.5t6 0.5t7 0.5v-2v-1q-8 -1 -8 -5q0 -3 1 -4l7 -33
q2 -4 3 -5.5t8 -3.5l0.5 -0.5t0.5 -1.5zM522 173q0 -2 -1 -2q-2 0 -4 0.5t-5 0.5q-4 0 -7 -0.5t-5 -0.5l-1 2q0 2 1 2q8 1 6 9l-5 30l-31 -44h-2q-1 0 -1 1l-8 45q-2 8 -10 9v2v1q3 0 5 -0.5t5 -0.5q4 0 6.5 0.5t4.5 0.5t2 -2v-1h-1q-9 -1 -7 -9l4 -28l30 40h9h5q2 0 2 -2
v-1h-1q-9 -1 -9 -6q0 -2 1 -3l7 -32q0 -8 9 -9zM632 46q-3 1 -8 1h-9q-8 0 -12 -1q-1 7 -4 11q0 1 1 1h1q3 -9 12 -9h2q4 0 4 4v11h-4q-2 0 -3.5 -0.5t-2.5 -5.5h-1v6v7v1q1 0 1 -1v0q1 -5 6 -5h4v9q0 4 -4 4h-2q-8 0 -10 -7q0 -1 -1 -1v1q0 3 0.5 5t1.5 5q3 0 5.5 -0.5
t6.5 -0.5q3 0 8 0.5t8 0.5v-1v-2q-5 0 -5.5 -1.5t-0.5 -3.5v-20q0 -2 0.5 -3.5t5.5 -1.5v-1v-2zM582 81q0 -2 -1 -2q-2 0 -6 -6l-12 -27h-1l-9 15l-7 -15h-1h-1l-12 27q-2 3 -2.5 4.5t-3.5 1.5v2v1q2 0 2.5 -0.5t2.5 -0.5t3 0.5t3 0.5q1 0 1 -1v0q0 -2 -1 -2q-2 0 -2 -3v-3
l8 -18l7 13l-3 5q-3 6 -7 6q-1 0 -1 2v1q2 0 3.5 -0.5t3.5 -0.5t2.5 0.5t2.5 0.5q3 0 4 -0.5t3 -0.5q3 0 3.5 0.5t3.5 0.5l1 -1q0 -1 -0.5 -1.5l-0.5 -0.5q-5 0 -6 -6l-5 -9l6 -9l9 19v2q0 3 -2 3v2v1q3 0 4.5 -0.5t3.5 -0.5t3 0.5t4 0.5v-1zM826 128h-685v4h685v-4z
M277 308h-141v61h41v-28h33v21h-24v24h24v20h-33v-28h-41v62h141v-34h-14v-65h14v-33zM413 171q-3 1 -8 1h-9h-15q-13 0 -24 9t-11 25q0 11 8 17t17 6q3 0 6.5 -0.5t8.5 -0.5h15v-2v-1q-7 -1 -7 -5v-4l8 -32q1 -5 2 -6.5t8 -2.5q1 0 1 -1v-1v-2zM479 81v-2q-5 0 -7 -5
l-8 -12v-8q0 -5 5 -5q1 0 1 -1v0q0 -2 -1 -2q-2 0 -4 0.5t-4 0.5q-4 0 -5.5 -0.5t-3.5 -0.5v2v1q5 0 5 5v8l-8 12q-4 5 -8 5v2v1q2 0 3 -0.5t3 -0.5t4 0.5t4 0.5v-1v-2q-4 0 -4 -3v-1l1 -1l6 -9l6 9q1 1 1 3t-2 2q-1 0 -1 2v0q0 1 1 1q2 0 3.5 -0.5t4.5 -0.5t4.5 0.5
t3.5 0.5v-1zM306 173q0 -1 -0.5 -1.5l-0.5 -0.5q-4 0 -6 0.5t-7 0.5t-7.5 -0.5t-7.5 -0.5l-1 2q0 2 1 2q7 1 7 5v4l-3 13q-4 0 -6 -3l-12 -22q-6 0 -10 -0.5t-8 -1.5h-1v2q0 1 1 1q9 3 12 10l9 16q-7 1 -12.5 6t-5.5 11q0 12 19 12h14h12q2 0 2 -2v-1h-1q-7 -1 -7 -5v-4
l8 -32q1 -5 2 -6.5t8 -2.5zM424 64q0 -8 -5.5 -13t-14.5 -5t-14 5t-5 13t5 13t14 5t14.5 -5t5.5 -13zM364 48q0 -2 -1 -2q-2 0 -3.5 0.5t-5.5 0.5q-3 0 -4.5 -0.5t-3.5 -0.5q-1 0 -1 2v0q0 1 1 1q5 0 5 5v9q-3 0 -4 -1t-3 -4l-6 -11h-6h-6v1v1q5 0 7 4l8 11q-8 3 -8 9
q0 9 12 9q3 0 4.5 -0.5t4.5 -0.5t5 0.5t4 0.5q1 0 1 -1v0q0 -2 -1 -2q-5 0 -5 -5v-20q0 -5 5 -5q1 0 1 -1v0zM202 215h-2l-4.5 4.5t-7.5 2.5q-9 0 -9 -13q0 -8 3 -17l2 -8q1 -5 2 -6.5t8 -2.5l1 -2q0 -1 -0.5 -1.5l-0.5 -0.5q-4 0 -6 0.5t-6 0.5q-5 0 -7.5 -0.5t-7.5 -0.5
q-1 0 -1 1v1v2q7 1 7 5v4l-1 6q-4 14 -9 23.5t-15 9.5q-8 0 -8 -6h-3v1q0 5 2 8.5t7 3.5q8 0 14.5 -6.5t9.5 -16.5v5q0 18 14 18q8 0 11.5 -4t6.5 -9q2 0 0 -2zM308 46q-2 0 -4 0.5t-5 0.5t-4.5 -0.5t-4.5 -0.5v2v1q5 0 5.5 1.5t0.5 3.5v9q-2 0 -4 -2l-7 -8q-1 -1 -1 -2
q0 -2 3 -2v-1v-2q-3 0 -5.5 0.5t-4.5 0.5q-3 0 -4.5 -0.5t-3.5 -0.5q-1 0 -1 2l1 1q3 0 7 4l13 13l-9 9l-3 3t-5 1v2v1q2 0 3 -0.5t3 -0.5t3.5 0.5t3.5 0.5v-1v-2q-3 0 -3 -1t2 -3l8 -8q1 -3 4 -3v10q0 2 -0.5 3.5t-5.5 1.5v2v1q3 0 4.5 -0.5t4.5 -0.5t5 0.5t4 0.5v-1v-2
q-6 0 -6 -5v-20q0 -5 6 -5v-1v-2zM683 535q0 16 -7.5 28t-16.5 12q-12 0 -12 -15t7.5 -27t16.5 -12q12 0 12 14zM565 553q-2 1 -7 1q-4 0 -4 -3q0 -2 4 -2t7 4zM713 188q0 15 -6.5 27t-17.5 12q-10 0 -10 -14q0 -16 6.5 -28t17.5 -12q10 0 10 15zM270 553q-2 1 -7 1
q-3 0 -3 -3q0 -2 3 -2q4 0 7 4zM389 384v22h-11q-13 0 -13 -11t13 -11h11zM176 548l-3 18q-2 6 -9 6q-8 0 -8 -9q0 -5 3 -10t12 -5h5zM554 77q0 2 -3 2q-2 0 -2 -3l0.5 -1.5t1.5 -3.5q3 4 3 6zM392 182l-9 36q-2 5 -3 5.5t-3 0.5l-6 1q-14 0 -14 -18q0 -12 7.5 -21.5
t18.5 -9.5h5q2 0 3 0.5t1 5.5zM280 201l-5 17q0 7 -7 7q-8 0 -8 -10q0 -5 3 -9.5t12 -4.5h5zM416 64q0 7 -2.5 12t-9.5 5q-6 0 -9 -5t-3 -12q0 -16 12 -16t12 16zM351 65v10q0 4 -4 4q-7 0 -7 -6q0 -8 8 -8h3z" />
    <glyph glyph-name="fi" unicode="&#xfb01;" horiz-adv-x="578" 
d="M554 0q3 0 3 7q0 8 -3 8h-56q-6 0 -6 4v403q0 3 -3 3h-265q-7 0 -7 4v178q0 33 10 55.5t25.5 36.5t35 20t39.5 6q44 0 59.5 -14t15.5 -49q0 -13 -2.5 -19.5t-5.5 -11.5t-5.5 -11t-2.5 -18q0 -20 14 -33t45 -13q27 0 43.5 19t16.5 43q0 21 -8.5 43t-27.5 40t-49 30t-72 12
q-53 0 -97.5 -15t-76.5 -49.5t-50 -91t-18 -138.5v-20q0 -4 -6 -4h-71q-2 0 -2 -8q0 -7 2 -7h71q6 0 6 -4v-387q0 -4 -6 -4h-57q-2 0 -2 -8q0 -7 2 -7h237q2 0 2 7q0 8 -2 8h-56q-7 0 -7 4v387q0 4 7 4h150q7 0 7 -4v-387q0 -4 -7 -4h-55q-3 0 -3 -8q0 -7 3 -7h235z" />
    <glyph glyph-name="fl" unicode="&#xfb02;" horiz-adv-x="568" 
d="M554 0q3 0 3 7q0 8 -3 8h-56q-6 0 -6 4v721q0 3 -3 3q-5 0 -19 -3t-29.5 -6t-28.5 -6t-17 -3q-7 0 -23 9t-48 9q-36 0 -75 -12.5t-70.5 -45.5t-52 -90t-20.5 -146v-20q0 -4 -6 -4h-71q-2 0 -2 -8q0 -7 2 -7h71q6 0 6 -4v-387q0 -4 -6 -4h-57q-2 0 -2 -8q0 -7 2 -7h237
q2 0 2 7q0 8 -2 8h-56q-7 0 -7 4v387q0 4 7 4h157v-391q0 -4 -7 -4h-55q-3 0 -3 -8q0 -7 3 -7h235zM381 425h-157q-7 0 -7 4v178q0 33 8.5 55.5t23.5 36.5t34.5 20t40.5 6q20 0 38.5 -6.5t18.5 -14.5v-279z" />
    </font>
</defs>
</svg>
