<?xml version="1.0" standalone="no"?>
<!DOCTYPE svg PUBLIC "-//W3C//DTD SVG 1.1//EN" "http://www.w3.org/Graphics/SVG/1.1/DTD/svg11.dtd" >
<svg xmlns="http://www.w3.org/2000/svg" xmlns:xlink="http://www.w3.org/1999/xlink" version="1.1">
<metadata>
Created by FontForge 20170731 at Sun Jan 22 10:58:57 2006
 By Aleksey,,,
HTF Didot   1992 The Hoefler Type Foundry, Inc. This typeface and the digital software that describes it are the exclusive property of HTF. HTF Didot is a trademark of The Hoefler Type Foundry, Inc.
</metadata>
<defs>
<font id="Didot-HTF-M06-Medium" horiz-adv-x="635" >
  <font-face 
    font-family="Didot"
    font-weight="500"
    font-stretch="normal"
    units-per-em="1000"
    panose-1="2 0 6 3 2 0 0 2 0 4"
    ascent="800"
    descent="-200"
    x-height="426"
    cap-height="709"
    bbox="-111 -319 1014 963"
    underline-thickness="20"
    underline-position="-163"
    unicode-range="U+0020-FB02"
  />
<missing-glyph horiz-adv-x="500" 
 />
    <glyph glyph-name=".notdef" horiz-adv-x="500" 
 />
    <glyph glyph-name=".null" horiz-adv-x="0" 
 />
    <glyph glyph-name="nonmarkingreturn" horiz-adv-x="173" 
 />
    <glyph glyph-name="space" unicode=" " horiz-adv-x="173" 
 />
    <glyph glyph-name="space" unicode="&#xa0;" horiz-adv-x="173" 
 />
    <glyph glyph-name="exclam" unicode="!" horiz-adv-x="230" 
d="M181 645q0 23 -5.5 38.5t-14.5 25t-20.5 13.5t-24.5 4q-26 0 -46 -17.5t-20 -63.5q0 -33 8.5 -84.5t19 -113t19 -129t8.5 -133.5q0 -2 11 -2t11 2q0 66 8.5 133.5t18.5 129t18.5 113t8.5 84.5zM174 49q0 26 -17 44t-41 18t-42 -18t-18 -44q0 -24 18 -42.5t42 -18.5
t41 18.5t17 42.5z" />
    <glyph glyph-name="quotedbl" unicode="&#x22;" horiz-adv-x="314" 
d="M264 673q0 16 -8 34.5t-30 18.5q-11 0 -18 -5.5t-11.5 -13.5t-6.5 -17t-2 -17q0 -38 9 -86.5t17 -98.5l1 -11q1 -4 11 -4t11 4v11q8 50 17.5 98.5t9.5 86.5zM127 673q0 8 -1.5 17t-6 17t-11.5 13.5t-19 5.5q-11 0 -18.5 -5.5t-11.5 -13.5t-5.5 -17t-1.5 -17
q0 -38 9.5 -86.5t17.5 -98.5l2 -11q0 -4 8 -4q9 0 11 4q-1 0 0 5.5l1 5.5q7 50 16.5 98.5t9.5 86.5z" />
    <glyph glyph-name="numbersign" unicode="#" horiz-adv-x="452" 
d="M432 297q1 0 1 3v8v9t-1 4h-102l37 146q0 1 -3 1.5t-7 1t-8 0.5t-4 -1l-39 -148h-107l38 146q0 1 -3 1.5t-7 1t-8 0.5t-4 -1l-39 -148h-95q-1 0 -1.5 -4t-0.5 -9q0 -4 0.5 -7.5t1.5 -3.5h88l-35 -147h-98q-1 0 -1.5 -4t-0.5 -9q0 -4 0.5 -7.5t1.5 -3.5h90l-44 -167
q0 -1 3.5 -1.5t7.5 -1t8 -0.5t4 1l43 169h109l-45 -167q0 -1 3 -1.5t7.5 -1t7.5 -0.5q4 0 4 1l45 169h109q1 0 1 3v8v9t-1 4h-102l37 147h109zM301 297l-37 -147h-109l38 147h108z" />
    <glyph glyph-name="dollar" unicode="$" horiz-adv-x="539" 
d="M487 220q0 77 -39.5 123t-120.5 78v276q17 -4 30 -12.5t22 -18t13.5 -19t4.5 -15.5q0 -15 -5.5 -21.5t-12.5 -12.5t-12.5 -15t-5.5 -27q0 -26 17 -46t41 -20q21 0 41.5 20.5t20.5 55.5q0 24 -14 49t-36.5 46.5t-50 37.5t-53.5 21v91q0 1 -4 1h-7h-8q-3 0 -3 -1v-87
q-17 3 -34 3q-10 0 -19 -0.5t-19 -3.5v88q0 1 -4 1h-8h-8q-3 0 -3 -1v-93q-29 -6 -54.5 -25.5t-45 -48t-31 -64.5t-11.5 -75q0 -44 13 -77t33.5 -56.5t45.5 -39t50 -25.5v-294q-24 3 -39 9t-24 14.5t-12 17.5t-3 18q0 15 6 22t12.5 13t12.5 15t6 27q0 27 -17 46t-42 19
q-21 0 -40.5 -20t-19.5 -56q0 -26 14 -51t36.5 -45.5t51 -34.5t58.5 -18v-89q0 -1 3.5 -1.5t7.5 -0.5q5 0 8.5 0.5t3.5 1.5v85q8 -1 15 -1.5t15 -0.5q11 0 21 1t21 3v-87q0 -2 11 -2t11 2v93q37 7 66.5 30t50.5 55t32 69t11 73zM305 431q-19 6 -37 14.5t-35 16.5v237
q22 5 39 5q21 0 33 -4v-269zM210 473q-45 25 -61.5 56t-16.5 66q0 37 20 62t58 38v-222zM422 118q0 -18 -7.5 -34.5t-20 -30t-30 -23t-37.5 -13.5v243q49 -23 72 -59t23 -83zM305 11q-11 -2 -21.5 -3t-21.5 -1q-8 0 -15 0.5t-14 0.5v291q22 -8 39 -15.5t33 -15.5v-257z" />
    <glyph glyph-name="percent" unicode="%" horiz-adv-x="690" 
d="M361 587q0 60 -30.5 93t-78.5 33q-45 0 -84 -21.5t-67.5 -54.5t-44.5 -73.5t-16 -79.5q0 -60 31 -93t79 -33q45 0 84 21.5t67 54.5t44 73.5t16 79.5zM563 726l-3 2.5t-7 4.5t-7.5 4t-3.5 1l-412 -749q0 -1 2.5 -3.5t6 -4.5l7 -4t3.5 -1zM651 220q0 60 -31 93t-79 33
q-45 0 -83.5 -21.5t-66.5 -54.5t-44 -73.5t-16 -79.5q0 -60 30.5 -93t77.5 -33q46 0 84.5 21.5t67 54.5t44.5 73.5t16 79.5zM294 621q0 -23 -6 -54t-17 -62.5t-27 -60t-35 -44.5q-13 -11 -26 -14.5t-28 -3.5q-25 0 -34.5 16t-9.5 52q0 22 6 53.5t17 63t26.5 59.5t35.5 45
q14 11 27 14.5t28 3.5q25 0 34 -16t9 -52zM585 254q0 -23 -6 -54t-17 -62.5t-27 -60t-36 -44.5q-12 -11 -25.5 -14.5t-27.5 -3.5q-26 0 -35.5 16t-9.5 52q0 22 6 53.5t17 63t27 59.5t36 45q13 11 25.5 14.5t28.5 3.5q24 0 34 -16t10 -52z" />
    <glyph glyph-name="ampersand" unicode="&#x26;" horiz-adv-x="721" 
d="M719 377q1 0 1 3v8v9t-1 4h-258q-1 0 -1.5 -4t-0.5 -9q0 -4 0.5 -7.5t1.5 -3.5h38q42 0 61.5 -16.5t13.5 -58.5q-5 -49 -16.5 -94t-33.5 -83q-29 43 -57.5 87t-54 89t-47 90.5t-36.5 92.5q56 31 79 73.5t23 79.5q0 42 -23 65.5t-78 23.5q-30 0 -56 -13t-45.5 -37.5
t-30.5 -59.5t-11 -78q0 -45 18 -97q-83 -52 -125.5 -113t-42.5 -139q0 -45 17 -83t47 -65.5t72 -42.5t92 -15q94 0 174 49q55 -48 112 -48q22 0 45.5 5.5t44 15.5t37 25t24.5 35q0 1 -2 3.5t-5 4.5l-6 4t-3 1q-7 -19 -15 -27.5t-24 -13.5q-8 -3 -16 -3q-22 0 -41 10t-37 36
q-5 8 -8 12.5t-9 12.5q22 38 39 89t23 108q4 42 23 58.5t57 16.5h41zM409 637q0 -37 -19 -70t-68 -60q-20 63 -20 114q0 46 14.5 61.5t42.5 15.5q23 0 36.5 -16t13.5 -45zM422 50q-17 -8 -28.5 -9.5t-30.5 -1.5q-56 0 -98 20t-70 53t-41.5 75.5t-13.5 87.5q0 50 19.5 85.5
t51.5 61.5q13 -40 32 -79.5t41 -78.5t45.5 -77t46.5 -74q7 -12 12.5 -20.5t10 -15.5t10 -13.5t13.5 -13.5z" />
    <glyph glyph-name="quotesingle" unicode="'" horiz-adv-x="179" 
d="M127 673q0 8 -1.5 17t-6 17t-11.5 13.5t-19 5.5q-11 0 -18 -5.5t-11.5 -13.5t-6 -17t-1.5 -17q0 -38 9.5 -86.5t17.5 -98.5l2 -11q0 -4 8 -4q9 0 11 4q-1 0 0 5.5l1 5.5q7 50 16.5 98.5t9.5 86.5z" />
    <glyph glyph-name="parenleft" unicode="(" horiz-adv-x="295" 
d="M305 -230q-25 18 -50 47.5t-45.5 83t-33.5 137t-13 209.5q0 125 13 208.5t33.5 137t45.5 83.5t50 48q1 0 -1.5 2.5t-5.5 5t-6 4.5t-4 2q-105 -79 -163.5 -205.5t-58.5 -285.5t58.5 -285.5t163.5 -205.5q1 0 4 1.5t6 4t5.5 5t1.5 3.5z" />
    <glyph glyph-name="parenright" unicode=")" horiz-adv-x="295" 
d="M229 247q0 159 -58 285.5t-164 205.5l-3 -2t-6 -4.5t-5.5 -5t-1.5 -2.5q24 -18 49.5 -48t45.5 -83.5t33 -137t13 -208.5q0 -126 -13 -209.5t-33 -137t-45.5 -83t-49.5 -47.5q-1 -1 1.5 -3.5t5.5 -5t6 -4l3 -1.5q106 79 164 205.5t58 285.5z" />
    <glyph glyph-name="asterisk" unicode="*" horiz-adv-x="418" 
d="M365 468q0 11 -4.5 19.5t-12.5 14.5q-12 9 -21 8.5t-21.5 -1t-30.5 4t-46 23.5q28 19 46 23.5t30.5 4t21.5 -1t21 8.5q17 14 17 35q0 20 -13 35t-30 15q-15 0 -22 -9t-15.5 -23t-21.5 -30.5t-38 -32.5l-6 -4v8q0 31 5 47.5t11 27t11 19.5t5 24q0 14 -11 28t-32 14
q-20 0 -30.5 -14t-10.5 -28q0 -15 4.5 -24t10.5 -19.5t10.5 -27t4.5 -47.5v-8l-7 4q-25 16 -38 32.5t-21 30.5t-15.5 23t-21.5 9q-17 0 -29.5 -15t-12.5 -35q0 -22 16 -35q12 -9 21 -8.5t21.5 1t30 -4t46.5 -23.5q-29 -19 -46.5 -23.5t-30 -4t-21.5 1t-21 -8.5
q-16 -13 -16 -34q0 -20 12.5 -35.5t29.5 -15.5q14 0 21.5 9t15.5 22.5t21 30.5t38 32l7 5v-9q0 -30 -4.5 -46.5t-10.5 -27t-10.5 -19t-4.5 -23.5t10.5 -29t30.5 -14q21 0 32 14t11 29t-5 23.5t-11 19t-11 27t-5 46.5v9l6 -5q25 -15 38 -32t21.5 -30.5t15.5 -22.5t22 -9
q17 0 30 15.5t13 35.5z" />
    <glyph glyph-name="plus" unicode="+" horiz-adv-x="396" 
d="M340 196q1 0 1 5v11v12t-1 5h-126v148q0 1 -5 1h-11h-10t-5 -1v-148h-134q-1 0 -1.5 -5t-0.5 -12q0 -6 0.5 -11t1.5 -5h134v-139q0 -1 5 -1.5t10 -0.5q6 0 11 0.5t5 1.5v139h126z" />
    <glyph glyph-name="comma" unicode="," horiz-adv-x="216" 
d="M162 36q0 34 -13.5 52.5t-39.5 18.5q-21 0 -36.5 -17t-15.5 -40q0 -15 5 -26.5t13 -17.5q31 -24 31 -54q0 -31 -33 -58q-5 -4 -12 -8.5t-16 -6.5q0 -1 1 -5.5l2 -9t2 -4.5q25 9 46 29.5t35.5 46t22.5 52.5t8 48z" />
    <glyph glyph-name="hyphen" unicode="-" horiz-adv-x="308" 
d="M275 267q4 4 0 4h-226q-3 -37 -16 -61q-2 -4 0 -4h225q2 17 6.5 33.5t10.5 27.5z" />
    <glyph glyph-name="period" unicode="." horiz-adv-x="216" 
d="M165 46q0 24 -16 40t-41 16q-23 0 -39 -16t-16 -40q0 -25 16 -42t39 -17q25 0 41 17t16 42z" />
    <glyph glyph-name="slash" unicode="/" horiz-adv-x="340" 
d="M369 754q0 1 -3 2.5l-7 3.5t-8 3t-4 0l-290 -777q-1 -1 2.5 -2.5t7.5 -3.5t7 -3t3 0z" />
    <glyph glyph-name="zero" unicode="0" horiz-adv-x="569" 
d="M515 213q0 46 -18 86.5t-49.5 70.5t-73 47.5t-89.5 17.5t-90 -17.5t-73.5 -47.5t-49.5 -70.5t-18 -86.5q0 -45 18 -85.5t49.5 -71t73.5 -48t90 -17.5t89.5 17.5t73 48t49.5 71t18 85.5zM407 213q0 -41 -2.5 -69.5t-8 -49t-14.5 -34t-22 -23.5q-15 -13 -33.5 -17.5
t-41.5 -4.5t-42 4.5t-33 17.5q-12 10 -21 23.5t-15 34t-8.5 49t-2.5 69.5q0 72 11 114.5t36 62.5q14 13 33 17.5t42 4.5t41.5 -4.5t33.5 -17.5q26 -20 36.5 -62.5t10.5 -114.5z" />
    <glyph glyph-name="one" unicode="1" horiz-adv-x="358" 
d="M305 0l0.5 3.5t0.5 7.5q0 5 -0.5 9l-0.5 4h-68q-6 0 -6 4v370q0 4 6 4h68l0.5 3.5t0.5 7.5q0 5 -0.5 9l-0.5 4h-252q-1 0 -1.5 -4t-0.5 -9q0 -4 0.5 -7.5t1.5 -3.5h67q6 0 6 -4v-370q0 -4 -6 -4h-67q-1 0 -1.5 -4t-0.5 -9q0 -4 0.5 -7.5t1.5 -3.5h252z" />
    <glyph glyph-name="two" unicode="2" horiz-adv-x="480" 
d="M436 3v148q0 2 -11 2q-10 0 -10 -2q0 -45 -21 -62.5t-70 -17.5h-133q-4 0 -6 1t1 3q57 33 96.5 61t64.5 54t36.5 51.5t11.5 53.5q0 34 -13 60.5t-35.5 44t-52.5 26.5t-63 9q-41 0 -72 -11.5t-52 -29t-32 -39.5t-11 -43q0 -19 11 -34t35 -15q26 0 37 12t11 26
q0 12 -4 19.5t-4 20.5q0 32 17.5 51t53.5 19q38 0 53.5 -23t15.5 -84q0 -51 -11.5 -89t-41 -69.5t-80.5 -59.5t-131 -59q-2 -1 -2.5 -5t0 -9t1.5 -9t2 -4h407q2 0 2 3z" />
    <glyph glyph-name="three" unicode="3" horiz-adv-x="437" 
d="M423 -72q0 37 -12.5 72t-37 62t-60.5 43.5t-83 16.5q-9 0 -7 0t0 2q6 -3 30.5 11.5t52 39.5t49.5 57t22 63q0 37 -15 63.5t-41.5 43.5t-61.5 25t-74 8q-31 0 -56 -11t-43 -27t-27.5 -34t-9.5 -31q0 -19 10 -34t35 -15q26 0 37 12t11 27q0 12 -4.5 19t-4.5 21q0 26 16 38
t36 12q24 0 40.5 -3.5t26 -14.5t13.5 -32t4 -57q0 -42 -6 -73.5t-22 -56.5t-42.5 -46.5t-68.5 -44.5q-2 -1 -1 -4t2.5 -6.5t3.5 -6t3 -1.5q14 8 23.5 14t17.5 9.5t15 5t16 1.5q27 0 46.5 -4.5t31.5 -22.5t18 -53.5t6 -96.5t-8.5 -97t-25 -55t-40 -24.5t-53.5 -5.5
q-29 0 -51.5 11.5t-22.5 47.5q0 14 4.5 21t4.5 20q0 14 -11.5 26t-36.5 12t-35.5 -15.5t-10.5 -32.5q0 -19 11.5 -39t32.5 -36.5t50 -27.5t65 -11q39 0 81.5 14t77 41t57 67t22.5 93z" />
    <glyph glyph-name="four" unicode="4" horiz-adv-x="484" 
d="M484 0q1 0 1 3v8v9t-1 4h-109v187q0 2 -10 2t-11 -2q-4 -11 -11.5 -24.5t-18 -25.5t-24 -20.5t-30.5 -9.5v-107h-209l376 504q0 2 -8 8.5t-9 5.5q-9 -11 -28 -25.5t-41 -26t-44 -17.5t-38 0l-175 -352q-16 -34 -33.5 -65t-33.5 -51q-3 -5 1 -5h242v-278h105v278h109z" />
    <glyph glyph-name="five" unicode="5" horiz-adv-x="434" 
d="M397 -52q0 42 -10 80.5t-31 68t-54.5 47t-80.5 17.5q-50 0 -73.5 -14t-31.5 -27v247q21 -20 56.5 -25t73.5 -5q51 0 84 21t33 53q0 18 -10 28.5t-35 10.5q-15 0 -26.5 -8.5t-26 -18.5t-34 -18.5t-49.5 -8.5q-28 0 -51 6.5t-36 17.5q-3 3 -3 -1q0 -2 0.5 -3.5t0.5 -6.5
v-333q0 -6 -1.5 -15t-1.5 -16q0 -8 2 -10t7 -2q10 0 10 11q0 9 -0.5 13t1.5 12q4 22 12.5 35t20 19.5t26 8.5t30.5 2q28 0 45 -13t27 -38.5t13.5 -62t3.5 -82.5q0 -66 -6.5 -105.5t-20 -61t-35 -28t-51.5 -6.5t-51.5 11.5t-21.5 47.5q0 14 4 21t4 20q0 14 -11.5 26t-37.5 12
q-25 0 -35.5 -15.5t-10.5 -32.5q0 -19 11.5 -39t32.5 -36.5t50.5 -27.5t65.5 -11q39 0 78.5 15t71.5 44.5t52 73.5t20 102z" />
    <glyph glyph-name="six" unicode="6" horiz-adv-x="542" 
d="M494 196q0 41 -16.5 78t-45 65t-67 44.5t-81.5 16.5q-28 0 -58 -13t-48 -41q2 70 10 133t24.5 109.5t43 74t64.5 27.5q20 0 33 -12.5t13 -38.5q0 -14 -4 -21t-4 -20q0 -14 11.5 -26t36.5 -12q26 0 35.5 15.5t9.5 32.5q0 14 -9 32t-26 34t-41.5 27t-54.5 11
q-57 0 -103 -36t-79 -95t-50.5 -134t-17.5 -153t16.5 -135t45 -94.5t67.5 -55.5t85 -18q43 0 81.5 16.5t67 44.5t45 65t16.5 79zM385 196q0 -37 -2 -63.5t-6.5 -46t-12 -32t-17.5 -21.5q-13 -11 -28 -14.5t-35 -3.5q-18 0 -33.5 3.5t-28.5 14.5q-10 9 -18 21t-13.5 30
t-8.5 44t-3 63v102q0 15 8 29.5t22 26.5t33 19.5t42 7.5q20 0 35 -3.5t28 -14.5q21 -17 29.5 -58t8.5 -104z" />
    <glyph glyph-name="seven" unicode="7" horiz-adv-x="444" 
d="M424 422q2 2 1 3t-3 1h-9h-350q-3 0 -3 -3v-163q0 -2 10 -2q11 0 11 2q0 45 22.5 65t70.5 20h191l-292 -623h104l181 545q14 35 29.5 74.5t36.5 80.5z" />
    <glyph glyph-name="eight" unicode="8" horiz-adv-x="553" 
d="M499 194q0 37 -13.5 67.5t-35.5 56.5t-50.5 48.5t-59.5 42.5q62 26 95 63.5t33 87.5q0 34 -14.5 62t-39.5 48t-59 31.5t-73 11.5q-46 0 -79.5 -18t-55 -45t-31.5 -59t-10 -60q0 -30 9 -53.5t24 -43t35 -36t41 -32.5q-31 -14 -57.5 -33t-46 -42.5t-30.5 -52t-11 -62.5
q0 -42 17.5 -76t46.5 -58.5t67.5 -37.5t80.5 -13q55 0 95.5 18t67.5 47.5t40.5 65.5t13.5 72zM391 550q0 -46 -14.5 -79.5t-55.5 -50.5q-28 19 -53.5 35t-44.5 34t-30 41.5t-11 58.5q0 21 5.5 39.5t17.5 32.5t31 22t46 8q51 0 80 -31t29 -110zM425 134q0 -62 -38.5 -90.5
t-104.5 -28.5q-63 0 -95 40t-32 128q0 31 4 55t12.5 44t23 37t35.5 34q35 -26 70 -48t62.5 -46t45 -53.5t17.5 -71.5z" />
    <glyph glyph-name="nine" unicode="9" horiz-adv-x="543" 
d="M493 129q0 81 -17.5 139t-47.5 95t-71 54.5t-88 17.5q-45 0 -84 -17t-67 -46t-44 -68t-16 -82q0 -44 16 -83t44 -68t67 -46t84 -17q33 0 63.5 14t43.5 41q-3 -68 -10.5 -127.5t-24 -103.5t-43.5 -69.5t-69 -25.5q-26 0 -41 14.5t-15 40.5q0 12 4 19.5t4 20.5
q0 14 -10.5 26.5t-36.5 12.5q-25 0 -35.5 -15.5t-10.5 -33.5q0 -14 9.5 -32.5t28 -35.5t44.5 -29t59 -12q61 0 110 35.5t83.5 94t52.5 133.5t18 153zM384 224q0 -14 -0.5 -33.5t-1.5 -38.5t-2.5 -34.5t-2.5 -20.5q-4 -11 -12 -22t-21 -21t-31.5 -16t-43.5 -6
q-21 0 -35.5 4.5t-27.5 15.5q-23 19 -30.5 60.5t-7.5 109.5q0 39 1.5 66.5t6 47.5t12 33.5t18.5 22.5q13 11 27.5 15.5t35.5 4.5q22 0 39 -4.5t31 -15.5q11 -9 19.5 -22t14 -32.5t8.5 -47t3 -66.5z" />
    <glyph glyph-name="colon" unicode=":" horiz-adv-x="216" 
d="M165 372q0 23 -16 39t-41 16q-23 0 -39 -16t-16 -39q0 -26 16 -43t39 -17q25 0 41 17t16 43zM165 46q0 24 -16 40t-41 16q-23 0 -39 -16t-16 -40q0 -25 16 -42t39 -17q25 0 41 17t16 42z" />
    <glyph glyph-name="semicolon" unicode=";" horiz-adv-x="216" 
d="M165 372q0 23 -16 39t-41 16q-23 0 -39 -16t-16 -39q0 -26 16 -43t39 -17q25 0 41 17t16 43zM162 36q0 34 -13.5 52.5t-39.5 18.5q-21 0 -36.5 -17t-15.5 -40q0 -15 5 -26.5t13 -17.5q31 -24 31 -54q0 -31 -33 -58q-5 -4 -12 -8.5t-16 -6.5q0 -1 1 -5.5l2 -9t2 -4.5
q25 9 46 29.5t35.5 46t22.5 52.5t8 48z" />
    <glyph glyph-name="less" unicode="&#x3c;" horiz-adv-x="318" 
d="M283 96l-189 117l189 118q1 0 -0.5 4t-4 8.5t-4.5 7.5t-3 3l-219 -139v-3l219 -139q1 -1 3 2.5t4.5 8t4 8.5t0.5 4z" />
    <glyph glyph-name="equal" unicode="=" horiz-adv-x="358" 
d="M307 260v24h-254l-0.5 -4t-0.5 -9q0 -4 0.5 -7.5l0.5 -3.5h254zM307 141v23h-254l-0.5 -3.5t-0.5 -8.5q0 -4 0.5 -7.5l0.5 -3.5h254z" />
    <glyph glyph-name="greater" unicode="&#x3e;" horiz-adv-x="318" 
d="M266 212q1 1 0 3l-219 139q-1 0 -3 -3t-4 -7.5t-3.5 -8.5t-0.5 -4l189 -118l-189 -117q-1 0 0.5 -4t3.5 -8.5t4 -8t3 -2.5z" />
    <glyph glyph-name="question" unicode="?" horiz-adv-x="431" 
d="M418 518q0 46 -16.5 84.5t-46.5 66t-71 42.5t-89 15q-35 0 -68 -16t-58 -39.5t-40 -51.5t-15 -52q0 -31 16.5 -46t43.5 -15t42.5 15.5t15.5 35.5q0 12 -2.5 19t-5.5 13t-5.5 14t-2.5 23q0 36 20.5 56t58.5 20q20 0 37.5 -4.5t30.5 -15.5q10 -10 17.5 -22.5t12 -31.5
t6.5 -45.5t2 -64.5q0 -52 -0.5 -84t-2.5 -51t-6 -28t-10 -15q-16 -18 -47 -18q-20 0 -43 7.5t-34 27.5q-1 1 -2.5 0.5t-1.5 -2.5q0 -1 0.5 -1.5t0.5 -2.5v-166q0 -2 11 -2t11 2v126q14 -8 30 -10.5t28 -2.5q36 0 69.5 17t58.5 47t40 70t15 86zM224 49q0 26 -17 44t-41 18
t-41.5 -18t-17.5 -44q0 -24 17.5 -42.5t41.5 -18.5t41 18.5t17 42.5z" />
    <glyph glyph-name="at" unicode="@" horiz-adv-x="764" 
d="M702 403q0 77 -25 137t-67.5 101.5t-99 63t-119.5 21.5q-70 0 -132 -29t-108 -79.5t-73 -118.5t-27 -145t27 -144.5t73 -118t108 -79.5t132 -29q60 0 114 22t99 61q1 1 -0.5 4t-4.5 6.5t-5.5 6t-3.5 2.5q-41 -37 -91.5 -57.5t-107.5 -20.5q-65 0 -122.5 27t-100.5 74
t-67.5 110t-24.5 136q0 74 24.5 137.5t67.5 110t100.5 73t122.5 26.5q58 0 110 -19.5t91 -57.5t62 -93.5t23 -127.5q0 -45 -14 -82t-38 -63t-55 -40t-65 -14q-20 0 -29 7.5t-9.5 25.5t6.5 49t21 79l46 159h-73l-11 -36q-2 23 -15.5 33.5t-33.5 10.5q-42 0 -79 -21t-65 -54.5
t-44.5 -74t-16.5 -79.5q0 -24 5 -46.5t16.5 -40.5t30 -29t45.5 -11q13 0 27.5 5t28 17t25.5 31.5t21 48.5q-5 -20 -2.5 -38t13 -32.5t30 -23t47.5 -8.5q34 0 71.5 13.5t69 41t52 70.5t20.5 102zM445 451l-26 -95q-4 -15 -14 -40.5t-24.5 -51t-32.5 -44t-39 -18.5
q-19 0 -28 14t-9 47q0 25 5.5 57.5t16.5 64.5t26.5 60.5t36.5 45.5q12 11 22 14.5t21 3.5q27 0 37.5 -15.5t7.5 -42.5z" />
    <glyph glyph-name="A" unicode="A" 
d="M661 0q1 0 1 3v8v9t-1 4h-84q-3 0 -5 1l-2 1l-243 697q-1 2 -12 2q-10 0 -11 -2l-221 -657q-9 -29 -12.5 -35.5t-10.5 -6.5h-74q-1 0 -1.5 -4t-0.5 -9q0 -4 0.5 -7.5t1.5 -3.5h189q1 0 1.5 3.5t0.5 7.5q0 5 -0.5 9t-1.5 4h-78q-3 0 -1.5 7.5t9.5 34.5l54 160h212l64 -200
q1 0 -0.5 -1t-3.5 -1h-80q-1 0 -1.5 -4t-0.5 -9q0 -4 0.5 -7.5t1.5 -3.5h310zM364 250h-197l100 302z" />
    <glyph glyph-name="B" unicode="B" horiz-adv-x="622" 
d="M574 188q0 45 -17 80t-45.5 59.5t-65 37.5t-76.5 13q27 0 55 12.5t51 35t38 53t15 66.5q0 42 -17 72.5t-46 51t-68.5 30.5t-84.5 10h-271q-1 0 -1.5 -4t-0.5 -9q0 -4 0.5 -7.5t1.5 -3.5h82q5 0 5 -4v-653q0 -4 -5 -4h-82q-1 0 -1.5 -4t-0.5 -9q0 -4 0.5 -7.5t1.5 -3.5
h315q54 0 95 16t68 42.5t40.5 60t13.5 69.5zM414 541q0 -46 -4 -75.5t-14 -46t-26.5 -23t-41.5 -6.5h-72v291q0 4 6 4h35q34 0 56.5 -6t36 -22t19 -44t5.5 -72zM449 182q0 -49 -6 -80t-20 -48t-36 -23.5t-55 -6.5h-70q-6 0 -6 4v339h63q35 0 59.5 -6.5t40.5 -26t23 -56
t7 -96.5z" />
    <glyph glyph-name="C" unicode="C" horiz-adv-x="636" 
d="M586 -15v263q0 1 -4 1h-7h-8q-3 0 -3 -1q0 -49 -16.5 -93t-44 -77t-65 -52.5t-79.5 -19.5q-32 0 -59 7.5t-48 29.5q-32 35 -47.5 109.5t-15.5 201.5q0 126 15.5 201.5t47.5 110.5q21 20 45.5 28t56.5 8q34 0 68.5 -19.5t62.5 -50.5t45 -69.5t17 -75.5q0 -2 10 -2
q11 0 11 2v236q0 2 -11 2q-10 0 -10 -2q-2 -8 -14.5 -16t-32.5 -8q-16 0 -34.5 4t-37.5 9.5t-38 9.5t-36 4q-66 0 -121 -30t-95.5 -81t-63 -118.5t-22.5 -142.5q0 -74 23 -141.5t64.5 -118.5t97.5 -81t122 -30q19 0 41 5t44 11t42 11t36 5q20 0 30 -10.5t12 -19.5
q1 -1 11 -1q11 0 11 1z" />
    <glyph glyph-name="D" unicode="D" horiz-adv-x="694" 
d="M641 354q0 73 -23.5 138t-64.5 113t-96 76t-117 28h-298l-0.5 -4t-0.5 -9q0 -4 0.5 -7.5l0.5 -3.5h82q5 0 5 -4v-653q0 -4 -5 -4h-82l-0.5 -4t-0.5 -9q0 -4 0.5 -7.5l0.5 -3.5h298q62 0 117 28t96 76t64.5 112.5t23.5 137.5zM503 354q0 -68 -3.5 -116.5t-11 -83
t-19 -57.5t-28.5 -39q-20 -20 -45 -27t-56 -7h-78q-6 0 -6 3v654q0 4 6 4h78q31 0 56 -7.5t45 -27.5q34 -33 48 -104.5t14 -191.5z" />
    <glyph glyph-name="E" unicode="E" horiz-adv-x="613" 
d="M583 3v227q0 2 -11 2q-10 0 -10 -2q0 -39 -11 -76t-36 -66t-65 -46.5t-97 -17.5h-91q-8 0 -8 4v324h22q28 0 49 -10t35 -27t21.5 -40t7.5 -48q0 -2 10 -2q11 0 11 2v274q0 2 -11 2q-10 0 -10 -2q0 -26 -7.5 -48.5t-21.5 -39.5t-35 -27t-49 -10h-22v305q0 4 8 4h88
q44 0 75 -16t50.5 -42t28.5 -59.5t9 -68.5l3.5 -0.5t7.5 -0.5q5 0 8.5 0.5l3.5 0.5v207q0 3 -4 3h-490q-1 0 -1.5 -4t-0.5 -9q0 -4 0.5 -7.5t1.5 -3.5h82q5 0 5 -4v-653q0 -4 -5 -4h-82q-1 0 -1.5 -4t-0.5 -9q0 -4 0.5 -7.5t1.5 -3.5h538q3 0 3 3z" />
    <glyph glyph-name="F" unicode="F" horiz-adv-x="590" 
d="M536 499v207q0 3 -3 3h-491l-0.5 -4t-0.5 -9q0 -4 0.5 -7.5l0.5 -3.5h83q4 0 4 -4v-653q0 -4 -4 -4h-83l-0.5 -4t-0.5 -9q0 -4 0.5 -7.5l0.5 -3.5h302q1 0 1 3v8v9t-1 4h-82q-6 0 -6 4v324h21q28 0 51.5 -10t40.5 -27t27 -40t10 -48q0 -2 11 -2t11 2v274q0 1 -4 1h-7h-8
q-3 0 -3 -1q0 -26 -10 -48.5t-27 -39.5t-40.5 -27t-51.5 -10h-21v305q0 4 6 4h73q43 0 76.5 -16t56 -42t34 -59.5t11.5 -68.5l3.5 -0.5t7.5 -0.5q5 0 8.5 0.5z" />
    <glyph glyph-name="G" unicode="G" horiz-adv-x="651" 
d="M670 268q1 0 1 3v8v9t-1 4h-301l-0.5 -4t-0.5 -9q0 -4 0.5 -7.5l0.5 -3.5h82q6 0 6 -3v-171q0 -41 -26 -64.5t-89 -23.5q-32 0 -57 7.5t-45 29.5q-17 17 -27 42.5t-15 63t-6.5 88t-1.5 117.5q0 126 14.5 201.5t47.5 110.5q21 20 46 28t56 8q36 0 65.5 -19t51 -49.5
t33 -68.5t11.5 -75q0 -1 3.5 -1.5t7.5 -0.5t7.5 0.5t3.5 1.5v233q0 1 -4 1h-7h-8q-3 0 -3 -1q-2 -8 -14 -16t-32 -8q-9 0 -20.5 4t-26 9.5t-31.5 9.5t-37 4q-66 0 -121 -30t-95.5 -81t-63 -118.5t-22.5 -142.5q0 -72 20 -139t57.5 -118.5t91 -82.5t121.5 -31q39 0 67.5 8
t50.5 17t38.5 17t32.5 8q20 0 24.5 -8.5t3.5 -27.5q0 -1 3.5 -1.5t7.5 -0.5h9t4 1v269q0 3 6 3h81z" />
    <glyph glyph-name="H" unicode="H" horiz-adv-x="737" 
d="M694 0q1 0 1 3v8v9t-1 4h-81q-5 0 -5 4v653q0 4 5 4h81q1 0 1 3v8v9t-1 4h-292q-1 0 -1.5 -4t-0.5 -9q0 -4 0.5 -7.5t1.5 -3.5h73q5 0 5 -4v-300h-224v300q0 4 6 4h72q1 0 1 3v8v9t-1 4h-292l-0.5 -4t-0.5 -9q0 -4 0.5 -7.5l0.5 -3.5h82q5 0 5 -4v-653q0 -4 -5 -4h-82
l-0.5 -4t-0.5 -9q0 -4 0.5 -7.5l0.5 -3.5h292q1 0 1 3v8v9t-1 4h-72q-6 0 -6 4v329h224v-329q0 -4 -5 -4h-73q-1 0 -1.5 -4t-0.5 -9q0 -4 0.5 -7.5t1.5 -3.5h292z" />
    <glyph glyph-name="I" unicode="I" horiz-adv-x="386" 
d="M344 0q1 0 1 3v8v9t-1 4h-83q-6 0 -6 4v653q0 4 6 4h83q1 0 1 3v8v9t-1 4h-302l-0.5 -4t-0.5 -9q0 -4 0.5 -7.5l0.5 -3.5h82q5 0 5 -4v-653q0 -4 -5 -4h-82l-0.5 -4t-0.5 -9q0 -4 0.5 -7.5l0.5 -3.5h302z" />
    <glyph glyph-name="J" unicode="J" horiz-adv-x="484" 
d="M464 685q1 0 1 3v8v9t-1 4h-300q-1 0 -1.5 -4t-0.5 -9q0 -4 0.5 -7.5t1.5 -3.5h82q5 0 5 -4v-593q0 -42 -12.5 -62t-50.5 -20q-24 0 -45 18.5t-21 43.5q0 17 7 25t15 15.5t15 18.5t7 34q0 32 -20 55t-49 23q-14 0 -27.5 -6.5t-24 -18t-17.5 -28.5t-7 -38q0 -31 14 -60.5
t37.5 -53t53.5 -37.5t62 -14q86 0 137 48t51 136v514q0 4 7 4h81z" />
    <glyph glyph-name="K" unicode="K" horiz-adv-x="648" 
d="M724 0q1 0 2 3.5t1 7.5q0 5 -1 9t-2 4h-96q-2 0 -5 1t-4 1l-275 408l167 209q12 14 19 22.5t11 13t6.5 5.5t5.5 1h70l0.5 3.5t0.5 7.5q0 5 -0.5 9l-0.5 4h-182q-1 0 -1.5 -4t-0.5 -9q0 -4 0.5 -7.5t1.5 -3.5h68q4 0 1.5 -6.5t-26.5 -35.5l-228 -286v324q0 4 6 4h81
q1 0 1.5 3.5t0.5 7.5q0 5 -0.5 9t-1.5 4h-301q-1 0 -1.5 -4t-0.5 -9q0 -4 0.5 -7.5t1.5 -3.5h83q4 0 4 -4v-653q0 -4 -4 -4h-83q-1 0 -1.5 -4t-0.5 -9q0 -4 0.5 -7.5t1.5 -3.5h301q1 0 1.5 3.5t0.5 7.5q0 5 -0.5 9t-1.5 4h-81q-6 0 -6 4v323l214 -325q1 0 -0.5 -1t-4.5 -1
h-79q-1 0 -1.5 -4t-0.5 -9q0 -4 0.5 -7.5t1.5 -3.5h338z" />
    <glyph glyph-name="L" unicode="L" horiz-adv-x="584" 
d="M560 3v236q0 1 -11 1t-11 -1q0 -38 -12 -76.5t-36.5 -69.5t-63 -50t-91.5 -19h-73q-5 0 -5 4v653q0 4 5 4h82q1 0 1 3v8v9t-1 4h-302l-0.5 -4t-0.5 -9q0 -4 0.5 -7.5l0.5 -3.5h83q4 0 4 -4v-653q0 -4 -4 -4h-83l-0.5 -4t-0.5 -9q0 -4 0.5 -7.5l0.5 -3.5h515q3 0 3 3z" />
    <glyph glyph-name="M" unicode="M" horiz-adv-x="847" 
d="M822 0l0.5 3.5t0.5 7.5q0 5 -0.5 9l-0.5 4h-83q-4 0 -4 4v653q0 4 4 4h83l0.5 3.5t0.5 7.5q0 5 -0.5 9l-0.5 4h-208q-3 0 -7.5 -5t-6.5 -13l-159 -501l-178 501q-6 18 -14 18h-211q-1 0 -1.5 -4t-0.5 -9q0 -4 0.5 -7.5t1.5 -3.5h82q4 0 4 -4v-653q0 -4 -4 -4h-82
q-1 0 -1.5 -4t-0.5 -9q0 -4 0.5 -7.5t1.5 -3.5h199l0.5 3.5t0.5 7.5q0 5 -0.5 9l-0.5 4h-83q-5 0 -5 4v618l232 -659q1 -2 11 -2t11 2l205 646v-605q0 -4 -5 -4h-81q-1 0 -1.5 -4t-0.5 -9q0 -4 0.5 -7.5t1.5 -3.5h300z" />
    <glyph glyph-name="N" unicode="N" horiz-adv-x="691" 
d="M675 685l0.5 3.5t0.5 7.5q0 5 -0.5 9l-0.5 4h-197q-2 0 -2.5 -4t-0.5 -9q0 -4 0.5 -7.5t2.5 -3.5h81q6 0 6 -4v-462l-284 472q-7 11 -11.5 14.5t-9.5 3.5h-222q-1 0 -1.5 -4t-0.5 -9q0 -4 0.5 -7.5t1.5 -3.5h81q5 0 5 -4v-653q0 -4 -5 -4h-81q-1 0 -1.5 -4t-0.5 -9
q0 -4 0.5 -7.5t1.5 -3.5h198q1 0 1 3v8v9t-1 4h-83q-4 0 -4 4v641l415 -682q2 -3 12.5 -2.5t10.5 2.5v694q0 4 6 4h82z" />
    <glyph glyph-name="O" unicode="O" horiz-adv-x="710" 
d="M656 354q0 77 -23.5 145t-64.5 118.5t-96 79.5t-118 29q-66 0 -121 -30t-95.5 -81t-63 -118.5t-22.5 -142.5q0 -77 24 -144.5t65 -118t96 -79.5t117 -29q63 0 118 29t96 79.5t64.5 118t23.5 144.5zM519 354q0 -72 -3.5 -123t-11 -87t-19.5 -60t-28 -41
q-21 -22 -46.5 -29.5t-56.5 -7.5t-56 7.5t-45 29.5q-17 17 -28.5 41t-19.5 60t-11.5 87t-3.5 123q0 126 15 201.5t48 110.5q20 20 45 28t56 8t56.5 -8t46.5 -28q32 -35 47 -110.5t15 -201.5z" />
    <glyph glyph-name="P" unicode="P" horiz-adv-x="609" 
d="M574 492q0 46 -16.5 85.5t-49 68.5t-80.5 46t-111 17h-275l-0.5 -4t-0.5 -9q0 -4 0.5 -7.5l0.5 -3.5h83q4 0 4 -4v-653q0 -4 -4 -4h-83l-0.5 -4t-0.5 -9q0 -4 0.5 -7.5l0.5 -3.5h302q1 0 1 3v8v9t-1 4h-82q-5 0 -5 4v275q19 -5 37 -8.5t47 -3.5q55 0 98 14.5t73 40.5
t46 63.5t16 82.5zM449 492q0 -54 -4.5 -88.5t-16.5 -54t-33 -27t-54 -7.5q-29 0 -46.5 3t-37.5 13v350q0 4 5 4h55q33 0 57.5 -10t41 -32.5t25 -59.5t8.5 -91z" />
    <glyph glyph-name="Q" unicode="Q" horiz-adv-x="710" 
d="M656 354q0 77 -23.5 145t-64.5 118.5t-96 79.5t-118 29q-66 0 -121 -30t-95.5 -81t-63 -118.5t-22.5 -142.5q0 -77 24 -144.5t65 -118t96 -79.5t117 -29q-3 0 -5.5 -1t-5.5 -2q-16 -6 -36.5 -14.5t-42.5 -16.5t-42 -16.5t-35 -14.5q-8 -2 -13.5 -10t-5.5 -17
q0 -16 23 -16q4 0 12.5 7.5t19.5 7.5q31 0 46 -12.5t26.5 -31.5t26.5 -41t45.5 -41t84 -31.5t142.5 -12.5q1 0 1 4v8v8t-1 4q-45 0 -68 12.5t-38 31.5t-29 41t-40 41t-71 31.5t-122 12.5q23 10 59.5 23t75.5 28t75 30.5t57 29.5q36 22 65.5 54.5t51.5 74t34 91.5t12 109z
M519 354q0 -72 -3.5 -123t-11 -87t-19.5 -60t-28 -41q-21 -22 -46.5 -29.5t-56.5 -7.5q-30 0 -55.5 7.5t-45.5 29.5q-17 17 -28.5 41t-19 60t-11 87t-3.5 123q0 126 14.5 201.5t47.5 110.5q20 20 45.5 28t55.5 8q31 0 56.5 -8t46.5 -28q32 -35 47 -110.5t15 -201.5z" />
    <glyph glyph-name="R" unicode="R" horiz-adv-x="652" 
d="M697 18q1 0 -1 3t-5 6l-5.5 5.5l-2.5 2.5q-10 -11 -18.5 -14.5t-27.5 -3.5q-26 0 -41 15t-15 53v90q0 39 -12.5 74t-37 62t-62.5 42.5t-89 15.5q34 0 65.5 13t55.5 35.5t38 52.5t14 65q0 37 -15.5 68.5t-44 55t-69.5 37t-93 13.5h-289q-1 0 -1.5 -4t-0.5 -9
q0 -4 0.5 -7.5t1.5 -3.5h83q4 0 4 -4v-653q0 -4 -4 -4h-83q-1 0 -1.5 -4t-0.5 -9q0 -4 0.5 -7.5t1.5 -3.5h301v24h-81q-6 0 -6 4v329h59q64 0 100.5 -24.5t36.5 -90.5v-65q0 -54 14 -91t37 -60t51.5 -33t57.5 -10q30 0 50.5 9.5t34.5 25.5zM426 531q0 -48 -4.5 -77
t-16.5 -45.5t-34 -22t-56 -5.5h-59v300q0 4 6 4h46q33 0 55.5 -6.5t36.5 -23.5t20 -47t6 -77z" />
    <glyph glyph-name="S" unicode="S" horiz-adv-x="529" 
d="M499 219q0 46 -13.5 78.5t-39 57t-61.5 43t-81 36.5q-44 17 -75.5 32t-52 32t-30 37t-9.5 47q0 51 32.5 85.5t88.5 34.5q31 0 58 -12.5t46.5 -34t31 -51.5t11.5 -66q0 -2 10 -2q11 0 11 2v185q0 1 -3.5 1.5t-7.5 0.5t-7 -0.5t-3 -1.5q-2 -8 -10 -16t-29 -8q-16 0 -26 4
t-20.5 9.5t-24.5 9.5t-38 4q-35 0 -67.5 -17t-57 -46.5t-39 -70t-14.5 -87.5q0 -45 12 -77.5t33 -56t49 -40t61 -29.5q54 -21 92 -36t62 -31.5t35 -39.5t11 -59q0 -24 -9 -47.5t-27.5 -42t-47.5 -29.5t-69 -11q-45 0 -81.5 23t-63 56.5t-41 72t-14.5 68.5q0 2 -11 2
q-10 0 -10 -2v-240q0 -2 10 -2t11 2q2 14 16.5 26t34.5 12q11 0 26.5 -6.5t34 -14t41 -14t48.5 -6.5q55 0 95.5 22t67.5 56.5t40.5 76t13.5 81.5z" />
    <glyph glyph-name="T" unicode="T" horiz-adv-x="623" 
d="M597 469v237q0 3 -2 3h-566q-3 0 -3 -3v-237q0 -2 10 -2q11 0 11 2q0 43 10 82.5t32.5 69t58 47t86.5 17.5h7q6 0 6 -4v-653q0 -4 -6 -4h-81q-1 0 -1.5 -4t-0.5 -9q0 -4 0.5 -7.5t1.5 -3.5h299q1 0 1 3v8v9t-1 4h-81q-6 0 -6 4v653q0 4 6 4h6q51 0 87.5 -17.5t60 -47
t34.5 -69t11 -82.5q0 -2 10 -2t10 2z" />
    <glyph glyph-name="U" unicode="U" horiz-adv-x="678" 
d="M661 685q1 0 1 3v8v9t-1 4h-195q-1 0 -1.5 -4t-0.5 -9q0 -4 0.5 -7.5t1.5 -3.5h79q6 0 6 -4v-471q0 -87 -42.5 -140.5t-134.5 -53.5q-74 0 -105.5 45t-31.5 139v481q0 4 7 4h81q1 0 1 3v8v9t-1 4h-300q-1 0 -1.5 -4t-0.5 -9q0 -4 0.5 -7.5t1.5 -3.5h82q5 0 5 -4v-481
q0 -56 17.5 -97t49 -67.5t75.5 -39.5t96 -13q58 0 100.5 16t70 45.5t40.5 71.5t13 94v471q0 4 4 4h83z" />
    <glyph glyph-name="V" unicode="V" horiz-adv-x="656" 
d="M689 685q1 0 1 3v8v9t-1 4h-200v-24h80q5 0 4.5 -6.5t-9.5 -35.5l-155 -482l-202 520q-1 4 5 4h90q1 0 1 3v8v9t-1 4h-327q-1 0 -1.5 -4t-0.5 -9q0 -4 0.5 -7.5t1.5 -3.5h90q7 0 8 -4l278 -696q0 -1 4 -1.5t8 -0.5t7.5 0.5t3.5 1.5l211 658q10 28 13.5 35t9.5 7h81z" />
    <glyph glyph-name="W" unicode="W" horiz-adv-x="973" 
d="M1013 685q1 0 1 3v8v9t-1 4h-200q-1 0 -1.5 -4t-0.5 -9q0 -4 0.5 -7.5t1.5 -3.5h79q5 0 4.5 -6t-8.5 -31l-146 -473l-167 506q0 4 4 4h92l0.5 3.5t0.5 7.5q0 5 -0.5 9l-0.5 4h-326q-1 0 -1.5 -4t-0.5 -9q0 -4 0.5 -7.5t1.5 -3.5h93q-1 0 2 -1t4 -3l47 -142l-112 -363
l-181 505q-1 4 4 4h77q1 0 1.5 3.5t0.5 7.5q0 5 -0.5 9t-1.5 4h-314l-0.5 -4t-0.5 -9q0 -4 0.5 -7.5l0.5 -3.5h89q8 0 8 -4l253 -696q2 -2 12 -2.5t12 2.5l164 522l176 -522q1 -2 11 -2q11 0 12 2l208 658q8 29 12.5 35.5t9.5 6.5h81z" />
    <glyph glyph-name="X" unicode="X" horiz-adv-x="666" 
d="M690 0q1 0 1 3v8v9t-1 4h-94q-2 0 -4.5 1t-3.5 1l-203 389l126 228q16 28 22.5 35t8.5 7h90q1 0 1 3v8v9t-1 4h-200q-1 0 -1.5 -4t-0.5 -9q0 -4 0.5 -7.5t1.5 -3.5h68q9 0 7 -6.5t-19 -35.5l-115 -206l-126 244q0 4 4 4h83q1 0 1 3v8v9t-1 4h-326q-1 0 -1.5 -4t-0.5 -9
q0 -4 0.5 -7.5t1.5 -3.5h94q8 0 8 -4l186 -351l-146 -264q-16 -30 -23 -36t-9 -6h-90q-1 0 -1.5 -4t-0.5 -9q0 -4 0.5 -7.5t1.5 -3.5h201q1 0 1 3v8v9t-1 4h-70q-7 0 -5 6.5t19 35.5l134 240l144 -280q1 0 0 -1t-3 -1h-84q-1 0 -1.5 -4t-0.5 -9q0 -4 0.5 -7.5t1.5 -3.5h326z
" />
    <glyph glyph-name="Y" unicode="Y" horiz-adv-x="626" 
d="M647 685q1 0 1 3v8v9t-1 4h-199q-1 0 -1.5 -4t-0.5 -9q0 -4 0.5 -7.5t1.5 -3.5h83q4 0 2 -6.5t-14 -35.5l-130 -299l-160 337q1 2 1 3t3 1h89l0.5 3.5t0.5 7.5q0 5 -0.5 9l-0.5 4h-329q-1 0 -1.5 -4t-0.5 -9q0 -4 0.5 -7.5t1.5 -3.5h93q5 0 7 -4l177 -372v-281
q0 -4 -5 -4h-83q-1 0 -1.5 -4t-0.5 -9q0 -4 0.5 -7.5t1.5 -3.5h301l0.5 3.5t0.5 7.5q0 5 -0.5 9l-0.5 4h-82q-6 0 -6 4v276l131 303q12 28 20 43.5t12.5 23t7 9.5t4.5 2h77z" />
    <glyph glyph-name="Z" unicode="Z" horiz-adv-x="600" 
d="M544 3v241q0 1 -4 1h-8h-8q-3 0 -3 -1q0 -43 -12 -83t-35.5 -70.5t-58.5 -48.5t-81 -18h-129q-3 0 -4.5 1t0.5 1l340 675q2 8 -1 8h-448q-3 0 -3 -3v-237q0 -1 3.5 -1.5t7.5 -0.5q5 0 9 0.5t4 1.5q0 43 11.5 82.5t34 69t57 47t80.5 17.5h99q4 0 2 -4l-339 -673
q-3 -8 2 -8h481q3 0 3 3z" />
    <glyph glyph-name="bracketleft" unicode="[" horiz-adv-x="262" 
d="M292 -244l0.5 3.5t0.5 8.5q0 4 -0.5 8l-0.5 4h-106q-6 0 -6 3v927q0 4 6 4h106l0.5 3.5t0.5 7.5q0 5 -0.5 8.5l-0.5 3.5h-204q-4 0 -4 -3v-974q0 -4 4 -4h204z" />
    <glyph glyph-name="backslash" unicode="\" horiz-adv-x="340" 
d="M284 -14l-290 777q0 1 -4 0t-8 -3l-7 -3.5t-3 -2.5l292 -777q0 -1 3.5 0t7.5 3l7 3.5t2 2.5z" />
    <glyph glyph-name="bracketright" unicode="]" horiz-adv-x="266" 
d="M180 -240v974q0 2 -0.5 2.5l-0.5 0.5h-205l-0.5 -3.5t-0.5 -8.5q0 -4 0.5 -7.5l0.5 -3.5h105q5 0 5 -4v-927q0 -3 -5 -3h-105l-0.5 -4t-0.5 -8q0 -5 0.5 -8.5l0.5 -3.5h205l0.5 1t0.5 3z" />
    <glyph glyph-name="asciicircum" unicode="^" horiz-adv-x="311" 
d="M305 525q-45 50 -79.5 90t-59.5 76q-3 2 -5 0q-24 -36 -58.5 -75.5t-79.5 -90.5q-1 -1 4.5 -7.5t6.5 -4.5l125 95l136 -95q2 -2 7 4.5t3 7.5z" />
    <glyph glyph-name="underscore" unicode="_" horiz-adv-x="531" 
d="M492 0q1 0 1 3v8v9t-1 4h-453q-1 0 -1.5 -4t-0.5 -9q0 -4 0.5 -7.5t1.5 -3.5h453z" />
    <glyph glyph-name="grave" unicode="`" horiz-adv-x="336" 
d="M304 535q-38 8 -63.5 24t-44 35.5t-31 39.5t-23.5 36.5t-21.5 27t-25.5 10.5q-17 0 -26.5 -10.5t-9.5 -25.5q0 -17 9.5 -38t36.5 -42.5t74.5 -42t123.5 -38.5q1 0 1.5 3.5t0.5 7.5v9t-1 4z" />
    <glyph glyph-name="a" unicode="a" horiz-adv-x="461" 
d="M456 31q0 1 -2 3.5t-4.5 5t-5 4.5t-2.5 1q-2 -8 -10 -14t-21 -6q-9 0 -15 8t-6 27v195q0 94 -45.5 137.5t-125.5 43.5q-30 0 -55 -8t-43 -20.5t-28 -27.5t-10 -29q0 -17 10.5 -32.5t35.5 -15.5q26 0 37 11.5t11 26.5q0 13 -4.5 20t-4.5 21q0 22 14 26t37 4q14 0 26 -1.5
t21 -9.5t14.5 -24.5t5.5 -46.5v-76q0 -8 -9 -13t-24 -8t-34.5 -5t-40.5 -4q-15 -2 -39 -7t-46.5 -18.5t-38.5 -38t-16 -63.5q0 -30 13 -50t33.5 -32t46.5 -17.5t52 -5.5q42 0 68 21.5t37 50.5q3 -15 11.5 -28t21 -22.5t27.5 -15.5t32 -6q29 0 50 12.5t26 26.5zM286 136
q0 -22 -6 -42.5t-17 -37t-26.5 -26.5t-35.5 -10q-19 0 -31 6t-18.5 16.5t-8.5 24.5t-2 30q0 34 4 54t11 30t17.5 13.5t24.5 6.5q22 4 46 6.5t42 13.5v-85z" />
    <glyph glyph-name="b" unicode="b" horiz-adv-x="551" 
d="M507 210q0 42 -17 82t-46 72t-68 51.5t-84 19.5q-31 0 -54.5 -10.5t-41.5 -30.5v338q0 3 -3 3h-166q-1 0 -1.5 -4t-0.5 -9q0 -4 0.5 -7.5t1.5 -3.5h59q7 0 7 -4v-679q0 -4 -7 -4h-59q-1 0 -1.5 -4t-0.5 -9q0 -4 0.5 -7.5t1.5 -3.5h166q3 0 3 3v39q18 -20 50.5 -35.5
t63.5 -15.5q45 0 81 18.5t62 49.5t40 70.5t14 80.5zM398 210q0 -71 -8.5 -113t-30.5 -62q-13 -12 -21 -16t-28 -4q-15 0 -32 4t-32.5 13t-29 22t-20.5 31v267q3 14 13.5 25t24 18.5t29 11.5t29.5 4q20 0 37 -4.5t30 -15.5q22 -20 30.5 -65.5t8.5 -115.5z" />
    <glyph glyph-name="c" unicode="c" horiz-adv-x="460" 
d="M437 86q2 2 -3.5 8t-6.5 5q-25 -37 -68.5 -60.5t-98.5 -23.5q-20 0 -36.5 4t-29.5 17q-11 10 -18.5 23.5t-12.5 34t-7.5 49.5t-2.5 70t2.5 70t7.5 49.5t12.5 34t18.5 23.5q13 13 29.5 17t36.5 4q38 0 58 -11t20 -40q0 -12 -1.5 -18t-4 -11t-4 -10.5t-1.5 -15.5
q0 -15 11.5 -26.5t33.5 -11.5q20 0 33.5 11.5t13.5 34.5q0 19 -11.5 40.5t-32.5 39.5t-50.5 30t-64.5 12q-44 0 -83.5 -17.5t-69 -47.5t-46.5 -70.5t-17 -86.5t17 -86.5t46.5 -70.5t69 -47.5t83.5 -17.5q54 0 101 26t76 69z" />
    <glyph glyph-name="d" unicode="d" horiz-adv-x="545" 
d="M524 0q1 0 1 3v8v9t-1 4h-57q-8 0 -8 4v704q0 3 -2 3h-164q-1 0 -1.5 -4t-0.5 -9q0 -4 0.5 -7.5t1.5 -3.5h56q6 0 6 -4v-313q-36 41 -95 41q-44 0 -83.5 -19.5t-69 -51.5t-46.5 -72t-17 -82q0 -41 14 -80.5t40 -70.5t63 -49.5t82 -18.5q25 0 45 6.5t34 15.5t22.5 18.5
t10.5 15.5v-44q0 -3 3 -3h166zM355 104q0 -14 -5.5 -29.5t-18.5 -29t-34.5 -22t-53.5 -8.5q-11 0 -17.5 1t-11 3t-9 6t-11.5 10q-22 20 -31.5 62t-9.5 113q0 70 9.5 115.5t31.5 65.5q14 11 30 15.5t36 4.5q14 0 30 -4t29.5 -11.5t23 -18.5t12.5 -25v-248z" />
    <glyph glyph-name="e" unicode="e" horiz-adv-x="486" 
d="M450 238q0 25 -11.5 59t-34.5 65t-59 52t-84 21q-45 0 -84.5 -17.5t-69 -47.5t-46.5 -70.5t-17 -86.5t17 -86.5t46.5 -70.5t69 -47.5t84.5 -17.5q55 0 102.5 26.5t76.5 69.5q1 2 -5.5 7.5t-7.5 4.5q-26 -37 -68.5 -60.5t-97.5 -23.5q-20 0 -36.5 4t-30.5 17
q-11 10 -19 23.5t-12.5 34t-6.5 49.5t-2 70v22h293q3 0 3 3zM351 259h-197q1 30 3.5 51t7.5 36t12 25t17 19q14 13 30.5 17t36.5 4q17 0 31 -4t25 -17q9 -9 15 -19t10 -25t6.5 -36t2.5 -51z" />
    <glyph glyph-name="f" unicode="f" horiz-adv-x="339" 
d="M385 650q0 18 -8 35t-20.5 30t-29 21t-34.5 8q-39 0 -71.5 -15t-56.5 -50t-37.5 -91.5t-13.5 -138.5v-19q0 -4 -6 -4h-70q-2 0 -2.5 -4t-0.5 -9q0 -4 0.5 -7.5t2.5 -3.5h70q6 0 6 -4v-370q0 -4 -6 -4h-57q-1 0 -1.5 -4t-0.5 -9q0 -4 0.5 -7.5t1.5 -3.5h232q1 0 1 3v8v9
t-1 4h-58q-6 0 -6 4v370q0 4 6 4h86q1 0 1 3v8v9t-1 4h-86q-6 0 -6 4v170q0 68 15 93t37 25q16 0 23 -6.5t7 -23.5q0 -11 -2.5 -17t-5 -10.5t-5 -10t-2.5 -14.5q0 -16 12.5 -26.5t37.5 -10.5q22 0 35.5 15.5t13.5 35.5z" />
    <glyph glyph-name="g" unicode="g" horiz-adv-x="501" 
d="M517 381q0 9 -2.5 18.5t-8 17.5t-15.5 13t-25 5q-30 0 -52 -17t-36 -43q-23 28 -56 44t-75 16q-36 0 -67 -12.5t-54 -34.5t-36.5 -51.5t-13.5 -62.5q0 -28 10.5 -53.5t27.5 -45.5q-36 -23 -60 -50.5t-24 -72.5q0 -38 26.5 -65.5t68.5 -37.5q-23 -6 -42.5 -18.5t-34 -30
t-22.5 -37.5t-8 -41q0 -28 17 -53t48 -43.5t74.5 -29.5t95.5 -11q41 0 85.5 12t81 36t60 59t23.5 82q0 84 -52 123.5t-146 39.5h-128q-42 0 -59.5 10.5t-17.5 48.5q0 24 8 38t20 23q14 -14 46.5 -28.5t72.5 -14.5q35 0 66 12.5t54 34.5t36 51t13 62q0 28 -5 47.5t-22 39.5
q8 17 15.5 25.5t14 11.5t12.5 3h13q7 0 12 -4t5 -12t-4 -11.5t-4 -13.5q0 -9 8 -16.5t25 -7.5q12 0 21.5 11t9.5 34zM322 275q0 -57 -6.5 -83.5t-20.5 -39.5q-10 -9 -22 -11.5t-26 -2.5t-25.5 2.5t-21.5 11.5q-14 13 -21.5 39.5t-7.5 83.5q0 50 7.5 79.5t21.5 43.5
q10 8 21.5 10.5t25.5 2.5t26 -2.5t22 -10.5q27 -26 27 -123zM442 -169q0 -30 -15.5 -53t-41.5 -38.5t-60.5 -23t-71.5 -7.5q-40 0 -70 4.5t-50 18t-30 38t-10 64.5q0 23 2.5 39.5t9.5 28.5t18 22t28 19q-2 0 1 0q4 0 8 0.5t7 0.5q4 0 2 0h147q33 0 56.5 -9.5t39 -25t23 -36
t7.5 -42.5z" />
    <glyph glyph-name="h" unicode="h" horiz-adv-x="563" 
d="M546 0q1 0 1.5 3.5t0.5 7.5q0 5 -0.5 9t-1.5 4h-56q-6 0 -6 4v240q0 80 -45.5 123.5t-125.5 43.5q-35 0 -69 -18t-48 -60v375q0 3 -3 3h-166q-1 0 -1.5 -4t-0.5 -9q0 -4 0.5 -7.5t1.5 -3.5h58q8 0 8 -4v-679q0 -4 -8 -4h-58q-1 0 -1.5 -4t-0.5 -9q0 -4 0.5 -7.5t1.5 -3.5
h232q1 0 1 3v8v9t-1 4h-56q-7 0 -7 4v280q19 56 45.5 79.5t71.5 23.5q27 0 46.5 -24.5t19.5 -77.5v-281q0 -4 -6 -4h-56q-1 0 -1.5 -4t-0.5 -9q0 -4 0.5 -7.5t1.5 -3.5h229z" />
    <glyph glyph-name="i" unicode="i" horiz-adv-x="303" 
d="M222 659q0 29 -18.5 49.5t-45.5 20.5q-28 0 -47 -20.5t-19 -49.5q0 -28 19 -48t47 -20q27 0 45.5 20t18.5 48zM273 0q1 0 1 3v8v9t-1 4h-58q-6 0 -6 4v395q0 3 -4 3h-165q-1 0 -1.5 -4t-0.5 -9q0 -4 0.5 -7.5t1.5 -3.5h58q7 0 7 -4v-370q0 -4 -7 -4h-58q-1 0 -1.5 -4
t-0.5 -9q0 -4 0.5 -7.5t1.5 -3.5h233z" />
    <glyph glyph-name="j" unicode="j" horiz-adv-x="287" 
d="M223 659q0 29 -19 49.5t-45 20.5q-29 0 -48 -20.5t-19 -49.5q0 -28 19 -48t48 -20q26 0 45 20t19 48zM209 -24v447q0 3 -3 3h-165q-1 0 -1.5 -3.5t-0.5 -8.5q0 -4 0.5 -7.5t1.5 -3.5h57q7 0 7 -5v-572q0 -69 -15.5 -93.5t-37.5 -24.5q-17 0 -23.5 6.5t-6.5 23.5
q0 10 2.5 16t5 10.5t5 10t2.5 14.5q0 16 -12 27t-37 11q-22 0 -36.5 -15.5t-14.5 -35.5q0 -18 8 -34.5t21 -30t30 -21.5t34 -8q39 0 72 15t56.5 49.5t37 91t13.5 138.5z" />
    <glyph glyph-name="k" unicode="k" horiz-adv-x="531" 
d="M565 0q1 0 1 3v8v9t-1 4h-79q-6 0 -10 4l-201 251l94 81q16 14 26 22.5t16.5 13t10 5.5t6.5 1h56l0.5 3.5t0.5 7.5v9t-1 4h-156q-1 0 -1.5 -4t-0.5 -9q0 -4 0.5 -7.5t1.5 -3.5h52q3 0 3.5 -1t-3.5 -5.5t-13 -12.5t-26 -23l-142 -125v497q0 3 -5 3h-164q-1 0 -1.5 -4
t-0.5 -9q0 -4 0.5 -7.5t1.5 -3.5h58q7 0 7 -4v-679q0 -4 -7 -4h-58q-1 0 -1.5 -4t-0.5 -9q0 -4 0.5 -7.5t1.5 -3.5h231q1 0 1 3v8v9t-1 4h-56q-6 0 -6 4v201l159 -201q3 -4 -5 -4h-40q-2 0 -2.5 -4t-0.5 -9q0 -4 0.5 -7.5t2.5 -3.5h252z" />
    <glyph glyph-name="l" unicode="l" horiz-adv-x="281" 
d="M260 0q1 0 1.5 3.5t0.5 7.5q0 5 -0.5 9t-1.5 4h-57q-6 0 -6 4v704q0 3 -3 3h-165q-1 0 -1.5 -4t-0.5 -9q0 -4 0.5 -7.5t1.5 -3.5h57q7 0 7 -4v-679q0 -4 -7 -4h-57q-1 0 -1.5 -4t-0.5 -9q0 -4 0.5 -7.5t1.5 -3.5h231z" />
    <glyph glyph-name="m" unicode="m" horiz-adv-x="858" 
d="M843 0l0.5 3.5t0.5 7.5q0 5 -0.5 9l-0.5 4h-58q-7 0 -7 4v261q0 79 -45 112.5t-124 33.5q-35 0 -69.5 -17.5t-54.5 -61.5q-15 35 -55 57t-109 22q-18 0 -36 -4.5t-33.5 -13.5t-28 -24t-19.5 -36v66q0 3 -3 3h-166q-1 0 -1.5 -4t-0.5 -9q0 -4 0.5 -7.5t1.5 -3.5h57
q8 0 8 -4v-370q0 -4 -8 -4h-57q-1 0 -1.5 -4t-0.5 -9q0 -4 0.5 -7.5t1.5 -3.5h231q1 0 1.5 3.5t0.5 7.5q0 5 -0.5 9t-1.5 4h-56q-6 0 -6 4v280q18 57 45 80t72 23q27 0 46 -24.5t19 -77.5v-281q0 -4 -6 -4h-56q-1 0 -1.5 -4t-0.5 -9q0 -4 0.5 -7.5t1.5 -3.5h230q1 0 1.5 3.5
t0.5 7.5q0 5 -0.5 9t-1.5 4h-57q-6 0 -6 4v259q0 21 6.5 43t20.5 40t36.5 29.5t54.5 11.5q26 0 46 -24.5t20 -77.5v-281q0 -4 -7 -4h-58v-24h233z" />
    <glyph glyph-name="n" unicode="n" horiz-adv-x="571" 
d="M554 0q1 0 1.5 3.5t0.5 7.5q0 5 -0.5 9t-1.5 4h-56q-6 0 -6 4v240q0 80 -45.5 123.5t-125.5 43.5q-35 0 -69.5 -18t-48.5 -60v66q0 3 -3 3h-165q-1 0 -1.5 -4t-0.5 -9q0 -4 0.5 -7.5t1.5 -3.5h57q8 0 8 -4v-370q0 -4 -8 -4h-57q-1 0 -1.5 -4t-0.5 -9q0 -4 0.5 -7.5
t1.5 -3.5h232q1 0 1 3v8v9t-1 4h-57q-7 0 -7 4v280q19 57 46 80t72 23q27 0 46 -24.5t19 -77.5v-281q0 -4 -5 -4h-56q-1 0 -1.5 -4t-0.5 -9q0 -4 0.5 -7.5t1.5 -3.5h229z" />
    <glyph glyph-name="o" unicode="o" horiz-adv-x="520" 
d="M476 213q0 46 -17 86.5t-46.5 70.5t-69 47.5t-84.5 17.5q-44 0 -83 -17.5t-68.5 -47.5t-46.5 -70.5t-17 -86.5t17 -86.5t46.5 -70.5t68.5 -47.5t83 -17.5q45 0 84.5 17.5t69 47.5t46.5 70.5t17 86.5zM367 213q0 -41 -2.5 -70t-7.5 -49.5t-12.5 -34t-18.5 -23.5
q-13 -13 -29.5 -17t-37.5 -4q-19 0 -35.5 4t-30.5 17q-11 10 -18.5 23.5t-12.5 34t-7.5 49.5t-2.5 70q0 72 10 114.5t31 62.5q14 13 30.5 17t35.5 4q21 0 37.5 -4t29.5 -17q22 -20 31.5 -62.5t9.5 -114.5z" />
    <glyph glyph-name="p" unicode="p" horiz-adv-x="551" 
d="M507 211q0 42 -17 82t-46.5 71.5t-68.5 51t-84 19.5q-29 0 -56 -14.5t-40 -31.5v35v1q0 1 -3 1h-165q-1 0 -1.5 -3.5t-0.5 -8.5q0 -4 0.5 -7.5t1.5 -3.5h58q8 0 8 -4v-680q0 -4 -8 -4h-58q-1 0 -1.5 -3.5t-0.5 -7.5q0 -5 0.5 -8.5t1.5 -3.5h232q1 0 1 4v8v8q0 3 -1 3h-56
q-8 0 -8 4v323q19 -19 51.5 -34.5t63.5 -15.5q45 0 81.5 18.5t62 49.5t39.5 70t14 81zM398 211q0 -71 -9 -113.5t-31 -62.5q-7 -6 -11.5 -10t-9 -6.5t-11 -3.5t-16.5 -1q-15 0 -32 4.5t-32.5 13.5t-29 22t-21.5 31v268q3 13 13.5 24t24 18.5t29 11.5t29.5 4q21 0 37 -4.5
t30 -16.5q22 -18 31 -63t9 -116z" />
    <glyph glyph-name="q" unicode="q" horiz-adv-x="526" 
d="M524 -307q2 0 2 11q0 10 -2 10h-57q-8 0 -8 5v680q0 5 8 5h57q1 0 1 3v8v7q0 4 -1 4h-166q-2 0 -2.5 -0.5l-0.5 -0.5v-36q-15 22 -42 34t-53 12q-45 0 -84 -19.5t-68.5 -51t-46.5 -71.5t-17 -82t14 -81t40 -70t63 -49.5t82 -18.5q42 0 67.5 14.5t44.5 42.5v-330
q0 -5 -6 -5h-56q-2 0 -2 -10q0 -11 2 -11h231zM355 106q0 -14 -6.5 -30.5t-19 -30t-31 -22.5t-42.5 -9q-20 0 -34 4.5t-28 16.5q-22 20 -31.5 62.5t-9.5 113.5t9.5 116t31.5 63q14 12 30 16.5t36 4.5q14 0 30 -4t29.5 -11.5t23 -18t12.5 -23.5v-248z" />
    <glyph glyph-name="r" unicode="r" horiz-adv-x="409" 
d="M394 345q0 16 -6 32t-17.5 29t-28.5 21t-39 8q-37 0 -63 -15t-43 -63v66q0 3 -3 3h-166q-1 0 -1.5 -4t-0.5 -9q0 -4 0.5 -7.5t1.5 -3.5h57q8 0 8 -4v-370q0 -4 -8 -4h-57q-1 0 -1.5 -4t-0.5 -9q0 -4 0.5 -7.5t1.5 -3.5h231q1 0 1.5 3.5t0.5 7.5q0 5 -0.5 9t-1.5 4h-56
q-6 0 -6 4v264q7 33 15.5 54.5t18 34t20 17t23.5 4.5q12 0 20 -9t8 -24q0 -8 -2 -13t-5 -10t-5 -11t-2 -16q0 -17 13.5 -29t39.5 -12q23 0 38 16t15 51z" />
    <glyph glyph-name="s" unicode="s" horiz-adv-x="393" 
d="M365 137q0 27 -10.5 47.5t-28 36t-41 26t-50.5 17.5q-29 8 -51 14.5t-37 14.5t-22.5 19.5t-7.5 29.5q0 35 20.5 52t56.5 17q18 0 37 -8t34 -22t25 -32.5t10 -39.5q0 -1 3.5 -1.5t7.5 -0.5q5 0 8.5 0.5t3.5 1.5v127q0 2 -11 2t-12 -2t-7 -9.5t-15 -7.5q-12 0 -19 2.5
t-14.5 5.5t-18.5 5.5t-32 2.5q-24 0 -47 -9t-41 -26t-29 -42.5t-11 -58.5q0 -51 31.5 -78t88.5 -41q31 -8 53.5 -15t37.5 -15t22 -20t7 -31q0 -45 -25 -64.5t-69 -19.5q-29 0 -53.5 11t-42 30t-27 44.5t-9.5 55.5q0 1 -4 1h-7h-8q-3 0 -3 -1l-5 -157q0 -1 3 -1.5t7 -0.5
t8 0.5t4 1.5q2 5 12.5 12t24.5 7q11 0 19 -4t18 -9.5t24.5 -9.5t38.5 -4q37 0 65.5 11.5t48 31t29.5 46.5t10 57z" />
    <glyph glyph-name="t" unicode="t" horiz-adv-x="323" 
d="M307 79q0 2 -7.5 6.5t-6.5 4.5q-9 -28 -23.5 -46t-35.5 -18q-31 0 -31 29v343q0 4 8 4h85q1 0 1 3v8v9t-1 4h-85q-8 0 -8 4v172l-10.5 1t-11.5 -1q-3 -11 -10 -24.5t-17.5 -25.5t-24 -20.5t-29.5 -10.5v-91q0 -4 -7 -4h-72q-1 0 -1.5 -4t-0.5 -9q0 -4 0.5 -7.5t1.5 -3.5
h72q7 0 7 -4v-309q0 -49 22.5 -73.5t72.5 -24.5q46 0 73.5 24.5t38.5 63.5z" />
    <glyph glyph-name="u" unicode="u" horiz-adv-x="561" 
d="M540 0q1 0 1 3v8v9t-1 4h-56q-7 0 -7 4v395q0 3 -3 3h-164q-2 0 -2.5 -4t-0.5 -9q0 -4 0.5 -7.5t2.5 -3.5h55q8 0 8 -4v-280q-18 -57 -45 -80.5t-74 -23.5q-26 0 -45.5 24.5t-19.5 78.5v306q0 3 -3 3h-166l-0.5 -4t-0.5 -9q0 -4 0.5 -7.5l0.5 -3.5h57q8 0 8 -4v-247
q0 -80 45.5 -120t123.5 -40q36 0 70.5 18t48.5 60v-66q0 -3 3 -3h164z" />
    <glyph glyph-name="v" unicode="v" horiz-adv-x="474" 
d="M499 402q1 0 2 3.5t1 7.5q0 5 -1 9t-2 4h-159q-1 0 -1.5 -4t-0.5 -9q0 -4 0.5 -7.5t1.5 -3.5h58q5 0 4.5 -6.5t-11.5 -35.5l-97 -249l-124 288q-2 3 6 3h62q2 0 3 3.5t1 7.5q0 5 -1 9t-3 4h-248q-1 0 -1.5 -4t-0.5 -9q0 -4 0.5 -7.5t1.5 -3.5h58q5 0 6 -0.5t2 -2.5
l193 -407q1 -2 12 -2t12 2l140 368q11 29 15 35.5t11 6.5h60z" />
    <glyph glyph-name="w" unicode="w" horiz-adv-x="738" 
d="M772 402q1 0 2 3.5t1 7.5q0 5 -1 9t-2 4h-159q-1 0 -1.5 -4t-0.5 -9q0 -4 0.5 -7.5t1.5 -3.5h58q5 0 5 -7q0 -6 -10 -35l-89 -237l-124 276q0 3 6 3h58q1 0 1 3v8v9t-1 4h-232q-2 0 -2.5 -4t-0.5 -9q0 -4 0.5 -7.5t2.5 -3.5h49q9 0 9 -3l22 -46l-85 -232l-123 278
q-2 3 5 3h60q1 0 1 3v8v9t-1 4h-242q-1 0 -1.5 -4t-0.5 -9q0 -4 0.5 -7.5t1.5 -3.5h59q4 0 5 -0.5t3 -2.5l185 -407q1 -2 12 -2t12 2l121 333l152 -333q0 -1 4 -1.5t8 -0.5q5 0 8 0.5t3 1.5l136 368q10 29 14.5 35.5t9.5 6.5h60z" />
    <glyph glyph-name="x" unicode="x" horiz-adv-x="510" 
d="M525 0l0.5 3.5t0.5 7.5q0 5 -0.5 9l-0.5 4h-65q-7 0 -9 2l-150 222l89 112q22 29 29 35.5t12 6.5h53l0.5 3.5t0.5 7.5q0 5 -0.5 9l-0.5 4h-146q-1 0 -1.5 -4t-0.5 -9q0 -4 0.5 -7.5t1.5 -3.5h49q2 0 3 -1t-0.5 -5.5t-7 -12.5t-16.5 -23l-75 -96l-93 135q-3 3 5 3h67
q1 0 1 3v8v9t-1 4h-264l-0.5 -4t-0.5 -9q0 -4 0.5 -7.5l0.5 -3.5h64q7 0 10 -3l134 -197l-108 -136q-11 -15 -17.5 -23.5t-11 -12.5t-7.5 -5t-6 -1h-50q-1 0 -1.5 -4t-0.5 -9q0 -4 0.5 -7.5t1.5 -3.5h146q1 0 1 3v8v9t-1 4h-52q-3 0 -4 1t1 5.5t8 12.5t18 23l95 119
l108 -159q4 -2 -5 -2h-57q-1 0 -1.5 -4t-0.5 -9q0 -4 0.5 -7.5t1.5 -3.5h253z" />
    <glyph glyph-name="y" unicode="y" horiz-adv-x="456" 
d="M489 403q1 0 2 3.5t1 7.5q0 5 -1 8.5t-2 3.5h-159q-1 0 -1.5 -3.5t-0.5 -8.5q0 -4 0.5 -7.5t1.5 -3.5h58q5 0 4.5 -6.5t-11.5 -35.5l-96 -251l-124 289q-2 4 4 4h63q2 0 3 3.5t1 7.5q0 5 -1 8.5t-3 3.5h-248q-1 0 -1.5 -3.5t-0.5 -8.5q0 -4 0.5 -7.5t1.5 -3.5h57
q5 0 6 -1t2 -3l195 -409l-87 -228q-8 -20 -16.5 -30.5t-17 -15.5t-15.5 -6t-13 -1q-10 0 -12.5 7t-2.5 15t3.5 14t7.5 12t7.5 12.5t3.5 15.5q0 16 -11.5 28t-33.5 12q-23 0 -38 -17.5t-15 -43.5q0 -15 5.5 -29.5t15.5 -26t24 -18.5t30 -7q31 0 57 18t43 63l228 597
q10 28 14.5 35t11.5 7h60z" />
    <glyph glyph-name="z" unicode="z" horiz-adv-x="438" 
d="M404 3v148q0 2 -11 2q-10 0 -10 -2q0 -30 -5 -54t-19.5 -40t-40.5 -24.5t-67 -8.5h-88q-8 0 -4 2l240 393q0 7 -1 7h-325q-3 0 -3 -3v-134q0 -2 10 -2q11 0 11 2q0 28 4.5 49.5t17.5 35.5t36 21t59 7h64q8 0 5 -3l-238 -392q-5 -7 3 -7h359h3v3z" />
    <glyph glyph-name="braceleft" unicode="{" horiz-adv-x="268" 
d="M263 -244l0.5 3.5t0.5 8.5q0 4 -0.5 8l-0.5 4h-19q-24 0 -41.5 6t-28 21.5t-15.5 43.5t-5 72q0 27 4 58.5t9 63.5t9 64t4 60q0 11 -0.5 23t-4 23t-10.5 19.5t-20 12.5q26 8 30.5 31t4.5 46q0 28 -4 60t-9 64.5t-9 63.5t-4 58q0 44 5 72t15.5 44t28 22t41.5 6h19l0.5 3.5
t0.5 7.5q0 5 -0.5 8.5l-0.5 3.5h-19q-41 0 -73.5 -15.5t-54.5 -43.5t-33.5 -66t-11.5 -84q0 -39 11 -73.5t24.5 -64.5t24.5 -56t11 -47t-15 -28h-9q-8 0 -13 1t-11 1q-3 0 -5 -6t-2 -8t2 -8.5t5 -6.5q6 0 11 1.5t13 1.5q3 0 9 -2q15 -5 15 -27q0 -21 -11 -46.5t-24.5 -56
t-24.5 -65t-11 -73.5q0 -46 11.5 -84.5t33.5 -66t54.5 -43t73.5 -15.5h19z" />
    <glyph glyph-name="bar" unicode="|" horiz-adv-x="154" 
d="M90 -23v778q0 1 -3.5 1.5t-8.5 0.5q-4 0 -7.5 -0.5t-3.5 -1.5v-778q0 -1 3.5 -1.5t7.5 -0.5q5 0 8.5 0.5t3.5 1.5z" />
    <glyph glyph-name="braceright" unicode="}" horiz-adv-x="268" 
d="M198 -35q0 39 -11 73.5t-24.5 65t-24.5 56t-11 46.5q0 22 14 27q8 2 11 2q7 0 11.5 -1.5t10.5 -1.5q3 0 5 6.5t2 8.5t-2 8t-5 6q-6 0 -10.5 -1t-11.5 -1h-11q-14 8 -14 28q0 21 11 47t24.5 56t24.5 64.5t11 73.5q0 46 -11.5 84t-34 66t-54.5 43.5t-72 15.5h-21
q-1 0 -1.5 -3.5t-0.5 -8.5q0 -4 0.5 -7.5t1.5 -3.5h21q23 0 40 -6t28 -22t16 -44t5 -72q0 -27 -4 -58t-9.5 -63.5t-9.5 -64.5t-4 -60q0 -23 5 -46t31 -31q-13 -4 -20.5 -12.5t-11 -19.5t-4 -23t-0.5 -23q0 -28 4 -60t9.5 -64t9.5 -63.5t4 -58.5q0 -44 -5 -72t-16 -43.5
t-28 -21.5t-40 -6h-21q-1 0 -1.5 -4t-0.5 -8q0 -5 0.5 -8.5t1.5 -3.5h21q40 0 72 15.5t54.5 43t34 66t11.5 84.5z" />
    <glyph glyph-name="asciitilde" unicode="~" horiz-adv-x="384" 
d="M365 414q0 1 -4 1h-7h-8q-3 0 -3 -1q0 -26 -9.5 -37.5t-33.5 -11.5q-17 0 -35.5 6.5t-38.5 15t-43 15t-48 6.5t-46.5 -9t-37.5 -24t-25.5 -36t-9.5 -45q0 -1 3.5 -1.5t7.5 -0.5q5 0 9 0.5t4 1.5q0 26 8.5 37.5t31.5 11.5q17 0 35.5 -6.5t39.5 -14.5t44 -14.5t49 -6.5
q24 0 45 8.5t37 24t25.5 36t9.5 44.5z" />
    <glyph glyph-name="exclamdown" unicode="&#xa1;" horiz-adv-x="218" 
d="M174 372q0 26 -17 44t-41 18t-42 -18t-18 -44t18 -44.5t42 -18.5t41 18.5t17 44.5zM181 -224q0 33 -8.5 84t-18.5 112.5t-18.5 129.5t-8.5 134q0 2 -11 2t-11 -2q0 -66 -8.5 -134t-19 -129.5t-19 -112.5t-8.5 -84q0 -47 20 -64t46 -17q13 0 24.5 4t20.5 13t14.5 24.5
t5.5 39.5z" />
    <glyph glyph-name="cent" unicode="&#xa2;" horiz-adv-x="472" 
d="M442 86q2 2 -3 8t-6 5q-24 -35 -64 -58t-89 -26v396q32 -2 48 -13.5t16 -37.5q0 -12 -2 -18t-4 -11l-4 -10t-2 -15q0 -16 12 -27t34 -11q20 0 33 11t13 35q0 18 -10 38t-29 37.5t-45.5 30t-59.5 14.5v70q0 1 -3.5 1.5t-8.5 0.5q-4 0 -7.5 -0.5t-3.5 -1.5v-69
q-43 -2 -81 -20t-66 -48t-44.5 -69.5t-16.5 -84.5t16.5 -84.5t44.5 -69.5t66 -48t81 -21v-68q0 -1 3.5 -1.5t7.5 -0.5q5 0 8.5 0.5t3.5 1.5v70q50 4 92.5 29t69.5 65zM257 14q-18 2 -32 6t-26 16q-11 10 -18.5 23.5t-12 34t-7 49.5t-2.5 70t2.5 70t7 49.5t12 34t18.5 23.5
q12 11 26 15.5t32 6.5v-398z" />
    <glyph glyph-name="sterling" unicode="&#xa3;" horiz-adv-x="605" 
d="M581 126q0 2 -10.5 3t-10.5 -1q-3 -26 -20.5 -46t-45.5 -20q-47 0 -77.5 4.5t-54.5 11t-45.5 14.5t-49.5 14q25 32 38.5 67t13.5 70q0 31 -2 52.5t-6 45.5h99q1 0 1 3v8v7q0 4 -1 4h-99q-4 28 -9 50.5t-9.5 42.5t-7.5 39t-3 40q0 47 6 78.5t17.5 51t28.5 27.5t40 8
q31 0 44 -12.5t13 -31.5q0 -11 -4 -19t-8.5 -14.5t-8.5 -14t-4 -17.5q0 -18 12 -30.5t42 -12.5q24 0 42 17.5t18 40.5q0 18 -10.5 39t-28.5 39t-42 30t-50 12q-48 0 -88 -21t-68.5 -55.5t-44.5 -78t-16 -89.5q0 -31 9 -58t20 -61h-80q-1 0 -1.5 -3.5t-0.5 -7.5t0.5 -7.5
t1.5 -3.5h83q10 -26 20.5 -49.5t19.5 -45.5t14.5 -42t5.5 -39q0 -31 -14 -55q-20 3 -43 5t-54 2q-28 0 -50.5 -7t-39 -18t-25.5 -26.5t-9 -31.5q0 -15 6.5 -24.5t15.5 -15.5t19.5 -8.5t18.5 -2.5q29 0 59 14t59 40q22 -9 43.5 -19t44.5 -17.5t48.5 -12.5t54.5 -5q42 0 75 13
t56.5 33.5t36.5 46t15 50.5zM181 43q-22 -18 -44.5 -28t-40.5 -10q-13 0 -28.5 7.5t-15.5 24.5q0 14 9 21t31 7q21 0 42 -6t47 -16z" />
    <glyph glyph-name="yen" unicode="&#xa5;" horiz-adv-x="594" 
d="M644 685q1 0 2 3.5t1 7.5q0 5 -1 9t-2 4h-224q-1 0 -1.5 -4t-0.5 -9q0 -4 0.5 -7.5t1.5 -3.5h94q6 0 4 -6.5t-16 -35.5l-141 -283l-175 321q-2 4 3 4h102l0.5 3.5t0.5 7.5q0 5 -0.5 9l-0.5 4h-352q-1 0 -1.5 -4t-0.5 -9q0 -4 0.5 -7.5t1.5 -3.5h106q7 0 9 -4l162 -299
h-161q-1 0 -1.5 -3.5t-0.5 -8.5q0 -4 0.5 -7.5t1.5 -3.5h173l29 -50v-59h-202q-1 0 -1.5 -4t-0.5 -9q0 -4 0.5 -7.5t1.5 -3.5h202v-198q0 -4 -7 -4h-94l-0.5 -4t-0.5 -9q0 -4 0.5 -7.5l0.5 -3.5h311q1 0 1 3v8v9t-1 4h-94q-6 0 -6 4v198h201q1 0 1.5 3.5t0.5 7.5q0 5 -0.5 9
t-1.5 4h-201v76l17 33h184q1 0 1.5 3.5t0.5 7.5q0 5 -0.5 8.5t-1.5 3.5h-174l130 261q14 29 20.5 35.5t11.5 6.5h88z" />
    <glyph glyph-name="section" unicode="&#xa7;" horiz-adv-x="548" 
d="M495 220q0 55 -25.5 91.5t-64 62.5t-83.5 46.5t-83.5 43.5t-64 53t-25.5 75q0 67 43 97.5t111 30.5q31 0 48.5 -6t25 -17t9 -25.5t1.5 -30.5q0 -18 -6.5 -27t-6.5 -22q0 -20 13.5 -30.5t35.5 -10.5q19 0 32 11.5t13 36.5q0 21 -8.5 46.5t-28 47.5t-51 36.5t-77.5 14.5
q-50 0 -90 -17.5t-68 -48t-43 -71t-15 -86.5q0 -42 17.5 -73.5t46.5 -57.5q-51 -32 -75 -79.5t-24 -103.5q0 -55 25.5 -91.5t64.5 -63t83.5 -46.5t83.5 -43t64.5 -53t25.5 -75q0 -34 -11 -58t-31 -39.5t-48 -23t-62 -7.5q-37 0 -58 8t-32 21t-14 30t-3 34q0 18 6.5 27
t6.5 22q0 20 -14 30.5t-35 10.5q-20 0 -33.5 -12t-13.5 -36q0 -22 10.5 -49.5t33.5 -52t59 -41t87 -16.5q49 0 89 17.5t68 48t43 71t15 86.5q0 42 -18 73.5t-47 57.5q30 22 49 43t30 43t15 45.5t4 51.5zM455 146q0 -26 -18.5 -49.5t-52.5 -47.5q-27 23 -58.5 41t-64 34
t-63 31.5t-54 33.5t-37.5 40t-14 51q0 26 19.5 52t52.5 47q39 -34 89.5 -58.5t95 -48.5t75 -53.5t30.5 -72.5z" />
    <glyph glyph-name="dieresis" unicode="&#xa8;" horiz-adv-x="451" 
d="M376 590q0 21 -14.5 35.5t-34.5 14.5t-35.5 -14.5t-15.5 -35.5q0 -22 15.5 -36t35.5 -14t34.5 14t14.5 36zM175 590q0 21 -15 35.5t-35 14.5q-21 0 -35.5 -14.5t-14.5 -35.5q0 -22 14.5 -36t35.5 -14q20 0 35 14t15 36z" />
    <glyph glyph-name="copyright" unicode="&#xa9;" horiz-adv-x="822" 
d="M766 354q0 77 -28 145t-76.5 118.5t-113 79.5t-137.5 29t-138 -29t-113.5 -79.5t-76.5 -118.5t-28 -145t28 -144.5t76.5 -118t113.5 -79.5t138 -29t137.5 29t113 79.5t76.5 118t28 144.5zM741 354q0 -72 -26 -135t-71 -110t-105 -74t-128 -27t-128 27t-105 74t-71 110
t-26 135t26 135t71 110t105 74t128 27t128 -27t105 -74t71 -110t26 -135zM558 138v157q-2 1 -11 1t-9 -1q0 -30 -10 -55t-27.5 -43.5t-40.5 -29t-49 -10.5q-20 0 -37 4.5t-30 17.5q-22 20 -31 63.5t-9 117.5q0 72 9 116t31 64q13 13 28.5 17.5t35.5 4.5q21 0 42.5 -10.5
t38.5 -27.5t27.5 -38.5t10.5 -43.5q0 -1 9 -1t11 1v139q-2 1 -11 1t-9 -1q-2 -5 -9.5 -10t-19.5 -5q-20 0 -44.5 8.5t-45.5 8.5q-41 0 -75.5 -18t-59.5 -49t-39 -71t-14 -85t14.5 -85.5t40 -71t60.5 -48.5t76 -18q12 0 25.5 3t27 6.5t26 6.5t22.5 3q12 0 18.5 -6.5
t7.5 -11.5q1 -1 9 -1q9 0 11 1z" />
    <glyph glyph-name="ordfeminine" unicode="&#xaa;" horiz-adv-x="367" 
d="M352 422q0 1 -2 3.5t-5 4.5t-5.5 4t-2.5 1q-5 -15 -23 -15q-14 0 -14 26v153q0 70 -35 98.5t-93 28.5q-22 0 -41.5 -6.5t-34.5 -17t-23.5 -23t-8.5 -24.5q0 -16 9 -28.5t31 -12.5q19 0 26.5 9.5t7.5 23.5q0 10 -3.5 16.5t-3.5 17.5q0 18 11.5 20.5t29.5 2.5q10 0 17 -1.5
t12 -7.5t7.5 -17.5t2.5 -31.5v-56q0 -12 -20 -17t-50 -7q-11 -1 -29 -5.5t-35 -15t-29 -28.5t-12 -48q0 -22 9.5 -37t24.5 -24.5t34 -14t38 -4.5q33 0 49 14t30 36q5 -23 25 -36.5t42 -13.5q27 0 44 11t20 22zM211 488q0 -12 -3.5 -25t-10 -23.5t-16 -17t-22.5 -6.5
q-23 0 -28.5 14.5t-5.5 38.5q0 25 2 39t6 21.5t10 10t14 3.5q16 2 30.5 4.5t23.5 10.5v-70z" />
    <glyph glyph-name="guillemotleft" unicode="&#xab;" horiz-adv-x="399" 
d="M347 51q0 23 -5.5 47.5t-14.5 46.5t-19.5 39.5t-20.5 28.5q10 10 20.5 28t19.5 40t14.5 46t5.5 48q0 2 -4 3t-9 1q-4 0 -8 -1t-4 -3q0 -29 -16.5 -56t-38.5 -48t-43.5 -36t-30.5 -20q-2 -2 0 -4q9 -5 30.5 -20t43.5 -36t38.5 -48t16.5 -56q0 -2 4 -3t8 -1q5 0 9 1t4 3z
M187 51q0 23 -5.5 47.5t-14 46.5t-19 39.5t-20.5 28.5q10 10 20.5 28t19 40t14 46t5.5 48q0 2 -4 3t-9 1q-4 0 -8 -1t-4 -3q0 -29 -16.5 -56t-38.5 -48t-43.5 -36t-30.5 -20q-2 -2 0 -4q9 -5 30.5 -20t43.5 -36t38.5 -48t16.5 -56q0 -2 4 -3t8 -1q5 0 9 1t4 3z" />
    <glyph glyph-name="registered" unicode="&#xae;" horiz-adv-x="822" 
d="M766 354q0 77 -28 145t-76.5 118.5t-113 79.5t-137.5 29t-138 -29t-113.5 -79.5t-76.5 -118.5t-28 -145t28 -144.5t76.5 -118t113.5 -79.5t138 -29t137.5 29t113 79.5t76.5 118t28 144.5zM741 354q0 -72 -26 -135t-71 -110t-105 -74t-128 -27t-128 27t-105 74t-71 110
t-26 135t26 135t71 110t105 74t128 27t128 -27t105 -74t71 -110t26 -135zM642 158l-4.5 8.5t-5.5 7.5q-5 -6 -13 -11.5t-18 -5.5q-14 0 -23 9t-9 32v54q0 48 -30.5 78t-105.5 30q27 0 49 9t37 24t23.5 34.5t8.5 40.5q0 45 -36.5 74.5t-99.5 29.5h-180q-1 0 -1 -11
q0 -10 1 -10h51q4 0 4 -2v-379q0 -2 -4 -2h-51q-1 0 -1 -11q0 -10 1 -10h186q1 0 1 10q0 11 -1 11h-50q-4 0 -4 2v179h39q39 0 62 -17t23 -57v-22q0 -32 8.5 -54t22.5 -36t31 -20t35 -6q20 0 32.5 5.5t21.5 15.5zM475 466q0 -29 -3 -47.5t-10.5 -29.5t-21 -15t-34.5 -4h-39
v179q0 2 4 2h28q21 0 35.5 -2.5t23.5 -11.5t13 -26t4 -45z" />
    <glyph glyph-name="macron" unicode="&#xaf;" horiz-adv-x="378" 
d="M354 597q1 0 2 5t1 10q0 6 -1 11t-2 5h-333q-1 0 -1.5 -5t-0.5 -11q0 -5 0.5 -10t1.5 -5h333z" />
    <glyph glyph-name="macron" unicode="&#x2c9;" horiz-adv-x="378" 
d="M354 597q1 0 2 5t1 10q0 6 -1 11t-2 5h-333q-1 0 -1.5 -5t-0.5 -11q0 -5 0.5 -10t1.5 -5h333z" />
    <glyph glyph-name="degree" unicode="&#xb0;" horiz-adv-x="271" 
d="M216 636q0 32 -23 54.5t-57 22.5q-16 0 -30.5 -6t-25 -16.5t-17 -24.5t-6.5 -30t6.5 -30t17 -24.5t25 -16.5t30.5 -6q34 0 57 22.5t23 54.5zM192 636q0 -22 -16.5 -37.5t-39.5 -15.5q-22 0 -38.5 15.5t-16.5 37.5t16.5 37.5t38.5 15.5q23 0 39.5 -15.5t16.5 -37.5z" />
    <glyph glyph-name="acute" unicode="&#xb4;" horiz-adv-x="336" 
d="M279 672q0 15 -10 25.5t-27 10.5q-15 0 -25.5 -10.5t-21 -27t-23 -36.5t-31 -39.5t-44.5 -35.5t-63 -24q-1 0 -1 -4v-9q0 -4 0.5 -7.5t1.5 -3.5q76 18 123.5 38.5t74.5 42t36.5 42.5t9.5 38z" />
    <glyph glyph-name="paragraph" unicode="&#xb6;" horiz-adv-x="602" 
d="M559 0q1 0 1 3v8v9t-1 4h-65q-4 0 -4 3v654q0 4 4 4h65q1 0 1 3v8v9t-1 4h-205q-62 0 -117 -28t-96 -76t-65 -113t-24 -138t24 -137.5t65 -112.5t96 -76t117 -28h205zM467 27q0 -3 -7 -3h-60q-5 0 -5 3v654q0 4 5 4h60q7 0 7 -4v-654z" />
    <glyph glyph-name="periodcentered" unicode="&#xb7;" horiz-adv-x="186" 
d="M165 354q0 23 -16 39t-41 16q-23 0 -39 -16t-16 -39q0 -26 16 -43t39 -17q25 0 41 17t16 43z" />
    <glyph glyph-name="cedilla" unicode="&#xb8;" horiz-adv-x="277" 
d="M200 -142q0 28 -9.5 39.5t-21.5 19t-21.5 16.5t-9.5 32q0 5 3.5 13t6.5 13q0 2 -8.5 6t-9.5 2q-8 -10 -16 -30t-8 -39q0 -26 10.5 -39t23.5 -20.5t23.5 -14.5t10.5 -20q0 -33 -47 -33q-20 0 -32 5t-12 15q0 7 6.5 10.5t6.5 15.5q0 11 -7.5 15.5t-16.5 4.5q-12 0 -19 -7.5
t-7 -17.5q0 -25 19.5 -45t61.5 -20q37 0 55 22t18 57z" />
    <glyph glyph-name="ordmasculine" unicode="&#xba;" horiz-adv-x="402" 
d="M358 558q0 35 -12.5 65.5t-34 53.5t-50.5 36t-62 13q-32 0 -60 -13t-49 -36t-33.5 -53.5t-12.5 -65.5t12.5 -65.5t33.5 -53.5t49 -36.5t60 -13.5q33 0 62 13.5t50.5 36.5t34 53.5t12.5 65.5zM261 558q0 -60 -4 -87.5t-18 -41.5q-6 -11 -16.5 -13.5t-23.5 -2.5
q-11 0 -20.5 2.5t-17.5 13.5q-12 14 -17 41.5t-5 87.5q0 104 22 129q8 10 17.5 13.5t20.5 3.5q13 0 23.5 -3.5t16.5 -13.5q14 -14 18 -45t4 -84z" />
    <glyph glyph-name="guillemotright" unicode="&#xbb;" horiz-adv-x="399" 
d="M366 211q2 2 0 4q-9 5 -30.5 20t-43.5 36t-39 48t-17 56q0 2 -4 3t-9 1q-4 0 -7.5 -1t-3.5 -3q0 -24 5.5 -48t14 -46t19 -40t20.5 -28q-10 -11 -20.5 -28.5t-19 -39.5t-14 -46.5t-5.5 -47.5q0 -2 3.5 -3t7.5 -1q5 0 9 1t4 3q0 29 17 56t39 48t43.5 36t30.5 20zM206 211
q4 2 0 4q-9 5 -30.5 20t-43 36t-38.5 48t-17 56q0 2 -4 3t-9 1q-4 0 -7.5 -1t-3.5 -3q0 -24 5.5 -48t14 -46t19 -40t20.5 -28q-10 -11 -20.5 -28.5t-19 -39.5t-14 -46.5t-5.5 -47.5q0 -2 3.5 -3t7.5 -1q5 0 9 1t4 3q0 29 17 56t38.5 48t43 36t30.5 20z" />
    <glyph glyph-name="questiondown" unicode="&#xbf;" horiz-adv-x="403" 
d="M324 372q0 26 -17 44t-41 18q-26 0 -42.5 -18t-16.5 -44t16.5 -44.5t42.5 -18.5q24 0 41 18.5t17 44.5zM417 -146q0 30 -16.5 45t-42.5 15q-27 0 -43 -14.5t-16 -34.5q0 -13 2.5 -20t5.5 -13t5.5 -14t2.5 -23q0 -36 -20 -56.5t-58 -20.5q-20 0 -38 4.5t-30 16.5
q-11 10 -18.5 22.5t-12 31.5t-6.5 45.5t-2 64.5q0 52 0.5 84t3 51t6 28t9.5 15q15 18 49 18q18 0 41.5 -8t34.5 -27q1 -1 2.5 -0.5t1.5 2.5q0 1 -0.5 1.5t-0.5 2.5v166q0 2 -11 2t-11 -2v-126q-14 8 -29.5 10t-27.5 2q-37 0 -70.5 -17t-59 -46.5t-40.5 -69.5t-15 -86
t17 -84.5t47 -66t71 -42.5t89 -15q35 0 67.5 16t57.5 39.5t40 51.5t15 52z" />
    <glyph glyph-name="Agrave" unicode="&#xc0;" 
d="M661 0q1 0 1 3v8v9t-1 4h-84q-3 0 -5 1l-2 1l-243 697q-1 2 -12 2q-10 0 -11 -2l-221 -657q-9 -29 -12.5 -35.5t-10.5 -6.5h-74q-1 0 -1.5 -4t-0.5 -9q0 -4 0.5 -7.5t1.5 -3.5h189q1 0 1.5 3.5t0.5 7.5q0 5 -0.5 9t-1.5 4h-78q-3 0 -1.5 7.5t9.5 34.5l54 160h212l64 -200
q1 0 -0.5 -1t-3.5 -1h-80q-1 0 -1.5 -4t-0.5 -9q0 -4 0.5 -7.5t1.5 -3.5h310zM364 250h-197l100 302zM363 790q-38 8 -63.5 24t-44 35.5t-31 39.5t-23.5 36.5t-21.5 27t-25.5 10.5q-17 0 -26.5 -10.5t-9.5 -25.5q0 -17 9.5 -38t36.5 -42.5t74.5 -42t123.5 -38.5q1 0 1.5 3.5
t0.5 7.5v9t-1 4z" />
    <glyph glyph-name="Aacute" unicode="&#xc1;" 
d="M661 0q1 0 1 3v8v9t-1 4h-84q-3 0 -5 1l-2 1l-243 697q-1 2 -12 2q-10 0 -11 -2l-221 -657q-9 -29 -12.5 -35.5t-10.5 -6.5h-74q-1 0 -1.5 -4t-0.5 -9q0 -4 0.5 -7.5t1.5 -3.5h189q1 0 1.5 3.5t0.5 7.5q0 5 -0.5 9t-1.5 4h-78q-3 0 -1.5 7.5t9.5 34.5l54 160h212l64 -200
q1 0 -0.5 -1t-3.5 -1h-80q-1 0 -1.5 -4t-0.5 -9q0 -4 0.5 -7.5t1.5 -3.5h310zM364 250h-197l100 302zM535 927q0 15 -10 25.5t-27 10.5q-15 0 -25.5 -10.5t-21 -27t-23 -36.5t-31 -39.5t-44.5 -35.5t-63 -24q-1 0 -1 -4v-9q0 -4 0.5 -7.5t1.5 -3.5q76 18 123.5 38.5t74.5 42
t36.5 42.5t9.5 38z" />
    <glyph glyph-name="Acircumflex" unicode="&#xc2;" 
d="M661 0q1 0 1 3v8v9t-1 4h-84q-3 0 -5 1l-2 1l-243 697q-1 2 -12 2q-10 0 -11 -2l-221 -657q-9 -29 -12.5 -35.5t-10.5 -6.5h-74q-1 0 -1.5 -4t-0.5 -9q0 -4 0.5 -7.5t1.5 -3.5h189q1 0 1.5 3.5t0.5 7.5q0 5 -0.5 9t-1.5 4h-78q-3 0 -1.5 7.5t9.5 34.5l54 160h212l64 -200
q1 0 -0.5 -1t-3.5 -1h-80q-1 0 -1.5 -4t-0.5 -9q0 -4 0.5 -7.5t1.5 -3.5h310zM364 250h-197l100 302zM465 780q-45 50 -79.5 90t-59.5 76q-3 2 -5 0q-24 -36 -58.5 -75.5t-79.5 -90.5q-1 -1 4.5 -7.5t6.5 -4.5l125 95l136 -95q2 -2 7 4.5t3 7.5z" />
    <glyph glyph-name="Atilde" unicode="&#xc3;" 
d="M661 0q1 0 1 3v8v9t-1 4h-84q-3 0 -5 1l-2 1l-243 697q-1 2 -12 2q-10 0 -11 -2l-221 -657q-9 -29 -12.5 -35.5t-10.5 -6.5h-74q-1 0 -1.5 -4t-0.5 -9q0 -4 0.5 -7.5t1.5 -3.5h189q1 0 1.5 3.5t0.5 7.5q0 5 -0.5 9t-1.5 4h-78q-3 0 -1.5 7.5t9.5 34.5l54 160h212l64 -200
q1 0 -0.5 -1t-3.5 -1h-80q-1 0 -1.5 -4t-0.5 -9q0 -4 0.5 -7.5t1.5 -3.5h310zM364 250h-197l100 302zM508 918q0 1 -4 1h-7h-8q-3 0 -3 -1q0 -26 -9.5 -37.5t-33.5 -11.5q-17 0 -35.5 6.5t-38.5 14.5t-43 14.5t-48 6.5t-46.5 -8.5t-37.5 -24t-25.5 -36t-9.5 -44.5
q0 -1 3.5 -1.5t7.5 -0.5q5 0 9 0.5t4 1.5q0 26 8.5 37t31.5 11q17 0 35.5 -6.5t39.5 -14.5t44 -14.5t49 -6.5q24 0 45 9t37 24t25.5 36t9.5 45z" />
    <glyph glyph-name="Adieresis" unicode="&#xc4;" 
d="M661 0q1 0 1 3v8v9t-1 4h-84q-3 0 -5 1l-2 1l-243 697q-1 2 -12 2q-10 0 -11 -2l-221 -657q-9 -29 -12.5 -35.5t-10.5 -6.5h-74q-1 0 -1.5 -4t-0.5 -9q0 -4 0.5 -7.5t1.5 -3.5h189q1 0 1.5 3.5t0.5 7.5q0 5 -0.5 9t-1.5 4h-78q-3 0 -1.5 7.5t9.5 34.5l54 160h212l64 -200
q1 0 -0.5 -1t-3.5 -1h-80q-1 0 -1.5 -4t-0.5 -9q0 -4 0.5 -7.5t1.5 -3.5h310zM364 250h-197l100 302zM474 845q0 21 -14.5 35.5t-34.5 14.5t-35.5 -14.5t-15.5 -35.5q0 -22 15.5 -36t35.5 -14t34.5 14t14.5 36zM273 845q0 21 -15 35.5t-35 14.5q-21 0 -35.5 -14.5
t-14.5 -35.5q0 -22 14.5 -36t35.5 -14q20 0 35 14t15 36z" />
    <glyph glyph-name="Aring" unicode="&#xc5;" 
d="M661 0q1 0 1 3v8v9t-1 4h-84q-3 0 -5 1l-2 1l-241 693q29 5 47 26.5t18 49.5q0 32 -23 54.5t-56 22.5q-16 0 -30.5 -6t-25.5 -16.5t-17.5 -24.5t-6.5 -30q0 -29 19.5 -50.5t47.5 -25.5l-219 -653q-9 -29 -12.5 -35.5t-10.5 -6.5h-74q-1 0 -1.5 -4t-0.5 -9q0 -4 0.5 -7.5
t1.5 -3.5h189q1 0 1.5 3.5t0.5 7.5q0 5 -0.5 9t-1.5 4h-78q-3 0 -1.5 7.5t9.5 34.5l54 160h212l64 -200q1 0 -0.5 -1t-3.5 -1h-80q-1 0 -1.5 -4t-0.5 -9q0 -4 0.5 -7.5t1.5 -3.5h310zM370 795q0 -22 -16.5 -37.5t-38.5 -15.5q-23 0 -39.5 15.5t-16.5 37.5t16.5 37.5
t39.5 15.5q22 0 38.5 -15.5t16.5 -37.5zM364 250h-197l100 302z" />
    <glyph glyph-name="AE" unicode="&#xc6;" horiz-adv-x="884" 
d="M854 3v227q0 2 -11 2q-10 0 -10 -2q0 -39 -11.5 -76t-36 -66t-64.5 -46.5t-97 -17.5h-93q-4 0 -4 4v324h20q28 0 49 -10t35 -27t21.5 -40t7.5 -48q0 -2 10 -2q11 0 11 2v274q0 2 -11 2q-10 0 -10 -2q0 -26 -7.5 -48.5t-21.5 -39.5t-35 -27t-49 -10h-20v305q0 4 4 4h90
q43 0 74 -16t51 -42t29 -59.5t9 -68.5q0 -1 11 -1t11 1v207q0 3 -3 3h-494q-1 0 -1.5 -4t-0.5 -9q0 -4 0.5 -7.5t1.5 -3.5h80l-326 -619q-15 -29 -20 -35.5t-10 -6.5h-61q-2 0 -2 -5q0 -4 2 -19h176q2 15 2 19q0 5 -2 5h-73q-5 0 -2 7.5t17 34.5l108 210h203v-248
q0 -4 -5 -4h-83q-1 0 -1.5 -4t-0.5 -9q0 -4 0.5 -7.5t1.5 -3.5h538q3 0 3 3zM401 299h-191l191 367v-367z" />
    <glyph glyph-name="Ccedilla" unicode="&#xc7;" horiz-adv-x="636" 
d="M586 -15v263q0 1 -4 1h-7h-8q-3 0 -3 -1q0 -49 -16.5 -93t-44 -77t-65 -52.5t-79.5 -19.5q-32 0 -59 7.5t-48 29.5q-32 35 -47.5 109.5t-15.5 201.5q0 126 15.5 201.5t47.5 110.5q21 20 45.5 28t56.5 8q34 0 68.5 -19.5t62.5 -50.5t45 -69.5t17 -75.5q0 -2 10 -2
q11 0 11 2v236q0 2 -11 2q-10 0 -10 -2q-2 -8 -14.5 -16t-32.5 -8q-16 0 -34.5 4t-37.5 9.5t-38 9.5t-36 4q-66 0 -121 -30t-95.5 -81t-63 -118.5t-22.5 -142.5q0 -73 22.5 -139t62 -117t93.5 -82t118 -33q-6 -11 -11.5 -27.5t-5.5 -30.5q0 -26 10.5 -39t23 -21t23 -14.5
t10.5 -20.5q0 -16 -10.5 -25t-36.5 -9q-19 0 -31 5t-12 16q0 8 5.5 11t5.5 15q0 11 -7 15t-16 4q-12 0 -18.5 -7.5t-6.5 -16.5q0 -25 19.5 -45t60.5 -20q38 0 56.5 22t18.5 56q0 28 -10 40t-22 19.5t-22 16t-10 31.5q0 5 3 12.5t6 12.5q17 1 37 6t40.5 11t39.5 10.5t34 4.5
q20 0 30 -10.5t12 -19.5q1 -1 11 -1q11 0 11 1z" />
    <glyph glyph-name="Egrave" unicode="&#xc8;" horiz-adv-x="613" 
d="M583 3v227q0 2 -11 2q-10 0 -10 -2q0 -39 -11 -76t-36 -66t-65 -46.5t-97 -17.5h-91q-8 0 -8 4v324h22q28 0 49 -10t35 -27t21.5 -40t7.5 -48q0 -2 10 -2q11 0 11 2v274q0 2 -11 2q-10 0 -10 -2q0 -26 -7.5 -48.5t-21.5 -39.5t-35 -27t-49 -10h-22v305q0 4 8 4h88
q44 0 75 -16t50.5 -42t28.5 -59.5t9 -68.5l3.5 -0.5t7.5 -0.5q5 0 8.5 0.5l3.5 0.5v207q0 3 -4 3h-490q-1 0 -1.5 -4t-0.5 -9q0 -4 0.5 -7.5t1.5 -3.5h82q5 0 5 -4v-653q0 -4 -5 -4h-82q-1 0 -1.5 -4t-0.5 -9q0 -4 0.5 -7.5t1.5 -3.5h538q3 0 3 3zM417 790q-38 8 -63.5 24
t-44 35.5t-31 39.5t-23.5 36.5t-21.5 27t-25.5 10.5q-17 0 -26.5 -10.5t-9.5 -25.5q0 -17 9.5 -38t36.5 -42.5t74.5 -42t123.5 -38.5q1 0 1.5 3.5t0.5 7.5v9t-1 4z" />
    <glyph glyph-name="Eacute" unicode="&#xc9;" horiz-adv-x="613" 
d="M583 3v227q0 2 -11 2q-10 0 -10 -2q0 -39 -11 -76t-36 -66t-65 -46.5t-97 -17.5h-91q-8 0 -8 4v324h22q28 0 49 -10t35 -27t21.5 -40t7.5 -48q0 -2 10 -2q11 0 11 2v274q0 2 -11 2q-10 0 -10 -2q0 -26 -7.5 -48.5t-21.5 -39.5t-35 -27t-49 -10h-22v305q0 4 8 4h88
q44 0 75 -16t50.5 -42t28.5 -59.5t9 -68.5l3.5 -0.5t7.5 -0.5q5 0 8.5 0.5l3.5 0.5v207q0 3 -4 3h-490q-1 0 -1.5 -4t-0.5 -9q0 -4 0.5 -7.5t1.5 -3.5h82q5 0 5 -4v-653q0 -4 -5 -4h-82q-1 0 -1.5 -4t-0.5 -9q0 -4 0.5 -7.5t1.5 -3.5h538q3 0 3 3zM477 927q0 15 -10 25.5
t-27 10.5q-15 0 -25.5 -10.5t-21 -27t-23 -36.5t-31 -39.5t-44.5 -35.5t-63 -24q-1 0 -1 -4v-9q0 -4 0.5 -7.5t1.5 -3.5q76 18 123.5 38.5t74.5 42t36.5 42.5t9.5 38z" />
    <glyph glyph-name="Ecircumflex" unicode="&#xca;" horiz-adv-x="613" 
d="M583 3v227q0 2 -11 2q-10 0 -10 -2q0 -39 -11 -76t-36 -66t-65 -46.5t-97 -17.5h-91q-8 0 -8 4v324h22q28 0 49 -10t35 -27t21.5 -40t7.5 -48q0 -2 10 -2q11 0 11 2v274q0 2 -11 2q-10 0 -10 -2q0 -26 -7.5 -48.5t-21.5 -39.5t-35 -27t-49 -10h-22v305q0 4 8 4h88
q44 0 75 -16t50.5 -42t28.5 -59.5t9 -68.5l3.5 -0.5t7.5 -0.5q5 0 8.5 0.5l3.5 0.5v207q0 3 -4 3h-490q-1 0 -1.5 -4t-0.5 -9q0 -4 0.5 -7.5t1.5 -3.5h82q5 0 5 -4v-653q0 -4 -5 -4h-82q-1 0 -1.5 -4t-0.5 -9q0 -4 0.5 -7.5t1.5 -3.5h538q3 0 3 3zM459 780q-45 50 -79.5 90
t-59.5 76q-3 2 -5 0q-24 -36 -58.5 -75.5t-79.5 -90.5q-1 -1 4.5 -7.5t6.5 -4.5l125 95l136 -95q2 -2 7 4.5t3 7.5z" />
    <glyph glyph-name="Edieresis" unicode="&#xcb;" horiz-adv-x="613" 
d="M583 3v227q0 2 -11 2q-10 0 -10 -2q0 -39 -11 -76t-36 -66t-65 -46.5t-97 -17.5h-91q-8 0 -8 4v324h22q28 0 49 -10t35 -27t21.5 -40t7.5 -48q0 -2 10 -2q11 0 11 2v274q0 2 -11 2q-10 0 -10 -2q0 -26 -7.5 -48.5t-21.5 -39.5t-35 -27t-49 -10h-22v305q0 4 8 4h88
q44 0 75 -16t50.5 -42t28.5 -59.5t9 -68.5l3.5 -0.5t7.5 -0.5q5 0 8.5 0.5l3.5 0.5v207q0 3 -4 3h-490q-1 0 -1.5 -4t-0.5 -9q0 -4 0.5 -7.5t1.5 -3.5h82q5 0 5 -4v-653q0 -4 -5 -4h-82q-1 0 -1.5 -4t-0.5 -9q0 -4 0.5 -7.5t1.5 -3.5h538q3 0 3 3zM459 845q0 21 -14.5 35.5
t-34.5 14.5t-35.5 -14.5t-15.5 -35.5q0 -22 15.5 -36t35.5 -14t34.5 14t14.5 36zM258 845q0 21 -15 35.5t-35 14.5q-21 0 -35.5 -14.5t-14.5 -35.5q0 -22 14.5 -36t35.5 -14q20 0 35 14t15 36z" />
    <glyph glyph-name="Igrave" unicode="&#xcc;" horiz-adv-x="386" 
d="M344 0q1 0 1 3v8v9t-1 4h-83q-6 0 -6 4v653q0 4 6 4h83q1 0 1 3v8v9t-1 4h-302l-0.5 -4t-0.5 -9q0 -4 0.5 -7.5l0.5 -3.5h82q5 0 5 -4v-653q0 -4 -5 -4h-82l-0.5 -4t-0.5 -9q0 -4 0.5 -7.5l0.5 -3.5h302zM308 790q-38 8 -63.5 24t-44 35.5t-31 39.5t-23.5 36.5t-21.5 27
t-25.5 10.5q-17 0 -26.5 -10.5t-9.5 -25.5q0 -17 9.5 -38t36.5 -42.5t74.5 -42t123.5 -38.5q1 0 1.5 3.5t0.5 7.5v9t-1 4z" />
    <glyph glyph-name="Iacute" unicode="&#xcd;" horiz-adv-x="386" 
d="M344 0q1 0 1 3v8v9t-1 4h-83q-6 0 -6 4v653q0 4 6 4h83q1 0 1 3v8v9t-1 4h-302l-0.5 -4t-0.5 -9q0 -4 0.5 -7.5l0.5 -3.5h82q5 0 5 -4v-653q0 -4 -5 -4h-82l-0.5 -4t-0.5 -9q0 -4 0.5 -7.5l0.5 -3.5h302zM339 927q0 15 -10 25.5t-27 10.5q-15 0 -25.5 -10.5t-21 -27
t-23 -36.5t-31 -39.5t-44.5 -35.5t-63 -24q-1 0 -1 -4v-9q0 -4 0.5 -7.5t1.5 -3.5q76 18 123.5 38.5t74.5 42t36.5 42.5t9.5 38z" />
    <glyph glyph-name="Icircumflex" unicode="&#xce;" horiz-adv-x="386" 
d="M344 0q1 0 1 3v8v9t-1 4h-83q-6 0 -6 4v653q0 4 6 4h83q1 0 1 3v8v9t-1 4h-302l-0.5 -4t-0.5 -9q0 -4 0.5 -7.5l0.5 -3.5h82q5 0 5 -4v-653q0 -4 -5 -4h-82l-0.5 -4t-0.5 -9q0 -4 0.5 -7.5l0.5 -3.5h302zM338 780q-45 50 -79.5 90t-59.5 76q-3 2 -5 0
q-24 -36 -58.5 -75.5t-79.5 -90.5q-1 -1 4.5 -7.5t6.5 -4.5l125 95l136 -95q2 -2 7 4.5t3 7.5z" />
    <glyph glyph-name="Idieresis" unicode="&#xcf;" horiz-adv-x="386" 
d="M344 0q1 0 1 3v8v9t-1 4h-83q-6 0 -6 4v653q0 4 6 4h83q1 0 1 3v8v9t-1 4h-302l-0.5 -4t-0.5 -9q0 -4 0.5 -7.5l0.5 -3.5h82q5 0 5 -4v-653q0 -4 -5 -4h-82l-0.5 -4t-0.5 -9q0 -4 0.5 -7.5l0.5 -3.5h302zM344 845q0 21 -14.5 35.5t-34.5 14.5t-35.5 -14.5t-15.5 -35.5
q0 -22 15.5 -36t35.5 -14t34.5 14t14.5 36zM143 845q0 21 -15 35.5t-35 14.5q-21 0 -35.5 -14.5t-14.5 -35.5q0 -22 14.5 -36t35.5 -14q20 0 35 14t15 36z" />
    <glyph glyph-name="Ntilde" unicode="&#xd1;" horiz-adv-x="691" 
d="M675 685l0.5 3.5t0.5 7.5q0 5 -0.5 9l-0.5 4h-197q-2 0 -2.5 -4t-0.5 -9q0 -4 0.5 -7.5t2.5 -3.5h81q6 0 6 -4v-462l-284 472q-7 11 -11.5 14.5t-9.5 3.5h-222q-1 0 -1.5 -4t-0.5 -9q0 -4 0.5 -7.5t1.5 -3.5h81q5 0 5 -4v-653q0 -4 -5 -4h-81q-1 0 -1.5 -4t-0.5 -9
q0 -4 0.5 -7.5t1.5 -3.5h198q1 0 1 3v8v9t-1 4h-83q-4 0 -4 4v641l415 -682q2 -3 12.5 -2.5t10.5 2.5v694q0 4 6 4h82zM552 918q0 1 -4 1h-7h-8q-3 0 -3 -1q0 -26 -9.5 -37.5t-33.5 -11.5q-17 0 -35.5 6.5t-38.5 14.5t-43 14.5t-48 6.5t-46.5 -8.5t-37.5 -24t-25.5 -36
t-9.5 -44.5q0 -1 3.5 -1.5t7.5 -0.5q5 0 9 0.5t4 1.5q0 26 8.5 37t31.5 11q17 0 35.5 -6.5t39.5 -14.5t44 -14.5t49 -6.5q24 0 45 9t37 24t25.5 36t9.5 45z" />
    <glyph glyph-name="Ograve" unicode="&#xd2;" horiz-adv-x="710" 
d="M656 354q0 77 -23.5 145t-64.5 118.5t-96 79.5t-118 29q-66 0 -121 -30t-95.5 -81t-63 -118.5t-22.5 -142.5q0 -77 24 -144.5t65 -118t96 -79.5t117 -29q63 0 118 29t96 79.5t64.5 118t23.5 144.5zM519 354q0 -72 -3.5 -123t-11 -87t-19.5 -60t-28 -41
q-21 -22 -46.5 -29.5t-56.5 -7.5t-56 7.5t-45 29.5q-17 17 -28.5 41t-19.5 60t-11.5 87t-3.5 123q0 126 15 201.5t48 110.5q20 20 45 28t56 8t56.5 -8t46.5 -28q32 -35 47 -110.5t15 -201.5zM409 790q-38 8 -63.5 24t-44 35.5t-31 39.5t-23.5 36.5t-21.5 27t-25.5 10.5
q-17 0 -26.5 -10.5t-9.5 -25.5q0 -17 9.5 -38t36.5 -42.5t74.5 -42t123.5 -38.5q1 0 1.5 3.5t0.5 7.5v9t-1 4z" />
    <glyph glyph-name="Oacute" unicode="&#xd3;" horiz-adv-x="710" 
d="M656 354q0 77 -23.5 145t-64.5 118.5t-96 79.5t-118 29q-66 0 -121 -30t-95.5 -81t-63 -118.5t-22.5 -142.5q0 -77 24 -144.5t65 -118t96 -79.5t117 -29q63 0 118 29t96 79.5t64.5 118t23.5 144.5zM519 354q0 -72 -3.5 -123t-11 -87t-19.5 -60t-28 -41
q-21 -22 -46.5 -29.5t-56.5 -7.5t-56 7.5t-45 29.5q-17 17 -28.5 41t-19.5 60t-11.5 87t-3.5 123q0 126 15 201.5t48 110.5q20 20 45 28t56 8t56.5 -8t46.5 -28q32 -35 47 -110.5t15 -201.5zM547 927q0 15 -10 25.5t-27 10.5q-15 0 -25.5 -10.5t-21 -27t-23 -36.5t-31 -39.5
t-44.5 -35.5t-63 -24q-1 0 -1 -4v-9q0 -4 0.5 -7.5t1.5 -3.5q76 18 123.5 38.5t74.5 42t36.5 42.5t9.5 38z" />
    <glyph glyph-name="Ocircumflex" unicode="&#xd4;" horiz-adv-x="710" 
d="M656 354q0 77 -23.5 145t-64.5 118.5t-96 79.5t-118 29q-66 0 -121 -30t-95.5 -81t-63 -118.5t-22.5 -142.5q0 -77 24 -144.5t65 -118t96 -79.5t117 -29q63 0 118 29t96 79.5t64.5 118t23.5 144.5zM519 354q0 -72 -3.5 -123t-11 -87t-19.5 -60t-28 -41
q-21 -22 -46.5 -29.5t-56.5 -7.5t-56 7.5t-45 29.5q-17 17 -28.5 41t-19.5 60t-11.5 87t-3.5 123q0 126 15 201.5t48 110.5q20 20 45 28t56 8t56.5 -8t46.5 -28q32 -35 47 -110.5t15 -201.5zM497 780q-45 50 -79.5 90t-59.5 76q-3 2 -5 0q-24 -36 -58.5 -75.5t-79.5 -90.5
q-1 -1 4.5 -7.5t6.5 -4.5l125 95l136 -95q2 -2 7 4.5t3 7.5z" />
    <glyph glyph-name="Otilde" unicode="&#xd5;" horiz-adv-x="702" 
d="M656 354q0 77 -23.5 145t-64.5 118.5t-96 79.5t-118 29q-66 0 -121 -30t-95.5 -81t-63 -118.5t-22.5 -142.5q0 -77 24 -144.5t65 -118t96 -79.5t117 -29q63 0 118 29t96 79.5t64.5 118t23.5 144.5zM519 354q0 -72 -3.5 -123t-11 -87t-19.5 -60t-28 -41
q-21 -22 -46.5 -29.5t-56.5 -7.5t-56 7.5t-45 29.5q-17 17 -28.5 41t-19.5 60t-11.5 87t-3.5 123q0 126 15 201.5t48 110.5q20 20 45 28t56 8t56.5 -8t46.5 -28q32 -35 47 -110.5t15 -201.5zM530 918q0 1 -4 1h-7h-8q-3 0 -3 -1q0 -26 -9.5 -37.5t-33.5 -11.5
q-17 0 -35.5 6.5t-38.5 14.5t-43 14.5t-48 6.5t-46.5 -8.5t-37.5 -24t-25.5 -36t-9.5 -44.5q0 -1 3.5 -1.5t7.5 -0.5q5 0 9 0.5t4 1.5q0 26 8.5 37t31.5 11q17 0 35.5 -6.5t39.5 -14.5t44 -14.5t49 -6.5q24 0 45 9t37 24t25.5 36t9.5 45z" />
    <glyph glyph-name="Odieresis" unicode="&#xd6;" horiz-adv-x="710" 
d="M656 354q0 77 -23.5 145t-64.5 118.5t-96 79.5t-118 29q-66 0 -121 -30t-95.5 -81t-63 -118.5t-22.5 -142.5q0 -77 24 -144.5t65 -118t96 -79.5t117 -29q63 0 118 29t96 79.5t64.5 118t23.5 144.5zM519 354q0 -72 -3.5 -123t-11 -87t-19.5 -60t-28 -41
q-21 -22 -46.5 -29.5t-56.5 -7.5t-56 7.5t-45 29.5q-17 17 -28.5 41t-19.5 60t-11.5 87t-3.5 123q0 126 15 201.5t48 110.5q20 20 45 28t56 8t56.5 -8t46.5 -28q32 -35 47 -110.5t15 -201.5zM504 845q0 21 -14.5 35.5t-34.5 14.5t-35.5 -14.5t-15.5 -35.5q0 -22 15.5 -36
t35.5 -14t34.5 14t14.5 36zM303 845q0 21 -15 35.5t-35 14.5q-21 0 -35.5 -14.5t-14.5 -35.5q0 -22 14.5 -36t35.5 -14q20 0 35 14t15 36z" />
    <glyph glyph-name="Oslash" unicode="&#xd8;" horiz-adv-x="710" 
d="M656 354q0 94 -33 171.5t-90 128.5q15 26 26 47.5l11 21.5q0 1 -2.5 3.5t-6 5t-6.5 4t-3 0.5l-5.5 -10t-12.5 -22t-12.5 -22.5t-6.5 -12.5q-72 57 -161 57q-66 0 -121 -30t-95.5 -81t-63 -118.5t-22.5 -142.5q0 -94 34 -171.5t91 -128.5l-37 -68l2.5 -2t6.5 -4.5t7.5 -4
t3.5 -0.5l5.5 10t12.5 22t12 22t5 9q35 -26 75 -40.5t84 -14.5q63 0 118 29t96 79.5t64.5 118t23.5 144.5zM486 617l-275 -501q-11 37 -16 94t-5 144q0 126 15 201.5t48 110.5q20 20 45 28t56 8t56.5 -8t46.5 -28q17 -18 29 -49zM519 354q0 -72 -3.5 -123t-11 -87t-19.5 -60
t-28 -41q-21 -22 -46.5 -29.5t-56.5 -7.5t-56 7.5t-45 29.5q-8 10 -15.5 21t-13.5 25q1 1 15 27.5t39 71.5t53.5 97.5t57.5 106.5t53 97.5t39 71l15 27.5q12 -41 17.5 -99t5.5 -135z" />
    <glyph glyph-name="Ugrave" unicode="&#xd9;" horiz-adv-x="678" 
d="M661 685q1 0 1 3v8v9t-1 4h-195q-1 0 -1.5 -4t-0.5 -9q0 -4 0.5 -7.5t1.5 -3.5h79q6 0 6 -4v-471q0 -87 -42.5 -140.5t-134.5 -53.5q-74 0 -105.5 45t-31.5 139v481q0 4 7 4h81q1 0 1 3v8v9t-1 4h-300q-1 0 -1.5 -4t-0.5 -9q0 -4 0.5 -7.5t1.5 -3.5h82q5 0 5 -4v-481
q0 -56 17.5 -97t49 -67.5t75.5 -39.5t96 -13q58 0 100.5 16t70 45.5t40.5 71.5t13 94v471q0 4 4 4h83zM469 790q-38 8 -63.5 24t-44 35.5t-31 39.5t-23.5 36.5t-21.5 27t-25.5 10.5q-17 0 -26.5 -10.5t-9.5 -25.5q0 -17 9.5 -38t36.5 -42.5t74.5 -42t123.5 -38.5
q1 0 1.5 3.5t0.5 7.5v9t-1 4z" />
    <glyph glyph-name="Uacute" unicode="&#xda;" horiz-adv-x="678" 
d="M661 685q1 0 1 3v8v9t-1 4h-195q-1 0 -1.5 -4t-0.5 -9q0 -4 0.5 -7.5t1.5 -3.5h79q6 0 6 -4v-471q0 -87 -42.5 -140.5t-134.5 -53.5q-74 0 -105.5 45t-31.5 139v481q0 4 7 4h81q1 0 1 3v8v9t-1 4h-300q-1 0 -1.5 -4t-0.5 -9q0 -4 0.5 -7.5t1.5 -3.5h82q5 0 5 -4v-481
q0 -56 17.5 -97t49 -67.5t75.5 -39.5t96 -13q58 0 100.5 16t70 45.5t40.5 71.5t13 94v471q0 4 4 4h83zM559 927q0 15 -10 25.5t-27 10.5q-15 0 -25.5 -10.5t-21 -27t-23 -36.5t-31 -39.5t-44.5 -35.5t-63 -24q-1 0 -1 -4v-9q0 -4 0.5 -7.5t1.5 -3.5q76 18 123.5 38.5
t74.5 42t36.5 42.5t9.5 38z" />
    <glyph glyph-name="Ucircumflex" unicode="&#xdb;" horiz-adv-x="678" 
d="M661 685q1 0 1 3v8v9t-1 4h-195q-1 0 -1.5 -4t-0.5 -9q0 -4 0.5 -7.5t1.5 -3.5h79q6 0 6 -4v-471q0 -87 -42.5 -140.5t-134.5 -53.5q-74 0 -105.5 45t-31.5 139v481q0 4 7 4h81q1 0 1 3v8v9t-1 4h-300q-1 0 -1.5 -4t-0.5 -9q0 -4 0.5 -7.5t1.5 -3.5h82q5 0 5 -4v-481
q0 -56 17.5 -97t49 -67.5t75.5 -39.5t96 -13q58 0 100.5 16t70 45.5t40.5 71.5t13 94v471q0 4 4 4h83zM526 780q-45 50 -79.5 90t-59.5 76q-3 2 -5 0q-24 -36 -58.5 -75.5t-79.5 -90.5q-1 -1 4.5 -7.5t6.5 -4.5l125 95l136 -95q2 -2 7 4.5t3 7.5z" />
    <glyph glyph-name="Udieresis" unicode="&#xdc;" horiz-adv-x="678" 
d="M661 685q1 0 1 3v8v9t-1 4h-195q-1 0 -1.5 -4t-0.5 -9q0 -4 0.5 -7.5t1.5 -3.5h79q6 0 6 -4v-471q0 -87 -42.5 -140.5t-134.5 -53.5q-74 0 -105.5 45t-31.5 139v481q0 4 7 4h81q1 0 1 3v8v9t-1 4h-300q-1 0 -1.5 -4t-0.5 -9q0 -4 0.5 -7.5t1.5 -3.5h82q5 0 5 -4v-481
q0 -56 17.5 -97t49 -67.5t75.5 -39.5t96 -13q58 0 100.5 16t70 45.5t40.5 71.5t13 94v471q0 4 4 4h83zM540 845q0 21 -14.5 35.5t-34.5 14.5t-35.5 -14.5t-15.5 -35.5q0 -22 15.5 -36t35.5 -14t34.5 14t14.5 36zM339 845q0 21 -15 35.5t-35 14.5q-21 0 -35.5 -14.5
t-14.5 -35.5q0 -22 14.5 -36t35.5 -14q20 0 35 14t15 36z" />
    <glyph glyph-name="germandbls" unicode="&#xdf;" horiz-adv-x="600" 
d="M545 193q0 44 -11.5 84.5t-31.5 72t-47 50.5t-59 19q-10 0 -17 0.5t-19 -1.5q62 24 90.5 59t28.5 98q0 36 -13.5 67t-38 53.5t-59 35.5t-75.5 13q-39 0 -74 -16t-61.5 -51.5t-42 -91.5t-15.5 -136v-421q0 -4 -7 -4h-57q-1 0 -1.5 -4t-0.5 -9q0 -4 0.5 -7.5t1.5 -3.5h231
q1 0 1.5 3.5t0.5 7.5q0 5 -0.5 9t-1.5 4h-55q-8 0 -8 4v563q0 59 25.5 94t63.5 35q53 0 72 -36t19 -107q0 -42 -5 -68.5t-16.5 -44t-30 -30.5t-45.5 -28l1.5 -3.5t3.5 -7.5t4.5 -6.5t4.5 -2.5q9 7 19 9.5t19 2.5q27 0 47 -10.5t32.5 -35.5t18.5 -66.5t6 -102.5t-3.5 -95
t-11 -50t-18.5 -19.5t-27 -3.5q-22 0 -37 11.5t-15 40.5q0 14 5 21.5t5 18.5q0 16 -10.5 24t-25.5 8q-14 0 -23.5 -11t-9.5 -30q0 -20 8 -39t22.5 -34t35 -24.5t45.5 -9.5t53.5 11.5t52.5 36.5t40 63t16 91z" />
    <glyph glyph-name="agrave" unicode="&#xe0;" horiz-adv-x="461" 
d="M456 31q0 1 -2 3.5t-4.5 5t-5 4.5t-2.5 1q-2 -8 -10 -14t-21 -6q-9 0 -15 8t-6 27v195q0 94 -45.5 137.5t-125.5 43.5q-30 0 -55 -8t-43 -20.5t-28 -27.5t-10 -29q0 -17 10.5 -32.5t35.5 -15.5q26 0 37 11.5t11 26.5q0 13 -4.5 20t-4.5 21q0 22 14 26t37 4q14 0 26 -1.5
t21 -9.5t14.5 -24.5t5.5 -46.5v-76q0 -8 -9 -13t-24 -8t-34.5 -5t-40.5 -4q-15 -2 -39 -7t-46.5 -18.5t-38.5 -38t-16 -63.5q0 -30 13 -50t33.5 -32t46.5 -17.5t52 -5.5q42 0 68 21.5t37 50.5q3 -15 11.5 -28t21 -22.5t27.5 -15.5t32 -6q29 0 50 12.5t26 26.5zM286 136
q0 -22 -6 -42.5t-17 -37t-26.5 -26.5t-35.5 -10q-19 0 -31 6t-18.5 16.5t-8.5 24.5t-2 30q0 34 4 54t11 30t17.5 13.5t24.5 6.5q22 4 46 6.5t42 13.5v-85zM329 535q-38 8 -63.5 24t-44 35.5t-31 39.5t-23.5 36.5t-21.5 27t-25.5 10.5q-17 0 -26.5 -10.5t-9.5 -25.5
q0 -17 9.5 -38t36.5 -42.5t74.5 -42t123.5 -38.5q1 0 1.5 3.5t0.5 7.5v9t-1 4z" />
    <glyph glyph-name="aacute" unicode="&#xe1;" horiz-adv-x="461" 
d="M456 31q0 1 -2 3.5t-4.5 5t-5 4.5t-2.5 1q-2 -8 -10 -14t-21 -6q-9 0 -15 8t-6 27v195q0 94 -45.5 137.5t-125.5 43.5q-30 0 -55 -8t-43 -20.5t-28 -27.5t-10 -29q0 -17 10.5 -32.5t35.5 -15.5q26 0 37 11.5t11 26.5q0 13 -4.5 20t-4.5 21q0 22 14 26t37 4q14 0 26 -1.5
t21 -9.5t14.5 -24.5t5.5 -46.5v-76q0 -8 -9 -13t-24 -8t-34.5 -5t-40.5 -4q-15 -2 -39 -7t-46.5 -18.5t-38.5 -38t-16 -63.5q0 -30 13 -50t33.5 -32t46.5 -17.5t52 -5.5q42 0 68 21.5t37 50.5q3 -15 11.5 -28t21 -22.5t27.5 -15.5t32 -6q29 0 50 12.5t26 26.5zM286 136
q0 -22 -6 -42.5t-17 -37t-26.5 -26.5t-35.5 -10q-19 0 -31 6t-18.5 16.5t-8.5 24.5t-2 30q0 34 4 54t11 30t17.5 13.5t24.5 6.5q22 4 46 6.5t42 13.5v-85zM395 672q0 15 -10 25.5t-27 10.5q-15 0 -25.5 -10.5t-21 -27t-23 -36.5t-31 -39.5t-44.5 -35.5t-63 -24q-1 0 -1 -4
v-9q0 -4 0.5 -7.5t1.5 -3.5q76 18 123.5 38.5t74.5 42t36.5 42.5t9.5 38z" />
    <glyph glyph-name="acircumflex" unicode="&#xe2;" horiz-adv-x="461" 
d="M456 31q0 1 -2 3.5t-4.5 5t-5 4.5t-2.5 1q-2 -8 -10 -14t-21 -6q-9 0 -15 8t-6 27v195q0 94 -45.5 137.5t-125.5 43.5q-30 0 -55 -8t-43 -20.5t-28 -27.5t-10 -29q0 -17 10.5 -32.5t35.5 -15.5q26 0 37 11.5t11 26.5q0 13 -4.5 20t-4.5 21q0 22 14 26t37 4q14 0 26 -1.5
t21 -9.5t14.5 -24.5t5.5 -46.5v-76q0 -8 -9 -13t-24 -8t-34.5 -5t-40.5 -4q-15 -2 -39 -7t-46.5 -18.5t-38.5 -38t-16 -63.5q0 -30 13 -50t33.5 -32t46.5 -17.5t52 -5.5q42 0 68 21.5t37 50.5q3 -15 11.5 -28t21 -22.5t27.5 -15.5t32 -6q29 0 50 12.5t26 26.5zM286 136
q0 -22 -6 -42.5t-17 -37t-26.5 -26.5t-35.5 -10q-19 0 -31 6t-18.5 16.5t-8.5 24.5t-2 30q0 34 4 54t11 30t17.5 13.5t24.5 6.5q22 4 46 6.5t42 13.5v-85zM375 525q-45 50 -79.5 90t-59.5 76q-3 2 -5 0q-24 -36 -58.5 -75.5t-79.5 -90.5q-1 -1 4.5 -7.5t6.5 -4.5l125 95
l136 -95q2 -2 7 4.5t3 7.5z" />
    <glyph glyph-name="atilde" unicode="&#xe3;" horiz-adv-x="461" 
d="M456 31q0 1 -2 3.5t-4.5 5t-5 4.5t-2.5 1q-2 -8 -10 -14t-21 -6q-9 0 -15 8t-6 27v195q0 94 -45.5 137.5t-125.5 43.5q-30 0 -55 -8t-43 -20.5t-28 -27.5t-10 -29q0 -17 10.5 -32.5t35.5 -15.5q26 0 37 11.5t11 26.5q0 13 -4.5 20t-4.5 21q0 22 14 26t37 4q14 0 26 -1.5
t21 -9.5t14.5 -24.5t5.5 -46.5v-76q0 -8 -9 -13t-24 -8t-34.5 -5t-40.5 -4q-15 -2 -39 -7t-46.5 -18.5t-38.5 -38t-16 -63.5q0 -30 13 -50t33.5 -32t46.5 -17.5t52 -5.5q42 0 68 21.5t37 50.5q3 -15 11.5 -28t21 -22.5t27.5 -15.5t32 -6q29 0 50 12.5t26 26.5zM286 136
q0 -22 -6 -42.5t-17 -37t-26.5 -26.5t-35.5 -10q-19 0 -31 6t-18.5 16.5t-8.5 24.5t-2 30q0 34 4 54t11 30t17.5 13.5t24.5 6.5q22 4 46 6.5t42 13.5v-85zM413 663q0 1 -4 1h-7h-8q-3 0 -3 -1q0 -26 -9.5 -37.5t-33.5 -11.5q-17 0 -35.5 6.5t-38.5 14.5t-43 14.5t-48 6.5
t-46.5 -8.5t-37.5 -24t-25.5 -36t-9.5 -44.5q0 -1 3.5 -1.5t7.5 -0.5q5 0 9 0.5t4 1.5q0 26 8.5 37t31.5 11q17 0 35.5 -6.5t39.5 -14.5t44 -14.5t49 -6.5q24 0 45 9t37 24t25.5 36t9.5 45z" />
    <glyph glyph-name="adieresis" unicode="&#xe4;" horiz-adv-x="461" 
d="M456 31q0 1 -2 3.5t-4.5 5t-5 4.5t-2.5 1q-2 -8 -10 -14t-21 -6q-9 0 -15 8t-6 27v195q0 94 -45.5 137.5t-125.5 43.5q-30 0 -55 -8t-43 -20.5t-28 -27.5t-10 -29q0 -17 10.5 -32.5t35.5 -15.5q26 0 37 11.5t11 26.5q0 13 -4.5 20t-4.5 21q0 22 14 26t37 4q14 0 26 -1.5
t21 -9.5t14.5 -24.5t5.5 -46.5v-76q0 -8 -9 -13t-24 -8t-34.5 -5t-40.5 -4q-15 -2 -39 -7t-46.5 -18.5t-38.5 -38t-16 -63.5q0 -30 13 -50t33.5 -32t46.5 -17.5t52 -5.5q42 0 68 21.5t37 50.5q3 -15 11.5 -28t21 -22.5t27.5 -15.5t32 -6q29 0 50 12.5t26 26.5zM286 136
q0 -22 -6 -42.5t-17 -37t-26.5 -26.5t-35.5 -10q-19 0 -31 6t-18.5 16.5t-8.5 24.5t-2 30q0 34 4 54t11 30t17.5 13.5t24.5 6.5q22 4 46 6.5t42 13.5v-85zM380 590q0 21 -14.5 35.5t-34.5 14.5t-35.5 -14.5t-15.5 -35.5q0 -22 15.5 -36t35.5 -14t34.5 14t14.5 36zM179 590
q0 21 -15 35.5t-35 14.5q-21 0 -35.5 -14.5t-14.5 -35.5q0 -22 14.5 -36t35.5 -14q20 0 35 14t15 36z" />
    <glyph glyph-name="aring" unicode="&#xe5;" horiz-adv-x="461" 
d="M456 31q0 1 -2 3.5t-4.5 5t-5 4.5t-2.5 1q-2 -8 -10 -14t-21 -6q-9 0 -15 8t-6 27v195q0 94 -45.5 137.5t-125.5 43.5q-30 0 -55 -8t-43 -20.5t-28 -27.5t-10 -29q0 -17 10.5 -32.5t35.5 -15.5q26 0 37 11.5t11 26.5q0 13 -4.5 20t-4.5 21q0 22 14 26t37 4q14 0 26 -1.5
t21 -9.5t14.5 -24.5t5.5 -46.5v-76q0 -8 -9 -13t-24 -8t-34.5 -5t-40.5 -4q-15 -2 -39 -7t-46.5 -18.5t-38.5 -38t-16 -63.5q0 -30 13 -50t33.5 -32t46.5 -17.5t52 -5.5q42 0 68 21.5t37 50.5q3 -15 11.5 -28t21 -22.5t27.5 -15.5t32 -6q29 0 50 12.5t26 26.5zM286 136
q0 -22 -6 -42.5t-17 -37t-26.5 -26.5t-35.5 -10q-19 0 -31 6t-18.5 16.5t-8.5 24.5t-2 30q0 34 4 54t11 30t17.5 13.5t24.5 6.5q22 4 46 6.5t42 13.5v-85zM313 608q0 32 -23 54.5t-57 22.5q-16 0 -30.5 -6t-25 -16.5t-17 -24.5t-6.5 -30t6.5 -30t17 -24.5t25 -16.5t30.5 -6
q34 0 57 22.5t23 54.5zM289 608q0 -22 -16.5 -37.5t-39.5 -15.5q-22 0 -38.5 15.5t-16.5 37.5t16.5 37.5t38.5 15.5q23 0 39.5 -15.5t16.5 -37.5z" />
    <glyph glyph-name="ae" unicode="&#xe6;" horiz-adv-x="725" 
d="M688 238q0 25 -11.5 59t-34.5 65t-58.5 52t-83.5 21q-43 0 -80.5 -16t-67.5 -42q-45 58 -135 58q-30 0 -55 -8t-42.5 -20.5t-27 -27.5t-9.5 -29q0 -17 10.5 -32t35.5 -15t36.5 11t11.5 26q0 13 -4.5 20.5t-4.5 21.5q0 21 13 25t36 4q14 0 25.5 -1.5t20 -9.5t13 -24.5
t4.5 -46.5v-76q0 -16 -30.5 -21t-73.5 -9q-15 -2 -38.5 -7t-45.5 -18.5t-38 -38t-16 -63.5q0 -30 13 -50t33.5 -32t46 -17.5t50.5 -5.5q19 0 38 7t35.5 19.5t28 31.5t15.5 43q10 -21 29 -39.5t45 -32t58.5 -21.5t69.5 -8q54 0 102 26t77 69q1 2 -6 8t-8 5q-26 -37 -68 -60.5
t-97 -23.5q-20 0 -37 4t-31 17q-11 10 -18.5 23.5t-12.5 34t-7 49.5t-2 70v22h293q3 0 3 3zM589 259h-197q1 30 3.5 51t7.5 36t12 25t17 19q14 13 31 17t37 4q17 0 31 -4t25 -17q9 -9 15 -19t10.5 -25t6 -36t1.5 -51zM280 128q0 -20 -4.5 -39.5t-14.5 -35t-25 -25t-36 -9.5
q-19 0 -31 6t-18.5 16.5t-9 24.5t-2.5 30q0 34 4 54t11.5 30t18 13.5t23.5 6.5q23 4 45 6.5t39 13.5v-92z" />
    <glyph glyph-name="ccedilla" unicode="&#xe7;" horiz-adv-x="460" 
d="M437 86q2 2 -3 8t-6 5q-26 -37 -69 -60.5t-99 -23.5q-20 0 -36 4t-30 17q-11 10 -18.5 23.5t-12 34t-7 49.5t-2.5 70t2.5 70t7 49.5t12 34t18.5 23.5q14 13 30 17t36 4q39 0 59 -11t20 -40q0 -12 -2 -18t-4 -11t-4 -10.5t-2 -15.5q0 -15 12 -26.5t34 -11.5q20 0 33 11.5
t13 34.5q0 19 -11.5 40.5t-32.5 39.5t-50 30t-65 12q-44 0 -83.5 -17.5t-68.5 -47.5t-46 -70.5t-17 -86.5q0 -44 15.5 -82.5t42.5 -68t63 -48.5t78 -22q-6 -12 -12 -29t-6 -32q0 -26 10.5 -39t22.5 -20.5t22.5 -14.5t10.5 -20q0 -15 -10.5 -24t-34.5 -9q-44 0 -44 19
q0 8 5 11t5 16q0 10 -6 15t-15 5q-12 0 -18.5 -7.5t-6.5 -18.5q0 -24 19 -44t61 -20q37 0 56 22t19 56q0 28 -10 40t-22.5 19.5t-22.5 16t-10 31.5q0 5 3 13t6 13q51 2 96.5 27.5t74.5 67.5z" />
    <glyph glyph-name="egrave" unicode="&#xe8;" horiz-adv-x="486" 
d="M450 238q0 25 -11.5 59t-34.5 65t-59 52t-84 21q-45 0 -84.5 -17.5t-69 -47.5t-46.5 -70.5t-17 -86.5t17 -86.5t46.5 -70.5t69 -47.5t84.5 -17.5q55 0 102.5 26.5t76.5 69.5q1 2 -5.5 7.5t-7.5 4.5q-26 -37 -68.5 -60.5t-97.5 -23.5q-20 0 -36.5 4t-30.5 17
q-11 10 -19 23.5t-12.5 34t-6.5 49.5t-2 70v22h293q3 0 3 3zM351 259h-197q1 30 3.5 51t7.5 36t12 25t17 19q14 13 30.5 17t36.5 4q17 0 31 -4t25 -17q9 -9 15 -19t10 -25t6.5 -36t2.5 -51zM353 535q-38 8 -63.5 24t-44 35.5t-31 39.5t-23.5 36.5t-21.5 27t-25.5 10.5
q-17 0 -26.5 -10.5t-9.5 -25.5q0 -17 9.5 -38t36.5 -42.5t74.5 -42t123.5 -38.5q1 0 1.5 3.5t0.5 7.5v9t-1 4z" />
    <glyph glyph-name="eacute" unicode="&#xe9;" horiz-adv-x="486" 
d="M450 238q0 25 -11.5 59t-34.5 65t-59 52t-84 21q-45 0 -84.5 -17.5t-69 -47.5t-46.5 -70.5t-17 -86.5t17 -86.5t46.5 -70.5t69 -47.5t84.5 -17.5q55 0 102.5 26.5t76.5 69.5q1 2 -5.5 7.5t-7.5 4.5q-26 -37 -68.5 -60.5t-97.5 -23.5q-20 0 -36.5 4t-30.5 17
q-11 10 -19 23.5t-12.5 34t-6.5 49.5t-2 70v22h293q3 0 3 3zM351 259h-197q1 30 3.5 51t7.5 36t12 25t17 19q14 13 30.5 17t36.5 4q17 0 31 -4t25 -17q9 -9 15 -19t10 -25t6.5 -36t2.5 -51zM427 672q0 15 -10 25.5t-27 10.5q-15 0 -25.5 -10.5t-21 -27t-23 -36.5t-31 -39.5
t-44.5 -35.5t-63 -24q-1 0 -1 -4v-9q0 -4 0.5 -7.5t1.5 -3.5q76 18 123.5 38.5t74.5 42t36.5 42.5t9.5 38z" />
    <glyph glyph-name="ecircumflex" unicode="&#xea;" horiz-adv-x="486" 
d="M450 238q0 25 -11.5 59t-34.5 65t-59 52t-84 21q-45 0 -84.5 -17.5t-69 -47.5t-46.5 -70.5t-17 -86.5t17 -86.5t46.5 -70.5t69 -47.5t84.5 -17.5q55 0 102.5 26.5t76.5 69.5q1 2 -5.5 7.5t-7.5 4.5q-26 -37 -68.5 -60.5t-97.5 -23.5q-20 0 -36.5 4t-30.5 17
q-11 10 -19 23.5t-12.5 34t-6.5 49.5t-2 70v22h293q3 0 3 3zM351 259h-197q1 30 3.5 51t7.5 36t12 25t17 19q14 13 30.5 17t36.5 4q17 0 31 -4t25 -17q9 -9 15 -19t10 -25t6.5 -36t2.5 -51zM393 525q-45 50 -79.5 90t-59.5 76q-3 2 -5 0q-24 -36 -58.5 -75.5t-79.5 -90.5
q-1 -1 4.5 -7.5t6.5 -4.5l125 95l136 -95q2 -2 7 4.5t3 7.5z" />
    <glyph glyph-name="edieresis" unicode="&#xeb;" horiz-adv-x="486" 
d="M450 238q0 25 -11.5 59t-34.5 65t-59 52t-84 21q-45 0 -84.5 -17.5t-69 -47.5t-46.5 -70.5t-17 -86.5t17 -86.5t46.5 -70.5t69 -47.5t84.5 -17.5q55 0 102.5 26.5t76.5 69.5q1 2 -5.5 7.5t-7.5 4.5q-26 -37 -68.5 -60.5t-97.5 -23.5q-20 0 -36.5 4t-30.5 17
q-11 10 -19 23.5t-12.5 34t-6.5 49.5t-2 70v22h293q3 0 3 3zM351 259h-197q1 30 3.5 51t7.5 36t12 25t17 19q14 13 30.5 17t36.5 4q17 0 31 -4t25 -17q9 -9 15 -19t10 -25t6.5 -36t2.5 -51zM405 590q0 21 -14.5 35.5t-34.5 14.5t-35.5 -14.5t-15.5 -35.5q0 -22 15.5 -36
t35.5 -14t34.5 14t14.5 36zM204 590q0 21 -15 35.5t-35 14.5q-21 0 -35.5 -14.5t-14.5 -35.5q0 -22 14.5 -36t35.5 -14q20 0 35 14t15 36z" />
    <glyph glyph-name="igrave" unicode="&#xec;" horiz-adv-x="303" 
d="M273 0q1 0 1 3v8v9t-1 4h-58q-6 0 -6 4v395q0 3 -4 3h-165q-1 0 -1.5 -4t-0.5 -9q0 -4 0.5 -7.5t1.5 -3.5h58q7 0 7 -4v-370q0 -4 -7 -4h-58q-1 0 -1.5 -4t-0.5 -9q0 -4 0.5 -7.5t1.5 -3.5h233zM212 535q-38 8 -63.5 24t-44 35.5t-31 39.5t-23.5 36.5t-21.5 27
t-25.5 10.5q-17 0 -26.5 -10.5t-9.5 -25.5q0 -17 9.5 -38t36.5 -42.5t74.5 -42t123.5 -38.5q1 0 1.5 3.5t0.5 7.5v9t-1 4z" />
    <glyph glyph-name="iacute" unicode="&#xed;" horiz-adv-x="303" 
d="M273 0q1 0 1 3v8v9t-1 4h-58q-6 0 -6 4v395q0 3 -4 3h-165q-1 0 -1.5 -4t-0.5 -9q0 -4 0.5 -7.5t1.5 -3.5h58q7 0 7 -4v-370q0 -4 -7 -4h-58q-1 0 -1.5 -4t-0.5 -9q0 -4 0.5 -7.5t1.5 -3.5h233zM306 672q0 15 -10 25.5t-27 10.5q-15 0 -25.5 -10.5t-21 -27t-23 -36.5
t-31 -39.5t-44.5 -35.5t-63 -24q-1 0 -1 -4v-9q0 -4 0.5 -7.5t1.5 -3.5q76 18 123.5 38.5t74.5 42t36.5 42.5t9.5 38z" />
    <glyph glyph-name="icircumflex" unicode="&#xee;" horiz-adv-x="303" 
d="M273 0q1 0 1 3v8v9t-1 4h-58q-6 0 -6 4v395q0 3 -4 3h-165q-1 0 -1.5 -4t-0.5 -9q0 -4 0.5 -7.5t1.5 -3.5h58q7 0 7 -4v-370q0 -4 -7 -4h-58q-1 0 -1.5 -4t-0.5 -9q0 -4 0.5 -7.5t1.5 -3.5h233zM285 525q-45 50 -79.5 90t-59.5 76q-3 2 -5 0q-24 -36 -58.5 -75.5
t-79.5 -90.5q-1 -1 4.5 -7.5t6.5 -4.5l125 95l136 -95q2 -2 7 4.5t3 7.5z" />
    <glyph glyph-name="idieresis" unicode="&#xef;" horiz-adv-x="303" 
d="M273 0q1 0 1 3v8v9t-1 4h-58q-6 0 -6 4v395q0 3 -4 3h-165q-1 0 -1.5 -4t-0.5 -9q0 -4 0.5 -7.5t1.5 -3.5h58q7 0 7 -4v-370q0 -4 -7 -4h-58q-1 0 -1.5 -4t-0.5 -9q0 -4 0.5 -7.5t1.5 -3.5h233zM297 590q0 21 -14.5 35.5t-34.5 14.5t-35.5 -14.5t-15.5 -35.5
q0 -22 15.5 -36t35.5 -14t34.5 14t14.5 36zM96 590q0 21 -15 35.5t-35 14.5q-21 0 -35.5 -14.5t-14.5 -35.5q0 -22 14.5 -36t35.5 -14q20 0 35 14t15 36z" />
    <glyph glyph-name="ntilde" unicode="&#xf1;" horiz-adv-x="571" 
d="M554 0q1 0 1.5 3.5t0.5 7.5q0 5 -0.5 9t-1.5 4h-56q-6 0 -6 4v240q0 80 -45.5 123.5t-125.5 43.5q-35 0 -69.5 -18t-48.5 -60v66q0 3 -3 3h-165q-1 0 -1.5 -4t-0.5 -9q0 -4 0.5 -7.5t1.5 -3.5h57q8 0 8 -4v-370q0 -4 -8 -4h-57q-1 0 -1.5 -4t-0.5 -9q0 -4 0.5 -7.5
t1.5 -3.5h232q1 0 1 3v8v9t-1 4h-57q-7 0 -7 4v280q19 57 46 80t72 23q27 0 46 -24.5t19 -77.5v-281q0 -4 -5 -4h-56q-1 0 -1.5 -4t-0.5 -9q0 -4 0.5 -7.5t1.5 -3.5h229zM464 663q0 1 -4 1h-7h-8q-3 0 -3 -1q0 -26 -9.5 -37.5t-33.5 -11.5q-17 0 -35.5 6.5t-38.5 14.5
t-43 14.5t-48 6.5t-46.5 -8.5t-37.5 -24t-25.5 -36t-9.5 -44.5q0 -1 3.5 -1.5t7.5 -0.5q5 0 9 0.5t4 1.5q0 26 8.5 37t31.5 11q17 0 35.5 -6.5t39.5 -14.5t44 -14.5t49 -6.5q24 0 45 9t37 24t25.5 36t9.5 45z" />
    <glyph glyph-name="ograve" unicode="&#xf2;" horiz-adv-x="520" 
d="M476 213q0 46 -17 86.5t-46.5 70.5t-69 47.5t-84.5 17.5q-44 0 -83 -17.5t-68.5 -47.5t-46.5 -70.5t-17 -86.5t17 -86.5t46.5 -70.5t68.5 -47.5t83 -17.5q45 0 84.5 17.5t69 47.5t46.5 70.5t17 86.5zM367 213q0 -41 -2.5 -70t-7.5 -49.5t-12.5 -34t-18.5 -23.5
q-13 -13 -29.5 -17t-37.5 -4q-19 0 -35.5 4t-30.5 17q-11 10 -18.5 23.5t-12.5 34t-7.5 49.5t-2.5 70q0 72 10 114.5t31 62.5q14 13 30.5 17t35.5 4q21 0 37.5 -4t29.5 -17q22 -20 31.5 -62.5t9.5 -114.5zM349 535q-38 8 -63.5 24t-44 35.5t-31 39.5t-23.5 36.5t-21.5 27
t-25.5 10.5q-17 0 -26.5 -10.5t-9.5 -25.5q0 -17 9.5 -38t36.5 -42.5t74.5 -42t123.5 -38.5q1 0 1.5 3.5t0.5 7.5v9t-1 4z" />
    <glyph glyph-name="oacute" unicode="&#xf3;" horiz-adv-x="520" 
d="M476 213q0 46 -17 86.5t-46.5 70.5t-69 47.5t-84.5 17.5q-44 0 -83 -17.5t-68.5 -47.5t-46.5 -70.5t-17 -86.5t17 -86.5t46.5 -70.5t68.5 -47.5t83 -17.5q45 0 84.5 17.5t69 47.5t46.5 70.5t17 86.5zM367 213q0 -41 -2.5 -70t-7.5 -49.5t-12.5 -34t-18.5 -23.5
q-13 -13 -29.5 -17t-37.5 -4q-19 0 -35.5 4t-30.5 17q-11 10 -18.5 23.5t-12.5 34t-7.5 49.5t-2.5 70q0 72 10 114.5t31 62.5q14 13 30.5 17t35.5 4q21 0 37.5 -4t29.5 -17q22 -20 31.5 -62.5t9.5 -114.5zM424 672q0 15 -10 25.5t-27 10.5q-15 0 -25.5 -10.5t-21 -27
t-23 -36.5t-31 -39.5t-44.5 -35.5t-63 -24q-1 0 -1 -4v-9q0 -4 0.5 -7.5t1.5 -3.5q76 18 123.5 38.5t74.5 42t36.5 42.5t9.5 38z" />
    <glyph glyph-name="ocircumflex" unicode="&#xf4;" horiz-adv-x="520" 
d="M476 213q0 46 -17 86.5t-46.5 70.5t-69 47.5t-84.5 17.5q-44 0 -83 -17.5t-68.5 -47.5t-46.5 -70.5t-17 -86.5t17 -86.5t46.5 -70.5t68.5 -47.5t83 -17.5q45 0 84.5 17.5t69 47.5t46.5 70.5t17 86.5zM367 213q0 -41 -2.5 -70t-7.5 -49.5t-12.5 -34t-18.5 -23.5
q-13 -13 -29.5 -17t-37.5 -4q-19 0 -35.5 4t-30.5 17q-11 10 -18.5 23.5t-12.5 34t-7.5 49.5t-2.5 70q0 72 10 114.5t31 62.5q14 13 30.5 17t35.5 4q21 0 37.5 -4t29.5 -17q22 -20 31.5 -62.5t9.5 -114.5zM405 525q-45 50 -79.5 90t-59.5 76q-3 2 -5 0q-24 -36 -58.5 -75.5
t-79.5 -90.5q-1 -1 4.5 -7.5t6.5 -4.5l125 95l136 -95q2 -2 7 4.5t3 7.5z" />
    <glyph glyph-name="otilde" unicode="&#xf5;" horiz-adv-x="520" 
d="M476 213q0 46 -17 86.5t-46.5 70.5t-69 47.5t-84.5 17.5q-44 0 -83 -17.5t-68.5 -47.5t-46.5 -70.5t-17 -86.5t17 -86.5t46.5 -70.5t68.5 -47.5t83 -17.5q45 0 84.5 17.5t69 47.5t46.5 70.5t17 86.5zM367 213q0 -41 -2.5 -70t-7.5 -49.5t-12.5 -34t-18.5 -23.5
q-13 -13 -29.5 -17t-37.5 -4q-19 0 -35.5 4t-30.5 17q-11 10 -18.5 23.5t-12.5 34t-7.5 49.5t-2.5 70q0 72 10 114.5t31 62.5q14 13 30.5 17t35.5 4q21 0 37.5 -4t29.5 -17q22 -20 31.5 -62.5t9.5 -114.5zM439 663q0 1 -4 1h-7h-8q-3 0 -3 -1q0 -26 -9.5 -37.5t-33.5 -11.5
q-17 0 -35.5 6.5t-38.5 14.5t-43 14.5t-48 6.5t-46.5 -8.5t-37.5 -24t-25.5 -36t-9.5 -44.5q0 -1 3.5 -1.5t7.5 -0.5q5 0 9 0.5t4 1.5q0 26 8.5 37t31.5 11q17 0 35.5 -6.5t39.5 -14.5t44 -14.5t49 -6.5q24 0 45 9t37 24t25.5 36t9.5 45z" />
    <glyph glyph-name="odieresis" unicode="&#xf6;" horiz-adv-x="520" 
d="M476 213q0 46 -17 86.5t-46.5 70.5t-69 47.5t-84.5 17.5q-44 0 -83 -17.5t-68.5 -47.5t-46.5 -70.5t-17 -86.5t17 -86.5t46.5 -70.5t68.5 -47.5t83 -17.5q45 0 84.5 17.5t69 47.5t46.5 70.5t17 86.5zM367 213q0 -41 -2.5 -70t-7.5 -49.5t-12.5 -34t-18.5 -23.5
q-13 -13 -29.5 -17t-37.5 -4q-19 0 -35.5 4t-30.5 17q-11 10 -18.5 23.5t-12.5 34t-7.5 49.5t-2.5 70q0 72 10 114.5t31 62.5q14 13 30.5 17t35.5 4q21 0 37.5 -4t29.5 -17q22 -20 31.5 -62.5t9.5 -114.5zM411 590q0 21 -14.5 35.5t-34.5 14.5t-35.5 -14.5t-15.5 -35.5
q0 -22 15.5 -36t35.5 -14t34.5 14t14.5 36zM210 590q0 21 -15 35.5t-35 14.5q-21 0 -35.5 -14.5t-14.5 -35.5q0 -22 14.5 -36t35.5 -14q20 0 35 14t15 36z" />
    <glyph glyph-name="oslash" unicode="&#xf8;" horiz-adv-x="531" 
d="M482 213q0 55 -24 102t-65 78q-2 -2 2.5 5t10.5 17t11.5 18.5l5.5 8.5q0 1 -2.5 3.5t-6 5t-7 4.5t-3.5 1q-1 -2 -9 -14.5t-16 -25.5t-7 -10q-47 29 -108 29q-44 0 -83 -17.5t-68.5 -47.5t-46.5 -70.5t-17 -86.5q0 -55 24 -102t65 -78l-31 -50l2.5 -2t6.5 -4.5t7.5 -4
t3.5 -0.5l5.5 8.5t11.5 18t10.5 16.5t3.5 5q25 -14 51 -21.5t55 -7.5q45 0 84.5 17.5t69.5 47.5t47 70.5t17 86.5zM348 369l-13 -21.5t-33 -53t-43 -68.5t-43 -69t-33 -53l-13 -21q-6 22 -9 53t-3 77q0 140 40 177q14 13 30.5 17t35.5 4q21 0 37.5 -4t29.5 -17
q12 -12 17 -21zM373 213q0 -41 -2.5 -70t-7.5 -49.5t-13 -34t-19 -23.5q-13 -13 -29.5 -17t-37.5 -4q-19 0 -35.5 4t-30.5 17q-5 5 -9.5 10.5t-8.5 10.5l13.5 21t33 52.5t43 68.5t43 68.5t33 53l13.5 21.5q14 -47 14 -129z" />
    <glyph glyph-name="ugrave" unicode="&#xf9;" horiz-adv-x="561" 
d="M540 0q1 0 1 3v8v9t-1 4h-56q-7 0 -7 4v395q0 3 -3 3h-164q-2 0 -2.5 -4t-0.5 -9q0 -4 0.5 -7.5t2.5 -3.5h55q8 0 8 -4v-280q-18 -57 -45 -80.5t-74 -23.5q-26 0 -45.5 24.5t-19.5 78.5v306q0 3 -3 3h-166l-0.5 -4t-0.5 -9q0 -4 0.5 -7.5l0.5 -3.5h57q8 0 8 -4v-247
q0 -80 45.5 -120t123.5 -40q36 0 70.5 18t48.5 60v-66q0 -3 3 -3h164zM346 535q-38 8 -63.5 24t-44 35.5t-31 39.5t-23.5 36.5t-21.5 27t-25.5 10.5q-17 0 -26.5 -10.5t-9.5 -25.5q0 -17 9.5 -38t36.5 -42.5t74.5 -42t123.5 -38.5q1 0 1.5 3.5t0.5 7.5v9t-1 4z" />
    <glyph glyph-name="uacute" unicode="&#xfa;" horiz-adv-x="561" 
d="M540 0q1 0 1 3v8v9t-1 4h-56q-7 0 -7 4v395q0 3 -3 3h-164q-2 0 -2.5 -4t-0.5 -9q0 -4 0.5 -7.5t2.5 -3.5h55q8 0 8 -4v-280q-18 -57 -45 -80.5t-74 -23.5q-26 0 -45.5 24.5t-19.5 78.5v306q0 3 -3 3h-166l-0.5 -4t-0.5 -9q0 -4 0.5 -7.5l0.5 -3.5h57q8 0 8 -4v-247
q0 -80 45.5 -120t123.5 -40q36 0 70.5 18t48.5 60v-66q0 -3 3 -3h164zM414 672q0 15 -10 25.5t-27 10.5q-15 0 -25.5 -10.5t-21 -27t-23 -36.5t-31 -39.5t-44.5 -35.5t-63 -24q-1 0 -1 -4v-9q0 -4 0.5 -7.5t1.5 -3.5q76 18 123.5 38.5t74.5 42t36.5 42.5t9.5 38z" />
    <glyph glyph-name="ucircumflex" unicode="&#xfb;" horiz-adv-x="561" 
d="M540 0q1 0 1 3v8v9t-1 4h-56q-7 0 -7 4v395q0 3 -3 3h-164q-2 0 -2.5 -4t-0.5 -9q0 -4 0.5 -7.5t2.5 -3.5h55q8 0 8 -4v-280q-18 -57 -45 -80.5t-74 -23.5q-26 0 -45.5 24.5t-19.5 78.5v306q0 3 -3 3h-166l-0.5 -4t-0.5 -9q0 -4 0.5 -7.5l0.5 -3.5h57q8 0 8 -4v-247
q0 -80 45.5 -120t123.5 -40q36 0 70.5 18t48.5 60v-66q0 -3 3 -3h164zM417 525q-45 50 -79.5 90t-59.5 76q-3 2 -5 0q-24 -36 -58.5 -75.5t-79.5 -90.5q-1 -1 4.5 -7.5t6.5 -4.5l125 95l136 -95q2 -2 7 4.5t3 7.5z" />
    <glyph glyph-name="udieresis" unicode="&#xfc;" horiz-adv-x="561" 
d="M540 0q1 0 1 3v8v9t-1 4h-56q-7 0 -7 4v395q0 3 -3 3h-164q-2 0 -2.5 -4t-0.5 -9q0 -4 0.5 -7.5t2.5 -3.5h55q8 0 8 -4v-280q-18 -57 -45 -80.5t-74 -23.5q-26 0 -45.5 24.5t-19.5 78.5v306q0 3 -3 3h-166l-0.5 -4t-0.5 -9q0 -4 0.5 -7.5l0.5 -3.5h57q8 0 8 -4v-247
q0 -80 45.5 -120t123.5 -40q36 0 70.5 18t48.5 60v-66q0 -3 3 -3h164zM418 590q0 21 -14.5 35.5t-34.5 14.5t-35.5 -14.5t-15.5 -35.5q0 -22 15.5 -36t35.5 -14t34.5 14t14.5 36zM217 590q0 21 -15 35.5t-35 14.5q-21 0 -35.5 -14.5t-14.5 -35.5q0 -22 14.5 -36t35.5 -14
q20 0 35 14t15 36z" />
    <glyph glyph-name="ydieresis" unicode="&#xff;" horiz-adv-x="454" 
d="M489 403q1 0 2 3.5t1 7.5q0 5 -1 8.5t-2 3.5h-159q-1 0 -1.5 -3.5t-0.5 -8.5q0 -4 0.5 -7.5t1.5 -3.5h58q5 0 4.5 -6.5t-11.5 -35.5l-96 -251l-124 289q-2 4 4 4h63q2 0 3 3.5t1 7.5q0 5 -1 8.5t-3 3.5h-248q-1 0 -1.5 -3.5t-0.5 -8.5q0 -4 0.5 -7.5t1.5 -3.5h57
q5 0 6 -1t2 -3l195 -409l-87 -228q-8 -20 -16.5 -30.5t-17 -15.5t-15.5 -6t-13 -1q-10 0 -12.5 7t-2.5 15t3.5 14t7.5 12t7.5 12.5t3.5 15.5q0 16 -11.5 28t-33.5 12q-23 0 -38 -17.5t-15 -43.5q0 -15 5.5 -29.5t15.5 -26t24 -18.5t30 -7q31 0 57 18t43 63l228 597
q10 28 14.5 35t11.5 7h60zM412 590q0 21 -14.5 35.5t-34.5 14.5t-35.5 -14.5t-15.5 -35.5q0 -22 15.5 -36t35.5 -14t34.5 14t14.5 36zM211 590q0 21 -15 35.5t-35 14.5q-21 0 -35.5 -14.5t-14.5 -35.5q0 -22 14.5 -36t35.5 -14q20 0 35 14t15 36z" />
    <glyph glyph-name="dotlessi" unicode="&#x131;" horiz-adv-x="303" 
d="M273 0q1 0 1 3v8v9t-1 4h-58q-6 0 -6 4v395q0 3 -4 3h-165q-1 0 -1.5 -4t-0.5 -9q0 -4 0.5 -7.5t1.5 -3.5h58q7 0 7 -4v-370q0 -4 -7 -4h-58q-1 0 -1.5 -4t-0.5 -9q0 -4 0.5 -7.5t1.5 -3.5h233z" />
    <glyph glyph-name="OE" unicode="&#x152;" horiz-adv-x="931" 
d="M902 3v227q0 1 -4 1h-7h-8q-3 0 -3 -1q0 -39 -11.5 -76t-36.5 -66t-65 -46.5t-97 -17.5h-90q-6 0 -6 4v324h21q28 0 49 -10t35 -27t21 -40t7 -48q0 -2 11 -2t11 2v274q0 1 -4 1h-7h-8q-3 0 -3 -1q0 -26 -7 -48.5t-21 -39.5t-35 -27t-49 -10h-21v305q0 4 6 4h87
q44 0 75.5 -16t51 -42t28.5 -59.5t9 -68.5q0 -1 11 -1t11 1v207q0 3 -3 3h-496q-66 0 -121 -29t-95.5 -77.5t-63 -113t-22.5 -135.5q0 -73 23.5 -137.5t64.5 -112.5t96 -76t118 -28h545q3 0 3 3zM447 26q0 -4 -5 -4h-88q-32 0 -56.5 8t-45.5 28q-16 16 -28 39t-19.5 57.5
t-11 83t-3.5 116.5q0 120 15 192t47 105q21 20 45.5 27t56.5 7h88q5 0 5 -2v-657z" />
    <glyph glyph-name="oe" unicode="&#x153;" horiz-adv-x="802" 
d="M766 238q0 25 -11 59t-34.5 65t-59 52t-83.5 21q-58 0 -94.5 -24t-64.5 -57q-26 33 -63.5 57t-93.5 24q-45 0 -84.5 -17.5t-69.5 -47.5t-47 -70.5t-17 -86.5t17 -86.5t47 -70.5t69.5 -47.5t84.5 -17.5q30 0 53.5 7t42 18t33.5 26t28 32q13 -16 28 -31t34 -26.5
t42.5 -18.5t54.5 -7q54 0 101.5 26.5t76.5 69.5q1 2 -5.5 7.5t-7.5 4.5q-27 -37 -69 -60.5t-96 -23.5q-21 0 -37.5 4t-29.5 17q-11 10 -18.5 23.5t-12.5 34t-7.5 49.5t-2.5 70v22h293q3 0 3 3zM668 259h-198q1 30 4 51t8 36t12.5 25t16.5 19q13 13 29.5 17t37.5 4
q17 0 31 -4t25 -17q8 -9 14 -19t10.5 -25t6.5 -36t3 -51zM369 213q0 -41 -2.5 -70t-7.5 -49.5t-13 -34t-18 -23.5q-14 -13 -30 -17t-36 -4q-21 0 -38 4t-29 17q-11 10 -19 23.5t-13 34t-7.5 49.5t-2.5 70q0 72 9.5 114.5t32.5 62.5q12 13 29 17t38 4q20 0 36 -4t30 -17
q21 -20 31 -62.5t10 -114.5z" />
    <glyph glyph-name="Ydieresis" unicode="&#x178;" horiz-adv-x="632" 
d="M647 685q1 0 1 3v8v9t-1 4h-199q-1 0 -1.5 -4t-0.5 -9q0 -4 0.5 -7.5t1.5 -3.5h83q4 0 2 -6.5t-14 -35.5l-130 -299l-160 337q1 2 1 3t3 1h89l0.5 3.5t0.5 7.5q0 5 -0.5 9l-0.5 4h-329q-1 0 -1.5 -4t-0.5 -9q0 -4 0.5 -7.5t1.5 -3.5h93q5 0 7 -4l177 -372v-281
q0 -4 -5 -4h-83q-1 0 -1.5 -4t-0.5 -9q0 -4 0.5 -7.5t1.5 -3.5h301l0.5 3.5t0.5 7.5q0 5 -0.5 9l-0.5 4h-82q-6 0 -6 4v276l131 303q12 28 20 43.5t12.5 23t7 9.5t4.5 2h77zM534 845q0 21 -14.5 35.5t-34.5 14.5t-35.5 -14.5t-15.5 -35.5q0 -22 15.5 -36t35.5 -14t34.5 14
t14.5 36zM333 845q0 21 -15 35.5t-35 14.5q-21 0 -35.5 -14.5t-14.5 -35.5q0 -22 14.5 -36t35.5 -14q20 0 35 14t15 36z" />
    <glyph glyph-name="florin" unicode="&#x192;" horiz-adv-x="421" 
d="M523 650q0 18 -7.5 35t-19.5 30t-28 21t-34 8q-44 0 -88.5 -27t-82.5 -77.5t-64 -122.5t-32 -163l-1 -20q-2 -3 -6 -3h-95l-0.5 -4t-0.5 -9q0 -4 0.5 -7.5l0.5 -3.5h95q6 0 5 -4q-9 -133 -17.5 -242.5t-25 -188t-46 -121.5t-79.5 -43q-16 0 -21.5 7t-5.5 23q0 10 3 16
t6 11t6 10.5t3 14.5q0 16 -11 27t-36 11q-21 0 -36.5 -15.5t-15.5 -35.5q0 -19 7 -36t19.5 -30t30 -20.5t38.5 -7.5q53 0 94.5 27.5t73 74.5t54.5 108t38.5 127.5t24.5 134.5t13 128l1 20q1 4 8 4h93q1 0 1 3v8v9t-1 4h-93q-7 0 -7 3q6 88 15.5 150.5t21 105.5t24 68.5
t25 39t24 17.5t20.5 4q17 0 22.5 -7t5.5 -24q0 -10 -3 -16t-6 -10.5t-6 -10t-3 -14.5q0 -17 11 -27.5t36 -10.5q22 0 37 15t15 36z" />
    <glyph glyph-name="circumflex" unicode="&#x2c6;" horiz-adv-x="311" 
d="M305 525q-45 50 -79.5 90t-59.5 76q-3 2 -5 0q-24 -36 -58.5 -75.5t-79.5 -90.5q-1 -1 4.5 -7.5t6.5 -4.5l125 95l136 -95q2 -2 7 4.5t3 7.5z" />
    <glyph glyph-name="caron" unicode="&#x2c7;" horiz-adv-x="311" 
d="M295 680q2 2 -3.5 8t-6.5 4l-125 -94l-137 94q-2 2 -5.5 -4t-1.5 -8q44 -49 78.5 -89.5t57.5 -76.5q2 -3 5 0q24 36 58.5 76t79.5 90z" />
    <glyph glyph-name="breve" unicode="&#x2d8;" horiz-adv-x="359" 
d="M326 689q0 1 -4 1h-8h-8q-3 0 -3 -1q0 -13 -4 -29t-17 -30.5t-37.5 -24t-65.5 -9.5t-65.5 9.5t-37 24t-16.5 30.5t-4 29q0 1 -4 1h-7h-8q-3 0 -3 -1q0 -24 7 -51t23.5 -50.5t44.5 -38.5t70 -15t70.5 15t45.5 38.5t24 50.5t7 51z" />
    <glyph glyph-name="dotaccent" unicode="&#x2d9;" horiz-adv-x="237" 
d="M169 590q0 21 -15 35.5t-35 14.5q-21 0 -35.5 -14.5t-14.5 -35.5q0 -22 14.5 -36t35.5 -14q20 0 35 14t15 36z" />
    <glyph glyph-name="ring" unicode="&#x2da;" horiz-adv-x="271" 
d="M216 608q0 32 -23 54.5t-57 22.5q-16 0 -30.5 -6t-25 -16.5t-17 -24.5t-6.5 -30t6.5 -30t17 -24.5t25 -16.5t30.5 -6q34 0 57 22.5t23 54.5zM192 608q0 -22 -16.5 -37.5t-39.5 -15.5q-22 0 -38.5 15.5t-16.5 37.5t16.5 37.5t38.5 15.5q23 0 39.5 -15.5t16.5 -37.5z" />
    <glyph glyph-name="ogonek" unicode="&#x2db;" horiz-adv-x="262" 
d="M220 -149l-1.5 3t-4 6.5t-4.5 5.5t-2 1q-7 -14 -19 -24t-28 -10q-20 0 -37.5 12.5t-17.5 49.5q0 36 25 61.5t57 39.5q1 0 -0.5 3.5t-3.5 7t-4 6.5l-2 3q-67 -33 -100.5 -66.5t-33.5 -71.5q0 -34 20.5 -56t59.5 -22q33 0 57 15.5t39 35.5z" />
    <glyph glyph-name="tilde" unicode="&#x2dc;" horiz-adv-x="384" 
d="M365 663q0 1 -4 1h-7h-8q-3 0 -3 -1q0 -26 -9.5 -37.5t-33.5 -11.5q-17 0 -35.5 6.5t-38.5 14.5t-43 14.5t-48 6.5t-46.5 -8.5t-37.5 -24t-25.5 -36t-9.5 -44.5q0 -1 3.5 -1.5t7.5 -0.5q5 0 9 0.5t4 1.5q0 26 8.5 37t31.5 11q17 0 35.5 -6.5t39.5 -14.5t44 -14.5t49 -6.5
q24 0 45 9t37 24t25.5 36t9.5 45z" />
    <glyph glyph-name="hungarumlaut" unicode="&#x2dd;" horiz-adv-x="513" 
d="M459 676q0 16 -10.5 26.5t-27.5 10.5q-15 0 -26 -11t-21.5 -28t-23.5 -37.5t-31.5 -40.5t-44.5 -36.5t-64 -24.5q-1 -1 -1 -5v-8q0 -4 0.5 -7.5t1.5 -3.5q76 18 124.5 39.5t76 43t37.5 43t10 39.5zM279 676q0 16 -10 26.5t-28 10.5q-15 0 -26 -11t-22 -28t-23.5 -37.5
t-31 -40.5t-45 -36.5t-64.5 -24.5q-1 -1 -1 -5v-8q0 -4 0.5 -7.5t1.5 -3.5q78 18 126.5 39.5t75.5 43t37 43t10 39.5z" />
    <glyph glyph-name="Omega" unicode="&#x3a9;" horiz-adv-x="617" 
d="M664 650q0 18 -8 35t-20.5 30t-29.5 21t-35 8q-38 0 -70.5 -15t-56 -50t-36.5 -91.5t-13 -138.5v-19q0 -4 -8 -4h-165q-6 0 -6 4v163q0 68 14.5 93t37.5 25q30 0 30 -29q0 -11 -2.5 -17.5t-5 -11t-5 -10t-2.5 -14.5q0 -16 12 -26.5t38 -10.5q22 0 35.5 15.5t13.5 35.5
q0 18 -8 35t-21 30t-30 21t-35 8q-38 0 -70.5 -15t-56 -50t-37 -91.5t-13.5 -138.5v-12q0 -4 -6 -4h-72q-1 0 -1.5 -4t-0.5 -9q0 -4 0.5 -7.5t1.5 -3.5h72q6 0 6 -4v-370q0 -4 -6 -4h-57q-1 0 -1.5 -4t-0.5 -9q0 -4 0.5 -7.5t1.5 -3.5h230q1 0 2 3.5t1 7.5q0 5 -1 9t-2 4
h-56q-6 0 -6 4v370q0 4 6 4h165q8 0 8 -4v-370q0 -4 -8 -4h-57l-0.5 -4t-0.5 -9q0 -4 0.5 -7.5l0.5 -3.5h231q1 0 1 3v8v9t-1 4h-57q-7 0 -7 4v370q0 4 7 4h86q1 0 1 3v8v9t-1 4h-86q-7 0 -7 4v170q0 68 15.5 93t37.5 25q31 0 31 -29q0 -11 -2.5 -17.5t-5 -11t-5 -10
t-2.5 -14.5q0 -16 12 -26.5t36 -10.5q23 0 36.5 15.5t13.5 35.5z" />
    <glyph glyph-name="endash" unicode="&#x2013;" horiz-adv-x="531" 
d="M492 224q1 0 1 3v8v9t-1 4h-453q-1 0 -1.5 -4t-0.5 -9q0 -4 0.5 -7.5t1.5 -3.5h453z" />
    <glyph glyph-name="emdash" unicode="&#x2014;" horiz-adv-x="985" 
d="M946 224q1 0 1 3v8v9t-1 4h-907q-1 0 -1.5 -4t-0.5 -9q0 -4 0.5 -7.5t1.5 -3.5h907z" />
    <glyph glyph-name="quoteleft" unicode="&#x2018;" horiz-adv-x="214" 
d="M169 709v3t-1 7t-1.5 6.5t-1.5 2.5q-26 -9 -46.5 -29.5t-35 -46t-22.5 -52.5t-8 -48q0 -34 13.5 -53t40.5 -19q20 0 35.5 17t15.5 40q0 15 -5.5 27t-13.5 17q-30 24 -30 55t33 58q5 4 12 8.5t15 6.5z" />
    <glyph glyph-name="quoteright" unicode="&#x2019;" horiz-adv-x="216" 
d="M163 655q0 33 -13.5 52t-40.5 19q-21 0 -36 -17t-15 -40q0 -15 5 -26.5t13 -17.5q31 -22 31 -54q0 -30 -33 -57q-5 -4 -12 -9t-16 -7v-3q0 -2 1 -6t1.5 -6.5t1.5 -2.5q26 8 47 28.5t35.5 46t22.5 52.5t8 48z" />
    <glyph glyph-name="quotesinglbase" unicode="&#x201a;" horiz-adv-x="216" 
d="M162 36q0 34 -13.5 52.5t-39.5 18.5q-21 0 -36.5 -17t-15.5 -40q0 -15 5 -26.5t13 -17.5q31 -24 31 -54q0 -31 -33 -58q-5 -4 -12 -8.5t-16 -6.5q0 -1 1 -5.5l2 -9t2 -4.5q25 9 46 29.5t35.5 46t22.5 52.5t8 48z" />
    <glyph glyph-name="quotedblleft" unicode="&#x201c;" horiz-adv-x="387" 
d="M340 709v3t-1 7t-1.5 6.5t-1.5 2.5q-26 -9 -46.5 -29.5t-35 -46t-22.5 -52.5t-8 -48q0 -34 13.5 -53t39.5 -19q21 0 36 17t15 40q0 15 -5 27t-13 17q-30 24 -30 55t33 58q5 4 11.5 8.5t15.5 6.5zM169 709v3t-1 7t-1.5 6.5t-1.5 2.5q-26 -9 -46.5 -29.5t-35 -46
t-22.5 -52.5t-8 -48q0 -34 13.5 -53t40.5 -19q20 0 35.5 17t15.5 40q0 15 -5.5 27t-13.5 17q-30 24 -30 55t33 58q5 4 12 8.5t15 6.5z" />
    <glyph glyph-name="quotedblright" unicode="&#x201d;" horiz-adv-x="387" 
d="M333 655q0 33 -13 52t-39 19q-21 0 -36.5 -17t-15.5 -40q0 -15 5 -26.5t13 -17.5q30 -23 30 -54t-32 -57q-5 -4 -12 -9t-15 -7v-3q0 -2 1 -6t1.5 -6.5t1.5 -2.5q25 8 45.5 28.5t35 46t22.5 52.5t8 48zM163 655q0 33 -13.5 52t-40.5 19q-21 0 -36 -17t-15 -40
q0 -15 5 -26.5t13 -17.5q31 -22 31 -54q0 -30 -33 -57q-5 -4 -12 -9t-16 -7v-3q0 -2 1 -6t1.5 -6.5t1.5 -2.5q26 8 47 28.5t35.5 46t22.5 52.5t8 48z" />
    <glyph glyph-name="quotedblbase" unicode="&#x201e;" horiz-adv-x="387" 
d="M334 36q0 34 -13.5 52.5t-40.5 18.5q-21 0 -36 -17t-15 -40q0 -15 5 -26.5t13 -17.5q31 -24 31 -54t-33 -58q-5 -4 -12 -8.5t-16 -6.5q0 -1 1 -5.5l2 -9t2 -4.5q25 9 46 29.5t35.5 46t22.5 52.5t8 48zM162 36q0 34 -13.5 52.5t-39.5 18.5q-21 0 -36.5 -17t-15.5 -40
q0 -15 5 -26.5t13 -17.5q31 -24 31 -54q0 -31 -33 -58q-5 -4 -12 -8.5t-16 -6.5q0 -1 1 -5.5l2 -9t2 -4.5q25 9 46 29.5t35.5 46t22.5 52.5t8 48z" />
    <glyph glyph-name="dagger" unicode="&#x2020;" horiz-adv-x="571" 
d="M540 376q0 14 -9.5 32.5t-26 34.5t-39 27t-49.5 11q-41 0 -64 -12.5t-34 -31.5q0 12 1 20t2.5 15.5t3 16t1.5 23.5q0 29 -7.5 57t-7.5 44q0 8 5 14.5t10.5 14t10.5 17.5t5 25q0 26 -18 43t-38 17q-23 0 -40 -17t-17 -43q0 -15 5 -25t11 -17.5t11 -14t5 -14.5
q0 -16 -8.5 -44t-8.5 -57q0 -15 1.5 -23.5t3.5 -16t3.5 -15.5t1.5 -20q-11 19 -35 31.5t-63 12.5q-27 0 -50 -11t-39.5 -27t-26 -34.5t-9.5 -32.5q0 -17 8.5 -34.5t30.5 -17.5q23 0 33.5 14t10.5 28q0 13 -4.5 20t-4.5 21q0 26 17 38t34 12q25 0 44 -5t32.5 -18t20.5 -35.5
t7 -56.5q0 -20 -7 -33.5t-16 -22t-18 -12.5t-13 -6q-1 0 -1 -4q0 -3 0.5 -7.5t1 -8t1.5 -3.5q15 7 28 -26.5t22 -105.5t14.5 -180t5.5 -250q0 -2 7 -2t7 2q0 142 5.5 250t14.5 180t22 105.5t28 26.5q1 0 1.5 3.5t0.5 7.5v8v4q-4 2 -12.5 6t-17.5 12.5t-15.5 22t-6.5 33.5
q0 34 6.5 56.5t19.5 35.5t32.5 18t45.5 5q17 0 32.5 -12t15.5 -38q0 -14 -3.5 -21t-3.5 -20q0 -14 10.5 -28t33.5 -14q21 0 30 17.5t9 34.5z" />
    <glyph glyph-name="daggerdbl" unicode="&#x2021;" horiz-adv-x="571" 
d="M538 -6q0 18 -9 33t-31 15q-23 0 -32.5 -12t-9.5 -26q0 -13 4 -19.5t4 -20.5q0 -13 -4.5 -19.5t-12 -8.5t-16.5 -2h-18q-24 0 -42 4t-30 15.5t-18.5 32.5t-6.5 56q0 20 4 30t10 13.5t12 4t10 2.5q1 0 1 3v8q0 5 -0.5 8t-1.5 3q-8 -3 -11 -3q-20 0 -31.5 29.5t-11.5 72.5
q0 44 11.5 73.5t31.5 29.5q3 0 11 -3q1 0 1.5 3t0.5 7v8t-1 4q-4 2 -10 2t-12 4t-10 13.5t-4 29.5q0 34 6.5 55.5t18.5 33.5t30 16t42 4h18t16.5 -2t12 -9t4.5 -20t-4 -20t-4 -20q0 -14 9.5 -25.5t32.5 -11.5q22 0 31 15t9 32q0 14 -9.5 29t-26 27.5t-39.5 20.5t-50 8
q-32 0 -57 -7.5t-34 -30.5q0 12 1.5 18t3 10.5t3 11t1.5 21.5q0 14 -2.5 24.5t-5.5 18.5t-5.5 15t-2.5 15t4.5 14.5t10.5 14t10.5 17.5t4.5 25q0 26 -19 43t-41 17q-21 0 -40.5 -17t-19.5 -43q0 -15 5 -25t10.5 -17.5t10.5 -14t5 -14.5t-2.5 -15t-5.5 -15t-5.5 -18.5
t-2.5 -24.5q0 -15 1.5 -21.5t3.5 -11t3.5 -10.5t1.5 -18q-11 23 -35.5 30.5t-56.5 7.5q-27 0 -50 -8t-39.5 -20.5t-25.5 -27.5t-9 -29q0 -17 8.5 -32t29.5 -15q23 0 33 11.5t10 25.5q0 13 -3.5 20t-3.5 20t4.5 20t12 9t15.5 2h18q24 0 42 -4t30 -16t18.5 -33.5t6.5 -55.5
q0 -20 -4 -29.5t-10 -13.5t-12 -4t-10 -2v-4v-8t0.5 -7l0.5 -3q7 3 12 3q20 0 31 -29.5t11 -73.5q0 -43 -11 -72.5t-31 -29.5q-5 0 -12 3l-0.5 -3t-0.5 -8v-8v-3q4 -2 10 -2.5t12 -4t10 -13.5t4 -30q0 -35 -6.5 -56t-18.5 -32.5t-30 -15.5t-42 -4h-18q-8 0 -15.5 2t-12 8.5
t-4.5 19.5q0 14 3.5 20.5t3.5 19.5q0 14 -10 26t-33 12q-21 0 -29.5 -15t-8.5 -33q0 -14 9 -29t25.5 -27t39.5 -20t50 -8q32 0 56.5 7t35.5 31q0 -12 -1.5 -18t-3.5 -10.5t-3.5 -11.5t-1.5 -21t2.5 -24.5t5.5 -18.5t5.5 -15t2.5 -15t-5 -14.5t-10.5 -14.5t-10.5 -18t-5 -24
q0 -26 19.5 -43t40.5 -17q22 0 41 17t19 43q0 14 -4.5 24t-10.5 18t-10.5 14.5t-4.5 14.5t2.5 15t5.5 15t5.5 18.5t2.5 24.5t-1.5 21t-3 11.5t-3 10.5t-1.5 18q9 -24 34 -31t57 -7q27 0 50 8t39.5 20t26 27t9.5 29z" />
    <glyph glyph-name="bullet" unicode="&#x2022;" horiz-adv-x="330" 
d="M277 354q0 25 -9 47.5t-24 39.5t-35.5 26.5t-43.5 9.5t-43.5 -9.5t-36 -26.5t-24.5 -39.5t-9 -47.5q0 -26 9 -48.5t24.5 -39.5t36 -26.5t43.5 -9.5t43.5 9.5t35.5 26.5t24 39.5t9 48.5z" />
    <glyph glyph-name="ellipsis" unicode="&#x2026;" horiz-adv-x="594" 
d="M545 46q0 24 -16 40t-42 16q-23 0 -38.5 -16t-15.5 -40q0 -25 15.5 -42t38.5 -17q26 0 42 17t16 42zM354 46q0 24 -16 40t-42 16q-23 0 -38.5 -16t-15.5 -40q0 -25 15.5 -42t38.5 -17q26 0 42 17t16 42zM163 46q0 24 -16 40t-42 16q-23 0 -38.5 -16t-15.5 -40
q0 -25 15.5 -42t38.5 -17q26 0 42 17t16 42z" />
    <glyph glyph-name="perthousand" unicode="&#x2030;" horiz-adv-x="1039" 
d="M999 220q0 60 -31 93t-79 33q-45 0 -83.5 -21.5t-66.5 -54.5t-44 -73.5t-16 -79.5q0 -60 30.5 -93t77.5 -33q46 0 84.5 21.5t67 54.5t44.5 73.5t16 79.5zM361 587q0 60 -30.5 93t-78.5 33q-45 0 -84 -21.5t-67.5 -54.5t-44.5 -73.5t-16 -79.5q0 -60 31 -93t79 -33
q45 0 84 21.5t67 54.5t44 73.5t16 79.5zM563 726l-3 2.5t-7 4.5t-7.5 4t-3.5 1l-412 -749q0 -1 2.5 -3.5t6 -4.5l7 -4t3.5 -1zM651 220q0 60 -31 93t-79 33q-45 0 -83.5 -21.5t-66.5 -54.5t-44 -73.5t-16 -79.5q0 -60 30.5 -93t77.5 -33q46 0 84.5 21.5t67 54.5t44.5 73.5
t16 79.5zM934 254q0 -23 -6 -54t-17.5 -62.5t-27.5 -60t-36 -44.5q-12 -11 -25.5 -14.5t-27.5 -3.5q-26 0 -35.5 16t-9.5 52q0 22 6 53.5t17.5 63t27 59.5t35.5 45q13 11 25.5 14.5t28.5 3.5q25 0 35 -16t10 -52zM294 621q0 -23 -6 -54t-17 -62.5t-27 -60t-35 -44.5
q-13 -11 -26 -14.5t-28 -3.5q-25 0 -34.5 16t-9.5 52q0 22 6 53.5t17 63t26.5 59.5t35.5 45q14 11 27 14.5t28 3.5q25 0 34 -16t9 -52zM585 254q0 -23 -6 -54t-17 -62.5t-27 -60t-36 -44.5q-12 -11 -25.5 -14.5t-27.5 -3.5q-26 0 -35.5 16t-9.5 52q0 22 6 53.5t17 63
t27 59.5t36 45q13 11 25.5 14.5t28.5 3.5q24 0 34 -16t10 -52z" />
    <glyph glyph-name="guilsinglleft" unicode="&#x2039;" horiz-adv-x="222" 
d="M187 51q0 23 -5.5 47.5t-14 46.5t-19 39.5t-20.5 28.5q10 10 20.5 28t19 40t14 46t5.5 48q0 2 -4 3t-9 1q-4 0 -8 -1t-4 -3q0 -29 -16.5 -56t-38.5 -48t-43 -36t-31 -20q-2 -2 0 -4q10 -5 31 -20t43 -36t38.5 -48t16.5 -56q0 -2 4 -3t8 -1q5 0 9 1t4 3z" />
    <glyph glyph-name="guilsinglright" unicode="&#x203a;" horiz-adv-x="222" 
d="M186 211q4 2 0 4q-9 5 -30.5 20t-43 36t-38.5 48t-17 56q0 2 -4 3t-9 1q-4 0 -7.5 -1t-3.5 -3q0 -24 5.5 -48t14 -46t19 -40t20.5 -28q-10 -11 -20.5 -28.5t-19 -39.5t-14 -46.5t-5.5 -47.5q0 -2 3.5 -3t7.5 -1q5 0 9 1t4 3q0 29 17 56t38.5 48t43 36t30.5 20z" />
    <glyph glyph-name="trademark" unicode="&#x2122;" horiz-adv-x="548" 
d="M530 504q1 0 1 10t-1 10h-26h-2v1v161q0 1 2 1h26q1 0 1 11t-1 11h-88q-2 0 -4 -5l-48 -136l-45 136q-2 5 -5 5h-83q-1 0 -1 -11t1 -11h27q2 0 2 -1v-161l-0.5 -0.5t-1.5 -0.5h-27q-1 0 -1 -10t1 -10h77q2 0 2 10t-2 10h-24q-1 0 -2 0.5l-1 0.5v153l65 -179q0 -1 8 -1
t9 1l67 186v-160l-1 -0.5t-2 -0.5h-24q-2 0 -2 -10t2 -10h101zM227 637v71v1h-196q-1 0 -1 -1v0v-71q0 -1 10 -1q11 0 11 1q0 25 7.5 37.5t40.5 12.5h3q2 0 2 -1v-161l-0.5 -0.5t-1.5 -0.5h-26q-1 0 -1 -10t1 -10h103q1 0 1 10t-1 10h-26h-2v1v161q0 1 2 1h3q32 0 40 -12.5
t8 -37.5l3.5 -0.5t7.5 -0.5q5 0 8.5 0.5z" />
    <glyph glyph-name="fraction" unicode="&#x2215;" horiz-adv-x="508" 
d="M468 718l-3 2t-6.5 4.5t-7 4t-3.5 0.5l-412 -749q0 -1 2.5 -3t6 -4.5t6.5 -4t3 -0.5z" />
    <glyph glyph-name="radical" unicode="&#x221a;" horiz-adv-x="831" 
d="M815 0q1 0 1 3v8v9t-1 4h-57q-7 0 -7 4v713q0 3 -3 3q-5 0 -18 -3t-27 -6t-26.5 -6t-15.5 -3q-8 0 -24 9t-47 9q-38 0 -80.5 -15.5t-71.5 -53.5q-7 14 -19.5 25.5t-27.5 19.5t-32 12.5t-32 4.5q-42 0 -81 -15.5t-69 -49.5t-48 -89t-18 -134v-19q0 -4 -6 -4h-71
q-1 0 -1.5 -4t-0.5 -9q0 -4 0.5 -7.5t1.5 -3.5h71q6 0 6 -4v-370q0 -4 -6 -4h-57q-1 0 -1.5 -4t-0.5 -9q0 -4 0.5 -7.5t1.5 -3.5h230q1 0 1.5 3.5t0.5 7.5q0 5 -0.5 9t-1.5 4h-57q-6 0 -6 4v370q0 4 6 4h152q7 0 7 -4v-370q0 -4 -7 -4h-57q-1 0 -1.5 -4t-0.5 -9
q0 -4 0.5 -7.5t1.5 -3.5h231q1 0 1 3v8v9t-1 4h-57q-7 0 -7 4v370q0 4 7 4h158v-374q0 -4 -7 -4h-57q-1 0 -1.5 -4t-0.5 -9q0 -4 0.5 -7.5t1.5 -3.5h231zM648 426h-158q-7 0 -7 4v170q0 33 8.5 55.5t23.5 36.5t34.5 20t40.5 6t39.5 -6.5t18.5 -14.5v-271zM423 652
q-20 -32 -31.5 -80t-11.5 -123v-19q0 -4 -7 -4h-152q-6 0 -6 4v163q0 33 9.5 55.5t25 36.5t34.5 20t38 6q32 0 59 -16.5t42 -42.5z" />
    <glyph glyph-name="approxequal" unicode="&#x2248;" horiz-adv-x="841" 
d="M815 0q1 0 1 3v8v9t-1 4h-57q-7 0 -7 4v395q0 3 -3 3h-258q-7 0 -7 4v170q0 33 9.5 55.5t24.5 36.5t34 20t39 6q46 0 62 -15t16 -49q0 -12 -2.5 -18.5t-5.5 -12t-5.5 -11.5t-2.5 -17q0 -17 13 -29.5t42 -12.5q25 0 40.5 17t15.5 42q0 20 -9 43t-28 43t-47.5 33t-68.5 13
q-56 0 -98 -15.5t-73 -54.5q-14 29 -47 46t-65 17q-42 0 -81 -15.5t-69 -49.5t-48 -89t-18 -134v-19q0 -4 -6 -4h-72q-1 0 -1.5 -4t-0.5 -9q0 -4 0.5 -7.5t1.5 -3.5h72q6 0 6 -4v-370q0 -4 -6 -4h-57q-1 0 -1.5 -4t-0.5 -9q0 -4 0.5 -7.5t1.5 -3.5h230q1 0 1.5 3.5t0.5 7.5
q0 5 -0.5 9t-1.5 4h-57q-6 0 -6 4v370q0 4 6 4h151q8 0 8 -4v-370q0 -4 -8 -4h-57q-1 0 -1.5 -4t-0.5 -9q0 -4 0.5 -7.5t1.5 -3.5h232q1 0 1 3v8v9t-1 4h-57q-7 0 -7 4v370q0 4 7 4h150q7 0 7 -4v-370q0 -4 -7 -4h-56q-1 0 -1.5 -4t-0.5 -9q0 -4 0.5 -7.5t1.5 -3.5h231z
M423 650q-20 -32 -31.5 -79t-11.5 -122v-19q0 -4 -8 -4h-151q-6 0 -6 4v163q0 33 9.5 55.5t25 36.5t34.5 20t38 6q32 0 59.5 -16.5t41.5 -44.5z" />
    <glyph glyph-name="apple" unicode="&#xf8ff;" horiz-adv-x="967" 
d="M867 0v750h-767v-750h767zM820 520q0 -1 -1 -1v0q-4 0 -6 0.5t-7 0.5t-7 -0.5t-7 -0.5q-1 0 -1 1v1v1q7 1 7 5q0 3 -1 4l-3 15h-25l4 -15q0 -4 1 -5.5t8 -3.5v-2v-1q-4 0 -5.5 0.5t-6.5 0.5t-7.5 -0.5t-7.5 -0.5q-1 0 -1 1v1v1q8 1 8 5q0 3 -1 4l-7 33l-3 6t-8 3v2v1
q4 0 6.5 -0.5t6.5 -0.5q5 0 7 0.5t7 0.5q1 0 1 -2v-1q-7 -1 -7 -5v-4l4 -14h25l-3 14l-3 6t-6 3q-1 0 -1 2v1q4 0 6 -0.5t7 -0.5q4 0 7 0.5t7 0.5q2 0 2 -2q0 -1 -1 -1q-8 -1 -8 -5q0 -3 1 -4l8 -33q1 -4 2 -5.5t7 -3.5q2 0 2 -2zM559 686h-2q-3 9 -11 9q-3 0 -3 -3v-22
q0 -5 5 -6q1 0 1 -1t-1 -1h-8h-9q-1 0 -1 1t1 1q5 1 5 6v22q0 3 -3 3q-5 0 -6 -2t-3 -7h-1h-1q1 4 1.5 6.5t0.5 5.5q2 -1 4 -1h12h11t4 1q2 -3 2 -6q0 -2 2 -6zM694 540q0 -12 -7.5 -17t-14.5 -5q-14 0 -25 11t-11 27q0 12 7.5 17t14.5 5q14 0 25 -11.5t11 -26.5zM503 662
h-9h-9v1v1q5 1 5 6v9h-17v-9q0 -5 5 -6v-1v-1h-9h-8q-1 0 -1 1t1 1q5 1 5 6v19q0 6 -5 6q-1 0 -1 1t1 1h8h9v-1v-1q-5 0 -5 -6v-8h17v8q0 6 -5 6v1v1h9h9v-1v-1q-5 0 -5.5 -1.5t-0.5 -4.5v-19q0 -3 0.5 -4t5.5 -2v-1v-1zM825 378h-36v28h-11v-65h14v-33h-81v33h14v65h-11
v-28h-36v62h147v-62zM587 536q0 -8 -6.5 -13t-17.5 -5q-16 0 -16 13q0 10 9 10q7 0 7 -5t-4 -5q-2 0 -3 1t-2 1q-3 0 -3 -3q0 -9 12 -9t12 14q0 10 -6 15q-5 -5 -11 -5q-8 0 -8 6t8 6h8q2 2 2 6q0 12 -10 12q-7 0 -7 -6q0 -2 1.5 -2.5t1.5 -3.5t-4 -3q-5 0 -5 6q0 5 3.5 8.5
t9.5 3.5q9 0 14.5 -5t5.5 -10t-4 -9q13 -7 13 -18zM826 619h-685v4h685v-4zM439 663q0 -1 -1 -1v0h-16h-12q-1 3 -2 5.5t-2 5.5v0q0 1 1 1q4 -9 12 -9h3q4 0 4 3v12h-4q-6 0 -6 -6v-1h-1h-1v1v6v6q0 1 1 1t1 -1q0 -5 6 -5h4v10q0 4 -4 4h-3q-6 0 -9 -8v-1q-1 0 -1.5 0.5
l-0.5 0.5q2 4 2 10h12h16v0q1 0 1 -1t-1 -1v0q-5 0 -5 -6v-19q0 -5 5 -6v0q1 0 1 -1zM497 519q-5 0 -7 0.5t-7 0.5q-4 0 -7 -0.5t-7 -0.5q-1 0 -1.5 1l-0.5 1v1h1q8 1 8 5q0 3 -1 4l-3 16h-5q-9 0 -8 -11h-1h-2q-1 4 -1 6q0 3 -1 6q-1 4 -1.5 5.5t-1.5 5.5v1h1q2 0 2 -1
q2 -6 4.5 -7.5t7.5 -1.5h4l-3 16q-1 6 -6 6h-4q-13 0 -14 -13q0 -1 -1 -1q-2 0 -2 1q0 3 0.5 5.5t0.5 4.5q0 5 -1 7q5 0 10 -0.5t10 -0.5t13.5 0.5t11.5 0.5l0.5 -0.5t0.5 -1.5t-1 -1q-7 -1 -7 -5q0 -3 1 -4l7 -33q2 -4 3 -5.5t7 -3.5q1 0 1 -2v-1zM823 173q0 -1 -0.5 -1.5
l-0.5 -0.5q-4 0 -6 0.5t-7 0.5t-7.5 -0.5t-7.5 -0.5q-1 0 -1 1v1v2q8 1 8 5q0 1 -0.5 1.5t-0.5 2.5l-3 15h-5q-9 0 -8 -11h-1h-1q-2 4 -2 7t-1 5q-1 4 -1.5 5.5t-1.5 6.5h2h1q2 -7 4.5 -8t7.5 -1h5l-4 15q-1 6 -6 6h-4q-11 0 -14 -13v-1h-1t-1.5 0.5t0.5 0.5v11v6h19h25
q2 0 2 -2l-1 -1q-8 -1 -8 -5v-4l9 -32q1 -5 2 -6.5t7 -2.5q1 0 1.5 -1zM826 476h-685v4h685v-4zM644 406h-14l-37 -45v-20h15v-33h-81v33h14v19l-37 46h-12v34h62v-34h-10l15 -23l15 23h-11v34h81v-34zM399 521q0 -3 -4 -3q-7 0 -12 7q-8 0 -11 -6t-16 -6t-13 11q0 6 5 6
t5 -4q0 -2 -1 -2.5t-1 -2.5q0 -4 5 -4q7 0 8.5 6.5t12.5 6.5q-5 6 -7 14t-3 14.5t-2.5 11.5t-6.5 5t-5 -6t-4 -6q-5 0 -5 5q0 3 4 6.5t9 3.5q10 0 14.5 -6t6.5 -13.5t3.5 -16t4.5 -12.5q7 -1 10 -4t3 -5zM725 192q0 -12 -7.5 -17t-14.5 -5q-13 0 -24 11.5t-11 26.5
q0 12 7 17t14 5q14 0 25 -11.5t11 -26.5zM292 536q0 -8 -6 -13t-17 -5q-17 0 -17 13q0 10 9 10q8 0 8 -5t-5 -5q-2 0 -3 1t-2 1q-2 0 -2 -3q0 -9 12 -9q5 0 8.5 3t3.5 11q0 9 -6 15q-5 -5 -12 -5t-7 6t7 6h9q0 1 0.5 2t0.5 4q0 12 -10 12q-6 0 -6 -6q0 -2 1.5 -2.5t1.5 -3.5
t-5 -3t-5 6q0 5 4 8.5t9 3.5q9 0 14.5 -5t5.5 -10t-4 -9q13 -7 13 -18zM620 225q-9 -1 -9 -5q0 -1 0.5 -1.5t0.5 -2.5l5 -22q2 -6 2 -8q0 -5 -4.5 -10.5t-16.5 -5.5q-14 0 -19 9t-7 17l-5 20q-1 5 -2.5 6.5t-8.5 2.5q-1 0 -1 1v1v1h11h12v-1v-2q-8 -1 -8 -5q0 -1 0.5 -1.5
t0.5 -2.5l4 -19q2 -9 7 -15.5t13 -6.5q13 0 13 10q0 2 -2 10l-5 21q-1 5 -2 6.5t-8 2.5q-1 0 -1 1v1v1h14h15q1 0 1 -2v-1zM455 308h-81v33h15v19h-30q-22 0 -34.5 11.5t-12.5 28.5t12.5 28.5t34.5 11.5h96v-34h-14v-65h14v-33zM826 272h-685v4h685v-4zM694 47h-8h-6
q-1 0 -1 1v0q0 1 1 1q5 0 5 5l-1 19l-25 -27h-1h-2v28q0 2 -0.5 3.5t-5.5 1.5v2v1q2 0 3.5 -0.5t3.5 -0.5t4 0.5t4 0.5v-1v-2q-5 0 -5.5 -1.5t-0.5 -3.5v-17l24 25q2 0 2.5 -0.5t2.5 -0.5t2.5 0.5t2.5 0.5v-1v-2q-6 0 -6 -5l1 -20q0 -5 6 -5v-1v-1zM203 520q0 -1 -1 -1
q-4 0 -6.5 0.5t-6.5 0.5q-5 0 -8 -0.5t-7 -0.5q-1 0 -1 1v1v1q8 1 8 5v4l-4 14q-4 0 -5 -3l-12 -23q-6 0 -10.5 -0.5t-7.5 -0.5q-2 0 -2 1q0 2 1 2q9 1 14 9l8 16q-7 2 -13 6.5t-6 10.5q0 13 20 13q5 0 7.5 -0.5t6.5 -0.5t6 0.5t7 0.5v-2v-1q-8 -1 -8 -5q0 -3 1 -4l7 -33
q2 -4 3 -5.5t8 -3.5l0.5 -0.5t0.5 -1.5zM522 173q0 -2 -1 -2q-2 0 -4 0.5t-5 0.5q-4 0 -7 -0.5t-5 -0.5l-1 2q0 2 1 2q8 1 6 9l-5 30l-31 -44h-2q-1 0 -1 1l-8 45q-2 8 -10 9v2v1q3 0 5 -0.5t5 -0.5q4 0 6.5 0.5t4.5 0.5t2 -2v-1h-1q-9 -1 -7 -9l4 -28l30 40h9h5q2 0 2 -2
v-1h-1q-9 -1 -9 -6q0 -2 1 -3l7 -32q0 -8 9 -9zM632 46q-3 1 -8 1h-9q-8 0 -12 -1q-1 7 -4 11q0 1 1 1h1q3 -9 12 -9h2q4 0 4 4v11h-4q-2 0 -3.5 -0.5t-2.5 -5.5h-1v6v7v1q1 0 1 -1v0q1 -5 6 -5h4v9q0 4 -4 4h-2q-8 0 -10 -7q0 -1 -1 -1v1q0 3 0.5 5t1.5 5q3 0 5.5 -0.5
t6.5 -0.5q3 0 8 0.5t8 0.5v-1v-2q-5 0 -5.5 -1.5t-0.5 -3.5v-20q0 -2 0.5 -3.5t5.5 -1.5v-1v-2zM582 81q0 -2 -1 -2q-2 0 -6 -6l-12 -27h-1l-9 15l-7 -15h-1h-1l-12 27q-2 3 -2.5 4.5t-3.5 1.5v2v1q2 0 2.5 -0.5t2.5 -0.5t3 0.5t3 0.5q1 0 1 -1v0q0 -2 -1 -2q-2 0 -2 -3v-3
l8 -18l7 13l-3 5q-3 6 -7 6q-1 0 -1 2v1q2 0 3.5 -0.5t3.5 -0.5t2.5 0.5t2.5 0.5q3 0 4 -0.5t3 -0.5q3 0 3.5 0.5t3.5 0.5l1 -1q0 -1 -0.5 -1.5l-0.5 -0.5q-5 0 -6 -6l-5 -9l6 -9l9 19v2q0 3 -2 3v2v1q3 0 4.5 -0.5t3.5 -0.5t3 0.5t4 0.5v-1zM826 128h-685v4h685v-4z
M277 308h-141v61h41v-28h33v21h-24v24h24v20h-33v-28h-41v62h141v-34h-14v-65h14v-33zM413 171q-3 1 -8 1h-9h-15q-13 0 -24 9t-11 25q0 11 8 17t17 6q3 0 6.5 -0.5t8.5 -0.5h15v-2v-1q-7 -1 -7 -5v-4l8 -32q1 -5 2 -6.5t8 -2.5q1 0 1 -1v-1v-2zM479 79q-5 0 -7 -5l-8 -12
v-8q0 -5 5 -5q1 0 1 -1v0q0 -2 -1 -2q-2 0 -4 0.5t-4 0.5q-4 0 -5.5 -0.5t-3.5 -0.5v2v1q5 0 5 5v8l-8 12q-4 5 -8 5v2v1q2 0 3 -0.5t3 -0.5t4 0.5t4 0.5v-1v-2q-4 0 -4 -3v-1l1 -1l6 -9l6 9q1 1 1 3t-2 2q-1 0 -1 2v0q0 1 1 1q2 0 3.5 -0.5t4.5 -0.5t4.5 0.5t3.5 0.5v-1v-2
zM306 173q0 -1 -0.5 -1.5l-0.5 -0.5q-4 0 -6 0.5t-7 0.5t-7.5 -0.5t-7.5 -0.5l-1 2q0 2 1 2q7 1 7 5v4l-3 13q-4 0 -6 -3l-12 -22q-6 0 -10 -0.5t-8 -1.5h-1v2q0 1 1 1q9 3 12 10l9 16q-7 1 -12.5 6t-5.5 11q0 12 19 12h14h12q2 0 2 -2v-1h-1q-7 -1 -7 -5v-4l8 -32
q1 -5 2 -6.5t8 -2.5zM424 64q0 -8 -5.5 -13t-14.5 -5t-14 5t-5 13t5 13t14 5t14.5 -5t5.5 -13zM364 48q0 -2 -1 -2q-2 0 -3.5 0.5t-5.5 0.5q-3 0 -4.5 -0.5t-3.5 -0.5q-1 0 -1 2v0q0 1 1 1q5 0 5 5v9q-3 0 -4 -1t-3 -4l-6 -11h-6h-6v1v1q5 0 7 4l8 11q-8 3 -8 9q0 9 12 9
q3 0 4.5 -0.5t4.5 -0.5t5 0.5t4 0.5q1 0 1 -1v0q0 -2 -1 -2q-5 0 -5 -5v-20q0 -5 5 -5q1 0 1 -1v0zM202 215h-2l-4.5 4.5t-7.5 2.5q-9 0 -9 -13q0 -8 3 -17l2 -8q1 -5 2 -6.5t8 -2.5l1 -2q0 -1 -0.5 -1.5l-0.5 -0.5q-4 0 -6 0.5t-6 0.5q-5 0 -7.5 -0.5t-7.5 -0.5q-1 0 -1 1
v1v2q7 1 7 5v4l-1 6q-4 14 -9 23.5t-15 9.5q-8 0 -8 -6h-3v1q0 5 2 8.5t7 3.5q8 0 14.5 -6.5t9.5 -16.5v5q0 18 14 18q8 0 11.5 -4t6.5 -9q2 0 0 -2zM308 46q-2 0 -4 0.5t-5 0.5t-4.5 -0.5t-4.5 -0.5v2v1q5 0 5.5 1.5t0.5 3.5v9q-2 0 -4 -2l-7 -8q-1 -1 -1 -2q0 -2 3 -2v-1
v-2q-3 0 -5.5 0.5t-4.5 0.5q-3 0 -4.5 -0.5t-3.5 -0.5q-1 0 -1 2l1 1q3 0 7 4l13 13l-9 9l-3 3t-5 1v2v1q2 0 3 -0.5t3 -0.5t3.5 0.5t3.5 0.5v-1v-2q-3 0 -3 -1t2 -3l8 -8q1 -3 4 -3v10q0 2 -0.5 3.5t-5.5 1.5v2v1q3 0 4.5 -0.5t4.5 -0.5t5 0.5t4 0.5v-1v-2q-6 0 -6 -5v-20
q0 -5 6 -5v-1v-2zM683 535q0 16 -7.5 28t-16.5 12q-12 0 -12 -15t7.5 -27t16.5 -12q12 0 12 14zM565 553q-2 1 -7 1q-4 0 -4 -3q0 -2 4 -2t7 4zM713 188q0 15 -6.5 27t-17.5 12q-10 0 -10 -14q0 -16 6.5 -28t17.5 -12q10 0 10 15zM270 553q-2 1 -7 1q-3 0 -3 -3q0 -2 3 -2
q4 0 7 4zM389 384v22h-11q-13 0 -13 -11t13 -11h11zM176 548l-3 18q-2 6 -9 6q-8 0 -8 -9q0 -5 3 -10t12 -5h5zM554 77q0 2 -3 2q-2 0 -2 -3l0.5 -1.5t1.5 -3.5q3 4 3 6zM392 182l-9 36q-2 5 -3 5.5t-3 0.5l-6 1q-14 0 -14 -18q0 -12 7.5 -21.5t18.5 -9.5h5q2 0 3 0.5t1 5.5
zM280 201l-5 17q0 7 -7 7q-8 0 -8 -10q0 -5 3 -9.5t12 -4.5h5zM416 64q0 7 -2.5 12t-9.5 5q-6 0 -9 -5t-3 -12q0 -16 12 -16t12 16zM351 65v10q0 4 -4 4q-7 0 -7 -6q0 -8 8 -8h3z" />
    <glyph glyph-name="fi" unicode="&#xfb01;" horiz-adv-x="573" 
d="M547 0q1 0 1.5 3.5t0.5 7.5q0 5 -0.5 8.5t-1.5 3.5h-56q-7 0 -7 4v395q0 3 -2 3h-258q-8 0 -8 4v170q0 33 9.5 55.5t24.5 36.5t34 20t39 6q44 0 60 -14.5t16 -48.5q0 -12 -2.5 -18.5t-5.5 -12t-5.5 -11.5t-2.5 -17q0 -19 13.5 -31.5t42.5 -12.5q26 0 42 18t16 41
q0 21 -9 44t-28 43t-48 33t-68 13q-53 0 -96 -15t-73 -49.5t-46.5 -91t-16.5 -138.5v-20q0 -4 -6 -4h-71q-1 0 -1.5 -3.5t-0.5 -8.5q0 -4 0.5 -7.5t1.5 -3.5h71q6 0 6 -4v-371q0 -4 -6 -4h-58l-0.5 -3.5t-0.5 -8.5q0 -4 0.5 -7.5l0.5 -3.5h231q1 0 1.5 3.5t0.5 7.5
q0 5 -0.5 8.5t-1.5 3.5h-55q-8 0 -8 4v371q0 4 8 4h149q7 0 7 -4v-371q0 -4 -7 -4h-55q-2 0 -2.5 -3.5t-0.5 -8.5q0 -4 0.5 -7.5t2.5 -3.5h229z" />
    <glyph glyph-name="fl" unicode="&#xfb02;" horiz-adv-x="563" 
d="M547 0q1 0 1.5 3.5t0.5 7.5q0 5 -0.5 8.5t-1.5 3.5h-56q-7 0 -7 4v713q0 3 -2 3q-5 0 -18.5 -3t-27.5 -6t-26.5 -6t-16.5 -3q-6 0 -22 9t-48 9q-36 0 -73.5 -12.5t-68 -45.5t-50 -90t-19.5 -146v-20q0 -4 -6 -4h-71q-1 0 -1.5 -3.5t-0.5 -8.5q0 -4 0.5 -7.5t1.5 -3.5h71
q6 0 6 -4v-371q0 -4 -6 -4h-58l-0.5 -3.5t-0.5 -8.5q0 -4 0.5 -7.5l0.5 -3.5h231q1 0 1.5 3.5t0.5 7.5q0 5 -0.5 8.5t-1.5 3.5h-55q-8 0 -8 4v371q0 4 8 4h156v-375q0 -4 -7 -4h-55q-2 0 -2.5 -3.5t-0.5 -8.5q0 -4 0.5 -7.5t2.5 -3.5h229zM380 425h-156q-8 0 -8 4v170
q0 33 8.5 55.5t23.5 36.5t34.5 20t40.5 6q20 0 38.5 -6.5t18.5 -14.5v-271z" />
    </font>
</defs>
</svg>
