<?xml version="1.0" standalone="no"?>
<!DOCTYPE svg PUBLIC "-//W3C//DTD SVG 1.1//EN" "http://www.w3.org/Graphics/SVG/1.1/DTD/svg11.dtd" >
<svg xmlns="http://www.w3.org/2000/svg" xmlns:xlink="http://www.w3.org/1999/xlink" version="1.1">
<metadata>
Created by FontForge 20170731 at Sun Jan 22 10:59:12 2006
 By Aleksey,,,
HTF Didot   1992 The Hoefler Type Foundry, Inc. This typeface and the digital software that describes it are the exclusive property of HTF. HTF Didot is a trademark of The Hoefler Type Foundry, Inc.
</metadata>
<defs>
<font id="Didot-HTF-L11-Light-Ital" horiz-adv-x="709" >
  <font-face 
    font-family="Didot"
    font-weight="500"
    font-style="italic"
    font-stretch="normal"
    units-per-em="1000"
    panose-1="2 0 6 3 8 0 0 2 0 4"
    ascent="800"
    descent="-200"
    x-height="434"
    cap-height="709"
    bbox="-233 -354 1090.89 973.889"
    underline-thickness="20"
    underline-position="-163"
    unicode-range="U+0020-FB02"
  />
<missing-glyph horiz-adv-x="500" 
 />
    <glyph glyph-name=".notdef" horiz-adv-x="500" 
 />
    <glyph glyph-name=".null" horiz-adv-x="0" 
 />
    <glyph glyph-name="nonmarkingreturn" horiz-adv-x="200" 
 />
    <glyph glyph-name="space" unicode=" " horiz-adv-x="200" 
 />
    <glyph glyph-name="space" unicode="&#xa0;" horiz-adv-x="200" 
 />
    <glyph glyph-name="exclam" unicode="!" horiz-adv-x="276" 
d="M321 688q0 16 -9 27t-28 11q-20 0 -39.5 -14t-31.5 -52q-6 -18 -13 -49t-15 -71.5t-18 -87.5t-21 -96.5t-23 -98.5t-26 -93q-1 -2 2 -2.5t7 -0.5t7.5 0.5t4.5 2.5q14 44 34.5 96.5t43 106.5t45 105.5t40.5 95t29 75.5t11 45zM116 52q0 18 -10.5 29t-27.5 11
q-24 0 -42.5 -19.5t-18.5 -45.5q0 -18 10.5 -29t27.5 -11q24 0 42.5 19.5t18.5 45.5z" />
    <glyph glyph-name="quotedbl" unicode="&#x22;" horiz-adv-x="331" 
d="M382 689q0 37 -33 37q-13 0 -22 -10.5t-13 -22.5q-5 -14 -9.5 -37t-9 -50t-8.5 -55.5t-8 -53.5l-1.5 -5t-0.5 -6q-1 -2 1.5 -3t5.5 -1q4 0 7 1t4 3q1 0 2.5 5l1.5 5q12 22 26 49.5t27 54t21.5 50.5t8.5 39zM232 689q0 37 -33 37q-13 0 -22 -10.5t-13 -22.5
q-5 -14 -9.5 -37t-9 -50t-8.5 -55.5t-8 -53.5l-1.5 -5t-0.5 -6q-1 -2 1.5 -3t5.5 -1q4 0 7 1t4 3q1 0 2.5 5l1.5 5q12 22 26 49.5t27 54t21.5 50.5t8.5 39z" />
    <glyph glyph-name="numbersign" unicode="#" horiz-adv-x="458" 
d="M443 297q1 0 1 10t-1 10h-104l39 150q0 1 -2.5 1.5t-6 1t-6.5 0.5t-3 -1l-40 -152h-111l39 150q0 2 -8 3t-9 -1l-40 -152h-99q-2 0 -2 -10t2 -10h93l-37 -151h-101q-2 0 -2 -10t2 -10h94l-44 -167q0 -2 9 -3t10 1l43 169h113l-44 -167q-1 -2 8 -3t9 1l44 169h110
q2 0 2 10t-2 10h-104l38 151h110zM316 297l-39 -151h-112l39 151h112z" />
    <glyph glyph-name="dollar" unicode="$" horiz-adv-x="528" 
d="M561 588q0 44 -25.5 79.5t-71.5 50.5l27 87q0 1 -3 2t-7 2t-7.5 1.5t-3.5 -0.5l-27 -87q-16 4 -37 4h-16l24 78q0 1 -3 2t-7 2t-7.5 1.5t-3.5 -0.5l-27 -87q-41 -6 -74 -25t-56 -47.5t-35.5 -64.5t-12.5 -77q0 -49 18 -85t44 -66l-8 -25.5t-20 -64.5t-26 -83.5
t-26.5 -83.5t-20.5 -64.5l-8 -25.5q-44 11 -70 37.5t-26 61.5q0 40 26 40q10 0 17 -2.5t12 -5t11 -5t15 -2.5q16 0 26.5 11t10.5 34q0 21 -15 34t-35 13q-40 0 -67 -28t-27 -82q0 -39 30.5 -74.5t85.5 -50.5l-29 -93q0 -1 3 -2t7 -2t7.5 -1.5t3.5 0.5l30 93q11 -2 23 -3
t24 -1h5l-26 -84q0 -1 3 -2t7 -2t7.5 -1.5t3.5 0.5l29 90q55 4 95.5 25.5t67 53.5t39 72t12.5 82q0 57 -25.5 99t-59.5 79l96 304q42 -14 62 -44.5t20 -56.5q0 -20 -4.5 -33.5t-19.5 -13.5q-9 0 -15 2t-11 5t-10 5t-13 2q-14 0 -23.5 -10.5t-9.5 -31.5q0 -18 12 -29t31 -11
q34 0 59 26.5t25 78.5zM437 704l-92 -290q-11 11 -20.5 22t-19.5 22q1 2 8.5 26t19 61.5t23 73.5t19.5 61.5l8 25.5q5 1 11 1h12q16 0 31 -3zM360 702l-7.5 -23t-18 -55.5t-21.5 -67t-17.5 -56t-7.5 -23.5q-17 24 -28.5 50t-11.5 56q0 40 26 74t86 45zM381 160
q0 -31 -7.5 -58t-24.5 -47t-44 -33t-67 -17l9.5 28.5t22 68t25.5 81.5t21 68.5t9 28.5q24 -26 40 -55t16 -65zM309 297q-2 -6 -9.5 -29.5t-17.5 -55.5t-21.5 -68.5t-21.5 -67t-16.5 -51.5t-7.5 -22h-8q-25 0 -44 3l8 24.5t19.5 62t25 80.5t25 80t19 61.5l7.5 24.5
q11 -11 21.5 -21t20.5 -21z" />
    <glyph glyph-name="percent" unicode="%" horiz-adv-x="692" 
d="M376 587q0 60 -30.5 93t-77.5 33q-46 0 -84.5 -21.5t-67 -54.5t-44.5 -73.5t-16 -79.5q0 -60 30.5 -93t78.5 -33q45 0 84 21.5t67 54.5t44 73.5t16 79.5zM573 725q0 1 -2.5 3t-5.5 4t-6 3.5t-3 0.5l-411 -749q-1 -2 6.5 -7.5t8.5 -3.5zM662 220q0 60 -31 93t-79 33
q-45 0 -83.5 -21.5t-67 -54.5t-44.5 -73.5t-16 -79.5q0 -60 31 -93t78 -33q45 0 84 21.5t67.5 54.5t44.5 73.5t16 79.5zM314 625q0 -23 -4.5 -55t-15 -65.5t-26.5 -63t-38 -45.5q-14 -11 -29 -14.5t-32 -3.5q-29 0 -40 16t-11 52q0 22 4.5 54.5t15 66t26 62.5t38.5 46
q14 11 29 14.5t32 3.5q29 0 40 -16t11 -52zM600 258q0 -23 -4.5 -55t-14.5 -65.5t-26 -63t-39 -45.5q-14 -11 -29 -14.5t-32 -3.5q-29 0 -40.5 16t-11.5 52q0 22 5 54.5t15 66t26 62.5t39 46q14 11 29 14.5t32 3.5q29 0 40 -16t11 -52z" />
    <glyph glyph-name="ampersand" unicode="&#x26;" horiz-adv-x="746" 
d="M731 331q0 29 -20 48.5t-58 19.5q-33 0 -59.5 -25t-49 -61t-43 -76.5t-42.5 -71.5q-32 67 -53 145.5t-20 174.5q78 38 122 82.5t44 89.5q0 31 -18.5 50t-55.5 19t-71 -19.5t-60.5 -55t-42.5 -86.5t-16 -114q-62 -22 -109 -53.5t-79 -69.5t-48 -81t-16 -87
q0 -40 13.5 -72.5t37 -56t55 -36t67.5 -12.5q66 0 111.5 20.5t80.5 50.5q14 -17 29 -30.5t32.5 -22.5t40 -13.5t51.5 -4.5q32 0 60.5 9.5t51 24.5t37.5 34t21 38q0 1 -2.5 2.5t-6 2.5t-7 1.5t-3.5 -0.5q-11 -28 -33 -47t-54 -19q-38 0 -79.5 29t-71.5 89q21 29 39 64t35 65
t34.5 50t37.5 20q18 0 23.5 -9.5t9 -20.5t10.5 -20.5t27 -9.5q24 0 36 14t12 31zM532 662q0 -46 -37 -83t-109 -72q1 36 7.5 71t19.5 62.5t32.5 44.5t46.5 17q40 0 40 -40zM390 69q-24 -22 -57 -37.5t-59 -15.5q-34 0 -61 14t-46.5 39.5t-30 61.5t-10.5 79q0 86 38 138
t123 82q0 -63 8 -115t21.5 -96t32.5 -80.5t41 -69.5z" />
    <glyph glyph-name="quotesingle" unicode="'" horiz-adv-x="181" 
d="M232 689q0 37 -33 37q-13 0 -22 -10.5t-13 -22.5q-5 -14 -9.5 -37t-9 -50t-8.5 -55.5t-8 -53.5l-1.5 -5t-0.5 -6q-1 -2 1.5 -3t5.5 -1q4 0 7 1t4 3q1 0 2.5 5l1.5 5q12 22 26 49.5t27 54t21.5 50.5t8.5 39z" />
    <glyph glyph-name="parenleft" unicode="(" horiz-adv-x="295" 
d="M467 722q2 1 -1 9t-5 7q-85 -48 -162.5 -119.5t-136 -160.5t-93 -191.5t-34.5 -211.5q0 -111 31.5 -182t84.5 -117q2 -1 7.5 5t4.5 7q-21 18 -36 36t-24 40.5t-13 50t-4 63.5q0 23 8.5 64.5t23 93.5t33.5 111.5t41 117.5t45.5 111.5t46.5 94.5q29 54 75 95t108 76z" />
    <glyph glyph-name="parenright" unicode=")" horiz-adv-x="295" 
d="M242 440q0 55 -8.5 100.5t-23.5 82t-36.5 65t-47.5 51.5q-2 1 -7.5 -5t-4.5 -7q21 -18 36 -36t24 -40.5t13 -50t4 -63.5q0 -23 -8.5 -64.5t-23 -93.5t-33.5 -111.5t-41 -117.5t-45.5 -111.5t-46.5 -94.5q-29 -54 -75 -95t-108 -76q-2 -1 1 -9t5 -7q85 48 162.5 119.5
t136 160.5t93 191.5t34.5 211.5z" />
    <glyph glyph-name="asterisk" unicode="*" horiz-adv-x="290" 
d="M345 630q2 8 -2.5 17t-14.5 11q-7 0 -11 -1q-9 -3 -14 -8t-12 -10.5t-17.5 -12t-30.5 -13.5l-6 -2l1 6q3 21 7.5 33t9 19.5t8 13.5t5.5 15t-3.5 15.5t-14.5 8.5t-16 -3t-9 -14t-0.5 -15.5t3 -15t2 -21t-3.5 -33.5l-1 -7l-5 5q-17 13 -24.5 23t-12 17.5t-8 13.5t-10.5 12
q-4 2 -10 4q-9 2 -16 -5t-9 -15q-2 -11 7 -18q7 -6 13.5 -8t14.5 -5t19 -9t28 -19l3 -3l-5 -3q-20 -7 -32.5 -9t-21.5 -2h-16t-16 -3t-13 -15q-2 -8 3 -16.5t14 -10.5q8 0 11 1q9 3 14 8t12 10.5t18 12t31 13.5l7 2l-2 -6q-3 -21 -8 -33t-9.5 -19.5t-8 -13.5t-5.5 -15
t3.5 -15.5t14.5 -8.5t16 3t9 13q2 9 1 16t-2.5 15.5t-2 21t3.5 33.5l1 6l5 -4q16 -14 24 -23.5t12.5 -17t8 -13.5t10.5 -12q3 -2 9 -4q10 -2 17 5t9 15q2 9 -7 18q-7 6 -13.5 8t-15 5t-19.5 8.5t-27 19.5l-3 4l4 2q20 7 32.5 9t21.5 2h16t16 3q11 3 13 14z" />
    <glyph glyph-name="plus" unicode="+" horiz-adv-x="402" 
d="M352 199q1 0 1 4v9v10t-1 4h-130v150q0 1 -4 1h-9h-8t-4 -1v-150h-136q-1 0 -1.5 -4t-0.5 -10q0 -5 0.5 -9t1.5 -4h136v-143q0 -1 4 -1.5t8 -0.5q5 0 9 0.5t4 1.5v143h130z" />
    <glyph glyph-name="comma" unicode="," horiz-adv-x="196" 
d="M120 42q0 17 -10.5 34t-34.5 17q-26 0 -40 -16.5t-14 -41.5q0 -11 3 -19.5t6.5 -16t6.5 -15t3 -17.5q0 -16 -6.5 -27.5t-17 -20.5t-23 -16t-25.5 -13q-9 -4 -19.5 -7.5t-21.5 -5.5q-1 0 -1.5 -3.5t-0.5 -6.5v-7q0 -4 1 -4q41 8 76.5 28.5t61.5 47t41 55.5t15 55z" />
    <glyph glyph-name="hyphen" unicode="-" horiz-adv-x="322" 
d="M295 267q4 4 0 4h-250q-2 -17 -6 -33.5t-12 -27.5q-2 -4 0 -4h250q2 17 6 33.5t12 27.5z" />
    <glyph glyph-name="period" unicode="." horiz-adv-x="196" 
d="M120 52q0 18 -10.5 29.5t-27.5 11.5q-24 0 -42.5 -20t-18.5 -46q0 -18 10.5 -29t27.5 -11q24 0 42.5 19.5t18.5 45.5z" />
    <glyph glyph-name="slash" unicode="/" horiz-adv-x="328" 
d="M386 754q1 2 -8 6t-10 2l-317 -777q0 -1 2.5 -2.5t5.5 -3t5.5 -2.5t2.5 0z" />
    <glyph glyph-name="zero" unicode="0" horiz-adv-x="542" 
d="M482 267q0 37 -14 68t-37 53t-53.5 34.5t-64.5 12.5q-50 0 -99 -23t-87.5 -61.5t-62.5 -88t-24 -103.5q0 -37 13.5 -68t37 -53t54 -34.5t64.5 -12.5q50 0 99 23t87.5 61.5t62.5 88t24 103.5zM417 312q0 -20 -7.5 -52.5t-19 -66t-24 -63.5t-21.5 -44q-11 -17 -23 -31
t-27.5 -24t-36 -15t-49.5 -5q-28 0 -48 8.5t-32.5 22.5t-18 32.5t-5.5 39.5q0 20 7.5 52.5t19 66t24 63.5t21.5 44q11 17 23 31t27.5 23.5t35.5 15t49 5.5q57 0 81 -30.5t24 -72.5z" />
    <glyph glyph-name="one" unicode="1" horiz-adv-x="357" 
d="M345 426h-221q-1 0 -2 -3t-2.5 -7t-2 -7t0.5 -3h65q6 0 5 -4l-119 -378q-1 -4 -8 -4h-64q-1 0 -2.5 -3t-2.5 -7t-2 -7t0 -3h221q2 0 5 10t1 10h-64q-6 0 -5 4l119 378q0 4 7 4h65q1 0 2 3t2.5 7t2 7t-0.5 3z" />
    <glyph glyph-name="two" unicode="2" horiz-adv-x="437" 
d="M385 134q0 2 -10 2t-10 -2q-11 -35 -31 -52.5t-62 -17.5h-162q-10 0 -3 4q132 66 195.5 128t63.5 123q0 56 -38 86t-95 30q-30 0 -54.5 -10t-42 -25.5t-27 -35.5t-9.5 -41q0 -36 19 -53t51 -17q15 0 26 9.5t11 25.5q0 17 -8 25.5t-19 8.5q-7 0 -10.5 -1.5t-7 -3.5
t-8 -3.5t-12.5 -1.5q-12 0 -14.5 3.5t-2.5 17.5q0 11 5 24t15 24.5t25.5 19t36.5 7.5q38 0 58.5 -18.5t20.5 -60.5q0 -38 -19.5 -80t-61 -83.5t-105 -80t-151.5 -69.5q-5 -2 -4 -9t3 -7h392q3 0 3 3z" />
    <glyph glyph-name="three" unicode="3" horiz-adv-x="401" 
d="M340 325q0 15 -4.5 34.5t-18.5 36t-39.5 28t-67.5 11.5q-35 0 -60 -9.5t-41.5 -24.5t-24.5 -33t-8 -35q0 -33 19 -56t48 -23q15 0 26.5 9.5t11.5 25.5q0 17 -8 25.5t-20 8.5q-7 0 -10.5 -1.5t-7 -3.5t-7.5 -3.5t-12 -1.5q-10 0 -12.5 8.5t-2.5 20.5q0 9 4 20.5t14 22
t26 17.5t39 7q36 0 55.5 -20t19.5 -53q0 -78 -50 -139.5t-159 -112.5q-2 -1 3 -8t8 -5q34 19 52.5 23t32.5 4q20 0 39 -14.5t19 -54.5q0 -66 -12 -120.5t-38 -93.5t-66 -60.5t-95 -21.5q-49 0 -70 20t-21 41q0 17 9 27t23 10q9 0 15 -2t11 -5t10 -5t13 -2q14 0 23.5 10.5
t9.5 30.5q0 19 -13 31t-32 12q-45 0 -71 -28t-26 -70q0 -39 30.5 -64.5t87.5 -25.5q46 0 98.5 21t97 58.5t74 90.5t29.5 116q0 60 -30 92.5t-84 32.5q-8 0 -15.5 -1t-18.5 -4q33 12 67.5 34.5t63.5 51t47.5 60t18.5 60.5z" />
    <glyph glyph-name="four" unicode="4" horiz-adv-x="451" 
d="M510 537q1 1 -5 7t-7 4q-13 -14 -33 -27t-41 -22.5t-40.5 -13t-32.5 2.5l-292 -357q-26 -33 -53.5 -63.5t-49.5 -51.5q-2 -2 1 -9t5 -7h249l-87 -278h79l87 278h104q1 0 2.5 3t2.5 7t2 7t0 3h-105l66 209q0 2 -10 2t-11 -2q-5 -13 -13 -28t-19 -28.5t-25 -23t-30 -10.5
l-37 -119h-232z" />
    <glyph glyph-name="five" unicode="5" horiz-adv-x="421" 
d="M406 418q0 16 -5 24t-25 8q-11 0 -25 -8.5t-32.5 -18.5t-42.5 -18.5t-55 -8.5q-29 0 -48.5 10.5t-27.5 22.5q-1 1 -7.5 -2.5t-6.5 -5.5q-1 -2 -0.5 -3t-1.5 -6l-76 -334q-2 -6 -6.5 -15.5t-6.5 -14.5q-2 -6 3 -8.5t8 -2.5q2 0 8.5 1t7.5 4q3 8 3 15q0 8 7 21
q20 32 43.5 46t53.5 14q29 0 48 -18t19 -58q0 -74 -15 -134.5t-44 -104t-72.5 -67t-100.5 -23.5q-49 0 -70.5 20t-21.5 41q0 17 10.5 27t22.5 10q9 0 15 -2t10.5 -5t10 -5t13.5 -2q14 0 23.5 10.5t9.5 30.5q0 19 -13.5 31t-31.5 12q-45 0 -71 -28t-26 -70q0 -39 30 -64.5
t88 -25.5q51 0 107 25t103.5 68t78 98.5t30.5 117.5q0 63 -37 101t-100 38q-39 0 -64 -13t-44 -37l63 279q11 -20 43.5 -34.5t70.5 -14.5q69 0 108 20.5t39 56.5z" />
    <glyph glyph-name="six" unicode="6" horiz-adv-x="500" 
d="M542 621q0 42 -24 67t-76 25q-43 0 -89 -25t-90 -67t-83.5 -97.5t-69 -117t-47 -125t-17.5 -121.5q0 -45 13 -77t34.5 -52t48.5 -29.5t56 -9.5q46 0 90.5 21t79.5 56.5t56.5 81t21.5 95.5q0 34 -12.5 62.5t-33.5 49t-49 32t-59 11.5q-36 0 -70 -17.5t-57 -52.5
q20 72 47.5 138t62 115.5t76.5 79t90 29.5q40 0 57 -14.5t17 -37.5q0 -16 -8 -23.5t-18 -7.5t-16 2t-10.5 5t-10 5t-13.5 2q-14 0 -23.5 -10t-9.5 -31q0 -19 13.5 -30.5t31.5 -11.5q17 0 33.5 6.5t29 17t20.5 25t8 31.5zM378 293q0 -18 -5.5 -48.5t-14 -62t-18.5 -59.5
t-19 -41q-13 -20 -24.5 -33t-25.5 -21.5t-32.5 -12t-43.5 -3.5q-81 0 -81 79q0 65 14.5 119t29.5 82q9 18 22.5 34t30 28t36 19.5t40.5 7.5q48 0 69.5 -23.5t21.5 -64.5z" />
    <glyph glyph-name="seven" unicode="7" horiz-adv-x="444" 
d="M459 427h-9h-332q-3 0 -4 -3l-51 -162q0 -1 3 -1.5t7 -0.5t7.5 0.5t3.5 1.5q7 22 15 41.5t20 34t28.5 22.5t40.5 8h210l-470 -645h98l326 545q11 19 24.5 39t27.5 39.5t28 37t26 30.5q2 2 2 7q0 6 -1 6z" />
    <glyph glyph-name="eight" unicode="8" horiz-adv-x="495" 
d="M519 579q0 23 -9.5 47t-27.5 43.5t-43.5 31.5t-56.5 12q-44 0 -79.5 -14t-61 -39.5t-39.5 -61.5t-14 -79q0 -47 18.5 -81.5t50.5 -69.5q-49 -20 -89.5 -45.5t-70 -55.5t-46 -65t-16.5 -74q0 -28 11.5 -53t32 -43.5t49 -29.5t61.5 -11q47 0 88.5 15t72.5 42t49 66t18 87
q0 30 -7 55t-18 47.5t-26 43t-31 40.5q89 39 136.5 85.5t47.5 106.5zM462 603q0 -24 -5.5 -51.5t-20.5 -55t-42.5 -52.5t-71.5 -44q-16 20 -30 39t-24 38.5t-16 41.5t-6 49q0 60 32 92.5t97 32.5q47 0 67 -26t20 -64zM350 178q0 -44 -11 -75.5t-31 -51.5t-47.5 -30
t-59.5 -10q-45 0 -71.5 27t-26.5 87q0 54 13.5 91t36 62.5t53 42.5t63.5 31q33 -41 57 -81.5t24 -92.5z" />
    <glyph glyph-name="nine" unicode="9" horiz-adv-x="505" 
d="M445 267q0 45 -13 77t-34.5 52t-49 29.5t-55.5 9.5q-46 0 -91.5 -24t-81.5 -62t-58 -87t-22 -98q0 -34 12 -62.5t33 -49t49 -32t59 -11.5q36 0 71.5 18t56.5 50q-14 -51 -42.5 -111t-65 -112t-79 -86.5t-84.5 -34.5q-41 0 -60.5 14.5t-19.5 34.5q0 19 8.5 29t21.5 10
q10 0 15 -2.5t9.5 -5l9 -5t12.5 -2.5q14 0 23.5 10t9.5 31q0 19 -13.5 30.5t-31.5 11.5q-21 0 -37.5 -7.5t-28.5 -20.5t-18.5 -29t-6.5 -34q0 -40 26 -62.5t80 -22.5q43 0 89 25t90 67t83.5 97.5t69 117t47 125.5t17.5 122zM383 332q0 -18 -5.5 -48t-13 -61.5t-17 -59.5
t-16.5 -42q-23 -45 -60.5 -68.5t-71.5 -23.5q-27 0 -46 7.5t-31 19.5t-17.5 26.5t-5.5 28.5q0 18 8.5 53t20 71.5t24.5 68.5t22 46q20 32 46.5 48.5t75.5 16.5t68 -25t19 -58z" />
    <glyph glyph-name="colon" unicode=":" horiz-adv-x="261" 
d="M209 344q0 18 -10.5 29.5t-27.5 11.5q-24 0 -42.5 -20t-18.5 -46q0 -18 10.5 -29t27.5 -11q24 0 42.5 19.5t18.5 45.5zM120 52q0 18 -10.5 29.5t-27.5 11.5q-24 0 -42.5 -20t-18.5 -46q0 -18 10.5 -29t27.5 -11q24 0 42.5 19.5t18.5 45.5z" />
    <glyph glyph-name="semicolon" unicode=";" horiz-adv-x="261" 
d="M209 344q0 18 -10.5 29.5t-27.5 11.5q-24 0 -42.5 -20t-18.5 -46q0 -18 10.5 -29t27.5 -11q24 0 42.5 19.5t18.5 45.5zM120 42q0 17 -10.5 34t-34.5 17q-26 0 -40 -16.5t-14 -41.5q0 -11 3 -19.5t6.5 -16t6.5 -15t3 -17.5q0 -16 -6.5 -27.5t-17 -20.5t-23 -16t-25.5 -13
q-9 -4 -19.5 -7.5t-21.5 -5.5q-1 0 -1.5 -3.5t-0.5 -6.5v-7q0 -4 1 -4q41 8 76.5 28.5t61.5 47t41 55.5t15 55z" />
    <glyph glyph-name="less" unicode="&#x3c;" horiz-adv-x="325" 
d="M279 92l-194 121l194 122q1 0 0 3.5t-3 7t-3.5 6t-2.5 2.5l-218 -134q-1 -1 -1 -7q0 -5 1 -6l218 -134q1 -1 2.5 2t3.5 6.5t3 7t0 3.5z" />
    <glyph glyph-name="equal" unicode="=" horiz-adv-x="365" 
d="M310 262v20h-253q-2 0 -2 -10t2 -10h253zM310 143v19h-253q-2 0 -2 -10q0 -9 2 -9h253z" />
    <glyph glyph-name="greater" unicode="&#x3e;" horiz-adv-x="335" 
d="M286 206v13l-219 134q-1 1 -2.5 -2t-3.5 -6.5t-3 -7t0 -3.5l194 -121l-194 -122q-1 0 0 -3.5t3 -7t3.5 -6t2.5 -2.5z" />
    <glyph glyph-name="question" unicode="?" horiz-adv-x="456" 
d="M480 556q0 34 -12 64.5t-33.5 54t-50.5 37t-63 13.5q-37 0 -67.5 -12.5t-52.5 -32t-34 -42.5t-12 -44q0 -20 13.5 -35.5t34.5 -15.5q24 0 35.5 11t11.5 27q0 9 -2 14t-4.5 10t-4.5 11t-2 17q0 39 18.5 55.5t68.5 16.5q39 0 65.5 -22t26.5 -67q0 -18 -8 -51t-18.5 -68.5
t-22.5 -66t-19 -44.5q-17 -30 -42 -43t-74 -13q-21 0 -36 9.5t-19 25.5q-1 3 -10.5 0.5t-10.5 -4.5q-1 -1 -0.5 -2t-0.5 -3l-57 -192q-1 -2 2 -2.5t7 -0.5t7.5 0.5t4.5 2.5l54 172q5 -11 23 -19t41 -8q48 0 92 19t77.5 52.5t53.5 78.5t20 97zM116 52q0 18 -10.5 29t-27.5 11
q-24 0 -42.5 -19.5t-18.5 -45.5q0 -18 10.5 -29t27.5 -11q24 0 42.5 19.5t18.5 45.5z" />
    <glyph glyph-name="at" unicode="@" horiz-adv-x="770" 
d="M729 403q0 77 -24.5 137t-67 101.5t-99 63t-119.5 21.5q-70 0 -131.5 -29t-107.5 -79.5t-72.5 -118.5t-26.5 -145t26.5 -144.5t72.5 -118t107.5 -79.5t131.5 -29q60 0 114 22t99 61q2 2 -3.5 9t-7.5 6q-42 -37 -93 -58.5t-109 -21.5q-66 0 -124 27.5t-101 75t-68 112
t-25 138.5t25 138.5t68 112t101 74.5t124 27q60 0 113 -20t92 -58.5t62 -95t23 -130.5q0 -48 -14.5 -85.5t-39 -63.5t-56.5 -39.5t-66 -13.5q-20 0 -29 8t-9.5 27t6.5 50.5t21 79.5l46 159h-61l-10 -36q-4 22 -23 33t-39 11q-42 0 -79 -21t-65 -54.5t-44.5 -74t-16.5 -79.5
q0 -24 5 -46.5t16.5 -40.5t30 -29t45.5 -11q13 0 29 5.5t32 17.5t30 31.5t24 46.5q-5 -20 -4.5 -38t8.5 -32t25.5 -22.5t45.5 -8.5q34 0 71.5 13.5t69 41t51.5 70.5t20 102zM484 448l-29 -107q-5 -17 -16 -41.5t-26.5 -47t-36 -38.5t-43.5 -16t-36 15.5t-13 45.5
q0 25 6.5 57t18 64t27.5 60.5t36 46.5q15 14 29 20t31 6q31 0 44.5 -19.5t7.5 -45.5z" />
    <glyph glyph-name="A" unicode="A" horiz-adv-x="628" 
d="M584 20h-96q-7 0 -7 3v700q0 2 -10 2.5t-12 -2.5l-477 -662q-17 -24 -28 -32.5t-23 -8.5h-60q-1 0 -2 -3t-2.5 -7t-2 -7t0.5 -3h202q1 0 2.5 3t2.5 7t2 7t0 3h-79q-10 0 -8 7.5t22 34.5l126 175h243v-214q0 -3 -7 -3h-73q-2 0 -5.5 -10t-1.5 -10h286q2 0 5.5 10t1.5 10z
M378 258h-227l227 313v-313z" />
    <glyph glyph-name="B" unicode="B" horiz-adv-x="627" 
d="M610 555q0 72 -52 112.5t-152 40.5h-238q-1 0 -2.5 -3t-2.5 -7t-2 -7t0 -3h90q6 0 5 -3l-208 -662q-2 -3 -7 -3h-90q-1 0 -2.5 -3t-2.5 -7t-2 -7t0 -3h308q67 0 124 18t98.5 48.5t65 70t23.5 82.5q0 74 -48 116t-134 44q50 1 92 14.5t72.5 37t47.5 55.5t17 69zM525 602
q0 -21 -5 -43t-13 -43t-17.5 -39t-18.5 -31q-20 -32 -52 -44.5t-77 -12.5h-70l94 296q0 3 7 3h39q60 0 86.5 -18.5t26.5 -67.5zM463 283q0 -27 -5 -55.5t-13.5 -55.5t-19 -51t-22.5 -42q-23 -35 -57 -47t-88 -12h-95q-7 0 -5 3l109 345h72q59 0 91.5 -22.5t32.5 -62.5z" />
    <glyph glyph-name="C" unicode="C" horiz-adv-x="611" 
d="M670 723q0 1 -3 1h-7h-7q-3 0 -3 -1q-6 -12 -16.5 -20t-37.5 -8q-18 0 -33 5t-31 10.5t-34.5 10.5t-41.5 5q-53 0 -104 -18.5t-96 -51.5t-83 -78.5t-65.5 -98.5t-43 -111.5t-15.5 -118.5q0 -62 16.5 -111.5t46.5 -84t73.5 -52.5t97.5 -18q80 0 151 43t127 123q0 1 -2 3.5
t-4.5 5t-5 4.5t-3.5 1q-57 -81 -120 -120.5t-143 -39.5q-74 0 -113.5 34.5t-39.5 112.5q0 30 7.5 70.5t20 85t28.5 90.5t32 86.5t30.5 72.5t25.5 50q32 51 74 75.5t108 24.5q35 0 64 -14.5t48 -39t25 -57t-6 -69.5q0 -2 10 -2t10 2z" />
    <glyph glyph-name="D" unicode="D" horiz-adv-x="729" 
d="M710 436q0 59 -20.5 109t-56 86t-82.5 56.5t-101 20.5h-282q-1 0 -2.5 -3t-2.5 -7t-2 -7t0 -3h90q6 0 5 -3l-208 -662q-2 -3 -7 -3h-90q-1 0 -2.5 -3t-2.5 -7t-2 -7t0 -3h318q53 0 107 16.5t104 46t93 70t75 89t50.5 103t18.5 111.5zM622 537q0 -42 -12.5 -100.5
t-31 -116.5t-39.5 -108t-37 -75q-42 -65 -105.5 -91t-138.5 -26h-95q-7 0 -5 3l208 662q0 3 7 3h72q51 0 85 -13t54.5 -34t29 -48.5t8.5 -55.5z" />
    <glyph glyph-name="E" unicode="E" horiz-adv-x="630" 
d="M662 705q0 3 -2 3h-493q-1 0 -2 -3t-2.5 -7t-2 -7t0.5 -3h90q6 0 5 -3l-208 -662q-2 -3 -8 -3h-89q-2 0 -5.5 -10t-1.5 -10h546q2 0 4 3l62 197q0 1 -3 1h-7h-7q-3 0 -3 -1q-12 -38 -32 -71t-53 -57t-81 -38t-115 -14h-92q-6 0 -6 3l108 341h37q31 0 49.5 -8.5
t26.5 -24.5t7 -37.5t-9 -47.5q0 -1 3 -1.5t6 -0.5q4 0 7.5 0.5t3.5 1.5l73 233q0 2 -10 2t-11 -2q-16 -52 -46.5 -74t-92.5 -22h-38l94 302q1 3 8 3h105q83 0 109.5 -43t3.5 -118q0 -2 10 -2t10 2z" />
    <glyph glyph-name="F" unicode="F" horiz-adv-x="576" 
d="M663 708q0 3 -2 3h-493q-1 0 -2 -3t-2.5 -7t-2 -7t0.5 -3h90q7 0 5 -4l-208 -661q-1 -4 -8 -4h-89q-2 0 -5.5 -10t-1.5 -10h313q2 0 5 10t1 10h-100q-6 0 -6 4l108 340h52q31 0 49 -8.5t26.5 -24.5t7 -37.5t-9.5 -46.5q0 -1 3 -1.5t7 -0.5t7.5 0.5t3.5 1.5l72 232
q0 1 -3 1h-7h-8q-3 0 -3 -1q-16 -52 -46.5 -73.5t-92.5 -21.5h-52l94 301q2 4 8 4h104q84 0 111 -43.5t3 -117.5q0 -2 10 -2t11 2z" />
    <glyph glyph-name="G" unicode="G" horiz-adv-x="656" 
d="M690 288h-302q-1 0 -2.5 -3t-2.5 -7t-2 -7t0 -3h90q6 0 5 -3l-49 -159q-16 -50 -50 -76.5t-94 -26.5q-74 0 -113.5 33t-39.5 112q0 30 7.5 70.5t20 85t28.5 90.5t32 86.5t30.5 72.5t25.5 50q32 51 78.5 75.5t112.5 24.5q35 0 62.5 -14.5t45 -39t22 -57t-7.5 -69.5
q0 -1 3 -1.5t6 -0.5q4 0 7.5 0.5t3.5 1.5l63 198q0 2 -10 2q-9 0 -10 -2q-6 -12 -16.5 -20t-37.5 -8q-14 0 -27.5 5t-29 10.5t-33.5 10.5t-41 5q-54 0 -105.5 -18.5t-97.5 -51.5t-85 -78.5t-67.5 -98.5t-44.5 -111.5t-16 -118.5q0 -62 16.5 -111t46.5 -83t73.5 -52t97.5 -18
q36 0 61 8.5t43.5 18.5t32.5 18.5t29 8.5q22 0 28.5 -10t1.5 -30q0 -1 3 -1.5t7 -0.5h8t4 1l85 269q1 3 7 3h90q1 0 2.5 3t2.5 7t2 7t0 3z" />
    <glyph glyph-name="H" unicode="H" horiz-adv-x="766" 
d="M851 709h-292q-1 0 -2 -3t-2.5 -7t-2 -7t0.5 -3h80q7 0 5 -4l-97 -306h-272l97 306q0 4 7 4h80q1 0 2.5 3t2.5 7t2 7t0 3h-292q-2 0 -5.5 -10t-1.5 -10h90q7 0 5 -4l-208 -661q-1 -4 -7 -4h-90q-1 0 -2.5 -3t-2.5 -7t-2 -7t0 -3h292q1 0 2.5 3t2.5 7t2 7t0 3h-80
q-6 0 -5 4l105 335h272l-106 -335q-1 -4 -7 -4h-81q-1 0 -2 -3t-2 -7t-1.5 -7t0.5 -3h292q1 0 2 3t2.5 7t2 7t-0.5 3h-90q-6 0 -5 4l209 661q0 4 7 4h90q2 0 5 10t1 10z" />
    <glyph glyph-name="I" unicode="I" horiz-adv-x="385" 
d="M470 709h-302q-2 0 -5 -10t-1 -10h89q6 0 6 -4l-208 -661q-1 -4 -8 -4h-90q-1 0 -2 -3t-2.5 -7t-2 -7t0.5 -3h302q1 0 2 3t2.5 7t2 7t-0.5 3h-90q-6 0 -5 4l208 661q2 4 8 4h89q2 0 5.5 10t1.5 10z" />
    <glyph glyph-name="J" unicode="J" horiz-adv-x="547" 
d="M642 709h-302q-1 0 -2 -3t-2.5 -7t-2 -7t0.5 -3h90q7 0 5 -4l-189 -595q-15 -48 -46 -68t-69 -20q-37 0 -56.5 13t-19.5 35q0 31 27 37q11 2 19.5 9t14 16t8 18.5t2.5 18.5q0 23 -18 42t-44 19q-18 0 -32.5 -8.5t-25 -22t-16 -29t-5.5 -29.5q0 -25 8.5 -50t26 -44.5
t44 -31.5t61.5 -12q102 0 168 58t104 179l147 465q2 4 8 4h90q2 0 5 10t1 10z" />
    <glyph glyph-name="K" unicode="K" horiz-adv-x="653" 
d="M755 709h-193q-1 0 -2 -3t-2.5 -7t-2 -7t0.5 -3h64q9 0 0.5 -12.5t-28.5 -29.5l-329 -290l103 328q0 4 7 4h82q1 0 2 3t2.5 7t2 7t-0.5 3h-293q-1 0 -2.5 -3t-2.5 -7t-2 -7t0 -3h90q7 0 5 -4l-208 -661q-1 -4 -7 -4h-90q-1 0 -2.5 -3t-2.5 -7t-2 -7t0 -3h294q1 0 2 3
t2.5 7t2 7t-0.5 3h-81q-6 0 -5 4l103 327l137 -327q0 -4 -4 -4h-82q-2 0 -5.5 -10t-1.5 -10h315q1 0 2.5 3t2.5 7t2 7t0 3h-100q-2 0 -4.5 1t-3.5 3l-167 387l270 236q27 24 39 33t18 9h70q2 0 5 10t1 10z" />
    <glyph glyph-name="L" unicode="L" horiz-adv-x="568" 
d="M521 201q0 1 -3 1h-7h-8q-3 0 -3 -1q-12 -39 -32 -72t-53 -57t-81 -38t-115 -14h-57q-6 0 -5 4l208 661q2 4 8 4h90q1 0 2 3t2.5 7t2 7t-0.5 3h-302q-1 0 -2 -3t-2.5 -7t-2 -7t0.5 -3h90q7 0 5 -4l-208 -661q-1 -4 -8 -4h-90q-1 0 -2 -3t-2.5 -7t-2 -7t0.5 -3h512
q3 0 3 3z" />
    <glyph glyph-name="M" unicode="M" horiz-adv-x="876" 
d="M962 709h-208q-7 0 -20 -19l-334 -524l-14 525q-2 18 -11 18h-194q-2 0 -5.5 -10t-1.5 -10h81q6 0 6 -4l-208 -661q-1 -4 -8 -4h-81q-1 0 -2.5 -3t-2.5 -7t-2 -7t0 -3h197q1 0 2 3t2.5 7t2 7t-0.5 3h-81q-6 0 -5 4l204 649l11 -686q0 -2 10 -2t12 2l432 678l-203 -641
q-1 -4 -7 -4h-90q-1 0 -2.5 -3t-2.5 -7t-2 -7t0 -3h302q1 0 2.5 3t2.5 7t2 7t0 3h-90q-6 0 -5 4l209 661q0 4 7 4h90q1 0 2 3t2.5 7t2 7t-0.5 3z" />
    <glyph glyph-name="N" unicode="N" horiz-adv-x="731" 
d="M814 709h-197q-1 0 -2 -3t-2.5 -7t-2 -7t0.5 -3h82q7 0 5 -4l-166 -525l-155 531q-4 11 -8 14.5t-9 3.5h-184q-1 0 -2 -3t-2.5 -7t-2 -7t0.5 -3h81q7 0 5 -4l-208 -661q0 -4 -7 -4h-82q-1 0 -2 -3t-2.5 -7t-2 -7t0.5 -3h196q2 0 5.5 10t1.5 10h-82q-6 0 -5 4l200 634
l208 -671q2 -3 11.5 -2.5t10.5 2.5l220 698q2 4 8 4h81q1 0 2 3t2.5 7t2 7t-0.5 3z" />
    <glyph glyph-name="O" unicode="O" 
d="M690 459q0 62 -16.5 111.5t-46.5 84t-73.5 53t-97.5 18.5q-53 0 -104 -18.5t-96 -51.5t-83 -78.5t-65.5 -98.5t-43 -111.5t-15.5 -118.5q0 -62 16.5 -111.5t46.5 -84t73.5 -52.5t97.5 -18q80 0 153.5 40.5t130 107.5t90 152.5t33.5 175.5zM609 558q0 -30 -8 -70
t-20.5 -85t-28.5 -91t-32.5 -86.5t-31.5 -73t-26 -50.5q-36 -58 -80 -78.5t-99 -20.5q-153 0 -153 147q0 30 8 70.5t20.5 85t28.5 90.5t32.5 87t31.5 73.5t26 49.5q37 58 80.5 78.5t98.5 20.5q153 0 153 -147z" />
    <glyph glyph-name="P" unicode="P" horiz-adv-x="634" 
d="M657 534q0 90 -62 132.5t-172 42.5h-256q-2 0 -5 -10t-1 -10h89q6 0 6 -4l-208 -661q-1 -4 -8 -4h-90q-1 0 -2 -3t-2.5 -7t-2 -7t0.5 -3h302q1 0 2 3t2.5 7t2 7t-0.5 3h-90q-6 0 -5 4l87 275q17 -6 39.5 -12t54.5 -6q69 0 127.5 20t101 54t66.5 80t24 99zM560 596
q0 -25 -7 -58.5t-17 -66.5t-21.5 -61t-21.5 -43q-11 -17 -24.5 -29.5t-31 -20.5t-40.5 -12t-53 -4q-32 0 -53 5t-41 14l115 365q2 4 8 4h70q67 0 92 -22t25 -71z" />
    <glyph glyph-name="Q" unicode="Q" 
d="M690 459q0 62 -16.5 111.5t-46.5 84t-73.5 53t-97.5 18.5q-53 0 -104 -18.5t-96 -51.5t-83 -78.5t-65.5 -98.5t-43 -111.5t-15.5 -118.5q0 -62 16.5 -113t46.5 -86.5t73 -53.5t97 -14q2 0 8.5 0.5t8.5 1.5q-16 -5 -39.5 -11t-48 -13t-48 -14t-39.5 -14q-17 -2 -28 -7.5
t-11 -8.5q0 -8 4 -13.5t8 -5.5q5 0 17 7.5t32 7.5q33 0 55 -18.5t43 -45.5t45 -59.5t61 -59.5t92 -45.5t138 -18.5q2 0 2 11q0 10 -2 10q-55 0 -89 18.5t-58 46.5t-43.5 60.5t-45.5 59.5t-64.5 44.5t-99.5 15.5q26 8 53.5 15.5t57.5 17t64 24t72 35.5q49 27 96 71t84 101
t60 124.5t23 139.5zM609 558q0 -30 -8 -70t-20.5 -85t-28.5 -91t-32.5 -86.5t-31.5 -73t-26 -50.5q-36 -58 -80.5 -78.5t-99.5 -20.5q-154 0 -152 147q0 30 8 70.5t20.5 85t28.5 90.5t32.5 87t31.5 73.5t26 49.5q37 58 80.5 78.5t98.5 20.5q153 0 153 -147z" />
    <glyph glyph-name="R" unicode="R" horiz-adv-x="644" 
d="M631 6q1 0 0.5 3.5t-2 7t-3 6t-2.5 2.5q-13 -9 -27 -12t-35 -3t-32.5 14.5t-11.5 40.5q0 16 5.5 39t12.5 48t12.5 50t5.5 46q0 25 -8 47t-26.5 38t-49 25.5t-76.5 9.5q58 2 102 18.5t73 42.5t44 58.5t15 67.5q0 72 -52 113t-152 41h-256q-1 0 -2.5 -3t-2.5 -7t-2 -7t0 -3
h90q7 0 5 -4l-208 -661q0 -4 -7 -4h-90q-2 0 -5 -10t-1 -10h301q2 0 5.5 10t1.5 10h-90q-6 0 -5 4l106 335h72q57 0 90.5 -11t33.5 -41q0 -16 -7.5 -46t-17 -64.5t-17 -67.5t-7.5 -54q0 -51 30.5 -71.5t84.5 -20.5q33 0 57.5 5.5t47.5 17.5zM540 619q0 -21 -6 -47t-15 -51.5
t-19 -48t-19 -35.5q-20 -29 -51.5 -43.5t-80.5 -14.5h-80l97 306q2 4 8 4h55q60 0 85.5 -15.5t25.5 -54.5z" />
    <glyph glyph-name="S" unicode="S" horiz-adv-x="528" 
d="M541 723q0 1 -2.5 1.5t-6.5 0.5t-7 -0.5t-4 -1.5q-6 -11 -14.5 -16.5t-24.5 -5.5q-9 0 -20.5 4t-25.5 8.5t-32.5 8.5t-40.5 4q-45 0 -84 -17.5t-67.5 -47.5t-44.5 -70.5t-16 -85.5q0 -43 18 -76t45 -60.5t58 -52t58 -50t45 -55t18 -67.5q0 -66 -43 -104t-123 -38
q-50 0 -83 18.5t-49.5 49t-17.5 69t12 79.5q0 1 -3 1h-7h-8q-3 0 -3 -1l-63 -216q0 -1 2.5 -1.5t6.5 -0.5t7.5 0.5t3.5 1.5q7 12 16 16.5t29 4.5q12 0 25 -6.5t30.5 -14t40.5 -13.5t56 -6q55 0 100.5 17.5t77 49t49 75t17.5 94.5q0 42 -18 75.5t-45 62t-59 54t-59 51.5
t-45 55t-18 64q0 57 37 91t107 34q27 0 50.5 -11t38.5 -32t19 -51t-8 -68q0 -2 10 -2t11 2z" />
    <glyph glyph-name="T" unicode="T" horiz-adv-x="608" 
d="M709 706q3 3 -2 3h-561q-4 0 -4 -3l-63 -199q0 -2 10 -2q11 0 11 2q14 45 33.5 79.5t47.5 57t67.5 34t93.5 11.5h15q7 0 5 -4l-209 -661q-1 -4 -8 -4h-89q-1 0 -2 -3t-2.5 -7t-2 -7t0.5 -3h302q1 0 2 3t2.5 7t2 7t-0.5 3h-90q-6 0 -5 4l209 661q0 4 7 4h15
q55 0 87.5 -13.5t46.5 -38t11.5 -59.5t-15.5 -78q0 -1 3 -1.5t6 -0.5q4 0 7.5 0.5t3.5 1.5z" />
    <glyph glyph-name="U" unicode="U" horiz-adv-x="736" 
d="M825 709h-197q-2 0 -4.5 -10t-0.5 -10h81q7 0 5 -4l-149 -469q-32 -103 -86 -151.5t-143 -48.5q-63 0 -99 28t-36 77q0 29 7.5 64.5t20.5 74.5l132 425q2 4 8 4h90q1 0 2 3t2.5 7t2 7t-0.5 3h-302q-1 0 -2 -3t-2.5 -7t-2 -7t0.5 -3h90q7 0 5 -4l-133 -422
q-8 -26 -12 -50.5t-4 -48.5q0 -38 11 -71t34.5 -57.5t61 -38.5t90.5 -14q112 0 181 56.5t101 160.5l154 485q0 4 7 4h82q2 0 4.5 10t0.5 10z" />
    <glyph glyph-name="V" unicode="V" horiz-adv-x="643" 
d="M830 709h-219q-2 0 -4.5 -10t-0.5 -10h84q4 0 6 -1t0.5 -5.5t-7 -13t-16.5 -22.5l-396 -522l19 556q0 8 6 8h80q1 0 2 3t2 7t1.5 7t-0.5 3h-277q-1 0 -2 -3t-2.5 -7t-2 -7t0.5 -3h82q6 0 6 -4l-20 -700q0 -2 10 -2.5t12 2.5l504 662q20 26 30.5 34t16.5 8h80q1 0 2 3t2 7
t1.5 7t-0.5 3z" />
    <glyph glyph-name="W" unicode="W" horiz-adv-x="923" 
d="M1090 709h-194q-1 0 -2 -3t-1.5 -7t-1 -7t0.5 -3h75q5 0 2 -6.5t-23 -35.5l-354 -516l-13 324l122 175q15 19 23.5 30.5t14.5 18t9.5 8.5t8.5 2h68q1 0 2 3t2 7t1.5 7t-0.5 3h-729q-2 0 -4.5 -10t-0.5 -10h89q7 0 7 -4l30 -700q0 -2 10.5 -2.5t12.5 2.5l235 332l14 -332
q1 -2 11 -2.5t12 2.5l452 662q19 28 25 35t9 7h82q2 0 4.5 10t0.5 10zM711 689q6 0 3.5 -7.5t-20.5 -31.5l-117 -166l-9 201q0 4 6 4h137zM478 348l-158 -221l-24 558q-2 4 6 4h156q6 0 6 -6z" />
    <glyph glyph-name="X" unicode="X" horiz-adv-x="649" 
d="M746 709h-202q-1 0 -2 -3t-2.5 -7t-2 -7t0.5 -3h76q8 0 6.5 -5t-22.5 -29l-200 -229l-64 259q0 4 5 4h86q1 0 2 3t2.5 7t2 7t-0.5 3h-294q-1 0 -2 -3t-2.5 -7t-2 -7t0.5 -3h85q7 0 7 -4l89 -361l-225 -262l-22.5 -22.5t-14 -13t-8 -5.5t-3.5 -1h-78q-2 0 -5 -10t-1 -10
h201q1 0 2.5 3t2.5 7t2 7t0 3h-78q-8 0 -3.5 6.5t31.5 35.5l205 238l68 -276q0 -4 -5 -4h-94q-1 0 -2 -3t-2.5 -7t-2 -7t0.5 -3h319q1 0 2 3t2.5 7t2 7t-0.5 3h-102q-7 0 -7 4l-93 377l213 246q27 28 36.5 35t11.5 7h74q2 0 5.5 10t1.5 10z" />
    <glyph glyph-name="Y" unicode="Y" horiz-adv-x="632" 
d="M771 709h-202q-1 0 -2 -3t-2.5 -7t-2 -7t0.5 -3h81q3 0 3.5 -1t-2 -5.5t-8.5 -12.5t-18 -23l-232 -297l-58 335q-1 1 0.5 2.5t4.5 1.5h108q1 0 2 3t2.5 7t2 7t-0.5 3h-323q-2 0 -5.5 -10t-1.5 -10h93q5 0 7 -4l65 -357l-96 -304q-1 -4 -8 -4h-90q-1 0 -2 -3t-2.5 -7
t-2 -7t0.5 -3h302q1 0 2 3t2.5 7t2 7t-0.5 3h-90q-6 0 -5 4l95 302l253 321q11 14 18.5 22.5t12 13t7.5 5.5t5 1h77q2 0 5.5 10t1.5 10z" />
    <glyph glyph-name="Z" unicode="Z" horiz-adv-x="630" 
d="M676 709h-448q-1 0 -4 -3l-66 -208q0 -2 10 -2q11 0 11 2q14 43 35 78.5t50.5 60.5t68.5 38.5t90 13.5h121q3 0 3.5 -1.5t-0.5 -2.5l-569 -669q-3 -4 -3 -10t2 -6h494q2 0 4 3l62 198q0 1 -3 1h-7h-7q-3 0 -3 -1q-12 -39 -32 -72t-53 -57t-81 -38t-115 -14h-126
q-5 0 -3 4l568 669q3 3 3 9q0 7 -2 7z" />
    <glyph glyph-name="bracketleft" unicode="[" horiz-adv-x="292" 
d="M458 737h-201q-4 0 -5 -4l-307 -974q-2 -4 3 -4h202q2 0 4.5 10t0.5 10h-114q-7 0 -5 4l294 934q1 4 7 4h116q1 0 2 3t2 7t1.5 7t-0.5 3z" />
    <glyph glyph-name="backslash" unicode="\" horiz-adv-x="358" 
d="M301 -15l-317 777q-1 2 -10 -2t-8 -6l319 -777q0 -1 2.5 0t5.5 2.5t5.5 3t2.5 2.5z" />
    <glyph glyph-name="bracketright" unicode="]" horiz-adv-x="292" 
d="M336 733q2 4 -3 4h-202q-2 0 -4.5 -10t-0.5 -10h114q7 0 5 -4l-294 -934q-1 -4 -7 -4h-116q-1 0 -2 -3t-2 -7t-1.5 -7t0.5 -3h201q4 0 5 4z" />
    <glyph glyph-name="asciicircum" unicode="^" horiz-adv-x="326" 
d="M341 523q-8 19 -16 43t-14.5 49.5t-12 50.5t-7.5 47q0 2 -9 4.5t-11 0.5q-17 -18 -37.5 -41t-43.5 -49t-49 -52.5t-55 -51.5q-1 0 1.5 -1.5t6 -3t6.5 -2.5t4 0q36 31 74 65.5t64 61.5q9 -38 21.5 -72.5t25.5 -56.5z" />
    <glyph glyph-name="underscore" unicode="_" horiz-adv-x="537" 
d="M490 0q2 0 2 10t-2 10h-453q-2 0 -2 -10t2 -10h453z" />
    <glyph glyph-name="grave" unicode="`" horiz-adv-x="354" 
d="M371 521q-36 9 -58.5 25.5t-36.5 36.5t-21.5 40t-13.5 37t-12.5 27.5t-18.5 10.5q-16 0 -26.5 -11t-10.5 -28q0 -20 9.5 -42t32 -43.5t59.5 -40.5t92 -32q1 0 2 2.5t2 6.5t1.5 7.5t-0.5 3.5z" />
    <glyph glyph-name="a" unicode="a" horiz-adv-x="506" 
d="M480 93l-20 7q-16 -29 -38 -48.5t-46 -19.5q-30 0 -16 44l115 363l-76 -16l-20 -39q-6 25 -28.5 38t-47.5 13q-58 0 -108 -26.5t-87.5 -67.5t-59 -92t-21.5 -99q0 -30 7 -58.5t22.5 -51t40.5 -36t62 -13.5q43 0 73.5 23.5t52.5 65.5q-11 -38 9 -63.5t58 -25.5
q27 0 63.5 23.5t64.5 78.5zM368 350l-52 -163q-36 -91 -68 -131t-77 -40q-41 0 -56 24.5t-15 63.5q0 31 8 71t23.5 80t37.5 74.5t49 55.5q18 13 35.5 21.5t49.5 8.5q28 0 45.5 -17.5t19.5 -47.5z" />
    <glyph glyph-name="b" unicode="b" horiz-adv-x="481" 
d="M438 288q0 34 -11 61.5t-30.5 46t-45.5 28.5t-57 10q-16 0 -33.5 -6t-34 -17.5t-30.5 -28t-23 -37.5l122 390q0 3 -2 3l-138 -4q-2 0 -5.5 -10t-1.5 -10l55 1q6 0 5 -4l-170 -545q-25 -79 5.5 -127t103.5 -48q52 0 104 24.5t93.5 66t67.5 95t26 111.5zM366 316
q0 -25 -8 -58.5t-20 -66.5t-26 -62.5t-27 -46.5q-28 -37 -57.5 -54.5t-79.5 -17.5q-34 0 -49.5 24t-2.5 69l52 159q26 69 62.5 108t79.5 39q46 0 61 -25.5t15 -67.5z" />
    <glyph glyph-name="c" unicode="c" horiz-adv-x="417" 
d="M394 337q0 16 -8.5 33.5t-24 31.5t-38 23t-49.5 9q-50 0 -95 -23t-79 -61t-53.5 -88t-19.5 -104q0 -37 12 -68t33 -53t50 -34t63 -12q51 0 96.5 27.5t80.5 74.5l-15 10q-32 -40 -70 -66.5t-92 -26.5q-27 0 -44.5 8.5t-27 22t-13.5 31.5t-4 36q0 19 7 53t17.5 69
t21.5 66.5t20 46.5q9 16 18.5 29t22 22.5t29.5 14.5t41 5q49 0 49 -27q0 -8 -2.5 -13.5t-5 -10.5t-5 -12t-2.5 -18q0 -16 9.5 -28.5t31.5 -12.5q19 0 32.5 11t13.5 34z" />
    <glyph glyph-name="d" unicode="d" horiz-adv-x="496" 
d="M568 734q0 3 -2 3l-138 -4q-1 0 -2.5 -3t-2.5 -7t-2 -7t0 -3l55 2q6 0 6 -4l-102 -322q-5 23 -26 34t-46 11q-58 0 -109 -26.5t-89.5 -68t-60.5 -92.5t-22 -99q0 -30 7 -58t22.5 -50t41 -35.5t61.5 -13.5q42 0 75 30t52 71q-10 -48 6 -74.5t60 -26.5q27 0 63.5 23.5
t64.5 77.5l-19 7q-38 -67 -84 -67q-31 0 -17 43zM367 348l-44 -141q-14 -41 -32 -75.5t-37.5 -60.5t-40.5 -40.5t-41 -14.5q-42 0 -57 23.5t-15 62.5q0 31 8.5 71.5t24 80.5t37.5 74.5t49 55.5q17 14 34.5 22t49.5 8q34 0 51 -17t13 -49z" />
    <glyph glyph-name="e" unicode="e" horiz-adv-x="421" 
d="M393 352q0 13 -5.5 27.5t-18.5 26.5t-34.5 20t-52.5 8q-50 0 -96.5 -23t-81.5 -61t-56 -88t-21 -104q0 -37 12 -68t33 -53t49.5 -34t62.5 -12q51 0 91 22t75 64l-11 14q-31 -36 -66 -58.5t-88 -22.5q-27 0 -44.5 8.5t-27.5 22t-14 31.5t-4 36q0 26 4.5 48t13.5 54h58
q51 0 92 11t70 30.5t44.5 45t15.5 55.5zM327 367q0 -24 -7.5 -48t-25.5 -44t-48 -32.5t-76 -12.5h-51q13 46 26.5 80.5t31.5 57.5t42.5 34.5t57.5 11.5q50 0 50 -47z" />
    <glyph glyph-name="f" unicode="f" horiz-adv-x="290" 
d="M494 650q0 16 -5 32.5t-17 30t-31.5 22t-47.5 8.5q-36 0 -69.5 -18.5t-62 -51.5t-52.5 -79.5t-42 -102.5q-5 -14 -9 -26.5t-9 -31.5h-103q-1 0 -2 -3t-2.5 -6.5t-2 -6.5t0.5 -3h104q-16 -57 -33 -125t-33.5 -136t-33.5 -133t-33 -116q-19 -60 -33.5 -98.5t-27.5 -61
t-27 -31.5t-33 -9q-16 0 -27 7.5t-11 22.5q0 11 9 24.5t9 30.5q0 14 -9.5 24t-30.5 10q-19 0 -32.5 -14t-13.5 -38q0 -18 7.5 -33.5t21 -27.5t32 -19t40.5 -7q38 0 68.5 19t55.5 53.5t45.5 82t39.5 104.5q13 41 29 97.5t33 119.5t34 128.5t33 125.5h116q2 0 5 9.5t1 9.5
h-117q6 23 11 39.5t11 35.5q22 69 40.5 111t35.5 65.5t32 31t29 7.5q21 0 30 -8.5t9 -25.5q0 -11 -9 -25.5t-9 -31.5q0 -14 9.5 -23.5t30.5 -9.5q19 0 32.5 13.5t13.5 37.5z" />
    <glyph glyph-name="g" unicode="g" horiz-adv-x="479" 
d="M475 438l-75 -16l-17 -30q-8 19 -27 30.5t-48 11.5q-58 0 -109 -26.5t-89.5 -68t-60.5 -92t-22 -99.5q0 -30 7 -58t22.5 -50.5t41 -36t61.5 -13.5q76 0 127 96l-15 -48q-35 -111 -61.5 -177t-49.5 -101t-46 -45.5t-51 -10.5q-36 0 -52.5 10t-16.5 27q0 13 3.5 21.5
t17.5 11.5q11 2 20 15.5t9 30.5t-13.5 32t-33.5 15q-27 0 -44 -20t-17 -49q0 -23 8 -43.5t23.5 -36.5t38 -25t52.5 -9q51 0 92 21.5t75 62t61 99.5t51 134zM370 354l-51 -161q-38 -96 -72.5 -137t-74.5 -41q-42 0 -57 25t-15 64q0 31 8 71t23.5 79.5t37.5 74t50 55.5
q17 14 34.5 22t49.5 8q29 0 49 -15t18 -45z" />
    <glyph glyph-name="h" unicode="h" horiz-adv-x="503" 
d="M486 92l-19 7q-21 -38 -41 -53t-43 -15q-16 0 -23 11t-7 28q0 24 13.5 59.5t30 75.5t30.5 79t14 71q0 22 -6.5 37t-17 24.5t-22.5 13.5t-23 4q-22 0 -50 -11t-56.5 -32t-56 -52t-49.5 -70l147 466q0 3 -2 3l-138 -4q-1 0 -2.5 -3t-2.5 -7t-2 -7t0 -3l55 1q6 0 6 -3
l-224 -712h78l67 212q50 84 96.5 124.5t76.5 40.5q18 0 31.5 -12t13.5 -30q0 -34 -13.5 -69.5t-29 -71t-29 -69t-13.5 -63.5q0 -31 19.5 -51t60.5 -20q13 0 30.5 5.5t35 18t34.5 31.5t31 46z" />
    <glyph glyph-name="i" unicode="i" horiz-adv-x="268" 
d="M268 637q0 21 -15 36t-36 15t-36 -15t-15 -36t15 -36t36 -15t36 15t15 36zM247 92l-19 7q-21 -38 -41 -53t-43 -15q-17 0 -23.5 11t-6.5 28q0 24 15 58.5t33.5 74.5t33.5 81t15 79q0 31 -14.5 51t-54.5 20q-24 0 -54.5 -19t-53.5 -69l20 -7q15 31 29.5 44t29.5 13
q14 0 19 -6.5t5 -22.5q0 -34 -15 -74.5t-33.5 -82t-33.5 -80t-15 -68.5q0 -31 19.5 -51t59.5 -20q27 0 64 23.5t64 77.5z" />
    <glyph glyph-name="j" unicode="j" horiz-adv-x="255" 
d="M263 638q0 21 -15 36t-36 15t-36 -15t-15 -36t15 -36t36 -15t36 15t15 36zM192 270q33 89 18.5 127t-63.5 38q-24 0 -54 -19t-53 -70l19 -7q15 31 29.5 44.5t29.5 13.5q14 0 21 -13t0 -35l-140 -445q-19 -60 -35 -98.5t-31.5 -61t-31.5 -31.5t-35 -9q-29 0 -29 28
q0 11 8 23t8 29q0 14 -9 24t-31 10q-19 0 -32.5 -14t-13.5 -38q0 -35 25 -58.5t69 -23.5q43 0 76 17t59.5 48t47 74.5t38.5 97.5z" />
    <glyph glyph-name="k" unicode="k" horiz-adv-x="471" 
d="M450 380q0 25 -15 39.5t-47 14.5q-25 0 -43 -12.5t-33.5 -31t-29.5 -40t-31.5 -41t-39.5 -33t-53 -15.5l149 474q0 3 -2 3l-138 -4q-1 0 -2.5 -3t-2.5 -7t-2 -7t0 -3l55 1q6 0 6 -3l-224 -712h79l76 240q20 -1 30 -19.5t16.5 -46.5t12.5 -60t19 -59.5t36 -45.5t62 -18
q59 0 90 32.5t31 80.5q0 17 -12.5 34.5t-34.5 17.5q-19 0 -29.5 -11.5t-10.5 -24.5q0 -14 7.5 -21t16.5 -12t16.5 -10.5t7.5 -16.5q0 -17 -11.5 -28.5t-34.5 -11.5q-30 0 -44.5 14.5t-21 37t-8.5 50t-7 54.5t-17 50.5t-39 37.5q24 16 41 39t32 44t28.5 36t30.5 15
q11 0 15 -5t4 -10q0 -9 -5.5 -13.5t-5.5 -17.5q0 -11 8 -20t27 -9q22 0 35 18.5t13 38.5z" />
    <glyph glyph-name="l" unicode="l" horiz-adv-x="265" 
d="M317 735q1 3 -2 3l-138 -4q-1 0 -2.5 -3t-2.5 -7t-2 -7t0 -3l56 1q6 0 5 -3l-188 -599q-17 -55 -3.5 -88.5t61.5 -33.5q27 0 63.5 23.5t64.5 77.5l-20 7q-17 -32 -38.5 -50t-45.5 -18q-14 0 -19 9t0 23z" />
    <glyph glyph-name="m" unicode="m" horiz-adv-x="774" 
d="M757 92l-19 7q-21 -38 -41 -53t-43 -15q-16 0 -23 11t-7 28q0 24 13.5 59.5t30 75.5t30 79t13.5 71q0 22 -6.5 37t-16.5 24.5t-22 13.5t-23 4q-48 0 -100.5 -42t-97.5 -123q16 43 14.5 74t-12.5 51t-28.5 30t-33.5 10q-48 0 -100.5 -42t-97.5 -123q32 86 20.5 125.5
t-57.5 39.5q-12 0 -27 -4t-31 -14.5t-30.5 -27.5t-26.5 -42l19 -7q15 31 30 44t29 13q15 0 21.5 -13t-0.5 -34l-110 -349h79l66 212q50 84 92 124.5t75 40.5q28 0 38 -25t-5 -76l-87 -276h79l66 212q50 84 92 124.5t67 40.5q18 0 31 -12t13 -30q0 -34 -13 -69.5t-29 -71
t-29 -69t-13 -63.5q0 -31 19.5 -51t60.5 -20q13 0 30 5.5t35 18t35 31.5t31 46z" />
    <glyph glyph-name="n" unicode="n" horiz-adv-x="530" 
d="M514 92l-19 7q-21 -38 -41 -53t-43 -15q-16 0 -23 11t-7 28q0 24 13.5 59.5t30 75.5t30.5 79t14 71q0 22 -6.5 37t-17 24.5t-22.5 13.5t-23 4q-22 0 -50 -11t-56.5 -32t-56 -52t-49.5 -70q32 86 20.5 125.5t-58.5 39.5q-12 0 -26.5 -4t-30.5 -14.5t-30.5 -27.5t-26.5 -42
l19 -7q15 31 29.5 44t29.5 13t21.5 -13t-0.5 -34l-110 -349h78l67 212q50 84 96.5 124.5t76.5 40.5q18 0 31.5 -12t13.5 -30q0 -34 -13.5 -69.5t-29 -71t-29 -69t-13.5 -63.5q0 -31 19.5 -51t60.5 -20q13 0 30.5 5.5t35 18t34.5 31.5t31 46z" />
    <glyph glyph-name="o" unicode="o" horiz-adv-x="486" 
d="M439 266q0 37 -12 68t-33 53t-49.5 34.5t-62.5 12.5q-50 0 -96.5 -23t-81.5 -61t-56 -88t-21 -104q0 -37 12 -68t33 -53t49.5 -34t62.5 -12q50 0 96 23t81.5 61t56.5 87.5t21 103.5zM371 317q0 -20 -7 -53.5t-17.5 -69t-22 -66.5t-19.5 -46q-19 -32 -45.5 -52t-74.5 -20
q-27 0 -44.5 8.5t-27.5 22t-14 31.5t-4 36q0 19 7 53t17.5 69t22 66.5t19.5 46.5q18 32 45 51.5t75 19.5q27 0 44.5 -8.5t27.5 -22t14 -31t4 -35.5z" />
    <glyph glyph-name="p" unicode="p" horiz-adv-x="514" 
d="M467 278q0 30 -7 58t-22.5 50t-41 35.5t-61.5 13.5q-38 0 -75 -33t-60 -84q17 59 2 88t-53 29t-67 -24.5t-47 -64.5l19 -7q15 32 29.5 45t29.5 13q14 0 21 -13t0 -34l-208 -657h79l107 339q8 -19 30 -30t52 -11q54 0 103.5 26.5t87 68.5t60 93t22.5 99zM394 324
q0 -32 -8.5 -72t-24 -80t-37.5 -75t-49 -56q-17 -13 -33.5 -21.5t-41.5 -8.5q-33 0 -52 12t-25 40l43 140q14 34 31 71t36.5 67t42 49.5t46.5 19.5q42 0 57 -23.5t15 -62.5z" />
    <glyph glyph-name="q" unicode="q" horiz-adv-x="480" 
d="M475 439l-75 -16l-21 -39q-5 24 -26.5 37t-44.5 13q-58 0 -109 -26.5t-89.5 -67.5t-60.5 -91.5t-22 -99.5q0 -30 7 -58.5t22.5 -51t40.5 -36t62 -13.5q39 0 74 27.5t56 77.5l-128 -403h79zM368 350l-55 -172q-30 -78 -65 -120.5t-77 -42.5q-41 0 -56 25t-15 64q0 31 8 71
t23.5 79.5t37.5 74t49 55.5q18 13 35.5 21.5t49.5 8.5q29 0 46.5 -17.5t18.5 -46.5z" />
    <glyph glyph-name="r" unicode="r" horiz-adv-x="401" 
d="M402 359q0 29 -18 52t-52 23q-38 0 -71 -33.5t-65 -104.5q26 69 11 103.5t-57 34.5q-12 0 -27 -4t-31 -14.5t-30.5 -27.5t-26.5 -42l19 -7q15 31 29.5 44t29.5 13t21.5 -13t-0.5 -34l-110 -349h79l66 212q24 51 43.5 85t35 54.5t27.5 28.5t23 8t15 -5.5t4 -16.5
q0 -8 -4.5 -13.5t-4.5 -21.5q0 -14 10.5 -25t32.5 -11q11 0 20.5 6t16 15.5t10.5 20.5t4 22z" />
    <glyph glyph-name="s" unicode="s" horiz-adv-x="360" 
d="M330 350q0 35 -29 59.5t-75 24.5q-31 0 -56.5 -11.5t-44 -30.5t-28.5 -43.5t-10 -49.5q0 -24 9.5 -42t24 -33.5t31.5 -29t31.5 -28.5t24 -32.5t9.5 -40.5q0 -38 -22 -60t-63 -22q-40 0 -54 11t-14 26q0 10 4 13.5t9.5 7.5t9.5 11t4 24q0 12 -10 24.5t-30 12.5t-33 -16.5
t-13 -36.5q0 -39 31.5 -68t89.5 -29q43 0 72.5 13.5t47.5 34.5t26 45.5t8 47.5q0 40 -21 66.5t-46 48.5t-46 43t-21 50q0 38 21 56.5t54 18.5q25 0 34 -8.5t9 -19.5q0 -12 -7.5 -19t-7.5 -23q0 -14 9 -25.5t29 -11.5q17 0 30 10.5t13 31.5z" />
    <glyph glyph-name="t" unicode="t" horiz-adv-x="269" 
d="M296 433h-75l47 148l-81 -6l-44 -142h-73q-2 0 -5 -10t-1 -10h73l-95 -300q-19 -60 -4 -91t62 -31q27 0 64 23.5t64 77.5l-19 7q-21 -38 -41 -53t-43 -15q-14 0 -19 9t-1 23l110 350h75q1 0 2 3t2.5 7t2 7t-0.5 3z" />
    <glyph glyph-name="u" unicode="u" horiz-adv-x="520" 
d="M499 92l-20 7q-21 -38 -41 -53t-43 -15q-14 0 -19 9t0 23l115 368l-81 -6l-66 -212q-52 -91 -95.5 -132.5t-80.5 -41.5q-19 0 -33.5 13.5t-14.5 32.5q0 34 14 70.5t31.5 72.5t31.5 70.5t14 64.5q0 28 -15 49.5t-53 21.5q-24 0 -54.5 -18.5t-53.5 -69.5l20 -7
q14 31 28.5 44t30.5 13q13 0 18.5 -6t5.5 -23q0 -24 -14.5 -59.5t-32 -74.5t-32 -78.5t-14.5 -70.5q0 -45 23.5 -69t59.5 -24q45 0 98 39t98 118q-32 -83 -18.5 -120.5t58.5 -37.5q13 0 30.5 6t36 18t36.5 31.5t32 46.5z" />
    <glyph glyph-name="v" unicode="v" horiz-adv-x="481" 
d="M449 377q0 23 -10 40t-34 17q-17 0 -25.5 -13.5t-8.5 -32.5q0 -15 2.5 -25.5t5.5 -22t5.5 -25t2.5 -34.5q0 -40 -19.5 -85.5t-49 -83.5t-65 -63.5t-66.5 -25.5q-27 0 -39.5 14.5t-12.5 53.5q0 26 11.5 56.5t25 64t25 68.5t11.5 71q0 83 -67 83q-12 0 -27 -4t-31 -14.5
t-30.5 -27.5t-26.5 -42l20 -7q14 31 28.5 44t30.5 13q30 0 30 -32q0 -34 -11.5 -70t-25.5 -71t-25.5 -67.5t-11.5 -59.5q0 -59 30.5 -82t77.5 -23q30 0 62.5 18t63.5 48t59 69.5t49 82.5t33.5 86.5t12.5 81.5z" />
    <glyph glyph-name="w" unicode="w" horiz-adv-x="701" 
d="M670 377q0 23 -10.5 40t-34.5 17q-17 0 -25.5 -13.5t-8.5 -32.5q0 -15 2.5 -25.5t5.5 -22t5.5 -25t2.5 -34.5q0 -25 -9.5 -54t-25.5 -57.5t-36.5 -55t-42.5 -47t-44.5 -32.5t-41.5 -12q-29 0 -43.5 20.5t2.5 65.5l98 322l-81 -6l-76 -244q-35 -66 -75.5 -104t-76.5 -38
q-18 0 -31 12t-13 31q0 34 13.5 71t30 73.5t30 71.5t13.5 65q0 31 -12.5 51t-44.5 20q-35 0 -65 -22t-50 -66l20 -7q14 31 28.5 44t30.5 13q12 0 17.5 -6t5.5 -23q0 -24 -14.5 -61.5t-31.5 -79.5t-31.5 -83.5t-14.5 -72.5q0 -22 6 -37t15.5 -24.5t21 -13.5t22.5 -4
q22 0 48 9t51 25.5t47.5 39.5t39.5 51q-13 -59 12.5 -92t83.5 -33q30 0 63 18t65 48t60.5 69.5t50.5 82.5t35 86.5t13 81.5z" />
    <glyph glyph-name="x" unicode="x" horiz-adv-x="479" 
d="M471 372q0 23 -13 42.5t-45 19.5q-43 0 -83.5 -45t-77.5 -123q-9 44 -16.5 75.5t-17.5 52t-24 30.5t-35 10q-25 0 -52.5 -18t-54.5 -71l18 -13q13 24 23.5 36t24.5 12q12 0 20.5 -5t16.5 -22.5t16 -51t18 -89.5q4 -26 9 -43q-19 -40 -36 -66.5t-33 -43t-29.5 -23.5
t-24.5 -7q-13 0 -19 8t-6 17q0 11 5.5 17t5.5 17q0 10 -8.5 19.5t-24.5 9.5q-22 0 -38 -17.5t-16 -45.5q0 -29 19 -46t52 -17q45 0 84 36.5t77 119.5q20 -83 49.5 -119.5t67.5 -36.5q32 0 67.5 25t56.5 82l-19 8q-16 -32 -31.5 -47t-38.5 -15q-13 0 -26.5 9t-26 29.5
t-23.5 54t-20 83.5q-1 2 -1.5 6t-1.5 6q32 72 63.5 115t51.5 43q21 0 21 -20q0 -10 -5 -16.5t-5 -17.5q0 -12 7.5 -20.5t24.5 -8.5q18 0 36 16t18 49z" />
    <glyph glyph-name="y" unicode="y" horiz-adv-x="452" 
d="M483 407q0 14 -6.5 21t-23.5 7q-48 0 -97 -78t-111 -229l-24 134q-10 55 -20 89t-21.5 52.5t-23.5 25t-27 6.5q-32 0 -59.5 -22.5t-55.5 -73.5l16 -12q14 23 24.5 33.5t23.5 10.5q9 0 18.5 -3.5t19 -19t20 -47t20.5 -87.5l36 -213q-29 -68 -53 -122.5t-49 -93t-54 -59.5
t-67 -21q-16 0 -23 5t-7 20q0 11 9 26t9 32q0 15 -9.5 25t-32.5 10q-20 0 -34 -14t-14 -40q0 -37 26.5 -60.5t70.5 -23.5t77 21t62.5 63.5t58.5 106.5t64 150q42 101 69.5 163.5t50 99t45.5 53.5t56 27q14 5 25 13t11 25z" />
    <glyph glyph-name="z" unicode="z" horiz-adv-x="442" 
d="M428 429l-15 11l-12 -12q-20 -18 -38 -31.5t-46 -13.5q-30 0 -76 13t-114 45l-60 -156l19 -6l31 80q41 -17 79.5 -23.5t67.5 -6.5q13 0 26 2.5t24 8.5l-329 -338l15 -14q39 47 89 47q22 0 44.5 -7t45.5 -15.5t45.5 -15.5t45.5 -7q28 0 53 8t43.5 23.5t29 37.5t10.5 50
q0 35 -21 59t-56 24q-20 0 -32 -11.5t-12 -31.5q0 -13 7.5 -21t21.5 -8q20 0 29.5 6.5t19.5 6.5t15 -6t5 -25q0 -32 -18.5 -52.5t-56.5 -20.5q-16 0 -36 11t-43.5 24.5t-50 24.5t-54.5 11h-12t-11 -2z" />
    <glyph glyph-name="braceleft" unicode="{" horiz-adv-x="292" 
d="M409 738h-7q-46 0 -89 -17t-76 -48.5t-52.5 -77t-19.5 -101.5v-54t-0.5 -41t-0.5 -39v-47q0 -21 -9.5 -33.5t-19.5 -14.5q-3 -2 -7 -2h-5q-8 0 -13 1t-11 1q-4 0 -7 -5t-3 -7t1 -7.5t4 -5.5q7 0 12 1t13 1q6 0 10 -1q10 -4 10 -16q0 -14 -11.5 -35t-28.5 -47t-37.5 -56
t-37.5 -63t-28.5 -68t-11.5 -71q0 -28 7.5 -51.5t23 -41t40.5 -27t60 -9.5h15q1 0 2 3t2 7t1.5 7t-0.5 3h-15q-43 0 -54.5 17.5t-11.5 49.5q0 29 8.5 61.5t21.5 65t28.5 65t28.5 62.5t21.5 56t8.5 46q0 18 -7 33t-24 21q33 5 50.5 29.5t25.5 47.5q9 28 14.5 66.5t10.5 79
t10.5 78t13.5 64.5q18 55 49.5 77.5t82.5 22.5h6q2 0 5 10t1 10z" />
    <glyph glyph-name="bar" unicode="|" horiz-adv-x="160" 
d="M91 -23v778q0 2 -10 2q-9 0 -9 -2v-778q0 -2 9 -2q10 0 10 2z" />
    <glyph glyph-name="braceright" unicode="}" horiz-adv-x="292" 
d="M298 608q0 28 -7.5 51.5t-23 40.5t-40.5 27t-60 10h-15q-1 0 -2 -3t-2 -7t-1.5 -7t0.5 -3h15q43 0 54.5 -17.5t11.5 -49.5q0 -29 -8.5 -61.5t-21.5 -65t-28.5 -65t-28.5 -62.5t-21.5 -56t-8.5 -46q0 -18 7 -33t24 -21q-33 -5 -50.5 -29.5t-25.5 -47.5q-9 -29 -14.5 -67
t-10.5 -78.5t-10.5 -78t-13.5 -64.5q-18 -55 -49.5 -77.5t-82.5 -22.5h-6q-2 0 -5 -10t-1 -10h7q46 0 89 17t76 48.5t52.5 77t19.5 101.5v54t0.5 41t0.5 39v47q0 21 9.5 33.5t19.5 14.5q3 2 6 2h6q8 0 13 -1t11 -1q4 0 7 5t3 7t-1 7.5t-4 5.5q-7 0 -12 -1t-13 -1q-6 0 -10 1
q-10 4 -10 16q0 14 11.5 35t28.5 47t37.5 56t37.5 63t28.5 68t11.5 71z" />
    <glyph glyph-name="asciitilde" unicode="~" horiz-adv-x="436" 
d="M428 413q0 2 -11 2q-10 0 -10 -2q0 -24 -15 -45.5t-49 -21.5q-17 0 -37 9.5t-42 20.5t-46 20.5t-49 9.5q-24 0 -46.5 -8.5t-39 -24t-26.5 -36t-10 -44.5q0 -2 10 -2q11 0 11 2q0 25 15 46t49 21q17 0 37 -9.5t42 -20.5t46 -20.5t49 -9.5t47 9t38.5 24t26.5 35.5t10 44.5z
" />
    <glyph glyph-name="exclamdown" unicode="&#xa1;" horiz-adv-x="276" 
d="M259 345q0 18 -10.5 29t-27.5 11q-24 0 -42.5 -19.5t-18.5 -45.5q0 -18 10.5 -29t27.5 -11q24 0 42.5 19.5t18.5 45.5zM179 208q1 1 -2 2t-7 1t-7.5 -1t-4.5 -2q-14 -44 -34.5 -96.5t-43 -106.5t-45 -105.5t-40.5 -95t-29 -75.5t-11 -45q0 -16 9 -27t28 -11q20 0 39.5 14
t31.5 52q9 27 20.5 82.5t25.5 125.5t31.5 146t38.5 142z" />
    <glyph glyph-name="cent" unicode="&#xa2;" horiz-adv-x="417" 
d="M394 337q0 15 -7.5 31.5t-21.5 30t-34 23t-45 11.5l19 71q0 1 -3 1.5t-7 0.5t-8 -0.5t-4 -1.5l-19 -71q-48 -2 -91.5 -25.5t-75.5 -61t-51 -86.5t-19 -102q0 -64 33.5 -107.5t87.5 -54.5l-3 -12t-7 -25.5t-7 -25l-3 -11.5q0 -2 11 -2t11 2l3 11t6.5 24t6.5 24l3 11
q5 -1 16 -1q51 0 96.5 27.5t80.5 74.5l-15 10q-32 -40 -70 -66.5t-92 -26.5h-11l107 403q41 -1 41 -26q0 -8 -2.5 -13.5t-5 -10.5t-5 -12t-2.5 -18q0 -16 9.5 -28.5t31.5 -12.5q19 0 32.5 11t13.5 34zM259 413l-106 -399q-35 10 -46 37t-11 57q0 19 7 53t17.5 69t21.5 66.5
t20 46.5q17 30 37 49t60 21z" />
    <glyph glyph-name="sterling" unicode="&#xa3;" horiz-adv-x="601" 
d="M633 635q0 36 -26.5 63.5t-81.5 27.5q-36 0 -74.5 -20.5t-72 -56.5t-59 -84.5t-35.5 -104.5q-5 -28 -7 -50.5t-2 -46.5h-112q-1 0 -2 -3t-2.5 -7t-2 -7t0.5 -3h118q0 -93 -20.5 -148.5t-56.5 -93.5q-20 4 -43 8t-52 4q-28 0 -48.5 -6.5t-34.5 -17.5t-21 -25t-7 -28
q0 -28 19.5 -40.5t43.5 -12.5q35 0 62 14t56 40q44 -19 93.5 -36.5t106.5 -17.5q31 0 60 12t51.5 32t36.5 46t14 54q0 1 -3 2t-7 1.5t-7 1t-3 -0.5q-2 -35 -21 -58t-48 -23q-38 0 -68.5 4.5t-57.5 11.5t-52.5 14.5t-52.5 13.5q25 21 48 49.5t41.5 61t31 68t17.5 70.5h112
q1 0 2 3t2 7t1.5 7t-0.5 3h-113q14 107 31.5 174t38.5 104.5t44.5 51t49.5 13.5q33 0 33 -35q0 -13 -9.5 -29.5t-9.5 -34.5q0 -16 10.5 -26.5t33.5 -10.5q20 0 37 15t17 50zM151 45q-23 -24 -48.5 -33t-47.5 -9q-19 0 -30.5 7.5t-11.5 23.5q0 39 44 39q24 0 43.5 -7
t50.5 -21z" />
    <glyph glyph-name="yen" unicode="&#xa5;" horiz-adv-x="607" 
d="M746 709h-210q-1 0 -2 -3t-2.5 -7t-2 -7t0.5 -3h91q5 0 1.5 -6.5t-26.5 -35.5l-232 -295l-68 333q-2 4 5 4h91q1 0 2 3t2.5 7t2 7t-0.5 3h-275q-1 0 -2 -3t-2.5 -7t-2 -7t0.5 -3h84q7 0 7 -4l63 -303h-167q-1 0 -2 -3t-2.5 -7t-2 -7t0.5 -3h177l7 -33l-23 -71h-195
q-1 0 -2 -3t-1.5 -7t-1 -7t0.5 -3h194l-69 -214q0 -4 -7 -4h-90q-2 0 -5 -10t-1 -10h278q1 0 2 3t2.5 7t2 7t-0.5 3h-89q-6 0 -6 4l68 214h194q2 0 4.5 10t0.5 10h-194l22 68l29 36h177q2 0 4.5 10t0.5 10h-166l209 265q11 14 18.5 22.5t12 13t7.5 5.5t5 1h77q1 0 2 3t2.5 7
t2 7t-0.5 3z" />
    <glyph glyph-name="section" unicode="&#xa7;" horiz-adv-x="516" 
d="M573 612q0 25 -11.5 49t-32 42.5t-49.5 29.5t-64 11q-50 0 -90 -16t-68.5 -44.5t-43.5 -67t-15 -83.5q0 -29 5 -49t16 -43q-36 -9 -65.5 -28t-51.5 -46t-34 -61.5t-12 -74.5q0 -41 13 -77t33 -68.5t43 -62.5t43 -60t33 -61t13 -64q0 -29 -8.5 -54t-28 -43t-50 -28.5
t-73.5 -10.5q-37 0 -67 10.5t-51.5 27t-33.5 37t-12 40.5t7 34.5t23 14.5q11 0 17.5 -2.5t12 -5.5t11 -5.5t14.5 -2.5q16 0 26.5 11.5t10.5 34.5q0 20 -15 33.5t-35 13.5t-37 -8.5t-30.5 -24.5t-21 -37.5t-7.5 -48.5q0 -26 13.5 -51.5t37.5 -45.5t58 -32.5t76 -12.5
q64 0 107 20.5t69.5 52t38 70.5t11.5 77q0 26 -4.5 44.5t-13.5 39.5q79 17 119.5 73t40.5 145q0 42 -13.5 78.5t-33 69t-43 63.5t-43 61.5t-33 62t-13.5 66.5q0 55 38 87t114 32q33 0 58.5 -8.5t42.5 -22t26 -31.5t9 -36q0 -20 -4 -36t-19 -16q-10 0 -16 2t-10.5 5t-10 5
t-13.5 2q-14 0 -23.5 -10.5t-9.5 -31.5q0 -18 12.5 -29t30.5 -11q34 0 60.5 27t26.5 79zM386 140q0 -25 -5 -46t-17.5 -38.5t-35 -30t-56.5 -20.5q-19 40 -46.5 76t-53 71.5t-43.5 72.5t-18 79q0 41 29.5 73t88.5 44q19 -36 46 -70t52 -67.5t42 -69t17 -74.5z" />
    <glyph glyph-name="dieresis" unicode="&#xa8;" horiz-adv-x="439" 
d="M435 597q0 15 -9 24.5t-23 9.5q-21 0 -36.5 -17t-15.5 -39q0 -15 9 -24.5t23 -9.5q20 0 36 17t16 39zM243 597q0 15 -9 24.5t-23 9.5q-20 0 -36 -17t-16 -39q0 -15 9 -24.5t23 -9.5q20 0 36 17t16 39z" />
    <glyph glyph-name="copyright" unicode="&#xa9;" horiz-adv-x="826" 
d="M797 354q0 77 -28.5 145t-77 118.5t-114 79.5t-139.5 29t-139.5 -29t-114 -79.5t-77 -118.5t-28.5 -145t28.5 -144.5t77 -118t114 -79.5t139.5 -29t139.5 29t114 79.5t77 118t28.5 144.5zM776 354q0 -72 -26.5 -136t-72.5 -111.5t-107.5 -75t-131.5 -27.5t-131.5 27.5
t-107 75t-72 111.5t-26.5 136q0 73 26.5 136.5t72 111t107 75t131.5 27.5t131.5 -27.5t107.5 -75t72.5 -111t26.5 -136.5zM584 138v143q0 1 -7 1t-7 -1q0 -60 -36 -94.5t-90 -34.5q-21 0 -41.5 4.5t-34.5 17.5q-24 21 -35.5 66t-11.5 120t11.5 120t35.5 66q14 13 33 17.5
t40 4.5t42.5 -9t38 -24.5t27 -36t10.5 -42.5q0 -1 7 -1t7 1v125q0 1 -7 1q-6 0 -7 -1q-1 -5 -9 -10t-21 -5q-20 0 -43.5 8.5t-44.5 8.5q-42 0 -77.5 -18t-61 -49t-39.5 -71t-14 -85t14.5 -85.5t41 -71t62 -48.5t77.5 -18q12 0 25 3t26 6.5t25.5 6.5t22.5 3q14 0 20 -6.5
t7 -11.5q1 -1 7 -1q7 0 7 1z" />
    <glyph glyph-name="ordfeminine" unicode="&#xaa;" horiz-adv-x="348" 
d="M400 477l-19 4q-15 -30 -26.5 -42t-28.5 -12q-19 0 -12 23l83 287l-63 -9l-8 -28q-3 19 -16 27t-32 8q-39 0 -75 -20.5t-63.5 -52.5t-44 -70.5t-16.5 -74.5q0 -25 6 -47.5t18 -40t29.5 -27.5t40.5 -10q52 0 84 62q-2 -32 10.5 -47t32.5 -15q25 0 54 19.5t46 65.5z
M316 665l-42 -144q-16 -43 -39 -74.5t-54 -31.5q-26 0 -36.5 14.5t-10.5 46.5q0 23 7 55t19 64.5t28.5 60.5t35.5 43q11 10 25 13t26 3q23 0 33 -13.5t8 -36.5z" />
    <glyph glyph-name="guillemotleft" unicode="&#xab;" horiz-adv-x="439" 
d="M432 372q0 1 -3 3t-7.5 2.5t-8.5 0.5t-5 -2q-9 -29 -34.5 -55t-55 -46.5t-57 -34.5t-39.5 -19q-3 -2 -1 -4q9 -5 27 -20.5t34 -38t24.5 -50t-0.5 -56.5q0 -2 3 -3.5t7.5 -2.5t8.5 -1t4 2q15 48 4.5 91.5t-33.5 71.5q21 12 41.5 30t38 39.5t31 45t21.5 47.5zM260 372
q0 1 -3 3t-7.5 2.5t-8.5 0.5t-5 -2q-9 -29 -34.5 -55t-55 -46.5t-57 -34.5t-39.5 -19q-3 -2 -1 -4q9 -5 27 -20.5t34 -38t24.5 -50t-0.5 -56.5q0 -2 3 -3.5t7.5 -2.5t8.5 -1t4 2q15 48 4.5 91.5t-33.5 71.5q21 12 41.5 30t38 39.5t31 45t21.5 47.5z" />
    <glyph glyph-name="registered" unicode="&#xae;" horiz-adv-x="826" 
d="M797 354q0 77 -28.5 145t-77 118.5t-114 79.5t-139.5 29t-139.5 -29t-114 -79.5t-77 -118.5t-28.5 -145t28.5 -144.5t77 -118t114 -79.5t139.5 -29t139.5 29t114 79.5t77 118t28.5 144.5zM776 354q0 -72 -26.5 -136t-72.5 -111.5t-107.5 -75t-131.5 -27.5t-131.5 27.5
t-107 75t-72 111.5t-26.5 136q0 73 26.5 136.5t72 111t107 75t131.5 27.5t131.5 -27.5t107.5 -75t72.5 -111t26.5 -136.5zM674 158l-3 6.5t-4 5.5q-6 -6 -14.5 -11.5t-19.5 -5.5q-32 0 -32 45v54q0 52 -34.5 81.5t-112.5 29.5q27 0 50.5 8.5t40.5 23t26.5 33.5t9.5 40
q0 45 -36.5 74.5t-102.5 29.5h-181q-1 0 -1 -8q0 -7 1 -7h52q4 0 4 -2v-391q0 -2 -4 -2h-52q-1 0 -1 -8q0 -7 1 -7h190q2 0 2 7q0 8 -2 8h-63q-3 0 -3 2v191h53q41 0 66.5 -17t25.5 -57v-28q0 -64 26.5 -90t62.5 -26q20 0 33 5.5t22 15.5zM514 466q0 -29 -3.5 -47.5
t-12.5 -29.5t-23.5 -15t-36.5 -4h-53v185q0 2 3 2h38q21 0 37.5 -3.5t27.5 -13.5t17 -28t6 -46z" />
    <glyph glyph-name="macron" unicode="&#xaf;" horiz-adv-x="400" 
d="M455 590q3 14 0 28h-320q-3 -14 0 -28h320z" />
    <glyph glyph-name="macron" unicode="&#x2c9;" horiz-adv-x="400" 
d="M455 590q3 14 0 28h-320q-3 -14 0 -28h320z" />
    <glyph glyph-name="degree" unicode="&#xb0;" horiz-adv-x="283" 
d="M329 655q0 30 -17.5 48t-47.5 18q-21 0 -39.5 -8t-32 -22t-21.5 -33t-8 -40q0 -29 17.5 -47t47.5 -18q21 0 39.5 8t32 22t21.5 32.5t8 39.5zM307 653q0 -16 -6 -30.5t-16 -25t-23.5 -17t-27.5 -6.5q-21 0 -35 12t-14 36q0 32 22 55t51 23q21 0 35 -12t14 -35z" />
    <glyph glyph-name="acute" unicode="&#xb4;" horiz-adv-x="354" 
d="M360 656q0 14 -8.5 23t-23.5 9q-13 0 -23 -10t-21.5 -25.5t-26 -35t-36 -37.5t-51.5 -33.5t-72 -23.5q-2 0 -3.5 -10t0.5 -10q74 13 124.5 33t82 41.5t45 42.5t13.5 36z" />
    <glyph glyph-name="paragraph" unicode="&#xb6;" horiz-adv-x="646" 
d="M765 708h-229q-54 0 -108.5 -16.5t-105 -46t-95 -70t-77.5 -89t-52 -103t-19 -111.5q0 -59 20.5 -109t56 -86t82.5 -56.5t101 -20.5h203q2 0 5 10t1 10h-81q-6 0 -5 4l208 661q1 3 8 3h81q1 0 2 3t2.5 7t2 7t-0.5 3zM648 684l-208 -661q-2 -3 -8 -3h-78q-7 0 -5 3
l208 661q1 4 8 4h78q6 0 5 -4z" />
    <glyph glyph-name="periodcentered" unicode="&#xb7;" horiz-adv-x="181" 
d="M157 366q0 18 -10.5 29.5t-27.5 11.5q-24 0 -42.5 -20t-18.5 -46q0 -18 10.5 -29t27.5 -11q24 0 42.5 19.5t18.5 45.5z" />
    <glyph glyph-name="cedilla" unicode="&#xb8;" horiz-adv-x="289" 
d="M112 -155q0 20 -6.5 34t-14 26t-14 24.5t-6.5 29.5q0 11 5 17.5t10 9.5q1 1 -1 3t-5 4t-6 3.5t-4 0.5q-5 -3 -12 -10t-14 -16t-11.5 -20t-4.5 -23q0 -17 8 -30t18 -24t18 -21t8 -21q0 -19 -10 -30t-37 -11q-17 0 -27 9.5t-10 20.5q0 8 9 13.5t9 18.5q0 11 -6 17t-15 6
q-12 0 -21.5 -12t-9.5 -24q0 -29 18 -49t52 -20q14 0 28.5 5t26 15t18.5 23.5t7 30.5z" />
    <glyph glyph-name="ordmasculine" unicode="&#xba;" horiz-adv-x="350" 
d="M372 603q0 27 -9 51t-24 42t-35.5 28.5t-42.5 10.5q-34 0 -66.5 -18t-58 -48t-41 -68t-15.5 -77q0 -27 8.5 -51t23.5 -42t35 -28.5t43 -10.5q34 0 67 18t58.5 48t41 68t15.5 77zM313 648q0 -15 -5 -42t-12.5 -56.5t-15.5 -55t-14 -36.5q-25 -46 -75 -46q-29 0 -40.5 16.5
t-11.5 50.5q0 15 5 42t12.5 56.5t15.5 55t14 36.5q24 46 75 46q29 0 40.5 -16.5t11.5 -50.5z" />
    <glyph glyph-name="guillemotright" unicode="&#xbb;" horiz-adv-x="439" 
d="M389 207q-9 5 -27 20.5t-34 38t-24.5 50t0.5 56.5q0 1 -3 3t-7.5 2.5t-8.5 0.5t-4 -1q-15 -48 -4.5 -91.5t33.5 -71.5q-21 -12 -41.5 -30t-38 -39.5t-31.5 -45t-21 -47.5q0 -2 3 -3.5t7.5 -2t8.5 -1t5 1.5q9 30 34.5 56t55 46.5t57 34.5t39.5 19q3 2 1 4zM217 207
q-9 5 -27 20.5t-34 38t-24.5 50t0.5 56.5q0 1 -3 3t-7.5 2.5t-8.5 0.5t-4 -1q-15 -48 -4.5 -91.5t33.5 -71.5q-21 -12 -41.5 -30t-38 -39.5t-31.5 -45t-21 -47.5q0 -2 3 -3.5t7.5 -2t8.5 -1t5 1.5q9 30 34.5 56t55 46.5t57 34.5t39.5 19q3 2 1 4z" />
    <glyph glyph-name="questiondown" unicode="&#xbf;" horiz-adv-x="456" 
d="M439 345q0 18 -10.5 29t-27.5 11q-24 0 -42.5 -19.5t-18.5 -45.5q0 -18 10.5 -29t27.5 -11q24 0 42.5 19.5t18.5 45.5zM358 208q1 1 -2 2t-7 1t-7.5 -1t-4.5 -2l-54 -172q-5 11 -23 19t-41 8q-48 0 -92 -19t-77.5 -52.5t-53.5 -78.5t-20 -97q0 -34 12 -64.5t33.5 -54
t50.5 -37t63 -13.5q37 0 67.5 12.5t52.5 32t34 42.5t12 44q0 20 -13.5 35.5t-34.5 15.5q-24 0 -35.5 -11t-11.5 -27q0 -9 2 -14t4.5 -10t4.5 -11t2 -17q0 -39 -18.5 -55.5t-68.5 -16.5q-39 0 -65.5 22t-26.5 67q0 18 8 51t18.5 68.5t22 66t19.5 44.5q9 15 18.5 25.5t23 17.5
t31.5 10t43 3q21 0 36 -9.5t19 -25.5q1 -3 10.5 -0.5t10.5 4.5q1 1 0.5 2t0.5 3z" />
    <glyph glyph-name="Agrave" unicode="&#xc0;" horiz-adv-x="628" 
d="M584 20h-96q-7 0 -7 3v700q0 2 -10 2.5t-12 -2.5l-477 -662q-17 -24 -28 -32.5t-23 -8.5h-60q-1 0 -2 -3t-2.5 -7t-2 -7t0.5 -3h202q1 0 2.5 3t2.5 7t2 7t0 3h-79q-10 0 -8 7.5t22 34.5l126 175h243v-214q0 -3 -7 -3h-73q-2 0 -5.5 -10t-1.5 -10h286q2 0 5.5 10t1.5 10z
M378 258h-227l227 313v-313zM549 776q-36 9 -58.5 25.5t-36.5 36.5t-21.5 40t-13.5 37t-12.5 27.5t-18.5 10.5q-16 0 -26.5 -11t-10.5 -28q0 -20 9.5 -42t32 -43.5t59.5 -40.5t92 -32q1 0 2 2.5t2 6.5t1.5 7.5t-0.5 3.5z" />
    <glyph glyph-name="Aacute" unicode="&#xc1;" horiz-adv-x="628" 
d="M584 20h-96q-7 0 -7 3v700q0 2 -10 2.5t-12 -2.5l-477 -662q-17 -24 -28 -32.5t-23 -8.5h-60q-1 0 -2 -3t-2.5 -7t-2 -7t0.5 -3h202q1 0 2.5 3t2.5 7t2 7t0 3h-79q-10 0 -8 7.5t22 34.5l126 175h243v-214q0 -3 -7 -3h-73q-2 0 -5.5 -10t-1.5 -10h286q2 0 5.5 10t1.5 10z
M378 258h-227l227 313v-313zM727 911q0 14 -8.5 23t-23.5 9q-13 0 -23 -10t-21.5 -25.5t-26 -35t-36 -37.5t-51.5 -33.5t-72 -23.5q-2 0 -3.5 -10t0.5 -10q74 13 124.5 33t82 41.5t45 42.5t13.5 36z" />
    <glyph glyph-name="Acircumflex" unicode="&#xc2;" horiz-adv-x="628" 
d="M584 20h-96q-7 0 -7 3v700q0 2 -10 2.5t-12 -2.5l-477 -662q-17 -24 -28 -32.5t-23 -8.5h-60q-1 0 -2 -3t-2.5 -7t-2 -7t0.5 -3h202q1 0 2.5 3t2.5 7t2 7t0 3h-79q-10 0 -8 7.5t22 34.5l126 175h243v-214q0 -3 -7 -3h-73q-2 0 -5.5 -10t-1.5 -10h286q2 0 5.5 10t1.5 10z
M378 258h-227l227 313v-313zM624 778q-8 19 -16 43t-14.5 49.5t-12 50.5t-7.5 47q0 2 -9 4.5t-11 0.5q-17 -18 -37.5 -41t-43.5 -49t-49 -52.5t-55 -51.5q-1 0 1.5 -1.5t6 -3t6.5 -2.5t4 0q36 31 74 65.5t64 61.5q9 -38 21.5 -72.5t25.5 -56.5z" />
    <glyph glyph-name="Atilde" unicode="&#xc3;" horiz-adv-x="628" 
d="M584 20h-96q-7 0 -7 3v700q0 2 -10 2.5t-12 -2.5l-477 -662q-17 -24 -28 -32.5t-23 -8.5h-60q-1 0 -2 -3t-2.5 -7t-2 -7t0.5 -3h202q1 0 2.5 3t2.5 7t2 7t0 3h-79q-10 0 -8 7.5t22 34.5l126 175h243v-214q0 -3 -7 -3h-73q-2 0 -5.5 -10t-1.5 -10h286q2 0 5.5 10t1.5 10z
M378 258h-227l227 313v-313zM733 919q0 2 -11 2q-10 0 -10 -2q0 -24 -15 -45.5t-49 -21.5q-17 0 -37 9.5t-42 20.5t-46 20.5t-49 9.5q-24 0 -46.5 -8.5t-39 -24t-26.5 -36t-10 -44.5q0 -2 10 -2q11 0 11 2q0 25 15 46t49 21q17 0 37 -9.5t42 -20.5t46 -20.5t49 -9.5
q24 0 46.5 9t39 24t26.5 35.5t10 44.5z" />
    <glyph glyph-name="Adieresis" unicode="&#xc4;" horiz-adv-x="628" 
d="M584 20h-96q-7 0 -7 3v700q0 2 -10 2.5t-12 -2.5l-477 -662q-17 -24 -28 -32.5t-23 -8.5h-60q-1 0 -2 -3t-2.5 -7t-2 -7t0.5 -3h202q1 0 2.5 3t2.5 7t2 7t0 3h-79q-10 0 -8 7.5t22 34.5l126 175h243v-214q0 -3 -7 -3h-73q-2 0 -5.5 -10t-1.5 -10h286q2 0 5.5 10t1.5 10z
M378 258h-227l227 313v-313zM659 852q0 15 -9 24.5t-23 9.5q-21 0 -36.5 -17t-15.5 -39q0 -15 9 -24.5t23 -9.5q20 0 36 17t16 39zM467 852q0 15 -9 24.5t-23 9.5q-20 0 -36 -17t-16 -39q0 -15 9 -24.5t23 -9.5q20 0 36 17t16 39z" />
    <glyph glyph-name="Aring" unicode="&#xc5;" horiz-adv-x="628" 
d="M584 20h-96q-7 0 -7 3v681q36 6 61 34.5t25 66.5q0 30 -17.5 48t-47.5 18q-21 0 -39 -8t-32 -22t-22 -32.5t-8 -39.5q0 -24 12.5 -41t33.5 -22l-465 -645q-17 -24 -28 -32.5t-23 -8.5h-60q-1 0 -2 -3t-2.5 -7t-2 -7t0.5 -3h202q1 0 2.5 3t2.5 7t2 7t0 3h-79q-10 0 -8 7.5
t22 34.5l126 175h243v-214q0 -3 -7 -3h-73q-2 0 -5.5 -10t-1.5 -10h286q2 0 5.5 10t1.5 10zM545 803q0 -16 -6 -30.5t-16 -25t-23 -17t-27 -6.5q-22 0 -35.5 12.5t-13.5 35.5q0 16 6 30.5t16 25t23 16.5t27 6q22 0 35.5 -12t13.5 -35zM378 258h-227l227 313v-313z" />
    <glyph glyph-name="AE" unicode="&#xc6;" horiz-adv-x="874" 
d="M905 705q1 3 -1 3h-515q-1 0 -2 -3t-2.5 -7t-2 -7t0.5 -3h109l-509 -627q-10 -12 -17 -20t-13.5 -12.5t-14 -6.5t-18.5 -2h-48q-1 0 -2 -3t-2.5 -7t-2 -7t0.5 -3h203q1 0 2 3t2.5 7t2 7t-0.5 3h-79q-8 0 -6 10t20 32l167 205h190l-76 -244q-2 -3 -8 -3h-90q-1 0 -2 -3
t-2.5 -7t-2 -7t0.5 -3h547q2 0 4 3l62 197q0 2 -11 2q-10 0 -10 -2q-12 -38 -32.5 -71t-53.5 -57t-80.5 -38t-114.5 -14h-93q-7 0 -5 3l108 340h37q31 0 49.5 -8.5t26.5 -24t7 -37t-9 -47.5q0 -1 3 -1.5t7 -0.5t7.5 0.5t3.5 1.5l72 233q0 1 -3 1h-7h-7q-3 0 -3 -1
q-17 -52 -48 -74t-92 -22h-38l95 302q1 3 8 3h103q83 0 110 -43t4 -118q0 -1 3 -1.5t7 -0.5t7.5 0.5t3.5 1.5zM489 652l-115 -365h-182z" />
    <glyph glyph-name="Ccedilla" unicode="&#xc7;" horiz-adv-x="611" 
d="M670 723q0 1 -3 1h-7h-7q-3 0 -3 -1q-6 -12 -16.5 -20t-37.5 -8q-18 0 -33 5t-31 10.5t-34.5 10.5t-41.5 5q-53 0 -104 -18.5t-96 -51.5t-83 -78.5t-65.5 -98.5t-43 -111.5t-15.5 -118.5q0 -62 16.5 -111t46 -82.5t70.5 -52t90 -19.5q-10 -10 -18.5 -25t-8.5 -32t8 -30
t18 -24.5t18 -21.5t8 -21q0 -19 -10 -30t-37 -11q-17 0 -27 9.5t-10 20.5q0 8 9 13.5t9 18.5q0 11 -6 17t-15 6q-12 0 -21.5 -12t-9.5 -24q0 -29 18 -49t52 -20q14 0 28 5t25.5 15t19 24t7.5 31q0 20 -6.5 33.5t-14 25.5t-14 24.5t-6.5 29.5q0 10 4 16.5t9 9.5q75 5 141 48
t119 118q0 1 -2 3.5t-4.5 5t-5 4.5t-3.5 1q-57 -81 -120 -120.5t-143 -39.5q-74 0 -113.5 34.5t-39.5 112.5q0 30 7.5 70.5t20 85t28.5 90.5t32 86.5t30.5 72.5t25.5 50q32 51 74 75.5t108 24.5q35 0 64 -14.5t48 -39t25 -57t-6 -69.5q0 -2 10 -2t10 2z" />
    <glyph glyph-name="Egrave" unicode="&#xc8;" horiz-adv-x="630" 
d="M662 705q0 3 -2 3h-493q-1 0 -2 -3t-2.5 -7t-2 -7t0.5 -3h90q6 0 5 -3l-208 -662q-2 -3 -8 -3h-89q-2 0 -5.5 -10t-1.5 -10h546q2 0 4 3l62 197q0 1 -3 1h-7h-7q-3 0 -3 -1q-12 -38 -32 -71t-53 -57t-81 -38t-115 -14h-92q-6 0 -6 3l108 341h37q31 0 49.5 -8.5
t26.5 -24.5t7 -37.5t-9 -47.5q0 -1 3 -1.5t6 -0.5q4 0 7.5 0.5t3.5 1.5l73 233q0 2 -10 2t-11 -2q-16 -52 -46.5 -74t-92.5 -22h-38l94 302q1 3 8 3h105q83 0 109.5 -43t3.5 -118q0 -2 10 -2t10 2zM573 776q-36 9 -58.5 25.5t-36.5 36.5t-21.5 40t-13.5 37t-12.5 27.5
t-18.5 10.5q-16 0 -26.5 -11t-10.5 -28q0 -20 9.5 -42t32 -43.5t59.5 -40.5t92 -32q1 0 2 2.5t2 6.5t1.5 7.5t-0.5 3.5z" />
    <glyph glyph-name="Eacute" unicode="&#xc9;" horiz-adv-x="635" 
d="M662 705q0 3 -2 3h-493q-1 0 -2 -3t-2.5 -7t-2 -7t0.5 -3h90q6 0 5 -3l-208 -662q-2 -3 -8 -3h-89q-2 0 -5.5 -10t-1.5 -10h546q2 0 4 3l62 197q0 1 -3 1h-7h-7q-3 0 -3 -1q-12 -38 -32 -71t-53 -57t-81 -38t-115 -14h-92q-6 0 -6 3l108 341h37q31 0 49.5 -8.5
t26.5 -24.5t7 -37.5t-9 -47.5q0 -1 3 -1.5t6 -0.5q4 0 7.5 0.5t3.5 1.5l73 233q0 2 -10 2t-11 -2q-16 -52 -46.5 -74t-92.5 -22h-38l94 302q1 3 8 3h105q83 0 109.5 -43t3.5 -118q0 -2 10 -2t10 2zM642 911q0 14 -8.5 23t-23.5 9q-13 0 -23 -10t-21.5 -25.5t-26 -35
t-36 -37.5t-51.5 -33.5t-72 -23.5q-2 0 -3.5 -10t0.5 -10q74 13 124.5 33t82 41.5t45 42.5t13.5 36z" />
    <glyph glyph-name="Ecircumflex" unicode="&#xca;" horiz-adv-x="630" 
d="M662 705q0 3 -2 3h-493q-1 0 -2 -3t-2.5 -7t-2 -7t0.5 -3h90q6 0 5 -3l-208 -662q-2 -3 -8 -3h-89q-2 0 -5.5 -10t-1.5 -10h546q2 0 4 3l62 197q0 1 -3 1h-7h-7q-3 0 -3 -1q-12 -38 -32 -71t-53 -57t-81 -38t-115 -14h-92q-6 0 -6 3l108 341h37q31 0 49.5 -8.5
t26.5 -24.5t7 -37.5t-9 -47.5q0 -1 3 -1.5t6 -0.5q4 0 7.5 0.5t3.5 1.5l73 233q0 2 -10 2t-11 -2q-16 -52 -46.5 -74t-92.5 -22h-38l94 302q1 3 8 3h105q83 0 109.5 -43t3.5 -118q0 -2 10 -2t10 2zM597 778q-8 19 -16 43t-14.5 49.5t-12 50.5t-7.5 47q0 2 -9 4.5t-11 0.5
q-17 -18 -37.5 -41t-43.5 -49t-49 -52.5t-55 -51.5q-1 0 1.5 -1.5t6 -3t6.5 -2.5t4 0q36 31 74 65.5t64 61.5q9 -38 21.5 -72.5t25.5 -56.5z" />
    <glyph glyph-name="Edieresis" unicode="&#xcb;" horiz-adv-x="630" 
d="M662 705q0 3 -2 3h-493q-1 0 -2 -3t-2.5 -7t-2 -7t0.5 -3h90q6 0 5 -3l-208 -662q-2 -3 -8 -3h-89q-2 0 -5.5 -10t-1.5 -10h546q2 0 4 3l62 197q0 1 -3 1h-7h-7q-3 0 -3 -1q-12 -38 -32 -71t-53 -57t-81 -38t-115 -14h-92q-6 0 -6 3l108 341h37q31 0 49.5 -8.5
t26.5 -24.5t7 -37.5t-9 -47.5q0 -1 3 -1.5t6 -0.5q4 0 7.5 0.5t3.5 1.5l73 233q0 2 -10 2t-11 -2q-16 -52 -46.5 -74t-92.5 -22h-38l94 302q1 3 8 3h105q83 0 109.5 -43t3.5 -118q0 -2 10 -2t10 2zM639 852q0 15 -9 24.5t-23 9.5q-21 0 -36.5 -17t-15.5 -39q0 -15 9 -24.5
t23 -9.5q20 0 36 17t16 39zM447 852q0 15 -9 24.5t-23 9.5q-20 0 -36 -17t-16 -39q0 -15 9 -24.5t23 -9.5q20 0 36 17t16 39z" />
    <glyph glyph-name="Igrave" unicode="&#xcc;" horiz-adv-x="385" 
d="M470 709h-302q-2 0 -5 -10t-1 -10h89q6 0 6 -4l-208 -661q-1 -4 -8 -4h-90q-1 0 -2 -3t-2.5 -7t-2 -7t0.5 -3h302q1 0 2 3t2.5 7t2 7t-0.5 3h-90q-6 0 -5 4l208 661q2 4 8 4h89q2 0 5.5 10t1.5 10zM444 776q-36 9 -58.5 25.5t-36.5 36.5t-21.5 40t-13.5 37t-12.5 27.5
t-18.5 10.5q-16 0 -26.5 -11t-10.5 -28q0 -20 9.5 -42t32 -43.5t59.5 -40.5t92 -32q1 0 2 2.5t2 6.5t1.5 7.5t-0.5 3.5z" />
    <glyph glyph-name="Iacute" unicode="&#xcd;" horiz-adv-x="385" 
d="M470 709h-302q-2 0 -5 -10t-1 -10h89q6 0 6 -4l-208 -661q-1 -4 -8 -4h-90q-1 0 -2 -3t-2.5 -7t-2 -7t0.5 -3h302q1 0 2 3t2.5 7t2 7t-0.5 3h-90q-6 0 -5 4l208 661q2 4 8 4h89q2 0 5.5 10t1.5 10zM529 911q0 14 -8.5 23t-23.5 9q-13 0 -23 -10t-21.5 -25.5t-26 -35
t-36 -37.5t-51.5 -33.5t-72 -23.5q-2 0 -3.5 -10t0.5 -10q74 13 124.5 33t82 41.5t45 42.5t13.5 36z" />
    <glyph glyph-name="Icircumflex" unicode="&#xce;" horiz-adv-x="385" 
d="M470 709h-302q-2 0 -5 -10t-1 -10h89q6 0 6 -4l-208 -661q-1 -4 -8 -4h-90q-1 0 -2 -3t-2.5 -7t-2 -7t0.5 -3h302q1 0 2 3t2.5 7t2 7t-0.5 3h-90q-6 0 -5 4l208 661q2 4 8 4h89q2 0 5.5 10t1.5 10zM471 778q-8 19 -16 43t-14.5 49.5t-12 50.5t-7.5 47q0 2 -9 4.5t-11 0.5
q-17 -18 -37.5 -41t-43.5 -49t-49 -52.5t-55 -51.5q-1 0 1.5 -1.5t6 -3t6.5 -2.5t4 0q36 31 74 65.5t64 61.5q9 -38 21.5 -72.5t25.5 -56.5z" />
    <glyph glyph-name="Idieresis" unicode="&#xcf;" horiz-adv-x="385" 
d="M470 709h-302q-2 0 -5 -10t-1 -10h89q6 0 6 -4l-208 -661q-1 -4 -8 -4h-90q-1 0 -2 -3t-2.5 -7t-2 -7t0.5 -3h302q1 0 2 3t2.5 7t2 7t-0.5 3h-90q-6 0 -5 4l208 661q2 4 8 4h89q2 0 5.5 10t1.5 10zM506 852q0 15 -9 24.5t-23 9.5q-21 0 -36.5 -17t-15.5 -39
q0 -15 9 -24.5t23 -9.5q20 0 36 17t16 39zM314 852q0 15 -9 24.5t-23 9.5q-20 0 -36 -17t-16 -39q0 -15 9 -24.5t23 -9.5q20 0 36 17t16 39z" />
    <glyph glyph-name="Ntilde" unicode="&#xd1;" horiz-adv-x="731" 
d="M814 709h-197q-1 0 -2 -3t-2.5 -7t-2 -7t0.5 -3h82q7 0 5 -4l-166 -525l-155 531q-4 11 -8 14.5t-9 3.5h-184q-1 0 -2 -3t-2.5 -7t-2 -7t0.5 -3h81q7 0 5 -4l-208 -661q0 -4 -7 -4h-82q-1 0 -2 -3t-2.5 -7t-2 -7t0.5 -3h196q2 0 5.5 10t1.5 10h-82q-6 0 -5 4l200 634
l208 -671q2 -3 11.5 -2.5t10.5 2.5l220 698q2 4 8 4h81q1 0 2 3t2.5 7t2 7t-0.5 3zM727 919q0 2 -11 2q-10 0 -10 -2q0 -24 -15 -45.5t-49 -21.5q-17 0 -37 9.5t-42 20.5t-46 20.5t-49 9.5q-24 0 -46.5 -8.5t-39 -24t-26.5 -36t-10 -44.5q0 -2 10 -2q11 0 11 2q0 25 15 46
t49 21q17 0 37 -9.5t42 -20.5t46 -20.5t49 -9.5q24 0 46.5 9t39 24t26.5 35.5t10 44.5z" />
    <glyph glyph-name="Ograve" unicode="&#xd2;" 
d="M690 459q0 62 -16.5 111.5t-46.5 84t-73.5 53t-97.5 18.5q-53 0 -104 -18.5t-96 -51.5t-83 -78.5t-65.5 -98.5t-43 -111.5t-15.5 -118.5q0 -62 16.5 -111.5t46.5 -84t73.5 -52.5t97.5 -18q80 0 153.5 40.5t130 107.5t90 152.5t33.5 175.5zM609 558q0 -30 -8 -70
t-20.5 -85t-28.5 -91t-32.5 -86.5t-31.5 -73t-26 -50.5q-36 -58 -80 -78.5t-99 -20.5q-153 0 -153 147q0 30 8 70.5t20.5 85t28.5 90.5t32.5 87t31.5 73.5t26 49.5q37 58 80.5 78.5t98.5 20.5q153 0 153 -147zM548 776q-36 9 -58.5 25.5t-36.5 36.5t-21.5 40t-13.5 37
t-12.5 27.5t-18.5 10.5q-16 0 -26.5 -11t-10.5 -28q0 -20 9.5 -42t32 -43.5t59.5 -40.5t92 -32q1 0 2 2.5t2 6.5t1.5 7.5t-0.5 3.5z" />
    <glyph glyph-name="Oacute" unicode="&#xd3;" 
d="M690 459q0 62 -16.5 111.5t-46.5 84t-73.5 53t-97.5 18.5q-53 0 -104 -18.5t-96 -51.5t-83 -78.5t-65.5 -98.5t-43 -111.5t-15.5 -118.5q0 -62 16.5 -111.5t46.5 -84t73.5 -52.5t97.5 -18q80 0 153.5 40.5t130 107.5t90 152.5t33.5 175.5zM609 558q0 -30 -8 -70
t-20.5 -85t-28.5 -91t-32.5 -86.5t-31.5 -73t-26 -50.5q-36 -58 -80 -78.5t-99 -20.5q-153 0 -153 147q0 30 8 70.5t20.5 85t28.5 90.5t32.5 87t31.5 73.5t26 49.5q37 58 80.5 78.5t98.5 20.5q153 0 153 -147zM675 911q0 14 -8.5 23t-23.5 9q-13 0 -23 -10t-21.5 -25.5
t-26 -35t-36 -37.5t-51.5 -33.5t-72 -23.5q-2 0 -3.5 -10t0.5 -10q74 13 124.5 33t82 41.5t45 42.5t13.5 36z" />
    <glyph glyph-name="Ocircumflex" unicode="&#xd4;" 
d="M690 459q0 62 -16.5 111.5t-46.5 84t-73.5 53t-97.5 18.5q-53 0 -104 -18.5t-96 -51.5t-83 -78.5t-65.5 -98.5t-43 -111.5t-15.5 -118.5q0 -62 16.5 -111.5t46.5 -84t73.5 -52.5t97.5 -18q80 0 153.5 40.5t130 107.5t90 152.5t33.5 175.5zM609 558q0 -30 -8 -70
t-20.5 -85t-28.5 -91t-32.5 -86.5t-31.5 -73t-26 -50.5q-36 -58 -80 -78.5t-99 -20.5q-153 0 -153 147q0 30 8 70.5t20.5 85t28.5 90.5t32.5 87t31.5 73.5t26 49.5q37 58 80.5 78.5t98.5 20.5q153 0 153 -147zM617 778q-8 19 -16 43t-14.5 49.5t-12 50.5t-7.5 47q0 2 -9 4.5
t-11 0.5q-17 -18 -37.5 -41t-43.5 -49t-49 -52.5t-55 -51.5q-1 0 1.5 -1.5t6 -3t6.5 -2.5t4 0q36 31 74 65.5t64 61.5q9 -38 21.5 -72.5t25.5 -56.5z" />
    <glyph glyph-name="Otilde" unicode="&#xd5;" 
d="M690 459q0 62 -16.5 111.5t-46.5 84t-73.5 53t-97.5 18.5q-53 0 -104 -18.5t-96 -51.5t-83 -78.5t-65.5 -98.5t-43 -111.5t-15.5 -118.5q0 -62 16.5 -111.5t46.5 -84t73.5 -52.5t97.5 -18q80 0 153.5 40.5t130 107.5t90 152.5t33.5 175.5zM609 558q0 -30 -8 -70
t-20.5 -85t-28.5 -91t-32.5 -86.5t-31.5 -73t-26 -50.5q-36 -58 -80 -78.5t-99 -20.5q-153 0 -153 147q0 30 8 70.5t20.5 85t28.5 90.5t32.5 87t31.5 73.5t26 49.5q37 58 80.5 78.5t98.5 20.5q153 0 153 -147zM708 919q0 2 -11 2q-10 0 -10 -2q0 -24 -15 -45.5t-49 -21.5
q-17 0 -37 9.5t-42 20.5t-46 20.5t-49 9.5q-24 0 -46.5 -8.5t-39 -24t-26.5 -36t-10 -44.5q0 -2 10 -2q11 0 11 2q0 25 15 46t49 21q17 0 37 -9.5t42 -20.5t46 -20.5t49 -9.5q24 0 46.5 9t39 24t26.5 35.5t10 44.5z" />
    <glyph glyph-name="Odieresis" unicode="&#xd6;" 
d="M690 459q0 62 -16.5 111.5t-46.5 84t-73.5 53t-97.5 18.5q-53 0 -104 -18.5t-96 -51.5t-83 -78.5t-65.5 -98.5t-43 -111.5t-15.5 -118.5q0 -62 16.5 -111.5t46.5 -84t73.5 -52.5t97.5 -18q80 0 153.5 40.5t130 107.5t90 152.5t33.5 175.5zM609 558q0 -30 -8 -70
t-20.5 -85t-28.5 -91t-32.5 -86.5t-31.5 -73t-26 -50.5q-36 -58 -80 -78.5t-99 -20.5q-153 0 -153 147q0 30 8 70.5t20.5 85t28.5 90.5t32.5 87t31.5 73.5t26 49.5q37 58 80.5 78.5t98.5 20.5q153 0 153 -147zM654 852q0 15 -9 24.5t-23 9.5q-21 0 -36.5 -17t-15.5 -39
q0 -15 9 -24.5t23 -9.5q20 0 36 17t16 39zM462 852q0 15 -9 24.5t-23 9.5q-20 0 -36 -17t-16 -39q0 -15 9 -24.5t23 -9.5q20 0 36 17t16 39z" />
    <glyph glyph-name="Oslash" unicode="&#xd8;" 
d="M690 459q0 131 -68 202q11 13 23.5 29t20 25.5t8.5 10.5t-6.5 7t-9.5 4q-1 -2 -9.5 -12t-20.5 -25.5t-20 -25.5q-29 25 -67 38.5t-85 13.5q-53 0 -104 -18.5t-96 -51.5t-83 -78.5t-65.5 -98.5t-43 -111.5t-15.5 -118.5q0 -65 17.5 -115t49.5 -85l-52 -66q-1 -1 1 -3
t5 -3.5l6 -3t3 -0.5l51 63q29 -26 67.5 -39.5t85.5 -13.5q80 0 153.5 40.5t130 107.5t90 152.5t33.5 175.5zM587 647l-19 -24t-50.5 -64t-71.5 -91t-82 -104t-82 -104t-71.5 -90.5t-50.5 -64l-19 -24.5q-11 31 -11 69q0 30 8 70.5t20.5 85t28.5 90.5t32.5 87t31.5 73.5
t26 49.5q37 58 80.5 78.5t98.5 20.5q97 0 131 -58zM609 558q0 -30 -8 -70t-20.5 -85t-28.5 -91t-32.5 -86.5t-31.5 -73t-26 -50.5q-36 -58 -80 -78.5t-99 -20.5q-97 0 -133 60q1 2 24.5 31.5t64 81t87.5 111t95 120.5t87 110.5t64 80.5l25 31q7 -14 9.5 -32t2.5 -39z" />
    <glyph glyph-name="Ugrave" unicode="&#xd9;" horiz-adv-x="736" 
d="M825 709h-197q-2 0 -4.5 -10t-0.5 -10h81q7 0 5 -4l-149 -469q-32 -103 -86 -151.5t-143 -48.5q-63 0 -99 28t-36 77q0 29 7.5 64.5t20.5 74.5l132 425q2 4 8 4h90q1 0 2 3t2.5 7t2 7t-0.5 3h-302q-1 0 -2 -3t-2.5 -7t-2 -7t0.5 -3h90q7 0 5 -4l-133 -422
q-8 -26 -12 -50.5t-4 -48.5q0 -38 11 -71t34.5 -57.5t61 -38.5t90.5 -14q112 0 181 56.5t101 160.5l154 485q0 4 7 4h82q2 0 4.5 10t0.5 10zM620 776q-36 9 -58.5 25.5t-36.5 36.5t-21.5 40t-13.5 37t-12.5 27.5t-18.5 10.5q-16 0 -26.5 -11t-10.5 -28q0 -20 9.5 -42
t32 -43.5t59.5 -40.5t92 -32q1 0 2 2.5t2 6.5t1.5 7.5t-0.5 3.5z" />
    <glyph glyph-name="Uacute" unicode="&#xda;" horiz-adv-x="736" 
d="M825 709h-197q-2 0 -4.5 -10t-0.5 -10h81q7 0 5 -4l-149 -469q-32 -103 -86 -151.5t-143 -48.5q-63 0 -99 28t-36 77q0 29 7.5 64.5t20.5 74.5l132 425q2 4 8 4h90q1 0 2 3t2.5 7t2 7t-0.5 3h-302q-1 0 -2 -3t-2.5 -7t-2 -7t0.5 -3h90q7 0 5 -4l-133 -422
q-8 -26 -12 -50.5t-4 -48.5q0 -38 11 -71t34.5 -57.5t61 -38.5t90.5 -14q112 0 181 56.5t101 160.5l154 485q0 4 7 4h82q2 0 4.5 10t0.5 10zM732 911q0 14 -8.5 23t-23.5 9q-13 0 -23 -10t-21.5 -25.5t-26 -35t-36 -37.5t-51.5 -33.5t-72 -23.5q-2 0 -3.5 -10t0.5 -10
q74 13 124.5 33t82 41.5t45 42.5t13.5 36z" />
    <glyph glyph-name="Ucircumflex" unicode="&#xdb;" horiz-adv-x="736" 
d="M825 709h-197q-2 0 -4.5 -10t-0.5 -10h81q7 0 5 -4l-149 -469q-32 -103 -86 -151.5t-143 -48.5q-63 0 -99 28t-36 77q0 29 7.5 64.5t20.5 74.5l132 425q2 4 8 4h90q1 0 2 3t2.5 7t2 7t-0.5 3h-302q-1 0 -2 -3t-2.5 -7t-2 -7t0.5 -3h90q7 0 5 -4l-133 -422
q-8 -26 -12 -50.5t-4 -48.5q0 -38 11 -71t34.5 -57.5t61 -38.5t90.5 -14q112 0 181 56.5t101 160.5l154 485q0 4 7 4h82q2 0 4.5 10t0.5 10zM680 778q-8 19 -16 43t-14.5 49.5t-12 50.5t-7.5 47q0 2 -9 4.5t-11 0.5q-17 -18 -37.5 -41t-43.5 -49t-49 -52.5t-55 -51.5
q-1 0 1.5 -1.5t6 -3t6.5 -2.5t4 0q36 31 74 65.5t64 61.5q9 -38 21.5 -72.5t25.5 -56.5z" />
    <glyph glyph-name="Udieresis" unicode="&#xdc;" horiz-adv-x="736" 
d="M825 709h-197q-2 0 -4.5 -10t-0.5 -10h81q7 0 5 -4l-149 -469q-32 -103 -86 -151.5t-143 -48.5q-63 0 -99 28t-36 77q0 29 7.5 64.5t20.5 74.5l132 425q2 4 8 4h90q1 0 2 3t2.5 7t2 7t-0.5 3h-302q-1 0 -2 -3t-2.5 -7t-2 -7t0.5 -3h90q7 0 5 -4l-133 -422
q-8 -26 -12 -50.5t-4 -48.5q0 -38 11 -71t34.5 -57.5t61 -38.5t90.5 -14q112 0 181 56.5t101 160.5l154 485q0 4 7 4h82q2 0 4.5 10t0.5 10zM717 852q0 15 -9 24.5t-23 9.5q-21 0 -36.5 -17t-15.5 -39q0 -15 9 -24.5t23 -9.5q20 0 36 17t16 39zM525 852q0 15 -9 24.5
t-23 9.5q-20 0 -36 -17t-16 -39q0 -15 9 -24.5t23 -9.5q20 0 36 17t16 39z" />
    <glyph glyph-name="germandbls" unicode="&#xdf;" horiz-adv-x="517" 
d="M510 632q0 52 -32 81.5t-92 29.5q-73 0 -137 -65.5t-103 -186.5q-9 -26 -21 -71t-26 -100t-29 -115t-30 -116.5t-28 -105t-23 -79.5q-19 -60 -31.5 -98.5t-24.5 -61t-24.5 -31.5t-31.5 -9q-16 0 -21.5 9t-5.5 23q0 11 9 25t9 31q0 14 -9.5 23.5t-30.5 9.5
q-19 0 -32.5 -13.5t-13.5 -37.5q0 -36 23 -63t67 -27q39 0 68 19t52 53.5t42.5 82t37.5 104.5q9 27 22 72.5t28 99.5t30 112.5t29.5 112t27 98t20.5 70.5q21 69 42 111t40.5 65t37 31t31.5 8q35 0 47 -17.5t12 -59.5q0 -39 -12 -74.5t-35 -67t-56 -56.5t-74 -43
q-1 0 -0.5 -3t1.5 -6.5t2.5 -6t3.5 -1.5q22 11 40 11q50 0 72 -24t22 -66q0 -19 -7 -52t-17.5 -67.5t-21.5 -65.5t-19 -45q-19 -32 -38.5 -50t-55.5 -18q-25 0 -25 28q0 10 7.5 22t7.5 26q0 13 -8 21.5t-27 8.5q-17 0 -30 -14.5t-13 -39.5q0 -31 23 -51.5t58 -20.5
q40 0 80.5 21.5t73 57.5t53 83.5t20.5 100.5q0 74 -35 117t-89 43q-9 0 -12.5 0.5t-8.5 -0.5q39 14 73.5 35t61 49t41.5 61.5t15 72.5z" />
    <glyph glyph-name="agrave" unicode="&#xe0;" horiz-adv-x="506" 
d="M480 93l-20 7q-16 -29 -38 -48.5t-46 -19.5q-30 0 -16 44l115 363l-76 -16l-20 -39q-6 25 -28.5 38t-47.5 13q-58 0 -108 -26.5t-87.5 -67.5t-59 -92t-21.5 -99q0 -30 7 -58.5t22.5 -51t40.5 -36t62 -13.5q43 0 73.5 23.5t52.5 65.5q-11 -38 9 -63.5t58 -25.5
q27 0 63.5 23.5t64.5 78.5zM368 350l-52 -163q-36 -91 -68 -131t-77 -40q-41 0 -56 24.5t-15 63.5q0 31 8 71t23.5 80t37.5 74.5t49 55.5q18 13 35.5 21.5t49.5 8.5q28 0 45.5 -17.5t19.5 -47.5zM422 521q-36 9 -58.5 25.5t-36.5 36.5t-21.5 40t-13.5 37t-12.5 27.5
t-18.5 10.5q-16 0 -26.5 -11t-10.5 -28q0 -20 9.5 -42t32 -43.5t59.5 -40.5t92 -32q1 0 2 2.5t2 6.5t1.5 7.5t-0.5 3.5z" />
    <glyph glyph-name="aacute" unicode="&#xe1;" horiz-adv-x="506" 
d="M480 93l-20 7q-16 -29 -38 -48.5t-46 -19.5q-30 0 -16 44l115 363l-76 -16l-20 -39q-6 25 -28.5 38t-47.5 13q-58 0 -108 -26.5t-87.5 -67.5t-59 -92t-21.5 -99q0 -30 7 -58.5t22.5 -51t40.5 -36t62 -13.5q43 0 73.5 23.5t52.5 65.5q-11 -38 9 -63.5t58 -25.5
q27 0 63.5 23.5t64.5 78.5zM368 350l-52 -163q-36 -91 -68 -131t-77 -40q-41 0 -56 24.5t-15 63.5q0 31 8 71t23.5 80t37.5 74.5t49 55.5q18 13 35.5 21.5t49.5 8.5q28 0 45.5 -17.5t19.5 -47.5zM495 656q0 14 -8.5 23t-23.5 9q-13 0 -23 -10t-21.5 -25.5t-26 -35t-36 -37.5
t-51.5 -33.5t-72 -23.5q-2 0 -3.5 -10t0.5 -10q74 13 124.5 33t82 41.5t45 42.5t13.5 36z" />
    <glyph glyph-name="acircumflex" unicode="&#xe2;" horiz-adv-x="506" 
d="M480 93l-20 7q-16 -29 -38 -48.5t-46 -19.5q-30 0 -16 44l115 363l-76 -16l-20 -39q-6 25 -28.5 38t-47.5 13q-58 0 -108 -26.5t-87.5 -67.5t-59 -92t-21.5 -99q0 -30 7 -58.5t22.5 -51t40.5 -36t62 -13.5q43 0 73.5 23.5t52.5 65.5q-11 -38 9 -63.5t58 -25.5
q27 0 63.5 23.5t64.5 78.5zM368 350l-52 -163q-36 -91 -68 -131t-77 -40q-41 0 -56 24.5t-15 63.5q0 31 8 71t23.5 80t37.5 74.5t49 55.5q18 13 35.5 21.5t49.5 8.5q28 0 45.5 -17.5t19.5 -47.5zM470 523q-8 19 -16 43t-14.5 49.5t-12 50.5t-7.5 47q0 2 -9 4.5t-11 0.5
q-17 -18 -37.5 -41t-43.5 -49t-49 -52.5t-55 -51.5q-1 0 1.5 -1.5t6 -3t6.5 -2.5t4 0q36 31 74 65.5t64 61.5q9 -38 21.5 -72.5t25.5 -56.5z" />
    <glyph glyph-name="atilde" unicode="&#xe3;" horiz-adv-x="506" 
d="M480 93l-20 7q-16 -29 -38 -48.5t-46 -19.5q-30 0 -16 44l115 363l-76 -16l-20 -39q-6 25 -28.5 38t-47.5 13q-58 0 -108 -26.5t-87.5 -67.5t-59 -92t-21.5 -99q0 -30 7 -58.5t22.5 -51t40.5 -36t62 -13.5q43 0 73.5 23.5t52.5 65.5q-11 -38 9 -63.5t58 -25.5
q27 0 63.5 23.5t64.5 78.5zM368 350l-52 -163q-36 -91 -68 -131t-77 -40q-41 0 -56 24.5t-15 63.5q0 31 8 71t23.5 80t37.5 74.5t49 55.5q18 13 35.5 21.5t49.5 8.5q28 0 45.5 -17.5t19.5 -47.5zM549 664q0 2 -11 2q-10 0 -10 -2q0 -24 -15 -45.5t-49 -21.5q-17 0 -37 9.5
t-42 20.5t-46 20.5t-49 9.5q-24 0 -46.5 -8.5t-39 -24t-26.5 -36t-10 -44.5q0 -2 10 -2q11 0 11 2q0 25 15 46t49 21q17 0 37 -9.5t42 -20.5t46 -20.5t49 -9.5q24 0 46.5 9t39 24t26.5 35.5t10 44.5z" />
    <glyph glyph-name="adieresis" unicode="&#xe4;" horiz-adv-x="506" 
d="M480 93l-20 7q-16 -29 -38 -48.5t-46 -19.5q-30 0 -16 44l115 363l-76 -16l-20 -39q-6 25 -28.5 38t-47.5 13q-58 0 -108 -26.5t-87.5 -67.5t-59 -92t-21.5 -99q0 -30 7 -58.5t22.5 -51t40.5 -36t62 -13.5q43 0 73.5 23.5t52.5 65.5q-11 -38 9 -63.5t58 -25.5
q27 0 63.5 23.5t64.5 78.5zM368 350l-52 -163q-36 -91 -68 -131t-77 -40q-41 0 -56 24.5t-15 63.5q0 31 8 71t23.5 80t37.5 74.5t49 55.5q18 13 35.5 21.5t49.5 8.5q28 0 45.5 -17.5t19.5 -47.5zM498 597q0 15 -9 24.5t-23 9.5q-21 0 -36.5 -17t-15.5 -39q0 -15 9 -24.5
t23 -9.5q20 0 36 17t16 39zM306 597q0 15 -9 24.5t-23 9.5q-20 0 -36 -17t-16 -39q0 -15 9 -24.5t23 -9.5q20 0 36 17t16 39z" />
    <glyph glyph-name="aring" unicode="&#xe5;" horiz-adv-x="506" 
d="M480 93l-20 7q-16 -29 -38 -48.5t-46 -19.5q-30 0 -16 44l115 363l-76 -16l-20 -39q-6 25 -28.5 38t-47.5 13q-58 0 -108 -26.5t-87.5 -67.5t-59 -92t-21.5 -99q0 -30 7 -58.5t22.5 -51t40.5 -36t62 -13.5q43 0 73.5 23.5t52.5 65.5q-11 -38 9 -63.5t58 -25.5
q27 0 63.5 23.5t64.5 78.5zM368 350l-52 -163q-36 -91 -68 -131t-77 -40q-41 0 -56 24.5t-15 63.5q0 31 8 71t23.5 80t37.5 74.5t49 55.5q18 13 35.5 21.5t49.5 8.5q28 0 45.5 -17.5t19.5 -47.5zM441 627q0 30 -17.5 48t-47.5 18q-21 0 -39.5 -8t-32 -22t-21.5 -33t-8 -40
q0 -29 17.5 -47t47.5 -18q21 0 39.5 8t32 22t21.5 32.5t8 39.5zM419 625q0 -16 -6 -30.5t-16 -25t-23.5 -17t-27.5 -6.5q-21 0 -35 12t-14 36q0 32 22 55t51 23q21 0 35 -12t14 -35z" />
    <glyph glyph-name="ae" unicode="&#xe6;" horiz-adv-x="655" 
d="M636 353q0 13 -5.5 27.5t-18.5 26.5t-34.5 19.5t-52.5 7.5q-51 0 -97 -23t-81 -61q-16 39 -53.5 61.5t-84.5 22.5q-23 0 -42.5 -7.5t-33.5 -20t-22 -27.5t-8 -30q0 -21 13 -31.5t30 -10.5q20 0 29 11.5t9 25.5q0 16 -7.5 23t-7.5 19q0 28 40 28q41 0 61 -15t20 -52
q0 -21 -4.5 -48t-17.5 -74h-53q-57 0 -98 -13t-66.5 -33.5t-37.5 -45t-12 -46.5q0 -42 31 -69t94 -27q48 0 87.5 23.5t70.5 61.5q20 -40 57.5 -62.5t85.5 -22.5q51 0 91 22t75 64l-12 14q-31 -36 -66 -58t-87 -22q-27 0 -44.5 8.5t-27.5 22t-14 31t-4 35.5q0 26 4.5 47
t12.5 53h58q51 0 92.5 11.5t70.5 31t44.5 46t15.5 56.5zM570 367q0 -24 -7.5 -48.5t-25.5 -44.5t-48.5 -33t-75.5 -13h-52q13 46 27 81t32 58t42 35t57 12q51 0 51 -47zM261 205q-12 -44 -21.5 -80t-22.5 -61.5t-33 -39t-53 -13.5q-31 0 -47 15.5t-16 51.5q0 24 9 46.5
t28.5 40.5t51 29t77.5 11h27z" />
    <glyph glyph-name="ccedilla" unicode="&#xe7;" horiz-adv-x="417" 
d="M394 337q0 16 -8.5 33.5t-24 31.5t-38 23t-49.5 9q-50 0 -95 -23t-79 -61t-53.5 -88t-19.5 -104q0 -36 11 -65.5t31 -51.5t46.5 -34.5t58.5 -14.5q-8 -10 -16 -23.5t-8 -30.5t8 -30t17.5 -24t17.5 -21t8 -21q0 -19 -9.5 -30.5t-36.5 -11.5q-17 0 -27 9.5t-10 21.5
q0 4 3 7l6 6t6 7.5t3 10.5q0 11 -6 17.5t-15 6.5q-12 0 -21.5 -12.5t-9.5 -24.5q0 -29 18 -49t52 -20q14 0 28 5t25.5 15t18.5 24t7 31q0 20 -6.5 33.5t-14 25.5t-14 24.5t-6.5 29.5q0 8 3.5 14t6.5 10q46 5 87 31.5t73 69.5l-15 10q-32 -40 -70 -66.5t-92 -26.5
q-27 0 -44.5 8.5t-27 22t-13.5 31.5t-4 36q0 19 7 53t17.5 69t21.5 66.5t20 46.5q9 16 18.5 29t22 22.5t29.5 14.5t41 5q49 0 49 -27q0 -8 -2.5 -13.5t-5 -10.5t-5 -12t-2.5 -18q0 -16 9.5 -28.5t31.5 -12.5q19 0 32.5 11t13.5 34z" />
    <glyph glyph-name="egrave" unicode="&#xe8;" horiz-adv-x="421" 
d="M393 352q0 13 -5.5 27.5t-18.5 26.5t-34.5 20t-52.5 8q-50 0 -96.5 -23t-81.5 -61t-56 -88t-21 -104q0 -37 12 -68t33 -53t49.5 -34t62.5 -12q51 0 91 22t75 64l-11 14q-31 -36 -66 -58.5t-88 -22.5q-27 0 -44.5 8.5t-27.5 22t-14 31.5t-4 36q0 26 4.5 48t13.5 54h58
q51 0 92 11t70 30.5t44.5 45t15.5 55.5zM327 367q0 -24 -7.5 -48t-25.5 -44t-48 -32.5t-76 -12.5h-51q13 46 26.5 80.5t31.5 57.5t42.5 34.5t57.5 11.5q50 0 50 -47zM345 521q-36 9 -58.5 25.5t-36.5 36.5t-21.5 40t-13.5 37t-12.5 27.5t-18.5 10.5q-16 0 -26.5 -11
t-10.5 -28q0 -20 9.5 -42t32 -43.5t59.5 -40.5t92 -32q1 0 2 2.5t2 6.5t1.5 7.5t-0.5 3.5z" />
    <glyph glyph-name="eacute" unicode="&#xe9;" horiz-adv-x="421" 
d="M393 352q0 13 -5.5 27.5t-18.5 26.5t-34.5 20t-52.5 8q-50 0 -96.5 -23t-81.5 -61t-56 -88t-21 -104q0 -37 12 -68t33 -53t49.5 -34t62.5 -12q51 0 91 22t75 64l-11 14q-31 -36 -66 -58.5t-88 -22.5q-27 0 -44.5 8.5t-27.5 22t-14 31.5t-4 36q0 26 4.5 48t13.5 54h58
q51 0 92 11t70 30.5t44.5 45t15.5 55.5zM327 367q0 -24 -7.5 -48t-25.5 -44t-48 -32.5t-76 -12.5h-51q13 46 26.5 80.5t31.5 57.5t42.5 34.5t57.5 11.5q50 0 50 -47zM474 656q0 14 -8.5 23t-23.5 9q-13 0 -23 -10t-21.5 -25.5t-26 -35t-36 -37.5t-51.5 -33.5t-72 -23.5
q-2 0 -3.5 -10t0.5 -10q74 13 124.5 33t82 41.5t45 42.5t13.5 36z" />
    <glyph glyph-name="ecircumflex" unicode="&#xea;" horiz-adv-x="421" 
d="M393 352q0 13 -5.5 27.5t-18.5 26.5t-34.5 20t-52.5 8q-50 0 -96.5 -23t-81.5 -61t-56 -88t-21 -104q0 -37 12 -68t33 -53t49.5 -34t62.5 -12q51 0 91 22t75 64l-11 14q-31 -36 -66 -58.5t-88 -22.5q-27 0 -44.5 8.5t-27.5 22t-14 31.5t-4 36q0 26 4.5 48t13.5 54h58
q51 0 92 11t70 30.5t44.5 45t15.5 55.5zM327 367q0 -24 -7.5 -48t-25.5 -44t-48 -32.5t-76 -12.5h-51q13 46 26.5 80.5t31.5 57.5t42.5 34.5t57.5 11.5q50 0 50 -47zM422 523q-8 19 -16 43t-14.5 49.5t-12 50.5t-7.5 47q0 2 -9 4.5t-11 0.5q-17 -18 -37.5 -41t-43.5 -49
t-49 -52.5t-55 -51.5q-1 0 1.5 -1.5t6 -3t6.5 -2.5t4 0q36 31 74 65.5t64 61.5q9 -38 21.5 -72.5t25.5 -56.5z" />
    <glyph glyph-name="edieresis" unicode="&#xeb;" horiz-adv-x="421" 
d="M393 352q0 13 -5.5 27.5t-18.5 26.5t-34.5 20t-52.5 8q-50 0 -96.5 -23t-81.5 -61t-56 -88t-21 -104q0 -37 12 -68t33 -53t49.5 -34t62.5 -12q51 0 91 22t75 64l-11 14q-31 -36 -66 -58.5t-88 -22.5q-27 0 -44.5 8.5t-27.5 22t-14 31.5t-4 36q0 26 4.5 48t13.5 54h58
q51 0 92 11t70 30.5t44.5 45t15.5 55.5zM327 367q0 -24 -7.5 -48t-25.5 -44t-48 -32.5t-76 -12.5h-51q13 46 26.5 80.5t31.5 57.5t42.5 34.5t57.5 11.5q50 0 50 -47zM435 597q0 15 -9 24.5t-23 9.5q-21 0 -36.5 -17t-15.5 -39q0 -15 9 -24.5t23 -9.5q20 0 36 17t16 39z
M243 597q0 15 -9 24.5t-23 9.5q-20 0 -36 -17t-16 -39q0 -15 9 -24.5t23 -9.5q20 0 36 17t16 39z" />
    <glyph glyph-name="igrave" unicode="&#xec;" horiz-adv-x="268" 
d="M247 92l-19 7q-21 -38 -41 -53t-43 -15q-17 0 -23.5 11t-6.5 28q0 24 15 58.5t33.5 74.5t33.5 81t15 79q0 31 -14.5 51t-54.5 20q-24 0 -54.5 -19t-53.5 -69l20 -7q15 31 29.5 44t29.5 13q14 0 19 -6.5t5 -22.5q0 -34 -15 -74.5t-33.5 -82t-33.5 -80t-15 -68.5
q0 -31 19.5 -51t59.5 -20q27 0 64 23.5t64 77.5zM258 521q-36 9 -58.5 25.5t-36.5 36.5t-21.5 40t-13.5 37t-12.5 27.5t-18.5 10.5q-16 0 -26.5 -11t-10.5 -28q0 -20 9.5 -42t32 -43.5t59.5 -40.5t92 -32q1 0 2 2.5t2 6.5t1.5 7.5t-0.5 3.5z" />
    <glyph glyph-name="iacute" unicode="&#xed;" horiz-adv-x="268" 
d="M247 92l-19 7q-21 -38 -41 -53t-43 -15q-17 0 -23.5 11t-6.5 28q0 24 15 58.5t33.5 74.5t33.5 81t15 79q0 31 -14.5 51t-54.5 20q-24 0 -54.5 -19t-53.5 -69l20 -7q15 31 29.5 44t29.5 13q14 0 19 -6.5t5 -22.5q0 -34 -15 -74.5t-33.5 -82t-33.5 -80t-15 -68.5
q0 -31 19.5 -51t59.5 -20q27 0 64 23.5t64 77.5zM384 656q0 14 -8.5 23t-23.5 9q-13 0 -23 -10t-21.5 -25.5t-26 -35t-36 -37.5t-51.5 -33.5t-72 -23.5q-2 0 -3.5 -10t0.5 -10q74 13 124.5 33t82 41.5t45 42.5t13.5 36z" />
    <glyph glyph-name="icircumflex" unicode="&#xee;" horiz-adv-x="268" 
d="M247 92l-19 7q-21 -38 -41 -53t-43 -15q-17 0 -23.5 11t-6.5 28q0 24 15 58.5t33.5 74.5t33.5 81t15 79q0 31 -14.5 51t-54.5 20q-24 0 -54.5 -19t-53.5 -69l20 -7q15 31 29.5 44t29.5 13q14 0 19 -6.5t5 -22.5q0 -34 -15 -74.5t-33.5 -82t-33.5 -80t-15 -68.5
q0 -31 19.5 -51t59.5 -20q27 0 64 23.5t64 77.5zM330 523q-8 19 -16 43t-14.5 49.5t-12 50.5t-7.5 47q0 2 -9 4.5t-11 0.5q-17 -18 -37.5 -41t-43.5 -49t-49 -52.5t-55 -51.5q-1 0 1.5 -1.5t6 -3t6.5 -2.5t4 0q36 31 74 65.5t64 61.5q9 -38 21.5 -72.5t25.5 -56.5z" />
    <glyph glyph-name="idieresis" unicode="&#xef;" horiz-adv-x="268" 
d="M247 92l-19 7q-21 -38 -41 -53t-43 -15q-17 0 -23.5 11t-6.5 28q0 24 15 58.5t33.5 74.5t33.5 81t15 79q0 31 -14.5 51t-54.5 20q-24 0 -54.5 -19t-53.5 -69l20 -7q15 31 29.5 44t29.5 13q14 0 19 -6.5t5 -22.5q0 -34 -15 -74.5t-33.5 -82t-33.5 -80t-15 -68.5
q0 -31 19.5 -51t59.5 -20q27 0 64 23.5t64 77.5zM340 597q0 15 -9 24.5t-23 9.5q-21 0 -36.5 -17t-15.5 -39q0 -15 9 -24.5t23 -9.5q20 0 36 17t16 39zM148 597q0 15 -9 24.5t-23 9.5q-20 0 -36 -17t-16 -39q0 -15 9 -24.5t23 -9.5q20 0 36 17t16 39z" />
    <glyph glyph-name="ntilde" unicode="&#xf1;" horiz-adv-x="530" 
d="M514 92l-19 7q-21 -38 -41 -53t-43 -15q-16 0 -23 11t-7 28q0 24 13.5 59.5t30 75.5t30.5 79t14 71q0 22 -6.5 37t-17 24.5t-22.5 13.5t-23 4q-22 0 -50 -11t-56.5 -32t-56 -52t-49.5 -70q32 86 20.5 125.5t-58.5 39.5q-12 0 -26.5 -4t-30.5 -14.5t-30.5 -27.5t-26.5 -42
l19 -7q15 31 29.5 44t29.5 13t21.5 -13t-0.5 -34l-110 -349h78l67 212q50 84 96.5 124.5t76.5 40.5q18 0 31.5 -12t13.5 -30q0 -34 -13.5 -69.5t-29 -71t-29 -69t-13.5 -63.5q0 -31 19.5 -51t60.5 -20q13 0 30.5 5.5t35 18t34.5 31.5t31 46zM528 664q0 2 -11 2q-10 0 -10 -2
q0 -24 -15 -45.5t-49 -21.5q-17 0 -37 9.5t-42 20.5t-46 20.5t-49 9.5q-24 0 -46.5 -8.5t-39 -24t-26.5 -36t-10 -44.5q0 -2 10 -2q11 0 11 2q0 25 15 46t49 21q17 0 37 -9.5t42 -20.5t46 -20.5t49 -9.5q24 0 46.5 9t39 24t26.5 35.5t10 44.5z" />
    <glyph glyph-name="ograve" unicode="&#xf2;" horiz-adv-x="486" 
d="M439 266q0 37 -12 68t-33 53t-49.5 34.5t-62.5 12.5q-50 0 -96.5 -23t-81.5 -61t-56 -88t-21 -104q0 -37 12 -68t33 -53t49.5 -34t62.5 -12q50 0 96 23t81.5 61t56.5 87.5t21 103.5zM371 317q0 -20 -7 -53.5t-17.5 -69t-22 -66.5t-19.5 -46q-19 -32 -45.5 -52t-74.5 -20
q-27 0 -44.5 8.5t-27.5 22t-14 31.5t-4 36q0 19 7 53t17.5 69t22 66.5t19.5 46.5q18 32 45 51.5t75 19.5q27 0 44.5 -8.5t27.5 -22t14 -31t4 -35.5zM363 521q-36 9 -58.5 25.5t-36.5 36.5t-21.5 40t-13.5 37t-12.5 27.5t-18.5 10.5q-16 0 -26.5 -11t-10.5 -28q0 -20 9.5 -42
t32 -43.5t59.5 -40.5t92 -32q1 0 2 2.5t2 6.5t1.5 7.5t-0.5 3.5z" />
    <glyph glyph-name="oacute" unicode="&#xf3;" horiz-adv-x="486" 
d="M439 266q0 37 -12 68t-33 53t-49.5 34.5t-62.5 12.5q-50 0 -96.5 -23t-81.5 -61t-56 -88t-21 -104q0 -37 12 -68t33 -53t49.5 -34t62.5 -12q50 0 96 23t81.5 61t56.5 87.5t21 103.5zM371 317q0 -20 -7 -53.5t-17.5 -69t-22 -66.5t-19.5 -46q-19 -32 -45.5 -52t-74.5 -20
q-27 0 -44.5 8.5t-27.5 22t-14 31.5t-4 36q0 19 7 53t17.5 69t22 66.5t19.5 46.5q18 32 45 51.5t75 19.5q27 0 44.5 -8.5t27.5 -22t14 -31t4 -35.5zM477 656q0 14 -8.5 23t-23.5 9q-13 0 -23 -10t-21.5 -25.5t-26 -35t-36 -37.5t-51.5 -33.5t-72 -23.5q-2 0 -3.5 -10
t0.5 -10q74 13 124.5 33t82 41.5t45 42.5t13.5 36z" />
    <glyph glyph-name="ocircumflex" unicode="&#xf4;" horiz-adv-x="486" 
d="M439 266q0 37 -12 68t-33 53t-49.5 34.5t-62.5 12.5q-50 0 -96.5 -23t-81.5 -61t-56 -88t-21 -104q0 -37 12 -68t33 -53t49.5 -34t62.5 -12q50 0 96 23t81.5 61t56.5 87.5t21 103.5zM371 317q0 -20 -7 -53.5t-17.5 -69t-22 -66.5t-19.5 -46q-19 -32 -45.5 -52t-74.5 -20
q-27 0 -44.5 8.5t-27.5 22t-14 31.5t-4 36q0 19 7 53t17.5 69t22 66.5t19.5 46.5q18 32 45 51.5t75 19.5q27 0 44.5 -8.5t27.5 -22t14 -31t4 -35.5zM434 523q-8 19 -16 43t-14.5 49.5t-12 50.5t-7.5 47q0 2 -9 4.5t-11 0.5q-17 -18 -37.5 -41t-43.5 -49t-49 -52.5t-55 -51.5
q-1 0 1.5 -1.5t6 -3t6.5 -2.5t4 0q36 31 74 65.5t64 61.5q9 -38 21.5 -72.5t25.5 -56.5z" />
    <glyph glyph-name="otilde" unicode="&#xf5;" horiz-adv-x="486" 
d="M439 266q0 37 -12 68t-33 53t-49.5 34.5t-62.5 12.5q-50 0 -96.5 -23t-81.5 -61t-56 -88t-21 -104q0 -37 12 -68t33 -53t49.5 -34t62.5 -12q50 0 96 23t81.5 61t56.5 87.5t21 103.5zM371 317q0 -20 -7 -53.5t-17.5 -69t-22 -66.5t-19.5 -46q-19 -32 -45.5 -52t-74.5 -20
q-27 0 -44.5 8.5t-27.5 22t-14 31.5t-4 36q0 19 7 53t17.5 69t22 66.5t19.5 46.5q18 32 45 51.5t75 19.5q27 0 44.5 -8.5t27.5 -22t14 -31t4 -35.5zM511 664q0 2 -11 2q-10 0 -10 -2q0 -24 -15 -45.5t-49 -21.5q-17 0 -37 9.5t-42 20.5t-46 20.5t-49 9.5q-24 0 -46.5 -8.5
t-39 -24t-26.5 -36t-10 -44.5q0 -2 10 -2q11 0 11 2q0 25 15 46t49 21q17 0 37 -9.5t42 -20.5t46 -20.5t49 -9.5q24 0 46.5 9t39 24t26.5 35.5t10 44.5z" />
    <glyph glyph-name="odieresis" unicode="&#xf6;" horiz-adv-x="486" 
d="M439 266q0 37 -12 68t-33 53t-49.5 34.5t-62.5 12.5q-50 0 -96.5 -23t-81.5 -61t-56 -88t-21 -104q0 -37 12 -68t33 -53t49.5 -34t62.5 -12q50 0 96 23t81.5 61t56.5 87.5t21 103.5zM371 317q0 -20 -7 -53.5t-17.5 -69t-22 -66.5t-19.5 -46q-19 -32 -45.5 -52t-74.5 -20
q-27 0 -44.5 8.5t-27.5 22t-14 31.5t-4 36q0 19 7 53t17.5 69t22 66.5t19.5 46.5q18 32 45 51.5t75 19.5q27 0 44.5 -8.5t27.5 -22t14 -31t4 -35.5zM438 597q0 15 -9 24.5t-23 9.5q-21 0 -36.5 -17t-15.5 -39q0 -15 9 -24.5t23 -9.5q20 0 36 17t16 39zM246 597q0 15 -9 24.5
t-23 9.5q-20 0 -36 -17t-16 -39q0 -15 9 -24.5t23 -9.5q20 0 36 17t16 39z" />
    <glyph glyph-name="oslash" unicode="&#xf8;" horiz-adv-x="486" 
d="M439 266q0 37 -11.5 67t-31.5 53q8 9 18 21t16.5 19.5t7.5 8.5l-2 2.5t-5 4.5t-5.5 4t-2.5 1l-42 -48q-40 35 -99 35q-50 0 -96.5 -23t-81.5 -61t-56 -88t-21 -104q0 -36 11.5 -66.5t31.5 -52.5l-43 -49q-1 -2 7 -7t9 -3l40 47q42 -36 101 -36q50 0 96 23t81.5 61
t56.5 87.5t21 103.5zM360 373l-261 -301q-4 16 -4 36q0 19 7 53t17.5 69t22 66.5t19.5 46.5q18 32 45 51.5t75 19.5q32 0 50.5 -11.5t28.5 -29.5zM371 317q0 -20 -7 -53.5t-17.5 -69t-22 -66.5t-19.5 -46q-19 -32 -45.5 -52t-74.5 -20q-33 0 -51.5 12t-28.5 31l19.5 22.5
t48.5 55.5t63 72t63 72.5t48.5 55.5l19.5 22q2 -8 3 -17.5t1 -18.5z" />
    <glyph glyph-name="ugrave" unicode="&#xf9;" horiz-adv-x="520" 
d="M499 92l-20 7q-21 -38 -41 -53t-43 -15q-14 0 -19 9t0 23l115 368l-81 -6l-66 -212q-52 -91 -95.5 -132.5t-80.5 -41.5q-19 0 -33.5 13.5t-14.5 32.5q0 34 14 70.5t31.5 72.5t31.5 70.5t14 64.5q0 28 -15 49.5t-53 21.5q-24 0 -54.5 -18.5t-53.5 -69.5l20 -7
q14 31 28.5 44t30.5 13q13 0 18.5 -6t5.5 -23q0 -24 -14.5 -59.5t-32 -74.5t-32 -78.5t-14.5 -70.5q0 -45 23.5 -69t59.5 -24q45 0 98 39t98 118q-32 -83 -18.5 -120.5t58.5 -37.5q13 0 30.5 6t36 18t36.5 31.5t32 46.5zM386 521q-36 9 -58.5 25.5t-36.5 36.5t-21.5 40
t-13.5 37t-12.5 27.5t-18.5 10.5q-16 0 -26.5 -11t-10.5 -28q0 -20 9.5 -42t32 -43.5t59.5 -40.5t92 -32q1 0 2 2.5t2 6.5t1.5 7.5t-0.5 3.5z" />
    <glyph glyph-name="uacute" unicode="&#xfa;" horiz-adv-x="520" 
d="M499 92l-20 7q-21 -38 -41 -53t-43 -15q-14 0 -19 9t0 23l115 368l-81 -6l-66 -212q-52 -91 -95.5 -132.5t-80.5 -41.5q-19 0 -33.5 13.5t-14.5 32.5q0 34 14 70.5t31.5 72.5t31.5 70.5t14 64.5q0 28 -15 49.5t-53 21.5q-24 0 -54.5 -18.5t-53.5 -69.5l20 -7
q14 31 28.5 44t30.5 13q13 0 18.5 -6t5.5 -23q0 -24 -14.5 -59.5t-32 -74.5t-32 -78.5t-14.5 -70.5q0 -45 23.5 -69t59.5 -24q45 0 98 39t98 118q-32 -83 -18.5 -120.5t58.5 -37.5q13 0 30.5 6t36 18t36.5 31.5t32 46.5zM456 656q0 14 -8.5 23t-23.5 9q-13 0 -23 -10
t-21.5 -25.5t-26 -35t-36 -37.5t-51.5 -33.5t-72 -23.5q-2 0 -3.5 -10t0.5 -10q74 13 124.5 33t82 41.5t45 42.5t13.5 36z" />
    <glyph glyph-name="ucircumflex" unicode="&#xfb;" horiz-adv-x="520" 
d="M499 92l-20 7q-21 -38 -41 -53t-43 -15q-14 0 -19 9t0 23l115 368l-81 -6l-66 -212q-52 -91 -95.5 -132.5t-80.5 -41.5q-19 0 -33.5 13.5t-14.5 32.5q0 34 14 70.5t31.5 72.5t31.5 70.5t14 64.5q0 28 -15 49.5t-53 21.5q-24 0 -54.5 -18.5t-53.5 -69.5l20 -7
q14 31 28.5 44t30.5 13q13 0 18.5 -6t5.5 -23q0 -24 -14.5 -59.5t-32 -74.5t-32 -78.5t-14.5 -70.5q0 -45 23.5 -69t59.5 -24q45 0 98 39t98 118q-32 -83 -18.5 -120.5t58.5 -37.5q13 0 30.5 6t36 18t36.5 31.5t32 46.5zM452 523q-8 19 -16 43t-14.5 49.5t-12 50.5t-7.5 47
q0 2 -9 4.5t-11 0.5q-17 -18 -37.5 -41t-43.5 -49t-49 -52.5t-55 -51.5q-1 0 1.5 -1.5t6 -3t6.5 -2.5t4 0q36 31 74 65.5t64 61.5q9 -38 21.5 -72.5t25.5 -56.5z" />
    <glyph glyph-name="udieresis" unicode="&#xfc;" horiz-adv-x="520" 
d="M499 92l-20 7q-21 -38 -41 -53t-43 -15q-14 0 -19 9t0 23l115 368l-81 -6l-66 -212q-52 -91 -95.5 -132.5t-80.5 -41.5q-19 0 -33.5 13.5t-14.5 32.5q0 34 14 70.5t31.5 72.5t31.5 70.5t14 64.5q0 28 -15 49.5t-53 21.5q-24 0 -54.5 -18.5t-53.5 -69.5l20 -7
q14 31 28.5 44t30.5 13q13 0 18.5 -6t5.5 -23q0 -24 -14.5 -59.5t-32 -74.5t-32 -78.5t-14.5 -70.5q0 -45 23.5 -69t59.5 -24q45 0 98 39t98 118q-32 -83 -18.5 -120.5t58.5 -37.5q13 0 30.5 6t36 18t36.5 31.5t32 46.5zM471 597q0 15 -9 24.5t-23 9.5q-21 0 -36.5 -17
t-15.5 -39q0 -15 9 -24.5t23 -9.5q20 0 36 17t16 39zM279 597q0 15 -9 24.5t-23 9.5q-20 0 -36 -17t-16 -39q0 -15 9 -24.5t23 -9.5q20 0 36 17t16 39z" />
    <glyph glyph-name="ydieresis" unicode="&#xff;" horiz-adv-x="452" 
d="M483 407q0 14 -6.5 21t-23.5 7q-48 0 -97 -78t-111 -229l-24 134q-10 55 -20 89t-21.5 52.5t-23.5 25t-27 6.5q-32 0 -59.5 -22.5t-55.5 -73.5l16 -12q14 23 24.5 33.5t23.5 10.5q9 0 18.5 -3.5t19 -19t20 -47t20.5 -87.5l36 -213q-29 -68 -53 -122.5t-49 -93t-54 -59.5
t-67 -21q-16 0 -23 5t-7 20q0 11 9 26t9 32q0 15 -9.5 25t-32.5 10q-20 0 -34 -14t-14 -40q0 -37 26.5 -60.5t70.5 -23.5t77 21t62.5 63.5t58.5 106.5t64 150q42 101 69.5 163.5t50 99t45.5 53.5t56 27q14 5 25 13t11 25zM435 597q0 15 -9 24.5t-23 9.5q-21 0 -36.5 -17
t-15.5 -39q0 -15 9 -24.5t23 -9.5q20 0 36 17t16 39zM243 597q0 15 -9 24.5t-23 9.5q-20 0 -36 -17t-16 -39q0 -15 9 -24.5t23 -9.5q20 0 36 17t16 39z" />
    <glyph glyph-name="dotlessi" unicode="&#x131;" horiz-adv-x="268" 
d="M247 92l-19 7q-21 -38 -41 -53t-43 -15q-17 0 -23.5 11t-6.5 28q0 24 15 58.5t33.5 74.5t33.5 81t15 79q0 31 -14.5 51t-54.5 20q-24 0 -54.5 -19t-53.5 -69l20 -7q15 31 29.5 44t29.5 13q14 0 19 -6.5t5 -22.5q0 -34 -15 -74.5t-33.5 -82t-33.5 -80t-15 -68.5
q0 -31 19.5 -51t59.5 -20q27 0 64 23.5t64 77.5z" />
    <glyph glyph-name="OE" unicode="&#x152;" horiz-adv-x="953" 
d="M985 705q1 3 -2 3h-486q-53 0 -107 -16.5t-104 -46t-93 -70t-75 -89t-50.5 -103t-18.5 -111.5q0 -59 20.5 -109t56 -86t82.5 -56.5t101 -20.5h505q3 0 3 3l62 197q0 1 -3 1h-7h-7q-3 0 -3 -1q-12 -38 -32 -71t-53 -57t-81 -38t-115 -14h-92q-7 0 -5 3l107 340h38
q30 0 48.5 -8.5t26.5 -24t7 -37t-9 -47.5q0 -2 10 -2t10 2l73 233q0 1 -3 1h-7h-7q-3 0 -3 -1q-17 -52 -47.5 -74t-92.5 -22h-38l95 302q0 3 7 3h105q83 0 110 -43t4 -118q0 -1 2.5 -1.5t6.5 -0.5t7.5 0.5t3.5 1.5zM579 685l-208 -662q-2 -3 -7 -3h-50q-50 0 -84 13
t-54.5 34t-29.5 48t-9 56q0 28 6 64t15.5 75t22 78.5t26 74.5t26.5 63t24 45q42 65 105 91t138 26h74q6 0 5 -3z" />
    <glyph glyph-name="oe" unicode="&#x153;" horiz-adv-x="707" 
d="M690 353q0 13 -5.5 27.5t-18.5 26.5t-34.5 19.5t-52.5 7.5q-48 0 -92 -21t-79 -56q-20 36 -55 56.5t-79 20.5q-50 0 -96.5 -23t-81.5 -61t-56 -88t-21 -104q0 -37 12 -67.5t33 -52.5t49.5 -34.5t62.5 -12.5q48 0 92 20.5t79 56.5q20 -36 55 -56.5t79 -20.5q51 0 91 22
t75 64l-11 14q-32 -36 -66.5 -58t-87.5 -22q-27 0 -44.5 8.5t-27.5 22t-14 31t-4 35.5q0 26 4.5 48t13.5 54h57q51 0 92.5 11t70.5 30.5t44.5 45.5t15.5 56zM624 367q0 -24 -7.5 -48t-25.5 -44t-48 -32.5t-76 -12.5h-51q13 46 26.5 80.5t31.5 57.5t42.5 34.5t57.5 11.5
q50 0 50 -47zM362 317q0 -20 -7 -53.5t-17 -68.5t-21.5 -66.5t-19.5 -46.5q-19 -32 -45.5 -51.5t-74.5 -19.5q-27 0 -44.5 8.5t-27.5 22t-14 31t-4 35.5q0 19 7 53t17.5 69t21.5 66.5t20 46.5q18 32 45 51.5t75 19.5q27 0 44.5 -8.5t27.5 -22t13.5 -31t3.5 -35.5z" />
    <glyph glyph-name="Ydieresis" unicode="&#x178;" horiz-adv-x="632" 
d="M771 709h-202q-1 0 -2 -3t-2.5 -7t-2 -7t0.5 -3h81q3 0 3.5 -1t-2 -5.5t-8.5 -12.5t-18 -23l-232 -297l-58 335q-1 1 0.5 2.5t4.5 1.5h108q1 0 2 3t2.5 7t2 7t-0.5 3h-323q-2 0 -5.5 -10t-1.5 -10h93q5 0 7 -4l65 -357l-96 -304q-1 -4 -8 -4h-90q-1 0 -2 -3t-2.5 -7
t-2 -7t0.5 -3h302q1 0 2 3t2.5 7t2 7t-0.5 3h-90q-6 0 -5 4l95 302l253 321q11 14 18.5 22.5t12 13t7.5 5.5t5 1h77q2 0 5.5 10t1.5 10zM673 852q0 15 -9 24.5t-23 9.5q-21 0 -36.5 -17t-15.5 -39q0 -15 9 -24.5t23 -9.5q20 0 36 17t16 39zM481 852q0 15 -9 24.5t-23 9.5
q-20 0 -36 -17t-16 -39q0 -15 9 -24.5t23 -9.5q20 0 36 17t16 39z" />
    <glyph glyph-name="florin" unicode="&#x192;" horiz-adv-x="344" 
d="M517 671q0 32 -18 53t-70 21q-49 0 -94.5 -30.5t-83 -83t-65 -123.5t-39.5 -153l-1 -12q0 -3 -7 -3h-90q-1 0 -2 -3t-1.5 -7t-1 -7t0.5 -3h90q8 0 6 -4q-20 -133 -38 -245t-41.5 -193t-55.5 -126.5t-80 -45.5q-16 0 -20.5 5.5t-4.5 20.5q0 9 2.5 14t5 9.5t5 10t2.5 13.5
q0 14 -9 23.5t-31 9.5t-35.5 -15.5t-13.5 -38.5q0 -34 21.5 -54t67.5 -20q45 0 84 29t71 78t58 112.5t45.5 132.5t34 138.5t23.5 129.5l2 12q0 4 7 4h89q2 0 4 10t0 10h-90q-6 0 -6 3q17 132 38.5 207.5t44.5 114t47.5 48.5t48.5 10q26 0 26 -26q0 -10 -2.5 -15.5t-5 -9.5
t-5 -9t-2.5 -13q0 -15 9 -24t30 -9q20 0 35 14t15 40z" />
    <glyph glyph-name="circumflex" unicode="&#x2c6;" horiz-adv-x="326" 
d="M341 523q-8 19 -16 43t-14.5 49.5t-12 50.5t-7.5 47q0 2 -9 4.5t-11 0.5q-17 -18 -37.5 -41t-43.5 -49t-49 -52.5t-55 -51.5q-1 0 1.5 -1.5t6 -3t6.5 -2.5t4 0q36 31 74 65.5t64 61.5q9 -38 21.5 -72.5t25.5 -56.5z" />
    <glyph glyph-name="caron" unicode="&#x2c7;" horiz-adv-x="326" 
d="M420 703q1 0 -1.5 1.5t-6 3t-6.5 2.5t-4 0q-36 -31 -74 -65.5t-64 -61.5q-9 38 -21.5 72.5t-25.5 56.5l-52 -8q8 -20 16 -43.5t14.5 -49t12 -50.5t7.5 -47q0 -2 9 -4.5t11 -0.5q17 18 37.5 41t43.5 49t49 52.5t55 51.5z" />
    <glyph glyph-name="breve" unicode="&#x2d8;" horiz-adv-x="380" 
d="M494 691q0 1 -3 1h-7h-7q-3 0 -3 -1q-5 -13 -14 -31.5t-26 -35t-43.5 -28.5t-65.5 -12t-60 12t-29.5 28.5t-7.5 35t5 31.5q0 2 -11 2q-10 0 -10 -2q-8 -24 -8.5 -51t10 -50.5t34 -38.5t64.5 -15q40 0 70.5 15t53 38.5t36.5 50.5t22 51z" />
    <glyph glyph-name="dotaccent" unicode="&#x2d9;" horiz-adv-x="247" 
d="M243 597q0 15 -9 24.5t-23 9.5q-20 0 -36 -17t-16 -39q0 -15 9 -24.5t23 -9.5q20 0 36 17t16 39z" />
    <glyph glyph-name="ring" unicode="&#x2da;" horiz-adv-x="283" 
d="M315 627q0 30 -17.5 48t-47.5 18q-21 0 -39.5 -8t-32 -22t-21.5 -33t-8 -40q0 -29 17.5 -47t47.5 -18q21 0 39.5 8t32 22t21.5 32.5t8 39.5zM293 625q0 -16 -6 -30.5t-16 -25t-23.5 -17t-27.5 -6.5q-21 0 -35 12t-14 36q0 32 22 55t51 23q21 0 35 -12t14 -35z" />
    <glyph glyph-name="ogonek" unicode="&#x2db;" horiz-adv-x="273" 
d="M142 -13q1 0 1 3t-1 7t-1.5 7t-1.5 3q-41 -7 -72.5 -21.5t-52.5 -34t-32 -42t-11 -44.5q0 -33 23 -56t61 -23q20 0 40 7.5t33 18.5q1 0 1 4v7t-0.5 7l-0.5 3q-10 -6 -22.5 -9t-21.5 -3q-35 0 -50.5 13.5t-15.5 42.5q0 46 32 70t92 40z" />
    <glyph glyph-name="tilde" unicode="&#x2dc;" horiz-adv-x="406" 
d="M474 664q0 2 -11 2q-10 0 -10 -2q0 -24 -15 -45.5t-49 -21.5q-17 0 -37 9.5t-42 20.5t-46 20.5t-49 9.5q-24 0 -46.5 -8.5t-39 -24t-26.5 -36t-10 -44.5q0 -2 10 -2q11 0 11 2q0 25 15 46t49 21q17 0 37 -9.5t42 -20.5t46 -20.5t49 -9.5q24 0 46.5 9t39 24t26.5 35.5
t10 44.5z" />
    <glyph glyph-name="hungarumlaut" unicode="&#x2dd;" horiz-adv-x="588" 
d="M554 656q0 14 -8.5 23t-23.5 9q-13 0 -23 -10t-21.5 -25.5t-26 -35t-36 -37.5t-51.5 -33.5t-72 -23.5q-2 0 -3.5 -10t0.5 -10q74 13 124.5 33t82 41.5t45 42.5t13.5 36zM360 656q0 14 -8.5 23t-23.5 9q-13 0 -23 -10t-21.5 -25.5t-26 -35t-36 -37.5t-51.5 -33.5
t-72 -23.5q-2 0 -3.5 -10t0.5 -10q74 13 124.5 33t82 41.5t45 42.5t13.5 36z" />
    <glyph glyph-name="Omega" unicode="&#x3a9;" horiz-adv-x="504" 
d="M703 660q0 16 -4 31t-13.5 26.5t-27 18.5t-44.5 7q-32 0 -59 -11t-59 -40q-14 21 -38.5 36t-66.5 15q-36 0 -69 -18.5t-61.5 -51.5t-52.5 -79.5t-42 -102.5q-5 -14 -9 -26.5t-9 -31.5h-103q-1 0 -2 -3t-2.5 -6.5t-2 -6.5t0.5 -3h103q-16 -57 -32.5 -125l-33 -136
t-33.5 -133t-33 -116q-19 -60 -32 -98.5t-24.5 -61t-24.5 -31.5t-31 -9q-17 0 -22.5 9t-5.5 23q0 11 9 25t9 31q0 14 -9 23.5t-31 9.5q-19 0 -34 -17.5t-15 -41.5q0 -36 21 -59t65 -23q27 0 43.5 9t37.5 26q32 -35 99 -35q36 0 69.5 19t62.5 53t53 80.5t42 102.5
q13 41 31.5 98t38.5 121t39.5 130t35.5 126h116q2 0 5 9.5t1 9.5h-117q6 23 11 39.5t11 35.5q22 69 40.5 111t35.5 65.5t32 31t29 7.5q18 0 24.5 -7.5t6.5 -24.5q0 -11 -9 -25.5t-9 -30.5q0 -14 9.5 -24t30.5 -10q19 0 34 17.5t15 41.5zM482 677q-14 -13 -28 -33t-27 -44.5
t-25 -52t-21 -56.5q-5 -14 -9 -26.5t-9 -31.5h-136q6 23 11 39.5t11 35.5q22 69 40 111t35 65t35 30.5t39 7.5q30 0 51 -12.5t33 -32.5zM358 414q-16 -57 -34.5 -123.5t-38 -133.5t-38 -130.5t-34.5 -114.5q-22 -69 -41 -110t-37 -62.5t-37 -28t-40 -6.5q-25 0 -43.5 6.5
t-34.5 23.5q35 32 62 83.5t51 124.5q13 41 29 97.5t32.5 119.5t33.5 128.5t33 125.5h137z" />
    <glyph glyph-name="endash" unicode="&#x2013;" horiz-adv-x="537" 
d="M495 226q2 0 2 10t-2 10h-453q-2 0 -2 -10t2 -10h453z" />
    <glyph glyph-name="emdash" unicode="&#x2014;" horiz-adv-x="991" 
d="M949 226q2 0 2 10t-2 10h-907q-2 0 -2 -10t2 -10h907z" />
    <glyph glyph-name="quoteleft" unicode="&#x2018;" horiz-adv-x="181" 
d="M292 735q-41 -8 -76.5 -28.5t-61.5 -47t-41 -56t-15 -54.5q0 -17 10.5 -34t34.5 -17q26 0 40 16.5t14 41.5q0 11 -3 19.5t-6.5 16t-6.5 15t-3 17.5q0 16 6.5 27.5t17 20.5t23 16t25.5 13q9 4 19.5 7.5t21.5 5.5q1 0 1.5 3.5t0.5 6.5v7q0 4 -1 4z" />
    <glyph glyph-name="quoteright" unicode="&#x2019;" horiz-adv-x="181" 
d="M258 675q0 17 -10.5 34t-34.5 17q-26 0 -40 -16.5t-14 -41.5q0 -11 3 -19.5t6.5 -16t6.5 -15t3 -17.5q0 -16 -6.5 -27.5t-17 -20.5t-23 -16t-25.5 -13q-9 -4 -19.5 -7.5t-21.5 -5.5q-1 0 -1.5 -3.5t-0.5 -7.5v-7q0 -3 1 -3q41 8 76.5 28.5t61.5 47t41 55.5t15 55z" />
    <glyph glyph-name="quotesinglbase" unicode="&#x201a;" horiz-adv-x="196" 
d="M120 42q0 17 -10.5 34t-34.5 17q-26 0 -40 -16.5t-14 -41.5q0 -11 3 -19.5t6.5 -16t6.5 -15t3 -17.5q0 -16 -6.5 -27.5t-17 -20.5t-23 -16t-25.5 -13q-9 -4 -19.5 -7.5t-21.5 -5.5q-1 0 -1.5 -3.5t-0.5 -6.5v-7q0 -4 1 -4q41 8 76.5 28.5t61.5 47t41 55.5t15 55z" />
    <glyph glyph-name="quotedblleft" unicode="&#x201c;" horiz-adv-x="331" 
d="M442 735q-41 -8 -76.5 -28.5t-61.5 -47t-41 -56t-15 -54.5q0 -17 10.5 -34t34.5 -17q26 0 40 16.5t14 41.5q0 11 -3 19.5t-6.5 16t-6.5 15t-3 17.5q0 16 6.5 27.5t17 20.5t23 16t25.5 13q9 4 19.5 7.5t21.5 5.5q1 0 1.5 3.5t0.5 6.5v7q0 4 -1 4zM292 735
q-41 -8 -76.5 -28.5t-61.5 -47t-41 -56t-15 -54.5q0 -17 10.5 -34t34.5 -17q26 0 40 16.5t14 41.5q0 11 -3 19.5t-6.5 16t-6.5 15t-3 17.5q0 16 6.5 27.5t17 20.5t23 16t25.5 13q9 4 19.5 7.5t21.5 5.5q1 0 1.5 3.5t0.5 6.5v7q0 4 -1 4z" />
    <glyph glyph-name="quotedblright" unicode="&#x201d;" horiz-adv-x="331" 
d="M408 675q0 17 -10.5 34t-34.5 17q-26 0 -40 -16.5t-14 -41.5q0 -11 3 -19.5t6.5 -16t6.5 -15t3 -17.5q0 -16 -6.5 -27.5t-17 -20.5t-23 -16t-25.5 -13q-9 -4 -19.5 -7.5t-21.5 -5.5q-1 0 -1.5 -3.5t-0.5 -7.5v-7q0 -3 1 -3q41 8 76.5 28.5t61.5 47t41 55.5t15 55z
M258 675q0 17 -10.5 34t-34.5 17q-26 0 -40 -16.5t-14 -41.5q0 -11 3 -19.5t6.5 -16t6.5 -15t3 -17.5q0 -16 -6.5 -27.5t-17 -20.5t-23 -16t-25.5 -13q-9 -4 -19.5 -7.5t-21.5 -5.5q-1 0 -1.5 -3.5t-0.5 -7.5v-7q0 -3 1 -3q41 8 76.5 28.5t61.5 47t41 55.5t15 55z" />
    <glyph glyph-name="quotedblbase" unicode="&#x201e;" horiz-adv-x="346" 
d="M270 42q0 17 -10.5 34t-34.5 17q-26 0 -40 -16.5t-14 -41.5q0 -11 3 -19.5t6.5 -16t6.5 -15t3 -17.5q0 -16 -6.5 -27.5t-17 -20.5t-23 -16t-25.5 -13q-9 -4 -19.5 -7.5t-21.5 -5.5q-1 0 -1.5 -3.5t-0.5 -6.5v-7q0 -4 1 -4q41 8 76.5 28.5t61.5 47t41 55.5t15 55zM120 42
q0 17 -10.5 34t-34.5 17q-26 0 -40 -16.5t-14 -41.5q0 -11 3 -19.5t6.5 -16t6.5 -15t3 -17.5q0 -16 -6.5 -27.5t-17 -20.5t-23 -16t-25.5 -13q-9 -4 -19.5 -7.5t-21.5 -5.5q-1 0 -1.5 -3.5t-0.5 -6.5v-7q0 -4 1 -4q41 8 76.5 28.5t61.5 47t41 55.5t15 55z" />
    <glyph glyph-name="dagger" unicode="&#x2020;" horiz-adv-x="574" 
d="M560 377q0 17 -6 35t-19 33t-32.5 24.5t-47.5 9.5q-38 0 -69.5 -13.5t-56.5 -53.5q5 13 15.5 30.5t21 38.5t18.5 43.5t8 44.5q0 8 -2 18t-2 25q0 18 8.5 27t18.5 17t18.5 19t8.5 32q0 17 -10.5 27t-27.5 10q-25 0 -42.5 -18.5t-17.5 -42.5q0 -14 2 -20.5t5 -11t5 -8
t2 -10.5q0 -8 -5.5 -16t-12.5 -18t-15 -21t-12 -23q-14 -37 -15.5 -73.5t-8.5 -62.5q-5 34 -34 50t-61 16q-40 0 -68.5 -12.5t-46.5 -30.5t-26 -37t-8 -32q0 -16 10 -24.5t25 -8.5q29 0 38 16t9 36q0 41 16 57t46 16q54 0 77 -31.5t4 -91.5q-6 -18 -15 -30t-18.5 -20
t-18 -12t-12.5 -5q-2 -1 -3.5 -4t-2.5 -7t-1 -7q0 -2 2 -2q17 7 16 -28t-18.5 -108t-49 -182.5t-76.5 -251.5q0 -1 2.5 -2t6.5 -2t7 -1q4 0 4 1q45 142 81.5 250t65 180t49 106t32.5 27q2 -2 4.5 0.5t4 6.5t1.5 7q0 4 -2 5q-3 1 -8.5 7t-9.5 16t-5 24t5 32q16 49 48.5 83
t88.5 34q20 0 32.5 -8.5t12.5 -28.5q0 -11 -3 -18.5t-7 -14.5t-7 -15t-3 -21q0 -15 11 -22t27 -7q21 0 35 13.5t14 39.5z" />
    <glyph glyph-name="daggerdbl" unicode="&#x2021;" horiz-adv-x="573" 
d="M578 430q0 13 -5.5 29t-18 29.5t-32.5 23t-49 9.5q-42 0 -70.5 -18.5t-45.5 -43.5q4 12 10 24t12 25t10 28t4 33q0 8 -1.5 18t-1.5 25q0 18 8.5 27t18.5 17t18.5 19t8.5 32q0 17 -10.5 27t-27.5 10q-26 0 -43.5 -18.5t-17.5 -42.5q0 -14 2.5 -20.5t5 -11t5 -8t2.5 -10.5
q0 -8 -5 -16t-12.5 -18t-15 -20.5t-12.5 -22.5q-11 -25 -13 -45.5t-2 -46.5q-2 27 -26 45t-64 18t-68 -11.5t-45 -27.5t-25 -34t-8 -31q0 -16 9.5 -25t24.5 -9q29 0 38 16.5t9 36.5q0 41 15 53t45 12q47 0 69.5 -27t6.5 -81q-6 -20 -13.5 -32t-15 -18.5t-14.5 -9t-11 -4.5
q-2 0 -3 -3.5t-1.5 -7t0.5 -6t3 -2.5q14 4 21 -3t8.5 -22t-2 -34.5t-10.5 -40.5q-6 -21 -15 -40.5t-20 -34t-23 -20.5t-25 2q-3 2 -6.5 -7.5t0.5 -11.5q3 -2 8 -5t8.5 -9.5t4 -19t-5.5 -32.5q-7 -24 -20 -44.5t-30.5 -35.5t-38 -23.5t-41.5 -8.5q-24 0 -35 5t-11 25
q0 11 3.5 18t8 13t8 13.5t3.5 20.5q0 15 -11 22t-27 7q-21 0 -35 -14t-14 -39q0 -13 5.5 -29t17.5 -29.5t32 -23t50 -9.5q42 0 70 18.5t46 43.5q-4 -12 -10 -24t-12 -25t-10.5 -28.5t-4.5 -33.5q0 -8 2 -18t2 -24q0 -18 -8.5 -27t-18.5 -17t-18.5 -19t-8.5 -32
q0 -17 10.5 -27t27.5 -10q25 0 42.5 18t17.5 43q0 13 -2 20t-5 11.5t-5 8t-2 10.5t5 15.5t12 18.5t15 20.5t13 22.5q11 25 12.5 45.5t1.5 46.5q3 -27 27 -45t63 -18q40 0 68.5 11.5t45.5 27.5t25 34t8 31q0 15 -9.5 24t-25.5 9q-29 0 -38 -16t-9 -36q0 -41 -14.5 -53
t-44.5 -12q-48 0 -70 27t-6 81q6 20 13 32t14.5 18.5t14.5 8.5t11 4q2 1 3 4t1.5 7t0 6.5t-2.5 2.5q-14 -5 -21 2.5t-8.5 22.5t2 34.5t9.5 40.5q7 21 16 40.5t19.5 34t22.5 20t25 -2.5q3 -2 7 8t0 12q-3 2 -8 5t-8.5 9.5t-4 19t5.5 32.5q7 24 20 44.5t30 35.5t37.5 23.5
t41.5 8.5q25 0 36 -5t11 -25q0 -11 -3.5 -18t-8 -13t-8 -13.5t-3.5 -20.5q0 -15 10.5 -22t26.5 -7q21 0 35.5 13.5t14.5 39.5z" />
    <glyph glyph-name="bullet" unicode="&#x2022;" horiz-adv-x="345" 
d="M302 354q0 22 -8 41t-22.5 33t-33.5 22.5t-40 8.5q-22 0 -41 -8.5t-33.5 -22.5t-22.5 -33t-8 -41q0 -21 8 -40t22.5 -33.5t33.5 -22.5t41 -8q21 0 40 8t33.5 22.5t22.5 33.5t8 40z" />
    <glyph glyph-name="ellipsis" unicode="&#x2026;" horiz-adv-x="618" 
d="M542 52q0 18 -10.5 29.5t-27.5 11.5q-24 0 -42.5 -20t-18.5 -46q0 -18 10.5 -29t27.5 -11q24 0 42.5 19.5t18.5 45.5zM331 52q0 18 -10.5 29.5t-27.5 11.5q-24 0 -42.5 -20t-18.5 -46q0 -18 10.5 -29t27.5 -11q24 0 42.5 19.5t18.5 45.5zM120 52q0 18 -10.5 29.5
t-27.5 11.5q-24 0 -42.5 -20t-18.5 -46q0 -18 10.5 -29t27.5 -11q24 0 42.5 19.5t18.5 45.5z" />
    <glyph glyph-name="perthousand" unicode="&#x2030;" horiz-adv-x="1041" 
d="M1010 220q0 60 -31 93t-79 33q-45 0 -84 -21.5t-67 -54.5t-44 -73.5t-16 -79.5q0 -60 31 -93t78 -33q45 0 84 21.5t67.5 54.5t44.5 73.5t16 79.5zM376 587q0 60 -30.5 93t-77.5 33q-46 0 -84.5 -21.5t-67 -54.5t-44.5 -73.5t-16 -79.5q0 -60 30.5 -93t78.5 -33
q45 0 84 21.5t67 54.5t44 73.5t16 79.5zM573 725q0 1 -2.5 3t-5.5 4t-6 3.5t-3 0.5l-411 -749q-1 -2 6.5 -7.5t8.5 -3.5zM662 220q0 60 -31 93t-79 33q-45 0 -83.5 -21.5t-67 -54.5t-44.5 -73.5t-16 -79.5q0 -60 31 -93t78 -33q45 0 84 21.5t67.5 54.5t44.5 73.5t16 79.5z
M949 258q0 -23 -5 -55t-15 -65.5t-26.5 -63t-38.5 -45.5q-14 -11 -29 -14.5t-32 -3.5q-29 0 -39.5 16t-10.5 52q0 22 4.5 54.5t15 66t26 62.5t38.5 46q14 11 28.5 14.5t31.5 3.5q29 0 40.5 -16t11.5 -52zM314 625q0 -23 -4.5 -55t-15 -65.5t-26.5 -63t-38 -45.5
q-14 -11 -29 -14.5t-32 -3.5q-29 0 -40 16t-11 52q0 22 4.5 54.5t15 66t26 62.5t38.5 46q14 11 29 14.5t32 3.5q29 0 40 -16t11 -52zM600 258q0 -23 -4.5 -55t-14.5 -65.5t-26 -63t-39 -45.5q-14 -11 -29 -14.5t-32 -3.5q-29 0 -40.5 16t-11.5 52q0 22 5 54.5t15 66t26 62.5
t39 46q14 11 29 14.5t32 3.5q29 0 40 -16t11 -52z" />
    <glyph glyph-name="guilsinglleft" unicode="&#x2039;" horiz-adv-x="267" 
d="M260 372q0 1 -3 3t-7.5 2.5t-8.5 0.5t-5 -2q-9 -29 -34.5 -55t-55 -46.5t-57 -34.5t-39.5 -19q-3 -2 -1 -4q9 -5 27 -20.5t34 -38t24.5 -50t-0.5 -56.5q0 -2 3 -3.5t7.5 -2.5t8.5 -1t4 2q15 48 4.5 91.5t-33.5 71.5q21 12 41.5 30t38 39.5t31 45t21.5 47.5z" />
    <glyph glyph-name="guilsinglright" unicode="&#x203a;" horiz-adv-x="267" 
d="M217 207q-9 5 -27 20.5t-34 38t-24.5 50t0.5 56.5q0 1 -3 3t-7.5 2.5t-8.5 0.5t-4 -1q-15 -48 -4.5 -91.5t33.5 -71.5q-21 -12 -41.5 -30t-38 -39.5t-31.5 -45t-21 -47.5q0 -2 3 -3.5t7.5 -2t8.5 -1t5 1.5q9 30 34.5 56t55 46.5t57 34.5t39.5 19q3 2 1 4z" />
    <glyph glyph-name="trademark" unicode="&#x2122;" horiz-adv-x="481" 
d="M577 515q1 0 1 8t-1 8h-24h-2v1v159q0 1 2 1h24q1 0 1 8q0 9 -1 9h-68q-2 0 -4 -5l-51 -137l-48 137q-2 5 -5 5h-69q-1 0 -1 -9q0 -8 1 -8h25q2 0 2 -1v-159l-0.5 -0.5t-1.5 -0.5h-25q-1 0 -1 -8t1 -8h70q1 0 1 8t-1 8h-24q-1 0 -1.5 0.5l-0.5 0.5v147l63 -167q1 -1 7 -1
t6 1l62 168v-148l-0.5 -0.5t-1.5 -0.5h-23q-2 0 -2 -8t2 -8h88zM304 647v61v0q0 1 -1 1h-171l-1 -1v-61q0 -1 9 -1t9 1q0 23 6 34t36 11h5q1 0 1 -1v-159v-1h-1h-24q-1 0 -1 -8t1 -8h90q1 0 1 8t-1 8h-24h-2v1v159q0 1 2 1h6q30 0 36 -11t6 -34q0 -1 9 -1t9 1z" />
    <glyph glyph-name="fraction" unicode="&#x2215;" horiz-adv-x="493" 
d="M431 723q1 1 -7 6t-9 3l-453 -749q-1 -2 7 -7t9 -3z" />
    <glyph glyph-name="radical" unicode="&#x221a;" horiz-adv-x="718" 
d="M770 739q0 2 -5.5 4t-7.5 0q-4 -4 -8 -8.5t-11.5 -8t-20 -6t-32.5 -2.5q-16 14 -32.5 19.5t-38.5 5.5q-32 0 -59.5 -12t-56.5 -38q-14 22 -40 36t-67 14q-36 0 -69 -18.5t-62 -52t-53 -80t-42 -101.5q-5 -14 -8.5 -27t-8.5 -31h-103q-2 0 -5 -10t-1 -10h103
q-16 -57 -32.5 -124.5t-33.5 -136t-34 -133t-33 -115.5q-19 -60 -31.5 -98.5t-24.5 -61t-24.5 -31.5t-31.5 -9q-16 0 -21.5 8.5t-5.5 23.5q0 11 9 25t9 30q0 14 -9.5 24t-30.5 10q-19 0 -34 -17.5t-15 -42.5q0 -35 21 -58t65 -23q26 0 42.5 9t37.5 26q17 -18 41 -26.5
t59 -8.5q36 0 69 19t62 53t53.5 80.5t42.5 102.5q13 41 31.5 98t38.5 120.5t39.5 129.5t35.5 126h152l-95 -300q-17 -55 -3.5 -88.5t61.5 -33.5q27 0 63.5 23.5t64.5 77.5l-20 7q-20 -38 -44.5 -52.5t-38.5 -14.5t-19.5 8.5t-0.5 22.5zM677 698l-83 -265h-152q6 23 11 39.5
t11 35.5q22 70 41 112.5t36 65.5t33.5 30t34.5 7q23 0 36.5 -5.5t31.5 -19.5zM482 677q-29 -29 -55.5 -77.5t-45.5 -108.5q-5 -14 -9 -27t-9 -31h-136q6 23 10.5 39.5t10.5 35.5q22 69 40 111t35.5 65t35.5 30.5t39 7.5q29 0 51 -12t33 -33zM358 413q-16 -57 -35 -123.5
t-38 -133.5t-38 -130.5t-35 -114.5q-22 -69 -40.5 -109.5t-36.5 -62.5t-37 -28.5t-40 -6.5q-25 0 -42.5 6.5t-33.5 23.5q61 61 110 209q13 41 29 97.5t33 119.5t34 128t34 125h136z" />
    <glyph glyph-name="approxequal" unicode="&#x2248;" horiz-adv-x="720" 
d="M720 625q0 51 -28.5 84.5t-83.5 33.5q-56 0 -109 -47q-16 24 -39 35.5t-63 11.5q-36 0 -70 -18.5t-64 -51.5t-55 -79.5t-43 -102.5q-5 -14 -9 -26.5t-9 -31.5h-103q-1 0 -2 -3t-2.5 -6.5t-2 -6.5t0.5 -3h104q-16 -57 -33 -125t-33.5 -136t-33.5 -133t-33 -116
q-19 -60 -32 -98.5t-24.5 -61t-24.5 -31.5t-31 -9q-16 0 -22 9t-6 23q0 11 9 25t9 31q0 14 -9 23.5t-31 9.5q-19 0 -34 -17.5t-15 -41.5q0 -36 21 -59t65 -23q27 0 43.5 9t37.5 26q32 -35 99 -35q36 0 69.5 19t62.5 53t53 80.5t42 102.5q13 41 31.5 98t38.5 121t39.5 130
t35.5 126h149q-3 -18 -12.5 -46t-22 -61.5t-26.5 -69.5t-25.5 -69.5t-19 -61t-7.5 -44.5q0 -31 16 -51t56 -20q13 0 31 5.5t36.5 18t36 31.5t31.5 46l-19 7q-21 -37 -45.5 -52t-38.5 -15q-16 0 -23 10.5t-7 27.5q0 12 7.5 36.5t19 57t26 70.5t29.5 75.5t28.5 73.5t23.5 64
q1 2 -5 4t-8 0q-5 -5 -10 -8.5t-13.5 -5.5t-22 -3t-35.5 -1h-145q7 23 11.5 39.5t10.5 35.5q22 69 40.5 111t35.5 65.5t33 31t31 7.5q29 0 42.5 -10t13.5 -40q0 -11 -5 -19t-11 -16t-11 -16.5t-5 -20.5q0 -38 42 -38q19 0 35 19t16 43zM485 681q-32 -34 -59 -82t-46 -108
q-5 -14 -9 -26.5t-9 -31.5h-136q6 23 11 39.5t11 35.5q22 69 41 111t37.5 65t37.5 30.5t40 7.5q29 0 47 -10t34 -31zM357 414q-16 -57 -34.5 -123.5t-37.5 -133.5t-38 -130.5t-35 -114.5q-22 -69 -41 -110t-37 -62.5t-36.5 -28t-39.5 -6.5q-26 0 -44.5 5.5t-34.5 22.5
q34 32 61.5 84.5t51.5 125.5q13 41 29 97.5t33 119.5t34 128.5t33 125.5h136z" />
    <glyph glyph-name="apple" unicode="&#xf8ff;" horiz-adv-x="967" 
d="M867 0v750h-767v-750h767zM820 520q0 -1 -1 -1v0q-4 0 -6 0.5t-7 0.5t-7 -0.5t-7 -0.5q-1 0 -1 1v1v1q7 1 7 5q0 3 -1 4l-3 15h-25l4 -15q0 -4 1 -5.5t8 -3.5v-2v-1q-4 0 -5.5 0.5t-6.5 0.5t-7.5 -0.5t-7.5 -0.5q-1 0 -1 1v1v1q8 1 8 5q0 3 -1 4l-7 33l-3 6t-8 3v2v1
q4 0 6.5 -0.5t6.5 -0.5q5 0 7 0.5t7 0.5q1 0 1 -2v-1q-7 -1 -7 -5v-4l4 -14h25l-3 14l-3 6t-6 3q-1 0 -1 2v1q4 0 6 -0.5t7 -0.5q4 0 7 0.5t7 0.5q2 0 2 -2q0 -1 -1 -1q-8 -1 -8 -5q0 -3 1 -4l8 -33q1 -4 2 -5.5t7 -3.5q2 0 2 -2zM559 686h-2q-3 9 -11 9q-3 0 -3 -3v-22
q0 -5 5 -6q1 0 1 -1t-1 -1h-8h-9q-1 0 -1 1t1 1q5 1 5 6v22q0 3 -3 3q-5 0 -6 -2t-3 -7h-1h-1q1 4 1.5 6.5t0.5 5.5q2 -1 4 -1h12h11t4 1q2 -3 2 -6q0 -2 2 -6zM694 540q0 -12 -7.5 -17t-14.5 -5q-14 0 -25 11t-11 27q0 12 7.5 17t14.5 5q14 0 25 -11.5t11 -26.5zM503 662
h-9h-9v1v1q5 1 5 6v9h-17v-9q0 -5 5 -6v-1v-1h-9h-8q-1 0 -1 1t1 1q5 1 5 6v19q0 6 -5 6q-1 0 -1 1t1 1h8h9v-1v-1q-5 0 -5 -6v-8h17v8q0 6 -5 6v1v1h9h9v-1v-1q-5 0 -5.5 -1.5t-0.5 -4.5v-19q0 -3 0.5 -4t5.5 -2v-1v-1zM825 378h-36v28h-11v-65h14v-33h-81v33h14v65h-11
v-28h-36v62h147v-62zM587 536q0 -8 -6.5 -13t-17.5 -5q-16 0 -16 13q0 10 9 10q7 0 7 -5t-4 -5q-2 0 -3 1t-2 1q-3 0 -3 -3q0 -9 12 -9t12 14q0 10 -6 15q-5 -5 -11 -5q-8 0 -8 6t8 6h8q2 2 2 6q0 12 -10 12q-7 0 -7 -6q0 -2 1.5 -2.5t1.5 -3.5t-4 -3q-5 0 -5 6q0 5 3.5 8.5
t9.5 3.5q9 0 14.5 -5t5.5 -10t-4 -9q13 -7 13 -18zM826 619h-685v4h685v-4zM439 663q0 -1 -1 -1v0h-16h-12q-1 3 -2 5.5t-2 5.5v0q0 1 1 1q4 -9 12 -9h3q4 0 4 3v12h-4q-6 0 -6 -6v-1h-1h-1v1v6v6q0 1 1 1t1 -1q0 -5 6 -5h4v10q0 4 -4 4h-3q-6 0 -9 -8v-1q-1 0 -1.5 0.5
l-0.5 0.5q2 4 2 10h12h16v0q1 0 1 -1t-1 -1v0q-5 0 -5 -6v-19q0 -5 5 -6v0q1 0 1 -1zM497 520v-1q-5 0 -7 0.5t-7 0.5q-4 0 -7 -0.5t-7 -0.5q-1 0 -1.5 1l-0.5 1v1h1q8 1 8 5q0 3 -1 4l-3 16h-5q-9 0 -8 -11h-1h-2q-1 4 -1 6q0 3 -1 6q-1 4 -1.5 5.5t-1.5 5.5v1h1q2 0 2 -1
q2 -6 4.5 -7.5t7.5 -1.5h4l-3 16q-1 6 -6 6h-4q-13 0 -14 -13q0 -1 -1 -1q-2 0 -2 1q0 3 0.5 5.5t0.5 4.5q0 5 -1 7q5 0 10 -0.5t10 -0.5t13.5 0.5t11.5 0.5l0.5 -0.5t0.5 -1.5t-1 -1q-7 -1 -7 -5q0 -3 1 -4l7 -33q2 -4 3 -5.5t7 -3.5q1 0 1 -2zM823 173q0 -1 -0.5 -1.5
l-0.5 -0.5q-4 0 -6 0.5t-7 0.5t-7.5 -0.5t-7.5 -0.5q-1 0 -1 1v1v2q8 1 8 5q0 1 -0.5 1.5t-0.5 2.5l-3 15h-5q-9 0 -8 -11h-1h-1q-2 4 -2 7t-1 5q-1 4 -1.5 5.5t-1.5 6.5h2h1q2 -7 4.5 -8t7.5 -1h5l-4 15q-1 6 -6 6h-4q-11 0 -14 -13v-1h-1t-1.5 0.5t0.5 0.5v11v6h19h25
q2 0 2 -2l-1 -1q-8 -1 -8 -5v-4l9 -32q1 -5 2 -6.5t7 -2.5q1 0 1.5 -1zM826 476h-685v4h685v-4zM644 406h-14l-37 -45v-20h15v-33h-81v33h14v19l-37 46h-12v34h62v-34h-10l15 -23l15 23h-11v34h81v-34zM399 521q0 -3 -4 -3q-7 0 -12 7q-8 0 -11 -6t-16 -6t-13 11q0 6 5 6
t5 -4q0 -2 -1 -2.5t-1 -2.5q0 -4 5 -4q7 0 8.5 6.5t12.5 6.5q-5 6 -7 14t-3 14.5t-2.5 11.5t-6.5 5t-5 -6t-4 -6q-5 0 -5 5q0 3 4 6.5t9 3.5q10 0 14.5 -6t6.5 -13.5t3.5 -16t4.5 -12.5q7 -1 10 -4t3 -5zM725 192q0 -12 -7.5 -17t-14.5 -5q-13 0 -24 11.5t-11 26.5
q0 12 7 17t14 5q14 0 25 -11.5t11 -26.5zM292 536q0 -8 -6 -13t-17 -5q-17 0 -17 13q0 10 9 10q8 0 8 -5t-5 -5q-2 0 -3 1t-2 1q-2 0 -2 -3q0 -9 12 -9q5 0 8.5 3t3.5 11q0 9 -6 15q-5 -5 -12 -5t-7 6t7 6h9q0 1 0.5 2t0.5 4q0 12 -10 12q-6 0 -6 -6q0 -2 1.5 -2.5t1.5 -3.5
t-5 -3t-5 6q0 5 4 8.5t9 3.5q9 0 14.5 -5t5.5 -10t-4 -9q13 -7 13 -18zM620 225q-9 -1 -9 -5q0 -1 0.5 -1.5t0.5 -2.5l5 -22q2 -6 2 -8q0 -5 -4.5 -10.5t-16.5 -5.5q-14 0 -19 9t-7 17l-5 20q-1 5 -2.5 6.5t-8.5 2.5q-1 0 -1 1v1v1h11h12v-1v-2q-8 -1 -8 -5q0 -1 0.5 -1.5
t0.5 -2.5l4 -19q2 -9 7 -15.5t13 -6.5q13 0 13 10q0 2 -2 10l-5 21q-1 5 -2 6.5t-8 2.5q-1 0 -1 1v1v1h14h15q1 0 1 -2v-1zM455 308h-81v33h15v19h-30q-22 0 -34.5 11.5t-12.5 28.5t12.5 28.5t34.5 11.5h96v-34h-14v-65h14v-33zM826 272h-685v4h685v-4zM694 47h-8h-6
q-1 0 -1 1v0q0 1 1 1q5 0 5 5l-1 19l-25 -27h-1h-2v28q0 2 -0.5 3.5t-5.5 1.5v2v1q2 0 3.5 -0.5t3.5 -0.5t4 0.5t4 0.5v-1v-2q-5 0 -5.5 -1.5t-0.5 -3.5v-17l24 25q2 0 2.5 -0.5t2.5 -0.5t2.5 0.5t2.5 0.5v-1v-2q-6 0 -6 -5l1 -20q0 -5 6 -5v-1v-1zM203 520q0 -1 -1 -1
q-4 0 -6.5 0.5t-6.5 0.5q-5 0 -8 -0.5t-7 -0.5q-1 0 -1 1v1v1q8 1 8 5v4l-4 14q-4 0 -5 -3l-12 -23q-6 0 -10.5 -0.5t-7.5 -0.5q-2 0 -2 1q0 2 1 2q9 1 14 9l8 16q-7 2 -13 6.5t-6 10.5q0 13 20 13q5 0 7.5 -0.5t6.5 -0.5t6 0.5t7 0.5v-2v-1q-8 -1 -8 -5q0 -3 1 -4l7 -33
q2 -4 3 -5.5t8 -3.5l0.5 -0.5t0.5 -1.5zM522 173q0 -2 -1 -2q-2 0 -4 0.5t-5 0.5q-4 0 -7 -0.5t-5 -0.5l-1 2q0 2 1 2q8 1 6 9l-5 30l-31 -44h-2q-1 0 -1 1l-8 45q-2 8 -10 9v2v1q3 0 5 -0.5t5 -0.5q4 0 6.5 0.5t4.5 0.5t2 -2v-1h-1q-9 -1 -7 -9l4 -28l30 40h9h5q2 0 2 -2
v-1h-1q-9 -1 -9 -6q0 -2 1 -3l7 -32q0 -8 9 -9zM632 46q-3 1 -8 1h-9q-8 0 -12 -1q-1 7 -4 11q0 1 1 1h1q3 -9 12 -9h2q4 0 4 4v11h-4q-2 0 -3.5 -0.5t-2.5 -5.5h-1v6v7v1q1 0 1 -1v0q1 -5 6 -5h4v9q0 4 -4 4h-2q-8 0 -10 -7q0 -1 -1 -1v1q0 3 0.5 5t1.5 5q3 0 5.5 -0.5
t6.5 -0.5q3 0 8 0.5t8 0.5v-1v-2q-5 0 -5.5 -1.5t-0.5 -3.5v-20q0 -2 0.5 -3.5t5.5 -1.5v-1v-2zM582 81q0 -2 -1 -2q-2 0 -6 -6l-12 -27h-1l-9 15l-7 -15h-1h-1l-12 27q-2 3 -2.5 4.5t-3.5 1.5v2v1q2 0 2.5 -0.5t2.5 -0.5t3 0.5t3 0.5q1 0 1 -1v0q0 -2 -1 -2q-2 0 -2 -3v-3
l8 -18l7 13l-3 5q-3 6 -7 6q-1 0 -1 2v1q2 0 3.5 -0.5t3.5 -0.5t2.5 0.5t2.5 0.5q3 0 4 -0.5t3 -0.5q3 0 3.5 0.5t3.5 0.5l1 -1q0 -1 -0.5 -1.5l-0.5 -0.5q-5 0 -6 -6l-5 -9l6 -9l9 19v2q0 3 -2 3v2v1q3 0 4.5 -0.5t3.5 -0.5t3 0.5t4 0.5v-1zM826 128h-685v4h685v-4z
M277 308h-141v61h41v-28h33v21h-24v24h24v20h-33v-28h-41v62h141v-34h-14v-65h14v-33zM413 171q-3 1 -8 1h-9h-15q-13 0 -24 9t-11 25q0 11 8 17t17 6q3 0 6.5 -0.5t8.5 -0.5h15v-2v-1q-7 -1 -7 -5v-4l8 -32q1 -5 2 -6.5t8 -2.5q1 0 1 -1v-1v-2zM479 81v-2q-5 0 -7 -5
l-8 -12v-8q0 -5 5 -5q1 0 1 -1v0q0 -2 -1 -2q-2 0 -4 0.5t-4 0.5q-4 0 -5.5 -0.5t-3.5 -0.5v2v1q5 0 5 5v8l-8 12q-4 5 -8 5v2v1q2 0 3 -0.5t3 -0.5t4 0.5t4 0.5v-1v-2q-4 0 -4 -3v-1l1 -1l6 -9l6 9q1 1 1 3t-2 2q-1 0 -1 2v0q0 1 1 1q2 0 3.5 -0.5t4.5 -0.5t4.5 0.5
t3.5 0.5v-1zM306 173q0 -1 -0.5 -1.5l-0.5 -0.5q-4 0 -6 0.5t-7 0.5t-7.5 -0.5t-7.5 -0.5l-1 2q0 2 1 2q7 1 7 5v4l-3 13q-4 0 -6 -3l-12 -22q-6 0 -10 -0.5t-8 -1.5h-1v2q0 1 1 1q9 3 12 10l9 16q-7 1 -12.5 6t-5.5 11q0 12 19 12h14h12q2 0 2 -2v-1h-1q-7 -1 -7 -5v-4
l8 -32q1 -5 2 -6.5t8 -2.5zM424 64q0 -8 -5.5 -13t-14.5 -5t-14 5t-5 13t5 13t14 5t14.5 -5t5.5 -13zM364 48q0 -2 -1 -2q-2 0 -3.5 0.5t-5.5 0.5q-3 0 -4.5 -0.5t-3.5 -0.5q-1 0 -1 2v0q0 1 1 1q5 0 5 5v9q-3 0 -4 -1t-3 -4l-6 -11h-6h-6v1v1q5 0 7 4l8 11q-8 3 -8 9
q0 9 12 9q3 0 4.5 -0.5t4.5 -0.5t5 0.5t4 0.5q1 0 1 -1v0q0 -2 -1 -2q-5 0 -5 -5v-20q0 -5 5 -5q1 0 1 -1v0zM202 215h-2l-4.5 4.5t-7.5 2.5q-9 0 -9 -13q0 -8 3 -17l2 -8q1 -5 2 -6.5t8 -2.5l1 -2q0 -1 -0.5 -1.5l-0.5 -0.5q-4 0 -6 0.5t-6 0.5q-5 0 -7.5 -0.5t-7.5 -0.5
q-1 0 -1 1v1v2q7 1 7 5v4l-1 6q-4 14 -9 23.5t-15 9.5q-8 0 -8 -6h-3v1q0 5 2 8.5t7 3.5q8 0 14.5 -6.5t9.5 -16.5v5q0 18 14 18q8 0 11.5 -4t6.5 -9q2 0 0 -2zM308 46q-2 0 -4 0.5t-5 0.5t-4.5 -0.5t-4.5 -0.5v2v1q5 0 5.5 1.5t0.5 3.5v9q-2 0 -4 -2l-7 -8q-1 -1 -1 -2
q0 -2 3 -2v-1v-2q-3 0 -5.5 0.5t-4.5 0.5q-3 0 -4.5 -0.5t-3.5 -0.5q-1 0 -1 2l1 1q3 0 7 4l13 13l-9 9l-3 3t-5 1v2v1q2 0 3 -0.5t3 -0.5t3.5 0.5t3.5 0.5v-1v-2q-3 0 -3 -1t2 -3l8 -8q1 -3 4 -3v10q0 2 -0.5 3.5t-5.5 1.5v2v1q3 0 4.5 -0.5t4.5 -0.5t5 0.5t4 0.5v-1v-2
q-6 0 -6 -5v-20q0 -5 6 -5v-1v-2zM683 535q0 16 -7.5 28t-16.5 12q-12 0 -12 -15t7.5 -27t16.5 -12q12 0 12 14zM565 553q-2 1 -7 1q-4 0 -4 -3q0 -2 4 -2t7 4zM713 188q0 15 -6.5 27t-17.5 12q-10 0 -10 -14q0 -16 6.5 -28t17.5 -12q10 0 10 15zM270 553q-2 1 -7 1
q-3 0 -3 -3q0 -2 3 -2q4 0 7 4zM389 384v22h-11q-13 0 -13 -11t13 -11h11zM176 548l-3 18q-2 6 -9 6q-8 0 -8 -9q0 -5 3 -10t12 -5h5zM554 77q0 2 -3 2q-2 0 -2 -3l0.5 -1.5t1.5 -3.5q3 4 3 6zM392 182l-9 36q-2 5 -3 5.5t-3 0.5l-6 1q-14 0 -14 -18q0 -12 7.5 -21.5
t18.5 -9.5h5q2 0 3 0.5t1 5.5zM280 201l-5 17q0 7 -7 7q-8 0 -8 -10q0 -5 3 -9.5t12 -4.5h5zM416 64q0 7 -2.5 12t-9.5 5q-6 0 -9 -5t-3 -12q0 -16 12 -16t12 16zM351 65v10q0 4 -4 4q-7 0 -7 -6q0 -8 8 -8h3z" />
    <glyph glyph-name="fi" unicode="&#xfb01;" horiz-adv-x="505" 
d="M505 625q0 51 -29 84.5t-85 33.5q-36 0 -69 -18.5t-61.5 -51.5t-52.5 -79.5t-42 -102.5q-5 -14 -9 -26.5t-9 -31.5h-103q-1 0 -2 -3t-2.5 -6.5t-2 -6.5t0.5 -3h103q-16 -57 -32.5 -125l-33 -136t-33.5 -133t-33 -116q-19 -60 -32 -98.5t-24.5 -61t-24.5 -31.5t-31 -9
q-17 0 -22.5 9t-5.5 23q0 11 9 25t9 31q0 14 -9 23.5t-31 9.5q-19 0 -34 -17.5t-15 -41.5q0 -36 24.5 -59t68.5 -23q39 0 68 19t52.5 53.5t42.5 82t38 104.5q13 41 29 97.5t32.5 119.5t33.5 128.5t33 125.5h149q-3 -18 -12.5 -46t-22 -61.5t-26.5 -69.5t-25.5 -69.5t-19 -61
t-7.5 -44.5q0 -31 16 -51t57 -20q13 0 31 5.5t36.5 18t36 31.5t31.5 46l-20 7q-21 -37 -45.5 -52t-38.5 -15q-16 0 -23 10.5t-7 27.5q0 18 15.5 63t37.5 100.5t44.5 113.5t36.5 100q1 2 -4.5 4t-7.5 0q-10 -10 -26 -14t-56 -4h-144q6 23 11 39.5t11 35.5q22 69 40.5 111
t35.5 65.5t32 31t29 7.5q29 0 44 -10t15 -40q0 -11 -5 -19t-11 -16t-11 -16.5t-5 -20.5q0 -38 42 -38q19 0 34.5 19t15.5 43z" />
    <glyph glyph-name="fl" unicode="&#xfb02;" horiz-adv-x="502" 
d="M554 739q1 2 -5 4t-8 0q-3 -4 -7.5 -8.5t-12 -8t-20 -6t-32.5 -2.5q-16 14 -32 19.5t-38 5.5q-36 0 -70.5 -18.5t-65 -51.5t-55.5 -79.5t-43 -102.5q-5 -14 -8.5 -26.5t-8.5 -31.5h-104q-2 0 -4.5 -10t-0.5 -10h103q-16 -57 -33 -124.5t-33.5 -135.5t-33.5 -133t-33 -116
q-19 -60 -31.5 -98.5t-24.5 -61t-24.5 -31.5t-31.5 -9q-16 0 -21.5 8.5t-5.5 23.5q0 11 9 25t9 31q0 14 -9.5 23.5t-30.5 9.5q-20 0 -35 -17.5t-15 -41.5q0 -36 25 -59t69 -23q38 0 67.5 19t52.5 53.5t42.5 82t37.5 104.5q13 41 29 97.5t33 119.5t34 128t33 125h152
l-95 -300q-17 -55 -3 -88.5t61 -33.5q27 0 64 23.5t64 77.5l-19 7q-21 -37 -45.5 -52t-38.5 -15t-19.5 8.5t-0.5 22.5zM461 698l-82 -265h-152q6 23 10.5 39.5t10.5 35.5q22 69 42 111t38.5 65.5t35 31t30.5 7.5q23 0 36 -5t31 -20z" />
    </font>
</defs>
</svg>
