<?xml version="1.0" standalone="no"?>
<!DOCTYPE svg PUBLIC "-//W3C//DTD SVG 1.1//EN" "http://www.w3.org/Graphics/SVG/1.1/DTD/svg11.dtd" >
<svg xmlns="http://www.w3.org/2000/svg" xmlns:xlink="http://www.w3.org/1999/xlink" version="1.1">
<metadata>
Created by FontForge 20170731 at Sun Jan 22 10:58:51 2006
 By Aleksey,,,
HTF Didot   1992 The Hoefler Type Foundry, Inc. This typeface and the digital software that describes it are the exclusive property of HTF. Jacquard is a trademark of HTF.
</metadata>
<defs>
<font id="Didot-HTF-L11-Light" horiz-adv-x="643" >
  <font-face 
    font-family="Didot"
    font-weight="500"
    font-stretch="normal"
    units-per-em="1000"
    panose-1="2 0 6 3 2 0 0 2 0 4"
    ascent="800"
    descent="-200"
    x-height="426"
    cap-height="709"
    bbox="-112 -332 1010 944"
    underline-thickness="20"
    underline-position="-163"
    unicode-range="U+0020-FB02"
  />
<missing-glyph horiz-adv-x="500" 
 />
    <glyph glyph-name=".notdef" horiz-adv-x="500" 
 />
    <glyph glyph-name=".null" horiz-adv-x="0" 
 />
    <glyph glyph-name="nonmarkingreturn" horiz-adv-x="179" 
 />
    <glyph glyph-name="space" unicode=" " horiz-adv-x="179" 
 />
    <glyph glyph-name="space" unicode="&#xa0;" horiz-adv-x="179" 
 />
    <glyph glyph-name="exclam" unicode="!" horiz-adv-x="215" 
d="M165 649q0 43 -16 60t-41 17t-41 -17t-16 -60q0 -33 7.5 -85.5t17 -115.5t17 -132t7.5 -135q0 -2 8 -2q9 0 9 2q0 66 7.5 135t16.5 132l16.5 115.5t7.5 85.5zM158 40q0 23 -15 38t-35 15t-35 -15t-15 -38q0 -20 15 -35.5t35 -15.5t35 15.5t15 35.5z" />
    <glyph glyph-name="quotedbl" unicode="&#x22;" horiz-adv-x="321" 
d="M267 673q0 16 -8 34.5t-30 18.5q-11 0 -18 -5.5t-11.5 -13.5t-6.5 -17t-2 -17q0 -38 10.5 -86.5t18.5 -98.5l1 -11q1 -3 8 -3q8 0 9 3v11q8 50 18.5 98.5t10.5 86.5zM131 673q0 16 -8 34.5t-30 18.5q-11 0 -18.5 -5.5t-12 -13.5t-6 -17t-1.5 -17q0 -38 10.5 -86.5
t18.5 -98.5l2 -11q0 -3 7 -3t9 3q-1 0 -0.5 5.5l0.5 5.5q7 50 18 98.5t11 86.5z" />
    <glyph glyph-name="numbersign" unicode="#" horiz-adv-x="458" 
d="M435 297q1 0 1 10t-1 10h-104l39 150q0 1 -2.5 1.5t-6 1t-6.5 0.5t-3 -1l-40 -152h-111l39 150q0 2 -8 3t-9 -1l-40 -152h-99q-2 0 -2 -10t2 -10h93l-37 -151h-101q-2 0 -2 -10t2 -10h94l-44 -167q0 -2 9 -3t10 1l43 169h113l-44 -167q-1 -2 8 -3t9 1l44 169h110
q2 0 2 10t-2 10h-104l38 151h110zM308 297l-39 -151h-112l39 151h112z" />
    <glyph glyph-name="dollar" unicode="$" horiz-adv-x="532" 
d="M477 208q0 40 -9.5 71t-29 55.5t-50.5 43.5t-73 36v287q17 -3 30.5 -12t22.5 -20t13.5 -23t4.5 -21q0 -14 -6 -20.5t-12.5 -12.5t-12.5 -14.5t-6 -26.5q0 -24 15.5 -42.5t38.5 -18.5q20 0 39 19.5t19 51.5q0 20 -11 45.5t-30.5 49t-46.5 42t-58 23.5v89q0 2 -9 2t-9 -2
v-86q-10 1 -18.5 1.5t-20.5 0.5q-17 0 -33 -4v88q0 2 -10 2q-9 0 -9 -2v-92q-27 -7 -51 -26t-43 -47t-30 -61.5t-11 -68.5q0 -42 11.5 -74t30 -55.5t43 -40t50.5 -26.5v-312q-42 5 -59 21.5t-17 37.5q0 14 5.5 20.5t11.5 12.5t11.5 14t5.5 26q0 24 -15.5 42t-38.5 18
q-20 0 -38.5 -19t-18.5 -52q0 -23 12.5 -46.5t33.5 -43t49 -33t58 -17.5v-89q0 -2 9 -2q10 0 10 2v85q8 -1 15 -1h15q23 0 42 4v-88q0 -2 9 -2t9 2v92q38 8 68 31.5t51 54.5t32 65.5t11 65.5zM297 421q-40 15 -72 33v248q9 2 17.5 4t16.5 2q12 0 21 -1t17 -3v-283zM206 465
q-45 25 -65.5 58.5t-20.5 71.5q0 35 24 62.5t62 40.5v-233zM420 124q0 -20 -9 -38.5t-23.5 -33.5t-33.5 -25.5t-39 -14.5v261q59 -28 82 -64.5t23 -84.5zM297 7q-19 -4 -43 -4h-15t-14 1v309q20 -9 38 -16.5t34 -15.5v-274z" />
    <glyph glyph-name="percent" unicode="%" horiz-adv-x="692" 
d="M364 587q0 60 -30.5 93t-77.5 33q-46 0 -84.5 -21.5t-67 -54.5t-44.5 -73.5t-16 -79.5q0 -60 30.5 -93t78.5 -33q45 0 84 21.5t67 54.5t44 73.5t16 79.5zM561 725q0 1 -2.5 3t-5.5 4t-6 3.5t-3 0.5l-411 -749q-1 -2 6.5 -7.5t8.5 -3.5zM650 220q0 60 -31 93t-79 33
q-45 0 -83.5 -21.5t-67 -54.5t-44.5 -73.5t-16 -79.5q0 -60 31 -93t78 -33q45 0 84 21.5t67.5 54.5t44.5 73.5t16 79.5zM302 625q0 -23 -4.5 -55t-15 -65.5t-26.5 -63t-38 -45.5q-14 -11 -29 -14.5t-32 -3.5q-29 0 -40 16t-11 52q0 22 4.5 54.5t15 66t26 62.5t38.5 46
q14 11 29 14.5t32 3.5q29 0 40 -16t11 -52zM588 258q0 -23 -4.5 -55t-14.5 -65.5t-26 -63t-39 -45.5q-14 -11 -29 -14.5t-32 -3.5q-29 0 -40.5 16t-11.5 52q0 22 5 54.5t15 66t26 62.5t39 46q14 11 29 14.5t32 3.5q29 0 40 -16t11 -52z" />
    <glyph glyph-name="ampersand" unicode="&#x26;" horiz-adv-x="682" 
d="M690 377q2 0 2 10t-2 10h-246q-2 0 -2 -10t2 -10h36q40 0 59 -16.5t14 -58.5q-3 -53 -19 -102t-39 -88q-28 43 -57.5 89.5t-56 94.5t-48.5 96.5t-36 95.5q57 33 83 74.5t26 79.5q0 37 -20 60.5t-70 23.5q-29 0 -54.5 -13t-44.5 -37.5t-29.5 -59.5t-10.5 -78
q0 -22 4 -46.5t13 -50.5q-81 -52 -122.5 -113t-41.5 -139q0 -45 17 -83t46.5 -65.5t70.5 -42.5t89 -15q92 0 169 49q52 -48 108 -48q22 0 45 5.5t43 15.5t35.5 25t23.5 35q1 2 -5.5 7t-7.5 4q-5 -16 -13 -26.5t-27 -16.5q-8 -3 -15 -3q-22 0 -49 12t-45 38q-2 4 -5 8t-6 9
q24 40 44 94t25 111q4 42 22 58.5t56 16.5h39zM388 642q0 -37 -23 -72t-74 -63q-10 31 -13.5 59.5t-3.5 54.5q0 24 5 40t13.5 25t20 12.5t23.5 3.5q26 0 39 -15.5t13 -44.5zM408 47q-20 -9 -33 -13t-38 -4q-52 0 -92.5 18.5t-68 51.5t-42 77.5t-14.5 97.5q0 50 24 86.5
t56 61.5q13 -39 31 -78.5t39.5 -79t44.5 -78t46 -74.5q14 -24 23 -37.5t24 -28.5z" />
    <glyph glyph-name="quotesingle" unicode="'" horiz-adv-x="185" 
d="M131 673q0 16 -8 34.5t-30 18.5q-11 0 -18 -5.5t-11.5 -13.5t-6.5 -17t-2 -17q0 -38 10.5 -86.5t18.5 -98.5l2 -11q0 -3 7 -3t9 3q-1 0 -0.5 5.5l0.5 5.5q7 50 18 98.5t11 86.5z" />
    <glyph glyph-name="parenleft" unicode="(" horiz-adv-x="290" 
d="M314 -233q-29 21 -57.5 51.5t-51 84.5t-37 136.5t-14.5 207.5q0 124 14.5 206.5t37 136.5t51 85t57.5 51q1 1 -6 7t-8 5q-106 -79 -166 -205.5t-60 -285.5q0 -160 60 -286t166 -205q1 -1 8 4.5t6 6.5z" />
    <glyph glyph-name="parenright" unicode=")" horiz-adv-x="290" 
d="M219 247q0 159 -60.5 285.5t-166.5 205.5l-2.5 -1.5t-5 -4l-4.5 -4.5t-1 -2q28 -20 57 -51t51.5 -85t37 -136.5t14.5 -206.5q0 -125 -14.5 -207.5t-37 -136.5t-51.5 -84.5t-57 -51.5q-2 -1 5 -6.5t8 -4.5q106 79 166.5 205t60.5 286z" />
    <glyph glyph-name="asterisk" unicode="*" horiz-adv-x="399" 
d="M343 484q0 10 -5 17.5t-13 11.5q-10 6 -19 6.5t-21 2t-28.5 7t-40.5 21.5q24 16 40.5 21.5t28.5 7t21 2t19 7.5q8 4 13 11.5t5 18.5q0 17 -10.5 28.5t-26.5 11.5q-13 0 -20 -8t-15 -20.5t-20.5 -27.5t-36.5 -30l-6 -4v8q0 28 4 45t9 28t9 20t4 22q0 12 -9 23.5t-26 11.5
t-26 -11.5t-9 -23.5q0 -13 4 -22t9 -20t9 -28t4 -45v-8l-7 4q-23 15 -35.5 30t-20.5 27.5t-15.5 20.5t-20.5 8q-16 0 -26 -11.5t-10 -28.5q0 -11 5 -18.5t12 -11.5q10 -7 19.5 -7.5t21.5 -2t28 -7t41 -21.5q-25 -16 -41 -21.5t-28 -7t-21.5 -2t-19.5 -6.5q-7 -4 -12 -11.5
t-5 -17.5q0 -17 10 -29t26 -12q13 0 20.5 8t15.5 20t20.5 27.5t35.5 30.5l7 4v-8q0 -29 -4 -45.5t-9 -27.5t-9 -20t-4 -21q0 -13 9 -25t26 -12t26 12t9 25q0 12 -4 21t-9 20t-9 27.5t-4 45.5v8l6 -4q24 -15 36.5 -30.5t20.5 -27.5t15 -20t20 -8q16 0 26.5 12t10.5 29z" />
    <glyph glyph-name="plus" unicode="+" horiz-adv-x="402" 
d="M344 199q1 0 1 4v9v10t-1 4h-130v150q0 1 -4 1h-9h-8t-4 -1v-150h-136q-1 0 -1.5 -4t-0.5 -10q0 -5 0.5 -9t1.5 -4h136v-143q0 -1 4 -1.5t8 -0.5q5 0 9 0.5t4 1.5v143h130z" />
    <glyph glyph-name="comma" unicode="," horiz-adv-x="192" 
d="M146 34q0 29 -12 45.5t-35 16.5q-18 0 -30.5 -14t-12.5 -34q0 -30 16 -39q28 -22 28 -49q0 -14 -8.5 -26.5t-22.5 -24.5q-5 -4 -11.5 -8t-14.5 -6q-1 0 1 -8.5t4 -7.5q22 7 40 25t31 40.5t20 46.5t7 43z" />
    <glyph glyph-name="hyphen" unicode="-" horiz-adv-x="314" 
d="M277 262q2 4 0 4h-227q-2 -17 -4.5 -28.5t-8.5 -22.5q-2 -4 0 -4h225q2 17 5 28.5t10 22.5z" />
    <glyph glyph-name="period" unicode="." horiz-adv-x="192" 
d="M148 38q0 22 -14.5 36.5t-34.5 14.5t-33.5 -14.5t-13.5 -36.5q0 -21 13.5 -36t33.5 -15t34.5 15t14.5 36z" />
    <glyph glyph-name="slash" unicode="/" horiz-adv-x="346" 
d="M369 754q1 2 -7.5 6t-9.5 2l-290 -777q-1 -1 1.5 -2.5t6 -3t6 -2.5t2.5 0z" />
    <glyph glyph-name="zero" unicode="0" horiz-adv-x="546" 
d="M491 212q0 46 -17 86.5t-47 70.5t-69.5 47.5t-84.5 17.5t-84.5 -17.5t-69 -47.5t-46.5 -70.5t-17 -86.5t17 -86.5t46.5 -70.5t69 -47.5t84.5 -17.5t84.5 17.5t69.5 47.5t47 70.5t17 86.5zM399 212q0 -42 -2.5 -71.5t-8.5 -50.5t-15.5 -35t-22.5 -24q-14 -12 -33.5 -16.5
t-43.5 -4.5q-23 0 -42.5 4.5t-34.5 16.5q-12 10 -21 24t-15 35t-9 50.5t-3 71.5q0 74 11.5 117t36.5 63q15 14 34.5 18.5t42.5 4.5q24 0 43.5 -4.5t33.5 -18.5q26 -20 37.5 -63t11.5 -117z" />
    <glyph glyph-name="one" unicode="1" horiz-adv-x="341" 
d="M286 0q2 0 2 10t-2 10h-65q-7 0 -7 4v378q0 4 7 4h65q2 0 2 10t-2 10h-231q-2 0 -2 -10t2 -10h65q6 0 6 -4v-378q0 -4 -6 -4h-65q-2 0 -2 -10t2 -10h231z" />
    <glyph glyph-name="two" unicode="2" horiz-adv-x="473" 
d="M426 3v148q0 2 -9 2t-9 -2q0 -45 -20 -66.5t-68 -21.5h-150q-3 0 -4 1t2 3q59 34 100.5 63.5t67.5 56.5t38 53t12 55q0 35 -12.5 61t-35 43.5t-52.5 26.5t-65 9q-34 0 -61.5 -10t-46.5 -26t-29 -35.5t-10 -38.5q0 -17 9 -31.5t31 -14.5q24 0 34.5 11.5t10.5 25.5
q0 11 -4 18t-4 18q0 29 19 46t51 17q39 0 58 -23.5t19 -87.5q0 -51 -13 -89.5t-44.5 -71t-83.5 -61.5t-130 -60q-4 -2 -2.5 -12t3.5 -10h396q2 0 2 3z" />
    <glyph glyph-name="three" unicode="3" horiz-adv-x="418" 
d="M407 -71q0 37 -12 72t-36 62t-59 43.5t-80 16.5h-9l-5 -1q7 0 21.5 7.5t32 19.5t35.5 28.5t33.5 36t25 40t9.5 41.5q0 37 -15 64t-40.5 43.5t-59.5 24.5t-72 8q-30 0 -53.5 -10t-39 -24.5t-24 -30.5t-8.5 -29q0 -17 10 -31t32 -14q23 0 33.5 11t10.5 25q0 11 -4 17.5
t-4 19.5q0 25 13.5 36.5t33.5 11.5q23 0 41 -4t30 -16t18 -34t6 -58q0 -42 -8 -73t-26 -56t-46.5 -46.5t-68.5 -45.5q-3 -1 0.5 -8.5t5.5 -6.5q27 17 41 24.5t31 7.5q26 0 47 -5.5t36 -24.5t23 -55t8 -97t-10.5 -98t-29 -56.5t-44 -25.5t-54.5 -6t-48 10.5t-19 45.5
q0 12 4 19t4 18q0 14 -11 25.5t-34 11.5t-32 -14.5t-9 -31.5q0 -18 9.5 -36.5t28.5 -33.5t45.5 -24.5t61.5 -9.5q38 0 79 14t74.5 41t55.5 67.5t22 93.5z" />
    <glyph glyph-name="four" unicode="4" horiz-adv-x="477" 
d="M473 0q2 0 2 10t-2 10h-109v188q0 2 -9 2q-8 0 -9 -2q-4 -11 -9.5 -22.5t-13.5 -22t-20 -18t-28 -8.5v-117h-217l368 508q0 1 -6.5 7t-7.5 4q-10 -13 -27 -26.5t-36 -23t-37.5 -13.5t-32.5 2l-184 -358q-16 -33 -33 -64t-33 -52q-4 -4 1 -4h245v-278h89v278h109z" />
    <glyph glyph-name="five" unicode="5" horiz-adv-x="429" 
d="M390 -52q0 42 -9.5 81t-30.5 68t-53.5 46.5t-77.5 17.5q-48 0 -73 -15.5t-33 -32.5v265q17 -19 53 -27t76 -8q23 0 43.5 5.5t35.5 15t24 22.5t9 28q0 17 -8.5 26.5t-31.5 9.5q-15 0 -26.5 -8.5t-25.5 -18.5t-33 -18.5t-47 -8.5t-50.5 6.5t-34.5 18.5q-1 1 -2.5 0.5
t-1.5 -2.5t1 -3t1 -6v-334q0 -6 -1.5 -15.5t-1.5 -14.5q0 -8 1.5 -9.5t6.5 -1.5q8 0 8 9t-0.5 14t1.5 13q4 21 13 34.5t20.5 20.5t26 9.5t29.5 2.5q54 0 76.5 -49.5t22.5 -149.5q0 -66 -8 -106.5t-24 -62.5t-38.5 -29.5t-52.5 -7.5q-29 0 -47.5 10.5t-18.5 45.5q0 12 3.5 19
t3.5 18q0 14 -10.5 25.5t-33.5 11.5t-32.5 -14.5t-9.5 -31.5q0 -18 9.5 -36.5t28 -33.5t45.5 -24.5t62 -9.5q38 0 76.5 15t69.5 44.5t50.5 73.5t19.5 102z" />
    <glyph glyph-name="six" unicode="6" horiz-adv-x="527" 
d="M482 196q0 41 -16 78t-43.5 65t-65 44.5t-79.5 16.5q-16 0 -33.5 -4.5t-33 -13.5t-28.5 -21.5t-21 -28.5q2 71 12 136t28.5 115t46 80t64.5 30q19 0 30 -11t11 -36q0 -12 -3.5 -19t-3.5 -18q0 -14 10.5 -25.5t32.5 -11.5q24 0 33.5 14.5t9.5 31.5q0 13 -7.5 29
t-22.5 30.5t-37.5 24.5t-52.5 10q-55 0 -100 -36t-76.5 -95t-48.5 -134t-17 -153t15.5 -135t43.5 -94.5t65.5 -55.5t82.5 -18q42 0 79.5 16.5t65 44.5t43.5 65t16 79zM390 196q0 -75 -9.5 -112t-32.5 -55q-14 -11 -32.5 -14.5t-37.5 -3.5q-18 0 -36 3.5t-33 14.5
q-11 9 -20 21.5t-15 31t-9 45t-3 64.5v89q0 18 8.5 36t24 32t37 23t46.5 9q19 0 37.5 -3.5t32.5 -14.5q23 -18 32.5 -59.5t9.5 -106.5z" />
    <glyph glyph-name="seven" unicode="7" horiz-adv-x="439" 
d="M415 421q2 2 1.5 3.5t-2.5 1.5h-9h-341q-2 0 -2 -3v-154q0 -2 8 -2q9 0 9 2q0 45 21 64.5t69 19.5h197l-291 -632h87l189 545q17 46 32 84.5t32 70.5z" />
    <glyph glyph-name="eight" unicode="8" horiz-adv-x="544" 
d="M484 186q0 34 -12 63.5t-33.5 55.5t-50.5 50.5t-63 47.5q26 11 49.5 27.5t41 37t28 43.5t10.5 47q0 38 -15 67t-40 48.5t-57.5 29.5t-67.5 10q-42 0 -73 -17.5t-51.5 -44t-30.5 -57.5t-10 -59q0 -30 8.5 -53.5t23 -42t33 -34.5t39.5 -32q-29 -14 -55 -33.5t-46 -44
t-32 -54.5t-12 -65q0 -39 16.5 -72.5t44.5 -58.5t65.5 -39.5t79.5 -14.5q51 0 90 18t66 46.5t40.5 63t13.5 67.5zM389 561q0 -54 -18.5 -90.5t-60.5 -58.5q-29 20 -54.5 37.5t-45.5 38t-31.5 46t-11.5 60.5q0 20 6.5 38.5t20 32.5t33.5 22t47 8q25 0 46 -6.5t36.5 -22.5
t24 -41.5t8.5 -63.5zM421 134q0 -60 -42 -91.5t-105 -31.5q-32 0 -57 9t-42 29.5t-26 53.5t-9 80q0 68 22 109t64 70q33 -26 68 -49t63 -49t46 -57t18 -73z" />
    <glyph glyph-name="nine" unicode="9" horiz-adv-x="531" 
d="M480 130q0 81 -16.5 139t-45.5 94.5t-68.5 54t-85.5 17.5q-44 0 -81.5 -17t-64.5 -46t-42.5 -67.5t-15.5 -82.5t15.5 -82.5t42.5 -67.5t64.5 -46t81.5 -17q32 0 64 13t52 42q-3 -68 -12 -128.5t-27 -105.5t-46.5 -71t-69.5 -26q-50 0 -50 52q0 11 4 18t4 19
q0 14 -10.5 25t-33.5 11t-32.5 -14t-9.5 -31q0 -13 8 -30t24 -32.5t40 -26t56 -10.5q60 0 107.5 35.5t80.5 94t50 133.5t17 153zM389 224q0 -14 -0.5 -34.5t-1.5 -40.5t-2.5 -35.5t-2.5 -19.5q-4 -10 -14 -21.5t-25 -21t-35 -16t-44 -6.5q-20 0 -37.5 4t-31.5 15
q-26 20 -34.5 62.5t-8.5 111.5q0 40 2 68.5t6.5 48.5t13 33.5t21.5 22.5q14 13 31.5 17.5t37.5 4.5q21 0 41.5 -4.5t34.5 -17.5q12 -9 21.5 -22t15.5 -33t9 -48t3 -68z" />
    <glyph glyph-name="colon" unicode=":" horiz-adv-x="192" 
d="M148 355q0 20 -14.5 35t-34.5 15t-33.5 -15t-13.5 -35q0 -22 13.5 -37t33.5 -15t34.5 15t14.5 37zM148 38q0 22 -14.5 36.5t-34.5 14.5t-33.5 -14.5t-13.5 -36.5q0 -21 13.5 -36t33.5 -15t34.5 15t14.5 36z" />
    <glyph glyph-name="semicolon" unicode=";" horiz-adv-x="192" 
d="M148 355q0 20 -14.5 35t-34.5 15t-33.5 -15t-13.5 -35q0 -22 13.5 -37t33.5 -15t34.5 15t14.5 37zM146 34q0 29 -12 45.5t-35 16.5q-18 0 -30.5 -14t-12.5 -34q0 -30 16 -39q28 -22 28 -49q0 -14 -8.5 -26.5t-22.5 -24.5q-5 -4 -11.5 -8t-14.5 -6q-1 0 1 -8.5t4 -7.5
q22 7 40 25t31 40.5t20 46.5t7 43z" />
    <glyph glyph-name="less" unicode="&#x3c;" horiz-adv-x="325" 
d="M283 92l-194 121l194 122q1 0 0 3.5t-3 7t-3.5 6t-2.5 2.5l-218 -139q-2 -2 0 -3l218 -139q1 -1 2.5 2t3.5 6.5t3 7t0 3.5z" />
    <glyph glyph-name="equal" unicode="=" horiz-adv-x="365" 
d="M310 262v20h-253q-2 0 -2 -10t2 -10h253zM310 143v19h-253q-2 0 -2 -10q0 -9 2 -9h253z" />
    <glyph glyph-name="greater" unicode="&#x3e;" horiz-adv-x="325" 
d="M269 212q1 1 0 3l-219 139q-1 0 -2.5 -2.5t-3.5 -6t-3 -7t0 -3.5l195 -122l-195 -121q-1 0 0 -3.5t3 -7t3.5 -6.5t2.5 -2z" />
    <glyph glyph-name="question" unicode="?" horiz-adv-x="416" 
d="M398 518q0 46 -16.5 84.5t-45.5 66t-69 42.5t-87 15q-35 0 -63 -13.5t-48.5 -34t-31.5 -45t-11 -45.5q0 -27 14.5 -40t37.5 -13t36 13t13 31q0 11 -2 17.5t-4.5 11.5t-4.5 12t-2 20q0 32 14.5 49t51.5 17q20 0 39 -4.5t33 -16.5q12 -10 21 -23.5t15 -33.5t8.5 -47
t2.5 -63q0 -50 -1 -81.5t-4 -51t-7.5 -29.5t-11.5 -16q-10 -8 -25.5 -13t-30.5 -5q-19 0 -41.5 7.5t-33.5 27.5q-1 1 -2.5 0.5t-1.5 -2.5q0 -1 0.5 -1.5t0.5 -2.5v-170q0 -2 9 -2q10 0 10 2v137q14 -9 30.5 -12.5t28.5 -3.5q36 0 68 16.5t57 45.5t39.5 68.5t14.5 85.5z
M200 40q0 23 -14.5 38t-34.5 15q-21 0 -36 -15t-15 -38q0 -20 15 -35.5t36 -15.5q20 0 34.5 15.5t14.5 35.5z" />
    <glyph glyph-name="at" unicode="@" horiz-adv-x="770" 
d="M704 403q0 77 -24.5 137t-67 101.5t-99 63t-119.5 21.5q-70 0 -131.5 -29t-107.5 -79.5t-72.5 -118.5t-26.5 -145t26.5 -144.5t72.5 -118t107.5 -79.5t131.5 -29q60 0 114 22t99 61q2 2 -3.5 9t-7.5 6q-42 -37 -93 -58.5t-109 -21.5q-66 0 -124 27.5t-101 75t-68 112
t-25 138.5t25 138.5t68 112t101 74.5t124 27q60 0 113 -20t92 -58.5t62 -95t23 -130.5q0 -48 -14.5 -85.5t-39 -63.5t-56.5 -39.5t-66 -13.5q-20 0 -29 8t-9.5 27t6.5 50.5t21 79.5l46 159h-61l-10 -36q-4 22 -23 33t-39 11q-42 0 -79 -21t-65 -54.5t-44.5 -74t-16.5 -79.5
q0 -24 5 -46.5t16.5 -40.5t30 -29t45.5 -11q13 0 29 5.5t32 17.5t30 31.5t24 46.5q-5 -20 -4.5 -38t8.5 -32t25.5 -22.5t45.5 -8.5q34 0 71.5 13.5t69 41t51.5 70.5t20 102zM459 448l-29 -107q-5 -17 -16 -41.5t-26.5 -47t-36 -38.5t-43.5 -16t-36 15.5t-13 45.5
q0 25 6.5 57t18 64t27.5 60.5t36 46.5q15 14 29 20t31 6q31 0 44.5 -19.5t7.5 -45.5z" />
    <glyph glyph-name="A" unicode="A" 
d="M660 0q2 0 2 10t-2 10h-82q-5 0 -8 3l-245 700q-1 2 -9 2t-9 -2l-222 -661q-9 -29 -12.5 -35.5t-9.5 -6.5h-74q-1 0 -1 -10t1 -10h186q2 0 2 10t-2 10h-79q-4 0 -2.5 7.5t9.5 34.5l57 168h224l69 -207q3 -3 -4 -3h-83q-2 0 -2 -10t2 -10h294zM378 250h-211l106 320z" />
    <glyph glyph-name="B" unicode="B" horiz-adv-x="620" 
d="M570 188q0 45 -18 80t-48.5 59.5t-69.5 37.5t-81 13q26 0 55.5 12.5t54.5 35t41.5 53t16.5 66.5q0 42 -17.5 72.5t-47 51t-68 30.5t-80.5 10h-263q-2 0 -2 -10t2 -10h82q6 0 6 -4v-661q0 -4 -6 -4h-82q-2 0 -2 -10t2 -10h307q54 0 95 16t68.5 42.5t41 60t13.5 69.5z
M419 541q0 -46 -5 -75.5t-16.5 -47t-30 -24t-44.5 -6.5h-81v297q0 4 7 4h44q35 0 59 -6.5t39 -23t21.5 -45.5t6.5 -73zM462 182q0 -49 -8.5 -80.5t-26 -49.5t-42.5 -25t-58 -7h-78q-7 0 -7 4v346h72q35 0 62.5 -7t46.5 -27t29 -57t10 -97z" />
    <glyph glyph-name="C" unicode="C" horiz-adv-x="626" 
d="M580 -15v242q0 2 -9 2q-8 0 -8 -2q0 -49 -15.5 -90.5t-43 -71.5t-64.5 -46.5t-79 -16.5q-32 0 -63 7.5t-54 29.5q-35 35 -53.5 111t-18.5 204t18.5 204t53.5 111q23 21 52 29t61 8q34 0 68 -18t60.5 -47t43 -65.5t16.5 -73.5q0 -2 9 -2t9 2v221q0 2 -9 2t-9 -2
q-2 -8 -14 -16t-33 -8q-16 0 -34 4t-36 9.5t-36 9.5t-35 4q-66 0 -121 -30t-95 -81t-62.5 -118.5t-22.5 -142.5q0 -74 23 -141.5t64 -118.5t96.5 -81t121.5 -30q20 0 41 5t42 11t40.5 11t36.5 5q20 0 30 -10.5t12 -19.5q1 -1 9 -1t8 1z" />
    <glyph glyph-name="D" unicode="D" horiz-adv-x="700" 
d="M644 354q0 73 -23.5 138t-64.5 113t-96 76t-117 28h-298q-1 0 -1 -10t1 -10h82q6 0 6 -4v-661q0 -4 -6 -4h-82q-1 0 -1 -10t1 -10h298q62 0 117 28t96 76t64.5 112.5t23.5 137.5zM527 354q0 -69 -4.5 -118t-13.5 -84t-23 -58t-32 -39q-23 -21 -51.5 -28t-59.5 -7h-94
q-7 0 -7 4v661q0 4 7 4h94q31 0 59.5 -7.5t51.5 -27.5q37 -34 55 -106.5t18 -193.5z" />
    <glyph glyph-name="E" unicode="E" horiz-adv-x="607" 
d="M574 3v209q0 2 -9 2t-9 -2q0 -39 -11 -73.5t-35 -61t-63.5 -42t-96.5 -15.5h-101q-8 0 -8 4v330h31q57 0 86.5 -31.5t29.5 -82.5q0 -2 8 -2q9 0 9 2v248q0 2 -9 2q-8 0 -8 -2q0 -52 -29.5 -83t-86.5 -31h-31v311q0 4 8 4h98q43 0 74 -14t50 -37.5t28 -54.5t9 -66
q0 -2 9 -2t9 2v189q0 3 -2 3h-479q-1 0 -1 -10t1 -10h82q6 0 6 -4v-661q0 -4 -6 -4h-82q-1 0 -1 -10t1 -10h526q3 0 3 3z" />
    <glyph glyph-name="F" unicode="F" horiz-adv-x="583" 
d="M526 517v189q0 3 -3 3h-478q-1 0 -1 -10t1 -10h83q5 0 5 -4v-661q0 -4 -5 -4h-83q-1 0 -1 -10t1 -10h285q2 0 2 10t-2 10h-81q-7 0 -7 4v330h29q56 0 88 -31.5t32 -82.5q0 -2 9 -2t9 2v248q0 2 -9 2t-9 -2q0 -52 -32 -83t-88 -31h-29v311q0 4 7 4h93q43 0 74.5 -14
t51.5 -37.5t30 -54.5t10 -66q0 -2 9 -2t9 2z" />
    <glyph glyph-name="G" unicode="G" horiz-adv-x="651" 
d="M666 268q2 0 2 10t-2 10h-285q-2 0 -2 -10t2 -10h81q7 0 7 -3v-170q0 -42 -30.5 -67.5t-93.5 -25.5q-32 0 -61.5 7.5t-51.5 29.5q-19 18 -30.5 44t-18 63.5t-8.5 88.5t-2 119q0 128 18 204t55 111q23 21 51.5 29t59.5 8q36 0 66 -16.5t51 -44t32.5 -62.5t11.5 -72
q0 -2 8 -2t8 2v212q0 2 -8 2t-8 -2q-2 -8 -14.5 -16t-32.5 -8q-12 0 -23.5 4t-24.5 9.5t-29 9.5t-37 4q-66 0 -121 -30t-95 -81t-62.5 -118.5t-22.5 -142.5q0 -72 20 -139t57 -118.5t90.5 -82.5t121.5 -31q39 0 66.5 8.5t47.5 19t36 19t32 8.5q19 0 25 -12.5t6 -28.5
q0 -2 10 -2.5t10 1.5v269q0 3 6 3h82z" />
    <glyph glyph-name="H" unicode="H" horiz-adv-x="743" 
d="M697 0q2 0 2 10t-2 10h-81q-5 0 -5 4v661q0 4 5 4h81q2 0 2 10t-2 10h-275q-2 0 -2 -10t2 -10h73q5 0 5 -4v-306h-258v306q0 4 7 4h72q2 0 2 10t-2 10h-276q-1 0 -1 -10t1 -10h82q6 0 6 -4v-661q0 -4 -6 -4h-82q-1 0 -1 -10t1 -10h276q2 0 2 10t-2 10h-72q-7 0 -7 4v335
h258v-335q0 -4 -5 -4h-73q-2 0 -2 -10t2 -10h275z" />
    <glyph glyph-name="I" unicode="I" horiz-adv-x="375" 
d="M330 0q2 0 2 10t-2 10h-83q-5 0 -5 4v661q0 4 5 4h83q2 0 2 10t-2 10h-285q-1 0 -1 -10t1 -10h82q6 0 6 -4v-661q0 -4 -6 -4h-82q-1 0 -1 -10t1 -10h285z" />
    <glyph glyph-name="J" unicode="J" horiz-adv-x="466" 
d="M442 689q2 0 2 10t-2 10h-282q-2 0 -2 -10t2 -10h80q6 0 6 -4v-601q0 -82 -72 -82q-23 0 -41 17.5t-18 39.5q0 16 6 23.5t13.5 14.5t14 17t6.5 31q0 29 -18 49t-44 20q-25 0 -47 -21.5t-22 -59.5q0 -28 11.5 -55t32 -48t47.5 -34t59 -13q87 0 133.5 48t46.5 136v518
q0 4 7 4h81z" />
    <glyph glyph-name="K" unicode="K" horiz-adv-x="633" 
d="M707 0q2 0 2 10t-2 10h-95q-6 0 -9 3l-285 401l178 223l30 35t11 7h72q2 0 2 10t-2 10h-183q-2 0 -2 -10t2 -10h72q5 0 2.5 -6.5t-26.5 -35.5l-232 -290v328q0 4 7 4h80q2 0 2 10t-2 10h-284q-2 0 -2 -10t2 -10h82q6 0 6 -4v-661q0 -4 -6 -4h-82q-2 0 -2 -10t2 -10h284
q2 0 2 10t-2 10h-80q-7 0 -7 4v327l228 -328q3 -3 -3 -3h-83q-2 0 -2 -10t2 -10h323z" />
    <glyph glyph-name="L" unicode="L" horiz-adv-x="577" 
d="M550 3v218q0 2 -9 2q-8 0 -8 -2q0 -38 -10 -74.5t-33 -64.5t-59.5 -45t-88.5 -17h-93q-6 0 -6 4v661q0 4 6 4h81q2 0 2 10t-2 10h-285q-1 0 -1 -10t1 -10h83q5 0 5 -4v-661q0 -4 -5 -4h-83q-1 0 -1 -10t1 -10h502q3 0 3 3z" />
    <glyph glyph-name="M" unicode="M" horiz-adv-x="847" 
d="M812 0q2 0 2 10t-2 10h-82q-5 0 -5 4v661q0 4 5 4h82q2 0 2 10t-2 10h-192q-2 0 -6 -5t-7 -13l-168 -528l-190 528q-6 18 -13 18h-195q-1 0 -1 -10t1 -10h82q5 0 5 -4v-661q0 -4 -5 -4h-82q-1 0 -1 -10t1 -10h194q1 0 1 10t-1 10h-83q-4 0 -4 4v633l239 -670q1 -2 9 -2
t9 2l211 664v-627q0 -4 -5 -4h-82q-2 0 -2 -10t2 -10h283z" />
    <glyph glyph-name="N" unicode="N" horiz-adv-x="699" 
d="M673 689q2 0 2 10t-2 10h-193q-2 0 -2 -10t2 -10h82q6 0 6 -4v-492l-302 498q-8 11 -12 14.5t-9 3.5h-204q-2 0 -2 -10t2 -10h81q6 0 6 -4v-661q0 -4 -6 -4h-81q-2 0 -2 -10t2 -10h194q1 0 1 10t-1 10h-83q-4 0 -4 4v652l419 -689q2 -3 10.5 -2.5t8.5 2.5v698q0 4 5 4h82
z" />
    <glyph glyph-name="O" unicode="O" horiz-adv-x="715" 
d="M659 354q0 77 -23.5 145t-64.5 118.5t-96 79.5t-118 29q-66 0 -121 -30t-95 -81t-62.5 -118.5t-22.5 -142.5q0 -77 23.5 -144.5t64.5 -118t96 -79.5t117 -29q63 0 118 29t96 79.5t64.5 118t23.5 144.5zM542 354q0 -73 -4.5 -124.5t-13.5 -88t-22.5 -60.5t-30.5 -42
q-23 -22 -51.5 -29.5t-62.5 -7.5t-61.5 7.5t-50.5 29.5q-18 18 -31.5 42t-22.5 60.5t-13.5 88t-4.5 124.5q0 128 18.5 204t53.5 111q23 21 50.5 29t61.5 8t62.5 -8t51.5 -29q35 -35 53 -111t18 -204z" />
    <glyph glyph-name="P" unicode="P" horiz-adv-x="615" 
d="M577 487q0 46 -17 86.5t-49.5 70.5t-80.5 47.5t-111 17.5h-274q-1 0 -1 -10t1 -10h83q5 0 5 -4v-661q0 -4 -5 -4h-83q-1 0 -1 -10t1 -10h285q2 0 2 10t-2 10h-81q-6 0 -6 4v271q19 -5 41.5 -8.5t51.5 -3.5q55 0 99.5 15t76 42t48.5 64.5t17 82.5zM469 487
q0 -54 -8.5 -89.5t-25.5 -56.5t-41.5 -29.5t-57.5 -8.5q-29 0 -51 3t-42 13v366q0 4 6 4h70q33 0 60.5 -11t47.5 -35.5t31 -63t11 -92.5z" />
    <glyph glyph-name="Q" unicode="Q" horiz-adv-x="715" 
d="M659 354q0 77 -23.5 145t-64.5 118.5t-96 79.5t-118 29q-66 0 -121 -30t-95 -81t-62.5 -118.5t-22.5 -142.5q0 -77 23.5 -144.5t64.5 -118t96 -80t117 -29.5q4 0 2 -1t2 0l-36 -13.5t-40 -15.5t-39.5 -15.5t-33.5 -14.5q-9 -2 -15 -9t-6 -15q0 -13 19 -13q5 0 13 7t19 7
q33 0 49 -13t28.5 -32t27.5 -41.5t45 -41.5t82 -32t139 -13q2 0 2 10t-2 10q-47 0 -71.5 13t-40.5 32t-30 41.5t-39 41.5t-68.5 32t-118.5 13q23 10 57 22.5t70 26t69 28t55 28.5q36 22 65.5 50t51.5 66.5t34 90.5t12 123zM542 354q0 -73 -4.5 -124.5t-13.5 -88t-22.5 -60.5
t-31.5 -42q-23 -22 -51 -29.5t-62 -7.5q-35 0 -62 7.5t-50 29.5q-18 18 -31 42t-22 60.5t-13.5 88t-4.5 124.5q0 128 18 204t53 111q23 21 50 29t62 8q34 0 62 -8t51 -29q35 -35 53.5 -111t18.5 -204z" />
    <glyph glyph-name="R" unicode="R" horiz-adv-x="653" 
d="M695 18q2 1 -3.5 8t-6.5 6q-11 -11 -21 -15.5t-28 -4.5q-26 0 -41.5 17.5t-15.5 55.5v90q0 42 -13.5 77.5t-40 61.5t-66.5 40.5t-93 14.5q36 0 69.5 13t59 35.5t41 52.5t15.5 65q0 37 -15.5 68.5t-44 55t-69.5 37t-93 13.5h-284q-2 0 -2 -10t2 -10h82q6 0 6 -4v-661
q0 -4 -6 -4h-82q-2 0 -2 -10t2 -10h300v20h-96q-7 0 -7 4v335h81q31 0 57.5 -6t46 -19.5t30 -36t10.5 -55.5v-65q0 -54 11.5 -91t31 -60t45.5 -33t55 -10q30 0 50.5 10t34.5 25zM441 531q0 -48 -5.5 -77.5t-19 -46t-36.5 -22.5t-57 -6h-81v306q0 4 7 4h58q32 0 57 -7t42 -25
t26 -48.5t9 -77.5z" />
    <glyph glyph-name="S" unicode="S" horiz-adv-x="531" 
d="M495 207q0 46 -13.5 78.5t-39 57.5t-61.5 43.5t-81 35.5q-44 17 -76 33.5t-53 35t-31 40t-10 48.5q0 25 9.5 48.5t26.5 40.5t40 27.5t50 10.5q29 0 55.5 -11t47 -31t32.5 -48.5t12 -64.5q0 -2 9 -2t9 2v172q0 2 -9 2t-9 -2q-2 -8 -9.5 -16t-28.5 -8q-13 0 -22.5 4
t-21 9.5t-27 9.5t-39.5 4q-35 0 -66.5 -17t-55 -45.5t-37.5 -67t-14 -81.5q0 -44 12 -76.5t33 -56t49 -40.5t61 -30q53 -21 91.5 -37t63 -34t36 -42t11.5 -60q0 -24 -10 -48.5t-30.5 -44t-50.5 -32t-70 -12.5q-45 0 -81 21.5t-62 53.5t-40 69t-14 67q0 2 -9 2q-8 0 -8 -2
v-227q0 -2 8 -2q9 0 9 2q3 14 17 26t34 12q12 0 25.5 -6.5t31.5 -14t40 -14t50 -6.5q55 0 95.5 22t67.5 55t40 72.5t13 74.5z" />
    <glyph glyph-name="T" unicode="T" horiz-adv-x="604" 
d="M576 487v219q0 3 -2 3h-542q-3 0 -3 -3v-219q0 -2 8 -2q9 0 9 2q0 43 10 80t32 64t57 42.5t86 15.5h9q5 0 5 -4v-661q0 -4 -5 -4h-82q-2 0 -2 -10t2 -10h283q2 0 2 10t-2 10h-81q-6 0 -6 4v661q0 4 6 4h8q51 0 87 -15.5t59 -42.5t34 -64t11 -80q0 -2 8 -2q9 0 9 2z" />
    <glyph glyph-name="U" unicode="U" horiz-adv-x="683" 
d="M664 689q2 0 2 10t-2 10h-184q-2 0 -2 -10t2 -10h72q5 0 5 -4v-475q0 -44 -10.5 -81t-32.5 -63t-56 -40.5t-81 -14.5q-76 0 -115 45.5t-39 148.5v480q0 4 7 4h81q2 0 2 10t-2 10h-283q-2 0 -2 -10t2 -10h82q5 0 5 -4v-480q0 -56 17.5 -97.5t49 -69.5t75.5 -41.5t96 -13.5
q58 0 100.5 16t70 45.5t40.5 71.5t13 94v475q0 4 4 4h83z" />
    <glyph glyph-name="V" unicode="V" horiz-adv-x="668" 
d="M688 689q2 0 2 10t-2 10h-196q-1 0 -1 -10t1 -10h82q5 0 4.5 -6.5t-10.5 -35.5l-164 -507l-212 545q-1 4 5 4h92q2 0 2 10t-2 10h-311q-2 0 -2 -10t2 -10h88q7 0 8 -4l280 -700q1 -2 10 -2t9 2l214 662q10 28 13 35t9 7h79z" />
    <glyph glyph-name="W" unicode="W" horiz-adv-x="966" 
d="M1008 689q2 0 2 10t-2 10h-196q-2 0 -2 -10t2 -10h81q5 0 4.5 -6t-9.5 -31l-156 -502l-177 535q0 4 5 4h93q2 0 2 10t-2 10h-298q-2 0 -2 -10t2 -10h80q-1 0 2 -1t4 -3l51 -152l-118 -381l-191 533q-1 4 4 4h78q3 0 3 10t-3 10h-297q-1 0 -1 -10t1 -10h88q7 0 7 -4
l255 -700q2 -2 10 -2.5t10 2.5l164 522l176 -522q1 -2 9 -2q9 0 10 2l209 662q8 29 12.5 35.5t9.5 6.5h80z" />
    <glyph glyph-name="X" unicode="X" horiz-adv-x="655" 
d="M676 0q2 0 2 10t-2 10h-92q-5 0 -8 3l-203 388l131 236q16 28 22 35t8 7h89q2 0 2 10t-2 10h-197q-2 0 -2 -10t2 -10h72q8 0 6 -6t-19 -36l-122 -217l-132 255q0 4 4 4h86q2 0 2 10t-2 10h-310q-2 0 -2 -10t2 -10h92q8 0 8 -4l185 -352l-150 -271q-17 -29 -23.5 -35.5
t-9.5 -6.5h-86q-2 0 -2 -10t2 -10h196q2 0 2 10t-2 10h-72q-8 0 -5 6.5t19 35.5l140 251l151 -290q3 -3 -3 -3h-86q-2 0 -2 -10t2 -10h309z" />
    <glyph glyph-name="Y" unicode="Y" horiz-adv-x="619" 
d="M633 689q2 0 2 10t-2 10h-197q-2 0 -2 -10t2 -10h85q5 0 3.5 -6.5t-14.5 -35.5l-133 -306l-162 344q0 4 3 4h91q2 0 2 10t-2 10h-313q-2 0 -2 -10t2 -10h92q5 0 7 -4l178 -376v-285q0 -4 -4 -4h-83q-2 0 -2 -10t2 -10h284q1 0 1 10t-1 10h-82q-5 0 -5 4v284l141 328
q8 18 13 29t8.5 16t5.5 6.5t4 1.5h78z" />
    <glyph glyph-name="Z" unicode="Z" horiz-adv-x="606" 
d="M548 3v223q0 2 -9 2q-8 0 -8 -2q0 -43 -11 -80.5t-33 -65.5t-56 -44t-80 -16h-160q-7 0 -4 3l358 678q4 8 -1 8h-448q-3 0 -3 -3v-219q0 -2 9 -2q10 0 10 2q0 43 10 80t31 64t54 42.5t79 15.5h130q5 0 3 -4l-357 -677q-4 -8 1 -8h483q2 0 2 3z" />
    <glyph glyph-name="bracketleft" unicode="[" horiz-adv-x="242" 
d="M267 -244q2 0 2 10t-2 10h-94q-6 0 -6 3v935q0 4 6 4h94q2 0 2 9q0 10 -2 10h-175q-5 0 -5 -3v-974q0 -4 5 -4h175z" />
    <glyph glyph-name="backslash" unicode="\" horiz-adv-x="346" 
d="M285 -15l-290 777q-1 2 -10 -2t-8 -6l292 -777q0 -1 2.5 0t5.5 2.5t5.5 3t2.5 2.5z" />
    <glyph glyph-name="bracketright" unicode="]" horiz-adv-x="255" 
d="M167 -240v974q0 3 -2 3h-175q-1 0 -1 -10q0 -9 1 -9h92q5 0 5 -4v-935q0 -3 -5 -3h-92q-1 0 -1 -10t1 -10h175q2 0 2 4z" />
    <glyph glyph-name="asciicircum" unicode="^" horiz-adv-x="317" 
d="M294 529q-42 51 -72.5 88t-53.5 69q-1 3 -4 0q-21 -32 -51.5 -69t-73.5 -88q-1 0 3.5 -5.5t5.5 -3.5l114 92l126 -92q2 -2 5 3.5t1 5.5z" />
    <glyph glyph-name="underscore" unicode="_" horiz-adv-x="537" 
d="M495 0q2 0 2 10t-2 10h-453q-2 0 -2 -10t2 -10h453z" />
    <glyph glyph-name="grave" unicode="`" horiz-adv-x="342" 
d="M301 531q-53 12 -81 38.5t-45 53t-29.5 46.5t-33.5 20q-15 0 -23.5 -9.5t-8.5 -22.5q0 -15 8.5 -33t32.5 -37.5t67 -39t112 -35.5q1 0 1.5 2.5t0.5 6.5v7t-1 3z" />
    <glyph glyph-name="a" unicode="a" horiz-adv-x="440" 
d="M435 30q1 2 -5 7.5t-7 3.5q-2 -8 -10 -14.5t-21 -6.5q-9 0 -15.5 8t-6.5 27v199q0 94 -42 137.5t-120 43.5q-29 0 -52 -7.5t-38.5 -19t-23.5 -25.5t-8 -27q0 -16 9 -30.5t32 -14.5t33.5 11t10.5 25q0 12 -4.5 18.5t-4.5 19.5q0 17 11.5 23.5t34.5 6.5q14 0 27 -2
t23.5 -11t17 -26t6.5 -47v-76q0 -8 -10 -13t-26 -8t-36.5 -5t-40.5 -4q-15 -2 -37.5 -7t-43 -18.5t-35.5 -38t-15 -63.5q0 -30 12 -50t31 -32t43.5 -17.5t49.5 -5.5q21 0 39 6.5t32.5 17.5t24.5 24.5t16 28.5q5 -31 26 -54t54 -23q29 0 46.5 12.5t22.5 26.5zM282 123
q0 -18 -6 -37.5t-18 -35t-29 -25.5t-38 -10q-34 0 -50.5 21t-16.5 60q0 34 5 54.5t14 31.5t20.5 15t24.5 7q22 4 49.5 6.5t44.5 13.5v-101z" />
    <glyph glyph-name="b" unicode="b" horiz-adv-x="522" 
d="M479 210q0 42 -16.5 82t-44.5 72t-66.5 51.5t-81.5 19.5q-30 0 -53 -10.5t-40 -30.5v338q0 3 -3 3h-147q-2 0 -2 -10t2 -10h56q7 0 7 -4v-687q0 -4 -7 -4h-56q-2 0 -2 -10t2 -10h147q3 0 3 3v37q17 -20 47.5 -34.5t59.5 -14.5q43 0 79 18.5t62 49.5t40 70.5t14 80.5z
M389 210q0 -72 -11 -115t-35 -64q-13 -11 -26 -15.5t-33 -4.5q-29 0 -61 16t-46 51v281q4 13 14 23.5t23 17.5t27.5 11t28.5 4q20 0 40 -4.5t33 -16.5q24 -20 35 -66t11 -118z" />
    <glyph glyph-name="c" unicode="c" horiz-adv-x="444" 
d="M420 86q2 2 -2.5 7t-5.5 4q-26 -38 -65 -62t-93 -24q-20 0 -39.5 4.5t-33.5 17.5q-12 10 -21 24t-14.5 34.5t-8.5 50t-3 71.5t3 71.5t8.5 50.5t14.5 35t21 24q14 12 33.5 16.5t39.5 4.5q37 0 51.5 -10.5t14.5 -37.5q0 -11 -1.5 -17t-3.5 -11t-3.5 -10t-1.5 -14
q0 -15 11.5 -26.5t31.5 -11.5t32 11t12 34q0 18 -9.5 38t-28 36.5t-45 27.5t-60.5 11q-44 0 -82 -17.5t-67 -47.5t-45.5 -70.5t-16.5 -86.5t16.5 -86.5t45.5 -70.5t67 -47.5t82 -17.5q53 0 95.5 26t70.5 69z" />
    <glyph glyph-name="d" unicode="d" horiz-adv-x="516" 
d="M496 0q2 0 2 10t-2 10h-55q-8 0 -8 4v708q0 1 -0.5 2l-0.5 1h-147q-2 0 -2 -10t2 -10h55q6 0 6 -4v-317q-17 20 -40 30.5t-53 10.5q-43 0 -81.5 -19.5t-67 -51.5t-45 -72t-16.5 -82q0 -41 14.5 -80.5t40.5 -70.5t62 -49.5t80 -18.5q24 0 42.5 6.5t32 15.5t21.5 18.5
t10 15.5v-44q0 -3 3 -3h147zM346 98q0 -14 -5.5 -29.5t-18 -28.5t-32.5 -21t-50 -8q-21 0 -33 4.5t-26 15.5q-24 21 -35.5 64t-11.5 115t11.5 118t35.5 66q14 12 33 16.5t39 4.5q28 0 56.5 -15t36.5 -41v-261z" />
    <glyph glyph-name="e" unicode="e" horiz-adv-x="464" 
d="M428 239q0 26 -10.5 60t-32 64t-55.5 51t-81 21q-44 0 -81.5 -17.5t-65.5 -47.5t-43.5 -70.5t-15.5 -86.5t15.5 -86.5t43.5 -70.5t65.5 -47.5t81.5 -17.5q54 0 98 26.5t72 69.5q1 2 -4 6.5t-6 3.5q-26 -38 -66 -62t-94 -24q-20 0 -38.5 4.5t-33.5 17.5q-12 10 -20 24
t-12.5 34.5t-6.5 50t-2 71.5v12t-1 11h290q3 0 3 3zM341 255h-206q1 31 4 53t8 38t12 27.5t18 20.5q15 12 33.5 16.5t38.5 4.5q16 0 30.5 -4.5t27.5 -16.5q18 -18 25.5 -48t8.5 -91z" />
    <glyph glyph-name="f" unicode="f" horiz-adv-x="317" 
d="M366 654q0 17 -7 33t-19.5 29t-28.5 20.5t-34 7.5q-38 0 -68.5 -15t-52 -50t-33.5 -91.5t-12 -138.5v-19q0 -4 -6 -4h-68q-2 0 -2 -10t2 -10h68q6 0 6 -4v-378q0 -4 -6 -4h-55q-2 0 -2 -10t2 -10h212q2 0 2 10t-2 10h-57q-6 0 -6 4v378q0 4 6 4h84q2 0 2 10t-2 10h-84
q-6 0 -6 4v174q0 68 18 93t41 25q32 0 32 -33q0 -10 -2 -15.5t-4.5 -10t-4.5 -9t-2 -13.5q0 -14 11 -24.5t34 -10.5q20 0 32 14.5t12 33.5z" />
    <glyph glyph-name="g" unicode="g" horiz-adv-x="491" 
d="M505 384q0 18 -11.5 34.5t-37.5 16.5q-30 0 -50.5 -17t-34.5 -43q-22 28 -54.5 44t-73.5 16q-35 0 -65 -12.5t-52.5 -34.5t-35.5 -51.5t-13 -62.5q0 -28 10 -53.5t27 -45.5q-35 -23 -57.5 -50.5t-22.5 -72.5q0 -38 24.5 -62.5t65.5 -35.5q-22 -6 -41 -19.5t-33 -31.5
t-22 -39t-8 -42q0 -28 17 -53t47 -44t72 -30t93 -11q40 0 83 12t78.5 36t58.5 59.5t23 81.5q0 84 -50.5 120t-149.5 36h-117q-43 0 -60.5 15t-17.5 53q0 25 9 40t20 23q16 -17 48 -31.5t69 -14.5q34 0 64.5 12.5t52.5 34.5t35 51t13 62q0 28 -6 48.5t-22 40.5q8 17 15 26
t14 12.5t13 3.5h12q7 0 12 -4.5t5 -12.5q0 -7 -4 -10.5t-4 -13.5q0 -9 8 -16.5t24 -7.5q12 0 21 11t9 33zM326 275q0 -59 -7 -85.5t-23 -40.5q-11 -10 -24 -12.5t-29 -2.5q-15 0 -28 2.5t-24 12.5q-8 7 -14 16.5t-10 24t-6 35.5t-2 50q0 51 7.5 82t24.5 45q11 9 24 11t28 2
q16 0 29 -2t24 -11q30 -27 30 -127zM442 -169q0 -29 -16 -52.5t-43 -40t-62 -25.5t-72 -9q-39 0 -69 5.5t-50.5 20t-31 39.5t-10.5 65q0 46 13.5 71.5t44.5 42.5h3h7q5 0 8 0.5l3 0.5h161q58 0 86 -34.5t28 -83.5z" />
    <glyph glyph-name="h" unicode="h" horiz-adv-x="535" 
d="M518 0q2 0 2 10t-2 10h-55q-5 0 -5 4v244q0 80 -44.5 123.5t-122.5 43.5q-35 0 -67.5 -18t-46.5 -60v375q0 3 -3 3h-147q-2 0 -2 -10t2 -10h56q7 0 7 -4v-687q0 -4 -7 -4h-56q-2 0 -2 -10t2 -10h211q2 0 2 10t-2 10h-55q-6 0 -6 4v292q17 52 43 75.5t71 23.5
q13 0 26.5 -6t24.5 -18.5t18.5 -32t7.5 -45.5v-289q0 -4 -5 -4h-55q-2 0 -2 -10t2 -10h210z" />
    <glyph glyph-name="i" unicode="i" horiz-adv-x="281" 
d="M203 666q0 25 -16.5 42.5t-39.5 17.5q-24 0 -40.5 -17.5t-16.5 -42.5t16.5 -43t40.5 -18q23 0 39.5 18t16.5 43zM252 0q2 0 2 10t-2 10h-56q-6 0 -6 4v399q0 3 -3 3h-147q-2 0 -2 -10t2 -10h55q7 0 7 -4v-378q0 -4 -7 -4h-55q-2 0 -2 -10t2 -10h212z" />
    <glyph glyph-name="j" unicode="j" horiz-adv-x="271" 
d="M203 666q0 25 -16.5 42.5t-39.5 17.5q-24 0 -40.5 -17.5t-16.5 -42.5t16.5 -43t40.5 -18q23 0 39.5 18t16.5 43zM190 -23v447q0 2 -3 2h-147q-2 0 -2 -9t2 -9h56q6 0 6 -5v-580q0 -69 -15 -93.5t-37 -24.5q-16 0 -24.5 5.5t-8.5 21.5q0 10 2 15.5t5 10t5 9t2 13.5
q0 14 -10.5 24.5t-33.5 10.5q-20 0 -33 -14t-13 -34q0 -16 7.5 -31t20 -27t28 -19t32.5 -7q38 0 68 15t50.5 49.5t31.5 90.5t11 139z" />
    <glyph glyph-name="k" unicode="k" horiz-adv-x="496" 
d="M532 0q2 0 2 10t-2 10h-75q-7 0 -10 4l-203 249l102 91q15 15 25 23t16 12.5t9 5.5t6 1h54q2 0 2 10t-2 10h-149q-2 0 -2 -10t2 -10h54q2 0 2.5 -1t-3 -5.5t-12.5 -12.5t-25 -23l-144 -129v497q0 3 -3 3h-147q-2 0 -2 -10t2 -10h55q8 0 8 -4v-687q0 -4 -8 -4h-55
q-2 0 -2 -10t2 -10h210q3 0 3 10t-3 10h-54q-6 0 -6 4v205l165 -205q3 -4 -5 -4h-42q-2 0 -2 -10t2 -10h235z" />
    <glyph glyph-name="l" unicode="l" horiz-adv-x="259" 
d="M240 0q2 0 2 10t-2 10h-55q-7 0 -7 4v708q0 3 -3 3h-147q-2 0 -2 -10t2 -10h55q7 0 7 -4v-687q0 -4 -7 -4h-55q-2 0 -2 -10t2 -10h212z" />
    <glyph glyph-name="m" unicode="m" horiz-adv-x="820" 
d="M805 0q1 0 1 10t-1 10h-57q-6 0 -6 4v265q0 40 -11.5 67.5t-33 45t-52 25.5t-68.5 8q-35 0 -68.5 -18t-51.5 -62q-14 36 -52.5 58t-107.5 22q-35 0 -67.5 -18t-46.5 -60v66q0 3 -3 3h-147q-2 0 -2 -10t2 -10h56q7 0 7 -4v-378q0 -4 -7 -4h-56q-2 0 -2 -10t2 -10h211
q2 0 2 10t-2 10h-55q-6 0 -6 4v292q17 52 43 75.5t71 23.5q13 0 26.5 -6t25 -18.5t18.5 -32t7 -45.5v-289q0 -4 -5 -4h-55q-2 0 -2 -10t2 -10h210q2 0 2 10t-2 10h-55q-6 0 -6 4v274q0 19 6.5 40t20 38t35.5 28t52 11q12 0 26 -6t25 -18.5t18.5 -32t7.5 -45.5v-289
q0 -4 -7 -4h-55v-20h213z" />
    <glyph glyph-name="n" unicode="n" horiz-adv-x="541" 
d="M524 0q2 0 2 10t-2 10h-55q-6 0 -6 4v244q0 80 -44 123.5t-122 43.5q-17 0 -34.5 -4.5t-33 -13.5t-28 -24t-19.5 -36v66q0 3 -3 3h-146q-2 0 -2 -10t2 -10h55q8 0 8 -4v-378q0 -4 -8 -4h-55q-2 0 -2 -10t2 -10h211q2 0 2 10t-2 10h-55q-7 0 -7 4v292q17 52 43.5 75.5
t71.5 23.5q13 0 26.5 -6t25 -18.5t18.5 -32t7 -45.5v-289q0 -4 -5 -4h-55q-2 0 -2 -10t2 -10h210z" />
    <glyph glyph-name="o" unicode="o" horiz-adv-x="507" 
d="M463 213q0 46 -16.5 86.5t-45 70.5t-67 47.5t-82.5 17.5q-43 0 -81 -17.5t-66.5 -47.5t-45 -70.5t-16.5 -86.5t16.5 -86.5t45 -70.5t66.5 -47.5t81 -17.5q44 0 82.5 17.5t67 47.5t45 70.5t16.5 86.5zM373 213q0 -42 -3 -71.5t-9 -50t-15 -34.5t-21 -24q-14 -13 -32 -17.5
t-41 -4.5q-21 0 -39.5 4.5t-32.5 17.5q-12 10 -21 24t-14.5 34.5t-8.5 50t-3 71.5q0 73 11.5 117t35.5 64q14 12 32.5 16.5t39.5 4.5q23 0 41 -4.5t32 -16.5q25 -20 36.5 -64t11.5 -117z" />
    <glyph glyph-name="p" unicode="p" horiz-adv-x="522" 
d="M479 210q0 42 -16.5 82t-45 71.5t-66.5 51t-81 19.5q-29 0 -54.5 -14t-38.5 -31v34q0 3 -3 3h-147q-2 0 -2 -10t2 -10h55q8 0 8 -4v-688q0 -3 -8 -3h-55q-2 0 -2 -10t2 -10h211q2 0 2 10t-2 10h-54q-7 0 -7 3v325q17 -19 47.5 -33.5t59.5 -14.5q44 0 80 18.5t61.5 49.5
t39.5 70t14 81zM390 210q0 -72 -12 -115.5t-35 -63.5q-14 -13 -26.5 -17.5t-32.5 -4.5q-29 0 -61 17t-46 51v282q4 13 14 23.5t23 17.5t27.5 10.5t28.5 3.5q20 0 39.5 -4.5t33.5 -16.5q47 -38 47 -183z" />
    <glyph glyph-name="q" unicode="q" horiz-adv-x="500" 
d="M495 -309q2 0 2 9t-2 9h-55q-7 0 -7 5v688q0 4 7 4h55q2 0 2 9q0 10 -2 10h-146q-3 0 -3 -2v-34q-17 22 -42 33.5t-50 11.5q-44 0 -82 -19.5t-67 -51t-45.5 -71.5t-16.5 -82t14.5 -81t40.5 -70t62 -49.5t80 -18.5q41 0 66.5 14t39.5 37v-328q0 -5 -6 -5h-55q-2 0 -2 -9
t2 -9h210zM346 93q0 -15 -6 -30t-18 -27t-30 -19.5t-42 -7.5q-20 0 -37.5 4.5t-31.5 17.5q-24 20 -35.5 63.5t-11.5 115.5q0 146 47 183q14 12 33.5 16.5t39.5 4.5q13 0 28 -3.5t28 -10.5t22.5 -17.5t13.5 -23.5v-266z" />
    <glyph glyph-name="r" unicode="r" horiz-adv-x="377" 
d="M360 357q0 31 -19.5 54.5t-57.5 23.5q-42 0 -67 -17t-39 -61v66q0 3 -2 3h-147q-2 0 -2 -10t2 -10h55q7 0 7 -4v-378q0 -4 -7 -4h-55q-2 0 -2 -10t2 -10h211q2 0 2 10t-2 10h-55q-7 0 -7 4v282q14 56 32 78t46 22q11 0 18.5 -7t7.5 -20q0 -14 -6.5 -20.5t-6.5 -23.5
q0 -16 12.5 -26.5t34.5 -10.5q19 0 32 14.5t13 44.5z" />
    <glyph glyph-name="s" unicode="s" horiz-adv-x="378" 
d="M349 133q0 27 -9.5 47.5t-26 35.5t-39.5 26t-51 19t-49 15.5t-35.5 16.5t-21.5 21.5t-7 31.5q0 29 20 49t58 20q18 0 36 -8.5t33 -22.5t24.5 -33.5t9.5 -40.5q0 -2 9 -2q10 0 10 2v127q0 2 -10 2q-9 0 -9 -2q-1 -3 -6 -10.5t-15 -7.5q-15 0 -23 2.5t-15.5 5.5t-16.5 5.5
t-27 2.5q-24 0 -45.5 -9t-38 -26t-26.5 -41t-10 -55q0 -49 32 -76t85 -43q27 -9 48.5 -16t36.5 -16.5t23 -22.5t8 -33q0 -45 -26.5 -65.5t-68.5 -20.5q-28 0 -52.5 11.5t-42.5 31t-28 46t-9 55.5q0 2 -9 2t-9 -2l-5 -156q0 -2 9 -2t9 2q2 5 11.5 12t23.5 7q10 0 19 -4
t20 -9.5t26 -9.5t37 -4q72 0 107.5 40.5t35.5 101.5z" />
    <glyph glyph-name="t" unicode="t" horiz-adv-x="305" 
d="M286 79q0 2 -5.5 5.5t-6.5 2.5q-8 -29 -23.5 -47t-36.5 -18q-28 0 -28 29v351q0 4 6 4h84q1 0 1 10t-1 10h-84q-6 0 -6 4v170q0 1 -9 1.5t-9 -1.5q-8 -22 -23 -43t-47 -26v-101q0 -4 -7 -4h-69q-2 0 -2 -10t2 -10h69q7 0 7 -4v-313q0 -98 86 -98q43 0 67.5 25t34.5 63z
" />
    <glyph glyph-name="u" unicode="u" horiz-adv-x="531" 
d="M511 0q2 0 2 10t-2 10h-55q-7 0 -7 4v399q0 3 -3 3h-146q-2 0 -2 -10t2 -10h55q7 0 7 -4v-292q-17 -52 -43 -75.5t-72 -23.5q-12 0 -26 6t-25.5 18.5t-19 31.5t-7.5 46v310q0 3 -2 3h-148q-1 0 -1 -10t1 -10h56q7 0 7 -4v-251q0 -80 44.5 -120t120.5 -40q17 0 34.5 4.5
t33 13.5t28 24t19.5 36v-66q0 -3 3 -3h146z" />
    <glyph glyph-name="v" unicode="v" horiz-adv-x="454" 
d="M478 406q3 0 3 10t-3 10h-149q-2 0 -2 -10t2 -10h56q5 0 4.5 -6.5t-11.5 -35.5l-102 -270l-134 310q-2 2 6 2h59q3 0 3 10t-3 10h-221q-2 0 -2 -10t2 -10h55q6 0 8 -2l189 -412q1 -2 9 -2q9 0 10 2l139 372q10 30 14.5 36t10.5 6h57z" />
    <glyph glyph-name="w" unicode="w" horiz-adv-x="709" 
d="M742 406q3 0 3 10t-3 10h-150q-2 0 -2 -10t2 -10h57q5 0 5 -7q0 -6 -10 -35l-94 -259l-134 299q0 2 7 2h55q2 0 2 10t-2 10h-207q-2 0 -2 -10t2 -10h48q6 0 8 -2l24 -56l-86 -244l-133 300q-2 2 4 2h57q2 0 2 10t-2 10h-214q-2 0 -2 -10t2 -10h55q6 0 8 -2l182 -412
q1 -2 9 -2q9 0 10 2l118 333l148 -333q0 -1 3.5 -1.5t6.5 -0.5q4 0 6.5 0.5t2.5 1.5l133 372q10 30 14 36t9 6h58z" />
    <glyph glyph-name="x" unicode="x" horiz-adv-x="479" 
d="M495 0q2 0 2 10t-2 10h-60q-9 0 -11 3l-146 223l91 118q10 15 17 23.5t11 12.5t6.5 5t4.5 1h52q1 0 1 10t-1 10h-144q-2 0 -2 -10t2 -10h52q5 0 3 -6.5t-22 -35.5l-80 -103l-96 143q-2 2 5 2h64q1 0 1 10t-1 10h-236q-1 0 -1 -10t1 -10h59q9 0 9 -2l136 -204l-105 -138
q-20 -29 -27.5 -35.5t-13.5 -6.5h-50q-2 0 -2 -10t2 -10h143q2 0 2 10t-2 10h-53q-2 0 -3 1t1 5.5t8 12.5t17 23l94 122l106 -161q2 -3 -5 -3h-55q-2 0 -2 -10t2 -10h228z" />
    <glyph glyph-name="y" unicode="y" horiz-adv-x="441" 
d="M471 406q3 0 3 10t-3 10h-150q-2 0 -2 -10t2 -10h57q5 0 4.5 -6.5t-11.5 -35.5l-101 -271l-135 309q-1 4 4 4h61q2 0 2 10t-2 10h-221q-2 0 -2 -10t2 -10h54q7 0 8 -4l191 -413l-85 -228q-8 -20 -16 -31t-15.5 -16.5t-14.5 -7t-12 -1.5q-11 0 -16 6t-5 14t3 13.5t7 10.5
t7 11t3 15q0 15 -10.5 26.5t-30.5 11.5q-21 0 -34.5 -17t-13.5 -41q0 -28 20.5 -50.5t51.5 -22.5q30 0 53.5 18t40.5 63l223 601q10 28 14.5 35t11.5 7h57z" />
    <glyph glyph-name="z" unicode="z" horiz-adv-x="427" 
d="M391 3v140q0 2 -9 2t-9 -2q0 -30 -5.5 -53t-20.5 -38.5t-41 -23.5t-66 -8h-98q-7 0 -5 3l248 396q2 7 -1 7h-316q-3 0 -3 -3v-126q0 -2 9 -2t9 2q0 28 5 49t18.5 34t36.5 19.5t59 6.5h76q8 0 4 -2l-247 -397q-5 -7 3 -7h350h3v3z" />
    <glyph glyph-name="braceleft" unicode="{" horiz-adv-x="266" 
d="M257 -244q2 0 2 10t-2 10h-11q-24 0 -42 6.5t-30.5 23t-18.5 45t-6 72.5q0 27 5.5 58.5t11.5 63.5t11.5 64t5.5 60q0 11 -1 23t-5 23t-12 19.5t-21 12.5q26 8 32.5 31t6.5 46q0 28 -5.5 60t-11.5 64.5t-11.5 63.5t-5.5 58q0 44 6 72.5t18.5 45.5t30.5 23.5t42 6.5h11
q2 0 2 9q0 10 -2 10h-11q-41 0 -71.5 -15.5t-51 -43.5t-31 -66t-10.5 -84q0 -39 10 -74.5t21.5 -67t21.5 -58.5t10 -48q0 -11 -3.5 -15t-11.5 -7q-4 -1 -9 -1q-8 0 -13 1t-10 1q-4 0 -6 -5t-2 -7t2 -7.5t6 -5.5q5 0 10 2t13 2q2 0 4 -1t5 -2q8 -2 11.5 -6.5t3.5 -15.5
q0 -21 -10 -48t-21.5 -58.5t-21.5 -67t-10 -74.5q0 -46 10.5 -84.5t31 -66t51 -43t71.5 -15.5h11z" />
    <glyph glyph-name="bar" unicode="|" horiz-adv-x="160" 
d="M91 -23v778q0 2 -10 2q-9 0 -9 -2v-778q0 -2 9 -2q10 0 10 2z" />
    <glyph glyph-name="braceright" unicode="}" horiz-adv-x="266" 
d="M184 -35q0 39 -9.5 74.5t-21.5 67t-21.5 58.5t-9.5 48q0 11 3.5 15.5t10.5 6.5q4 1 6 2t4 1q8 0 12.5 -2t9.5 -2q4 0 6 5.5t2 7.5t-2 7t-6 5q-5 0 -9.5 -1t-12.5 -1q-5 0 -10 1q-7 3 -10.5 7t-3.5 15q0 21 9.5 48t21.5 58.5t21.5 67t9.5 74.5q0 46 -10.5 84t-31 66
t-51.5 43.5t-71 15.5h-12q-2 0 -2 -10q0 -9 2 -9h12q24 0 42 -6.5t30.5 -23.5t19 -45.5t6.5 -72.5q0 -27 -5.5 -58t-12 -63.5t-12 -64.5t-5.5 -60q0 -23 7 -46t34 -31q-14 -4 -22 -12.5t-12 -19.5t-5.5 -23t-1.5 -23q0 -28 5.5 -60t12 -64t12 -63.5t5.5 -58.5
q0 -44 -6.5 -72.5t-19 -45t-30.5 -23t-42 -6.5h-12q-2 0 -2 -10t2 -10h12q40 0 71 15.5t51.5 43t31 66t10.5 84.5z" />
    <glyph glyph-name="asciitilde" unicode="~" horiz-adv-x="390" 
d="M363 414q0 2 -9 2t-9 -2q0 -30 -10 -43t-38 -13q-17 0 -34.5 7t-37.5 16t-42 16t-47 7q-48 0 -79.5 -31t-31.5 -79q0 -2 9 -2q10 0 10 2q0 30 9.5 43t36.5 13q17 0 35 -7t38 -15.5t42 -15.5t48 -7q23 0 43 8t35 22.5t23.5 34.5t8.5 44z" />
    <glyph glyph-name="exclamdown" unicode="&#xa1;" horiz-adv-x="211" 
d="M158 353q0 23 -14.5 38.5t-34.5 15.5q-21 0 -36 -15.5t-15 -38.5q0 -22 15 -38t36 -16q20 0 34.5 16t14.5 38zM165 -255q0 33 -7.5 85.5t-16 115.5t-16 132t-7.5 135q0 2 -10 2q-9 0 -9 -2q0 -66 -7.5 -135t-16.5 -132l-16.5 -115.5t-7.5 -85.5q0 -44 16 -60.5t42 -16.5
q25 0 40.5 16.5t15.5 60.5z" />
    <glyph glyph-name="cent" unicode="&#xa2;" horiz-adv-x="458" 
d="M428 86q2 2 -2.5 7t-5.5 4q-26 -39 -65.5 -62.5t-93.5 -23.5v405q37 1 52 -10.5t15 -38.5q0 -11 -1.5 -17t-3.5 -11t-3.5 -10t-1.5 -14q0 -15 11.5 -26t31.5 -11t32 10.5t12 32.5q0 18 -9.5 38.5t-27.5 37t-45 27.5t-62 11v69q0 2 -10 2q-9 0 -9 -2v-70q-40 -4 -75 -22.5
t-60.5 -48.5t-40.5 -68.5t-15 -81.5q0 -44 15 -82t40.5 -67.5t60.5 -48.5t75 -23v-70q0 -2 9 -2q10 0 10 2v69q56 1 97.5 26.5t69.5 68.5zM242 12q-16 2 -29.5 6.5t-23.5 14.5q-12 10 -21 24t-14.5 34.5t-8.5 50t-3 71.5t3 71.5t8.5 50.5t14.5 34.5t21 23.5q10 10 23.5 15
t29.5 7v-403z" />
    <glyph glyph-name="sterling" unicode="&#xa3;" horiz-adv-x="595" 
d="M569 126q0 2 -9 3t-9 -1q-2 -29 -19 -51.5t-49 -22.5q-42 0 -72.5 5t-55 12.5t-46 15.5t-46.5 14q28 32 37 68t9 74q0 31 -2 53.5t-6 46.5h101q2 0 2 9q0 10 -2 10h-101q-4 28 -8.5 50.5l-8.5 42.5t-7 39.5t-3 40.5q0 94 25.5 131.5t71.5 37.5q32 0 45.5 -11.5
t13.5 -33.5q0 -10 -3.5 -17t-7 -13t-7 -12.5t-3.5 -15.5q0 -17 10.5 -28.5t36.5 -11.5q21 0 37 16.5t16 37.5q0 16 -10.5 35t-27.5 36t-40.5 28.5t-48.5 11.5q-47 0 -84 -21t-63 -55.5t-40 -78t-14 -89.5q0 -31 8.5 -59t19.5 -61h-92q-2 0 -2 -10q0 -9 2 -9h94
q10 -26 20.5 -50t19 -46t14 -42.5t5.5 -39.5q0 -14 -5.5 -30.5t-17.5 -27.5q-20 5 -42.5 7.5t-52.5 2.5q-59 0 -89.5 -24.5t-30.5 -58.5q0 -15 6 -24.5t15 -15.5t19.5 -8.5t18.5 -2.5q27 0 61 17t62 42q18 -9 39.5 -19.5t45.5 -19.5t50 -14.5t53 -5.5q36 0 66 13t52 33.5
t34.5 46t14.5 50.5zM195 49q-23 -20 -51 -33.5t-50 -13.5q-12 0 -27.5 7t-15.5 24q0 40 46 40q29 0 50.5 -6t47.5 -18z" />
    <glyph glyph-name="yen" unicode="&#xa5;" horiz-adv-x="582" 
d="M621 689q2 0 2 10t-2 10h-208q-2 0 -2 -10t2 -10h85q6 0 4.5 -6.5t-15.5 -35.5l-141 -292l-173 330q-2 4 4 4h100q1 0 1 10t-1 10h-320q-2 0 -2 -10t2 -10h101q7 0 9 -4l160 -303h-161q-2 0 -2 -9t2 -9h171l24 -47v-67h-195q-2 0 -2 -10t2 -10h195v-206q0 -4 -7 -4h-90
q-1 0 -1 -10t1 -10h284q2 0 2 10t-2 10h-91q-6 0 -6 4v206h195q2 0 2 10t-2 10h-195v76l18 38h177q2 0 2 9t-2 9h-169l129 265q13 28 19 35t11 7h85z" />
    <glyph glyph-name="section" unicode="&#xa7;" horiz-adv-x="533" 
d="M477 207q0 55 -25 91.5t-63 63t-81.5 47.5t-81.5 44.5t-63 53.5t-25 75q0 71 41.5 106.5t114.5 35.5q29 0 46 -5.5t26 -16t12 -25t3 -31.5t-6.5 -25.5t-6.5 -19.5q0 -19 12.5 -29t32.5 -10q18 0 30 11t12 34q0 20 -8.5 44t-28 44.5t-50 34.5t-74.5 14q-48 0 -87 -17.5
t-66.5 -48t-42.5 -71t-15 -86.5q0 -42 18 -73.5t45 -57.5q-44 -29 -67 -73.5t-23 -96.5q0 -55 25 -92t62.5 -63.5t81.5 -47t81.5 -44t62.5 -53.5t25 -75q0 -72 -42.5 -107t-112.5 -35q-33 0 -54 8t-33 21t-16.5 29.5t-4.5 33.5t5.5 25.5t5.5 19.5q0 19 -12 29t-32 10
q-18 0 -30 -11.5t-12 -33.5q0 -21 11.5 -47t34.5 -49t57.5 -39t79.5 -16q48 0 86.5 17.5t66 48t42 71t14.5 86.5q0 42 -17.5 73.5t-44.5 57.5q50 38 70.5 78t20.5 92zM442 146q0 -26 -17.5 -49t-51.5 -49q-39 34 -87.5 58.5t-92 48.5t-73 52.5t-29.5 72.5q0 26 19 53.5
t48 47.5q25 -23 56 -41t63 -34.5t61.5 -32.5t52.5 -34.5t37 -41t14 -51.5z" />
    <glyph glyph-name="dieresis" unicode="&#xa8;" horiz-adv-x="449" 
d="M359 585q0 19 -13 32.5t-31 13.5q-17 0 -30 -13.5t-13 -32.5t13 -32t30 -13q18 0 31 13t13 32zM177 585q0 19 -12.5 32.5t-31.5 13.5q-17 0 -30.5 -13.5t-13.5 -32.5t13.5 -32t30.5 -13q19 0 31.5 13t12.5 32z" />
    <glyph glyph-name="copyright" unicode="&#xa9;" horiz-adv-x="826" 
d="M772 354q0 77 -28.5 145t-77 118.5t-114 79.5t-139.5 29t-139.5 -29t-114 -79.5t-77 -118.5t-28.5 -145t28.5 -144.5t77 -118t114 -79.5t139.5 -29t139.5 29t114 79.5t77 118t28.5 144.5zM751 354q0 -72 -26.5 -136t-72.5 -111.5t-107.5 -75t-131.5 -27.5t-131.5 27.5
t-107 75t-72 111.5t-26.5 136q0 73 26.5 136.5t72 111t107 75t131.5 27.5t131.5 -27.5t107.5 -75t72.5 -111t26.5 -136.5zM559 138v143q0 1 -7 1t-7 -1q0 -60 -36 -94.5t-90 -34.5q-21 0 -41.5 4.5t-34.5 17.5q-24 21 -35.5 66t-11.5 120t11.5 120t35.5 66q14 13 33 17.5
t40 4.5t42.5 -9t38 -24.5t27 -36t10.5 -42.5q0 -1 7 -1t7 1v125q0 1 -7 1q-6 0 -7 -1q-1 -5 -9 -10t-21 -5q-20 0 -43.5 8.5t-44.5 8.5q-42 0 -77.5 -18t-61 -49t-39.5 -71t-14 -85t14.5 -85.5t41 -71t62 -48.5t77.5 -18q12 0 25 3t26 6.5t25.5 6.5t22.5 3q14 0 20 -6.5
t7 -11.5q1 -1 7 -1q7 0 7 1z" />
    <glyph glyph-name="ordfeminine" unicode="&#xaa;" horiz-adv-x="357" 
d="M334 421q1 2 -4.5 7t-5.5 3q-5 -13 -22 -13q-7 0 -10.5 5.5t-3.5 20.5v146q0 71 -32.5 103.5t-89.5 32.5q-21 0 -38.5 -6t-30 -15t-19.5 -20.5t-7 -22.5q0 -13 7 -24t26 -11q17 0 25 8.5t8 19.5q0 10 -3.5 15t-3.5 15q0 21 11 22t25 1q10 0 19 -1t15.5 -7t10 -18.5
t3.5 -35.5v-57q0 -13 -23.5 -16.5t-53.5 -5.5q-11 -2 -27.5 -6t-32 -14.5t-27 -28.5t-11.5 -48q0 -23 9 -38t24 -24.5t33 -13.5t36 -4q30 0 48.5 17.5t26.5 39.5q2 -22 21 -39.5t42 -17.5q22 0 37 10t18 21zM214 505q0 -17 -4 -33t-11.5 -29.5t-19 -21.5t-26.5 -8
q-28 0 -35 18t-7 39q0 26 2.5 40.5t8 22t13 10t16.5 4.5q16 3 33.5 5t29.5 11v-58z" />
    <glyph glyph-name="guillemotleft" unicode="&#xab;" horiz-adv-x="397" 
d="M338 51q0 24 -7 48t-17 46t-22 39.5t-22 28.5q10 10 22 28t22 40t17 46t7 48q0 4 -11 4q-10 0 -10 -4q0 -29 -16.5 -56t-38.5 -48t-43 -36t-30 -20q-4 -2 0 -4q9 -5 30 -20t43 -36t38.5 -48t16.5 -56q0 -4 10 -4q11 0 11 4zM188 51q0 24 -6.5 48t-17 46t-22.5 39.5
t-22 28.5q10 10 22 28t22.5 40t17 46t6.5 48q0 4 -10 4t-10 -4q0 -29 -17 -56t-38.5 -48t-43 -36t-30.5 -20q-4 -2 0 -4q9 -5 30.5 -20t43 -36t38.5 -48t17 -56q0 -4 10 -4t10 4z" />
    <glyph glyph-name="registered" unicode="&#xae;" horiz-adv-x="826" 
d="M772 354q0 77 -28.5 145t-77 118.5t-114 79.5t-139.5 29t-139.5 -29t-114 -79.5t-77 -118.5t-28.5 -145t28.5 -144.5t77 -118t114 -79.5t139.5 -29t139.5 29t114 79.5t77 118t28.5 144.5zM751 354q0 -72 -26.5 -136t-72.5 -111.5t-107.5 -75t-131.5 -27.5t-131.5 27.5
t-107 75t-72 111.5t-26.5 136q0 73 26.5 136.5t72 111t107 75t131.5 27.5t131.5 -27.5t107.5 -75t72.5 -111t26.5 -136.5zM649 158l-3 6.5t-4 5.5q-6 -6 -14.5 -11.5t-19.5 -5.5q-32 0 -32 45v54q0 52 -34.5 81.5t-112.5 29.5q27 0 50.5 8.5t40.5 23t26.5 33.5t9.5 40
q0 45 -36.5 74.5t-102.5 29.5h-181q-1 0 -1 -8q0 -7 1 -7h52q4 0 4 -2v-391q0 -2 -4 -2h-52q-1 0 -1 -8q0 -7 1 -7h190q2 0 2 7q0 8 -2 8h-63q-3 0 -3 2v191h53q41 0 66.5 -17t25.5 -57v-28q0 -64 26.5 -90t62.5 -26q20 0 33 5.5t22 15.5zM489 466q0 -29 -3.5 -47.5
t-12.5 -29.5t-23.5 -15t-36.5 -4h-53v185q0 2 3 2h38q21 0 37.5 -3.5t27.5 -13.5t17 -28t6 -46z" />
    <glyph glyph-name="macron" unicode="&#xaf;" horiz-adv-x="384" 
d="M339 597q1 0 2 4t1 9q0 6 -1 10t-2 4h-296q-1 0 -1.5 -4t-0.5 -10q0 -5 0.5 -9t1.5 -4h296z" />
    <glyph glyph-name="macron" unicode="&#x2c9;" horiz-adv-x="384" 
d="M339 597q1 0 2 4t1 9q0 6 -1 10t-2 4h-296q-1 0 -1.5 -4t-0.5 -10q0 -5 0.5 -9t1.5 -4h296z" />
    <glyph glyph-name="degree" unicode="&#xb0;" horiz-adv-x="277" 
d="M217 636q0 32 -22.5 54.5t-54.5 22.5t-54.5 -22.5t-22.5 -54.5t22.5 -54.5t54.5 -22.5t54.5 22.5t22.5 54.5zM197 636q0 -23 -17 -40t-40 -17q-24 0 -41 17t-17 40t17 40t41 17q23 0 40 -17t17 -40z" />
    <glyph glyph-name="acute" unicode="&#xb4;" horiz-adv-x="342" 
d="M270 657q0 13 -9 22.5t-24 9.5q-14 0 -23.5 -9.5t-18.5 -24t-20 -33t-27 -36t-40 -32.5t-59 -23q-1 0 -1.5 -3t-0.5 -7t1 -6.5t2 -2.5q69 16 112 35.5t67 39t32.5 37.5t8.5 33z" />
    <glyph glyph-name="paragraph" unicode="&#xb6;" horiz-adv-x="608" 
d="M561 0q2 0 2 10t-2 10h-68q-4 0 -4 2v663q0 4 4 4h68q2 0 2 9q0 10 -2 10h-204q-62 0 -117 -28t-96 -76t-64.5 -112.5t-23.5 -137.5t23.5 -137.5t64.5 -112.5t96 -76t117 -28h204zM470 22q0 -2 -7 -2h-77q-5 0 -5 2v663q0 4 5 4h77q7 0 7 -4v-663z" />
    <glyph glyph-name="periodcentered" unicode="&#xb7;" horiz-adv-x="192" 
d="M148 354q0 20 -14.5 34.5t-34.5 14.5t-33.5 -14.5t-13.5 -34.5q0 -22 13.5 -37.5t33.5 -15.5t34.5 15.5t14.5 37.5z" />
    <glyph glyph-name="cedilla" unicode="&#xb8;" horiz-adv-x="283" 
d="M201 -147q0 27 -10 39t-21.5 19.5t-21.5 16.5t-10 29q0 8 4 18.5t8 15.5q0 2 -7.5 5.5t-8.5 1.5q-8 -9 -16 -29.5t-8 -39.5q0 -26 11 -38.5t24 -20.5t24 -14.5t11 -19.5q0 -37 -49 -37q-17 0 -28.5 5t-11.5 13t6.5 11t6.5 16q0 10 -7.5 15.5t-16.5 5.5q-11 0 -17.5 -8
t-6.5 -19q0 -23 21 -41t54 -18q34 0 52 19.5t18 54.5z" />
    <glyph glyph-name="ordmasculine" unicode="&#xba;" horiz-adv-x="400" 
d="M353 559q0 34 -12 64.5t-33 53.5t-49 36t-60 13t-59.5 -13t-48 -36t-32.5 -53.5t-12 -64.5q0 -35 12 -65.5t32.5 -53.5t48 -36t59.5 -13t60 13t49 36t33 53.5t12 65.5zM275 559q0 -61 -6 -89t-23 -43q-8 -10 -20 -13t-27 -3q-14 0 -26 3t-21 13q-16 15 -23 43t-7 89
q0 105 30 132q9 9 21 13t26 4q31 0 47 -17q17 -14 23 -46t6 -86z" />
    <glyph glyph-name="guillemotright" unicode="&#xbb;" horiz-adv-x="397" 
d="M357 211q4 2 0 4q-9 5 -30.5 20t-43 36t-38.5 48t-17 56q0 4 -11 4q-10 0 -10 -4q0 -24 7 -48t17 -46t22 -40t23 -28q-11 -11 -23 -28.5t-22 -39.5t-17 -46t-7 -48q0 -4 10 -4q11 0 11 4q0 29 17 56t38.5 48t43 36t30.5 20zM207 211q4 2 0 4q-9 5 -30.5 20t-43 36
t-38.5 48t-17 56q0 4 -10 4t-10 -4q0 -24 6.5 -48t17 -46t22 -40t22.5 -28q-11 -11 -22.5 -28.5t-22 -39.5t-17 -46t-6.5 -48q0 -4 10 -4t10 4q0 29 17 56t38.5 48t43 36t30.5 20z" />
    <glyph glyph-name="questiondown" unicode="&#xbf;" horiz-adv-x="408" 
d="M315 353q0 23 -14.5 38.5t-34.5 15.5t-34.5 -15.5t-14.5 -38.5q0 -22 14.5 -38t34.5 -16t34.5 16t14.5 38zM390 -193q0 26 -14 39t-36 13q-24 0 -37 -13t-13 -31q0 -11 2 -17t4.5 -11.5t4.5 -12.5t2 -20q0 -32 -14.5 -49.5t-51.5 -17.5q-20 0 -39.5 4.5t-33.5 17.5
q-25 19 -36 57t-11 110q0 50 1.5 82t4.5 51.5t7.5 29t11.5 15.5q9 8 25.5 13t31.5 5q9 0 19.5 -2t21 -6t19.5 -10.5t14 -16.5q1 -1 2.5 -0.5t1.5 2.5q0 1 -0.5 1.5t-0.5 2.5v170q0 2 -9 2t-9 -2v-137q-14 9 -30 12t-29 3q-36 0 -68.5 -16.5t-57.5 -45.5t-39.5 -68t-14.5 -85
t16.5 -84.5t45.5 -66t69 -42.5t87 -15q34 0 62.5 13.5t48.5 34t31 45t11 46.5z" />
    <glyph glyph-name="Agrave" unicode="&#xc0;" 
d="M660 0q2 0 2 10t-2 10h-82q-5 0 -8 3l-245 700q-1 2 -9 2t-9 -2l-222 -661q-9 -29 -12.5 -35.5t-9.5 -6.5h-74q-1 0 -1 -10t1 -10h186q2 0 2 10t-2 10h-79q-4 0 -2.5 7.5t9.5 34.5l57 168h224l69 -207q3 -3 -4 -3h-83q-2 0 -2 -10t2 -10h294zM378 250h-211l106 320z
M352 786q-53 12 -81 38.5t-45 53t-29.5 46.5t-33.5 20q-15 0 -23.5 -9.5t-8.5 -22.5q0 -15 8.5 -33t32.5 -37.5t67 -39t112 -35.5q1 0 1.5 2.5t0.5 6.5v7t-1 3z" />
    <glyph glyph-name="Aacute" unicode="&#xc1;" 
d="M660 0q2 0 2 10t-2 10h-82q-5 0 -8 3l-245 700q-1 2 -9 2t-9 -2l-222 -661q-9 -29 -12.5 -35.5t-9.5 -6.5h-74q-1 0 -1 -10t1 -10h186q2 0 2 10t-2 10h-79q-4 0 -2.5 7.5t9.5 34.5l57 168h224l69 -207q3 -3 -4 -3h-83q-2 0 -2 -10t2 -10h294zM378 250h-211l106 320z
M521 912q0 13 -9 22.5t-24 9.5q-14 0 -23.5 -9.5t-18.5 -24t-20 -33t-27 -36t-40 -32.5t-59 -23q-1 0 -1.5 -3t-0.5 -7t1 -6.5t2 -2.5q69 16 112 35.5t67 39t32.5 37.5t8.5 33z" />
    <glyph glyph-name="Acircumflex" unicode="&#xc2;" 
d="M660 0q2 0 2 10t-2 10h-82q-5 0 -8 3l-245 700q-1 2 -9 2t-9 -2l-222 -661q-9 -29 -12.5 -35.5t-9.5 -6.5h-74q-1 0 -1 -10t1 -10h186q2 0 2 10t-2 10h-79q-4 0 -2.5 7.5t9.5 34.5l57 168h224l69 -207q3 -3 -4 -3h-83q-2 0 -2 -10t2 -10h294zM378 250h-211l106 320z
M448 784q-42 51 -72.5 88t-53.5 69q-1 3 -4 0q-21 -32 -51.5 -69t-73.5 -88q-1 0 3.5 -5.5t5.5 -3.5l114 92l126 -92q2 -2 5 3.5t1 5.5z" />
    <glyph glyph-name="Atilde" unicode="&#xc3;" 
d="M660 0q2 0 2 10t-2 10h-82q-5 0 -8 3l-245 700q-1 2 -9 2t-9 -2l-222 -661q-9 -29 -12.5 -35.5t-9.5 -6.5h-74q-1 0 -1 -10t1 -10h186q2 0 2 10t-2 10h-79q-4 0 -2.5 7.5t9.5 34.5l57 168h224l69 -207q3 -3 -4 -3h-83q-2 0 -2 -10t2 -10h294zM378 250h-211l106 320z
M495 918q0 2 -9 2t-9 -2q0 -29 -10 -42.5t-38 -13.5q-17 0 -34.5 7t-37.5 16t-42 16t-47 7q-48 0 -79.5 -31t-31.5 -79q0 -2 9 -2q10 0 10 2q0 30 9.5 43t36.5 13q17 0 35 -7t38 -15.5t42 -15.5t48 -7q23 0 43 8t35 22.5t23.5 34.5t8.5 44z" />
    <glyph glyph-name="Adieresis" unicode="&#xc4;" 
d="M660 0q2 0 2 10t-2 10h-82q-5 0 -8 3l-245 700q-1 2 -9 2t-9 -2l-222 -661q-9 -29 -12.5 -35.5t-9.5 -6.5h-74q-1 0 -1 -10t1 -10h186q2 0 2 10t-2 10h-79q-4 0 -2.5 7.5t9.5 34.5l57 168h224l69 -207q3 -3 -4 -3h-83q-2 0 -2 -10t2 -10h294zM378 250h-211l106 320z
M455 840q0 19 -13 32.5t-31 13.5q-17 0 -30 -13.5t-13 -32.5t13 -32t30 -13q18 0 31 13t13 32zM273 840q0 19 -12.5 32.5t-31.5 13.5q-17 0 -30.5 -13.5t-13.5 -32.5t13.5 -32t30.5 -13q19 0 31.5 13t12.5 32z" />
    <glyph glyph-name="Aring" unicode="&#xc5;" 
d="M660 0q2 0 2 10t-2 10h-82q-5 0 -8 3l-243 696q29 3 47.5 25t18.5 51q0 32 -22.5 54.5t-54.5 22.5t-54.5 -22.5t-22.5 -54.5q0 -29 19 -50.5t47 -25.5l-220 -657q-9 -29 -12.5 -35.5t-9.5 -6.5h-74q-1 0 -1 -10t1 -10h186q2 0 2 10t-2 10h-79q-4 0 -2.5 7.5t9.5 34.5
l57 168h224l69 -207q3 -3 -4 -3h-83q-2 0 -2 -10t2 -10h294zM374 795q0 -23 -17.5 -40t-40.5 -17t-40.5 17t-17.5 40t17.5 40t40.5 17t40.5 -17t17.5 -40zM378 250h-211l106 320z" />
    <glyph glyph-name="AE" unicode="&#xc6;" horiz-adv-x="878" 
d="M844 3v209q0 2 -9 2q-8 0 -8 -2q0 -39 -11 -73.5t-35.5 -61t-64 -42t-96.5 -15.5h-102q-5 0 -5 4v330h30q56 0 86 -31.5t30 -82.5q0 -2 8 -2t8 2v248q0 2 -8 2t-8 -2q0 -52 -30 -83t-86 -31h-30v311q0 4 5 4h99q43 0 74 -14t50 -37.5t28 -54.5t9 -66q0 -2 9 -2t9 2v189
q0 3 -3 3h-480q-2 0 -2 -10t2 -10h81l-329 -627q-15 -29 -20 -35.5t-10 -6.5h-62q-2 0 -2 -4t2 -16h174q2 12 2 16t-2 4h-75q-5 0 -2 7.5t17 34.5l113 219h204v-257q0 -4 -6 -4h-82q-2 0 -2 -10t2 -10h526q2 0 2 3zM404 299h-194l194 375v-375z" />
    <glyph glyph-name="Ccedilla" unicode="&#xc7;" horiz-adv-x="626" 
d="M580 -15v242q0 2 -9 2q-8 0 -8 -2q0 -49 -15.5 -90.5t-43 -71.5t-64.5 -46.5t-79 -16.5q-32 0 -63 7.5t-54 29.5q-35 35 -53.5 111t-18.5 204t18.5 204t53.5 111q23 21 52 29t61 8q34 0 68 -18t60.5 -47t43 -65.5t16.5 -73.5q0 -2 9 -2t9 2v221q0 2 -9 2t-9 -2
q-2 -8 -14 -16t-33 -8q-16 0 -34 4t-36 9.5t-36 9.5t-35 4q-66 0 -121 -30t-95 -81t-62.5 -118.5t-22.5 -142.5q0 -72 22 -138t61 -116.5t92 -82t116 -34.5q-6 -11 -11.5 -28t-5.5 -32q0 -26 11 -39t23.5 -20.5t23.5 -14.5t11 -20q0 -17 -11.5 -27.5t-37.5 -10.5
q-17 0 -28 5t-11 15q0 8 5.5 11t5.5 16q0 10 -6.5 14.5t-15.5 4.5q-12 0 -18 -7.5t-6 -17.5q0 -23 20.5 -41.5t53.5 -18.5q34 0 53 20t19 54q0 27 -10 39.5t-22.5 20t-22.5 16t-10 28.5q0 8 3.5 17.5t7.5 15.5q19 1 39.5 6t40.5 11t39 10.5t34 4.5q20 0 30 -10.5t12 -19.5
q1 -1 9 -1t8 1z" />
    <glyph glyph-name="Egrave" unicode="&#xc8;" horiz-adv-x="607" 
d="M574 3v209q0 2 -9 2t-9 -2q0 -39 -11 -73.5t-35 -61t-63.5 -42t-96.5 -15.5h-101q-8 0 -8 4v330h31q57 0 86.5 -31.5t29.5 -82.5q0 -2 8 -2q9 0 9 2v248q0 2 -9 2q-8 0 -8 -2q0 -52 -29.5 -83t-86.5 -31h-31v311q0 4 8 4h98q43 0 74 -14t50 -37.5t28 -54.5t9 -66
q0 -2 9 -2t9 2v189q0 3 -2 3h-479q-1 0 -1 -10t1 -10h82q6 0 6 -4v-661q0 -4 -6 -4h-82q-1 0 -1 -10t1 -10h526q3 0 3 3zM404 786q-53 12 -81 38.5t-45 53t-29.5 46.5t-33.5 20q-15 0 -23.5 -9.5t-8.5 -22.5q0 -15 8.5 -33t32.5 -37.5t67 -39t112 -35.5q1 0 1.5 2.5t0.5 6.5
v7t-1 3z" />
    <glyph glyph-name="Eacute" unicode="&#xc9;" horiz-adv-x="607" 
d="M574 3v209q0 2 -9 2t-9 -2q0 -39 -11 -73.5t-35 -61t-63.5 -42t-96.5 -15.5h-101q-8 0 -8 4v330h31q57 0 86.5 -31.5t29.5 -82.5q0 -2 8 -2q9 0 9 2v248q0 2 -9 2q-8 0 -8 -2q0 -52 -29.5 -83t-86.5 -31h-31v311q0 4 8 4h98q43 0 74 -14t50 -37.5t28 -54.5t9 -66
q0 -2 9 -2t9 2v189q0 3 -2 3h-479q-1 0 -1 -10t1 -10h82q6 0 6 -4v-661q0 -4 -6 -4h-82q-1 0 -1 -10t1 -10h526q3 0 3 3zM478 912q0 13 -9 22.5t-24 9.5q-14 0 -23.5 -9.5t-18.5 -24t-20 -33t-27 -36t-40 -32.5t-59 -23q-1 0 -1.5 -3t-0.5 -7t1 -6.5t2 -2.5q69 16 112 35.5
t67 39t32.5 37.5t8.5 33z" />
    <glyph glyph-name="Ecircumflex" unicode="&#xca;" horiz-adv-x="607" 
d="M574 3v209q0 2 -9 2t-9 -2q0 -39 -11 -73.5t-35 -61t-63.5 -42t-96.5 -15.5h-101q-8 0 -8 4v330h31q57 0 86.5 -31.5t29.5 -82.5q0 -2 8 -2q9 0 9 2v248q0 2 -9 2q-8 0 -8 -2q0 -52 -29.5 -83t-86.5 -31h-31v311q0 4 8 4h98q43 0 74 -14t50 -37.5t28 -54.5t9 -66
q0 -2 9 -2t9 2v189q0 3 -2 3h-479q-1 0 -1 -10t1 -10h82q6 0 6 -4v-661q0 -4 -6 -4h-82q-1 0 -1 -10t1 -10h526q3 0 3 3zM449 784q-42 51 -72.5 88t-53.5 69q-1 3 -4 0q-21 -32 -51.5 -69t-73.5 -88q-1 0 3.5 -5.5t5.5 -3.5l114 92l126 -92q2 -2 5 3.5t1 5.5z" />
    <glyph glyph-name="Edieresis" unicode="&#xcb;" horiz-adv-x="607" 
d="M574 3v209q0 2 -9 2t-9 -2q0 -39 -11 -73.5t-35 -61t-63.5 -42t-96.5 -15.5h-101q-8 0 -8 4v330h31q57 0 86.5 -31.5t29.5 -82.5q0 -2 8 -2q9 0 9 2v248q0 2 -9 2q-8 0 -8 -2q0 -52 -29.5 -83t-86.5 -31h-31v311q0 4 8 4h98q43 0 74 -14t50 -37.5t28 -54.5t9 -66
q0 -2 9 -2t9 2v189q0 3 -2 3h-479q-1 0 -1 -10t1 -10h82q6 0 6 -4v-661q0 -4 -6 -4h-82q-1 0 -1 -10t1 -10h526q3 0 3 3zM447 840q0 19 -13 32.5t-31 13.5q-17 0 -30 -13.5t-13 -32.5t13 -32t30 -13q18 0 31 13t13 32zM265 840q0 19 -12.5 32.5t-31.5 13.5
q-17 0 -30.5 -13.5t-13.5 -32.5t13.5 -32t30.5 -13q19 0 31.5 13t12.5 32z" />
    <glyph glyph-name="Igrave" unicode="&#xcc;" horiz-adv-x="375" 
d="M330 0q2 0 2 10t-2 10h-83q-5 0 -5 4v661q0 4 5 4h83q2 0 2 10t-2 10h-285q-1 0 -1 -10t1 -10h82q6 0 6 -4v-661q0 -4 -6 -4h-82q-1 0 -1 -10t1 -10h285zM285 786q-53 12 -81 38.5t-45 53t-29.5 46.5t-33.5 20q-15 0 -23.5 -9.5t-8.5 -22.5q0 -15 8.5 -33t32.5 -37.5
t67 -39t112 -35.5q1 0 1.5 2.5t0.5 6.5v7t-1 3z" />
    <glyph glyph-name="Iacute" unicode="&#xcd;" horiz-adv-x="375" 
d="M330 0q2 0 2 10t-2 10h-83q-5 0 -5 4v661q0 4 5 4h83q2 0 2 10t-2 10h-285q-1 0 -1 -10t1 -10h82q6 0 6 -4v-661q0 -4 -6 -4h-82q-1 0 -1 -10t1 -10h285zM341 912q0 13 -9 22.5t-24 9.5q-14 0 -23.5 -9.5t-18.5 -24t-20 -33t-27 -36t-40 -32.5t-59 -23q-1 0 -1.5 -3
t-0.5 -7t1 -6.5t2 -2.5q69 16 112 35.5t67 39t32.5 37.5t8.5 33z" />
    <glyph glyph-name="Icircumflex" unicode="&#xce;" horiz-adv-x="375" 
d="M330 0q2 0 2 10t-2 10h-83q-5 0 -5 4v661q0 4 5 4h83q2 0 2 10t-2 10h-285q-1 0 -1 -10t1 -10h82q6 0 6 -4v-661q0 -4 -6 -4h-82q-1 0 -1 -10t1 -10h285zM318 784q-42 51 -72.5 88t-53.5 69q-1 3 -4 0q-21 -32 -51.5 -69t-73.5 -88q-1 0 3.5 -5.5t5.5 -3.5l114 92
l126 -92q2 -2 5 3.5t1 5.5z" />
    <glyph glyph-name="Idieresis" unicode="&#xcf;" horiz-adv-x="375" 
d="M330 0q2 0 2 10t-2 10h-83q-5 0 -5 4v661q0 4 5 4h83q2 0 2 10t-2 10h-285q-1 0 -1 -10t1 -10h82q6 0 6 -4v-661q0 -4 -6 -4h-82q-1 0 -1 -10t1 -10h285zM326 840q0 19 -13 32.5t-31 13.5q-17 0 -30 -13.5t-13 -32.5t13 -32t30 -13q18 0 31 13t13 32zM144 840
q0 19 -12.5 32.5t-31.5 13.5q-17 0 -30.5 -13.5t-13.5 -32.5t13.5 -32t30.5 -13q19 0 31.5 13t12.5 32z" />
    <glyph glyph-name="Ntilde" unicode="&#xd1;" horiz-adv-x="699" 
d="M673 689q2 0 2 10t-2 10h-193q-2 0 -2 -10t2 -10h82q6 0 6 -4v-492l-302 498q-8 11 -12 14.5t-9 3.5h-204q-2 0 -2 -10t2 -10h81q6 0 6 -4v-661q0 -4 -6 -4h-81q-2 0 -2 -10t2 -10h194q1 0 1 10t-1 10h-83q-4 0 -4 4v652l419 -689q2 -3 10.5 -2.5t8.5 2.5v698q0 4 5 4h82
zM541 918q0 2 -9 2t-9 -2q0 -29 -10 -42.5t-38 -13.5q-17 0 -34.5 7t-37.5 16t-42 16t-47 7q-48 0 -79.5 -31t-31.5 -79q0 -2 9 -2q10 0 10 2q0 30 9.5 43t36.5 13q17 0 35 -7t38 -15.5t42 -15.5t48 -7q23 0 43 8t35 22.5t23.5 34.5t8.5 44z" />
    <glyph glyph-name="Ograve" unicode="&#xd2;" horiz-adv-x="715" 
d="M659 354q0 77 -23.5 145t-64.5 118.5t-96 79.5t-118 29q-66 0 -121 -30t-95 -81t-62.5 -118.5t-22.5 -142.5q0 -77 23.5 -144.5t64.5 -118t96 -79.5t117 -29q63 0 118 29t96 79.5t64.5 118t23.5 144.5zM542 354q0 -73 -4.5 -124.5t-13.5 -88t-22.5 -60.5t-30.5 -42
q-23 -22 -51.5 -29.5t-62.5 -7.5t-61.5 7.5t-50.5 29.5q-18 18 -31.5 42t-22.5 60.5t-13.5 88t-4.5 124.5q0 128 18.5 204t53.5 111q23 21 50.5 29t61.5 8t62.5 -8t51.5 -29q35 -35 53 -111t18 -204zM396 786q-53 12 -81 38.5t-45 53t-29.5 46.5t-33.5 20q-15 0 -23.5 -9.5
t-8.5 -22.5q0 -15 8.5 -33t32.5 -37.5t67 -39t112 -35.5q1 0 1.5 2.5t0.5 6.5v7t-1 3z" />
    <glyph glyph-name="Oacute" unicode="&#xd3;" horiz-adv-x="715" 
d="M659 354q0 77 -23.5 145t-64.5 118.5t-96 79.5t-118 29q-66 0 -121 -30t-95 -81t-62.5 -118.5t-22.5 -142.5q0 -77 23.5 -144.5t64.5 -118t96 -79.5t117 -29q63 0 118 29t96 79.5t64.5 118t23.5 144.5zM542 354q0 -73 -4.5 -124.5t-13.5 -88t-22.5 -60.5t-30.5 -42
q-23 -22 -51.5 -29.5t-62.5 -7.5t-61.5 7.5t-50.5 29.5q-18 18 -31.5 42t-22.5 60.5t-13.5 88t-4.5 124.5q0 128 18.5 204t53.5 111q23 21 50.5 29t61.5 8t62.5 -8t51.5 -29q35 -35 53 -111t18 -204zM538 912q0 13 -9 22.5t-24 9.5q-14 0 -23.5 -9.5t-18.5 -24t-20 -33
t-27 -36t-40 -32.5t-59 -23q-1 0 -1.5 -3t-0.5 -7t1 -6.5t2 -2.5q69 16 112 35.5t67 39t32.5 37.5t8.5 33z" />
    <glyph glyph-name="Ocircumflex" unicode="&#xd4;" horiz-adv-x="715" 
d="M659 354q0 77 -23.5 145t-64.5 118.5t-96 79.5t-118 29q-66 0 -121 -30t-95 -81t-62.5 -118.5t-22.5 -142.5q0 -77 23.5 -144.5t64.5 -118t96 -79.5t117 -29q63 0 118 29t96 79.5t64.5 118t23.5 144.5zM542 354q0 -73 -4.5 -124.5t-13.5 -88t-22.5 -60.5t-30.5 -42
q-23 -22 -51.5 -29.5t-62.5 -7.5t-61.5 7.5t-50.5 29.5q-18 18 -31.5 42t-22.5 60.5t-13.5 88t-4.5 124.5q0 128 18.5 204t53.5 111q23 21 50.5 29t61.5 8t62.5 -8t51.5 -29q35 -35 53 -111t18 -204zM483 784q-42 51 -72.5 88t-53.5 69q-1 3 -4 0q-21 -32 -51.5 -69
t-73.5 -88q-1 0 3.5 -5.5t5.5 -3.5l114 92l126 -92q2 -2 5 3.5t1 5.5z" />
    <glyph glyph-name="Otilde" unicode="&#xd5;" horiz-adv-x="711" 
d="M659 354q0 77 -23.5 145t-64.5 118.5t-96 79.5t-118 29q-66 0 -121 -30t-95 -81t-62.5 -118.5t-22.5 -142.5q0 -77 23.5 -144.5t64.5 -118t96 -79.5t117 -29q63 0 118 29t96 79.5t64.5 118t23.5 144.5zM542 354q0 -73 -4.5 -124.5t-13.5 -88t-22.5 -60.5t-30.5 -42
q-23 -22 -51.5 -29.5t-62.5 -7.5t-61.5 7.5t-50.5 29.5q-18 18 -31.5 42t-22.5 60.5t-13.5 88t-4.5 124.5q0 128 18.5 204t53.5 111q23 21 50.5 29t61.5 8t62.5 -8t51.5 -29q35 -35 53 -111t18 -204zM527 918q0 2 -9 2t-9 -2q0 -29 -10 -42.5t-38 -13.5q-17 0 -34.5 7
t-37.5 16t-42 16t-47 7q-48 0 -79.5 -31t-31.5 -79q0 -2 9 -2q10 0 10 2q0 30 9.5 43t36.5 13q17 0 35 -7t38 -15.5t42 -15.5t48 -7q23 0 43 8t35 22.5t23.5 34.5t8.5 44z" />
    <glyph glyph-name="Odieresis" unicode="&#xd6;" horiz-adv-x="715" 
d="M659 354q0 77 -23.5 145t-64.5 118.5t-96 79.5t-118 29q-66 0 -121 -30t-95 -81t-62.5 -118.5t-22.5 -142.5q0 -77 23.5 -144.5t64.5 -118t96 -79.5t117 -29q63 0 118 29t96 79.5t64.5 118t23.5 144.5zM542 354q0 -73 -4.5 -124.5t-13.5 -88t-22.5 -60.5t-30.5 -42
q-23 -22 -51.5 -29.5t-62.5 -7.5t-61.5 7.5t-50.5 29.5q-18 18 -31.5 42t-22.5 60.5t-13.5 88t-4.5 124.5q0 128 18.5 204t53.5 111q23 21 50.5 29t61.5 8t62.5 -8t51.5 -29q35 -35 53 -111t18 -204zM490 840q0 19 -13 32.5t-31 13.5q-17 0 -30 -13.5t-13 -32.5t13 -32
t30 -13q18 0 31 13t13 32zM308 840q0 19 -12.5 32.5t-31.5 13.5q-17 0 -30.5 -13.5t-13.5 -32.5t13.5 -32t30.5 -13q19 0 31.5 13t12.5 32z" />
    <glyph glyph-name="Oslash" unicode="&#xd8;" horiz-adv-x="715" 
d="M659 354q0 94 -34 171.5t-91 128.5q4 7 13 24.5t16 30.5t8 15t-6.5 7t-8.5 3t-7 -12.5t-15.5 -27t-14.5 -26.5q-35 28 -76 43t-86 15q-66 0 -121 -30t-95 -81t-62.5 -118.5t-22.5 -142.5q0 -94 34.5 -172t91.5 -129l-38 -68q0 -2 8 -7t9 -3l36 64q35 -26 75 -41t85 -15
q63 0 118 29t96 79.5t64.5 118t23.5 144.5zM497 629l-291 -532q-17 38 -25 98.5t-8 158.5q0 128 18.5 204t53.5 111q23 21 50.5 29t61.5 8t62.5 -8t51.5 -29q7 -8 14 -18t12 -22zM542 354q0 -73 -4.5 -124.5t-13.5 -88t-22.5 -60.5t-30.5 -42q-23 -22 -51.5 -29.5
t-62.5 -7.5t-61.5 7.5t-50.5 29.5q-15 17 -28 38l12.5 23t33 60.5t47 85t53.5 97t53.5 97.5t47 85t33 59.5l12.5 22.5q33 -83 33 -253z" />
    <glyph glyph-name="Ugrave" unicode="&#xd9;" horiz-adv-x="683" 
d="M664 689q2 0 2 10t-2 10h-184q-2 0 -2 -10t2 -10h72q5 0 5 -4v-475q0 -44 -10.5 -81t-32.5 -63t-56 -40.5t-81 -14.5q-76 0 -115 45.5t-39 148.5v480q0 4 7 4h81q2 0 2 10t-2 10h-283q-2 0 -2 -10t2 -10h82q5 0 5 -4v-480q0 -56 17.5 -97.5t49 -69.5t75.5 -41.5t96 -13.5
q58 0 100.5 16t70 45.5t40.5 71.5t13 94v475q0 4 4 4h83zM456 786q-53 12 -81 38.5t-45 53t-29.5 46.5t-33.5 20q-15 0 -23.5 -9.5t-8.5 -22.5q0 -15 8.5 -33t32.5 -37.5t67 -39t112 -35.5q1 0 1.5 2.5t0.5 6.5v7t-1 3z" />
    <glyph glyph-name="Uacute" unicode="&#xda;" horiz-adv-x="683" 
d="M664 689q2 0 2 10t-2 10h-184q-2 0 -2 -10t2 -10h72q5 0 5 -4v-475q0 -44 -10.5 -81t-32.5 -63t-56 -40.5t-81 -14.5q-76 0 -115 45.5t-39 148.5v480q0 4 7 4h81q2 0 2 10t-2 10h-283q-2 0 -2 -10t2 -10h82q5 0 5 -4v-480q0 -56 17.5 -97.5t49 -69.5t75.5 -41.5t96 -13.5
q58 0 100.5 16t70 45.5t40.5 71.5t13 94v475q0 4 4 4h83zM555 912q0 13 -9 22.5t-24 9.5q-14 0 -23.5 -9.5t-18.5 -24t-20 -33t-27 -36t-40 -32.5t-59 -23q-1 0 -1.5 -3t-0.5 -7t1 -6.5t2 -2.5q69 16 112 35.5t67 39t32.5 37.5t8.5 33z" />
    <glyph glyph-name="Ucircumflex" unicode="&#xdb;" horiz-adv-x="683" 
d="M664 689q2 0 2 10t-2 10h-184q-2 0 -2 -10t2 -10h72q5 0 5 -4v-475q0 -44 -10.5 -81t-32.5 -63t-56 -40.5t-81 -14.5q-76 0 -115 45.5t-39 148.5v480q0 4 7 4h81q2 0 2 10t-2 10h-283q-2 0 -2 -10t2 -10h82q5 0 5 -4v-480q0 -56 17.5 -97.5t49 -69.5t75.5 -41.5t96 -13.5
q58 0 100.5 16t70 45.5t40.5 71.5t13 94v475q0 4 4 4h83zM507 784q-42 51 -72.5 88t-53.5 69q-1 3 -4 0q-21 -32 -51.5 -69t-73.5 -88q-1 0 3.5 -5.5t5.5 -3.5l114 92l126 -92q2 -2 5 3.5t1 5.5z" />
    <glyph glyph-name="Udieresis" unicode="&#xdc;" horiz-adv-x="683" 
d="M664 689q2 0 2 10t-2 10h-184q-2 0 -2 -10t2 -10h72q5 0 5 -4v-475q0 -44 -10.5 -81t-32.5 -63t-56 -40.5t-81 -14.5q-76 0 -115 45.5t-39 148.5v480q0 4 7 4h81q2 0 2 10t-2 10h-283q-2 0 -2 -10t2 -10h82q5 0 5 -4v-480q0 -56 17.5 -97.5t49 -69.5t75.5 -41.5t96 -13.5
q58 0 100.5 16t70 45.5t40.5 71.5t13 94v475q0 4 4 4h83zM521 840q0 19 -13 32.5t-31 13.5q-17 0 -30 -13.5t-13 -32.5t13 -32t30 -13q18 0 31 13t13 32zM339 840q0 19 -12.5 32.5t-31.5 13.5q-17 0 -30.5 -13.5t-13.5 -32.5t13.5 -32t30.5 -13q19 0 31.5 13t12.5 32z" />
    <glyph glyph-name="germandbls" unicode="&#xdf;" horiz-adv-x="575" 
d="M523 193q0 39 -11.5 79.5t-32 73t-48.5 53t-60 20.5h-17t-18 -2q53 23 88 61t35 102q0 36 -13 66.5t-36 52t-55 33.5t-69 12q-38 0 -70 -16t-56 -51.5t-37.5 -91.5t-13.5 -136v-425q0 -4 -7 -4h-57q-1 0 -1 -10t1 -10h213q1 0 1 10t-1 10h-55q-8 0 -8 4v573q0 60 27 94
t64 34q52 0 73 -36.5t21 -107.5q0 -41 -6 -67t-18.5 -45t-33 -33t-48.5 -31q-2 -1 3 -9t9 -8q8 8 17.5 10.5t18.5 2.5q30 0 51.5 -11t36 -36.5t21 -67t6.5 -103.5q0 -61 -5 -95.5t-14 -51.5t-21.5 -21t-27.5 -4q-21 0 -35.5 9t-14.5 38q0 14 4.5 21.5t4.5 17.5q0 16 -9.5 24
t-23.5 8t-23.5 -10.5t-9.5 -29.5q0 -45 29.5 -71.5t77.5 -26.5q24 0 51.5 11.5t50 36.5t37.5 63t15 91z" />
    <glyph glyph-name="agrave" unicode="&#xe0;" horiz-adv-x="440" 
d="M435 30q1 2 -5 7.5t-7 3.5q-2 -8 -10 -14.5t-21 -6.5q-9 0 -15.5 8t-6.5 27v199q0 94 -42 137.5t-120 43.5q-29 0 -52 -7.5t-38.5 -19t-23.5 -25.5t-8 -27q0 -16 9 -30.5t32 -14.5t33.5 11t10.5 25q0 12 -4.5 18.5t-4.5 19.5q0 17 11.5 23.5t34.5 6.5q14 0 27 -2
t23.5 -11t17 -26t6.5 -47v-76q0 -8 -10 -13t-26 -8t-36.5 -5t-40.5 -4q-15 -2 -37.5 -7t-43 -18.5t-35.5 -38t-15 -63.5q0 -30 12 -50t31 -32t43.5 -17.5t49.5 -5.5q21 0 39 6.5t32.5 17.5t24.5 24.5t16 28.5q5 -31 26 -54t54 -23q29 0 46.5 12.5t22.5 26.5zM282 123
q0 -18 -6 -37.5t-18 -35t-29 -25.5t-38 -10q-34 0 -50.5 21t-16.5 60q0 34 5 54.5t14 31.5t20.5 15t24.5 7q22 4 49.5 6.5t44.5 13.5v-101zM321 531q-53 12 -81 38.5t-45 53t-29.5 46.5t-33.5 20q-15 0 -23.5 -9.5t-8.5 -22.5q0 -15 8.5 -33t32.5 -37.5t67 -39t112 -35.5
q1 0 1.5 2.5t0.5 6.5v7t-1 3z" />
    <glyph glyph-name="aacute" unicode="&#xe1;" horiz-adv-x="440" 
d="M435 30q1 2 -5 7.5t-7 3.5q-2 -8 -10 -14.5t-21 -6.5q-9 0 -15.5 8t-6.5 27v199q0 94 -42 137.5t-120 43.5q-29 0 -52 -7.5t-38.5 -19t-23.5 -25.5t-8 -27q0 -16 9 -30.5t32 -14.5t33.5 11t10.5 25q0 12 -4.5 18.5t-4.5 19.5q0 17 11.5 23.5t34.5 6.5q14 0 27 -2
t23.5 -11t17 -26t6.5 -47v-76q0 -8 -10 -13t-26 -8t-36.5 -5t-40.5 -4q-15 -2 -37.5 -7t-43 -18.5t-35.5 -38t-15 -63.5q0 -30 12 -50t31 -32t43.5 -17.5t49.5 -5.5q21 0 39 6.5t32.5 17.5t24.5 24.5t16 28.5q5 -31 26 -54t54 -23q29 0 46.5 12.5t22.5 26.5zM282 123
q0 -18 -6 -37.5t-18 -35t-29 -25.5t-38 -10q-34 0 -50.5 21t-16.5 60q0 34 5 54.5t14 31.5t20.5 15t24.5 7q22 4 49.5 6.5t44.5 13.5v-101zM368 657q0 13 -9 22.5t-24 9.5q-14 0 -23.5 -9.5t-18.5 -24t-20 -33t-27 -36t-40 -32.5t-59 -23q-1 0 -1.5 -3t-0.5 -7t1 -6.5
t2 -2.5q69 16 112 35.5t67 39t32.5 37.5t8.5 33z" />
    <glyph glyph-name="acircumflex" unicode="&#xe2;" horiz-adv-x="440" 
d="M435 30q1 2 -5 7.5t-7 3.5q-2 -8 -10 -14.5t-21 -6.5q-9 0 -15.5 8t-6.5 27v199q0 94 -42 137.5t-120 43.5q-29 0 -52 -7.5t-38.5 -19t-23.5 -25.5t-8 -27q0 -16 9 -30.5t32 -14.5t33.5 11t10.5 25q0 12 -4.5 18.5t-4.5 19.5q0 17 11.5 23.5t34.5 6.5q14 0 27 -2
t23.5 -11t17 -26t6.5 -47v-76q0 -8 -10 -13t-26 -8t-36.5 -5t-40.5 -4q-15 -2 -37.5 -7t-43 -18.5t-35.5 -38t-15 -63.5q0 -30 12 -50t31 -32t43.5 -17.5t49.5 -5.5q21 0 39 6.5t32.5 17.5t24.5 24.5t16 28.5q5 -31 26 -54t54 -23q29 0 46.5 12.5t22.5 26.5zM282 123
q0 -18 -6 -37.5t-18 -35t-29 -25.5t-38 -10q-34 0 -50.5 21t-16.5 60q0 34 5 54.5t14 31.5t20.5 15t24.5 7q22 4 49.5 6.5t44.5 13.5v-101zM352 529q-42 51 -72.5 88t-53.5 69q-1 3 -4 0q-21 -32 -51.5 -69t-73.5 -88q-1 0 3.5 -5.5t5.5 -3.5l114 92l126 -92q2 -2 5 3.5
t1 5.5z" />
    <glyph glyph-name="atilde" unicode="&#xe3;" horiz-adv-x="440" 
d="M435 30q1 2 -5 7.5t-7 3.5q-2 -8 -10 -14.5t-21 -6.5q-9 0 -15.5 8t-6.5 27v199q0 94 -42 137.5t-120 43.5q-29 0 -52 -7.5t-38.5 -19t-23.5 -25.5t-8 -27q0 -16 9 -30.5t32 -14.5t33.5 11t10.5 25q0 12 -4.5 18.5t-4.5 19.5q0 17 11.5 23.5t34.5 6.5q14 0 27 -2
t23.5 -11t17 -26t6.5 -47v-76q0 -8 -10 -13t-26 -8t-36.5 -5t-40.5 -4q-15 -2 -37.5 -7t-43 -18.5t-35.5 -38t-15 -63.5q0 -30 12 -50t31 -32t43.5 -17.5t49.5 -5.5q21 0 39 6.5t32.5 17.5t24.5 24.5t16 28.5q5 -31 26 -54t54 -23q29 0 46.5 12.5t22.5 26.5zM282 123
q0 -18 -6 -37.5t-18 -35t-29 -25.5t-38 -10q-34 0 -50.5 21t-16.5 60q0 34 5 54.5t14 31.5t20.5 15t24.5 7q22 4 49.5 6.5t44.5 13.5v-101zM401 663q0 2 -9 2t-9 -2q0 -29 -10 -42.5t-38 -13.5q-17 0 -34.5 7t-37.5 16t-42 16t-47 7q-48 0 -79.5 -31t-31.5 -79q0 -2 9 -2
q10 0 10 2q0 30 9.5 43t36.5 13q17 0 35 -7t38 -15.5t42 -15.5t48 -7q23 0 43 8t35 22.5t23.5 34.5t8.5 44z" />
    <glyph glyph-name="adieresis" unicode="&#xe4;" horiz-adv-x="440" 
d="M435 30q1 2 -5 7.5t-7 3.5q-2 -8 -10 -14.5t-21 -6.5q-9 0 -15.5 8t-6.5 27v199q0 94 -42 137.5t-120 43.5q-29 0 -52 -7.5t-38.5 -19t-23.5 -25.5t-8 -27q0 -16 9 -30.5t32 -14.5t33.5 11t10.5 25q0 12 -4.5 18.5t-4.5 19.5q0 17 11.5 23.5t34.5 6.5q14 0 27 -2
t23.5 -11t17 -26t6.5 -47v-76q0 -8 -10 -13t-26 -8t-36.5 -5t-40.5 -4q-15 -2 -37.5 -7t-43 -18.5t-35.5 -38t-15 -63.5q0 -30 12 -50t31 -32t43.5 -17.5t49.5 -5.5q21 0 39 6.5t32.5 17.5t24.5 24.5t16 28.5q5 -31 26 -54t54 -23q29 0 46.5 12.5t22.5 26.5zM282 123
q0 -18 -6 -37.5t-18 -35t-29 -25.5t-38 -10q-34 0 -50.5 21t-16.5 60q0 34 5 54.5t14 31.5t20.5 15t24.5 7q22 4 49.5 6.5t44.5 13.5v-101zM358 585q0 19 -13 32.5t-31 13.5q-17 0 -30 -13.5t-13 -32.5t13 -32t30 -13q18 0 31 13t13 32zM176 585q0 19 -12.5 32.5t-31.5 13.5
q-17 0 -30.5 -13.5t-13.5 -32.5t13.5 -32t30.5 -13q19 0 31.5 13t12.5 32z" />
    <glyph glyph-name="aring" unicode="&#xe5;" horiz-adv-x="440" 
d="M435 30q1 2 -5 7.5t-7 3.5q-2 -8 -10 -14.5t-21 -6.5q-9 0 -15.5 8t-6.5 27v199q0 94 -42 137.5t-120 43.5q-29 0 -52 -7.5t-38.5 -19t-23.5 -25.5t-8 -27q0 -16 9 -30.5t32 -14.5t33.5 11t10.5 25q0 12 -4.5 18.5t-4.5 19.5q0 17 11.5 23.5t34.5 6.5q14 0 27 -2
t23.5 -11t17 -26t6.5 -47v-76q0 -8 -10 -13t-26 -8t-36.5 -5t-40.5 -4q-15 -2 -37.5 -7t-43 -18.5t-35.5 -38t-15 -63.5q0 -30 12 -50t31 -32t43.5 -17.5t49.5 -5.5q21 0 39 6.5t32.5 17.5t24.5 24.5t16 28.5q5 -31 26 -54t54 -23q29 0 46.5 12.5t22.5 26.5zM282 123
q0 -18 -6 -37.5t-18 -35t-29 -25.5t-38 -10q-34 0 -50.5 21t-16.5 60q0 34 5 54.5t14 31.5t20.5 15t24.5 7q22 4 49.5 6.5t44.5 13.5v-101zM303 608q0 32 -22.5 54.5t-54.5 22.5t-54.5 -22.5t-22.5 -54.5t22.5 -54.5t54.5 -22.5t54.5 22.5t22.5 54.5zM283 608q0 -23 -17 -40
t-40 -17q-24 0 -41 17t-17 40t17 40t41 17q23 0 40 -17t17 -40z" />
    <glyph glyph-name="ae" unicode="&#xe6;" horiz-adv-x="700" 
d="M663 239q0 26 -10.5 60t-32 64t-55.5 51t-81 21q-42 0 -78.5 -16.5t-65.5 -45.5q-20 32 -53 47t-78 15q-29 0 -52 -7.5t-39 -19t-24 -25.5t-8 -27q0 -16 9.5 -30.5t32.5 -14.5t33 11t10 25q0 12 -4 18.5t-4 19.5q0 17 11.5 23.5t34.5 6.5q14 0 27 -2t23.5 -11t16.5 -26
t6 -47v-76q0 -8 -10 -13t-26.5 -8t-36.5 -5t-41 -4q-15 -2 -37 -7t-42.5 -18.5t-35.5 -38t-15 -63.5q0 -30 12 -50t31 -32t43 -17.5t49 -5.5q19 0 38.5 6.5t36 18.5t28.5 29.5t17 40.5q22 -41 72.5 -68t118.5 -27q53 0 98 26.5t74 69.5q1 2 -4.5 6.5t-6.5 3.5
q-26 -38 -66.5 -62.5t-94.5 -24.5q-20 0 -38.5 5t-32.5 18q-12 10 -20 23.5t-13 34.5t-7 50.5t-2 71.5v24h290q2 0 2 2zM576 255h-205q1 30 3.5 52t7.5 38.5t12.5 28t18.5 21.5q14 11 32.5 15.5t38.5 4.5q17 0 31.5 -4.5t26.5 -15.5q9 -10 15.5 -21.5t10.5 -28t6 -38.5
t2 -52zM282 121q0 -19 -6 -38t-18 -34.5t-29 -25t-39 -9.5q-32 0 -49.5 22t-17.5 60q0 34 5.5 54.5t14.5 31.5t20.5 15t24.5 7q22 4 49.5 6.5t44.5 13.5v-103z" />
    <glyph glyph-name="ccedilla" unicode="&#xe7;" horiz-adv-x="444" 
d="M420 86q2 2 -2.5 7t-5.5 4q-26 -38 -65 -62t-93 -24q-20 0 -39.5 4.5t-33.5 17.5q-12 10 -21 24t-14.5 34.5t-8.5 50t-3 71.5t3 71.5t8.5 50.5t14.5 35t21 24q14 12 33.5 16.5t39.5 4.5q37 0 51.5 -10.5t14.5 -37.5q0 -11 -1.5 -17t-3.5 -11t-3.5 -10t-1.5 -14
q0 -15 11.5 -26.5t31.5 -11.5t32 11t12 34q0 18 -9.5 38t-28 36.5t-45 27.5t-60.5 11q-44 0 -82 -17.5t-67 -47.5t-45.5 -70.5t-16.5 -86.5q0 -44 15 -82.5t41.5 -68.5t62.5 -48.5t77 -21.5q-7 -11 -13.5 -29t-6.5 -34q0 -26 11 -38.5t23.5 -20.5t23.5 -14.5t11 -19.5
q0 -17 -11.5 -27t-36.5 -10q-39 0 -39 18q0 8 5 11t5 16q0 10 -6 15.5t-15 5.5q-12 0 -18 -8t-6 -19q0 -23 20 -41t54 -18t53 19.5t19 54.5q0 27 -10 39.5t-22.5 20t-22.5 16t-10 28.5q0 8 4 18.5t8 15.5q50 2 92 27.5t69 67.5z" />
    <glyph glyph-name="egrave" unicode="&#xe8;" horiz-adv-x="464" 
d="M428 239q0 26 -10.5 60t-32 64t-55.5 51t-81 21q-44 0 -81.5 -17.5t-65.5 -47.5t-43.5 -70.5t-15.5 -86.5t15.5 -86.5t43.5 -70.5t65.5 -47.5t81.5 -17.5q54 0 98 26.5t72 69.5q1 2 -4 6.5t-6 3.5q-26 -38 -66 -62t-94 -24q-20 0 -38.5 4.5t-33.5 17.5q-12 10 -20 24
t-12.5 34.5t-6.5 50t-2 71.5v12t-1 11h290q3 0 3 3zM341 255h-206q1 31 4 53t8 38t12 27.5t18 20.5q15 12 33.5 16.5t38.5 4.5q16 0 30.5 -4.5t27.5 -16.5q18 -18 25.5 -48t8.5 -91zM330 531q-53 12 -81 38.5t-45 53t-29.5 46.5t-33.5 20q-15 0 -23.5 -9.5t-8.5 -22.5
q0 -15 8.5 -33t32.5 -37.5t67 -39t112 -35.5q1 0 1.5 2.5t0.5 6.5v7t-1 3z" />
    <glyph glyph-name="eacute" unicode="&#xe9;" horiz-adv-x="464" 
d="M428 239q0 26 -10.5 60t-32 64t-55.5 51t-81 21q-44 0 -81.5 -17.5t-65.5 -47.5t-43.5 -70.5t-15.5 -86.5t15.5 -86.5t43.5 -70.5t65.5 -47.5t81.5 -17.5q54 0 98 26.5t72 69.5q1 2 -4 6.5t-6 3.5q-26 -38 -66 -62t-94 -24q-20 0 -38.5 4.5t-33.5 17.5q-12 10 -20 24
t-12.5 34.5t-6.5 50t-2 71.5v12t-1 11h290q3 0 3 3zM341 255h-206q1 31 4 53t8 38t12 27.5t18 20.5q15 12 33.5 16.5t38.5 4.5q16 0 30.5 -4.5t27.5 -16.5q18 -18 25.5 -48t8.5 -91zM414 657q0 13 -9 22.5t-24 9.5q-14 0 -23.5 -9.5t-18.5 -24t-20 -33t-27 -36t-40 -32.5
t-59 -23q-1 0 -1.5 -3t-0.5 -7t1 -6.5t2 -2.5q69 16 112 35.5t67 39t32.5 37.5t8.5 33z" />
    <glyph glyph-name="ecircumflex" unicode="&#xea;" horiz-adv-x="464" 
d="M428 239q0 26 -10.5 60t-32 64t-55.5 51t-81 21q-44 0 -81.5 -17.5t-65.5 -47.5t-43.5 -70.5t-15.5 -86.5t15.5 -86.5t43.5 -70.5t65.5 -47.5t81.5 -17.5q54 0 98 26.5t72 69.5q1 2 -4 6.5t-6 3.5q-26 -38 -66 -62t-94 -24q-20 0 -38.5 4.5t-33.5 17.5q-12 10 -20 24
t-12.5 34.5t-6.5 50t-2 71.5v12t-1 11h290q3 0 3 3zM341 255h-206q1 31 4 53t8 38t12 27.5t18 20.5q15 12 33.5 16.5t38.5 4.5q16 0 30.5 -4.5t27.5 -16.5q18 -18 25.5 -48t8.5 -91zM371 529q-42 51 -72.5 88t-53.5 69q-1 3 -4 0q-21 -32 -51.5 -69t-73.5 -88q-1 0 3.5 -5.5
t5.5 -3.5l114 92l126 -92q2 -2 5 3.5t1 5.5z" />
    <glyph glyph-name="edieresis" unicode="&#xeb;" horiz-adv-x="464" 
d="M428 239q0 26 -10.5 60t-32 64t-55.5 51t-81 21q-44 0 -81.5 -17.5t-65.5 -47.5t-43.5 -70.5t-15.5 -86.5t15.5 -86.5t43.5 -70.5t65.5 -47.5t81.5 -17.5q54 0 98 26.5t72 69.5q1 2 -4 6.5t-6 3.5q-26 -38 -66 -62t-94 -24q-20 0 -38.5 4.5t-33.5 17.5q-12 10 -20 24
t-12.5 34.5t-6.5 50t-2 71.5v12t-1 11h290q3 0 3 3zM341 255h-206q1 31 4 53t8 38t12 27.5t18 20.5q15 12 33.5 16.5t38.5 4.5q16 0 30.5 -4.5t27.5 -16.5q18 -18 25.5 -48t8.5 -91zM383 585q0 19 -13 32.5t-31 13.5q-17 0 -30 -13.5t-13 -32.5t13 -32t30 -13q18 0 31 13
t13 32zM201 585q0 19 -12.5 32.5t-31.5 13.5q-17 0 -30.5 -13.5t-13.5 -32.5t13.5 -32t30.5 -13q19 0 31.5 13t12.5 32z" />
    <glyph glyph-name="igrave" unicode="&#xec;" horiz-adv-x="281" 
d="M252 0q2 0 2 10t-2 10h-56q-6 0 -6 4v399q0 3 -3 3h-147q-2 0 -2 -10t2 -10h55q7 0 7 -4v-378q0 -4 -7 -4h-55q-2 0 -2 -10t2 -10h212zM200 531q-53 12 -81 38.5t-45 53t-29.5 46.5t-33.5 20q-15 0 -23.5 -9.5t-8.5 -22.5q0 -15 8.5 -33t32.5 -37.5t67 -39t112 -35.5
q1 0 1.5 2.5t0.5 6.5v7t-1 3z" />
    <glyph glyph-name="iacute" unicode="&#xed;" horiz-adv-x="281" 
d="M252 0q2 0 2 10t-2 10h-56q-6 0 -6 4v399q0 3 -3 3h-147q-2 0 -2 -10t2 -10h55q7 0 7 -4v-378q0 -4 -7 -4h-55q-2 0 -2 -10t2 -10h212zM297 657q0 13 -9 22.5t-24 9.5q-14 0 -23.5 -9.5t-18.5 -24t-20 -33t-27 -36t-40 -32.5t-59 -23q-1 0 -1.5 -3t-0.5 -7t1 -6.5t2 -2.5
q69 16 112 35.5t67 39t32.5 37.5t8.5 33z" />
    <glyph glyph-name="icircumflex" unicode="&#xee;" horiz-adv-x="281" 
d="M252 0q2 0 2 10t-2 10h-56q-6 0 -6 4v399q0 3 -3 3h-147q-2 0 -2 -10t2 -10h55q7 0 7 -4v-378q0 -4 -7 -4h-55q-2 0 -2 -10t2 -10h212zM268 529q-42 51 -72.5 88t-53.5 69q-1 3 -4 0q-21 -32 -51.5 -69t-73.5 -88q-1 0 3.5 -5.5t5.5 -3.5l114 92l126 -92q2 -2 5 3.5
t1 5.5z" />
    <glyph glyph-name="idieresis" unicode="&#xef;" horiz-adv-x="281" 
d="M252 0q2 0 2 10t-2 10h-56q-6 0 -6 4v399q0 3 -3 3h-147q-2 0 -2 -10t2 -10h55q7 0 7 -4v-378q0 -4 -7 -4h-55q-2 0 -2 -10t2 -10h212zM277 585q0 19 -13 32.5t-31 13.5q-17 0 -30 -13.5t-13 -32.5t13 -32t30 -13q18 0 31 13t13 32zM95 585q0 19 -12.5 32.5t-31.5 13.5
q-17 0 -30.5 -13.5t-13.5 -32.5t13.5 -32t30.5 -13q19 0 31.5 13t12.5 32z" />
    <glyph glyph-name="ntilde" unicode="&#xf1;" horiz-adv-x="541" 
d="M524 0q2 0 2 10t-2 10h-55q-6 0 -6 4v244q0 80 -44 123.5t-122 43.5q-17 0 -34.5 -4.5t-33 -13.5t-28 -24t-19.5 -36v66q0 3 -3 3h-146q-2 0 -2 -10t2 -10h55q8 0 8 -4v-378q0 -4 -8 -4h-55q-2 0 -2 -10t2 -10h211q2 0 2 10t-2 10h-55q-7 0 -7 4v292q17 52 43.5 75.5
t71.5 23.5q13 0 26.5 -6t25 -18.5t18.5 -32t7 -45.5v-289q0 -4 -5 -4h-55q-2 0 -2 -10t2 -10h210zM446 663q0 2 -9 2t-9 -2q0 -29 -10 -42.5t-38 -13.5q-17 0 -34.5 7t-37.5 16t-42 16t-47 7q-48 0 -79.5 -31t-31.5 -79q0 -2 9 -2q10 0 10 2q0 30 9.5 43t36.5 13q17 0 35 -7
t38 -15.5t42 -15.5t48 -7q23 0 43 8t35 22.5t23.5 34.5t8.5 44z" />
    <glyph glyph-name="ograve" unicode="&#xf2;" horiz-adv-x="507" 
d="M463 213q0 46 -16.5 86.5t-45 70.5t-67 47.5t-82.5 17.5q-43 0 -81 -17.5t-66.5 -47.5t-45 -70.5t-16.5 -86.5t16.5 -86.5t45 -70.5t66.5 -47.5t81 -17.5q44 0 82.5 17.5t67 47.5t45 70.5t16.5 86.5zM373 213q0 -42 -3 -71.5t-9 -50t-15 -34.5t-21 -24q-14 -13 -32 -17.5
t-41 -4.5q-21 0 -39.5 4.5t-32.5 17.5q-12 10 -21 24t-14.5 34.5t-8.5 50t-3 71.5q0 73 11.5 117t35.5 64q14 12 32.5 16.5t39.5 4.5q23 0 41 -4.5t32 -16.5q25 -20 36.5 -64t11.5 -117zM335 531q-53 12 -81 38.5t-45 53t-29.5 46.5t-33.5 20q-15 0 -23.5 -9.5t-8.5 -22.5
q0 -15 8.5 -33t32.5 -37.5t67 -39t112 -35.5q1 0 1.5 2.5t0.5 6.5v7t-1 3z" />
    <glyph glyph-name="oacute" unicode="&#xf3;" horiz-adv-x="507" 
d="M463 213q0 46 -16.5 86.5t-45 70.5t-67 47.5t-82.5 17.5q-43 0 -81 -17.5t-66.5 -47.5t-45 -70.5t-16.5 -86.5t16.5 -86.5t45 -70.5t66.5 -47.5t81 -17.5q44 0 82.5 17.5t67 47.5t45 70.5t16.5 86.5zM373 213q0 -42 -3 -71.5t-9 -50t-15 -34.5t-21 -24q-14 -13 -32 -17.5
t-41 -4.5q-21 0 -39.5 4.5t-32.5 17.5q-12 10 -21 24t-14.5 34.5t-8.5 50t-3 71.5q0 73 11.5 117t35.5 64q14 12 32.5 16.5t39.5 4.5q23 0 41 -4.5t32 -16.5q25 -20 36.5 -64t11.5 -117zM409 657q0 13 -9 22.5t-24 9.5q-14 0 -23.5 -9.5t-18.5 -24t-20 -33t-27 -36
t-40 -32.5t-59 -23q-1 0 -1.5 -3t-0.5 -7t1 -6.5t2 -2.5q69 16 112 35.5t67 39t32.5 37.5t8.5 33z" />
    <glyph glyph-name="ocircumflex" unicode="&#xf4;" horiz-adv-x="507" 
d="M463 213q0 46 -16.5 86.5t-45 70.5t-67 47.5t-82.5 17.5q-43 0 -81 -17.5t-66.5 -47.5t-45 -70.5t-16.5 -86.5t16.5 -86.5t45 -70.5t66.5 -47.5t81 -17.5q44 0 82.5 17.5t67 47.5t45 70.5t16.5 86.5zM373 213q0 -42 -3 -71.5t-9 -50t-15 -34.5t-21 -24q-14 -13 -32 -17.5
t-41 -4.5q-21 0 -39.5 4.5t-32.5 17.5q-12 10 -21 24t-14.5 34.5t-8.5 50t-3 71.5q0 73 11.5 117t35.5 64q14 12 32.5 16.5t39.5 4.5q23 0 41 -4.5t32 -16.5q25 -20 36.5 -64t11.5 -117zM383 529q-42 51 -72.5 88t-53.5 69q-1 3 -4 0q-21 -32 -51.5 -69t-73.5 -88
q-1 0 3.5 -5.5t5.5 -3.5l114 92l126 -92q2 -2 5 3.5t1 5.5z" />
    <glyph glyph-name="otilde" unicode="&#xf5;" horiz-adv-x="507" 
d="M463 213q0 46 -16.5 86.5t-45 70.5t-67 47.5t-82.5 17.5q-43 0 -81 -17.5t-66.5 -47.5t-45 -70.5t-16.5 -86.5t16.5 -86.5t45 -70.5t66.5 -47.5t81 -17.5q44 0 82.5 17.5t67 47.5t45 70.5t16.5 86.5zM373 213q0 -42 -3 -71.5t-9 -50t-15 -34.5t-21 -24q-14 -13 -32 -17.5
t-41 -4.5q-21 0 -39.5 4.5t-32.5 17.5q-12 10 -21 24t-14.5 34.5t-8.5 50t-3 71.5q0 73 11.5 117t35.5 64q14 12 32.5 16.5t39.5 4.5q23 0 41 -4.5t32 -16.5q25 -20 36.5 -64t11.5 -117zM429 663q0 2 -9 2t-9 -2q0 -29 -10 -42.5t-38 -13.5q-17 0 -34.5 7t-37.5 16t-42 16
t-47 7q-48 0 -79.5 -31t-31.5 -79q0 -2 9 -2q10 0 10 2q0 30 9.5 43t36.5 13q17 0 35 -7t38 -15.5t42 -15.5t48 -7q23 0 43 8t35 22.5t23.5 34.5t8.5 44z" />
    <glyph glyph-name="odieresis" unicode="&#xf6;" horiz-adv-x="507" 
d="M463 213q0 46 -16.5 86.5t-45 70.5t-67 47.5t-82.5 17.5q-43 0 -81 -17.5t-66.5 -47.5t-45 -70.5t-16.5 -86.5t16.5 -86.5t45 -70.5t66.5 -47.5t81 -17.5q44 0 82.5 17.5t67 47.5t45 70.5t16.5 86.5zM373 213q0 -42 -3 -71.5t-9 -50t-15 -34.5t-21 -24q-14 -13 -32 -17.5
t-41 -4.5q-21 0 -39.5 4.5t-32.5 17.5q-12 10 -21 24t-14.5 34.5t-8.5 50t-3 71.5q0 73 11.5 117t35.5 64q14 12 32.5 16.5t39.5 4.5q23 0 41 -4.5t32 -16.5q25 -20 36.5 -64t11.5 -117zM391 585q0 19 -13 32.5t-31 13.5q-17 0 -30 -13.5t-13 -32.5t13 -32t30 -13
q18 0 31 13t13 32zM209 585q0 19 -12.5 32.5t-31.5 13.5q-17 0 -30.5 -13.5t-13.5 -32.5t13.5 -32t30.5 -13q19 0 31.5 13t12.5 32z" />
    <glyph glyph-name="oslash" unicode="&#xf8;" horiz-adv-x="523" 
d="M471 213q0 55 -23 101.5t-62 77.5l31 51q0 1 -2 3.5t-5 4.5t-6 3.5t-3 0.5l-32 -52q-23 15 -51 23.5t-58 8.5q-43 0 -81 -17.5t-66.5 -47.5t-45 -70.5t-16.5 -86.5q0 -55 23.5 -101.5t62.5 -77.5l-32 -52l2.5 -1.5t5.5 -3.5t6 -3.5t3 -0.5l31 50q25 -15 51.5 -23.5
t55.5 -8.5q44 0 82.5 17.5t67 47.5t45 70.5t16.5 86.5zM351 374l-190 -303q-9 22 -14.5 55.5t-5.5 86.5q0 73 11.5 117t35.5 64q14 12 32.5 16.5t39.5 4.5q23 0 41 -4.5t32 -16.5q5 -5 9.5 -10t8.5 -10zM381 213q0 -42 -3 -71.5t-9 -50t-15 -34.5t-21 -24q-14 -13 -32 -17.5
t-41 -4.5q-21 0 -39.5 4.5t-32.5 17.5q-12 8 -17 19l189 302q21 -48 21 -141z" />
    <glyph glyph-name="ugrave" unicode="&#xf9;" horiz-adv-x="531" 
d="M511 0q2 0 2 10t-2 10h-55q-7 0 -7 4v399q0 3 -3 3h-146q-2 0 -2 -10t2 -10h55q7 0 7 -4v-292q-17 -52 -43 -75.5t-72 -23.5q-12 0 -26 6t-25.5 18.5t-19 31.5t-7.5 46v310q0 3 -2 3h-148q-1 0 -1 -10t1 -10h56q7 0 7 -4v-251q0 -80 44.5 -120t120.5 -40q17 0 34.5 4.5
t33 13.5t28 24t19.5 36v-66q0 -3 3 -3h146zM343 531q-53 12 -81 38.5t-45 53t-29.5 46.5t-33.5 20q-15 0 -23.5 -9.5t-8.5 -22.5q0 -15 8.5 -33t32.5 -37.5t67 -39t112 -35.5q1 0 1.5 2.5t0.5 6.5v7t-1 3z" />
    <glyph glyph-name="uacute" unicode="&#xfa;" horiz-adv-x="531" 
d="M511 0q2 0 2 10t-2 10h-55q-7 0 -7 4v399q0 3 -3 3h-146q-2 0 -2 -10t2 -10h55q7 0 7 -4v-292q-17 -52 -43 -75.5t-72 -23.5q-12 0 -26 6t-25.5 18.5t-19 31.5t-7.5 46v310q0 3 -2 3h-148q-1 0 -1 -10t1 -10h56q7 0 7 -4v-251q0 -80 44.5 -120t120.5 -40q17 0 34.5 4.5
t33 13.5t28 24t19.5 36v-66q0 -3 3 -3h146zM395 657q0 13 -9 22.5t-24 9.5q-14 0 -23.5 -9.5t-18.5 -24t-20 -33t-27 -36t-40 -32.5t-59 -23q-1 0 -1.5 -3t-0.5 -7t1 -6.5t2 -2.5q69 16 112 35.5t67 39t32.5 37.5t8.5 33z" />
    <glyph glyph-name="ucircumflex" unicode="&#xfb;" horiz-adv-x="531" 
d="M511 0q2 0 2 10t-2 10h-55q-7 0 -7 4v399q0 3 -3 3h-146q-2 0 -2 -10t2 -10h55q7 0 7 -4v-292q-17 -52 -43 -75.5t-72 -23.5q-12 0 -26 6t-25.5 18.5t-19 31.5t-7.5 46v310q0 3 -2 3h-148q-1 0 -1 -10t1 -10h56q7 0 7 -4v-251q0 -80 44.5 -120t120.5 -40q17 0 34.5 4.5
t33 13.5t28 24t19.5 36v-66q0 -3 3 -3h146zM383 529q-42 51 -72.5 88t-53.5 69q-1 3 -4 0q-21 -32 -51.5 -69t-73.5 -88q-1 0 3.5 -5.5t5.5 -3.5l114 92l126 -92q2 -2 5 3.5t1 5.5z" />
    <glyph glyph-name="udieresis" unicode="&#xfc;" horiz-adv-x="531" 
d="M511 0q2 0 2 10t-2 10h-55q-7 0 -7 4v399q0 3 -3 3h-146q-2 0 -2 -10t2 -10h55q7 0 7 -4v-292q-17 -52 -43 -75.5t-72 -23.5q-12 0 -26 6t-25.5 18.5t-19 31.5t-7.5 46v310q0 3 -2 3h-148q-1 0 -1 -10t1 -10h56q7 0 7 -4v-251q0 -80 44.5 -120t120.5 -40q17 0 34.5 4.5
t33 13.5t28 24t19.5 36v-66q0 -3 3 -3h146zM383 585q0 19 -13 32.5t-31 13.5q-17 0 -30 -13.5t-13 -32.5t13 -32t30 -13q18 0 31 13t13 32zM201 585q0 19 -12.5 32.5t-31.5 13.5q-17 0 -30.5 -13.5t-13.5 -32.5t13.5 -32t30.5 -13q19 0 31.5 13t12.5 32z" />
    <glyph glyph-name="ydieresis" unicode="&#xff;" horiz-adv-x="446" 
d="M471 406q3 0 3 10t-3 10h-150q-2 0 -2 -10t2 -10h57q5 0 4.5 -6.5t-11.5 -35.5l-101 -271l-135 309q-1 4 4 4h61q2 0 2 10t-2 10h-221q-2 0 -2 -10t2 -10h54q7 0 8 -4l191 -413l-85 -228q-8 -20 -16 -31t-15.5 -16.5t-14.5 -7t-12 -1.5q-11 0 -16 6t-5 14t3 13.5t7 10.5
t7 11t3 15q0 15 -10.5 26.5t-30.5 11.5q-21 0 -34.5 -17t-13.5 -41q0 -28 20.5 -50.5t51.5 -22.5q30 0 53.5 18t40.5 63l223 601q10 28 14.5 35t11.5 7h57zM382 585q0 19 -13 32.5t-31 13.5q-17 0 -30 -13.5t-13 -32.5t13 -32t30 -13q18 0 31 13t13 32zM200 585
q0 19 -12.5 32.5t-31.5 13.5q-17 0 -30.5 -13.5t-13.5 -32.5t13.5 -32t30.5 -13q19 0 31.5 13t12.5 32z" />
    <glyph glyph-name="dotlessi" unicode="&#x131;" horiz-adv-x="281" 
d="M252 0q2 0 2 10t-2 10h-56q-6 0 -6 4v399q0 3 -3 3h-147q-2 0 -2 -10t2 -10h55q7 0 7 -4v-378q0 -4 -7 -4h-55q-2 0 -2 -10t2 -10h212z" />
    <glyph glyph-name="OE" unicode="&#x152;" horiz-adv-x="916" 
d="M884 3v209q0 2 -9 2t-9 -2q0 -39 -11 -73.5t-36 -61t-64.5 -42t-96.5 -15.5h-100q-6 0 -6 4v330h30q56 0 85.5 -31.5t29.5 -82.5q0 -2 9 -2t9 2v248q0 2 -9 2t-9 -2q0 -52 -29.5 -83t-85.5 -31h-30v311q0 4 6 4h97q44 0 74.5 -14t50 -37.5t28.5 -54.5t9 -66q0 -2 9 -2
q10 0 10 2v189q0 3 -3 3h-476q-63 0 -118 -28t-95.5 -76.5t-64 -113t-23.5 -137.5t23.5 -137.5t64.5 -112.5t96 -76t117 -28h524q3 0 3 3zM442 22q0 -4 -6 -4h-79q-32 0 -60.5 8t-51.5 29q-18 16 -31.5 39t-23 58t-14 84t-4.5 118q0 121 18.5 194t54.5 106q23 21 51.5 28
t60.5 7h79q6 0 6 -2v-665z" />
    <glyph glyph-name="oe" unicode="&#x153;" horiz-adv-x="784" 
d="M749 239q0 26 -10.5 60t-32 64t-55.5 51t-81 21q-30 0 -54 -7t-43 -19t-33.5 -28.5t-26.5 -34.5q-24 36 -61 62.5t-99 26.5q-44 0 -82 -17.5t-66.5 -47.5t-45 -70.5t-16.5 -86.5t16.5 -86.5t45 -70.5t66.5 -47.5t82 -17.5q62 0 99.5 27t60.5 62q11 -18 25.5 -34t33.5 -28
t43 -19.5t55 -7.5q53 0 97 27t73 70q1 2 -4 6t-6 3q-26 -38 -66.5 -62t-93.5 -24q-20 0 -38.5 4t-32.5 17q-12 10 -20 24t-13.5 35t-7.5 50.5t-2 71.5v23h290l1.5 0.5t1.5 2.5zM663 256h-207q2 61 12 90.5t31 47.5q14 13 32.5 17t38.5 4q17 0 31.5 -4t26.5 -17
q9 -9 15 -20.5t10 -27.5t6.5 -38t3.5 -52zM374 213q0 -42 -3 -71.5t-9 -50.5t-15.5 -35t-21.5 -24q-14 -13 -31.5 -17t-40.5 -4t-41 4t-32 17q-12 10 -21 24t-14.5 35t-8.5 50.5t-3 71.5q0 74 11.5 117.5t35.5 63.5q14 13 32 17t41 4t40.5 -4t31.5 -17q25 -20 37 -63.5
t12 -117.5z" />
    <glyph glyph-name="Ydieresis" unicode="&#x178;" horiz-adv-x="632" 
d="M633 689q2 0 2 10t-2 10h-197q-2 0 -2 -10t2 -10h85q5 0 3.5 -6.5t-14.5 -35.5l-133 -306l-162 344q0 4 3 4h91q2 0 2 10t-2 10h-313q-2 0 -2 -10t2 -10h92q5 0 7 -4l178 -376v-285q0 -4 -4 -4h-83q-2 0 -2 -10t2 -10h284q1 0 1 10t-1 10h-82q-5 0 -5 4v284l141 328
q8 18 13 29t8.5 16t5.5 6.5t4 1.5h78zM506 840q0 19 -13 32.5t-31 13.5q-17 0 -30 -13.5t-13 -32.5t13 -32t30 -13q18 0 31 13t13 32zM324 840q0 19 -12.5 32.5t-31.5 13.5q-17 0 -30.5 -13.5t-13.5 -32.5t13.5 -32t30.5 -13q19 0 31.5 13t12.5 32z" />
    <glyph glyph-name="florin" unicode="&#x192;" horiz-adv-x="408" 
d="M504 654q0 17 -7 33t-19 29t-27.5 20.5t-32.5 7.5q-42 0 -85 -27t-78 -77.5t-59.5 -122.5t-30.5 -163l-1 -20q0 -3 -6 -3h-92q-1 0 -1 -10t1 -10h92q6 0 5 -4q-9 -133 -18 -244t-26.5 -191t-47 -124.5t-78.5 -44.5q-16 0 -23.5 9.5t-7.5 24.5q0 9 2.5 15t5 10.5t5 9.5
t2.5 13q0 15 -9.5 25.5t-31.5 10.5q-20 0 -34 -14.5t-14 -33.5q0 -18 7 -34t19 -28.5t29 -20t37 -7.5q51 0 91 28t70 75t51.5 108.5t36 128.5t22.5 135.5t12 128.5l1 20q2 4 8 4h90q2 0 2 10t-2 10h-90q-7 0 -7 3q9 131 25.5 208t36 117t39 51.5t32.5 11.5q32 0 32 -33
q0 -10 -2.5 -15.5t-5.5 -9.5t-5.5 -9t-2.5 -13q0 -16 10 -26t33 -10q20 0 33.5 14t13.5 34z" />
    <glyph glyph-name="circumflex" unicode="&#x2c6;" horiz-adv-x="317" 
d="M294 529q-42 51 -72.5 88t-53.5 69q-1 3 -4 0q-21 -32 -51.5 -69t-73.5 -88q-1 0 3.5 -5.5t5.5 -3.5l114 92l126 -92q2 -2 5 3.5t1 5.5z" />
    <glyph glyph-name="caron" unicode="&#x2c7;" horiz-adv-x="317" 
d="M284 675q2 1 -2 6.5t-6 3.5l-114 -92l-126 92q-1 2 -4.5 -3.5t-1.5 -6.5q43 -50 74 -87.5t51 -69.5q1 -1 5 0q21 32 51.5 69.5t72.5 87.5z" />
    <glyph glyph-name="breve" unicode="&#x2d8;" horiz-adv-x="366" 
d="M324 689q0 2 -10 2q-9 0 -9 -2q0 -17 -4 -35t-17 -32.5t-37.5 -24t-64.5 -9.5t-64 9.5t-37 24t-17 32.5t-4 35q0 2 -10 2t-10 -2q0 -24 7 -51t23.5 -50.5t43.5 -38.5t68 -15t68.5 15t44 38.5t23 50.5t6.5 51z" />
    <glyph glyph-name="dotaccent" unicode="&#x2d9;" horiz-adv-x="243" 
d="M166 585q0 19 -12.5 32.5t-31.5 13.5q-17 0 -30.5 -13.5t-13.5 -32.5t13.5 -32t30.5 -13q19 0 31.5 13t12.5 32z" />
    <glyph glyph-name="ring" unicode="&#x2da;" horiz-adv-x="277" 
d="M217 608q0 32 -22.5 54.5t-54.5 22.5t-54.5 -22.5t-22.5 -54.5t22.5 -54.5t54.5 -22.5t54.5 22.5t22.5 54.5zM197 608q0 -23 -17 -40t-40 -17q-24 0 -41 17t-17 40t17 40t41 17q23 0 40 -17t17 -40z" />
    <glyph glyph-name="ogonek" unicode="&#x2db;" horiz-adv-x="268" 
d="M219 -155l-4.5 7t-5.5 5q-6 -12 -18 -22t-27 -10q-22 0 -40 12t-18 50q0 40 25 67t59 44q2 1 -3 9t-6 7q-60 -32 -93 -68t-33 -70q0 -35 20 -56.5t58 -21.5q32 0 52 13.5t34 33.5z" />
    <glyph glyph-name="tilde" unicode="&#x2dc;" horiz-adv-x="390" 
d="M363 663q0 2 -9 2t-9 -2q0 -29 -10 -42.5t-38 -13.5q-17 0 -34.5 7t-37.5 16t-42 16t-47 7q-48 0 -79.5 -31t-31.5 -79q0 -2 9 -2q10 0 10 2q0 30 9.5 43t36.5 13q17 0 35 -7t38 -15.5t42 -15.5t48 -7q23 0 43 8t35 22.5t23.5 34.5t8.5 44z" />
    <glyph glyph-name="hungarumlaut" unicode="&#x2dd;" horiz-adv-x="518" 
d="M455 675q0 16 -10 26t-26 10q-22 0 -36 -23.5t-33 -54t-49.5 -60t-85.5 -42.5q-2 -2 -1.5 -11t2.5 -9q74 18 120.5 39.5t73 43t36 42.5t9.5 39zM276 675q0 16 -9.5 26t-26.5 10q-15 0 -25.5 -11t-20.5 -28t-22.5 -38t-30.5 -41t-43 -36.5t-62 -25.5q-2 -2 -1.5 -11
t2.5 -9q75 18 121.5 39.5t73 43t35.5 42.5t9 39z" />
    <glyph glyph-name="Omega" unicode="&#x3a9;" horiz-adv-x="577" 
d="M629 654q0 17 -7.5 33t-20 29t-29 20.5t-34.5 7.5q-37 0 -67.5 -15t-52 -50t-33.5 -91.5t-12 -138.5v-19q0 -4 -6 -4h-162q-6 0 -6 4v167q0 34 5 57t13.5 36.5t18.5 19t21 5.5q33 0 33 -32q0 -11 -2 -16.5t-4.5 -10t-4.5 -9t-2 -13.5q0 -14 11 -24.5t34 -10.5
q20 0 32 14.5t12 33.5q0 17 -7.5 33t-19.5 29t-28 20.5t-34 7.5q-37 0 -67.5 -15t-52.5 -50t-34 -91.5t-12 -138.5v-12q0 -4 -6 -4h-69q-2 0 -2 -10t2 -10h69q6 0 6 -4v-378q0 -4 -6 -4h-55q-2 0 -2 -10t2 -10h210q3 0 3 10t-3 10h-55q-6 0 -6 4v378q0 4 6 4h162q6 0 6 -4
v-378q0 -4 -6 -4h-56q-2 0 -2 -10t2 -10h211q2 0 2 10t-2 10h-56q-6 0 -6 4v378q0 4 6 4h86v20h-86q-6 0 -6 4v174q0 34 5 57t13.5 36.5t18.5 19t21 5.5q34 0 34 -32q0 -11 -2 -16.5t-5 -10t-5 -9t-2 -13.5q0 -14 11 -24.5t33 -10.5q20 0 33.5 14.5t13.5 33.5z" />
    <glyph glyph-name="endash" unicode="&#x2013;" horiz-adv-x="537" 
d="M495 226q2 0 2 10t-2 10h-453q-2 0 -2 -10t2 -10h453z" />
    <glyph glyph-name="emdash" unicode="&#x2014;" horiz-adv-x="991" 
d="M949 226q2 0 2 10t-2 10h-907q-2 0 -2 -10t2 -10h907z" />
    <glyph glyph-name="quoteleft" unicode="&#x2018;" horiz-adv-x="184" 
d="M148 707q1 0 -1 8.5t-4 7.5q-22 -8 -40 -26t-31 -40.5t-20 -46.5t-7 -43q0 -29 12 -46t36 -17q17 0 30 15t13 35q0 28 -17 39q-27 20 -27 48q0 27 30 52q11 8 26 14z" />
    <glyph glyph-name="quoteright" unicode="&#x2019;" horiz-adv-x="192" 
d="M146 664q0 28 -12 45t-35 17q-18 0 -30.5 -14.5t-12.5 -34.5q0 -29 16 -39q28 -21 28 -48q0 -14 -8.5 -27t-22.5 -24q-11 -10 -26 -15q-1 0 1 -8t4 -7q22 7 40 25t31 40.5t20 46.5t7 43z" />
    <glyph glyph-name="quotesinglbase" unicode="&#x201a;" horiz-adv-x="192" 
d="M146 34q0 29 -12 45.5t-35 16.5q-18 0 -30.5 -14t-12.5 -34q0 -30 16 -39q28 -22 28 -49q0 -14 -8.5 -26.5t-22.5 -24.5q-5 -4 -11.5 -8t-14.5 -6q-1 0 1 -8.5t4 -7.5q22 7 40 25t31 40.5t20 46.5t7 43z" />
    <glyph glyph-name="quotedblleft" unicode="&#x201c;" horiz-adv-x="333" 
d="M290 707l-1.5 8.5t-3.5 7.5q-22 -8 -40.5 -26t-31.5 -40.5t-20 -46.5t-7 -43q0 -29 12 -46t35 -17q19 0 31.5 15t12.5 35q0 30 -16 39q-28 21 -28 48q0 13 8.5 26.5t22.5 25.5q10 8 26 14zM148 707q1 0 -1 8.5t-4 7.5q-22 -8 -40 -26t-31 -40.5t-20 -46.5t-7 -43
q0 -29 12 -46t36 -17q17 0 30 15t13 35q0 28 -17 39q-27 20 -27 48q0 27 30 52q11 8 26 14z" />
    <glyph glyph-name="quotedblright" unicode="&#x201d;" horiz-adv-x="333" 
d="M287 664q0 28 -11.5 45t-34.5 17q-18 0 -31 -14.5t-13 -34.5q0 -29 15 -39q29 -20 29 -48q0 -14 -8.5 -27t-22.5 -24q-4 -5 -11 -8.5t-14 -6.5l1.5 -8t3.5 -7q21 7 39 25t31 40.5t20 46.5t7 43zM146 664q0 28 -12 45t-35 17q-18 0 -30.5 -14.5t-12.5 -34.5q0 -29 16 -39
q28 -21 28 -48q0 -14 -8.5 -27t-22.5 -24q-11 -10 -26 -15q-1 0 1 -8t4 -7q22 7 40 25t31 40.5t20 46.5t7 43z" />
    <glyph glyph-name="quotedblbase" unicode="&#x201e;" horiz-adv-x="333" 
d="M288 34q0 29 -12 45.5t-35 16.5q-18 0 -30.5 -14t-12.5 -34q0 -30 16 -39q28 -22 28 -49q0 -14 -8.5 -26.5t-22.5 -24.5q-5 -4 -11.5 -8t-14.5 -6l1.5 -8.5t3.5 -7.5q22 7 40 25t31 40.5t20 46.5t7 43zM146 34q0 29 -12 45.5t-35 16.5q-18 0 -30.5 -14t-12.5 -34
q0 -30 16 -39q28 -22 28 -49q0 -14 -8.5 -26.5t-22.5 -24.5q-5 -4 -11.5 -8t-14.5 -6q-1 0 1 -8.5t4 -7.5q22 7 40 25t31 40.5t20 46.5t7 43z" />
    <glyph glyph-name="dagger" unicode="&#x2020;" horiz-adv-x="575" 
d="M541 376q0 14 -10 31.5t-27.5 33t-41 26t-50.5 10.5q-42 0 -65 -13t-34 -33q0 12 1.5 21t3.5 17.5t3.5 18t1.5 24.5q0 29 -8 57t-8 44q0 8 4 15.5t9.5 16.5t9.5 20.5t4 26.5q0 23 -13.5 37.5t-33.5 14.5t-34.5 -14.5t-14.5 -37.5q0 -15 4.5 -26.5t10 -20.5t10 -16.5
t4.5 -15.5q0 -16 -8 -44t-8 -57q0 -15 1.5 -24.5t3 -18t3 -17.5t1.5 -21q-10 20 -33 33t-65 13q-26 0 -49.5 -10.5t-41 -26t-27.5 -33t-10 -31.5q0 -17 7.5 -31.5t27.5 -14.5t29 11t9 25q0 13 -3.5 20t-3.5 21q0 13 6.5 22.5t16 15.5t20.5 9t19 3q51 0 77.5 -25t26.5 -90
q0 -20 -5.5 -32.5t-13 -20t-15 -11t-11.5 -5.5q-1 0 -1 -3t0.5 -7t1 -6.5t1.5 -2.5q15 7 26 -28t17.5 -108.5t10 -183t3.5 -251.5q0 -2 6 -2t6 2q0 142 3.5 251.5t11 183t18 108.5t25.5 28q1 0 1.5 2.5t0.5 6.5v7t-1 3q-3 2 -10.5 5.5t-14.5 11t-12.5 20t-5.5 32.5
q0 65 26.5 90t77.5 25q8 0 18.5 -3t20 -9t16 -15.5t6.5 -22.5q0 -14 -4 -21t-4 -20q0 -14 9.5 -25t30.5 -11q19 0 27.5 14.5t8.5 31.5z" />
    <glyph glyph-name="daggerdbl" unicode="&#x2021;" horiz-adv-x="567" 
d="M529 -6q0 19 -8.5 31t-27.5 12t-28.5 -9.5t-9.5 -23.5q0 -13 4.5 -19.5t4.5 -20.5q0 -13 -5.5 -20t-13.5 -10t-17.5 -3.5t-18.5 -0.5q-23 0 -42 4.5t-32.5 17t-20.5 34t-7 56.5q0 20 4 30.5t10 15.5t12.5 6t10.5 3q1 0 1 3v6q0 4 -0.5 6.5t-1.5 2.5q-8 -3 -12 -3
q-19 0 -29 29t-10 72q0 44 10 73t29 29q4 0 12 -3q1 0 1.5 2.5t0.5 5.5v7t-1 3q-4 2 -10.5 3t-12.5 5.5t-10 15t-4 30.5q0 34 7 56t20.5 35t32.5 17.5t42 4.5q9 0 18.5 -0.5t17.5 -3.5t13.5 -10.5t5.5 -20.5t-4.5 -20t-4.5 -20q0 -14 9.5 -23t28.5 -9t27.5 12t8.5 30
q0 14 -9 29t-24.5 27.5t-37.5 20.5t-49 8q-36 0 -59 -9.5t-37 -34.5q0 12 1.5 18.5t3.5 12.5t3.5 13.5t1.5 22.5q0 14 -2.5 24.5t-6 18.5t-6 15t-2.5 15t4.5 16t9.5 17.5t9.5 20.5t4.5 25q0 24 -15.5 38t-35.5 14t-35.5 -14t-15.5 -38q0 -14 4.5 -25t9.5 -20.5t9.5 -17.5
t4.5 -16t-2.5 -15t-6 -15t-6 -18.5t-2.5 -24.5q0 -15 1.5 -22.5t3.5 -13.5t3.5 -12.5t1.5 -18.5q-14 25 -36.5 34.5t-59.5 9.5q-27 0 -49 -8t-38 -20.5t-24.5 -27.5t-8.5 -29q0 -18 8.5 -30t27.5 -12q20 0 28.5 9t8.5 23q0 13 -3.5 20t-3.5 20t5 20.5t13 10.5t17.5 3.5
t18.5 0.5q24 0 43 -4.5t32.5 -17.5t20.5 -35t7 -56q0 -20 -4 -30.5t-10 -15t-12.5 -5.5t-10.5 -3q-1 -1 -0.5 -10t1.5 -8q7 3 12 3q20 0 29 -29t9 -73q0 -43 -9 -72t-29 -29q-5 0 -12 3l-0.5 -2.5t-0.5 -6.5v-6v-3q4 -2 10.5 -3t12.5 -6t10 -15.5t4 -30.5q0 -35 -7 -56.5
t-20.5 -34t-32.5 -17t-43 -4.5q-9 0 -18.5 0.5t-17.5 3.5t-13 10t-5 20q0 14 3.5 20.5t3.5 19.5q0 14 -8.5 23.5t-28.5 9.5q-19 0 -27.5 -12t-8.5 -31q0 -14 8.5 -29t24.5 -27t38 -20t49 -8q37 0 59.5 9.5t36.5 34.5q0 -12 -1.5 -19t-3.5 -13t-3.5 -13.5t-1.5 -21.5
t2.5 -24.5t6 -18.5t6 -15t2.5 -15t-4.5 -16t-9.5 -17.5t-9.5 -21t-4.5 -24.5q0 -24 15.5 -38t35.5 -14t35.5 14t15.5 38q0 13 -4.5 24.5t-9.5 21t-9.5 17.5t-4.5 16t2.5 15t6 15t6 18.5t2.5 24.5t-1.5 21.5t-3.5 13.5t-3.5 13t-1.5 19q14 -25 37 -34.5t59 -9.5q27 0 49 8
t37.5 20t24.5 27t9 29z" />
    <glyph glyph-name="bullet" unicode="&#x2022;" horiz-adv-x="315" 
d="M258 354q0 23 -8 43t-21.5 35t-32 24t-39.5 9t-39 -9t-32 -24t-22 -35t-8 -43t8 -43.5t22 -35.5t32 -24t39 -9t39.5 9t32 24t21.5 35.5t8 43.5z" />
    <glyph glyph-name="ellipsis" unicode="&#x2026;" horiz-adv-x="575" 
d="M517 38q0 22 -14.5 36.5t-34.5 14.5t-34 -14.5t-14 -36.5q0 -21 14 -36t34 -15t34.5 15t14.5 36zM336 38q0 22 -14 36.5t-35 14.5q-19 0 -33 -14.5t-14 -36.5q0 -21 14 -36t33 -15q21 0 35 15t14 36zM156 38q0 22 -14.5 36.5t-34.5 14.5t-33.5 -14.5t-13.5 -36.5
q0 -21 13.5 -36t33.5 -15t34.5 15t14.5 36z" />
    <glyph glyph-name="perthousand" unicode="&#x2030;" horiz-adv-x="1041" 
d="M998 220q0 60 -31 93t-79 33q-45 0 -84 -21.5t-67 -54.5t-44 -73.5t-16 -79.5q0 -60 31 -93t78 -33q45 0 84 21.5t67.5 54.5t44.5 73.5t16 79.5zM364 587q0 60 -30.5 93t-77.5 33q-46 0 -84.5 -21.5t-67 -54.5t-44.5 -73.5t-16 -79.5q0 -60 30.5 -93t78.5 -33
q45 0 84 21.5t67 54.5t44 73.5t16 79.5zM561 725q0 1 -2.5 3t-5.5 4t-6 3.5t-3 0.5l-411 -749q-1 -2 6.5 -7.5t8.5 -3.5zM650 220q0 60 -31 93t-79 33q-45 0 -83.5 -21.5t-67 -54.5t-44.5 -73.5t-16 -79.5q0 -60 31 -93t78 -33q45 0 84 21.5t67.5 54.5t44.5 73.5t16 79.5z
M937 258q0 -23 -5 -55t-15 -65.5t-26.5 -63t-38.5 -45.5q-14 -11 -29 -14.5t-32 -3.5q-29 0 -39.5 16t-10.5 52q0 22 4.5 54.5t15 66t26 62.5t38.5 46q14 11 28.5 14.5t31.5 3.5q29 0 40.5 -16t11.5 -52zM302 625q0 -23 -4.5 -55t-15 -65.5t-26.5 -63t-38 -45.5
q-14 -11 -29 -14.5t-32 -3.5q-29 0 -40 16t-11 52q0 22 4.5 54.5t15 66t26 62.5t38.5 46q14 11 29 14.5t32 3.5q29 0 40 -16t11 -52zM588 258q0 -23 -4.5 -55t-14.5 -65.5t-26 -63t-39 -45.5q-14 -11 -29 -14.5t-32 -3.5q-29 0 -40.5 16t-11.5 52q0 22 5 54.5t15 66t26 62.5
t39 46q14 11 29 14.5t32 3.5q29 0 40 -16t11 -52z" />
    <glyph glyph-name="guilsinglleft" unicode="&#x2039;" horiz-adv-x="228" 
d="M188 51q0 24 -6.5 48t-16.5 46t-22 39.5t-22 28.5q10 10 22 28t22 40t16.5 46t6.5 48q0 4 -10 4t-10 -4q0 -29 -16.5 -56t-38.5 -48t-43 -36t-31 -20q-4 -2 0 -4q10 -5 31 -20t43 -36t38.5 -48t16.5 -56q0 -4 10 -4t10 4z" />
    <glyph glyph-name="guilsinglright" unicode="&#x203a;" horiz-adv-x="228" 
d="M187 211q4 2 0 4q-9 5 -30.5 20t-43 36t-38.5 48t-17 56q0 4 -10 4t-10 -4q0 -24 6.5 -48t17 -46t22 -40t22.5 -28q-11 -11 -22.5 -28.5t-22 -39.5t-17 -46t-6.5 -48q0 -4 10 -4t10 4q0 29 17 56t38.5 48t43 36t30.5 20z" />
    <glyph glyph-name="trademark" unicode="&#x2122;" horiz-adv-x="500" 
d="M479 515q1 0 1 8t-1 8h-24h-2v1v159q0 1 2 1h24q1 0 1 8q0 9 -1 9h-68q-2 0 -4 -5l-52 -137l-47 137q-2 5 -6 5h-68q-1 0 -1 -9q0 -8 1 -8h25q2 0 2 -1v-159l-0.5 -0.5t-1.5 -0.5h-25q-1 0 -1 -8t1 -8h69q1 0 1 8t-1 8h-23q-1 0 -2 0.5l-1 0.5v147l64 -167q0 -1 6 -1
q7 0 7 1l61 168v-148l-0.5 -0.5t-1.5 -0.5h-23q-1 0 -1 -8t1 -8h89zM206 647v61v0q0 1 -1 1h-171l-1 -1v-61q0 -1 8 -1q9 0 9 1q0 23 6 34t37 11h5q1 0 1 -1v-159v-1h-1h-24q-1 0 -1 -8t1 -8h90q1 0 1 8t-1 8h-25h-2v1v159q0 1 2 1h6q30 0 36.5 -11t6.5 -34q0 -1 9 -1t9 1z
" />
    <glyph glyph-name="fraction" unicode="&#x2215;" horiz-adv-x="513" 
d="M470 720q1 1 -7.5 6t-9.5 3l-412 -749q-1 -2 7 -7t9 -3z" />
    <glyph glyph-name="radical" unicode="&#x221a;" horiz-adv-x="775" 
d="M755 0q2 0 2 10t-2 10h-55q-6 0 -6 4v717q0 3 -3 3q-5 0 -15.5 -3t-22 -6t-21.5 -6t-13 -3q-8 0 -23.5 9t-45.5 9q-41 0 -78.5 -15t-63.5 -50q-14 25 -43.5 41.5t-60.5 16.5q-44 0 -80 -15.5t-61 -49.5t-38.5 -89t-13.5 -134v-19q0 -4 -6 -4h-69q-2 0 -2 -10t2 -10h69
q6 0 6 -4v-378q0 -4 -6 -4h-56q-2 0 -2 -10t2 -10h211q2 0 2 10t-2 10h-56q-2 0 -4 1t-2 3v378q0 2 2 3t4 1h148q7 0 7 -4v-378q0 -4 -7 -4h-56q-1 0 -1 -10t1 -10h212q2 0 2 10t-2 10h-55q-7 0 -7 4v378q0 4 7 4h154v-382q0 -4 -8 -4h-56q-2 0 -2 -10t2 -10h212zM607 426
h-154q-7 0 -7 4v174q0 33 8.5 55.5t23 36.5t33 20t39.5 6q20 0 38.5 -6.5t18.5 -14.5v-275zM397 661q-19 -32 -28.5 -82.5t-9.5 -129.5v-19q0 -4 -7 -4h-148q-2 0 -4 1t-2 3v167q0 65 30.5 91.5t73.5 26.5q61 0 95 -54z" />
    <glyph glyph-name="approxequal" unicode="&#x2248;" horiz-adv-x="784" 
d="M755 0q2 0 2 10t-2 10h-55q-6 0 -6 4v399q0 3 -3 3h-238q-7 0 -7 4v174q0 33 8 55.5t21.5 36.5t31 20t36.5 6q45 0 62 -17t17 -47q0 -11 -2.5 -18t-5 -12.5t-5 -12t-2.5 -15.5q0 -16 11 -26.5t35 -10.5q22 0 35.5 15t13.5 37q0 20 -9.5 43t-27 42t-43.5 31.5t-59 12.5
q-51 0 -89.5 -15t-64.5 -50q-14 25 -44 41.5t-61 16.5q-44 0 -80 -15.5t-61 -49.5t-38.5 -89t-13.5 -134v-19q0 -4 -6 -4h-69q-2 0 -2 -10t2 -10h69q6 0 6 -4v-378q0 -4 -6 -4h-56q-2 0 -2 -10t2 -10h211q2 0 2 10t-2 10h-56q-2 0 -4 1t-2 3v378q0 2 2 3t4 1h148q7 0 7 -4
v-378q0 -4 -7 -4h-56q-1 0 -1 -10t1 -10h212q2 0 2 10t-2 10h-55q-7 0 -7 4v378q0 4 7 4h146q8 0 8 -4v-378q0 -4 -8 -4h-56q-2 0 -2 -10t2 -10h212zM398 660q-20 -32 -29.5 -82t-9.5 -129v-19q0 -4 -7 -4h-148q-2 0 -4 1t-2 3v167q0 65 30.5 91.5t73.5 26.5q31 0 55 -14.5
t41 -40.5z" />
    <glyph glyph-name="apple" unicode="&#xf8ff;" horiz-adv-x="967" 
d="M867 0v750h-767v-750h767zM820 520q0 -1 -1 -1v0q-4 0 -6 0.5t-7 0.5t-7 -0.5t-7 -0.5q-1 0 -1 1v1v1q7 1 7 5q0 3 -1 4l-3 15h-25l4 -15q0 -4 1 -5.5t8 -3.5v-2v-1q-4 0 -5.5 0.5t-6.5 0.5t-7.5 -0.5t-7.5 -0.5q-1 0 -1 1v1v1q8 1 8 5q0 3 -1 4l-7 33l-3 6t-8 3v2v1
q4 0 6.5 -0.5t6.5 -0.5q5 0 7 0.5t7 0.5q1 0 1 -2v-1q-7 -1 -7 -5v-4l4 -14h25l-3 14l-3 6t-6 3q-1 0 -1 2v1q4 0 6 -0.5t7 -0.5q4 0 7 0.5t7 0.5q2 0 2 -2q0 -1 -1 -1q-8 -1 -8 -5q0 -3 1 -4l8 -33q1 -4 2 -5.5t7 -3.5q2 0 2 -2zM559 686h-2q-3 9 -11 9q-3 0 -3 -3v-22
q0 -5 5 -6q1 0 1 -1t-1 -1h-8h-9q-1 0 -1 1t1 1q5 1 5 6v22q0 3 -3 3q-5 0 -6 -2t-3 -7h-1h-1q1 4 1.5 6.5t0.5 5.5q2 -1 4 -1h12h11t4 1q2 -3 2 -6q0 -2 2 -6zM694 540q0 -12 -7.5 -17t-14.5 -5q-14 0 -25 11t-11 27q0 12 7.5 17t14.5 5q14 0 25 -11.5t11 -26.5zM503 662
h-9h-9v1v1q5 1 5 6v9h-17v-9q0 -5 5 -6v-1v-1h-9h-8q-1 0 -1 1t1 1q5 1 5 6v19q0 6 -5 6q-1 0 -1 1t1 1h8h9v-1v-1q-5 0 -5 -6v-8h17v8q0 6 -5 6v1v1h9h9v-1v-1q-5 0 -5.5 -1.5t-0.5 -4.5v-19q0 -3 0.5 -4t5.5 -2v-1v-1zM825 378h-36v28h-11v-65h14v-33h-81v33h14v65h-11
v-28h-36v62h147v-62zM587 536q0 -8 -6.5 -13t-17.5 -5q-16 0 -16 13q0 10 9 10q7 0 7 -5t-4 -5q-2 0 -3 1t-2 1q-3 0 -3 -3q0 -9 12 -9t12 14q0 10 -6 15q-5 -5 -11 -5q-8 0 -8 6t8 6h8q2 2 2 6q0 12 -10 12q-7 0 -7 -6q0 -2 1.5 -2.5t1.5 -3.5t-4 -3q-5 0 -5 6q0 5 3.5 8.5
t9.5 3.5q9 0 14.5 -5t5.5 -10t-4 -9q13 -7 13 -18zM826 619h-685v4h685v-4zM439 663q0 -1 -1 -1v0h-16h-12q-1 3 -2 5.5t-2 5.5v0q0 1 1 1q4 -9 12 -9h3q4 0 4 3v12h-4q-6 0 -6 -6v-1h-1h-1v1v6v6q0 1 1 1t1 -1q0 -5 6 -5h4v10q0 4 -4 4h-3q-6 0 -9 -8v-1q-1 0 -1.5 0.5
l-0.5 0.5q2 4 2 10h12h16v0q1 0 1 -1t-1 -1v0q-5 0 -5 -6v-19q0 -5 5 -6v0q1 0 1 -1zM497 520v-1q-5 0 -7 0.5t-7 0.5q-4 0 -7 -0.5t-7 -0.5q-1 0 -1.5 1l-0.5 1v1h1q8 1 8 5q0 3 -1 4l-3 16h-5q-9 0 -8 -11h-1h-2q-1 4 -1 6q0 3 -1 6q-1 4 -1.5 5.5t-1.5 5.5v1h1q2 0 2 -1
q2 -6 4.5 -7.5t7.5 -1.5h4l-3 16q-1 6 -6 6h-4q-13 0 -14 -13q0 -1 -1 -1q-2 0 -2 1q0 3 0.5 5.5t0.5 4.5q0 5 -1 7q5 0 10 -0.5t10 -0.5t13.5 0.5t11.5 0.5l0.5 -0.5t0.5 -1.5t-1 -1q-7 -1 -7 -5q0 -3 1 -4l7 -33q2 -4 3 -5.5t7 -3.5q1 0 1 -2zM823 173q0 -1 -0.5 -1.5
l-0.5 -0.5q-4 0 -6 0.5t-7 0.5t-7.5 -0.5t-7.5 -0.5q-1 0 -1 1v1v2q8 1 8 5q0 1 -0.5 1.5t-0.5 2.5l-3 15h-5q-9 0 -8 -11h-1h-1q-2 4 -2 7t-1 5q-1 4 -1.5 5.5t-1.5 6.5h2h1q2 -7 4.5 -8t7.5 -1h5l-4 15q-1 6 -6 6h-4q-11 0 -14 -13v-1h-1t-1.5 0.5t0.5 0.5v11v6h19h25
q2 0 2 -2l-1 -1q-8 -1 -8 -5v-4l9 -32q1 -5 2 -6.5t7 -2.5q1 0 1.5 -1zM826 476h-685v4h685v-4zM644 406h-14l-37 -45v-20h15v-33h-81v33h14v19l-37 46h-12v34h62v-34h-10l15 -23l15 23h-11v34h81v-34zM399 521q0 -3 -4 -3q-7 0 -12 7q-8 0 -11 -6t-16 -6t-13 11q0 6 5 6
t5 -4q0 -2 -1 -2.5t-1 -2.5q0 -4 5 -4q7 0 8.5 6.5t12.5 6.5q-5 6 -7 14t-3 14.5t-2.5 11.5t-6.5 5t-5 -6t-4 -6q-5 0 -5 5q0 3 4 6.5t9 3.5q10 0 14.5 -6t6.5 -13.5t3.5 -16t4.5 -12.5q7 -1 10 -4t3 -5zM725 192q0 -12 -7.5 -17t-14.5 -5q-13 0 -24 11.5t-11 26.5
q0 12 7 17t14 5q14 0 25 -11.5t11 -26.5zM292 536q0 -8 -6 -13t-17 -5q-17 0 -17 13q0 10 9 10q8 0 8 -5t-5 -5q-2 0 -3 1t-2 1q-2 0 -2 -3q0 -9 12 -9q5 0 8.5 3t3.5 11q0 9 -6 15q-5 -5 -12 -5t-7 6t7 6h9q0 1 0.5 2t0.5 4q0 12 -10 12q-6 0 -6 -6q0 -2 1.5 -2.5t1.5 -3.5
t-5 -3t-5 6q0 5 4 8.5t9 3.5q9 0 14.5 -5t5.5 -10t-4 -9q13 -7 13 -18zM620 225q-9 -1 -9 -5q0 -1 0.5 -1.5t0.5 -2.5l5 -22q2 -6 2 -8q0 -5 -4.5 -10.5t-16.5 -5.5q-14 0 -19 9t-7 17l-5 20q-1 5 -2.5 6.5t-8.5 2.5q-1 0 -1 1v1v1h11h12v-1v-2q-8 -1 -8 -5q0 -1 0.5 -1.5
t0.5 -2.5l4 -19q2 -9 7 -15.5t13 -6.5q13 0 13 10q0 2 -2 10l-5 21q-1 5 -2 6.5t-8 2.5q-1 0 -1 1v1v1h14h15q1 0 1 -2v-1zM455 308h-81v33h15v19h-30q-22 0 -34.5 11.5t-12.5 28.5t12.5 28.5t34.5 11.5h96v-34h-14v-65h14v-33zM826 272h-685v4h685v-4zM694 47h-8h-6
q-1 0 -1 1v0q0 1 1 1q5 0 5 5l-1 19l-25 -27h-1h-2v28q0 2 -0.5 3.5t-5.5 1.5v2v1q2 0 3.5 -0.5t3.5 -0.5t4 0.5t4 0.5v-1v-2q-5 0 -5.5 -1.5t-0.5 -3.5v-17l24 25q2 0 2.5 -0.5t2.5 -0.5t2.5 0.5t2.5 0.5v-1v-2q-6 0 -6 -5l1 -20q0 -5 6 -5v-1v-1zM203 520q0 -1 -1 -1
q-4 0 -6.5 0.5t-6.5 0.5q-5 0 -8 -0.5t-7 -0.5q-1 0 -1 1v1v1q8 1 8 5v4l-4 14q-4 0 -5 -3l-12 -23q-6 0 -10.5 -0.5t-7.5 -0.5q-2 0 -2 1q0 2 1 2q9 1 14 9l8 16q-7 2 -13 6.5t-6 10.5q0 13 20 13q5 0 7.5 -0.5t6.5 -0.5t6 0.5t7 0.5v-2v-1q-8 -1 -8 -5q0 -3 1 -4l7 -33
q2 -4 3 -5.5t8 -3.5l0.5 -0.5t0.5 -1.5zM522 173q0 -2 -1 -2q-2 0 -4 0.5t-5 0.5q-4 0 -7 -0.5t-5 -0.5l-1 2q0 2 1 2q8 1 6 9l-5 30l-31 -44h-2q-1 0 -1 1l-8 45q-2 8 -10 9v2v1q3 0 5 -0.5t5 -0.5q4 0 6.5 0.5t4.5 0.5t2 -2v-1h-1q-9 -1 -7 -9l4 -28l30 40h9h5q2 0 2 -2
v-1h-1q-9 -1 -9 -6q0 -2 1 -3l7 -32q0 -8 9 -9zM632 46q-3 1 -8 1h-9q-8 0 -12 -1q-1 7 -4 11q0 1 1 1h1q3 -9 12 -9h2q4 0 4 4v11h-4q-2 0 -3.5 -0.5t-2.5 -5.5h-1v6v7v1q1 0 1 -1v0q1 -5 6 -5h4v9q0 4 -4 4h-2q-8 0 -10 -7q0 -1 -1 -1v1q0 3 0.5 5t1.5 5q3 0 5.5 -0.5
t6.5 -0.5q3 0 8 0.5t8 0.5v-1v-2q-5 0 -5.5 -1.5t-0.5 -3.5v-20q0 -2 0.5 -3.5t5.5 -1.5v-1v-2zM582 81q0 -2 -1 -2q-2 0 -6 -6l-12 -27h-1l-9 15l-7 -15h-1h-1l-12 27q-2 3 -2.5 4.5t-3.5 1.5v2v1q2 0 2.5 -0.5t2.5 -0.5t3 0.5t3 0.5q1 0 1 -1v0q0 -2 -1 -2q-2 0 -2 -3v-3
l8 -18l7 13l-3 5q-3 6 -7 6q-1 0 -1 2v1q2 0 3.5 -0.5t3.5 -0.5t2.5 0.5t2.5 0.5q3 0 4 -0.5t3 -0.5q3 0 3.5 0.5t3.5 0.5l1 -1q0 -1 -0.5 -1.5l-0.5 -0.5q-5 0 -6 -6l-5 -9l6 -9l9 19v2q0 3 -2 3v2v1q3 0 4.5 -0.5t3.5 -0.5t3 0.5t4 0.5v-1zM826 128h-685v4h685v-4z
M277 308h-141v61h41v-28h33v21h-24v24h24v20h-33v-28h-41v62h141v-34h-14v-65h14v-33zM413 171q-3 1 -8 1h-9h-15q-13 0 -24 9t-11 25q0 11 8 17t17 6q3 0 6.5 -0.5t8.5 -0.5h15v-2v-1q-7 -1 -7 -5v-4l8 -32q1 -5 2 -6.5t8 -2.5q1 0 1 -1v-1v-2zM479 81v-2q-5 0 -7 -5
l-8 -12v-8q0 -5 5 -5q1 0 1 -1v0q0 -2 -1 -2q-2 0 -4 0.5t-4 0.5q-4 0 -5.5 -0.5t-3.5 -0.5v2v1q5 0 5 5v8l-8 12q-4 5 -8 5v2v1q2 0 3 -0.5t3 -0.5t4 0.5t4 0.5v-1v-2q-4 0 -4 -3v-1l1 -1l6 -9l6 9q1 1 1 3t-2 2q-1 0 -1 2v0q0 1 1 1q2 0 3.5 -0.5t4.5 -0.5t4.5 0.5
t3.5 0.5v-1zM306 173q0 -1 -0.5 -1.5l-0.5 -0.5q-4 0 -6 0.5t-7 0.5t-7.5 -0.5t-7.5 -0.5l-1 2q0 2 1 2q7 1 7 5v4l-3 13q-4 0 -6 -3l-12 -22q-6 0 -10 -0.5t-8 -1.5h-1v2q0 1 1 1q9 3 12 10l9 16q-7 1 -12.5 6t-5.5 11q0 12 19 12h14h12q2 0 2 -2v-1h-1q-7 -1 -7 -5v-4
l8 -32q1 -5 2 -6.5t8 -2.5zM424 64q0 -8 -5.5 -13t-14.5 -5t-14 5t-5 13t5 13t14 5t14.5 -5t5.5 -13zM364 48q0 -2 -1 -2q-2 0 -3.5 0.5t-5.5 0.5q-3 0 -4.5 -0.5t-3.5 -0.5q-1 0 -1 2v0q0 1 1 1q5 0 5 5v9q-3 0 -4 -1t-3 -4l-6 -11h-6h-6v1v1q5 0 7 4l8 11q-8 3 -8 9
q0 9 12 9q3 0 4.5 -0.5t4.5 -0.5t5 0.5t4 0.5q1 0 1 -1v0q0 -2 -1 -2q-5 0 -5 -5v-20q0 -5 5 -5q1 0 1 -1v0zM202 215h-2l-4.5 4.5t-7.5 2.5q-9 0 -9 -13q0 -8 3 -17l2 -8q1 -5 2 -6.5t8 -2.5l1 -2q0 -1 -0.5 -1.5l-0.5 -0.5q-4 0 -6 0.5t-6 0.5q-5 0 -7.5 -0.5t-7.5 -0.5
q-1 0 -1 1v1v2q7 1 7 5v4l-1 6q-4 14 -9 23.5t-15 9.5q-8 0 -8 -6h-3v1q0 5 2 8.5t7 3.5q8 0 14.5 -6.5t9.5 -16.5v5q0 18 14 18q8 0 11.5 -4t6.5 -9q2 0 0 -2zM308 46q-2 0 -4 0.5t-5 0.5t-4.5 -0.5t-4.5 -0.5v2v1q5 0 5.5 1.5t0.5 3.5v9q-2 0 -4 -2l-7 -8q-1 -1 -1 -2
q0 -2 3 -2v-1v-2q-3 0 -5.5 0.5t-4.5 0.5q-3 0 -4.5 -0.5t-3.5 -0.5q-1 0 -1 2l1 1q3 0 7 4l13 13l-9 9l-3 3t-5 1v2v1q2 0 3 -0.5t3 -0.5t3.5 0.5t3.5 0.5v-1v-2q-3 0 -3 -1t2 -3l8 -8q1 -3 4 -3v10q0 2 -0.5 3.5t-5.5 1.5v2v1q3 0 4.5 -0.5t4.5 -0.5t5 0.5t4 0.5v-1v-2
q-6 0 -6 -5v-20q0 -5 6 -5v-1v-2zM683 535q0 16 -7.5 28t-16.5 12q-12 0 -12 -15t7.5 -27t16.5 -12q12 0 12 14zM565 553q-2 1 -7 1q-4 0 -4 -3q0 -2 4 -2t7 4zM713 188q0 15 -6.5 27t-17.5 12q-10 0 -10 -14q0 -16 6.5 -28t17.5 -12q10 0 10 15zM270 553q-2 1 -7 1
q-3 0 -3 -3q0 -2 3 -2q4 0 7 4zM389 384v22h-11q-13 0 -13 -11t13 -11h11zM176 548l-3 18q-2 6 -9 6q-8 0 -8 -9q0 -5 3 -10t12 -5h5zM554 77q0 2 -3 2q-2 0 -2 -3l0.5 -1.5t1.5 -3.5q3 4 3 6zM392 182l-9 36q-2 5 -3 5.5t-3 0.5l-6 1q-14 0 -14 -18q0 -12 7.5 -21.5
t18.5 -9.5h5q2 0 3 0.5t1 5.5zM280 201l-5 17q0 7 -7 7q-8 0 -8 -10q0 -5 3 -9.5t12 -4.5h5zM416 64q0 7 -2.5 12t-9.5 5q-6 0 -9 -5t-3 -12q0 -16 12 -16t12 16zM351 65v10q0 4 -4 4q-7 0 -7 -6q0 -8 8 -8h3z" />
    <glyph glyph-name="fi" unicode="&#xfb01;" horiz-adv-x="532" 
d="M507 0q2 0 2 10t-2 10h-55q-7 0 -7 4v399q0 3 -2 3h-237q-8 0 -8 4v174q0 33 8.5 55.5t22 36.5t31 20t36.5 6q43 0 60 -17t17 -47q0 -11 -2.5 -18t-5 -12.5t-5 -12t-2.5 -15.5q0 -16 11.5 -27t35.5 -11q22 0 36.5 15.5t14.5 35.5q0 21 -9.5 44t-27.5 42.5t-44 32
t-59 12.5q-52 0 -90.5 -15t-64 -50t-38 -91.5t-12.5 -138.5v-19q0 -4 -7 -4h-69q-2 0 -2 -10t2 -10h69q7 0 7 -4v-378q0 -4 -7 -4h-56q-1 0 -1 -10t1 -10h212q2 0 2 10t-2 10h-54q-8 0 -8 4v378q0 4 8 4h146q6 0 6 -4v-378q0 -4 -6 -4h-55q-2 0 -2 -10t2 -10h210z" />
    <glyph glyph-name="fl" unicode="&#xfb02;" horiz-adv-x="522" 
d="M507 0q2 0 2 10t-2 10h-55q-7 0 -7 4v717q0 3 -2 3q-5 0 -15.5 -3t-22 -6t-21.5 -6t-14 -3q-6 0 -21 9t-47 9q-35 0 -69.5 -12.5t-61.5 -45.5t-43.5 -90t-16.5 -147v-19q0 -4 -7 -4h-69q-2 0 -2 -10t2 -10h69q7 0 7 -4v-378q0 -4 -7 -4h-56q-1 0 -1 -10t1 -10h212
q2 0 2 10t-2 10h-54q-8 0 -8 4v378q0 4 8 4h152v-382q0 -4 -6 -4h-55q-2 0 -2 -10t2 -10h210zM358 426h-152q-8 0 -8 4v174q0 33 8.5 55.5t23 36.5t33 20t39.5 6t38.5 -6.5t17.5 -14.5v-275z" />
    </font>
</defs>
</svg>
